%TF.GenerationSoftware,KiCad,Pcbnew,9.0.7-9.0.7~ubuntu24.04.1*%
%TF.CreationDate,2026-03-12T09:05:47+01:00*%
%TF.ProjectId,adc board,61646320-626f-4617-9264-2e6b69636164,rev?*%
%TF.SameCoordinates,Original*%
%TF.FileFunction,Copper,L2,Bot*%
%TF.FilePolarity,Positive*%
%FSLAX46Y46*%
G04 Gerber Fmt 4.6, Leading zero omitted, Abs format (unit mm)*
G04 Created by KiCad (PCBNEW 9.0.7-9.0.7~ubuntu24.04.1) date 2026-03-12 09:05:47*
%MOMM*%
%LPD*%
G01*
G04 APERTURE LIST*
G04 Aperture macros list*
%AMRoundRect*
0 Rectangle with rounded corners*
0 $1 Rounding radius*
0 $2 $3 $4 $5 $6 $7 $8 $9 X,Y pos of 4 corners*
0 Add a 4 corners polygon primitive as box body*
4,1,4,$2,$3,$4,$5,$6,$7,$8,$9,$2,$3,0*
0 Add four circle primitives for the rounded corners*
1,1,$1+$1,$2,$3*
1,1,$1+$1,$4,$5*
1,1,$1+$1,$6,$7*
1,1,$1+$1,$8,$9*
0 Add four rect primitives between the rounded corners*
20,1,$1+$1,$2,$3,$4,$5,0*
20,1,$1+$1,$4,$5,$6,$7,0*
20,1,$1+$1,$6,$7,$8,$9,0*
20,1,$1+$1,$8,$9,$2,$3,0*%
G04 Aperture macros list end*
%TA.AperFunction,ComponentPad*%
%ADD10RoundRect,0.250000X0.725000X-0.600000X0.725000X0.600000X-0.725000X0.600000X-0.725000X-0.600000X0*%
%TD*%
%TA.AperFunction,ComponentPad*%
%ADD11O,1.950000X1.700000*%
%TD*%
%TA.AperFunction,ComponentPad*%
%ADD12RoundRect,0.250000X-0.725000X0.600000X-0.725000X-0.600000X0.725000X-0.600000X0.725000X0.600000X0*%
%TD*%
%TA.AperFunction,SMDPad,CuDef*%
%ADD13RoundRect,0.237500X0.237500X-0.300000X0.237500X0.300000X-0.237500X0.300000X-0.237500X-0.300000X0*%
%TD*%
%TA.AperFunction,SMDPad,CuDef*%
%ADD14RoundRect,0.237500X0.300000X0.237500X-0.300000X0.237500X-0.300000X-0.237500X0.300000X-0.237500X0*%
%TD*%
%TA.AperFunction,ViaPad*%
%ADD15C,0.600000*%
%TD*%
%TA.AperFunction,Conductor*%
%ADD16C,0.200000*%
%TD*%
G04 APERTURE END LIST*
D10*
%TO.P,J1,1,Pin_1*%
%TO.N,AIN3*%
X12530000Y-31240000D03*
D11*
%TO.P,J1,2,Pin_2*%
%TO.N,AIN2*%
X12530000Y-28740000D03*
%TO.P,J1,3,Pin_3*%
%TO.N,AIN1*%
X12530000Y-26240000D03*
%TO.P,J1,4,Pin_4*%
%TO.N,AIN0*%
X12530000Y-23740000D03*
%TO.P,J1,5,Pin_5*%
%TO.N,GND*%
X12530000Y-21240000D03*
%TO.P,J1,6,Pin_6*%
%TO.N,+5V*%
X12530000Y-18740000D03*
%TD*%
D12*
%TO.P,J5,1,Pin_1*%
%TO.N,+5V*%
X32217500Y-18407500D03*
D11*
%TO.P,J5,2,Pin_2*%
%TO.N,+3.3V*%
X32217500Y-20907500D03*
%TO.P,J5,3,Pin_3*%
%TO.N,SCL*%
X32217500Y-23407500D03*
%TO.P,J5,4,Pin_4*%
%TO.N,SDA*%
X32217500Y-25907500D03*
%TO.P,J5,5,Pin_5*%
%TO.N,neg_DRDY*%
X32217500Y-28407500D03*
%TO.P,J5,6,Pin_6*%
%TO.N,neg_RESET*%
X32217500Y-30907500D03*
%TO.P,J5,7,Pin_7*%
%TO.N,GND*%
X32217500Y-33407500D03*
%TD*%
D13*
%TO.P,solderable_connection3,1*%
%TO.N,+3.3V*%
X20270000Y-30252500D03*
%TO.P,solderable_connection3,2*%
%TO.N,Net-(IC1-A0)*%
X20270000Y-28527500D03*
%TD*%
D14*
%TO.P,solderable_connection0,1*%
%TO.N,+3.3V*%
X33670000Y-16407500D03*
%TO.P,solderable_connection0,2*%
%TO.N,+5V*%
X31945000Y-16407500D03*
%TD*%
D13*
%TO.P,solderable_connection1,1*%
%TO.N,GND*%
X28410000Y-30395000D03*
%TO.P,solderable_connection1,2*%
%TO.N,Net-(IC1-A1)*%
X28410000Y-28670000D03*
%TD*%
%TO.P,solderable_connection2,1*%
%TO.N,+3.3V*%
X25810000Y-30392500D03*
%TO.P,solderable_connection2,2*%
%TO.N,Net-(IC1-A1)*%
X25810000Y-28667500D03*
%TD*%
%TO.P,solderable_connection4,1*%
%TO.N,GND*%
X17560000Y-30275000D03*
%TO.P,solderable_connection4,2*%
%TO.N,Net-(IC1-A0)*%
X17560000Y-28550000D03*
%TD*%
D15*
%TO.N,GND*%
X17000000Y-20000000D03*
X27293168Y-22191780D03*
X30510534Y-29268248D03*
X26000000Y-27000000D03*
X33870000Y-24690000D03*
X27000000Y-31500000D03*
X28520000Y-17040000D03*
X15500000Y-33500000D03*
X15410000Y-27270000D03*
%TO.N,+5V*%
X30500000Y-22690000D03*
%TO.N,+3.3V*%
X24036027Y-29267500D03*
%TO.N,Net-(IC1-A1)*%
X22850000Y-28680000D03*
%TO.N,SCL*%
X21470000Y-21310000D03*
%TO.N,AIN1*%
X22620000Y-25560000D03*
%TO.N,SDA*%
X21023847Y-21974042D03*
%TO.N,neg_DRDY*%
X21496797Y-22619273D03*
%TO.N,AIN0*%
X22620000Y-24560000D03*
%TO.N,Net-(IC1-A0)*%
X22790000Y-27420000D03*
%TD*%
D16*
%TO.N,GND*%
X31502500Y-33407500D02*
X32217500Y-33407500D01*
%TO.N,+5V*%
X32217500Y-18407500D02*
X32217500Y-16680000D01*
X32217500Y-18462500D02*
X32217500Y-18407500D01*
X30520000Y-21360000D02*
X30520000Y-20160000D01*
X31784000Y-18841000D02*
X32217500Y-18407500D01*
X12631000Y-18841000D02*
X31784000Y-18841000D01*
X32217500Y-16680000D02*
X31945000Y-16407500D01*
X12530000Y-18740000D02*
X12631000Y-18841000D01*
X30520000Y-20160000D02*
X32217500Y-18462500D01*
X30500000Y-21380000D02*
X30520000Y-21360000D01*
X12530000Y-18740000D02*
X12530000Y-18080000D01*
X30500000Y-22690000D02*
X30500000Y-21380000D01*
X32040000Y-18160000D02*
X32330000Y-18450000D01*
%TO.N,+3.3V*%
X24036027Y-29267500D02*
X25161027Y-30392500D01*
X23047500Y-30252500D02*
X20270000Y-30252500D01*
X24036027Y-29267500D02*
X24032500Y-29267500D01*
X33670000Y-16407500D02*
X33670000Y-19455000D01*
X25161027Y-30392500D02*
X25810000Y-30392500D01*
X33670000Y-19455000D02*
X32217500Y-20907500D01*
X25810000Y-30780000D02*
X25810000Y-30392500D01*
X32210000Y-20525000D02*
X32037500Y-20697500D01*
X24032500Y-29267500D02*
X23047500Y-30252500D01*
%TO.N,Net-(IC1-A1)*%
X23436030Y-28667500D02*
X25810000Y-28667500D01*
X28410000Y-28495000D02*
X28407500Y-28492500D01*
X23423530Y-28680000D02*
X23436030Y-28667500D01*
X28407500Y-28492500D02*
X25810000Y-28492500D01*
X22850000Y-28680000D02*
X23423530Y-28680000D01*
%TO.N,SCL*%
X25670000Y-21560000D02*
X27480000Y-23370000D01*
X21720000Y-21560000D02*
X25670000Y-21560000D01*
X21470000Y-21310000D02*
X21720000Y-21560000D01*
X32180000Y-23370000D02*
X32217500Y-23407500D01*
X27480000Y-23370000D02*
X32180000Y-23370000D01*
%TO.N,AIN1*%
X12530000Y-26240000D02*
X21940000Y-26240000D01*
X21940000Y-26240000D02*
X22620000Y-25560000D01*
%TO.N,SDA*%
X21023847Y-21974042D02*
X24724042Y-21974042D01*
X28657500Y-25907500D02*
X32217500Y-25907500D01*
X24724042Y-21974042D02*
X28657500Y-25907500D01*
%TO.N,neg_DRDY*%
X22437524Y-23560000D02*
X25030000Y-23560000D01*
X32160000Y-28350000D02*
X32217500Y-28407500D01*
X21496797Y-22619273D02*
X22437524Y-23560000D01*
X29820000Y-28350000D02*
X32160000Y-28350000D01*
X25030000Y-23560000D02*
X29820000Y-28350000D01*
%TO.N,AIN0*%
X14620000Y-25560000D02*
X21620000Y-25560000D01*
X14350000Y-25560000D02*
X14620000Y-25560000D01*
X12530000Y-23740000D02*
X14350000Y-25560000D01*
X21620000Y-25560000D02*
X22620000Y-24560000D01*
%TO.N,Net-(IC1-A0)*%
X22790000Y-27420000D02*
X21682500Y-28527500D01*
X20270000Y-28527500D02*
X17582500Y-28527500D01*
X17582500Y-28527500D02*
X17560000Y-28550000D01*
X21682500Y-28527500D02*
X20270000Y-28527500D01*
%TD*%
%TA.AperFunction,Conductor*%
%TO.N,GND*%
G36*
X34442539Y-14520185D02*
G01*
X34488294Y-14572989D01*
X34499500Y-14624500D01*
X34499500Y-15407329D01*
X34479815Y-15474368D01*
X34427011Y-15520123D01*
X34357853Y-15530067D01*
X34310404Y-15512868D01*
X34284022Y-15496595D01*
X34284017Y-15496593D01*
X34284016Y-15496592D01*
X34120253Y-15442326D01*
X34120251Y-15442325D01*
X34019178Y-15432000D01*
X33320830Y-15432000D01*
X33320812Y-15432001D01*
X33219747Y-15442325D01*
X33055984Y-15496592D01*
X33055981Y-15496593D01*
X32909148Y-15587161D01*
X32895181Y-15601129D01*
X32833858Y-15634614D01*
X32764166Y-15629630D01*
X32719819Y-15601129D01*
X32705851Y-15587161D01*
X32705850Y-15587160D01*
X32559016Y-15496592D01*
X32395253Y-15442326D01*
X32395251Y-15442325D01*
X32294178Y-15432000D01*
X31595830Y-15432000D01*
X31595812Y-15432001D01*
X31494747Y-15442325D01*
X31330984Y-15496592D01*
X31330981Y-15496593D01*
X31184148Y-15587161D01*
X31062161Y-15709148D01*
X30971593Y-15855981D01*
X30971592Y-15855984D01*
X30917326Y-16019747D01*
X30917326Y-16019748D01*
X30917325Y-16019748D01*
X30907000Y-16120815D01*
X30907000Y-16694169D01*
X30907001Y-16694187D01*
X30917325Y-16795252D01*
X30971592Y-16959015D01*
X30971595Y-16959022D01*
X31037630Y-17066082D01*
X31056070Y-17133474D01*
X31035147Y-17200138D01*
X31019773Y-17218859D01*
X30899787Y-17338845D01*
X30807687Y-17488163D01*
X30807686Y-17488166D01*
X30752501Y-17654703D01*
X30752501Y-17654704D01*
X30752500Y-17654704D01*
X30742000Y-17757483D01*
X30742000Y-18116500D01*
X30722315Y-18183539D01*
X30669511Y-18229294D01*
X30618000Y-18240500D01*
X13992181Y-18240500D01*
X13925142Y-18220815D01*
X13881696Y-18172795D01*
X13853012Y-18116500D01*
X13810051Y-18032184D01*
X13802023Y-18021134D01*
X13685109Y-17860213D01*
X13534786Y-17709890D01*
X13362820Y-17584951D01*
X13173414Y-17488444D01*
X13173413Y-17488443D01*
X13173412Y-17488443D01*
X12971243Y-17422754D01*
X12971241Y-17422753D01*
X12971240Y-17422753D01*
X12809957Y-17397208D01*
X12761287Y-17389500D01*
X12298713Y-17389500D01*
X12250042Y-17397208D01*
X12088760Y-17422753D01*
X11886585Y-17488444D01*
X11697179Y-17584951D01*
X11525213Y-17709890D01*
X11374890Y-17860213D01*
X11249951Y-18032179D01*
X11153444Y-18221585D01*
X11087753Y-18423760D01*
X11054500Y-18633713D01*
X11054500Y-18846286D01*
X11087753Y-19056239D01*
X11153444Y-19258414D01*
X11249951Y-19447820D01*
X11374890Y-19619786D01*
X11525209Y-19770105D01*
X11525214Y-19770109D01*
X11690218Y-19889991D01*
X11732884Y-19945320D01*
X11738863Y-20014934D01*
X11706258Y-20076729D01*
X11690218Y-20090627D01*
X11525540Y-20210272D01*
X11525535Y-20210276D01*
X11375276Y-20360535D01*
X11375272Y-20360540D01*
X11250379Y-20532442D01*
X11153904Y-20721782D01*
X11088242Y-20923870D01*
X11088242Y-20923873D01*
X11077769Y-20990000D01*
X12125854Y-20990000D01*
X12087370Y-21056657D01*
X12055000Y-21177465D01*
X12055000Y-21302535D01*
X12087370Y-21423343D01*
X12125854Y-21490000D01*
X11077769Y-21490000D01*
X11088242Y-21556126D01*
X11088242Y-21556129D01*
X11153904Y-21758217D01*
X11250379Y-21947557D01*
X11375272Y-22119459D01*
X11375276Y-22119464D01*
X11525535Y-22269723D01*
X11525540Y-22269727D01*
X11690218Y-22389372D01*
X11732884Y-22444701D01*
X11738863Y-22514315D01*
X11706258Y-22576110D01*
X11690218Y-22590008D01*
X11525214Y-22709890D01*
X11525209Y-22709894D01*
X11374890Y-22860213D01*
X11249951Y-23032179D01*
X11153444Y-23221585D01*
X11153443Y-23221587D01*
X11153443Y-23221588D01*
X11127571Y-23301213D01*
X11087753Y-23423760D01*
X11054500Y-23633713D01*
X11054500Y-23846286D01*
X11074223Y-23970816D01*
X11087754Y-24056243D01*
X11134503Y-24200122D01*
X11153444Y-24258414D01*
X11249951Y-24447820D01*
X11374890Y-24619786D01*
X11525209Y-24770105D01*
X11525214Y-24770109D01*
X11689793Y-24889682D01*
X11732459Y-24945011D01*
X11738438Y-25014625D01*
X11705833Y-25076420D01*
X11689793Y-25090318D01*
X11525214Y-25209890D01*
X11525209Y-25209894D01*
X11374890Y-25360213D01*
X11249951Y-25532179D01*
X11153444Y-25721585D01*
X11087753Y-25923760D01*
X11054500Y-26133713D01*
X11054500Y-26346286D01*
X11086291Y-26547011D01*
X11087754Y-26556243D01*
X11140858Y-26719681D01*
X11153444Y-26758414D01*
X11249951Y-26947820D01*
X11374890Y-27119786D01*
X11525209Y-27270105D01*
X11525214Y-27270109D01*
X11689793Y-27389682D01*
X11732459Y-27445011D01*
X11738438Y-27514625D01*
X11705833Y-27576420D01*
X11689793Y-27590318D01*
X11525214Y-27709890D01*
X11525209Y-27709894D01*
X11374890Y-27860213D01*
X11249951Y-28032179D01*
X11153444Y-28221585D01*
X11087753Y-28423760D01*
X11054500Y-28633713D01*
X11054500Y-28846286D01*
X11080005Y-29007322D01*
X11087754Y-29056243D01*
X11131309Y-29190292D01*
X11153444Y-29258414D01*
X11249951Y-29447820D01*
X11374890Y-29619786D01*
X11513705Y-29758601D01*
X11547190Y-29819924D01*
X11542206Y-29889616D01*
X11500334Y-29945549D01*
X11491121Y-29951821D01*
X11336342Y-30047289D01*
X11212289Y-30171342D01*
X11120187Y-30320663D01*
X11120186Y-30320666D01*
X11065001Y-30487203D01*
X11065001Y-30487204D01*
X11065000Y-30487204D01*
X11054500Y-30589983D01*
X11054500Y-31890001D01*
X11054501Y-31890018D01*
X11065000Y-31992796D01*
X11065001Y-31992799D01*
X11088115Y-32062551D01*
X11120186Y-32159334D01*
X11212288Y-32308656D01*
X11336344Y-32432712D01*
X11485666Y-32524814D01*
X11652203Y-32579999D01*
X11754991Y-32590500D01*
X13305008Y-32590499D01*
X13407797Y-32579999D01*
X13574334Y-32524814D01*
X13723656Y-32432712D01*
X13847712Y-32308656D01*
X13939814Y-32159334D01*
X13994999Y-31992797D01*
X14005500Y-31890009D01*
X14005499Y-30624154D01*
X16585001Y-30624154D01*
X16595319Y-30725152D01*
X16649546Y-30888800D01*
X16649551Y-30888811D01*
X16740052Y-31035534D01*
X16740055Y-31035538D01*
X16861961Y-31157444D01*
X16861965Y-31157447D01*
X17008688Y-31247948D01*
X17008699Y-31247953D01*
X17172347Y-31302180D01*
X17273352Y-31312499D01*
X17310000Y-31312499D01*
X17810000Y-31312499D01*
X17846640Y-31312499D01*
X17846654Y-31312498D01*
X17947652Y-31302180D01*
X18111300Y-31247953D01*
X18111311Y-31247948D01*
X18258034Y-31157447D01*
X18258038Y-31157444D01*
X18379944Y-31035538D01*
X18379947Y-31035534D01*
X18470448Y-30888811D01*
X18470453Y-30888800D01*
X18524680Y-30725152D01*
X18534999Y-30624154D01*
X18535000Y-30624141D01*
X18535000Y-30525000D01*
X17810000Y-30525000D01*
X17810000Y-31312499D01*
X17310000Y-31312499D01*
X17310000Y-30525000D01*
X16585001Y-30525000D01*
X16585001Y-30624154D01*
X14005499Y-30624154D01*
X14005499Y-30589992D01*
X13994999Y-30487203D01*
X13939814Y-30320666D01*
X13847712Y-30171344D01*
X13723656Y-30047288D01*
X13574334Y-29955186D01*
X13574333Y-29955185D01*
X13568878Y-29951821D01*
X13522154Y-29899873D01*
X13510931Y-29830910D01*
X13538775Y-29766828D01*
X13546272Y-29758623D01*
X13685104Y-29619792D01*
X13700930Y-29598010D01*
X13810048Y-29447820D01*
X13810047Y-29447820D01*
X13810051Y-29447816D01*
X13906557Y-29258412D01*
X13972246Y-29056243D01*
X14005500Y-28846287D01*
X14005500Y-28633713D01*
X13972246Y-28423757D01*
X13906557Y-28221588D01*
X13810051Y-28032184D01*
X13810049Y-28032181D01*
X13810048Y-28032179D01*
X13685109Y-27860213D01*
X13534792Y-27709896D01*
X13513041Y-27694093D01*
X13370204Y-27590316D01*
X13327540Y-27534989D01*
X13321561Y-27465376D01*
X13354166Y-27403580D01*
X13370199Y-27389686D01*
X13534792Y-27270104D01*
X13685104Y-27119792D01*
X13685106Y-27119788D01*
X13685109Y-27119786D01*
X13747878Y-27033390D01*
X13810051Y-26947816D01*
X13815254Y-26937605D01*
X13830235Y-26908205D01*
X13878209Y-26857409D01*
X13940719Y-26840500D01*
X21853332Y-26840500D01*
X21860939Y-26840500D01*
X21860943Y-26840501D01*
X21982468Y-26840501D01*
X22049507Y-26860186D01*
X22095262Y-26912990D01*
X22099296Y-26941049D01*
X22105205Y-26982148D01*
X22085570Y-27033390D01*
X22080611Y-27040811D01*
X22080602Y-27040827D01*
X22020264Y-27186498D01*
X22020261Y-27186508D01*
X21989362Y-27341848D01*
X21956977Y-27403759D01*
X21955426Y-27405337D01*
X21470084Y-27890681D01*
X21443156Y-27905384D01*
X21417338Y-27921977D01*
X21411137Y-27922868D01*
X21408761Y-27924166D01*
X21382403Y-27927000D01*
X21258452Y-27927000D01*
X21191413Y-27907315D01*
X21152914Y-27868097D01*
X21090342Y-27766653D01*
X21090339Y-27766649D01*
X20968351Y-27644661D01*
X20968350Y-27644660D01*
X20857993Y-27576591D01*
X20821518Y-27554093D01*
X20821513Y-27554091D01*
X20763867Y-27534989D01*
X20657753Y-27499826D01*
X20657751Y-27499825D01*
X20556678Y-27489500D01*
X19983330Y-27489500D01*
X19983312Y-27489501D01*
X19882247Y-27499825D01*
X19718484Y-27554092D01*
X19718481Y-27554093D01*
X19571648Y-27644661D01*
X19449660Y-27766649D01*
X19449657Y-27766653D01*
X19387086Y-27868097D01*
X19335138Y-27914822D01*
X19281548Y-27927000D01*
X18534574Y-27927000D01*
X18467535Y-27907315D01*
X18429036Y-27868097D01*
X18380342Y-27789153D01*
X18380339Y-27789149D01*
X18258351Y-27667161D01*
X18258350Y-27667160D01*
X18133771Y-27590319D01*
X18111518Y-27576593D01*
X18111513Y-27576591D01*
X18095377Y-27571244D01*
X17947753Y-27522326D01*
X17947751Y-27522325D01*
X17846678Y-27512000D01*
X17273330Y-27512000D01*
X17273312Y-27512001D01*
X17172247Y-27522325D01*
X17008484Y-27576592D01*
X17008481Y-27576593D01*
X16861648Y-27667161D01*
X16739661Y-27789148D01*
X16649093Y-27935981D01*
X16649092Y-27935984D01*
X16594826Y-28099747D01*
X16594826Y-28099748D01*
X16594825Y-28099748D01*
X16584500Y-28200815D01*
X16584500Y-28899169D01*
X16584501Y-28899187D01*
X16594825Y-29000252D01*
X16614352Y-29059179D01*
X16648391Y-29161902D01*
X16649092Y-29164015D01*
X16649093Y-29164018D01*
X16657714Y-29177995D01*
X16734069Y-29301786D01*
X16739661Y-29310851D01*
X16753982Y-29325172D01*
X16787467Y-29386495D01*
X16782483Y-29456187D01*
X16753985Y-29500532D01*
X16740052Y-29514465D01*
X16649551Y-29661188D01*
X16649546Y-29661199D01*
X16595319Y-29824847D01*
X16585000Y-29925845D01*
X16585000Y-30025000D01*
X18534999Y-30025000D01*
X18534999Y-29925860D01*
X18534998Y-29925845D01*
X18524680Y-29824847D01*
X18470453Y-29661199D01*
X18470448Y-29661188D01*
X18379947Y-29514465D01*
X18379944Y-29514461D01*
X18366017Y-29500534D01*
X18332532Y-29439211D01*
X18337516Y-29369519D01*
X18350937Y-29343454D01*
X18357595Y-29333594D01*
X18380340Y-29310850D01*
X18458134Y-29184724D01*
X18459569Y-29182601D01*
X18484585Y-29161902D01*
X18508739Y-29140178D01*
X18511640Y-29139518D01*
X18513402Y-29138061D01*
X18523316Y-29136865D01*
X18562330Y-29128000D01*
X19281548Y-29128000D01*
X19348587Y-29147685D01*
X19387086Y-29186903D01*
X19449657Y-29288346D01*
X19449660Y-29288350D01*
X19463629Y-29302319D01*
X19497114Y-29363642D01*
X19492130Y-29433334D01*
X19463629Y-29477681D01*
X19449661Y-29491648D01*
X19359093Y-29638481D01*
X19359091Y-29638486D01*
X19331719Y-29721088D01*
X19304826Y-29802247D01*
X19304826Y-29802248D01*
X19304825Y-29802248D01*
X19294500Y-29903315D01*
X19294500Y-30601669D01*
X19294501Y-30601687D01*
X19304825Y-30702752D01*
X19359092Y-30866515D01*
X19359093Y-30866518D01*
X19372837Y-30888800D01*
X19449660Y-31013350D01*
X19571650Y-31135340D01*
X19718484Y-31225908D01*
X19882247Y-31280174D01*
X19983323Y-31290500D01*
X20556676Y-31290499D01*
X20556684Y-31290498D01*
X20556687Y-31290498D01*
X20612030Y-31284844D01*
X20657753Y-31280174D01*
X20821516Y-31225908D01*
X20968350Y-31135340D01*
X21090340Y-31013350D01*
X21121729Y-30962460D01*
X21152914Y-30911903D01*
X21204862Y-30865178D01*
X21258452Y-30853000D01*
X22960831Y-30853000D01*
X22960847Y-30853001D01*
X22968443Y-30853001D01*
X23126554Y-30853001D01*
X23126557Y-30853001D01*
X23279285Y-30812077D01*
X23338434Y-30777927D01*
X23416216Y-30733020D01*
X23528020Y-30621216D01*
X23528020Y-30621214D01*
X23538224Y-30611011D01*
X23538228Y-30611006D01*
X23946582Y-30202652D01*
X24007905Y-30169167D01*
X24077597Y-30174151D01*
X24121944Y-30202652D01*
X24680505Y-30761213D01*
X24680507Y-30761216D01*
X24792311Y-30873020D01*
X24839456Y-30900239D01*
X24848706Y-30908379D01*
X24861051Y-30927916D01*
X24877002Y-30944644D01*
X24884492Y-30962460D01*
X24899090Y-31006513D01*
X24903305Y-31013346D01*
X24989660Y-31153350D01*
X25111650Y-31275340D01*
X25258484Y-31365908D01*
X25422247Y-31420174D01*
X25523323Y-31430500D01*
X26096676Y-31430499D01*
X26096684Y-31430498D01*
X26096687Y-31430498D01*
X26178115Y-31422180D01*
X26197753Y-31420174D01*
X26361516Y-31365908D01*
X26508350Y-31275340D01*
X26630340Y-31153350D01*
X26720908Y-31006516D01*
X26775174Y-30842753D01*
X26785247Y-30744154D01*
X27435001Y-30744154D01*
X27445319Y-30845152D01*
X27499546Y-31008800D01*
X27499551Y-31008811D01*
X27590052Y-31155534D01*
X27590055Y-31155538D01*
X27711961Y-31277444D01*
X27711965Y-31277447D01*
X27858688Y-31367948D01*
X27858699Y-31367953D01*
X28022347Y-31422180D01*
X28123352Y-31432499D01*
X28160000Y-31432499D01*
X28660000Y-31432499D01*
X28696640Y-31432499D01*
X28696654Y-31432498D01*
X28797652Y-31422180D01*
X28961300Y-31367953D01*
X28961311Y-31367948D01*
X29108034Y-31277447D01*
X29108038Y-31277444D01*
X29229944Y-31155538D01*
X29229947Y-31155534D01*
X29320448Y-31008811D01*
X29320453Y-31008800D01*
X29374680Y-30845152D01*
X29384999Y-30744154D01*
X29385000Y-30744141D01*
X29385000Y-30645000D01*
X28660000Y-30645000D01*
X28660000Y-31432499D01*
X28160000Y-31432499D01*
X28160000Y-30645000D01*
X27435001Y-30645000D01*
X27435001Y-30744154D01*
X26785247Y-30744154D01*
X26785500Y-30741677D01*
X26785499Y-30389088D01*
X26785499Y-30043330D01*
X26785498Y-30043312D01*
X26775174Y-29942247D01*
X26761175Y-29900001D01*
X26720908Y-29778484D01*
X26630340Y-29631650D01*
X26616371Y-29617681D01*
X26582886Y-29556358D01*
X26587870Y-29486666D01*
X26616371Y-29442319D01*
X26621382Y-29437308D01*
X26630340Y-29428350D01*
X26720908Y-29281516D01*
X26755211Y-29177995D01*
X26794984Y-29120551D01*
X26859500Y-29093728D01*
X26872917Y-29093000D01*
X27346254Y-29093000D01*
X27413293Y-29112685D01*
X27459048Y-29165489D01*
X27463959Y-29177993D01*
X27498264Y-29281518D01*
X27499092Y-29284015D01*
X27499093Y-29284018D01*
X27510054Y-29301789D01*
X27589659Y-29430849D01*
X27589661Y-29430851D01*
X27603982Y-29445172D01*
X27637467Y-29506495D01*
X27632483Y-29576187D01*
X27603985Y-29620532D01*
X27590052Y-29634465D01*
X27499551Y-29781188D01*
X27499546Y-29781199D01*
X27445319Y-29944847D01*
X27435000Y-30045845D01*
X27435000Y-30145000D01*
X29384999Y-30145000D01*
X29384999Y-30045860D01*
X29384998Y-30045845D01*
X29374680Y-29944847D01*
X29320453Y-29781199D01*
X29320448Y-29781188D01*
X29229947Y-29634465D01*
X29229944Y-29634461D01*
X29216017Y-29620534D01*
X29182532Y-29559211D01*
X29187516Y-29489519D01*
X29216017Y-29445172D01*
X29230340Y-29430850D01*
X29320908Y-29284016D01*
X29375174Y-29120253D01*
X29385500Y-29019177D01*
X29385499Y-29007318D01*
X29405179Y-28940281D01*
X29457980Y-28894523D01*
X29527138Y-28884575D01*
X29571498Y-28899926D01*
X29588213Y-28909576D01*
X29588214Y-28909576D01*
X29588215Y-28909577D01*
X29740943Y-28950501D01*
X29740946Y-28950501D01*
X29906653Y-28950501D01*
X29906669Y-28950500D01*
X30777484Y-28950500D01*
X30844523Y-28970185D01*
X30887969Y-29018206D01*
X30937449Y-29115317D01*
X31062390Y-29287286D01*
X31212709Y-29437605D01*
X31212714Y-29437609D01*
X31377293Y-29557182D01*
X31419959Y-29612511D01*
X31425938Y-29682125D01*
X31393333Y-29743920D01*
X31377293Y-29757818D01*
X31212714Y-29877390D01*
X31212709Y-29877394D01*
X31062390Y-30027713D01*
X30937451Y-30199679D01*
X30840944Y-30389085D01*
X30775253Y-30591260D01*
X30751039Y-30744141D01*
X30742000Y-30801213D01*
X30742000Y-31013787D01*
X30745445Y-31035538D01*
X30764753Y-31157447D01*
X30775254Y-31223743D01*
X30839730Y-31422180D01*
X30840944Y-31425914D01*
X30937451Y-31615320D01*
X31062390Y-31787286D01*
X31212709Y-31937605D01*
X31212714Y-31937609D01*
X31377718Y-32057491D01*
X31420384Y-32112820D01*
X31426363Y-32182434D01*
X31393758Y-32244229D01*
X31377718Y-32258127D01*
X31213040Y-32377772D01*
X31213035Y-32377776D01*
X31062776Y-32528035D01*
X31062772Y-32528040D01*
X30937879Y-32699942D01*
X30841404Y-32889282D01*
X30775742Y-33091370D01*
X30775742Y-33091373D01*
X30765269Y-33157500D01*
X31813354Y-33157500D01*
X31774870Y-33224157D01*
X31742500Y-33344965D01*
X31742500Y-33470035D01*
X31774870Y-33590843D01*
X31813354Y-33657500D01*
X30765269Y-33657500D01*
X30775742Y-33723626D01*
X30775742Y-33723629D01*
X30841404Y-33925717D01*
X30937879Y-34115057D01*
X31062772Y-34286959D01*
X31062776Y-34286964D01*
X31063631Y-34287819D01*
X31063851Y-34288223D01*
X31065935Y-34290662D01*
X31065422Y-34291099D01*
X31097116Y-34349142D01*
X31092132Y-34418834D01*
X31050260Y-34474767D01*
X30984796Y-34499184D01*
X30975950Y-34499500D01*
X23519284Y-34499500D01*
X23452245Y-34479815D01*
X23406490Y-34427011D01*
X23396546Y-34357853D01*
X23425571Y-34294297D01*
X23480964Y-34257569D01*
X23600025Y-34218884D01*
X23775405Y-34129524D01*
X23934646Y-34013828D01*
X24073828Y-33874646D01*
X24189524Y-33715405D01*
X24278884Y-33540025D01*
X24339709Y-33352826D01*
X24360088Y-33224157D01*
X24370500Y-33158422D01*
X24370500Y-32961577D01*
X24339709Y-32767173D01*
X24311487Y-32680317D01*
X24278884Y-32579975D01*
X24278882Y-32579972D01*
X24278882Y-32579970D01*
X24189523Y-32404594D01*
X24073828Y-32245354D01*
X23934646Y-32106172D01*
X23775405Y-31990476D01*
X23600029Y-31901117D01*
X23412826Y-31840290D01*
X23218422Y-31809500D01*
X23218417Y-31809500D01*
X23021583Y-31809500D01*
X23021578Y-31809500D01*
X22827173Y-31840290D01*
X22639970Y-31901117D01*
X22464594Y-31990476D01*
X22373741Y-32056485D01*
X22305354Y-32106172D01*
X22305352Y-32106174D01*
X22305351Y-32106174D01*
X22166174Y-32245351D01*
X22166174Y-32245352D01*
X22166172Y-32245354D01*
X22156892Y-32258127D01*
X22050476Y-32404594D01*
X21961117Y-32579970D01*
X21900290Y-32767173D01*
X21869500Y-32961577D01*
X21869500Y-33158422D01*
X21900290Y-33352826D01*
X21961117Y-33540029D01*
X22020972Y-33657500D01*
X22050476Y-33715405D01*
X22166172Y-33874646D01*
X22305354Y-34013828D01*
X22464595Y-34129524D01*
X22547455Y-34171743D01*
X22639970Y-34218882D01*
X22639972Y-34218882D01*
X22639975Y-34218884D01*
X22759035Y-34257569D01*
X22816710Y-34297007D01*
X22843908Y-34361366D01*
X22831993Y-34430212D01*
X22784749Y-34481688D01*
X22720716Y-34499500D01*
X10624500Y-34499500D01*
X10557461Y-34479815D01*
X10511706Y-34427011D01*
X10500500Y-34375500D01*
X10500500Y-15961577D01*
X21869500Y-15961577D01*
X21869500Y-16158422D01*
X21900290Y-16352826D01*
X21961117Y-16540029D01*
X22039656Y-16694169D01*
X22050476Y-16715405D01*
X22166172Y-16874646D01*
X22305354Y-17013828D01*
X22464595Y-17129524D01*
X22521682Y-17158611D01*
X22639970Y-17218882D01*
X22639972Y-17218882D01*
X22639975Y-17218884D01*
X22667539Y-17227840D01*
X22827173Y-17279709D01*
X23021578Y-17310500D01*
X23021583Y-17310500D01*
X23218422Y-17310500D01*
X23412826Y-17279709D01*
X23600025Y-17218884D01*
X23775405Y-17129524D01*
X23934646Y-17013828D01*
X24073828Y-16874646D01*
X24189524Y-16715405D01*
X24278884Y-16540025D01*
X24339709Y-16352826D01*
X24370500Y-16158422D01*
X24370500Y-15961577D01*
X24339709Y-15767173D01*
X24281219Y-15587161D01*
X24278884Y-15579975D01*
X24278882Y-15579972D01*
X24278882Y-15579970D01*
X24189523Y-15404594D01*
X24073828Y-15245354D01*
X23934646Y-15106172D01*
X23775405Y-14990476D01*
X23600029Y-14901117D01*
X23412826Y-14840290D01*
X23218422Y-14809500D01*
X23218417Y-14809500D01*
X23021583Y-14809500D01*
X23021578Y-14809500D01*
X22827173Y-14840290D01*
X22639970Y-14901117D01*
X22464594Y-14990476D01*
X22373741Y-15056485D01*
X22305354Y-15106172D01*
X22305352Y-15106174D01*
X22305351Y-15106174D01*
X22166174Y-15245351D01*
X22166174Y-15245352D01*
X22166172Y-15245354D01*
X22116485Y-15313741D01*
X22050476Y-15404594D01*
X21961117Y-15579970D01*
X21900290Y-15767173D01*
X21869500Y-15961577D01*
X10500500Y-15961577D01*
X10500500Y-14624500D01*
X10520185Y-14557461D01*
X10572989Y-14511706D01*
X10624500Y-14500500D01*
X34375500Y-14500500D01*
X34442539Y-14520185D01*
G37*
%TD.AperFunction*%
%TA.AperFunction,Conductor*%
G36*
X34394203Y-19503702D02*
G01*
X34424312Y-19507302D01*
X34428126Y-19510451D01*
X34432980Y-19511417D01*
X34454808Y-19532481D01*
X34478190Y-19551787D01*
X34479696Y-19556498D01*
X34483257Y-19559935D01*
X34490230Y-19589452D01*
X34499465Y-19618339D01*
X34499500Y-19621290D01*
X34499500Y-34375500D01*
X34479815Y-34442539D01*
X34427011Y-34488294D01*
X34375500Y-34499500D01*
X33459050Y-34499500D01*
X33392011Y-34479815D01*
X33346256Y-34427011D01*
X33336312Y-34357853D01*
X33365337Y-34294297D01*
X33371369Y-34287819D01*
X33372223Y-34286964D01*
X33372227Y-34286959D01*
X33497120Y-34115057D01*
X33593595Y-33925717D01*
X33659257Y-33723629D01*
X33659257Y-33723626D01*
X33669731Y-33657500D01*
X32621646Y-33657500D01*
X32660130Y-33590843D01*
X32692500Y-33470035D01*
X32692500Y-33344965D01*
X32660130Y-33224157D01*
X32621646Y-33157500D01*
X33669731Y-33157500D01*
X33659257Y-33091373D01*
X33659257Y-33091370D01*
X33593595Y-32889282D01*
X33497120Y-32699942D01*
X33372227Y-32528040D01*
X33372223Y-32528035D01*
X33221964Y-32377776D01*
X33221959Y-32377772D01*
X33057281Y-32258127D01*
X33014615Y-32202797D01*
X33008636Y-32133184D01*
X33041241Y-32071389D01*
X33057276Y-32057494D01*
X33222292Y-31937604D01*
X33372604Y-31787292D01*
X33372606Y-31787288D01*
X33372609Y-31787286D01*
X33497548Y-31615320D01*
X33497547Y-31615320D01*
X33497551Y-31615316D01*
X33594057Y-31425912D01*
X33659746Y-31223743D01*
X33693000Y-31013787D01*
X33693000Y-30801213D01*
X33659746Y-30591257D01*
X33594057Y-30389088D01*
X33497551Y-30199684D01*
X33497549Y-30199681D01*
X33497548Y-30199679D01*
X33372609Y-30027713D01*
X33222292Y-29877396D01*
X33158309Y-29830910D01*
X33057704Y-29757816D01*
X33015040Y-29702489D01*
X33009061Y-29632876D01*
X33041666Y-29571080D01*
X33057699Y-29557186D01*
X33222292Y-29437604D01*
X33372604Y-29287292D01*
X33372606Y-29287288D01*
X33372609Y-29287286D01*
X33493964Y-29120253D01*
X33497551Y-29115316D01*
X33594057Y-28925912D01*
X33659746Y-28723743D01*
X33693000Y-28513787D01*
X33693000Y-28301213D01*
X33659746Y-28091257D01*
X33594057Y-27889088D01*
X33497551Y-27699684D01*
X33497549Y-27699681D01*
X33497548Y-27699679D01*
X33372609Y-27527713D01*
X33222292Y-27377396D01*
X33172407Y-27341153D01*
X33057704Y-27257816D01*
X33015040Y-27202489D01*
X33009061Y-27132876D01*
X33041666Y-27071080D01*
X33057699Y-27057186D01*
X33222292Y-26937604D01*
X33372604Y-26787292D01*
X33372606Y-26787288D01*
X33372609Y-26787286D01*
X33497548Y-26615320D01*
X33497547Y-26615320D01*
X33497551Y-26615316D01*
X33594057Y-26425912D01*
X33659746Y-26223743D01*
X33693000Y-26013787D01*
X33693000Y-25801213D01*
X33659746Y-25591257D01*
X33594057Y-25389088D01*
X33497551Y-25199684D01*
X33497549Y-25199681D01*
X33497548Y-25199679D01*
X33372609Y-25027713D01*
X33222292Y-24877396D01*
X33222284Y-24877390D01*
X33057704Y-24757816D01*
X33015040Y-24702489D01*
X33009061Y-24632876D01*
X33041666Y-24571080D01*
X33057699Y-24557186D01*
X33222292Y-24437604D01*
X33372604Y-24287292D01*
X33372606Y-24287288D01*
X33372609Y-24287286D01*
X33481586Y-24137289D01*
X33497551Y-24115316D01*
X33594057Y-23925912D01*
X33659746Y-23723743D01*
X33693000Y-23513787D01*
X33693000Y-23301213D01*
X33659746Y-23091257D01*
X33594057Y-22889088D01*
X33497551Y-22699684D01*
X33497549Y-22699681D01*
X33497548Y-22699679D01*
X33372609Y-22527713D01*
X33222292Y-22377396D01*
X33189026Y-22353227D01*
X33057704Y-22257816D01*
X33015040Y-22202489D01*
X33009061Y-22132876D01*
X33041666Y-22071080D01*
X33057699Y-22057186D01*
X33222292Y-21937604D01*
X33372604Y-21787292D01*
X33372606Y-21787288D01*
X33372609Y-21787286D01*
X33497548Y-21615320D01*
X33497547Y-21615320D01*
X33497551Y-21615316D01*
X33594057Y-21425912D01*
X33659746Y-21223743D01*
X33693000Y-21013787D01*
X33693000Y-20801213D01*
X33659746Y-20591257D01*
X33615351Y-20454626D01*
X33613357Y-20384790D01*
X33645600Y-20328633D01*
X34028506Y-19945728D01*
X34028511Y-19945724D01*
X34038714Y-19935520D01*
X34038716Y-19935520D01*
X34150520Y-19823716D01*
X34212998Y-19715500D01*
X34229577Y-19686785D01*
X34256970Y-19584551D01*
X34258565Y-19580032D01*
X34276306Y-19555431D01*
X34292090Y-19529536D01*
X34296539Y-19527374D01*
X34299434Y-19523361D01*
X34327659Y-19512257D01*
X34354937Y-19499007D01*
X34359849Y-19499594D01*
X34364454Y-19497783D01*
X34394203Y-19503702D01*
G37*
%TD.AperFunction*%
%TA.AperFunction,Conductor*%
G36*
X24796942Y-24180185D02*
G01*
X24817584Y-24196819D01*
X28060994Y-27440229D01*
X28094479Y-27501552D01*
X28089495Y-27571244D01*
X28047623Y-27627177D01*
X28012318Y-27645616D01*
X27858484Y-27696592D01*
X27858481Y-27696593D01*
X27711648Y-27787161D01*
X27643129Y-27855681D01*
X27581806Y-27889166D01*
X27555448Y-27892000D01*
X26667052Y-27892000D01*
X26600013Y-27872315D01*
X26579371Y-27855681D01*
X26508351Y-27784661D01*
X26508350Y-27784660D01*
X26392464Y-27713181D01*
X26361518Y-27694093D01*
X26361513Y-27694091D01*
X26360069Y-27693612D01*
X26197753Y-27639826D01*
X26197751Y-27639825D01*
X26096678Y-27629500D01*
X25523330Y-27629500D01*
X25523312Y-27629501D01*
X25422247Y-27639825D01*
X25258484Y-27694092D01*
X25258481Y-27694093D01*
X25111648Y-27784661D01*
X24989660Y-27906649D01*
X24989657Y-27906653D01*
X24927086Y-28008097D01*
X24875138Y-28054822D01*
X24821548Y-28067000D01*
X23552430Y-28067000D01*
X23485391Y-28047315D01*
X23439636Y-27994511D01*
X23429692Y-27925353D01*
X23449328Y-27874109D01*
X23499390Y-27799185D01*
X23499390Y-27799184D01*
X23499394Y-27799179D01*
X23559737Y-27653497D01*
X23590500Y-27498842D01*
X23590500Y-27341158D01*
X23590500Y-27341155D01*
X23590499Y-27341153D01*
X23576367Y-27270109D01*
X23559737Y-27186503D01*
X23506171Y-27057182D01*
X23499397Y-27040827D01*
X23499390Y-27040814D01*
X23411789Y-26909711D01*
X23411786Y-26909707D01*
X23300292Y-26798213D01*
X23300288Y-26798210D01*
X23169185Y-26710609D01*
X23169172Y-26710602D01*
X23023501Y-26650264D01*
X23023489Y-26650261D01*
X22868845Y-26619500D01*
X22868842Y-26619500D01*
X22711158Y-26619500D01*
X22709097Y-26619500D01*
X22687851Y-26613261D01*
X22665768Y-26611683D01*
X22654983Y-26603610D01*
X22642058Y-26599815D01*
X22627559Y-26583082D01*
X22609833Y-26569814D01*
X22605124Y-26557191D01*
X22596303Y-26547011D01*
X22593152Y-26525097D01*
X22585413Y-26504351D01*
X22588276Y-26491186D01*
X22586359Y-26477853D01*
X22595557Y-26457711D01*
X22600263Y-26436077D01*
X22613535Y-26418345D01*
X22615384Y-26414297D01*
X22621401Y-26407833D01*
X22634660Y-26394574D01*
X22695978Y-26361090D01*
X22698150Y-26360638D01*
X22770300Y-26346286D01*
X22853497Y-26329737D01*
X22999179Y-26269394D01*
X23130289Y-26181789D01*
X23241789Y-26070289D01*
X23329394Y-25939179D01*
X23389737Y-25793497D01*
X23420500Y-25638842D01*
X23420500Y-25481158D01*
X23420500Y-25481155D01*
X23420499Y-25481153D01*
X23389738Y-25326510D01*
X23389737Y-25326503D01*
X23341437Y-25209896D01*
X23329396Y-25180825D01*
X23329394Y-25180822D01*
X23329394Y-25180821D01*
X23294694Y-25128889D01*
X23273816Y-25062215D01*
X23292300Y-24994835D01*
X23294676Y-24991136D01*
X23329394Y-24939179D01*
X23389737Y-24793497D01*
X23420500Y-24638842D01*
X23420500Y-24481158D01*
X23420500Y-24481155D01*
X23420499Y-24481153D01*
X23413868Y-24447816D01*
X23389737Y-24326503D01*
X23389732Y-24326492D01*
X23387969Y-24320676D01*
X23390720Y-24319841D01*
X23384497Y-24262641D01*
X23415691Y-24200122D01*
X23475734Y-24164392D01*
X23506555Y-24160500D01*
X24729903Y-24160500D01*
X24796942Y-24180185D01*
G37*
%TD.AperFunction*%
%TA.AperFunction,Conductor*%
G36*
X30156941Y-19461185D02*
G01*
X30202696Y-19513989D01*
X30212640Y-19583147D01*
X30183615Y-19646703D01*
X30177583Y-19653181D01*
X30039482Y-19791281D01*
X30039480Y-19791283D01*
X30028670Y-19810007D01*
X30020756Y-19823716D01*
X29960423Y-19928215D01*
X29919499Y-20080943D01*
X29919499Y-20080945D01*
X29919499Y-20249046D01*
X29919500Y-20249059D01*
X29919500Y-21209973D01*
X29915275Y-21242066D01*
X29899499Y-21300943D01*
X29899499Y-21469046D01*
X29899500Y-21469059D01*
X29899500Y-22110234D01*
X29879815Y-22177273D01*
X29878602Y-22179125D01*
X29790609Y-22310814D01*
X29790602Y-22310827D01*
X29730264Y-22456498D01*
X29730261Y-22456510D01*
X29699500Y-22611153D01*
X29699500Y-22645500D01*
X29679815Y-22712539D01*
X29627011Y-22758294D01*
X29575500Y-22769500D01*
X27780098Y-22769500D01*
X27713059Y-22749815D01*
X27692417Y-22733181D01*
X26157590Y-21198355D01*
X26157588Y-21198352D01*
X26038717Y-21079481D01*
X26038716Y-21079480D01*
X25951904Y-21029360D01*
X25951904Y-21029359D01*
X25951900Y-21029358D01*
X25901785Y-21000423D01*
X25749057Y-20959499D01*
X25590943Y-20959499D01*
X25583347Y-20959499D01*
X25583331Y-20959500D01*
X22264836Y-20959500D01*
X22197797Y-20939815D01*
X22161734Y-20904391D01*
X22091789Y-20799710D01*
X21980292Y-20688213D01*
X21980288Y-20688210D01*
X21849185Y-20600609D01*
X21849172Y-20600602D01*
X21703501Y-20540264D01*
X21703489Y-20540261D01*
X21548845Y-20509500D01*
X21548842Y-20509500D01*
X21391158Y-20509500D01*
X21391155Y-20509500D01*
X21236510Y-20540261D01*
X21236498Y-20540264D01*
X21090827Y-20600602D01*
X21090814Y-20600609D01*
X20959711Y-20688210D01*
X20959707Y-20688213D01*
X20848213Y-20799707D01*
X20848210Y-20799711D01*
X20760609Y-20930814D01*
X20760602Y-20930827D01*
X20700264Y-21076498D01*
X20700261Y-21076508D01*
X20675643Y-21200271D01*
X20643258Y-21262182D01*
X20622917Y-21279181D01*
X20513558Y-21352252D01*
X20513554Y-21352255D01*
X20402060Y-21463749D01*
X20402057Y-21463753D01*
X20314456Y-21594856D01*
X20314449Y-21594869D01*
X20254111Y-21740540D01*
X20254108Y-21740552D01*
X20223347Y-21895195D01*
X20223347Y-22052888D01*
X20254108Y-22207531D01*
X20254111Y-22207543D01*
X20314449Y-22353214D01*
X20314456Y-22353227D01*
X20402057Y-22484330D01*
X20402060Y-22484334D01*
X20513554Y-22595828D01*
X20513558Y-22595831D01*
X20644668Y-22683436D01*
X20644677Y-22683440D01*
X20647435Y-22684914D01*
X20648618Y-22686076D01*
X20649733Y-22686821D01*
X20649591Y-22687032D01*
X20697285Y-22733870D01*
X20710613Y-22770089D01*
X20727058Y-22852762D01*
X20727061Y-22852774D01*
X20787399Y-22998445D01*
X20787406Y-22998458D01*
X20875007Y-23129561D01*
X20875010Y-23129565D01*
X20986504Y-23241059D01*
X20986508Y-23241062D01*
X21117611Y-23328663D01*
X21117624Y-23328670D01*
X21263295Y-23389008D01*
X21263300Y-23389010D01*
X21327944Y-23401868D01*
X21418646Y-23419911D01*
X21480557Y-23452296D01*
X21482136Y-23453847D01*
X21952679Y-23924390D01*
X21958226Y-23929939D01*
X21959291Y-23931891D01*
X21960241Y-23932672D01*
X21960251Y-23932684D01*
X21959888Y-23932985D01*
X21975256Y-23961141D01*
X21991695Y-23991246D01*
X21991694Y-23991257D01*
X21991700Y-23991268D01*
X21989200Y-24026122D01*
X21986711Y-24060938D01*
X21986703Y-24060952D01*
X21986703Y-24060958D01*
X21986695Y-24060967D01*
X21973632Y-24086494D01*
X21910608Y-24180816D01*
X21910602Y-24180827D01*
X21850264Y-24326498D01*
X21850261Y-24326508D01*
X21819362Y-24481849D01*
X21786977Y-24543759D01*
X21785426Y-24545338D01*
X21407584Y-24923181D01*
X21346261Y-24956666D01*
X21319903Y-24959500D01*
X14650098Y-24959500D01*
X14583059Y-24939815D01*
X14562417Y-24923181D01*
X14272112Y-24632876D01*
X13958101Y-24318866D01*
X13924617Y-24257544D01*
X13927851Y-24192874D01*
X13972246Y-24056243D01*
X14005500Y-23846287D01*
X14005500Y-23633713D01*
X13972246Y-23423757D01*
X13906557Y-23221588D01*
X13810051Y-23032184D01*
X13810049Y-23032181D01*
X13810048Y-23032179D01*
X13685109Y-22860213D01*
X13534790Y-22709894D01*
X13534785Y-22709890D01*
X13369781Y-22590008D01*
X13327115Y-22534678D01*
X13321136Y-22465065D01*
X13353741Y-22403270D01*
X13369781Y-22389371D01*
X13534466Y-22269721D01*
X13684723Y-22119464D01*
X13684727Y-22119459D01*
X13809620Y-21947557D01*
X13906095Y-21758217D01*
X13971757Y-21556129D01*
X13971757Y-21556126D01*
X13982231Y-21490000D01*
X12934146Y-21490000D01*
X12972630Y-21423343D01*
X13005000Y-21302535D01*
X13005000Y-21177465D01*
X12972630Y-21056657D01*
X12934146Y-20990000D01*
X13982231Y-20990000D01*
X13971757Y-20923873D01*
X13971757Y-20923870D01*
X13906095Y-20721782D01*
X13809620Y-20532442D01*
X13684727Y-20360540D01*
X13684723Y-20360535D01*
X13534464Y-20210276D01*
X13534459Y-20210272D01*
X13369781Y-20090627D01*
X13327115Y-20035297D01*
X13321136Y-19965684D01*
X13353741Y-19903889D01*
X13369776Y-19889994D01*
X13534792Y-19770104D01*
X13685104Y-19619792D01*
X13777503Y-19492613D01*
X13832832Y-19449949D01*
X13877821Y-19441500D01*
X30089902Y-19441500D01*
X30156941Y-19461185D01*
G37*
%TD.AperFunction*%
%TD*%
M02*
