%TF.GenerationSoftware,KiCad,Pcbnew,9.0.7-9.0.7~ubuntu24.04.1*%
%TF.CreationDate,2026-03-11T15:51:22+01:00*%
%TF.ProjectId,adc board,61646320-626f-4617-9264-2e6b69636164,rev?*%
%TF.SameCoordinates,Original*%
%TF.FileFunction,Legend,Top*%
%TF.FilePolarity,Positive*%
%FSLAX46Y46*%
G04 Gerber Fmt 4.6, Leading zero omitted, Abs format (unit mm)*
G04 Created by KiCad (PCBNEW 9.0.7-9.0.7~ubuntu24.04.1) date 2026-03-11 15:51:22*
%MOMM*%
%LPD*%
G01*
G04 APERTURE LIST*
%ADD10C,0.100000*%
%ADD11C,0.254000*%
%ADD12C,0.150000*%
%ADD13C,0.200000*%
%ADD14C,0.120000*%
%ADD15C,0.000000*%
G04 APERTURE END LIST*
D10*
X17297142Y-28490752D02*
X17582857Y-28490752D01*
X17239999Y-28633609D02*
X17439999Y-28133609D01*
X17439999Y-28133609D02*
X17639999Y-28633609D01*
X17840000Y-28633609D02*
X17840000Y-28133609D01*
X17840000Y-28133609D02*
X17982857Y-28133609D01*
X17982857Y-28133609D02*
X18068571Y-28157419D01*
X18068571Y-28157419D02*
X18125714Y-28205038D01*
X18125714Y-28205038D02*
X18154285Y-28252657D01*
X18154285Y-28252657D02*
X18182857Y-28347895D01*
X18182857Y-28347895D02*
X18182857Y-28419323D01*
X18182857Y-28419323D02*
X18154285Y-28514561D01*
X18154285Y-28514561D02*
X18125714Y-28562180D01*
X18125714Y-28562180D02*
X18068571Y-28609800D01*
X18068571Y-28609800D02*
X17982857Y-28633609D01*
X17982857Y-28633609D02*
X17840000Y-28633609D01*
X18782857Y-28585990D02*
X18754285Y-28609800D01*
X18754285Y-28609800D02*
X18668571Y-28633609D01*
X18668571Y-28633609D02*
X18611428Y-28633609D01*
X18611428Y-28633609D02*
X18525714Y-28609800D01*
X18525714Y-28609800D02*
X18468571Y-28562180D01*
X18468571Y-28562180D02*
X18440000Y-28514561D01*
X18440000Y-28514561D02*
X18411428Y-28419323D01*
X18411428Y-28419323D02*
X18411428Y-28347895D01*
X18411428Y-28347895D02*
X18440000Y-28252657D01*
X18440000Y-28252657D02*
X18468571Y-28205038D01*
X18468571Y-28205038D02*
X18525714Y-28157419D01*
X18525714Y-28157419D02*
X18611428Y-28133609D01*
X18611428Y-28133609D02*
X18668571Y-28133609D01*
X18668571Y-28133609D02*
X18754285Y-28157419D01*
X18754285Y-28157419D02*
X18782857Y-28181228D01*
X19497143Y-28633609D02*
X19497143Y-28133609D01*
X19497143Y-28324085D02*
X19554286Y-28300276D01*
X19554286Y-28300276D02*
X19668571Y-28300276D01*
X19668571Y-28300276D02*
X19725714Y-28324085D01*
X19725714Y-28324085D02*
X19754286Y-28347895D01*
X19754286Y-28347895D02*
X19782857Y-28395514D01*
X19782857Y-28395514D02*
X19782857Y-28538371D01*
X19782857Y-28538371D02*
X19754286Y-28585990D01*
X19754286Y-28585990D02*
X19725714Y-28609800D01*
X19725714Y-28609800D02*
X19668571Y-28633609D01*
X19668571Y-28633609D02*
X19554286Y-28633609D01*
X19554286Y-28633609D02*
X19497143Y-28609800D01*
X20125714Y-28633609D02*
X20068571Y-28609800D01*
X20068571Y-28609800D02*
X20040000Y-28585990D01*
X20040000Y-28585990D02*
X20011428Y-28538371D01*
X20011428Y-28538371D02*
X20011428Y-28395514D01*
X20011428Y-28395514D02*
X20040000Y-28347895D01*
X20040000Y-28347895D02*
X20068571Y-28324085D01*
X20068571Y-28324085D02*
X20125714Y-28300276D01*
X20125714Y-28300276D02*
X20211428Y-28300276D01*
X20211428Y-28300276D02*
X20268571Y-28324085D01*
X20268571Y-28324085D02*
X20297143Y-28347895D01*
X20297143Y-28347895D02*
X20325714Y-28395514D01*
X20325714Y-28395514D02*
X20325714Y-28538371D01*
X20325714Y-28538371D02*
X20297143Y-28585990D01*
X20297143Y-28585990D02*
X20268571Y-28609800D01*
X20268571Y-28609800D02*
X20211428Y-28633609D01*
X20211428Y-28633609D02*
X20125714Y-28633609D01*
X20840000Y-28633609D02*
X20840000Y-28371704D01*
X20840000Y-28371704D02*
X20811428Y-28324085D01*
X20811428Y-28324085D02*
X20754285Y-28300276D01*
X20754285Y-28300276D02*
X20640000Y-28300276D01*
X20640000Y-28300276D02*
X20582857Y-28324085D01*
X20840000Y-28609800D02*
X20782857Y-28633609D01*
X20782857Y-28633609D02*
X20640000Y-28633609D01*
X20640000Y-28633609D02*
X20582857Y-28609800D01*
X20582857Y-28609800D02*
X20554285Y-28562180D01*
X20554285Y-28562180D02*
X20554285Y-28514561D01*
X20554285Y-28514561D02*
X20582857Y-28466942D01*
X20582857Y-28466942D02*
X20640000Y-28443133D01*
X20640000Y-28443133D02*
X20782857Y-28443133D01*
X20782857Y-28443133D02*
X20840000Y-28419323D01*
X21125714Y-28633609D02*
X21125714Y-28300276D01*
X21125714Y-28395514D02*
X21154285Y-28347895D01*
X21154285Y-28347895D02*
X21182857Y-28324085D01*
X21182857Y-28324085D02*
X21239999Y-28300276D01*
X21239999Y-28300276D02*
X21297142Y-28300276D01*
X21754286Y-28633609D02*
X21754286Y-28133609D01*
X21754286Y-28609800D02*
X21697143Y-28633609D01*
X21697143Y-28633609D02*
X21582857Y-28633609D01*
X21582857Y-28633609D02*
X21525714Y-28609800D01*
X21525714Y-28609800D02*
X21497143Y-28585990D01*
X21497143Y-28585990D02*
X21468571Y-28538371D01*
X21468571Y-28538371D02*
X21468571Y-28395514D01*
X21468571Y-28395514D02*
X21497143Y-28347895D01*
X21497143Y-28347895D02*
X21525714Y-28324085D01*
X21525714Y-28324085D02*
X21582857Y-28300276D01*
X21582857Y-28300276D02*
X21697143Y-28300276D01*
X21697143Y-28300276D02*
X21754286Y-28324085D01*
X18825714Y-29105248D02*
X19054286Y-29105248D01*
X18911429Y-29438581D02*
X18911429Y-29010010D01*
X18911429Y-29010010D02*
X18940000Y-28962391D01*
X18940000Y-28962391D02*
X18997143Y-28938581D01*
X18997143Y-28938581D02*
X19054286Y-28938581D01*
X19340000Y-29438581D02*
X19282857Y-29414772D01*
X19282857Y-29414772D02*
X19254286Y-29390962D01*
X19254286Y-29390962D02*
X19225714Y-29343343D01*
X19225714Y-29343343D02*
X19225714Y-29200486D01*
X19225714Y-29200486D02*
X19254286Y-29152867D01*
X19254286Y-29152867D02*
X19282857Y-29129057D01*
X19282857Y-29129057D02*
X19340000Y-29105248D01*
X19340000Y-29105248D02*
X19425714Y-29105248D01*
X19425714Y-29105248D02*
X19482857Y-29129057D01*
X19482857Y-29129057D02*
X19511429Y-29152867D01*
X19511429Y-29152867D02*
X19540000Y-29200486D01*
X19540000Y-29200486D02*
X19540000Y-29343343D01*
X19540000Y-29343343D02*
X19511429Y-29390962D01*
X19511429Y-29390962D02*
X19482857Y-29414772D01*
X19482857Y-29414772D02*
X19425714Y-29438581D01*
X19425714Y-29438581D02*
X19340000Y-29438581D01*
X19797143Y-29438581D02*
X19797143Y-29105248D01*
X19797143Y-29200486D02*
X19825714Y-29152867D01*
X19825714Y-29152867D02*
X19854286Y-29129057D01*
X19854286Y-29129057D02*
X19911428Y-29105248D01*
X19911428Y-29105248D02*
X19968571Y-29105248D01*
X20168572Y-29390962D02*
X20197143Y-29414772D01*
X20197143Y-29414772D02*
X20168572Y-29438581D01*
X20168572Y-29438581D02*
X20140000Y-29414772D01*
X20140000Y-29414772D02*
X20168572Y-29390962D01*
X20168572Y-29390962D02*
X20168572Y-29438581D01*
X20168572Y-29129057D02*
X20197143Y-29152867D01*
X20197143Y-29152867D02*
X20168572Y-29176676D01*
X20168572Y-29176676D02*
X20140000Y-29152867D01*
X20140000Y-29152867D02*
X20168572Y-29129057D01*
X20168572Y-29129057D02*
X20168572Y-29176676D01*
X17125712Y-30100696D02*
X17411427Y-30100696D01*
X17068569Y-30243553D02*
X17268569Y-29743553D01*
X17268569Y-29743553D02*
X17468569Y-30243553D01*
X17668570Y-30243553D02*
X17668570Y-29743553D01*
X17668570Y-29743553D02*
X17811427Y-29743553D01*
X17811427Y-29743553D02*
X17897141Y-29767363D01*
X17897141Y-29767363D02*
X17954284Y-29814982D01*
X17954284Y-29814982D02*
X17982855Y-29862601D01*
X17982855Y-29862601D02*
X18011427Y-29957839D01*
X18011427Y-29957839D02*
X18011427Y-30029267D01*
X18011427Y-30029267D02*
X17982855Y-30124505D01*
X17982855Y-30124505D02*
X17954284Y-30172124D01*
X17954284Y-30172124D02*
X17897141Y-30219744D01*
X17897141Y-30219744D02*
X17811427Y-30243553D01*
X17811427Y-30243553D02*
X17668570Y-30243553D01*
X18239998Y-30219744D02*
X18325713Y-30243553D01*
X18325713Y-30243553D02*
X18468570Y-30243553D01*
X18468570Y-30243553D02*
X18525713Y-30219744D01*
X18525713Y-30219744D02*
X18554284Y-30195934D01*
X18554284Y-30195934D02*
X18582855Y-30148315D01*
X18582855Y-30148315D02*
X18582855Y-30100696D01*
X18582855Y-30100696D02*
X18554284Y-30053077D01*
X18554284Y-30053077D02*
X18525713Y-30029267D01*
X18525713Y-30029267D02*
X18468570Y-30005458D01*
X18468570Y-30005458D02*
X18354284Y-29981648D01*
X18354284Y-29981648D02*
X18297141Y-29957839D01*
X18297141Y-29957839D02*
X18268570Y-29934029D01*
X18268570Y-29934029D02*
X18239998Y-29886410D01*
X18239998Y-29886410D02*
X18239998Y-29838791D01*
X18239998Y-29838791D02*
X18268570Y-29791172D01*
X18268570Y-29791172D02*
X18297141Y-29767363D01*
X18297141Y-29767363D02*
X18354284Y-29743553D01*
X18354284Y-29743553D02*
X18497141Y-29743553D01*
X18497141Y-29743553D02*
X18582855Y-29767363D01*
X19154284Y-30243553D02*
X18811427Y-30243553D01*
X18982856Y-30243553D02*
X18982856Y-29743553D01*
X18982856Y-29743553D02*
X18925713Y-29814982D01*
X18925713Y-29814982D02*
X18868570Y-29862601D01*
X18868570Y-29862601D02*
X18811427Y-29886410D01*
X19382856Y-29791172D02*
X19411428Y-29767363D01*
X19411428Y-29767363D02*
X19468571Y-29743553D01*
X19468571Y-29743553D02*
X19611428Y-29743553D01*
X19611428Y-29743553D02*
X19668571Y-29767363D01*
X19668571Y-29767363D02*
X19697142Y-29791172D01*
X19697142Y-29791172D02*
X19725713Y-29838791D01*
X19725713Y-29838791D02*
X19725713Y-29886410D01*
X19725713Y-29886410D02*
X19697142Y-29957839D01*
X19697142Y-29957839D02*
X19354285Y-30243553D01*
X19354285Y-30243553D02*
X19725713Y-30243553D01*
X19954285Y-29791172D02*
X19982857Y-29767363D01*
X19982857Y-29767363D02*
X20040000Y-29743553D01*
X20040000Y-29743553D02*
X20182857Y-29743553D01*
X20182857Y-29743553D02*
X20240000Y-29767363D01*
X20240000Y-29767363D02*
X20268571Y-29791172D01*
X20268571Y-29791172D02*
X20297142Y-29838791D01*
X20297142Y-29838791D02*
X20297142Y-29886410D01*
X20297142Y-29886410D02*
X20268571Y-29957839D01*
X20268571Y-29957839D02*
X19925714Y-30243553D01*
X19925714Y-30243553D02*
X20297142Y-30243553D01*
X20811429Y-30219744D02*
X20754286Y-30243553D01*
X20754286Y-30243553D02*
X20640000Y-30243553D01*
X20640000Y-30243553D02*
X20582857Y-30219744D01*
X20582857Y-30219744D02*
X20554286Y-30195934D01*
X20554286Y-30195934D02*
X20525714Y-30148315D01*
X20525714Y-30148315D02*
X20525714Y-30005458D01*
X20525714Y-30005458D02*
X20554286Y-29957839D01*
X20554286Y-29957839D02*
X20582857Y-29934029D01*
X20582857Y-29934029D02*
X20640000Y-29910220D01*
X20640000Y-29910220D02*
X20754286Y-29910220D01*
X20754286Y-29910220D02*
X20811429Y-29934029D01*
X21182857Y-29743553D02*
X21240000Y-29743553D01*
X21240000Y-29743553D02*
X21297143Y-29767363D01*
X21297143Y-29767363D02*
X21325715Y-29791172D01*
X21325715Y-29791172D02*
X21354286Y-29838791D01*
X21354286Y-29838791D02*
X21382857Y-29934029D01*
X21382857Y-29934029D02*
X21382857Y-30053077D01*
X21382857Y-30053077D02*
X21354286Y-30148315D01*
X21354286Y-30148315D02*
X21325715Y-30195934D01*
X21325715Y-30195934D02*
X21297143Y-30219744D01*
X21297143Y-30219744D02*
X21240000Y-30243553D01*
X21240000Y-30243553D02*
X21182857Y-30243553D01*
X21182857Y-30243553D02*
X21125715Y-30219744D01*
X21125715Y-30219744D02*
X21097143Y-30195934D01*
X21097143Y-30195934D02*
X21068572Y-30148315D01*
X21068572Y-30148315D02*
X21040000Y-30053077D01*
X21040000Y-30053077D02*
X21040000Y-29934029D01*
X21040000Y-29934029D02*
X21068572Y-29838791D01*
X21068572Y-29838791D02*
X21097143Y-29791172D01*
X21097143Y-29791172D02*
X21125715Y-29767363D01*
X21125715Y-29767363D02*
X21182857Y-29743553D01*
X21897144Y-29910220D02*
X21897144Y-30243553D01*
X21754286Y-29719744D02*
X21611429Y-30076886D01*
X21611429Y-30076886D02*
X21982858Y-30076886D01*
X16440000Y-27740000D02*
X22640000Y-27740000D01*
X22640000Y-30712492D01*
X16440000Y-30712492D01*
X16440000Y-27740000D01*
X29351025Y-18122931D02*
X29351025Y-18465789D01*
X29198644Y-18294360D02*
X29503406Y-18294360D01*
X29598644Y-18894360D02*
X29598644Y-18680074D01*
X29598644Y-18680074D02*
X29408168Y-18658646D01*
X29408168Y-18658646D02*
X29427215Y-18680074D01*
X29427215Y-18680074D02*
X29446263Y-18722932D01*
X29446263Y-18722932D02*
X29446263Y-18830074D01*
X29446263Y-18830074D02*
X29427215Y-18872932D01*
X29427215Y-18872932D02*
X29408168Y-18894360D01*
X29408168Y-18894360D02*
X29370072Y-18915789D01*
X29370072Y-18915789D02*
X29274834Y-18915789D01*
X29274834Y-18915789D02*
X29236739Y-18894360D01*
X29236739Y-18894360D02*
X29217692Y-18872932D01*
X29217692Y-18872932D02*
X29198644Y-18830074D01*
X29198644Y-18830074D02*
X29198644Y-18722932D01*
X29198644Y-18722932D02*
X29217692Y-18680074D01*
X29217692Y-18680074D02*
X29236739Y-18658646D01*
X29598644Y-19044360D02*
X29198644Y-19194360D01*
X29198644Y-19194360D02*
X29598644Y-19344360D01*
X29351025Y-20180073D02*
X29351025Y-20522931D01*
X29198644Y-20351502D02*
X29503406Y-20351502D01*
X29598644Y-20694359D02*
X29598644Y-20972931D01*
X29598644Y-20972931D02*
X29446263Y-20822931D01*
X29446263Y-20822931D02*
X29446263Y-20887216D01*
X29446263Y-20887216D02*
X29427215Y-20930074D01*
X29427215Y-20930074D02*
X29408168Y-20951502D01*
X29408168Y-20951502D02*
X29370072Y-20972931D01*
X29370072Y-20972931D02*
X29274834Y-20972931D01*
X29274834Y-20972931D02*
X29236739Y-20951502D01*
X29236739Y-20951502D02*
X29217692Y-20930074D01*
X29217692Y-20930074D02*
X29198644Y-20887216D01*
X29198644Y-20887216D02*
X29198644Y-20758645D01*
X29198644Y-20758645D02*
X29217692Y-20715788D01*
X29217692Y-20715788D02*
X29236739Y-20694359D01*
X29236739Y-21165787D02*
X29217692Y-21187216D01*
X29217692Y-21187216D02*
X29198644Y-21165787D01*
X29198644Y-21165787D02*
X29217692Y-21144359D01*
X29217692Y-21144359D02*
X29236739Y-21165787D01*
X29236739Y-21165787D02*
X29198644Y-21165787D01*
X29598644Y-21337216D02*
X29598644Y-21615788D01*
X29598644Y-21615788D02*
X29446263Y-21465788D01*
X29446263Y-21465788D02*
X29446263Y-21530073D01*
X29446263Y-21530073D02*
X29427215Y-21572931D01*
X29427215Y-21572931D02*
X29408168Y-21594359D01*
X29408168Y-21594359D02*
X29370072Y-21615788D01*
X29370072Y-21615788D02*
X29274834Y-21615788D01*
X29274834Y-21615788D02*
X29236739Y-21594359D01*
X29236739Y-21594359D02*
X29217692Y-21572931D01*
X29217692Y-21572931D02*
X29198644Y-21530073D01*
X29198644Y-21530073D02*
X29198644Y-21401502D01*
X29198644Y-21401502D02*
X29217692Y-21358645D01*
X29217692Y-21358645D02*
X29236739Y-21337216D01*
X29598644Y-21744359D02*
X29198644Y-21894359D01*
X29198644Y-21894359D02*
X29598644Y-22044359D01*
X29217692Y-22858644D02*
X29198644Y-22922930D01*
X29198644Y-22922930D02*
X29198644Y-23030072D01*
X29198644Y-23030072D02*
X29217692Y-23072930D01*
X29217692Y-23072930D02*
X29236739Y-23094358D01*
X29236739Y-23094358D02*
X29274834Y-23115787D01*
X29274834Y-23115787D02*
X29312930Y-23115787D01*
X29312930Y-23115787D02*
X29351025Y-23094358D01*
X29351025Y-23094358D02*
X29370072Y-23072930D01*
X29370072Y-23072930D02*
X29389120Y-23030072D01*
X29389120Y-23030072D02*
X29408168Y-22944358D01*
X29408168Y-22944358D02*
X29427215Y-22901501D01*
X29427215Y-22901501D02*
X29446263Y-22880072D01*
X29446263Y-22880072D02*
X29484358Y-22858644D01*
X29484358Y-22858644D02*
X29522453Y-22858644D01*
X29522453Y-22858644D02*
X29560549Y-22880072D01*
X29560549Y-22880072D02*
X29579596Y-22901501D01*
X29579596Y-22901501D02*
X29598644Y-22944358D01*
X29598644Y-22944358D02*
X29598644Y-23051501D01*
X29598644Y-23051501D02*
X29579596Y-23115787D01*
X29236739Y-23565786D02*
X29217692Y-23544358D01*
X29217692Y-23544358D02*
X29198644Y-23480072D01*
X29198644Y-23480072D02*
X29198644Y-23437215D01*
X29198644Y-23437215D02*
X29217692Y-23372929D01*
X29217692Y-23372929D02*
X29255787Y-23330072D01*
X29255787Y-23330072D02*
X29293882Y-23308643D01*
X29293882Y-23308643D02*
X29370072Y-23287215D01*
X29370072Y-23287215D02*
X29427215Y-23287215D01*
X29427215Y-23287215D02*
X29503406Y-23308643D01*
X29503406Y-23308643D02*
X29541501Y-23330072D01*
X29541501Y-23330072D02*
X29579596Y-23372929D01*
X29579596Y-23372929D02*
X29598644Y-23437215D01*
X29598644Y-23437215D02*
X29598644Y-23480072D01*
X29598644Y-23480072D02*
X29579596Y-23544358D01*
X29579596Y-23544358D02*
X29560549Y-23565786D01*
X29198644Y-23972929D02*
X29198644Y-23758643D01*
X29198644Y-23758643D02*
X29598644Y-23758643D01*
X29217692Y-25130072D02*
X29198644Y-25194358D01*
X29198644Y-25194358D02*
X29198644Y-25301500D01*
X29198644Y-25301500D02*
X29217692Y-25344358D01*
X29217692Y-25344358D02*
X29236739Y-25365786D01*
X29236739Y-25365786D02*
X29274834Y-25387215D01*
X29274834Y-25387215D02*
X29312930Y-25387215D01*
X29312930Y-25387215D02*
X29351025Y-25365786D01*
X29351025Y-25365786D02*
X29370072Y-25344358D01*
X29370072Y-25344358D02*
X29389120Y-25301500D01*
X29389120Y-25301500D02*
X29408168Y-25215786D01*
X29408168Y-25215786D02*
X29427215Y-25172929D01*
X29427215Y-25172929D02*
X29446263Y-25151500D01*
X29446263Y-25151500D02*
X29484358Y-25130072D01*
X29484358Y-25130072D02*
X29522453Y-25130072D01*
X29522453Y-25130072D02*
X29560549Y-25151500D01*
X29560549Y-25151500D02*
X29579596Y-25172929D01*
X29579596Y-25172929D02*
X29598644Y-25215786D01*
X29598644Y-25215786D02*
X29598644Y-25322929D01*
X29598644Y-25322929D02*
X29579596Y-25387215D01*
X29198644Y-25580071D02*
X29598644Y-25580071D01*
X29598644Y-25580071D02*
X29598644Y-25687214D01*
X29598644Y-25687214D02*
X29579596Y-25751500D01*
X29579596Y-25751500D02*
X29541501Y-25794357D01*
X29541501Y-25794357D02*
X29503406Y-25815786D01*
X29503406Y-25815786D02*
X29427215Y-25837214D01*
X29427215Y-25837214D02*
X29370072Y-25837214D01*
X29370072Y-25837214D02*
X29293882Y-25815786D01*
X29293882Y-25815786D02*
X29255787Y-25794357D01*
X29255787Y-25794357D02*
X29217692Y-25751500D01*
X29217692Y-25751500D02*
X29198644Y-25687214D01*
X29198644Y-25687214D02*
X29198644Y-25580071D01*
X29312930Y-26008643D02*
X29312930Y-26222929D01*
X29198644Y-25965786D02*
X29598644Y-26115786D01*
X29598644Y-26115786D02*
X29198644Y-26265786D01*
X29465311Y-27444356D02*
X29198644Y-27444356D01*
X29427215Y-27444356D02*
X29446263Y-27465785D01*
X29446263Y-27465785D02*
X29465311Y-27508642D01*
X29465311Y-27508642D02*
X29465311Y-27572928D01*
X29465311Y-27572928D02*
X29446263Y-27615785D01*
X29446263Y-27615785D02*
X29408168Y-27637214D01*
X29408168Y-27637214D02*
X29198644Y-27637214D01*
X29198644Y-27851499D02*
X29598644Y-27851499D01*
X29598644Y-27851499D02*
X29598644Y-27958642D01*
X29598644Y-27958642D02*
X29579596Y-28022928D01*
X29579596Y-28022928D02*
X29541501Y-28065785D01*
X29541501Y-28065785D02*
X29503406Y-28087214D01*
X29503406Y-28087214D02*
X29427215Y-28108642D01*
X29427215Y-28108642D02*
X29370072Y-28108642D01*
X29370072Y-28108642D02*
X29293882Y-28087214D01*
X29293882Y-28087214D02*
X29255787Y-28065785D01*
X29255787Y-28065785D02*
X29217692Y-28022928D01*
X29217692Y-28022928D02*
X29198644Y-27958642D01*
X29198644Y-27958642D02*
X29198644Y-27851499D01*
X29198644Y-28558642D02*
X29389120Y-28408642D01*
X29198644Y-28301499D02*
X29598644Y-28301499D01*
X29598644Y-28301499D02*
X29598644Y-28472928D01*
X29598644Y-28472928D02*
X29579596Y-28515785D01*
X29579596Y-28515785D02*
X29560549Y-28537214D01*
X29560549Y-28537214D02*
X29522453Y-28558642D01*
X29522453Y-28558642D02*
X29465311Y-28558642D01*
X29465311Y-28558642D02*
X29427215Y-28537214D01*
X29427215Y-28537214D02*
X29408168Y-28515785D01*
X29408168Y-28515785D02*
X29389120Y-28472928D01*
X29389120Y-28472928D02*
X29389120Y-28301499D01*
X29198644Y-28751499D02*
X29598644Y-28751499D01*
X29598644Y-28751499D02*
X29598644Y-28858642D01*
X29598644Y-28858642D02*
X29579596Y-28922928D01*
X29579596Y-28922928D02*
X29541501Y-28965785D01*
X29541501Y-28965785D02*
X29503406Y-28987214D01*
X29503406Y-28987214D02*
X29427215Y-29008642D01*
X29427215Y-29008642D02*
X29370072Y-29008642D01*
X29370072Y-29008642D02*
X29293882Y-28987214D01*
X29293882Y-28987214D02*
X29255787Y-28965785D01*
X29255787Y-28965785D02*
X29217692Y-28922928D01*
X29217692Y-28922928D02*
X29198644Y-28858642D01*
X29198644Y-28858642D02*
X29198644Y-28751499D01*
X29389120Y-29287214D02*
X29198644Y-29287214D01*
X29598644Y-29137214D02*
X29389120Y-29287214D01*
X29389120Y-29287214D02*
X29598644Y-29437214D01*
X29465311Y-30272927D02*
X29198644Y-30272927D01*
X29427215Y-30272927D02*
X29446263Y-30294356D01*
X29446263Y-30294356D02*
X29465311Y-30337213D01*
X29465311Y-30337213D02*
X29465311Y-30401499D01*
X29465311Y-30401499D02*
X29446263Y-30444356D01*
X29446263Y-30444356D02*
X29408168Y-30465785D01*
X29408168Y-30465785D02*
X29198644Y-30465785D01*
X29198644Y-30937213D02*
X29389120Y-30787213D01*
X29198644Y-30680070D02*
X29598644Y-30680070D01*
X29598644Y-30680070D02*
X29598644Y-30851499D01*
X29598644Y-30851499D02*
X29579596Y-30894356D01*
X29579596Y-30894356D02*
X29560549Y-30915785D01*
X29560549Y-30915785D02*
X29522453Y-30937213D01*
X29522453Y-30937213D02*
X29465311Y-30937213D01*
X29465311Y-30937213D02*
X29427215Y-30915785D01*
X29427215Y-30915785D02*
X29408168Y-30894356D01*
X29408168Y-30894356D02*
X29389120Y-30851499D01*
X29389120Y-30851499D02*
X29389120Y-30680070D01*
X29408168Y-31130070D02*
X29408168Y-31280070D01*
X29198644Y-31344356D02*
X29198644Y-31130070D01*
X29198644Y-31130070D02*
X29598644Y-31130070D01*
X29598644Y-31130070D02*
X29598644Y-31344356D01*
X29217692Y-31515785D02*
X29198644Y-31580071D01*
X29198644Y-31580071D02*
X29198644Y-31687213D01*
X29198644Y-31687213D02*
X29217692Y-31730071D01*
X29217692Y-31730071D02*
X29236739Y-31751499D01*
X29236739Y-31751499D02*
X29274834Y-31772928D01*
X29274834Y-31772928D02*
X29312930Y-31772928D01*
X29312930Y-31772928D02*
X29351025Y-31751499D01*
X29351025Y-31751499D02*
X29370072Y-31730071D01*
X29370072Y-31730071D02*
X29389120Y-31687213D01*
X29389120Y-31687213D02*
X29408168Y-31601499D01*
X29408168Y-31601499D02*
X29427215Y-31558642D01*
X29427215Y-31558642D02*
X29446263Y-31537213D01*
X29446263Y-31537213D02*
X29484358Y-31515785D01*
X29484358Y-31515785D02*
X29522453Y-31515785D01*
X29522453Y-31515785D02*
X29560549Y-31537213D01*
X29560549Y-31537213D02*
X29579596Y-31558642D01*
X29579596Y-31558642D02*
X29598644Y-31601499D01*
X29598644Y-31601499D02*
X29598644Y-31708642D01*
X29598644Y-31708642D02*
X29579596Y-31772928D01*
X29408168Y-31965784D02*
X29408168Y-32115784D01*
X29198644Y-32180070D02*
X29198644Y-31965784D01*
X29198644Y-31965784D02*
X29598644Y-31965784D01*
X29598644Y-31965784D02*
X29598644Y-32180070D01*
X29579596Y-33294356D02*
X29598644Y-33251499D01*
X29598644Y-33251499D02*
X29598644Y-33187213D01*
X29598644Y-33187213D02*
X29579596Y-33122927D01*
X29579596Y-33122927D02*
X29541501Y-33080070D01*
X29541501Y-33080070D02*
X29503406Y-33058641D01*
X29503406Y-33058641D02*
X29427215Y-33037213D01*
X29427215Y-33037213D02*
X29370072Y-33037213D01*
X29370072Y-33037213D02*
X29293882Y-33058641D01*
X29293882Y-33058641D02*
X29255787Y-33080070D01*
X29255787Y-33080070D02*
X29217692Y-33122927D01*
X29217692Y-33122927D02*
X29198644Y-33187213D01*
X29198644Y-33187213D02*
X29198644Y-33230070D01*
X29198644Y-33230070D02*
X29217692Y-33294356D01*
X29217692Y-33294356D02*
X29236739Y-33315784D01*
X29236739Y-33315784D02*
X29370072Y-33315784D01*
X29370072Y-33315784D02*
X29370072Y-33230070D01*
X29198644Y-33508641D02*
X29598644Y-33508641D01*
X29598644Y-33508641D02*
X29198644Y-33765784D01*
X29198644Y-33765784D02*
X29598644Y-33765784D01*
X29198644Y-33980070D02*
X29598644Y-33980070D01*
X29598644Y-33980070D02*
X29598644Y-34087213D01*
X29598644Y-34087213D02*
X29579596Y-34151499D01*
X29579596Y-34151499D02*
X29541501Y-34194356D01*
X29541501Y-34194356D02*
X29503406Y-34215785D01*
X29503406Y-34215785D02*
X29427215Y-34237213D01*
X29427215Y-34237213D02*
X29370072Y-34237213D01*
X29370072Y-34237213D02*
X29293882Y-34215785D01*
X29293882Y-34215785D02*
X29255787Y-34194356D01*
X29255787Y-34194356D02*
X29217692Y-34151499D01*
X29217692Y-34151499D02*
X29198644Y-34087213D01*
X29198644Y-34087213D02*
X29198644Y-33980070D01*
X28820000Y-17650000D02*
X29912492Y-17650000D01*
X29912492Y-34740000D01*
X28820000Y-34740000D01*
X28820000Y-17650000D01*
X15517069Y-31623972D02*
X15517069Y-31385877D01*
X15631355Y-31671591D02*
X15231355Y-31504925D01*
X15231355Y-31504925D02*
X15631355Y-31338258D01*
X15631355Y-31171592D02*
X15231355Y-31171592D01*
X15631355Y-30933497D02*
X15231355Y-30933497D01*
X15231355Y-30933497D02*
X15631355Y-30647783D01*
X15631355Y-30647783D02*
X15231355Y-30647783D01*
X15231355Y-30457306D02*
X15231355Y-30147782D01*
X15231355Y-30147782D02*
X15383736Y-30314449D01*
X15383736Y-30314449D02*
X15383736Y-30243020D01*
X15383736Y-30243020D02*
X15402784Y-30195401D01*
X15402784Y-30195401D02*
X15421831Y-30171592D01*
X15421831Y-30171592D02*
X15459927Y-30147782D01*
X15459927Y-30147782D02*
X15555165Y-30147782D01*
X15555165Y-30147782D02*
X15593260Y-30171592D01*
X15593260Y-30171592D02*
X15612308Y-30195401D01*
X15612308Y-30195401D02*
X15631355Y-30243020D01*
X15631355Y-30243020D02*
X15631355Y-30385877D01*
X15631355Y-30385877D02*
X15612308Y-30433496D01*
X15612308Y-30433496D02*
X15593260Y-30457306D01*
X15517069Y-29195402D02*
X15517069Y-28957307D01*
X15631355Y-29243021D02*
X15231355Y-29076355D01*
X15231355Y-29076355D02*
X15631355Y-28909688D01*
X15631355Y-28743022D02*
X15231355Y-28743022D01*
X15631355Y-28504927D02*
X15231355Y-28504927D01*
X15231355Y-28504927D02*
X15631355Y-28219213D01*
X15631355Y-28219213D02*
X15231355Y-28219213D01*
X15269450Y-28004926D02*
X15250403Y-27981117D01*
X15250403Y-27981117D02*
X15231355Y-27933498D01*
X15231355Y-27933498D02*
X15231355Y-27814450D01*
X15231355Y-27814450D02*
X15250403Y-27766831D01*
X15250403Y-27766831D02*
X15269450Y-27743022D01*
X15269450Y-27743022D02*
X15307546Y-27719212D01*
X15307546Y-27719212D02*
X15345641Y-27719212D01*
X15345641Y-27719212D02*
X15402784Y-27743022D01*
X15402784Y-27743022D02*
X15631355Y-28028736D01*
X15631355Y-28028736D02*
X15631355Y-27719212D01*
X15517069Y-26766832D02*
X15517069Y-26528737D01*
X15631355Y-26814451D02*
X15231355Y-26647785D01*
X15231355Y-26647785D02*
X15631355Y-26481118D01*
X15631355Y-26314452D02*
X15231355Y-26314452D01*
X15631355Y-26076357D02*
X15231355Y-26076357D01*
X15231355Y-26076357D02*
X15631355Y-25790643D01*
X15631355Y-25790643D02*
X15231355Y-25790643D01*
X15631355Y-25290642D02*
X15631355Y-25576356D01*
X15631355Y-25433499D02*
X15231355Y-25433499D01*
X15231355Y-25433499D02*
X15288498Y-25481118D01*
X15288498Y-25481118D02*
X15326593Y-25528737D01*
X15326593Y-25528737D02*
X15345641Y-25576356D01*
X15517069Y-24338262D02*
X15517069Y-24100167D01*
X15631355Y-24385881D02*
X15231355Y-24219215D01*
X15231355Y-24219215D02*
X15631355Y-24052548D01*
X15631355Y-23885882D02*
X15231355Y-23885882D01*
X15631355Y-23647787D02*
X15231355Y-23647787D01*
X15231355Y-23647787D02*
X15631355Y-23362073D01*
X15631355Y-23362073D02*
X15231355Y-23362073D01*
X15231355Y-23028739D02*
X15231355Y-22981120D01*
X15231355Y-22981120D02*
X15250403Y-22933501D01*
X15250403Y-22933501D02*
X15269450Y-22909691D01*
X15269450Y-22909691D02*
X15307546Y-22885882D01*
X15307546Y-22885882D02*
X15383736Y-22862072D01*
X15383736Y-22862072D02*
X15478974Y-22862072D01*
X15478974Y-22862072D02*
X15555165Y-22885882D01*
X15555165Y-22885882D02*
X15593260Y-22909691D01*
X15593260Y-22909691D02*
X15612308Y-22933501D01*
X15612308Y-22933501D02*
X15631355Y-22981120D01*
X15631355Y-22981120D02*
X15631355Y-23028739D01*
X15631355Y-23028739D02*
X15612308Y-23076358D01*
X15612308Y-23076358D02*
X15593260Y-23100167D01*
X15593260Y-23100167D02*
X15555165Y-23123977D01*
X15555165Y-23123977D02*
X15478974Y-23147786D01*
X15478974Y-23147786D02*
X15383736Y-23147786D01*
X15383736Y-23147786D02*
X15307546Y-23123977D01*
X15307546Y-23123977D02*
X15269450Y-23100167D01*
X15269450Y-23100167D02*
X15250403Y-23076358D01*
X15250403Y-23076358D02*
X15231355Y-23028739D01*
X15250403Y-21623978D02*
X15231355Y-21671597D01*
X15231355Y-21671597D02*
X15231355Y-21743026D01*
X15231355Y-21743026D02*
X15250403Y-21814454D01*
X15250403Y-21814454D02*
X15288498Y-21862073D01*
X15288498Y-21862073D02*
X15326593Y-21885883D01*
X15326593Y-21885883D02*
X15402784Y-21909692D01*
X15402784Y-21909692D02*
X15459927Y-21909692D01*
X15459927Y-21909692D02*
X15536117Y-21885883D01*
X15536117Y-21885883D02*
X15574212Y-21862073D01*
X15574212Y-21862073D02*
X15612308Y-21814454D01*
X15612308Y-21814454D02*
X15631355Y-21743026D01*
X15631355Y-21743026D02*
X15631355Y-21695407D01*
X15631355Y-21695407D02*
X15612308Y-21623978D01*
X15612308Y-21623978D02*
X15593260Y-21600169D01*
X15593260Y-21600169D02*
X15459927Y-21600169D01*
X15459927Y-21600169D02*
X15459927Y-21695407D01*
X15631355Y-21385883D02*
X15231355Y-21385883D01*
X15231355Y-21385883D02*
X15631355Y-21100169D01*
X15631355Y-21100169D02*
X15231355Y-21100169D01*
X15631355Y-20862073D02*
X15231355Y-20862073D01*
X15231355Y-20862073D02*
X15231355Y-20743025D01*
X15231355Y-20743025D02*
X15250403Y-20671597D01*
X15250403Y-20671597D02*
X15288498Y-20623978D01*
X15288498Y-20623978D02*
X15326593Y-20600168D01*
X15326593Y-20600168D02*
X15402784Y-20576359D01*
X15402784Y-20576359D02*
X15459927Y-20576359D01*
X15459927Y-20576359D02*
X15536117Y-20600168D01*
X15536117Y-20600168D02*
X15574212Y-20623978D01*
X15574212Y-20623978D02*
X15612308Y-20671597D01*
X15612308Y-20671597D02*
X15631355Y-20743025D01*
X15631355Y-20743025D02*
X15631355Y-20862073D01*
X15478974Y-19600169D02*
X15478974Y-19219217D01*
X15631355Y-19409693D02*
X15326593Y-19409693D01*
X15231355Y-18743026D02*
X15231355Y-18981121D01*
X15231355Y-18981121D02*
X15421831Y-19004930D01*
X15421831Y-19004930D02*
X15402784Y-18981121D01*
X15402784Y-18981121D02*
X15383736Y-18933502D01*
X15383736Y-18933502D02*
X15383736Y-18814454D01*
X15383736Y-18814454D02*
X15402784Y-18766835D01*
X15402784Y-18766835D02*
X15421831Y-18743026D01*
X15421831Y-18743026D02*
X15459927Y-18719216D01*
X15459927Y-18719216D02*
X15555165Y-18719216D01*
X15555165Y-18719216D02*
X15593260Y-18743026D01*
X15593260Y-18743026D02*
X15612308Y-18766835D01*
X15612308Y-18766835D02*
X15631355Y-18814454D01*
X15631355Y-18814454D02*
X15631355Y-18933502D01*
X15631355Y-18933502D02*
X15612308Y-18981121D01*
X15612308Y-18981121D02*
X15593260Y-19004930D01*
X15231355Y-18576359D02*
X15631355Y-18409693D01*
X15631355Y-18409693D02*
X15231355Y-18243026D01*
X14917508Y-15895000D02*
X16010000Y-15895000D01*
X16010000Y-32085000D01*
X14917508Y-32085000D01*
X14917508Y-15895000D01*
D11*
X19860237Y-24166818D02*
X19860237Y-22896818D01*
X21190714Y-24045865D02*
X21130238Y-24106342D01*
X21130238Y-24106342D02*
X20948809Y-24166818D01*
X20948809Y-24166818D02*
X20827857Y-24166818D01*
X20827857Y-24166818D02*
X20646428Y-24106342D01*
X20646428Y-24106342D02*
X20525476Y-23985389D01*
X20525476Y-23985389D02*
X20464999Y-23864437D01*
X20464999Y-23864437D02*
X20404523Y-23622532D01*
X20404523Y-23622532D02*
X20404523Y-23441103D01*
X20404523Y-23441103D02*
X20464999Y-23199199D01*
X20464999Y-23199199D02*
X20525476Y-23078246D01*
X20525476Y-23078246D02*
X20646428Y-22957294D01*
X20646428Y-22957294D02*
X20827857Y-22896818D01*
X20827857Y-22896818D02*
X20948809Y-22896818D01*
X20948809Y-22896818D02*
X21130238Y-22957294D01*
X21130238Y-22957294D02*
X21190714Y-23017770D01*
X22400238Y-24166818D02*
X21674523Y-24166818D01*
X22037380Y-24166818D02*
X22037380Y-22896818D01*
X22037380Y-22896818D02*
X21916428Y-23078246D01*
X21916428Y-23078246D02*
X21795476Y-23199199D01*
X21795476Y-23199199D02*
X21674523Y-23259675D01*
D12*
X13404819Y-25303333D02*
X14119104Y-25303333D01*
X14119104Y-25303333D02*
X14261961Y-25350952D01*
X14261961Y-25350952D02*
X14357200Y-25446190D01*
X14357200Y-25446190D02*
X14404819Y-25589047D01*
X14404819Y-25589047D02*
X14404819Y-25684285D01*
X14404819Y-24303333D02*
X14404819Y-24874761D01*
X14404819Y-24589047D02*
X13404819Y-24589047D01*
X13404819Y-24589047D02*
X13547676Y-24684285D01*
X13547676Y-24684285D02*
X13642914Y-24779523D01*
X13642914Y-24779523D02*
X13690533Y-24874761D01*
X30274819Y-24893333D02*
X30989104Y-24893333D01*
X30989104Y-24893333D02*
X31131961Y-24940952D01*
X31131961Y-24940952D02*
X31227200Y-25036190D01*
X31227200Y-25036190D02*
X31274819Y-25179047D01*
X31274819Y-25179047D02*
X31274819Y-25274285D01*
X30274819Y-23940952D02*
X30274819Y-24417142D01*
X30274819Y-24417142D02*
X30751009Y-24464761D01*
X30751009Y-24464761D02*
X30703390Y-24417142D01*
X30703390Y-24417142D02*
X30655771Y-24321904D01*
X30655771Y-24321904D02*
X30655771Y-24083809D01*
X30655771Y-24083809D02*
X30703390Y-23988571D01*
X30703390Y-23988571D02*
X30751009Y-23940952D01*
X30751009Y-23940952D02*
X30846247Y-23893333D01*
X30846247Y-23893333D02*
X31084342Y-23893333D01*
X31084342Y-23893333D02*
X31179580Y-23940952D01*
X31179580Y-23940952D02*
X31227200Y-23988571D01*
X31227200Y-23988571D02*
X31274819Y-24083809D01*
X31274819Y-24083809D02*
X31274819Y-24321904D01*
X31274819Y-24321904D02*
X31227200Y-24417142D01*
X31227200Y-24417142D02*
X31179580Y-24464761D01*
X27790000Y-23312628D02*
X27761428Y-23341200D01*
X27761428Y-23341200D02*
X27675714Y-23369771D01*
X27675714Y-23369771D02*
X27618571Y-23369771D01*
X27618571Y-23369771D02*
X27532857Y-23341200D01*
X27532857Y-23341200D02*
X27475714Y-23284057D01*
X27475714Y-23284057D02*
X27447143Y-23226914D01*
X27447143Y-23226914D02*
X27418571Y-23112628D01*
X27418571Y-23112628D02*
X27418571Y-23026914D01*
X27418571Y-23026914D02*
X27447143Y-22912628D01*
X27447143Y-22912628D02*
X27475714Y-22855485D01*
X27475714Y-22855485D02*
X27532857Y-22798342D01*
X27532857Y-22798342D02*
X27618571Y-22769771D01*
X27618571Y-22769771D02*
X27675714Y-22769771D01*
X27675714Y-22769771D02*
X27761428Y-22798342D01*
X27761428Y-22798342D02*
X27790000Y-22826914D01*
X28018571Y-22826914D02*
X28047143Y-22798342D01*
X28047143Y-22798342D02*
X28104286Y-22769771D01*
X28104286Y-22769771D02*
X28247143Y-22769771D01*
X28247143Y-22769771D02*
X28304286Y-22798342D01*
X28304286Y-22798342D02*
X28332857Y-22826914D01*
X28332857Y-22826914D02*
X28361428Y-22884057D01*
X28361428Y-22884057D02*
X28361428Y-22941200D01*
X28361428Y-22941200D02*
X28332857Y-23026914D01*
X28332857Y-23026914D02*
X27990000Y-23369771D01*
X27990000Y-23369771D02*
X28361428Y-23369771D01*
X26090000Y-22592628D02*
X26061428Y-22621200D01*
X26061428Y-22621200D02*
X25975714Y-22649771D01*
X25975714Y-22649771D02*
X25918571Y-22649771D01*
X25918571Y-22649771D02*
X25832857Y-22621200D01*
X25832857Y-22621200D02*
X25775714Y-22564057D01*
X25775714Y-22564057D02*
X25747143Y-22506914D01*
X25747143Y-22506914D02*
X25718571Y-22392628D01*
X25718571Y-22392628D02*
X25718571Y-22306914D01*
X25718571Y-22306914D02*
X25747143Y-22192628D01*
X25747143Y-22192628D02*
X25775714Y-22135485D01*
X25775714Y-22135485D02*
X25832857Y-22078342D01*
X25832857Y-22078342D02*
X25918571Y-22049771D01*
X25918571Y-22049771D02*
X25975714Y-22049771D01*
X25975714Y-22049771D02*
X26061428Y-22078342D01*
X26061428Y-22078342D02*
X26090000Y-22106914D01*
X26604286Y-22249771D02*
X26604286Y-22649771D01*
X26461428Y-22021200D02*
X26318571Y-22449771D01*
X26318571Y-22449771D02*
X26690000Y-22449771D01*
X27020000Y-26942628D02*
X26991428Y-26971200D01*
X26991428Y-26971200D02*
X26905714Y-26999771D01*
X26905714Y-26999771D02*
X26848571Y-26999771D01*
X26848571Y-26999771D02*
X26762857Y-26971200D01*
X26762857Y-26971200D02*
X26705714Y-26914057D01*
X26705714Y-26914057D02*
X26677143Y-26856914D01*
X26677143Y-26856914D02*
X26648571Y-26742628D01*
X26648571Y-26742628D02*
X26648571Y-26656914D01*
X26648571Y-26656914D02*
X26677143Y-26542628D01*
X26677143Y-26542628D02*
X26705714Y-26485485D01*
X26705714Y-26485485D02*
X26762857Y-26428342D01*
X26762857Y-26428342D02*
X26848571Y-26399771D01*
X26848571Y-26399771D02*
X26905714Y-26399771D01*
X26905714Y-26399771D02*
X26991428Y-26428342D01*
X26991428Y-26428342D02*
X27020000Y-26456914D01*
X27591428Y-26999771D02*
X27248571Y-26999771D01*
X27420000Y-26999771D02*
X27420000Y-26399771D01*
X27420000Y-26399771D02*
X27362857Y-26485485D01*
X27362857Y-26485485D02*
X27305714Y-26542628D01*
X27305714Y-26542628D02*
X27248571Y-26571200D01*
D13*
%TO.C,IC1*%
X17425000Y-20742500D02*
X18900000Y-20742500D01*
X19250000Y-21092500D02*
X22950000Y-21092500D01*
X19250000Y-26092500D02*
X19250000Y-21092500D01*
X22950000Y-21092500D02*
X22950000Y-26092500D01*
X22950000Y-26092500D02*
X19250000Y-26092500D01*
D14*
%TO.C,J1*%
X5720000Y-16130000D02*
X14140000Y-16130000D01*
X5720000Y-33850000D02*
X5720000Y-16130000D01*
X6940000Y-16130000D02*
X6940000Y-17350000D01*
X6940000Y-17350000D02*
X11940000Y-17350000D01*
X6940000Y-32630000D02*
X11940000Y-32630000D01*
X6940000Y-33850000D02*
X6940000Y-32630000D01*
X7440000Y-18740000D02*
X7520000Y-18420000D01*
X7440000Y-21240000D02*
X7520000Y-20920000D01*
X7440000Y-23740000D02*
X7520000Y-23420000D01*
X7440000Y-26240000D02*
X7520000Y-25920000D01*
X7440000Y-28740000D02*
X7520000Y-28420000D01*
X7440000Y-31240000D02*
X7520000Y-30920000D01*
X7520000Y-18420000D02*
X10940000Y-18420000D01*
X7520000Y-19060000D02*
X7440000Y-18740000D01*
X7520000Y-20920000D02*
X10940000Y-20920000D01*
X7520000Y-21560000D02*
X7440000Y-21240000D01*
X7520000Y-23420000D02*
X10940000Y-23420000D01*
X7520000Y-24060000D02*
X7440000Y-23740000D01*
X7520000Y-25920000D02*
X10940000Y-25920000D01*
X7520000Y-26560000D02*
X7440000Y-26240000D01*
X7520000Y-28420000D02*
X10940000Y-28420000D01*
X7520000Y-29060000D02*
X7440000Y-28740000D01*
X7520000Y-30920000D02*
X10940000Y-30920000D01*
X7520000Y-31560000D02*
X7440000Y-31240000D01*
X10940000Y-18420000D02*
X10940000Y-18740000D01*
X10940000Y-18740000D02*
X10940000Y-19060000D01*
X10940000Y-19060000D02*
X7520000Y-19060000D01*
X10940000Y-20920000D02*
X10940000Y-21240000D01*
X10940000Y-21240000D02*
X10940000Y-21560000D01*
X10940000Y-21560000D02*
X7520000Y-21560000D01*
X10940000Y-23420000D02*
X10940000Y-23740000D01*
X10940000Y-23740000D02*
X10940000Y-24060000D01*
X10940000Y-24060000D02*
X7520000Y-24060000D01*
X10940000Y-25920000D02*
X10940000Y-26240000D01*
X10940000Y-26240000D02*
X10940000Y-26560000D01*
X10940000Y-26560000D02*
X7520000Y-26560000D01*
X10940000Y-28420000D02*
X10940000Y-28740000D01*
X10940000Y-28740000D02*
X10940000Y-29060000D01*
X10940000Y-29060000D02*
X7520000Y-29060000D01*
X10940000Y-30920000D02*
X10940000Y-31240000D01*
X10940000Y-31240000D02*
X10940000Y-31560000D01*
X10940000Y-31560000D02*
X7520000Y-31560000D01*
X10940000Y-32630000D02*
X10940000Y-17350000D01*
X11940000Y-17350000D02*
X11940000Y-16130000D01*
X11940000Y-20070000D02*
X11940000Y-19910000D01*
X11940000Y-22570000D02*
X11940000Y-22410000D01*
X11940000Y-25070000D02*
X11940000Y-24910000D01*
X11940000Y-27570000D02*
X11940000Y-27410000D01*
X11940000Y-30070000D02*
X11940000Y-29910000D01*
X11940000Y-32630000D02*
X11940000Y-33850000D01*
X11940000Y-32630000D02*
X14140000Y-32630000D01*
X14030000Y-31240000D02*
X14630000Y-31540000D01*
X14140000Y-16130000D02*
X14140000Y-17350000D01*
X14140000Y-17350000D02*
X11940000Y-17350000D01*
X14140000Y-32630000D02*
X14140000Y-33850000D01*
X14140000Y-33850000D02*
X5720000Y-33850000D01*
X14630000Y-30940000D02*
X14030000Y-31240000D01*
X14630000Y-31540000D02*
X14630000Y-30940000D01*
%TO.C,J5*%
X30117500Y-18107500D02*
X30117500Y-18707500D01*
X30117500Y-18707500D02*
X30717500Y-18407500D01*
X30607500Y-15797500D02*
X39027500Y-15797500D01*
X30607500Y-17017500D02*
X30607500Y-15797500D01*
X30607500Y-34797500D02*
X32807500Y-34797500D01*
X30607500Y-36017500D02*
X30607500Y-34797500D01*
X30717500Y-18407500D02*
X30117500Y-18107500D01*
X32807500Y-17017500D02*
X30607500Y-17017500D01*
X32807500Y-17017500D02*
X32807500Y-15797500D01*
X32807500Y-19577500D02*
X32807500Y-19737500D01*
X32807500Y-22077500D02*
X32807500Y-22237500D01*
X32807500Y-24577500D02*
X32807500Y-24737500D01*
X32807500Y-27077500D02*
X32807500Y-27237500D01*
X32807500Y-29577500D02*
X32807500Y-29737500D01*
X32807500Y-32077500D02*
X32807500Y-32237500D01*
X32807500Y-34797500D02*
X32807500Y-36017500D01*
X33807500Y-17017500D02*
X33807500Y-34797500D01*
X33807500Y-18087500D02*
X37227500Y-18087500D01*
X33807500Y-18407500D02*
X33807500Y-18087500D01*
X33807500Y-18727500D02*
X33807500Y-18407500D01*
X33807500Y-20587500D02*
X37227500Y-20587500D01*
X33807500Y-20907500D02*
X33807500Y-20587500D01*
X33807500Y-21227500D02*
X33807500Y-20907500D01*
X33807500Y-23087500D02*
X37227500Y-23087500D01*
X33807500Y-23407500D02*
X33807500Y-23087500D01*
X33807500Y-23727500D02*
X33807500Y-23407500D01*
X33807500Y-25587500D02*
X37227500Y-25587500D01*
X33807500Y-25907500D02*
X33807500Y-25587500D01*
X33807500Y-26227500D02*
X33807500Y-25907500D01*
X33807500Y-28087500D02*
X37227500Y-28087500D01*
X33807500Y-28407500D02*
X33807500Y-28087500D01*
X33807500Y-28727500D02*
X33807500Y-28407500D01*
X33807500Y-30587500D02*
X37227500Y-30587500D01*
X33807500Y-30907500D02*
X33807500Y-30587500D01*
X33807500Y-31227500D02*
X33807500Y-30907500D01*
X33807500Y-33087500D02*
X37227500Y-33087500D01*
X33807500Y-33407500D02*
X33807500Y-33087500D01*
X33807500Y-33727500D02*
X33807500Y-33407500D01*
X37227500Y-18087500D02*
X37307500Y-18407500D01*
X37227500Y-18727500D02*
X33807500Y-18727500D01*
X37227500Y-20587500D02*
X37307500Y-20907500D01*
X37227500Y-21227500D02*
X33807500Y-21227500D01*
X37227500Y-23087500D02*
X37307500Y-23407500D01*
X37227500Y-23727500D02*
X33807500Y-23727500D01*
X37227500Y-25587500D02*
X37307500Y-25907500D01*
X37227500Y-26227500D02*
X33807500Y-26227500D01*
X37227500Y-28087500D02*
X37307500Y-28407500D01*
X37227500Y-28727500D02*
X33807500Y-28727500D01*
X37227500Y-30587500D02*
X37307500Y-30907500D01*
X37227500Y-31227500D02*
X33807500Y-31227500D01*
X37227500Y-33087500D02*
X37307500Y-33407500D01*
X37227500Y-33727500D02*
X33807500Y-33727500D01*
X37307500Y-18407500D02*
X37227500Y-18727500D01*
X37307500Y-20907500D02*
X37227500Y-21227500D01*
X37307500Y-23407500D02*
X37227500Y-23727500D01*
X37307500Y-25907500D02*
X37227500Y-26227500D01*
X37307500Y-28407500D02*
X37227500Y-28727500D01*
X37307500Y-30907500D02*
X37227500Y-31227500D01*
X37307500Y-33407500D02*
X37227500Y-33727500D01*
X37807500Y-15797500D02*
X37807500Y-17017500D01*
X37807500Y-17017500D02*
X32807500Y-17017500D01*
X37807500Y-34797500D02*
X32807500Y-34797500D01*
X37807500Y-36017500D02*
X37807500Y-34797500D01*
X39027500Y-15797500D02*
X39027500Y-36017500D01*
X39027500Y-36017500D02*
X30607500Y-36017500D01*
%TO.C,C2*%
X26973733Y-23550000D02*
X27266267Y-23550000D01*
X26973733Y-24570000D02*
X27266267Y-24570000D01*
%TO.C,C4*%
X27266267Y-20870000D02*
X26973733Y-20870000D01*
X27266267Y-21890000D02*
X26973733Y-21890000D01*
%TO.C,C1*%
X26973733Y-25050000D02*
X27266267Y-25050000D01*
X26973733Y-26070000D02*
X27266267Y-26070000D01*
D15*
%TO.C,G\u002A\u002A\u002A*%
G36*
X27785772Y-19714090D02*
G01*
X27785772Y-19770284D01*
X27615106Y-19770284D01*
X27444441Y-19770284D01*
X27444441Y-19876430D01*
X27444441Y-19982575D01*
X27602619Y-19982575D01*
X27760796Y-19982575D01*
X27760796Y-20040851D01*
X27760796Y-20099127D01*
X27602619Y-20099127D01*
X27444441Y-20099127D01*
X27444441Y-20207354D01*
X27444441Y-20315581D01*
X27619269Y-20315581D01*
X27794097Y-20315581D01*
X27794097Y-20371776D01*
X27794097Y-20427970D01*
X27552668Y-20427970D01*
X27311239Y-20427970D01*
X27311239Y-20042933D01*
X27311239Y-19657895D01*
X27548505Y-19657895D01*
X27785772Y-19657895D01*
X27785772Y-19714090D01*
G37*
G36*
X26620933Y-17011438D02*
G01*
X26688215Y-17012582D01*
X26840509Y-17276905D01*
X26992802Y-17541228D01*
X26993874Y-17275865D01*
X26994945Y-17010501D01*
X27061515Y-17010501D01*
X27128086Y-17010501D01*
X27128086Y-17395641D01*
X27128086Y-17780782D01*
X27061095Y-17779639D01*
X26994104Y-17778495D01*
X26846995Y-17523184D01*
X26822496Y-17480692D01*
X26799099Y-17440161D01*
X26777151Y-17402193D01*
X26757002Y-17367389D01*
X26739003Y-17336352D01*
X26723500Y-17309682D01*
X26710845Y-17287981D01*
X26701386Y-17271851D01*
X26695472Y-17261894D01*
X26693588Y-17258860D01*
X26692312Y-17257667D01*
X26691216Y-17258389D01*
X26690288Y-17261592D01*
X26689513Y-17267839D01*
X26688876Y-17277696D01*
X26688363Y-17291726D01*
X26687960Y-17310495D01*
X26687653Y-17334565D01*
X26687426Y-17364502D01*
X26687267Y-17400871D01*
X26687159Y-17444235D01*
X26687090Y-17495158D01*
X26687072Y-17515212D01*
X26686853Y-17780576D01*
X26620252Y-17780576D01*
X26553651Y-17780576D01*
X26553651Y-17395435D01*
X26553651Y-17010294D01*
X26620933Y-17011438D01*
G37*
G36*
X20983444Y-17023087D02*
G01*
X21039115Y-17023176D01*
X21093045Y-17023312D01*
X21144604Y-17023497D01*
X21193162Y-17023729D01*
X21238090Y-17024010D01*
X21278759Y-17024340D01*
X21314540Y-17024718D01*
X21344804Y-17025145D01*
X21368921Y-17025622D01*
X21386263Y-17026148D01*
X21396199Y-17026724D01*
X21397986Y-17026974D01*
X21419489Y-17035391D01*
X21436304Y-17050064D01*
X21445069Y-17062924D01*
X21453007Y-17084380D01*
X21453483Y-17106156D01*
X21447154Y-17126729D01*
X21434677Y-17144577D01*
X21416709Y-17158178D01*
X21401301Y-17164333D01*
X21395007Y-17164931D01*
X21381028Y-17165482D01*
X21359991Y-17165983D01*
X21332518Y-17166436D01*
X21299236Y-17166842D01*
X21260768Y-17167199D01*
X21217740Y-17167508D01*
X21170777Y-17167769D01*
X21120503Y-17167982D01*
X21067542Y-17168149D01*
X21012521Y-17168267D01*
X20956063Y-17168339D01*
X20898793Y-17168364D01*
X20841337Y-17168341D01*
X20784318Y-17168272D01*
X20728362Y-17168156D01*
X20674093Y-17167994D01*
X20622136Y-17167786D01*
X20573116Y-17167531D01*
X20527658Y-17167231D01*
X20486387Y-17166884D01*
X20449926Y-17166492D01*
X20418902Y-17166054D01*
X20393938Y-17165571D01*
X20375660Y-17165042D01*
X20364692Y-17164469D01*
X20361829Y-17164088D01*
X20342979Y-17154244D01*
X20328112Y-17138648D01*
X20318040Y-17119234D01*
X20313577Y-17097932D01*
X20315537Y-17076675D01*
X20320054Y-17064903D01*
X20332339Y-17048629D01*
X20349660Y-17035095D01*
X20367161Y-17027334D01*
X20373462Y-17026733D01*
X20387458Y-17026177D01*
X20408521Y-17025665D01*
X20436021Y-17025199D01*
X20469329Y-17024777D01*
X20507817Y-17024400D01*
X20550854Y-17024070D01*
X20597812Y-17023784D01*
X20648062Y-17023545D01*
X20700973Y-17023352D01*
X20755918Y-17023205D01*
X20812267Y-17023105D01*
X20869390Y-17023052D01*
X20926659Y-17023046D01*
X20983444Y-17023087D01*
G37*
G36*
X19214054Y-17022888D02*
G01*
X19270967Y-17022953D01*
X19326760Y-17023069D01*
X19380801Y-17023237D01*
X19432462Y-17023456D01*
X19481111Y-17023725D01*
X19526121Y-17024046D01*
X19566860Y-17024418D01*
X19602700Y-17024841D01*
X19633009Y-17025315D01*
X19657160Y-17025840D01*
X19674521Y-17026416D01*
X19684463Y-17027043D01*
X19686323Y-17027334D01*
X19707521Y-17036966D01*
X19723707Y-17051745D01*
X19734473Y-17070138D01*
X19739412Y-17090608D01*
X19738116Y-17111620D01*
X19730176Y-17131640D01*
X19718010Y-17146626D01*
X19714670Y-17149855D01*
X19711638Y-17152753D01*
X19708469Y-17155338D01*
X19704719Y-17157627D01*
X19699945Y-17159638D01*
X19693702Y-17161389D01*
X19685546Y-17162896D01*
X19675034Y-17164179D01*
X19661721Y-17165253D01*
X19645163Y-17166138D01*
X19624917Y-17166849D01*
X19600539Y-17167405D01*
X19571584Y-17167824D01*
X19537608Y-17168122D01*
X19498168Y-17168318D01*
X19452820Y-17168429D01*
X19401119Y-17168473D01*
X19342621Y-17168466D01*
X19276884Y-17168427D01*
X19203462Y-17168374D01*
X19168346Y-17168350D01*
X19080228Y-17168258D01*
X19000391Y-17168103D01*
X18928791Y-17167884D01*
X18865384Y-17167601D01*
X18810127Y-17167252D01*
X18762974Y-17166839D01*
X18723882Y-17166359D01*
X18692807Y-17165814D01*
X18669704Y-17165202D01*
X18654531Y-17164523D01*
X18647243Y-17163778D01*
X18646850Y-17163668D01*
X18626522Y-17152416D01*
X18610982Y-17135375D01*
X18601453Y-17114278D01*
X18598980Y-17095833D01*
X18602855Y-17072461D01*
X18613832Y-17052375D01*
X18630945Y-17036824D01*
X18652182Y-17027334D01*
X18658671Y-17026685D01*
X18672854Y-17026086D01*
X18694103Y-17025539D01*
X18721788Y-17025042D01*
X18755279Y-17024597D01*
X18793946Y-17024203D01*
X18837159Y-17023860D01*
X18884289Y-17023568D01*
X18934706Y-17023327D01*
X18987780Y-17023137D01*
X19042882Y-17022998D01*
X19099381Y-17022910D01*
X19156648Y-17022873D01*
X19214054Y-17022888D01*
G37*
G36*
X26653053Y-19671423D02*
G01*
X26654987Y-19677601D01*
X26659177Y-19691050D01*
X26665409Y-19711090D01*
X26673474Y-19737042D01*
X26683159Y-19768224D01*
X26694254Y-19803958D01*
X26706547Y-19843562D01*
X26719827Y-19886357D01*
X26733883Y-19931662D01*
X26743220Y-19961763D01*
X26757598Y-20008012D01*
X26771320Y-20051943D01*
X26784179Y-20092906D01*
X26795967Y-20130252D01*
X26806478Y-20163331D01*
X26815504Y-20191493D01*
X26822840Y-20214090D01*
X26828277Y-20230470D01*
X26831609Y-20239985D01*
X26832565Y-20242201D01*
X26835333Y-20240366D01*
X26839427Y-20232178D01*
X26844028Y-20219329D01*
X26844675Y-20217226D01*
X26847399Y-20208338D01*
X26852377Y-20192254D01*
X26859375Y-20169724D01*
X26868160Y-20141498D01*
X26878497Y-20108324D01*
X26890154Y-20070953D01*
X26902897Y-20030133D01*
X26916492Y-19986614D01*
X26930705Y-19941145D01*
X26935974Y-19924299D01*
X27018650Y-19659976D01*
X27081693Y-19658827D01*
X27103524Y-19658501D01*
X27122066Y-19658360D01*
X27135892Y-19658404D01*
X27143570Y-19658633D01*
X27144659Y-19658827D01*
X27143396Y-19662864D01*
X27139746Y-19674280D01*
X27133883Y-19692534D01*
X27125981Y-19717085D01*
X27116216Y-19747392D01*
X27104762Y-19782913D01*
X27091793Y-19823107D01*
X27077485Y-19867432D01*
X27062011Y-19915347D01*
X27045547Y-19966310D01*
X27028267Y-20019781D01*
X27020783Y-20042933D01*
X26896982Y-20425889D01*
X26828340Y-20427002D01*
X26759698Y-20428115D01*
X26637313Y-20048208D01*
X26619832Y-19993948D01*
X26603057Y-19941898D01*
X26587168Y-19892608D01*
X26572343Y-19846630D01*
X26558759Y-19804517D01*
X26546594Y-19766820D01*
X26536027Y-19734090D01*
X26527235Y-19706879D01*
X26520398Y-19685740D01*
X26515691Y-19671222D01*
X26513295Y-19663879D01*
X26513032Y-19663098D01*
X26514146Y-19661094D01*
X26519769Y-19659642D01*
X26530797Y-19658673D01*
X26548129Y-19658117D01*
X26572662Y-19657903D01*
X26579940Y-19657895D01*
X26648745Y-19657895D01*
X26653053Y-19671423D01*
G37*
G36*
X25284064Y-18566261D02*
G01*
X25302291Y-18608090D01*
X25319700Y-18647971D01*
X25335978Y-18685192D01*
X25350813Y-18719042D01*
X25363893Y-18748809D01*
X25374904Y-18773782D01*
X25383535Y-18793250D01*
X25389473Y-18806502D01*
X25392399Y-18812814D01*
X25399705Y-18827303D01*
X25405762Y-18812814D01*
X25408485Y-18806460D01*
X25414227Y-18793185D01*
X25422679Y-18773701D01*
X25433532Y-18748718D01*
X25446477Y-18718946D01*
X25461204Y-18685096D01*
X25477406Y-18647879D01*
X25494772Y-18608006D01*
X25512963Y-18566261D01*
X25614106Y-18334198D01*
X25678028Y-18334198D01*
X25741950Y-18334198D01*
X25741950Y-18719236D01*
X25741950Y-19104273D01*
X25675349Y-19104273D01*
X25608748Y-19104273D01*
X25608503Y-18865966D01*
X25608378Y-18808688D01*
X25608129Y-18759654D01*
X25607753Y-18718787D01*
X25607250Y-18686008D01*
X25606617Y-18661237D01*
X25605854Y-18644396D01*
X25604959Y-18635406D01*
X25604076Y-18633903D01*
X25601694Y-18638747D01*
X25596282Y-18650540D01*
X25588143Y-18668602D01*
X25577577Y-18692251D01*
X25564889Y-18720808D01*
X25550379Y-18753592D01*
X25534351Y-18789923D01*
X25517106Y-18829120D01*
X25498947Y-18870503D01*
X25498737Y-18870982D01*
X25480613Y-18912222D01*
X25463406Y-18951143D01*
X25447417Y-18987084D01*
X25432944Y-19019383D01*
X25420287Y-19047377D01*
X25409745Y-19070406D01*
X25401617Y-19087806D01*
X25396203Y-19098916D01*
X25393802Y-19103074D01*
X25393780Y-19103084D01*
X25390614Y-19100077D01*
X25385209Y-19090959D01*
X25378454Y-19077331D01*
X25374224Y-19067890D01*
X25349965Y-19011854D01*
X25326443Y-18957728D01*
X25303879Y-18906008D01*
X25282493Y-18857192D01*
X25262506Y-18811776D01*
X25244140Y-18770259D01*
X25227616Y-18733137D01*
X25213154Y-18700907D01*
X25200975Y-18674067D01*
X25191302Y-18653113D01*
X25184353Y-18638544D01*
X25180351Y-18630856D01*
X25179490Y-18629740D01*
X25178800Y-18633787D01*
X25178157Y-18645467D01*
X25177571Y-18664087D01*
X25177052Y-18688955D01*
X25176612Y-18719377D01*
X25176260Y-18754663D01*
X25176009Y-18794118D01*
X25175868Y-18837052D01*
X25175841Y-18867007D01*
X25175841Y-19104273D01*
X25111321Y-19104273D01*
X25046801Y-19104273D01*
X25046801Y-18719236D01*
X25046801Y-18334198D01*
X25114918Y-18334198D01*
X25183035Y-18334198D01*
X25284064Y-18566261D01*
G37*
G36*
X28196825Y-19658751D02*
G01*
X28243227Y-19659041D01*
X28282070Y-19659327D01*
X28314120Y-19659643D01*
X28340144Y-19660024D01*
X28360906Y-19660506D01*
X28377174Y-19661123D01*
X28389714Y-19661910D01*
X28399291Y-19662903D01*
X28406671Y-19664137D01*
X28412622Y-19665645D01*
X28417908Y-19667465D01*
X28421871Y-19669044D01*
X28456043Y-19687316D01*
X28484714Y-19711819D01*
X28507772Y-19742435D01*
X28523201Y-19774009D01*
X28526502Y-19783345D01*
X28528982Y-19793096D01*
X28530799Y-19804743D01*
X28532111Y-19819768D01*
X28533075Y-19839655D01*
X28533848Y-19865883D01*
X28534094Y-19876430D01*
X28534493Y-19908371D01*
X28534227Y-19936641D01*
X28533335Y-19959843D01*
X28531854Y-19976580D01*
X28531262Y-19980340D01*
X28520562Y-20017494D01*
X28503313Y-20050692D01*
X28480213Y-20079033D01*
X28451959Y-20101618D01*
X28427535Y-20114350D01*
X28398342Y-20126537D01*
X28441947Y-20209612D01*
X28457527Y-20239307D01*
X28474557Y-20271785D01*
X28491706Y-20304505D01*
X28507639Y-20334921D01*
X28520938Y-20360329D01*
X28556326Y-20427970D01*
X28483745Y-20427970D01*
X28411164Y-20427970D01*
X28333265Y-20278118D01*
X28255365Y-20128265D01*
X28191234Y-20128265D01*
X28127102Y-20128265D01*
X28127102Y-20278118D01*
X28127102Y-20427970D01*
X28060501Y-20427970D01*
X27993900Y-20427970D01*
X27993900Y-20042748D01*
X27993900Y-20015876D01*
X28127102Y-20015876D01*
X28240597Y-20015876D01*
X28274764Y-20015831D01*
X28301645Y-20015655D01*
X28322281Y-20015284D01*
X28337711Y-20014656D01*
X28348976Y-20013709D01*
X28357114Y-20012380D01*
X28363167Y-20010605D01*
X28368173Y-20008323D01*
X28368462Y-20008169D01*
X28378555Y-20002370D01*
X28386216Y-19996425D01*
X28391802Y-19989126D01*
X28395669Y-19979267D01*
X28398172Y-19965641D01*
X28399666Y-19947040D01*
X28400509Y-19922259D01*
X28400940Y-19897992D01*
X28401228Y-19866070D01*
X28400808Y-19841307D01*
X28399363Y-19822546D01*
X28396575Y-19808628D01*
X28392124Y-19798397D01*
X28385693Y-19790695D01*
X28376963Y-19784365D01*
X28368382Y-19779650D01*
X28362586Y-19776842D01*
X28356745Y-19774660D01*
X28349770Y-19773024D01*
X28340572Y-19771856D01*
X28328062Y-19771077D01*
X28311152Y-19770609D01*
X28288753Y-19770374D01*
X28259776Y-19770292D01*
X28238610Y-19770284D01*
X28127102Y-19770284D01*
X28127102Y-19893080D01*
X28127102Y-20015876D01*
X27993900Y-20015876D01*
X27993900Y-19893080D01*
X27993900Y-19657525D01*
X28196825Y-19658751D01*
G37*
G36*
X26240744Y-18335140D02*
G01*
X26309989Y-18336279D01*
X26404595Y-18611009D01*
X26421639Y-18660508D01*
X26438853Y-18710513D01*
X26455889Y-18760011D01*
X26472398Y-18807988D01*
X26488032Y-18853430D01*
X26502442Y-18895327D01*
X26515279Y-18932663D01*
X26526196Y-18964425D01*
X26534844Y-18989602D01*
X26536733Y-18995106D01*
X26574265Y-19104474D01*
X26504985Y-19103333D01*
X26435705Y-19102192D01*
X26403796Y-19006453D01*
X26371887Y-18910714D01*
X26234820Y-18909618D01*
X26097753Y-18908523D01*
X26065228Y-19006398D01*
X26032702Y-19104273D01*
X25970577Y-19104273D01*
X25948907Y-19104116D01*
X25930528Y-19103683D01*
X25916885Y-19103031D01*
X25909419Y-19102219D01*
X25908453Y-19101781D01*
X25909778Y-19097561D01*
X25913623Y-19086043D01*
X25919792Y-19067800D01*
X25928089Y-19043404D01*
X25938319Y-19013429D01*
X25950286Y-18978445D01*
X25963794Y-18939026D01*
X25978647Y-18895743D01*
X25994650Y-18849171D01*
X26011606Y-18799879D01*
X26014794Y-18790622D01*
X26137394Y-18790622D01*
X26138802Y-18792456D01*
X26143609Y-18793862D01*
X26152692Y-18794891D01*
X26166924Y-18795592D01*
X26187183Y-18796016D01*
X26214342Y-18796213D01*
X26235214Y-18796243D01*
X26262753Y-18796116D01*
X26287293Y-18795761D01*
X26307683Y-18795213D01*
X26322774Y-18794509D01*
X26331418Y-18793687D01*
X26333035Y-18793122D01*
X26331771Y-18788256D01*
X26328214Y-18776740D01*
X26322721Y-18759629D01*
X26315646Y-18737977D01*
X26307345Y-18712840D01*
X26298171Y-18685272D01*
X26288480Y-18656329D01*
X26278628Y-18627066D01*
X26268969Y-18598537D01*
X26259858Y-18571798D01*
X26251650Y-18547904D01*
X26244700Y-18527910D01*
X26239364Y-18512870D01*
X26235995Y-18503840D01*
X26234957Y-18501652D01*
X26233125Y-18506009D01*
X26229043Y-18517187D01*
X26223078Y-18534101D01*
X26215595Y-18555670D01*
X26206960Y-18580809D01*
X26197538Y-18608436D01*
X26187696Y-18637466D01*
X26177800Y-18666817D01*
X26168214Y-18695405D01*
X26159305Y-18722148D01*
X26151438Y-18745961D01*
X26144980Y-18765761D01*
X26140295Y-18780465D01*
X26137750Y-18788991D01*
X26137394Y-18790622D01*
X26014794Y-18790622D01*
X26025542Y-18759410D01*
X26043513Y-18707233D01*
X26060980Y-18656503D01*
X26077712Y-18607886D01*
X26093482Y-18562047D01*
X26108061Y-18519652D01*
X26121218Y-18481368D01*
X26132726Y-18447861D01*
X26142356Y-18419796D01*
X26149878Y-18397840D01*
X26155064Y-18382658D01*
X26157065Y-18376765D01*
X26171498Y-18334000D01*
X26240744Y-18335140D01*
G37*
G36*
X26943892Y-18335053D02*
G01*
X27146817Y-18336279D01*
X27174950Y-18349605D01*
X27208574Y-18369665D01*
X27235753Y-18394960D01*
X27256522Y-18425541D01*
X27270916Y-18461457D01*
X27278544Y-18499141D01*
X27280819Y-18525901D01*
X27281680Y-18556282D01*
X27281224Y-18588188D01*
X27279550Y-18619524D01*
X27276758Y-18648193D01*
X27272945Y-18672101D01*
X27269822Y-18684563D01*
X27256491Y-18715091D01*
X27236994Y-18743154D01*
X27212835Y-18767172D01*
X27185518Y-18785560D01*
X27165598Y-18794146D01*
X27153948Y-18798229D01*
X27146376Y-18801294D01*
X27144736Y-18802322D01*
X27146600Y-18806157D01*
X27151921Y-18816585D01*
X27160294Y-18832825D01*
X27171314Y-18854096D01*
X27184576Y-18879616D01*
X27199675Y-18908603D01*
X27216205Y-18940277D01*
X27223385Y-18954016D01*
X27302033Y-19104462D01*
X27229176Y-19103327D01*
X27156318Y-19102192D01*
X27080804Y-18958381D01*
X27063986Y-18926388D01*
X27048300Y-18896615D01*
X27034184Y-18869890D01*
X27022077Y-18847040D01*
X27012418Y-18828894D01*
X27005645Y-18816278D01*
X27002198Y-18810020D01*
X27001922Y-18809569D01*
X26997217Y-18807391D01*
X26986099Y-18805863D01*
X26967972Y-18804941D01*
X26942244Y-18804578D01*
X26936362Y-18804568D01*
X26874169Y-18804568D01*
X26874169Y-18954421D01*
X26874169Y-19104273D01*
X26807568Y-19104273D01*
X26740967Y-19104273D01*
X26740967Y-18719050D01*
X26740967Y-18692179D01*
X26874169Y-18692179D01*
X26985518Y-18692087D01*
X27019341Y-18692015D01*
X27045928Y-18691812D01*
X27066368Y-18691411D01*
X27081750Y-18690742D01*
X27093162Y-18689736D01*
X27101694Y-18688324D01*
X27108435Y-18686437D01*
X27114473Y-18684005D01*
X27114737Y-18683885D01*
X27127720Y-18676260D01*
X27136441Y-18665835D01*
X27141086Y-18656609D01*
X27144151Y-18648974D01*
X27146332Y-18641117D01*
X27147741Y-18631569D01*
X27148489Y-18618862D01*
X27148687Y-18601528D01*
X27148449Y-18578100D01*
X27148190Y-18563121D01*
X27147538Y-18534344D01*
X27146533Y-18512540D01*
X27144792Y-18496356D01*
X27141931Y-18484438D01*
X27137567Y-18475435D01*
X27131317Y-18467994D01*
X27122796Y-18460762D01*
X27118166Y-18457251D01*
X27114373Y-18454718D01*
X27109890Y-18452722D01*
X27103714Y-18451184D01*
X27094842Y-18450028D01*
X27082271Y-18449177D01*
X27064997Y-18448554D01*
X27042019Y-18448082D01*
X27012332Y-18447683D01*
X26990425Y-18447442D01*
X26874169Y-18446216D01*
X26874169Y-18569198D01*
X26874169Y-18692179D01*
X26740967Y-18692179D01*
X26740967Y-18569198D01*
X26740967Y-18333828D01*
X26943892Y-18335053D01*
G37*
G36*
X25285942Y-19657929D02*
G01*
X25324728Y-19658047D01*
X25356736Y-19658272D01*
X25382740Y-19658630D01*
X25403513Y-19659143D01*
X25419828Y-19659836D01*
X25432460Y-19660734D01*
X25442182Y-19661860D01*
X25449767Y-19663238D01*
X25455018Y-19664598D01*
X25491748Y-19679086D01*
X25522254Y-19699048D01*
X25546805Y-19724749D01*
X25565671Y-19756452D01*
X25575930Y-19783292D01*
X25579388Y-19799641D01*
X25581966Y-19822401D01*
X25583666Y-19849707D01*
X25584487Y-19879690D01*
X25584430Y-19910485D01*
X25583494Y-19940224D01*
X25581678Y-19967040D01*
X25578985Y-19989067D01*
X25575930Y-20002868D01*
X25561015Y-20038852D01*
X25540380Y-20068873D01*
X25513686Y-20093321D01*
X25480594Y-20112585D01*
X25480456Y-20112649D01*
X25466767Y-20119019D01*
X25456367Y-20123979D01*
X25451268Y-20126567D01*
X25451100Y-20126679D01*
X25452627Y-20130504D01*
X25457635Y-20140907D01*
X25465724Y-20157103D01*
X25476494Y-20178305D01*
X25489545Y-20203726D01*
X25504476Y-20232582D01*
X25520888Y-20264084D01*
X25527067Y-20275895D01*
X25543966Y-20308207D01*
X25559594Y-20338184D01*
X25573543Y-20365036D01*
X25585402Y-20387968D01*
X25594763Y-20406187D01*
X25601215Y-20418902D01*
X25604348Y-20425319D01*
X25604585Y-20425931D01*
X25600646Y-20426589D01*
X25589724Y-20427146D01*
X25573161Y-20427565D01*
X25552298Y-20427810D01*
X25532781Y-20427856D01*
X25460977Y-20427741D01*
X25383765Y-20279044D01*
X25306553Y-20130347D01*
X25242237Y-20130347D01*
X25177922Y-20130347D01*
X25176829Y-20279159D01*
X25175735Y-20427970D01*
X25111268Y-20427970D01*
X25046801Y-20427970D01*
X25046801Y-20042933D01*
X25046801Y-20015876D01*
X25175715Y-20015876D01*
X25287896Y-20015876D01*
X25324022Y-20015705D01*
X25354971Y-20015209D01*
X25380027Y-20014413D01*
X25398473Y-20013344D01*
X25409594Y-20012026D01*
X25411795Y-20011449D01*
X25425852Y-20004511D01*
X25436717Y-19994966D01*
X25444700Y-19981856D01*
X25450110Y-19964227D01*
X25453255Y-19941120D01*
X25454445Y-19911581D01*
X25454143Y-19880393D01*
X25453102Y-19851899D01*
X25451293Y-19830282D01*
X25448280Y-19814102D01*
X25443630Y-19801915D01*
X25436910Y-19792282D01*
X25427684Y-19783761D01*
X25424257Y-19781126D01*
X25420489Y-19778560D01*
X25416207Y-19776551D01*
X25410411Y-19775030D01*
X25402100Y-19773930D01*
X25390275Y-19773183D01*
X25373936Y-19772721D01*
X25352083Y-19772476D01*
X25323716Y-19772380D01*
X25295217Y-19772366D01*
X25177922Y-19772366D01*
X25176818Y-19894121D01*
X25175715Y-20015876D01*
X25046801Y-20015876D01*
X25046801Y-19657895D01*
X25239605Y-19657895D01*
X25285942Y-19657929D01*
G37*
G36*
X26043912Y-17010540D02*
G01*
X26083195Y-17010674D01*
X26115694Y-17010926D01*
X26142177Y-17011317D01*
X26163414Y-17011872D01*
X26180177Y-17012613D01*
X26193233Y-17013562D01*
X26203354Y-17014743D01*
X26211310Y-17016179D01*
X26214568Y-17016961D01*
X26249693Y-17030179D01*
X26280103Y-17050054D01*
X26305311Y-17076069D01*
X26324829Y-17107708D01*
X26338169Y-17144456D01*
X26339247Y-17148826D01*
X26341669Y-17164092D01*
X26343522Y-17185653D01*
X26344785Y-17211496D01*
X26345436Y-17239609D01*
X26345452Y-17267980D01*
X26344812Y-17294597D01*
X26343495Y-17317446D01*
X26341478Y-17334517D01*
X26341274Y-17335636D01*
X26331821Y-17367706D01*
X26316512Y-17398673D01*
X26296945Y-17425464D01*
X26291587Y-17431139D01*
X26278945Y-17442634D01*
X26265194Y-17452380D01*
X26248260Y-17461611D01*
X26226064Y-17471559D01*
X26217672Y-17475030D01*
X26214872Y-17476488D01*
X26213354Y-17478770D01*
X26213486Y-17482797D01*
X26215636Y-17489491D01*
X26220172Y-17499774D01*
X26227462Y-17514569D01*
X26237873Y-17534797D01*
X26251773Y-17561380D01*
X26253211Y-17564122D01*
X26268780Y-17593808D01*
X26285635Y-17625946D01*
X26302517Y-17658135D01*
X26318165Y-17687973D01*
X26331320Y-17713058D01*
X26332347Y-17715016D01*
X26366727Y-17780576D01*
X26294241Y-17780576D01*
X26221756Y-17780576D01*
X26143638Y-17630724D01*
X26065520Y-17480871D01*
X26001555Y-17480871D01*
X25937591Y-17480871D01*
X25937591Y-17630724D01*
X25937591Y-17780576D01*
X25870990Y-17780576D01*
X25804389Y-17780576D01*
X25804389Y-17395538D01*
X25804389Y-17368482D01*
X25937591Y-17368482D01*
X26051086Y-17368482D01*
X26085252Y-17368437D01*
X26112133Y-17368260D01*
X26132769Y-17367890D01*
X26148199Y-17367262D01*
X26159464Y-17366315D01*
X26167603Y-17364985D01*
X26173655Y-17363211D01*
X26178661Y-17360929D01*
X26178951Y-17360775D01*
X26189043Y-17354976D01*
X26196705Y-17349030D01*
X26202291Y-17341732D01*
X26206157Y-17331873D01*
X26208660Y-17318247D01*
X26210155Y-17299646D01*
X26210997Y-17274864D01*
X26211429Y-17250598D01*
X26211716Y-17218676D01*
X26211296Y-17193913D01*
X26209852Y-17175152D01*
X26207063Y-17161234D01*
X26202612Y-17151003D01*
X26196181Y-17143301D01*
X26187451Y-17136971D01*
X26178870Y-17132256D01*
X26173074Y-17129448D01*
X26167233Y-17127265D01*
X26160258Y-17125629D01*
X26151060Y-17124461D01*
X26138551Y-17123683D01*
X26121641Y-17123215D01*
X26099242Y-17122980D01*
X26070265Y-17122898D01*
X26049098Y-17122890D01*
X25937591Y-17122890D01*
X25937591Y-17245686D01*
X25937591Y-17368482D01*
X25804389Y-17368482D01*
X25804389Y-17245686D01*
X25804389Y-17010501D01*
X25997073Y-17010501D01*
X26043912Y-17010540D01*
G37*
G36*
X25245564Y-17011353D02*
G01*
X25291454Y-17011648D01*
X25329796Y-17011938D01*
X25361363Y-17012260D01*
X25386934Y-17012651D01*
X25407282Y-17013146D01*
X25423185Y-17013781D01*
X25435418Y-17014594D01*
X25444756Y-17015619D01*
X25451975Y-17016893D01*
X25457852Y-17018452D01*
X25463163Y-17020332D01*
X25466447Y-17021649D01*
X25500613Y-17039913D01*
X25529287Y-17064427D01*
X25552426Y-17095146D01*
X25567914Y-17126614D01*
X25571490Y-17136486D01*
X25574024Y-17146302D01*
X25575695Y-17157766D01*
X25576679Y-17172584D01*
X25577155Y-17192460D01*
X25577296Y-17216548D01*
X25577229Y-17242423D01*
X25576806Y-17261672D01*
X25575854Y-17275994D01*
X25574197Y-17287086D01*
X25571661Y-17296647D01*
X25568072Y-17306373D01*
X25553338Y-17333717D01*
X25532710Y-17359076D01*
X25512318Y-17376829D01*
X25496566Y-17388239D01*
X25521445Y-17403596D01*
X25549171Y-17425451D01*
X25570888Y-17453058D01*
X25584287Y-17480236D01*
X25588524Y-17493023D01*
X25591506Y-17507189D01*
X25593521Y-17524803D01*
X25594864Y-17547934D01*
X25595234Y-17557879D01*
X25595082Y-17599743D01*
X25591308Y-17635180D01*
X25583509Y-17665443D01*
X25571279Y-17691781D01*
X25554216Y-17715448D01*
X25539390Y-17730896D01*
X25509050Y-17754015D01*
X25474780Y-17770024D01*
X25450738Y-17776382D01*
X25441523Y-17777326D01*
X25424789Y-17778181D01*
X25401344Y-17778931D01*
X25371992Y-17779559D01*
X25337542Y-17780051D01*
X25298798Y-17780389D01*
X25256567Y-17780559D01*
X25237711Y-17780576D01*
X25046801Y-17780576D01*
X25046801Y-17557185D01*
X25046801Y-17451733D01*
X25175841Y-17451733D01*
X25175841Y-17557185D01*
X25175946Y-17586013D01*
X25176242Y-17612055D01*
X25176700Y-17634163D01*
X25177290Y-17651192D01*
X25177983Y-17661994D01*
X25178616Y-17665412D01*
X25183671Y-17666404D01*
X25195733Y-17667160D01*
X25213484Y-17667689D01*
X25235610Y-17668001D01*
X25260795Y-17668105D01*
X25287722Y-17668012D01*
X25315077Y-17667731D01*
X25341543Y-17667272D01*
X25365805Y-17666645D01*
X25386547Y-17665859D01*
X25402454Y-17664925D01*
X25412209Y-17663852D01*
X25413107Y-17663669D01*
X25426984Y-17658954D01*
X25438909Y-17652412D01*
X25441600Y-17650242D01*
X25449353Y-17642269D01*
X25454995Y-17634026D01*
X25458853Y-17624045D01*
X25461257Y-17610863D01*
X25462534Y-17593012D01*
X25463014Y-17569029D01*
X25463058Y-17554538D01*
X25462979Y-17529839D01*
X25462619Y-17511945D01*
X25461795Y-17499336D01*
X25460321Y-17490495D01*
X25458013Y-17483900D01*
X25454686Y-17478034D01*
X25453567Y-17476344D01*
X25448875Y-17469674D01*
X25444130Y-17464341D01*
X25438393Y-17460194D01*
X25430725Y-17457083D01*
X25420186Y-17454858D01*
X25405837Y-17453370D01*
X25386740Y-17452470D01*
X25361954Y-17452006D01*
X25330542Y-17451830D01*
X25299677Y-17451794D01*
X25175841Y-17451733D01*
X25046801Y-17451733D01*
X25046801Y-17395350D01*
X25046801Y-17335181D01*
X25175698Y-17335181D01*
X25288292Y-17335181D01*
X25324195Y-17335087D01*
X25352704Y-17334777D01*
X25374748Y-17334205D01*
X25391255Y-17333329D01*
X25403155Y-17332104D01*
X25411377Y-17330487D01*
X25415231Y-17329188D01*
X25426123Y-17323588D01*
X25434199Y-17316361D01*
X25439859Y-17306275D01*
X25443500Y-17292103D01*
X25445522Y-17272616D01*
X25446324Y-17246584D01*
X25446392Y-17233133D01*
X25446062Y-17203949D01*
X25444766Y-17181766D01*
X25442069Y-17165274D01*
X25437535Y-17153166D01*
X25430730Y-17144134D01*
X25421219Y-17136869D01*
X25412821Y-17132189D01*
X25406965Y-17129330D01*
X25401188Y-17127129D01*
X25394382Y-17125514D01*
X25385439Y-17124411D01*
X25373248Y-17123747D01*
X25356700Y-17123451D01*
X25334687Y-17123448D01*
X25306098Y-17123666D01*
X25286171Y-17123864D01*
X25177922Y-17124971D01*
X25176810Y-17230076D01*
X25175698Y-17335181D01*
X25046801Y-17335181D01*
X25046801Y-17010124D01*
X25245564Y-17011353D01*
G37*
G36*
X20903701Y-17298075D02*
G01*
X20922278Y-17310184D01*
X20934261Y-17325969D01*
X20940523Y-17346801D01*
X20941689Y-17357898D01*
X20942027Y-17373638D01*
X20940188Y-17384650D01*
X20935445Y-17394407D01*
X20933407Y-17397521D01*
X20923162Y-17409687D01*
X20911044Y-17420395D01*
X20909533Y-17421455D01*
X20895488Y-17430920D01*
X20604723Y-17430920D01*
X20556355Y-17430964D01*
X20510503Y-17431091D01*
X20467835Y-17431293D01*
X20429018Y-17431563D01*
X20394717Y-17431894D01*
X20365600Y-17432280D01*
X20342335Y-17432712D01*
X20325587Y-17433184D01*
X20316023Y-17433688D01*
X20313959Y-17434062D01*
X20316824Y-17437501D01*
X20325067Y-17446274D01*
X20338163Y-17459846D01*
X20355585Y-17477684D01*
X20376809Y-17499251D01*
X20401308Y-17524013D01*
X20428556Y-17551435D01*
X20458028Y-17580983D01*
X20480743Y-17603686D01*
X20511856Y-17634872D01*
X20541365Y-17664700D01*
X20568708Y-17692582D01*
X20593321Y-17717935D01*
X20614641Y-17740172D01*
X20632108Y-17758708D01*
X20645157Y-17772958D01*
X20653226Y-17782337D01*
X20655571Y-17785613D01*
X20662342Y-17806648D01*
X20661773Y-17827618D01*
X20654747Y-17847158D01*
X20642145Y-17863902D01*
X20624851Y-17876484D01*
X20603747Y-17883540D01*
X20591604Y-17884572D01*
X20576973Y-17883350D01*
X20563946Y-17880199D01*
X20560385Y-17878666D01*
X20555681Y-17874808D01*
X20545593Y-17865517D01*
X20530608Y-17851268D01*
X20511207Y-17832534D01*
X20487876Y-17809788D01*
X20461099Y-17783505D01*
X20431360Y-17754159D01*
X20399143Y-17722223D01*
X20364932Y-17688171D01*
X20329212Y-17652476D01*
X20328543Y-17651806D01*
X20107941Y-17430920D01*
X20018417Y-17430920D01*
X19928892Y-17430920D01*
X19708291Y-17651950D01*
X19670582Y-17689631D01*
X19634875Y-17725116D01*
X19601610Y-17757977D01*
X19571224Y-17787792D01*
X19544156Y-17814133D01*
X19520843Y-17836578D01*
X19501725Y-17854701D01*
X19487238Y-17868077D01*
X19477822Y-17876281D01*
X19474294Y-17878810D01*
X19454199Y-17883869D01*
X19432333Y-17883541D01*
X19412623Y-17877939D01*
X19410617Y-17876933D01*
X19392706Y-17862952D01*
X19380349Y-17843856D01*
X19374310Y-17821336D01*
X19375129Y-17798267D01*
X19376299Y-17794378D01*
X19378801Y-17789562D01*
X19383074Y-17783346D01*
X19389558Y-17775258D01*
X19398692Y-17764826D01*
X19410915Y-17751578D01*
X19426667Y-17735040D01*
X19446387Y-17714742D01*
X19470515Y-17690209D01*
X19499491Y-17660971D01*
X19533752Y-17626555D01*
X19550420Y-17609845D01*
X19581689Y-17578460D01*
X19611133Y-17548809D01*
X19638236Y-17521417D01*
X19662484Y-17496810D01*
X19683360Y-17475514D01*
X19700349Y-17458054D01*
X19712935Y-17444956D01*
X19720604Y-17436746D01*
X19722874Y-17433976D01*
X19718823Y-17433469D01*
X19707112Y-17432987D01*
X19688408Y-17432539D01*
X19663376Y-17432132D01*
X19632682Y-17431771D01*
X19596993Y-17431465D01*
X19556973Y-17431221D01*
X19513290Y-17431044D01*
X19466608Y-17430943D01*
X19431288Y-17430920D01*
X19373674Y-17430927D01*
X19323790Y-17430919D01*
X19281040Y-17430848D01*
X19244826Y-17430671D01*
X19214555Y-17430340D01*
X19189628Y-17429810D01*
X19169452Y-17429036D01*
X19153429Y-17427971D01*
X19140964Y-17426570D01*
X19131462Y-17424787D01*
X19124325Y-17422577D01*
X19118959Y-17419894D01*
X19114767Y-17416691D01*
X19111153Y-17412924D01*
X19107522Y-17408547D01*
X19105338Y-17405905D01*
X19093093Y-17385617D01*
X19088226Y-17363946D01*
X19090391Y-17342460D01*
X19099240Y-17322724D01*
X19114427Y-17306306D01*
X19129381Y-17297286D01*
X19131559Y-17296398D01*
X19134244Y-17295580D01*
X19137776Y-17294830D01*
X19142494Y-17294145D01*
X19148735Y-17293522D01*
X19156838Y-17292958D01*
X19167143Y-17292450D01*
X19179987Y-17291995D01*
X19195710Y-17291590D01*
X19214649Y-17291232D01*
X19237144Y-17290917D01*
X19263533Y-17290644D01*
X19294155Y-17290409D01*
X19329348Y-17290209D01*
X19369451Y-17290042D01*
X19414803Y-17289903D01*
X19465743Y-17289790D01*
X19522608Y-17289701D01*
X19585738Y-17289632D01*
X19655471Y-17289580D01*
X19732145Y-17289543D01*
X19816100Y-17289516D01*
X19907675Y-17289498D01*
X20007206Y-17289485D01*
X20016062Y-17289484D01*
X20885765Y-17289393D01*
X20903701Y-17298075D01*
G37*
G36*
X26118735Y-19657931D02*
G01*
X26149046Y-19658076D01*
X26173099Y-19658382D01*
X26191925Y-19658903D01*
X26206558Y-19659693D01*
X26218030Y-19660805D01*
X26227376Y-19662293D01*
X26235627Y-19664210D01*
X26242717Y-19666269D01*
X26277004Y-19681083D01*
X26307311Y-19702663D01*
X26332517Y-19729977D01*
X26351500Y-19761996D01*
X26354443Y-19768854D01*
X26364254Y-19793179D01*
X26365459Y-20030249D01*
X26365671Y-20088560D01*
X26365683Y-20139868D01*
X26365498Y-20183969D01*
X26365116Y-20220658D01*
X26364542Y-20249732D01*
X26363777Y-20270986D01*
X26362824Y-20284217D01*
X26362315Y-20287594D01*
X26350538Y-20323642D01*
X26331896Y-20355372D01*
X26306964Y-20382198D01*
X26276316Y-20403537D01*
X26240528Y-20418805D01*
X26230247Y-20421761D01*
X26218670Y-20423595D01*
X26200137Y-20425111D01*
X26176014Y-20426309D01*
X26147664Y-20427186D01*
X26116451Y-20427740D01*
X26083740Y-20427971D01*
X26050895Y-20427875D01*
X26019279Y-20427451D01*
X25990258Y-20426697D01*
X25965194Y-20425612D01*
X25945453Y-20424193D01*
X25932398Y-20422438D01*
X25931174Y-20422164D01*
X25894382Y-20409292D01*
X25862702Y-20389983D01*
X25836544Y-20364619D01*
X25816314Y-20333584D01*
X25804049Y-20302917D01*
X25802302Y-20296861D01*
X25800823Y-20290660D01*
X25799595Y-20283610D01*
X25798599Y-20275009D01*
X25797817Y-20264155D01*
X25797231Y-20250345D01*
X25796821Y-20232876D01*
X25796570Y-20211046D01*
X25796459Y-20184151D01*
X25796469Y-20151490D01*
X25796583Y-20112359D01*
X25796781Y-20066056D01*
X25796906Y-20040116D01*
X25927184Y-20040116D01*
X25927200Y-20089716D01*
X25927262Y-20131676D01*
X25927391Y-20166683D01*
X25927607Y-20195423D01*
X25927933Y-20218581D01*
X25928388Y-20236844D01*
X25928994Y-20250897D01*
X25929771Y-20261426D01*
X25930742Y-20269118D01*
X25931926Y-20274657D01*
X25933344Y-20278730D01*
X25934555Y-20281201D01*
X25948387Y-20298152D01*
X25968154Y-20309280D01*
X25976199Y-20311726D01*
X25984086Y-20312648D01*
X25998948Y-20313406D01*
X26019433Y-20313969D01*
X26044191Y-20314307D01*
X26071873Y-20314389D01*
X26089525Y-20314301D01*
X26120980Y-20314020D01*
X26145252Y-20313675D01*
X26163484Y-20313162D01*
X26176818Y-20312377D01*
X26186396Y-20311215D01*
X26193360Y-20309571D01*
X26198854Y-20307342D01*
X26204019Y-20304423D01*
X26205137Y-20303732D01*
X26211729Y-20299641D01*
X26217279Y-20295775D01*
X26221882Y-20291418D01*
X26225631Y-20285857D01*
X26228622Y-20278375D01*
X26230949Y-20268258D01*
X26232706Y-20254792D01*
X26233987Y-20237260D01*
X26234888Y-20214948D01*
X26235502Y-20187141D01*
X26235924Y-20153124D01*
X26236248Y-20112182D01*
X26236554Y-20065827D01*
X26236863Y-20014015D01*
X26237029Y-19969846D01*
X26237017Y-19932639D01*
X26236793Y-19901711D01*
X26236324Y-19876381D01*
X26235575Y-19855968D01*
X26234514Y-19839791D01*
X26233106Y-19827166D01*
X26231316Y-19817414D01*
X26229113Y-19809853D01*
X26226461Y-19803800D01*
X26223327Y-19798575D01*
X26223296Y-19798529D01*
X26218017Y-19791138D01*
X26212584Y-19785287D01*
X26206003Y-19780797D01*
X26197277Y-19777487D01*
X26185412Y-19775179D01*
X26169413Y-19773693D01*
X26148286Y-19772849D01*
X26121034Y-19772467D01*
X26086663Y-19772367D01*
X26078380Y-19772366D01*
X26044979Y-19772395D01*
X26018873Y-19772531D01*
X25999030Y-19772847D01*
X25984418Y-19773414D01*
X25974006Y-19774304D01*
X25966763Y-19775591D01*
X25961659Y-19777345D01*
X25957661Y-19779640D01*
X25955841Y-19780948D01*
X25944730Y-19790862D01*
X25935767Y-19801025D01*
X25933908Y-19803704D01*
X25932339Y-19806805D01*
X25931035Y-19811012D01*
X25929972Y-19817010D01*
X25929125Y-19825480D01*
X25928470Y-19837108D01*
X25927981Y-19852576D01*
X25927635Y-19872568D01*
X25927407Y-19897768D01*
X25927273Y-19928858D01*
X25927207Y-19966522D01*
X25927186Y-20011444D01*
X25927184Y-20040116D01*
X25796906Y-20040116D01*
X25796944Y-20032294D01*
X25798145Y-19789016D01*
X25811317Y-19761212D01*
X25831055Y-19727840D01*
X25855712Y-19701074D01*
X25885786Y-19680484D01*
X25921460Y-19665737D01*
X25929250Y-19663539D01*
X25937625Y-19661790D01*
X25947603Y-19660438D01*
X25960200Y-19659436D01*
X25976433Y-19658731D01*
X25997320Y-19658275D01*
X26023877Y-19658018D01*
X26057122Y-19657910D01*
X26081132Y-19657895D01*
X26118735Y-19657931D01*
G37*
G36*
X27684724Y-17012619D02*
G01*
X27719906Y-17012826D01*
X27748653Y-17013347D01*
X27771911Y-17014324D01*
X27790625Y-17015902D01*
X27805741Y-17018224D01*
X27818204Y-17021433D01*
X27828959Y-17025674D01*
X27838952Y-17031088D01*
X27849127Y-17037821D01*
X27859915Y-17045635D01*
X27885287Y-17068721D01*
X27905827Y-17097403D01*
X27919941Y-17126614D01*
X27921975Y-17131783D01*
X27923697Y-17136893D01*
X27925138Y-17142654D01*
X27926328Y-17149781D01*
X27927296Y-17158986D01*
X27928072Y-17170981D01*
X27928687Y-17186480D01*
X27929170Y-17206195D01*
X27929551Y-17230838D01*
X27929860Y-17261122D01*
X27930127Y-17297760D01*
X27930382Y-17341464D01*
X27930587Y-17380169D01*
X27930793Y-17435618D01*
X27930801Y-17485056D01*
X27930615Y-17528127D01*
X27930240Y-17564476D01*
X27929680Y-17593747D01*
X27928939Y-17615585D01*
X27928023Y-17629634D01*
X27927496Y-17633646D01*
X27916863Y-17669385D01*
X27899319Y-17701683D01*
X27875798Y-17729599D01*
X27847230Y-17752189D01*
X27814550Y-17768512D01*
X27786244Y-17776392D01*
X27776323Y-17777459D01*
X27759366Y-17778410D01*
X27736658Y-17779208D01*
X27709488Y-17779820D01*
X27679144Y-17780210D01*
X27646913Y-17780343D01*
X27640554Y-17780336D01*
X27603269Y-17780190D01*
X27573231Y-17779878D01*
X27549365Y-17779346D01*
X27530594Y-17778543D01*
X27515841Y-17777416D01*
X27504029Y-17775912D01*
X27494083Y-17773978D01*
X27490017Y-17772977D01*
X27455134Y-17759755D01*
X27424621Y-17739825D01*
X27399128Y-17713929D01*
X27379306Y-17682806D01*
X27365806Y-17647197D01*
X27361405Y-17626561D01*
X27360436Y-17616101D01*
X27359592Y-17598352D01*
X27358875Y-17574348D01*
X27358284Y-17545124D01*
X27357820Y-17511713D01*
X27357483Y-17475151D01*
X27357274Y-17436473D01*
X27357193Y-17396712D01*
X27357194Y-17395812D01*
X27490236Y-17395812D01*
X27490255Y-17444627D01*
X27490324Y-17485817D01*
X27490465Y-17520082D01*
X27490699Y-17548122D01*
X27491049Y-17570636D01*
X27491535Y-17588325D01*
X27492180Y-17601888D01*
X27493006Y-17612026D01*
X27494033Y-17619438D01*
X27495284Y-17624825D01*
X27496781Y-17628886D01*
X27497520Y-17630428D01*
X27511271Y-17648606D01*
X27530514Y-17660838D01*
X27540691Y-17664178D01*
X27548808Y-17665141D01*
X27563870Y-17665934D01*
X27584494Y-17666524D01*
X27609303Y-17666878D01*
X27636915Y-17666962D01*
X27652569Y-17666883D01*
X27684286Y-17666567D01*
X27708836Y-17666128D01*
X27727377Y-17665479D01*
X27741068Y-17664530D01*
X27751067Y-17663195D01*
X27758531Y-17661385D01*
X27764619Y-17659012D01*
X27766207Y-17658248D01*
X27782078Y-17646077D01*
X27790142Y-17634479D01*
X27791917Y-17630683D01*
X27793413Y-17626362D01*
X27794653Y-17620814D01*
X27795662Y-17613335D01*
X27796464Y-17603222D01*
X27797082Y-17589772D01*
X27797539Y-17572283D01*
X27797861Y-17550051D01*
X27798070Y-17522373D01*
X27798190Y-17488546D01*
X27798245Y-17447868D01*
X27798259Y-17399634D01*
X27798259Y-17394599D01*
X27798266Y-17343357D01*
X27798228Y-17299773D01*
X27798060Y-17263180D01*
X27797677Y-17232912D01*
X27796994Y-17208301D01*
X27795925Y-17188680D01*
X27794384Y-17173383D01*
X27792287Y-17161743D01*
X27789548Y-17153093D01*
X27786082Y-17146765D01*
X27781803Y-17142093D01*
X27776626Y-17138411D01*
X27770465Y-17135050D01*
X27764651Y-17132084D01*
X27758754Y-17129169D01*
X27752983Y-17126932D01*
X27746215Y-17125299D01*
X27737327Y-17124194D01*
X27725196Y-17123543D01*
X27708699Y-17123269D01*
X27686712Y-17123299D01*
X27658114Y-17123557D01*
X27640082Y-17123758D01*
X27604347Y-17124252D01*
X27575944Y-17124988D01*
X27553881Y-17126210D01*
X27537163Y-17128160D01*
X27524797Y-17131082D01*
X27515791Y-17135219D01*
X27509152Y-17140815D01*
X27503886Y-17148113D01*
X27499000Y-17157356D01*
X27498466Y-17158455D01*
X27496652Y-17162505D01*
X27495125Y-17167008D01*
X27493861Y-17172677D01*
X27492836Y-17180225D01*
X27492024Y-17190366D01*
X27491400Y-17203813D01*
X27490940Y-17221278D01*
X27490620Y-17243476D01*
X27490414Y-17271119D01*
X27490298Y-17304921D01*
X27490247Y-17345595D01*
X27490236Y-17393855D01*
X27490236Y-17395812D01*
X27357194Y-17395812D01*
X27357196Y-17393855D01*
X27357241Y-17356904D01*
X27357417Y-17318083D01*
X27357723Y-17281284D01*
X27358158Y-17247541D01*
X27358724Y-17217889D01*
X27359420Y-17193362D01*
X27360247Y-17174995D01*
X27361206Y-17163822D01*
X27361222Y-17163706D01*
X27370643Y-17126165D01*
X27387192Y-17092422D01*
X27410306Y-17063245D01*
X27439419Y-17039401D01*
X27462214Y-17026689D01*
X27492311Y-17012582D01*
X27642163Y-17012582D01*
X27684724Y-17012619D01*
G37*
G36*
X27713336Y-18334588D02*
G01*
X27744878Y-18334830D01*
X27765437Y-18335041D01*
X27800784Y-18335448D01*
X27828879Y-18335880D01*
X27850794Y-18336417D01*
X27867600Y-18337138D01*
X27880372Y-18338125D01*
X27890180Y-18339457D01*
X27898098Y-18341215D01*
X27905197Y-18343478D01*
X27911698Y-18345984D01*
X27937687Y-18359353D01*
X27962657Y-18377406D01*
X27983550Y-18397806D01*
X27989705Y-18405578D01*
X28002795Y-18426575D01*
X28012062Y-18448959D01*
X28018083Y-18474736D01*
X28021433Y-18505914D01*
X28022077Y-18518392D01*
X28024064Y-18567302D01*
X27959609Y-18567302D01*
X27895153Y-18567302D01*
X27893069Y-18530742D01*
X27890402Y-18504588D01*
X27885478Y-18485036D01*
X27877788Y-18470547D01*
X27870490Y-18462598D01*
X27862872Y-18457117D01*
X27853200Y-18452967D01*
X27840384Y-18450014D01*
X27823334Y-18448122D01*
X27800960Y-18447159D01*
X27772173Y-18446988D01*
X27746227Y-18447292D01*
X27717763Y-18447808D01*
X27696362Y-18448379D01*
X27680763Y-18449150D01*
X27669705Y-18450265D01*
X27661928Y-18451867D01*
X27656169Y-18454102D01*
X27651168Y-18457114D01*
X27649385Y-18458362D01*
X27640084Y-18465758D01*
X27633289Y-18473648D01*
X27628617Y-18483450D01*
X27625684Y-18496579D01*
X27624104Y-18514452D01*
X27623493Y-18538483D01*
X27623431Y-18553992D01*
X27623518Y-18578276D01*
X27623907Y-18595794D01*
X27624791Y-18608104D01*
X27626364Y-18616763D01*
X27628819Y-18623330D01*
X27632349Y-18629363D01*
X27632880Y-18630165D01*
X27639124Y-18638761D01*
X27645719Y-18645453D01*
X27653756Y-18650477D01*
X27664326Y-18654070D01*
X27678516Y-18656469D01*
X27697418Y-18657909D01*
X27722122Y-18658628D01*
X27753716Y-18658861D01*
X27765235Y-18658872D01*
X27794083Y-18659078D01*
X27821669Y-18659649D01*
X27846373Y-18660524D01*
X27866571Y-18661641D01*
X27880644Y-18662936D01*
X27883868Y-18663429D01*
X27920568Y-18674174D01*
X27952982Y-18691718D01*
X27980472Y-18715375D01*
X28002397Y-18744461D01*
X28018121Y-18778289D01*
X28027002Y-18816175D01*
X28027116Y-18817056D01*
X28031093Y-18864865D01*
X28030629Y-18909869D01*
X28025844Y-18950845D01*
X28016859Y-18986571D01*
X28008447Y-19007167D01*
X27988534Y-19038543D01*
X27962644Y-19064392D01*
X27931443Y-19084213D01*
X27895593Y-19097501D01*
X27886509Y-19099634D01*
X27873924Y-19101276D01*
X27854595Y-19102539D01*
X27829978Y-19103432D01*
X27801529Y-19103966D01*
X27770704Y-19104149D01*
X27738959Y-19103992D01*
X27707750Y-19103504D01*
X27678532Y-19102696D01*
X27652762Y-19101578D01*
X27631896Y-19100158D01*
X27617389Y-19098448D01*
X27614108Y-19097789D01*
X27582268Y-19087298D01*
X27555027Y-19071807D01*
X27537100Y-19057149D01*
X27515604Y-19034019D01*
X27499587Y-19008639D01*
X27488453Y-18979559D01*
X27481607Y-18945332D01*
X27478954Y-18915917D01*
X27476494Y-18871169D01*
X27543317Y-18871169D01*
X27610140Y-18871169D01*
X27611583Y-18910418D01*
X27613249Y-18933939D01*
X27616826Y-18951094D01*
X27623198Y-18963777D01*
X27633247Y-18973883D01*
X27644679Y-18981477D01*
X27650624Y-18984491D01*
X27657659Y-18986743D01*
X27667128Y-18988376D01*
X27680370Y-18989536D01*
X27698727Y-18990367D01*
X27723541Y-18991014D01*
X27735363Y-18991250D01*
X27771038Y-18991708D01*
X27799488Y-18991513D01*
X27821794Y-18990556D01*
X27839040Y-18988731D01*
X27852306Y-18985930D01*
X27862676Y-18982047D01*
X27869854Y-18977927D01*
X27879063Y-18970954D01*
X27885850Y-18963324D01*
X27890575Y-18953685D01*
X27893597Y-18940682D01*
X27895279Y-18922963D01*
X27895979Y-18899174D01*
X27896080Y-18879494D01*
X27896009Y-18854780D01*
X27895671Y-18836892D01*
X27894881Y-18824329D01*
X27893452Y-18815594D01*
X27891199Y-18809186D01*
X27887935Y-18803606D01*
X27886386Y-18801383D01*
X27879989Y-18793089D01*
X27873370Y-18786772D01*
X27865332Y-18782165D01*
X27854679Y-18779001D01*
X27840212Y-18777010D01*
X27820736Y-18775925D01*
X27795052Y-18775477D01*
X27770369Y-18775399D01*
X27742151Y-18775176D01*
X27714148Y-18774578D01*
X27688429Y-18773676D01*
X27667061Y-18772541D01*
X27653017Y-18771351D01*
X27613938Y-18763112D01*
X27579115Y-18748181D01*
X27549152Y-18727092D01*
X27524654Y-18700379D01*
X27506228Y-18668577D01*
X27494478Y-18632222D01*
X27494252Y-18631146D01*
X27492254Y-18615682D01*
X27491074Y-18593153D01*
X27490753Y-18564784D01*
X27491143Y-18538656D01*
X27491970Y-18511504D01*
X27493024Y-18491032D01*
X27494499Y-18475595D01*
X27496586Y-18463547D01*
X27499479Y-18453244D01*
X27501929Y-18446587D01*
X27519363Y-18413511D01*
X27543262Y-18384930D01*
X27572535Y-18361850D01*
X27606087Y-18345275D01*
X27615498Y-18342118D01*
X27624056Y-18339687D01*
X27632574Y-18337795D01*
X27642160Y-18336390D01*
X27653921Y-18335419D01*
X27668966Y-18334829D01*
X27688401Y-18334570D01*
X27713336Y-18334588D01*
G37*
G36*
X23763213Y-18468944D02*
G01*
X23788155Y-18479261D01*
X23808531Y-18496519D01*
X23824538Y-18520844D01*
X23826831Y-18525676D01*
X23828427Y-18529396D01*
X23829809Y-18533405D01*
X23830994Y-18538296D01*
X23831995Y-18544663D01*
X23832830Y-18553098D01*
X23833513Y-18564194D01*
X23834060Y-18578546D01*
X23834487Y-18596745D01*
X23834809Y-18619385D01*
X23835042Y-18647059D01*
X23835201Y-18680359D01*
X23835302Y-18719881D01*
X23835360Y-18766215D01*
X23835391Y-18819956D01*
X23835402Y-18852827D01*
X23835493Y-19161246D01*
X23893934Y-19170462D01*
X23982777Y-19188596D01*
X24068785Y-19214333D01*
X24151562Y-19247315D01*
X24230711Y-19287185D01*
X24305838Y-19333586D01*
X24376546Y-19386161D01*
X24442441Y-19444553D01*
X24503127Y-19508405D01*
X24558208Y-19577360D01*
X24607289Y-19651060D01*
X24649974Y-19729149D01*
X24685867Y-19811270D01*
X24714573Y-19897065D01*
X24719774Y-19915977D01*
X24733251Y-19972357D01*
X24742867Y-20026051D01*
X24749004Y-20080043D01*
X24752043Y-20137318D01*
X24752535Y-20171972D01*
X24751803Y-20224741D01*
X24749389Y-20272198D01*
X24745367Y-20313817D01*
X24739810Y-20349070D01*
X24732795Y-20377429D01*
X24724395Y-20398367D01*
X24719427Y-20406249D01*
X24700527Y-20424839D01*
X24678287Y-20436689D01*
X24654022Y-20441960D01*
X24629049Y-20440812D01*
X24604685Y-20433406D01*
X24582245Y-20419903D01*
X24563047Y-20400463D01*
X24553631Y-20386014D01*
X24548298Y-20374920D01*
X24544464Y-20363055D01*
X24542075Y-20349232D01*
X24541074Y-20332261D01*
X24541408Y-20310954D01*
X24543022Y-20284121D01*
X24545861Y-20250574D01*
X24546896Y-20239528D01*
X24549934Y-20166485D01*
X24545584Y-20091625D01*
X24534089Y-20016465D01*
X24515689Y-19942524D01*
X24490624Y-19871319D01*
X24487121Y-19862893D01*
X24451297Y-19788629D01*
X24408764Y-19718979D01*
X24359935Y-19654327D01*
X24305226Y-19595055D01*
X24245050Y-19541543D01*
X24179823Y-19494176D01*
X24109957Y-19453335D01*
X24035868Y-19419403D01*
X23987394Y-19401805D01*
X23955229Y-19392269D01*
X23917999Y-19382899D01*
X23878940Y-19374463D01*
X23849021Y-19368980D01*
X23835493Y-19366723D01*
X23835493Y-19742514D01*
X23835493Y-20118306D01*
X23824711Y-20139942D01*
X23808417Y-20164106D01*
X23787412Y-20182014D01*
X23762914Y-20193252D01*
X23736143Y-20197407D01*
X23708319Y-20194063D01*
X23687665Y-20186469D01*
X23683132Y-20183359D01*
X23675828Y-20176958D01*
X23665494Y-20166988D01*
X23651869Y-20153173D01*
X23634695Y-20135235D01*
X23613713Y-20112897D01*
X23588664Y-20085882D01*
X23559288Y-20053912D01*
X23525326Y-20016711D01*
X23486519Y-19974000D01*
X23442607Y-19925504D01*
X23413406Y-19893185D01*
X23375967Y-19851761D01*
X23340092Y-19812142D01*
X23306175Y-19774761D01*
X23274611Y-19740049D01*
X23245794Y-19708437D01*
X23220119Y-19680356D01*
X23197980Y-19656238D01*
X23179772Y-19636515D01*
X23165888Y-19621616D01*
X23156724Y-19611974D01*
X23152674Y-19608020D01*
X23152528Y-19607944D01*
X23147845Y-19611025D01*
X23139140Y-19619439D01*
X23127496Y-19631944D01*
X23113998Y-19647297D01*
X23099728Y-19664255D01*
X23085770Y-19681576D01*
X23073206Y-19698016D01*
X23069183Y-19703551D01*
X23027811Y-19768028D01*
X22992561Y-19836726D01*
X22963728Y-19908600D01*
X22941609Y-19982608D01*
X22926502Y-20057706D01*
X22918704Y-20132850D01*
X22918510Y-20206996D01*
X22919922Y-20228193D01*
X22922751Y-20262617D01*
X22924895Y-20289821D01*
X22926371Y-20310884D01*
X22927197Y-20326881D01*
X22927390Y-20338889D01*
X22926967Y-20347985D01*
X22925947Y-20355245D01*
X22924347Y-20361746D01*
X22922216Y-20368469D01*
X22910188Y-20393618D01*
X22893245Y-20413793D01*
X22872641Y-20428752D01*
X22849629Y-20438251D01*
X22825463Y-20442047D01*
X22801397Y-20439896D01*
X22778684Y-20431557D01*
X22758578Y-20416785D01*
X22746736Y-20402500D01*
X22736898Y-20382476D01*
X22728932Y-20354362D01*
X22722842Y-20318183D01*
X22718631Y-20273962D01*
X22716303Y-20221722D01*
X22715793Y-20179093D01*
X22717237Y-20113128D01*
X22721877Y-20052553D01*
X22730097Y-19994923D01*
X22742275Y-19937793D01*
X22758793Y-19878718D01*
X22766167Y-19855617D01*
X22793897Y-19781495D01*
X22827646Y-19709953D01*
X22867923Y-19640141D01*
X22915235Y-19571209D01*
X22970091Y-19502308D01*
X22990381Y-19478993D01*
X23315924Y-19478993D01*
X23318821Y-19482587D01*
X23326671Y-19491644D01*
X23338867Y-19505489D01*
X23354802Y-19523446D01*
X23373867Y-19544840D01*
X23395455Y-19568995D01*
X23418958Y-19595236D01*
X23443768Y-19622886D01*
X23469278Y-19651272D01*
X23494880Y-19679716D01*
X23519966Y-19707543D01*
X23543929Y-19734079D01*
X23566161Y-19758646D01*
X23586053Y-19780570D01*
X23602999Y-19799176D01*
X23616391Y-19813787D01*
X23625620Y-19823728D01*
X23630080Y-19828323D01*
X23630390Y-19828560D01*
X23630602Y-19824522D01*
X23630801Y-19812907D01*
X23630983Y-19794463D01*
X23631145Y-19769937D01*
X23631283Y-19740078D01*
X23631394Y-19705633D01*
X23631474Y-19667351D01*
X23631518Y-19625979D01*
X23631527Y-19597458D01*
X23631527Y-19366357D01*
X23622161Y-19368297D01*
X23614361Y-19369868D01*
X23600501Y-19372618D01*
X23582690Y-19376129D01*
X23567007Y-19379207D01*
X23542009Y-19384697D01*
X23513978Y-19391775D01*
X23487521Y-19399247D01*
X23477512Y-19402370D01*
X23460456Y-19408441D01*
X23440251Y-19416476D01*
X23418161Y-19425875D01*
X23395450Y-19436038D01*
X23373380Y-19446367D01*
X23353216Y-19456262D01*
X23336222Y-19465124D01*
X23323661Y-19472354D01*
X23316797Y-19477352D01*
X23315924Y-19478993D01*
X22990381Y-19478993D01*
X22993191Y-19475764D01*
X23014622Y-19451692D01*
X22821022Y-19237398D01*
X22788126Y-19200985D01*
X22756476Y-19165952D01*
X22726577Y-19132857D01*
X22698935Y-19102260D01*
X22674054Y-19074720D01*
X22652442Y-19050797D01*
X22634601Y-19031050D01*
X22621039Y-19016039D01*
X22612260Y-19006322D01*
X22609565Y-19003338D01*
X22591708Y-18983573D01*
X22386997Y-19214788D01*
X22182287Y-19446003D01*
X22206555Y-19473084D01*
X22230996Y-19500617D01*
X22251003Y-19523842D01*
X22267916Y-19544446D01*
X22283078Y-19564116D01*
X22297832Y-19584537D01*
X22313520Y-19607396D01*
X22313889Y-19607944D01*
X22361855Y-19686375D01*
X22402416Y-19768023D01*
X22435374Y-19852354D01*
X22460533Y-19938830D01*
X22477697Y-20026917D01*
X22482940Y-20068663D01*
X22484948Y-20096096D01*
X22486057Y-20129287D01*
X22486316Y-20166233D01*
X22485772Y-20204933D01*
X22484474Y-20243387D01*
X22482470Y-20279592D01*
X22479808Y-20311547D01*
X22476537Y-20337252D01*
X22476441Y-20337841D01*
X22470170Y-20368094D01*
X22462108Y-20391429D01*
X22451489Y-20409190D01*
X22437549Y-20422721D01*
X22423086Y-20431612D01*
X22397273Y-20440482D01*
X22370948Y-20441796D01*
X22345400Y-20436125D01*
X22321918Y-20424040D01*
X22301793Y-20406112D01*
X22286314Y-20382913D01*
X22280343Y-20368399D01*
X22278303Y-20362212D01*
X22276751Y-20356681D01*
X22275706Y-20350759D01*
X22275183Y-20343400D01*
X22275200Y-20333559D01*
X22275772Y-20320187D01*
X22276917Y-20302241D01*
X22278651Y-20278672D01*
X22280991Y-20248435D01*
X22282575Y-20228167D01*
X22284340Y-20160115D01*
X22279494Y-20089141D01*
X22268287Y-20017035D01*
X22250971Y-19945589D01*
X22236666Y-19900656D01*
X22218951Y-19856091D01*
X22196707Y-19809729D01*
X22170997Y-19763289D01*
X22142887Y-19718487D01*
X22113439Y-19677041D01*
X22083719Y-19640669D01*
X22060510Y-19616422D01*
X22045442Y-19602007D01*
X22033647Y-19614341D01*
X22029100Y-19619335D01*
X22019487Y-19630081D01*
X22005245Y-19646085D01*
X21986813Y-19666852D01*
X21964626Y-19691889D01*
X21939124Y-19720701D01*
X21910744Y-19752793D01*
X21879922Y-19787672D01*
X21847098Y-19824844D01*
X21812708Y-19863814D01*
X21797908Y-19880592D01*
X21753825Y-19930570D01*
X21714892Y-19974684D01*
X21680756Y-20013315D01*
X21651061Y-20046845D01*
X21625455Y-20075655D01*
X21603583Y-20100127D01*
X21585090Y-20120641D01*
X21569624Y-20137580D01*
X21556828Y-20151324D01*
X21546351Y-20162256D01*
X21537836Y-20170757D01*
X21530931Y-20177207D01*
X21525281Y-20181990D01*
X21520532Y-20185485D01*
X21516329Y-20188074D01*
X21512320Y-20190139D01*
X21509157Y-20191605D01*
X21483078Y-20199173D01*
X21456531Y-20199273D01*
X21430941Y-20192548D01*
X21407731Y-20179637D01*
X21388324Y-20161182D01*
X21374146Y-20137823D01*
X21370943Y-20129411D01*
X21368130Y-20112992D01*
X21368239Y-20092777D01*
X21370973Y-20072585D01*
X21376037Y-20056234D01*
X21376729Y-20054822D01*
X21380383Y-20049937D01*
X21389163Y-20039290D01*
X21402666Y-20023345D01*
X21420490Y-20002566D01*
X21442232Y-19977415D01*
X21467490Y-19948356D01*
X21495860Y-19915851D01*
X21526940Y-19880365D01*
X21560328Y-19842359D01*
X21595621Y-19802299D01*
X21632416Y-19760646D01*
X21632997Y-19759989D01*
X21669587Y-19718551D01*
X21704511Y-19678857D01*
X21737384Y-19641351D01*
X21767822Y-19606478D01*
X21795440Y-19574685D01*
X21819853Y-19546415D01*
X21840678Y-19522116D01*
X21857529Y-19502231D01*
X21870023Y-19487207D01*
X21877773Y-19477488D01*
X21880397Y-19473520D01*
X21880385Y-19473478D01*
X21875155Y-19469447D01*
X21863597Y-19462957D01*
X21847114Y-19454644D01*
X21827107Y-19445147D01*
X21804976Y-19435102D01*
X21782122Y-19425146D01*
X21759948Y-19415917D01*
X21739853Y-19408051D01*
X21724505Y-19402598D01*
X21653307Y-19382569D01*
X21581923Y-19369535D01*
X21508187Y-19363155D01*
X21469072Y-19362353D01*
X21386604Y-19366376D01*
X21306292Y-19378256D01*
X21228555Y-19397706D01*
X21153812Y-19424441D01*
X21082482Y-19458176D01*
X21014984Y-19498625D01*
X20951737Y-19545501D01*
X20893160Y-19598520D01*
X20839672Y-19657396D01*
X20791692Y-19721843D01*
X20749640Y-19791575D01*
X20713934Y-19866308D01*
X20707813Y-19881273D01*
X20695270Y-19916340D01*
X20683170Y-19956804D01*
X20672298Y-19999740D01*
X20663437Y-20042227D01*
X20661125Y-20055420D01*
X20657699Y-20082947D01*
X20655330Y-20116453D01*
X20654040Y-20153654D01*
X20653852Y-20192270D01*
X20654786Y-20230017D01*
X20656864Y-20264615D01*
X20658931Y-20285089D01*
X20661840Y-20313986D01*
X20662381Y-20336787D01*
X20660313Y-20355446D01*
X20655390Y-20371916D01*
X20647370Y-20388151D01*
X20645729Y-20390948D01*
X20630061Y-20410669D01*
X20609613Y-20427075D01*
X20586994Y-20438327D01*
X20573617Y-20441815D01*
X20547823Y-20442070D01*
X20522858Y-20435168D01*
X20500543Y-20422072D01*
X20482695Y-20403745D01*
X20474213Y-20389178D01*
X20467149Y-20368348D01*
X20461193Y-20340563D01*
X20456399Y-20307127D01*
X20452822Y-20269341D01*
X20450518Y-20228510D01*
X20449542Y-20185937D01*
X20449949Y-20142925D01*
X20451793Y-20100777D01*
X20455131Y-20060797D01*
X20459037Y-20030445D01*
X20473923Y-19951724D01*
X20493725Y-19876622D01*
X20510246Y-19827291D01*
X20545513Y-19743235D01*
X20587782Y-19663285D01*
X20636644Y-19587808D01*
X20691691Y-19517176D01*
X20752516Y-19451757D01*
X20818709Y-19391920D01*
X20889862Y-19338035D01*
X20965567Y-19290471D01*
X21045416Y-19249597D01*
X21129001Y-19215784D01*
X21215155Y-19189593D01*
X21251427Y-19180706D01*
X21283844Y-19173770D01*
X21314344Y-19168563D01*
X21344861Y-19164863D01*
X21377332Y-19162449D01*
X21413693Y-19161101D01*
X21455879Y-19160596D01*
X21469072Y-19160576D01*
X21510971Y-19160845D01*
X21546521Y-19161771D01*
X21577685Y-19163559D01*
X21606427Y-19166415D01*
X21634711Y-19170545D01*
X21664501Y-19176155D01*
X21697759Y-19183451D01*
X21706339Y-19185443D01*
X21753954Y-19198173D01*
X21803634Y-19214321D01*
X21853475Y-19233101D01*
X21901575Y-19253725D01*
X21946031Y-19275405D01*
X21984942Y-19297355D01*
X21999726Y-19306836D01*
X22010305Y-19312921D01*
X22018881Y-19316146D01*
X22020538Y-19316311D01*
X22024005Y-19313283D01*
X22032352Y-19304699D01*
X22045002Y-19291204D01*
X22061377Y-19273446D01*
X22080897Y-19252072D01*
X22102987Y-19227729D01*
X22127066Y-19201064D01*
X22152558Y-19172724D01*
X22178884Y-19143356D01*
X22205466Y-19113607D01*
X22231727Y-19084125D01*
X22257087Y-19055556D01*
X22280969Y-19028547D01*
X22302795Y-19003745D01*
X22321988Y-18981798D01*
X22337968Y-18963352D01*
X22350157Y-18949054D01*
X22357979Y-18939552D01*
X22360854Y-18935493D01*
X22360839Y-18935403D01*
X22356647Y-18935362D01*
X22344492Y-18935394D01*
X22324733Y-18935497D01*
X22297734Y-18935667D01*
X22263854Y-18935901D01*
X22223455Y-18936197D01*
X22176898Y-18936552D01*
X22124545Y-18936962D01*
X22066755Y-18937425D01*
X22003892Y-18937938D01*
X21936314Y-18938498D01*
X21864385Y-18939101D01*
X21788464Y-18939746D01*
X21708914Y-18940429D01*
X21626094Y-18941148D01*
X21540367Y-18941898D01*
X21452094Y-18942678D01*
X21366164Y-18943444D01*
X21258868Y-18944406D01*
X21159584Y-18945299D01*
X21067997Y-18946129D01*
X20983794Y-18946901D01*
X20906662Y-18947621D01*
X20836288Y-18948295D01*
X20772356Y-18948927D01*
X20714556Y-18949523D01*
X20662571Y-18950089D01*
X20616090Y-18950629D01*
X20574798Y-18951150D01*
X20538383Y-18951656D01*
X20506529Y-18952153D01*
X20478925Y-18952647D01*
X20455256Y-18953142D01*
X20435210Y-18953645D01*
X20418471Y-18954159D01*
X20404727Y-18954692D01*
X20393665Y-18955248D01*
X20384971Y-18955833D01*
X20378331Y-18956452D01*
X20373431Y-18957111D01*
X20369959Y-18957814D01*
X20367601Y-18958568D01*
X20366043Y-18959377D01*
X20364971Y-18960247D01*
X20364560Y-18960665D01*
X20360427Y-18965232D01*
X20351342Y-18975418D01*
X20337826Y-18990633D01*
X20320400Y-19010285D01*
X20299587Y-19033784D01*
X20275909Y-19060539D01*
X20249886Y-19089959D01*
X20222041Y-19121453D01*
X20192897Y-19154431D01*
X20162973Y-19188301D01*
X20132794Y-19222473D01*
X20102879Y-19256356D01*
X20073752Y-19289359D01*
X20045933Y-19320891D01*
X20019945Y-19350361D01*
X19996309Y-19377179D01*
X19975548Y-19400754D01*
X19958183Y-19420494D01*
X19944735Y-19435809D01*
X19935728Y-19446109D01*
X19931681Y-19450801D01*
X19931604Y-19450896D01*
X19929726Y-19454594D01*
X19930490Y-19459192D01*
X19934677Y-19465915D01*
X19943071Y-19475992D01*
X19956454Y-19490651D01*
X19958034Y-19492348D01*
X20011625Y-19555657D01*
X20060449Y-19625163D01*
X20103952Y-19699880D01*
X20141581Y-19778826D01*
X20172783Y-19861017D01*
X20182272Y-19890999D01*
X20195732Y-19940059D01*
X20205974Y-19987582D01*
X20213355Y-20035944D01*
X20218231Y-20087519D01*
X20220961Y-20144683D01*
X20221084Y-20149078D01*
X20221298Y-20214287D01*
X20218389Y-20274906D01*
X20212437Y-20329790D01*
X20205467Y-20369139D01*
X20196387Y-20393618D01*
X20181483Y-20413471D01*
X20162090Y-20428325D01*
X20139540Y-20437809D01*
X20115166Y-20441548D01*
X20090302Y-20439171D01*
X20066280Y-20430306D01*
X20044433Y-20414580D01*
X20044068Y-20414231D01*
X20028354Y-20396460D01*
X20017557Y-20377261D01*
X20011337Y-20355218D01*
X20009352Y-20328912D01*
X20011260Y-20296926D01*
X20012754Y-20284362D01*
X20015453Y-20256019D01*
X20017051Y-20222372D01*
X20017586Y-20185556D01*
X20017094Y-20147707D01*
X20015614Y-20110960D01*
X20013185Y-20077452D01*
X20009844Y-20049317D01*
X20008420Y-20040889D01*
X19989001Y-19958147D01*
X19962528Y-19879473D01*
X19929109Y-19805140D01*
X19888854Y-19735419D01*
X19881642Y-19724496D01*
X19868433Y-19705551D01*
X19853871Y-19685827D01*
X19838871Y-19666432D01*
X19824347Y-19648475D01*
X19811214Y-19633066D01*
X19800386Y-19621312D01*
X19792777Y-19614323D01*
X19789627Y-19612905D01*
X19786439Y-19616141D01*
X19778128Y-19625183D01*
X19765082Y-19639597D01*
X19747688Y-19658947D01*
X19726335Y-19682800D01*
X19701409Y-19710722D01*
X19673298Y-19742277D01*
X19642391Y-19777032D01*
X19609074Y-19814553D01*
X19573736Y-19854403D01*
X19536764Y-19896151D01*
X19527944Y-19906117D01*
X19488278Y-19950861D01*
X19450454Y-19993359D01*
X19414838Y-20033207D01*
X19381800Y-20070000D01*
X19351706Y-20103332D01*
X19324925Y-20132799D01*
X19301825Y-20157995D01*
X19282773Y-20178516D01*
X19268139Y-20193956D01*
X19258289Y-20203910D01*
X19253790Y-20207863D01*
X19234559Y-20215825D01*
X19211339Y-20219632D01*
X19187406Y-20219156D01*
X19166034Y-20214266D01*
X19159947Y-20211583D01*
X19139111Y-20198705D01*
X19123949Y-20183753D01*
X19113693Y-20167810D01*
X19112185Y-20164920D01*
X19110854Y-20161853D01*
X19109686Y-20158095D01*
X19108665Y-20153126D01*
X19107780Y-20146431D01*
X19107015Y-20137493D01*
X19106357Y-20125794D01*
X19105792Y-20110818D01*
X19105305Y-20092048D01*
X19104883Y-20068967D01*
X19104511Y-20041058D01*
X19104176Y-20007804D01*
X19103864Y-19968689D01*
X19103561Y-19923195D01*
X19103252Y-19870806D01*
X19102924Y-19811004D01*
X19102651Y-19759878D01*
X19101830Y-19605582D01*
X19306617Y-19605582D01*
X19306648Y-19649385D01*
X19306735Y-19690604D01*
X19306873Y-19728503D01*
X19307058Y-19762349D01*
X19307282Y-19791407D01*
X19307542Y-19814942D01*
X19307831Y-19832221D01*
X19308144Y-19842508D01*
X19308413Y-19845211D01*
X19311422Y-19842182D01*
X19319449Y-19833465D01*
X19331999Y-19819609D01*
X19348581Y-19801166D01*
X19368700Y-19778686D01*
X19391863Y-19752721D01*
X19417577Y-19723822D01*
X19445348Y-19692539D01*
X19468981Y-19665867D01*
X19498010Y-19632956D01*
X19525260Y-19601825D01*
X19550249Y-19573043D01*
X19572493Y-19547178D01*
X19591510Y-19524795D01*
X19606817Y-19506463D01*
X19617932Y-19492749D01*
X19624371Y-19484221D01*
X19625831Y-19481509D01*
X19621142Y-19477147D01*
X19610194Y-19470223D01*
X19594388Y-19461441D01*
X19575124Y-19451502D01*
X19553802Y-19441108D01*
X19531822Y-19430963D01*
X19510586Y-19421767D01*
X19492080Y-19414441D01*
X19467373Y-19405888D01*
X19439092Y-19397095D01*
X19409591Y-19388707D01*
X19381224Y-19381368D01*
X19356345Y-19375724D01*
X19339918Y-19372771D01*
X19326789Y-19370661D01*
X19316280Y-19368603D01*
X19313902Y-19368012D01*
X19312360Y-19367943D01*
X19311051Y-19369094D01*
X19309958Y-19372088D01*
X19309060Y-19377549D01*
X19308338Y-19386101D01*
X19307774Y-19398369D01*
X19307347Y-19414976D01*
X19307040Y-19436546D01*
X19306833Y-19463703D01*
X19306706Y-19497071D01*
X19306641Y-19537274D01*
X19306619Y-19584936D01*
X19306617Y-19605582D01*
X19101830Y-19605582D01*
X19100570Y-19368596D01*
X19086001Y-19369908D01*
X19076059Y-19371334D01*
X19060314Y-19374191D01*
X19041077Y-19378041D01*
X19024049Y-19381688D01*
X18945998Y-19403084D01*
X18871431Y-19431800D01*
X18800719Y-19467431D01*
X18734237Y-19509576D01*
X18672358Y-19557831D01*
X18615454Y-19611793D01*
X18563900Y-19671058D01*
X18518068Y-19735224D01*
X18478331Y-19803887D01*
X18445064Y-19876645D01*
X18418639Y-19953093D01*
X18399429Y-20032830D01*
X18394432Y-20061742D01*
X18391910Y-20084344D01*
X18390182Y-20113200D01*
X18389246Y-20146280D01*
X18389102Y-20181552D01*
X18389748Y-20216983D01*
X18391184Y-20250543D01*
X18393408Y-20280198D01*
X18394542Y-20290709D01*
X18397236Y-20321223D01*
X18396839Y-20345655D01*
X18392959Y-20365800D01*
X18385203Y-20383452D01*
X18373178Y-20400407D01*
X18369613Y-20404572D01*
X18347056Y-20424981D01*
X18322307Y-20437777D01*
X18296030Y-20442709D01*
X18274300Y-20440812D01*
X18248859Y-20431697D01*
X18227259Y-20416359D01*
X18211101Y-20396081D01*
X18206301Y-20386345D01*
X18200557Y-20367548D01*
X18195616Y-20341793D01*
X18191529Y-20310414D01*
X18188347Y-20274745D01*
X18186123Y-20236119D01*
X18184908Y-20195870D01*
X18184754Y-20155331D01*
X18185713Y-20115836D01*
X18187836Y-20078718D01*
X18191175Y-20045312D01*
X18192661Y-20034608D01*
X18210656Y-19942427D01*
X18236241Y-19853410D01*
X18269278Y-19767842D01*
X18309631Y-19686004D01*
X18357162Y-19608181D01*
X18411733Y-19534656D01*
X18464195Y-19475072D01*
X18528431Y-19413341D01*
X18597991Y-19357402D01*
X18672150Y-19307620D01*
X18750184Y-19264360D01*
X18831368Y-19227990D01*
X18914977Y-19198875D01*
X19000287Y-19177380D01*
X19078717Y-19164759D01*
X19102651Y-19161950D01*
X19102743Y-18861504D01*
X19102746Y-18802348D01*
X19102756Y-18750925D01*
X19102831Y-18706644D01*
X19103029Y-18668912D01*
X19103408Y-18637137D01*
X19104026Y-18610728D01*
X19104942Y-18589093D01*
X19106212Y-18571641D01*
X19107897Y-18557778D01*
X19110053Y-18546914D01*
X19112739Y-18538456D01*
X19116012Y-18531813D01*
X19119932Y-18526393D01*
X19124555Y-18521604D01*
X19129941Y-18516853D01*
X19136147Y-18511551D01*
X19137190Y-18510638D01*
X19161154Y-18494531D01*
X19186880Y-18485932D01*
X19213082Y-18484604D01*
X19238471Y-18490310D01*
X19261762Y-18502810D01*
X19281666Y-18521868D01*
X19293150Y-18539463D01*
X19304536Y-18561058D01*
X19305707Y-18861568D01*
X19306878Y-19162078D01*
X19326520Y-19164597D01*
X19358099Y-19169442D01*
X19394338Y-19176291D01*
X19432252Y-19184484D01*
X19468858Y-19193366D01*
X19501173Y-19202278D01*
X19510583Y-19205176D01*
X19554008Y-19219908D01*
X19594978Y-19235840D01*
X19635369Y-19253846D01*
X19677058Y-19274803D01*
X19721921Y-19299586D01*
X19757094Y-19320203D01*
X19765406Y-19324452D01*
X19770795Y-19323721D01*
X19776330Y-19318646D01*
X19780227Y-19314330D01*
X19789221Y-19304243D01*
X19802900Y-19288849D01*
X19820850Y-19268615D01*
X19842657Y-19244010D01*
X19867909Y-19215499D01*
X19896191Y-19183549D01*
X19927090Y-19148627D01*
X19960193Y-19111199D01*
X19995087Y-19071734D01*
X20023633Y-19039437D01*
X20065695Y-18991860D01*
X20102632Y-18950137D01*
X20134815Y-18913867D01*
X20162615Y-18882652D01*
X20186406Y-18856094D01*
X20206558Y-18833793D01*
X20223444Y-18815351D01*
X20237436Y-18800368D01*
X20248905Y-18788446D01*
X20258223Y-18779186D01*
X20265763Y-18772189D01*
X20271896Y-18767057D01*
X20276994Y-18763390D01*
X20281429Y-18760789D01*
X20285039Y-18759083D01*
X20307052Y-18749614D01*
X21459380Y-18739142D01*
X22611708Y-18728670D01*
X22633556Y-18739375D01*
X22637838Y-18741800D01*
X22642948Y-18745417D01*
X22649238Y-18750602D01*
X22657063Y-18757728D01*
X22666776Y-18767171D01*
X22678730Y-18779304D01*
X22693280Y-18794503D01*
X22710778Y-18813141D01*
X22731578Y-18835594D01*
X22756033Y-18862236D01*
X22784497Y-18893441D01*
X22817323Y-18929584D01*
X22854866Y-18971039D01*
X22897477Y-19018182D01*
X22914739Y-19037296D01*
X23174074Y-19324511D01*
X23195713Y-19310757D01*
X23265007Y-19271149D01*
X23339870Y-19236625D01*
X23418917Y-19207692D01*
X23500765Y-19184855D01*
X23584027Y-19168622D01*
X23584698Y-19168519D01*
X23631527Y-19161394D01*
X23631710Y-18854982D01*
X23631773Y-18794617D01*
X23631892Y-18742056D01*
X23632076Y-18696782D01*
X23632334Y-18658273D01*
X23632675Y-18626010D01*
X23633110Y-18599474D01*
X23633646Y-18578145D01*
X23634294Y-18561503D01*
X23635063Y-18549028D01*
X23635961Y-18540201D01*
X23636999Y-18534502D01*
X23637466Y-18532952D01*
X23650791Y-18507676D01*
X23670792Y-18486531D01*
X23684741Y-18476859D01*
X23697409Y-18470308D01*
X23709381Y-18466813D01*
X23724274Y-18465525D01*
X23733510Y-18465442D01*
X23763213Y-18468944D01*
G37*
%TD*%
M02*
