M48
; DRILL file {KiCad 9.0.7} date 2026-03-06T14:26:58+0100
; FORMAT={-:-/ absolute / metric / decimal}
; #@! TF.CreationDate,2026-03-06T14:26:58+01:00
; #@! TF.GenerationSoftware,Kicad,Pcbnew,9.0.7
; #@! TF.FileFunction,Plated,1,2,PTH
FMAT,2
METRIC
; #@! TA.AperFunction,Plated,PTH,ViaDrill
T1C0.300
; #@! TA.AperFunction,Plated,PTH,ComponentDrill
T2C0.950
%
G90
G05
T1
X16.0Y-27.5
X17.588Y-21.915
X20.0Y-20.0
X21.0Y-21.5
X23.0Y-21.5
X23.0Y-22.5
X23.0Y-23.5
X23.5Y-24.5
X23.5Y-25.5
X28.0Y-28.0
X28.0Y-33.0
X28.569Y-22.569
X29.0Y-18.0
X36.0Y-24.0
T2
X13.41Y-18.68
X13.41Y-21.18
X13.41Y-23.68
X13.41Y-26.18
X13.41Y-28.68
X13.41Y-31.18
X33.097Y-18.348
X33.097Y-20.848
X33.097Y-23.348
X33.097Y-25.848
X33.097Y-28.348
X33.097Y-30.848
X33.097Y-33.347
M30
