%TF.GenerationSoftware,KiCad,Pcbnew,9.0.7*%
%TF.CreationDate,2026-03-06T14:27:00+01:00*%
%TF.ProjectId,adc board,61646320-626f-4617-9264-2e6b69636164,rev?*%
%TF.SameCoordinates,Original*%
%TF.FileFunction,Legend,Bot*%
%TF.FilePolarity,Positive*%
%FSLAX46Y46*%
G04 Gerber Fmt 4.6, Leading zero omitted, Abs format (unit mm)*
G04 Created by KiCad (PCBNEW 9.0.7) date 2026-03-06 14:27:00*
%MOMM*%
%LPD*%
G01*
G04 APERTURE LIST*
%ADD10C,0.100000*%
%ADD11C,0.075000*%
%ADD12C,0.120000*%
G04 APERTURE END LIST*
D10*
X27803258Y-18713847D02*
X27803258Y-18313847D01*
X27567544Y-18351942D02*
X27541353Y-18332895D01*
X27541353Y-18332895D02*
X27488972Y-18313847D01*
X27488972Y-18313847D02*
X27358020Y-18313847D01*
X27358020Y-18313847D02*
X27305639Y-18332895D01*
X27305639Y-18332895D02*
X27279448Y-18351942D01*
X27279448Y-18351942D02*
X27253258Y-18390038D01*
X27253258Y-18390038D02*
X27253258Y-18428133D01*
X27253258Y-18428133D02*
X27279448Y-18485276D01*
X27279448Y-18485276D02*
X27593734Y-18713847D01*
X27593734Y-18713847D02*
X27253258Y-18713847D01*
X26703257Y-18675752D02*
X26729448Y-18694800D01*
X26729448Y-18694800D02*
X26808019Y-18713847D01*
X26808019Y-18713847D02*
X26860400Y-18713847D01*
X26860400Y-18713847D02*
X26938972Y-18694800D01*
X26938972Y-18694800D02*
X26991353Y-18656704D01*
X26991353Y-18656704D02*
X27017543Y-18618609D01*
X27017543Y-18618609D02*
X27043734Y-18542419D01*
X27043734Y-18542419D02*
X27043734Y-18485276D01*
X27043734Y-18485276D02*
X27017543Y-18409085D01*
X27017543Y-18409085D02*
X26991353Y-18370990D01*
X26991353Y-18370990D02*
X26938972Y-18332895D01*
X26938972Y-18332895D02*
X26860400Y-18313847D01*
X26860400Y-18313847D02*
X26808019Y-18313847D01*
X26808019Y-18313847D02*
X26729448Y-18332895D01*
X26729448Y-18332895D02*
X26703257Y-18351942D01*
X25812781Y-18713847D02*
X25812781Y-18504323D01*
X25812781Y-18504323D02*
X25838971Y-18466228D01*
X25838971Y-18466228D02*
X25891352Y-18447180D01*
X25891352Y-18447180D02*
X25996114Y-18447180D01*
X25996114Y-18447180D02*
X26048495Y-18466228D01*
X25812781Y-18694800D02*
X25865162Y-18713847D01*
X25865162Y-18713847D02*
X25996114Y-18713847D01*
X25996114Y-18713847D02*
X26048495Y-18694800D01*
X26048495Y-18694800D02*
X26074686Y-18656704D01*
X26074686Y-18656704D02*
X26074686Y-18618609D01*
X26074686Y-18618609D02*
X26048495Y-18580514D01*
X26048495Y-18580514D02*
X25996114Y-18561466D01*
X25996114Y-18561466D02*
X25865162Y-18561466D01*
X25865162Y-18561466D02*
X25812781Y-18542419D01*
X25315162Y-18713847D02*
X25315162Y-18313847D01*
X25315162Y-18694800D02*
X25367543Y-18713847D01*
X25367543Y-18713847D02*
X25472305Y-18713847D01*
X25472305Y-18713847D02*
X25524686Y-18694800D01*
X25524686Y-18694800D02*
X25550876Y-18675752D01*
X25550876Y-18675752D02*
X25577067Y-18637657D01*
X25577067Y-18637657D02*
X25577067Y-18523371D01*
X25577067Y-18523371D02*
X25550876Y-18485276D01*
X25550876Y-18485276D02*
X25524686Y-18466228D01*
X25524686Y-18466228D02*
X25472305Y-18447180D01*
X25472305Y-18447180D02*
X25367543Y-18447180D01*
X25367543Y-18447180D02*
X25315162Y-18466228D01*
X24817543Y-18713847D02*
X24817543Y-18313847D01*
X24817543Y-18694800D02*
X24869924Y-18713847D01*
X24869924Y-18713847D02*
X24974686Y-18713847D01*
X24974686Y-18713847D02*
X25027067Y-18694800D01*
X25027067Y-18694800D02*
X25053257Y-18675752D01*
X25053257Y-18675752D02*
X25079448Y-18637657D01*
X25079448Y-18637657D02*
X25079448Y-18523371D01*
X25079448Y-18523371D02*
X25053257Y-18485276D01*
X25053257Y-18485276D02*
X25027067Y-18466228D01*
X25027067Y-18466228D02*
X24974686Y-18447180D01*
X24974686Y-18447180D02*
X24869924Y-18447180D01*
X24869924Y-18447180D02*
X24817543Y-18466228D01*
X24555638Y-18713847D02*
X24555638Y-18447180D01*
X24555638Y-18523371D02*
X24529448Y-18485276D01*
X24529448Y-18485276D02*
X24503257Y-18466228D01*
X24503257Y-18466228D02*
X24450876Y-18447180D01*
X24450876Y-18447180D02*
X24398495Y-18447180D01*
X24005638Y-18694800D02*
X24058019Y-18713847D01*
X24058019Y-18713847D02*
X24162781Y-18713847D01*
X24162781Y-18713847D02*
X24215162Y-18694800D01*
X24215162Y-18694800D02*
X24241353Y-18656704D01*
X24241353Y-18656704D02*
X24241353Y-18504323D01*
X24241353Y-18504323D02*
X24215162Y-18466228D01*
X24215162Y-18466228D02*
X24162781Y-18447180D01*
X24162781Y-18447180D02*
X24058019Y-18447180D01*
X24058019Y-18447180D02*
X24005638Y-18466228D01*
X24005638Y-18466228D02*
X23979448Y-18504323D01*
X23979448Y-18504323D02*
X23979448Y-18542419D01*
X23979448Y-18542419D02*
X24241353Y-18580514D01*
X23769924Y-18694800D02*
X23717543Y-18713847D01*
X23717543Y-18713847D02*
X23612781Y-18713847D01*
X23612781Y-18713847D02*
X23560400Y-18694800D01*
X23560400Y-18694800D02*
X23534209Y-18656704D01*
X23534209Y-18656704D02*
X23534209Y-18637657D01*
X23534209Y-18637657D02*
X23560400Y-18599561D01*
X23560400Y-18599561D02*
X23612781Y-18580514D01*
X23612781Y-18580514D02*
X23691352Y-18580514D01*
X23691352Y-18580514D02*
X23743733Y-18561466D01*
X23743733Y-18561466D02*
X23769924Y-18523371D01*
X23769924Y-18523371D02*
X23769924Y-18504323D01*
X23769924Y-18504323D02*
X23743733Y-18466228D01*
X23743733Y-18466228D02*
X23691352Y-18447180D01*
X23691352Y-18447180D02*
X23612781Y-18447180D01*
X23612781Y-18447180D02*
X23560400Y-18466228D01*
X23324686Y-18694800D02*
X23272305Y-18713847D01*
X23272305Y-18713847D02*
X23167543Y-18713847D01*
X23167543Y-18713847D02*
X23115162Y-18694800D01*
X23115162Y-18694800D02*
X23088971Y-18656704D01*
X23088971Y-18656704D02*
X23088971Y-18637657D01*
X23088971Y-18637657D02*
X23115162Y-18599561D01*
X23115162Y-18599561D02*
X23167543Y-18580514D01*
X23167543Y-18580514D02*
X23246114Y-18580514D01*
X23246114Y-18580514D02*
X23298495Y-18561466D01*
X23298495Y-18561466D02*
X23324686Y-18523371D01*
X23324686Y-18523371D02*
X23324686Y-18504323D01*
X23324686Y-18504323D02*
X23298495Y-18466228D01*
X23298495Y-18466228D02*
X23246114Y-18447180D01*
X23246114Y-18447180D02*
X23167543Y-18447180D01*
X23167543Y-18447180D02*
X23115162Y-18466228D01*
X22460400Y-18694800D02*
X22408019Y-18713847D01*
X22408019Y-18713847D02*
X22303257Y-18713847D01*
X22303257Y-18713847D02*
X22250876Y-18694800D01*
X22250876Y-18694800D02*
X22224685Y-18656704D01*
X22224685Y-18656704D02*
X22224685Y-18637657D01*
X22224685Y-18637657D02*
X22250876Y-18599561D01*
X22250876Y-18599561D02*
X22303257Y-18580514D01*
X22303257Y-18580514D02*
X22381828Y-18580514D01*
X22381828Y-18580514D02*
X22434209Y-18561466D01*
X22434209Y-18561466D02*
X22460400Y-18523371D01*
X22460400Y-18523371D02*
X22460400Y-18504323D01*
X22460400Y-18504323D02*
X22434209Y-18466228D01*
X22434209Y-18466228D02*
X22381828Y-18447180D01*
X22381828Y-18447180D02*
X22303257Y-18447180D01*
X22303257Y-18447180D02*
X22250876Y-18466228D01*
X21779447Y-18694800D02*
X21831828Y-18713847D01*
X21831828Y-18713847D02*
X21936590Y-18713847D01*
X21936590Y-18713847D02*
X21988971Y-18694800D01*
X21988971Y-18694800D02*
X22015162Y-18656704D01*
X22015162Y-18656704D02*
X22015162Y-18504323D01*
X22015162Y-18504323D02*
X21988971Y-18466228D01*
X21988971Y-18466228D02*
X21936590Y-18447180D01*
X21936590Y-18447180D02*
X21831828Y-18447180D01*
X21831828Y-18447180D02*
X21779447Y-18466228D01*
X21779447Y-18466228D02*
X21753257Y-18504323D01*
X21753257Y-18504323D02*
X21753257Y-18542419D01*
X21753257Y-18542419D02*
X22015162Y-18580514D01*
X21438971Y-18713847D02*
X21491352Y-18694800D01*
X21491352Y-18694800D02*
X21517542Y-18656704D01*
X21517542Y-18656704D02*
X21517542Y-18313847D01*
X21019923Y-18694800D02*
X21072304Y-18713847D01*
X21072304Y-18713847D02*
X21177066Y-18713847D01*
X21177066Y-18713847D02*
X21229447Y-18694800D01*
X21229447Y-18694800D02*
X21255638Y-18656704D01*
X21255638Y-18656704D02*
X21255638Y-18504323D01*
X21255638Y-18504323D02*
X21229447Y-18466228D01*
X21229447Y-18466228D02*
X21177066Y-18447180D01*
X21177066Y-18447180D02*
X21072304Y-18447180D01*
X21072304Y-18447180D02*
X21019923Y-18466228D01*
X21019923Y-18466228D02*
X20993733Y-18504323D01*
X20993733Y-18504323D02*
X20993733Y-18542419D01*
X20993733Y-18542419D02*
X21255638Y-18580514D01*
X20522304Y-18694800D02*
X20574685Y-18713847D01*
X20574685Y-18713847D02*
X20679447Y-18713847D01*
X20679447Y-18713847D02*
X20731828Y-18694800D01*
X20731828Y-18694800D02*
X20758018Y-18675752D01*
X20758018Y-18675752D02*
X20784209Y-18637657D01*
X20784209Y-18637657D02*
X20784209Y-18523371D01*
X20784209Y-18523371D02*
X20758018Y-18485276D01*
X20758018Y-18485276D02*
X20731828Y-18466228D01*
X20731828Y-18466228D02*
X20679447Y-18447180D01*
X20679447Y-18447180D02*
X20574685Y-18447180D01*
X20574685Y-18447180D02*
X20522304Y-18466228D01*
X20365161Y-18447180D02*
X20155637Y-18447180D01*
X20286589Y-18313847D02*
X20286589Y-18656704D01*
X20286589Y-18656704D02*
X20260399Y-18694800D01*
X20260399Y-18694800D02*
X20208018Y-18713847D01*
X20208018Y-18713847D02*
X20155637Y-18713847D01*
X19972303Y-18713847D02*
X19972303Y-18447180D01*
X19972303Y-18313847D02*
X19998494Y-18332895D01*
X19998494Y-18332895D02*
X19972303Y-18351942D01*
X19972303Y-18351942D02*
X19946113Y-18332895D01*
X19946113Y-18332895D02*
X19972303Y-18313847D01*
X19972303Y-18313847D02*
X19972303Y-18351942D01*
X19631827Y-18713847D02*
X19684208Y-18694800D01*
X19684208Y-18694800D02*
X19710398Y-18675752D01*
X19710398Y-18675752D02*
X19736589Y-18637657D01*
X19736589Y-18637657D02*
X19736589Y-18523371D01*
X19736589Y-18523371D02*
X19710398Y-18485276D01*
X19710398Y-18485276D02*
X19684208Y-18466228D01*
X19684208Y-18466228D02*
X19631827Y-18447180D01*
X19631827Y-18447180D02*
X19553255Y-18447180D01*
X19553255Y-18447180D02*
X19500874Y-18466228D01*
X19500874Y-18466228D02*
X19474684Y-18485276D01*
X19474684Y-18485276D02*
X19448493Y-18523371D01*
X19448493Y-18523371D02*
X19448493Y-18637657D01*
X19448493Y-18637657D02*
X19474684Y-18675752D01*
X19474684Y-18675752D02*
X19500874Y-18694800D01*
X19500874Y-18694800D02*
X19553255Y-18713847D01*
X19553255Y-18713847D02*
X19631827Y-18713847D01*
X19212779Y-18447180D02*
X19212779Y-18713847D01*
X19212779Y-18485276D02*
X19186589Y-18466228D01*
X19186589Y-18466228D02*
X19134208Y-18447180D01*
X19134208Y-18447180D02*
X19055636Y-18447180D01*
X19055636Y-18447180D02*
X19003255Y-18466228D01*
X19003255Y-18466228D02*
X18977065Y-18504323D01*
X18977065Y-18504323D02*
X18977065Y-18713847D01*
X17990000Y-18000000D02*
X28300000Y-18000000D01*
X28300000Y-18900000D01*
X17990000Y-18900000D01*
X17990000Y-18000000D01*
D11*
X26219467Y-16579671D02*
X26028991Y-16579671D01*
X26257562Y-16665385D02*
X26124229Y-16365385D01*
X26124229Y-16365385D02*
X25990896Y-16665385D01*
X25781372Y-16365385D02*
X25743277Y-16365385D01*
X25743277Y-16365385D02*
X25705181Y-16379671D01*
X25705181Y-16379671D02*
X25686134Y-16393957D01*
X25686134Y-16393957D02*
X25667086Y-16422528D01*
X25667086Y-16422528D02*
X25648039Y-16479671D01*
X25648039Y-16479671D02*
X25648039Y-16551100D01*
X25648039Y-16551100D02*
X25667086Y-16608242D01*
X25667086Y-16608242D02*
X25686134Y-16636814D01*
X25686134Y-16636814D02*
X25705181Y-16651100D01*
X25705181Y-16651100D02*
X25743277Y-16665385D01*
X25743277Y-16665385D02*
X25781372Y-16665385D01*
X25781372Y-16665385D02*
X25819467Y-16651100D01*
X25819467Y-16651100D02*
X25838515Y-16636814D01*
X25838515Y-16636814D02*
X25857562Y-16608242D01*
X25857562Y-16608242D02*
X25876610Y-16551100D01*
X25876610Y-16551100D02*
X25876610Y-16479671D01*
X25876610Y-16479671D02*
X25857562Y-16422528D01*
X25857562Y-16422528D02*
X25838515Y-16393957D01*
X25838515Y-16393957D02*
X25819467Y-16379671D01*
X25819467Y-16379671D02*
X25781372Y-16365385D01*
X20619466Y-16579671D02*
X20428990Y-16579671D01*
X20657561Y-16665385D02*
X20524228Y-16365385D01*
X20524228Y-16365385D02*
X20390895Y-16665385D01*
X20048038Y-16665385D02*
X20276609Y-16665385D01*
X20162323Y-16665385D02*
X20162323Y-16365385D01*
X20162323Y-16365385D02*
X20200419Y-16408242D01*
X20200419Y-16408242D02*
X20238514Y-16436814D01*
X20238514Y-16436814D02*
X20276609Y-16451100D01*
D10*
X22141353Y-11263439D02*
X22055639Y-11292011D01*
X22055639Y-11292011D02*
X22027068Y-11320582D01*
X22027068Y-11320582D02*
X21998496Y-11377725D01*
X21998496Y-11377725D02*
X21998496Y-11463439D01*
X21998496Y-11463439D02*
X22027068Y-11520582D01*
X22027068Y-11520582D02*
X22055639Y-11549154D01*
X22055639Y-11549154D02*
X22112782Y-11577725D01*
X22112782Y-11577725D02*
X22341353Y-11577725D01*
X22341353Y-11577725D02*
X22341353Y-10977725D01*
X22341353Y-10977725D02*
X22141353Y-10977725D01*
X22141353Y-10977725D02*
X22084211Y-11006296D01*
X22084211Y-11006296D02*
X22055639Y-11034868D01*
X22055639Y-11034868D02*
X22027068Y-11092011D01*
X22027068Y-11092011D02*
X22027068Y-11149154D01*
X22027068Y-11149154D02*
X22055639Y-11206296D01*
X22055639Y-11206296D02*
X22084211Y-11234868D01*
X22084211Y-11234868D02*
X22141353Y-11263439D01*
X22141353Y-11263439D02*
X22341353Y-11263439D01*
X21741353Y-11577725D02*
X21741353Y-11177725D01*
X21741353Y-11292011D02*
X21712782Y-11234868D01*
X21712782Y-11234868D02*
X21684211Y-11206296D01*
X21684211Y-11206296D02*
X21627068Y-11177725D01*
X21627068Y-11177725D02*
X21569925Y-11177725D01*
X21369924Y-11577725D02*
X21369924Y-11177725D01*
X21369924Y-10977725D02*
X21398496Y-11006296D01*
X21398496Y-11006296D02*
X21369924Y-11034868D01*
X21369924Y-11034868D02*
X21341353Y-11006296D01*
X21341353Y-11006296D02*
X21369924Y-10977725D01*
X21369924Y-10977725D02*
X21369924Y-11034868D01*
X20827068Y-11577725D02*
X20827068Y-10977725D01*
X20827068Y-11549154D02*
X20884210Y-11577725D01*
X20884210Y-11577725D02*
X20998496Y-11577725D01*
X20998496Y-11577725D02*
X21055639Y-11549154D01*
X21055639Y-11549154D02*
X21084210Y-11520582D01*
X21084210Y-11520582D02*
X21112782Y-11463439D01*
X21112782Y-11463439D02*
X21112782Y-11292011D01*
X21112782Y-11292011D02*
X21084210Y-11234868D01*
X21084210Y-11234868D02*
X21055639Y-11206296D01*
X21055639Y-11206296D02*
X20998496Y-11177725D01*
X20998496Y-11177725D02*
X20884210Y-11177725D01*
X20884210Y-11177725D02*
X20827068Y-11206296D01*
X20284211Y-11177725D02*
X20284211Y-11663439D01*
X20284211Y-11663439D02*
X20312782Y-11720582D01*
X20312782Y-11720582D02*
X20341353Y-11749154D01*
X20341353Y-11749154D02*
X20398496Y-11777725D01*
X20398496Y-11777725D02*
X20484211Y-11777725D01*
X20484211Y-11777725D02*
X20541353Y-11749154D01*
X20284211Y-11549154D02*
X20341353Y-11577725D01*
X20341353Y-11577725D02*
X20455639Y-11577725D01*
X20455639Y-11577725D02*
X20512782Y-11549154D01*
X20512782Y-11549154D02*
X20541353Y-11520582D01*
X20541353Y-11520582D02*
X20569925Y-11463439D01*
X20569925Y-11463439D02*
X20569925Y-11292011D01*
X20569925Y-11292011D02*
X20541353Y-11234868D01*
X20541353Y-11234868D02*
X20512782Y-11206296D01*
X20512782Y-11206296D02*
X20455639Y-11177725D01*
X20455639Y-11177725D02*
X20341353Y-11177725D01*
X20341353Y-11177725D02*
X20284211Y-11206296D01*
X19769925Y-11549154D02*
X19827068Y-11577725D01*
X19827068Y-11577725D02*
X19941354Y-11577725D01*
X19941354Y-11577725D02*
X19998496Y-11549154D01*
X19998496Y-11549154D02*
X20027068Y-11492011D01*
X20027068Y-11492011D02*
X20027068Y-11263439D01*
X20027068Y-11263439D02*
X19998496Y-11206296D01*
X19998496Y-11206296D02*
X19941354Y-11177725D01*
X19941354Y-11177725D02*
X19827068Y-11177725D01*
X19827068Y-11177725D02*
X19769925Y-11206296D01*
X19769925Y-11206296D02*
X19741354Y-11263439D01*
X19741354Y-11263439D02*
X19741354Y-11320582D01*
X19741354Y-11320582D02*
X20027068Y-11377725D01*
X22255639Y-12543691D02*
X22312782Y-12515120D01*
X22312782Y-12515120D02*
X22341353Y-12486548D01*
X22341353Y-12486548D02*
X22369925Y-12429405D01*
X22369925Y-12429405D02*
X22369925Y-12257977D01*
X22369925Y-12257977D02*
X22341353Y-12200834D01*
X22341353Y-12200834D02*
X22312782Y-12172262D01*
X22312782Y-12172262D02*
X22255639Y-12143691D01*
X22255639Y-12143691D02*
X22169925Y-12143691D01*
X22169925Y-12143691D02*
X22112782Y-12172262D01*
X22112782Y-12172262D02*
X22084211Y-12200834D01*
X22084211Y-12200834D02*
X22055639Y-12257977D01*
X22055639Y-12257977D02*
X22055639Y-12429405D01*
X22055639Y-12429405D02*
X22084211Y-12486548D01*
X22084211Y-12486548D02*
X22112782Y-12515120D01*
X22112782Y-12515120D02*
X22169925Y-12543691D01*
X22169925Y-12543691D02*
X22255639Y-12543691D01*
X21798496Y-12143691D02*
X21798496Y-12543691D01*
X21798496Y-12200834D02*
X21769925Y-12172262D01*
X21769925Y-12172262D02*
X21712782Y-12143691D01*
X21712782Y-12143691D02*
X21627068Y-12143691D01*
X21627068Y-12143691D02*
X21569925Y-12172262D01*
X21569925Y-12172262D02*
X21541354Y-12229405D01*
X21541354Y-12229405D02*
X21541354Y-12543691D01*
X21169925Y-12543691D02*
X21227068Y-12515120D01*
X21227068Y-12515120D02*
X21255639Y-12457977D01*
X21255639Y-12457977D02*
X21255639Y-11943691D01*
X20998496Y-12143691D02*
X20855639Y-12543691D01*
X20712782Y-12143691D02*
X20855639Y-12543691D01*
X20855639Y-12543691D02*
X20912782Y-12686548D01*
X20912782Y-12686548D02*
X20941353Y-12715120D01*
X20941353Y-12715120D02*
X20998496Y-12743691D01*
X19941353Y-12543691D02*
X19998496Y-12515120D01*
X19998496Y-12515120D02*
X20027067Y-12486548D01*
X20027067Y-12486548D02*
X20055639Y-12429405D01*
X20055639Y-12429405D02*
X20055639Y-12257977D01*
X20055639Y-12257977D02*
X20027067Y-12200834D01*
X20027067Y-12200834D02*
X19998496Y-12172262D01*
X19998496Y-12172262D02*
X19941353Y-12143691D01*
X19941353Y-12143691D02*
X19855639Y-12143691D01*
X19855639Y-12143691D02*
X19798496Y-12172262D01*
X19798496Y-12172262D02*
X19769925Y-12200834D01*
X19769925Y-12200834D02*
X19741353Y-12257977D01*
X19741353Y-12257977D02*
X19741353Y-12429405D01*
X19741353Y-12429405D02*
X19769925Y-12486548D01*
X19769925Y-12486548D02*
X19798496Y-12515120D01*
X19798496Y-12515120D02*
X19855639Y-12543691D01*
X19855639Y-12543691D02*
X19941353Y-12543691D01*
X19484210Y-12143691D02*
X19484210Y-12543691D01*
X19484210Y-12200834D02*
X19455639Y-12172262D01*
X19455639Y-12172262D02*
X19398496Y-12143691D01*
X19398496Y-12143691D02*
X19312782Y-12143691D01*
X19312782Y-12143691D02*
X19255639Y-12172262D01*
X19255639Y-12172262D02*
X19227068Y-12229405D01*
X19227068Y-12229405D02*
X19227068Y-12543691D01*
X18712782Y-12515120D02*
X18769925Y-12543691D01*
X18769925Y-12543691D02*
X18884211Y-12543691D01*
X18884211Y-12543691D02*
X18941353Y-12515120D01*
X18941353Y-12515120D02*
X18969925Y-12457977D01*
X18969925Y-12457977D02*
X18969925Y-12229405D01*
X18969925Y-12229405D02*
X18941353Y-12172262D01*
X18941353Y-12172262D02*
X18884211Y-12143691D01*
X18884211Y-12143691D02*
X18769925Y-12143691D01*
X18769925Y-12143691D02*
X18712782Y-12172262D01*
X18712782Y-12172262D02*
X18684211Y-12229405D01*
X18684211Y-12229405D02*
X18684211Y-12286548D01*
X18684211Y-12286548D02*
X18969925Y-12343691D01*
X18000000Y-10504354D02*
X23000000Y-10504354D01*
X23000000Y-17432504D01*
X18000000Y-17432504D01*
X18000000Y-10504354D01*
D11*
X22160419Y-13421100D02*
X21855658Y-13421100D01*
X22008038Y-13535385D02*
X22008038Y-13306814D01*
X21474705Y-13235385D02*
X21665181Y-13235385D01*
X21665181Y-13235385D02*
X21684229Y-13378242D01*
X21684229Y-13378242D02*
X21665181Y-13363957D01*
X21665181Y-13363957D02*
X21627086Y-13349671D01*
X21627086Y-13349671D02*
X21531848Y-13349671D01*
X21531848Y-13349671D02*
X21493753Y-13363957D01*
X21493753Y-13363957D02*
X21474705Y-13378242D01*
X21474705Y-13378242D02*
X21455658Y-13406814D01*
X21455658Y-13406814D02*
X21455658Y-13478242D01*
X21455658Y-13478242D02*
X21474705Y-13506814D01*
X21474705Y-13506814D02*
X21493753Y-13521100D01*
X21493753Y-13521100D02*
X21531848Y-13535385D01*
X21531848Y-13535385D02*
X21627086Y-13535385D01*
X21627086Y-13535385D02*
X21665181Y-13521100D01*
X21665181Y-13521100D02*
X21684229Y-13506814D01*
X19550896Y-13249671D02*
X19588991Y-13235385D01*
X19588991Y-13235385D02*
X19646134Y-13235385D01*
X19646134Y-13235385D02*
X19703277Y-13249671D01*
X19703277Y-13249671D02*
X19741372Y-13278242D01*
X19741372Y-13278242D02*
X19760419Y-13306814D01*
X19760419Y-13306814D02*
X19779467Y-13363957D01*
X19779467Y-13363957D02*
X19779467Y-13406814D01*
X19779467Y-13406814D02*
X19760419Y-13463957D01*
X19760419Y-13463957D02*
X19741372Y-13492528D01*
X19741372Y-13492528D02*
X19703277Y-13521100D01*
X19703277Y-13521100D02*
X19646134Y-13535385D01*
X19646134Y-13535385D02*
X19608038Y-13535385D01*
X19608038Y-13535385D02*
X19550896Y-13521100D01*
X19550896Y-13521100D02*
X19531848Y-13506814D01*
X19531848Y-13506814D02*
X19531848Y-13406814D01*
X19531848Y-13406814D02*
X19608038Y-13406814D01*
X19360419Y-13535385D02*
X19360419Y-13235385D01*
X19360419Y-13235385D02*
X19131848Y-13535385D01*
X19131848Y-13535385D02*
X19131848Y-13235385D01*
X18941371Y-13535385D02*
X18941371Y-13235385D01*
X18941371Y-13235385D02*
X18846133Y-13235385D01*
X18846133Y-13235385D02*
X18788990Y-13249671D01*
X18788990Y-13249671D02*
X18750895Y-13278242D01*
X18750895Y-13278242D02*
X18731848Y-13306814D01*
X18731848Y-13306814D02*
X18712800Y-13363957D01*
X18712800Y-13363957D02*
X18712800Y-13406814D01*
X18712800Y-13406814D02*
X18731848Y-13463957D01*
X18731848Y-13463957D02*
X18750895Y-13492528D01*
X18750895Y-13492528D02*
X18788990Y-13521100D01*
X18788990Y-13521100D02*
X18846133Y-13535385D01*
X18846133Y-13535385D02*
X18941371Y-13535385D01*
X27360896Y-13247171D02*
X27398991Y-13232885D01*
X27398991Y-13232885D02*
X27456134Y-13232885D01*
X27456134Y-13232885D02*
X27513277Y-13247171D01*
X27513277Y-13247171D02*
X27551372Y-13275742D01*
X27551372Y-13275742D02*
X27570419Y-13304314D01*
X27570419Y-13304314D02*
X27589467Y-13361457D01*
X27589467Y-13361457D02*
X27589467Y-13404314D01*
X27589467Y-13404314D02*
X27570419Y-13461457D01*
X27570419Y-13461457D02*
X27551372Y-13490028D01*
X27551372Y-13490028D02*
X27513277Y-13518600D01*
X27513277Y-13518600D02*
X27456134Y-13532885D01*
X27456134Y-13532885D02*
X27418038Y-13532885D01*
X27418038Y-13532885D02*
X27360896Y-13518600D01*
X27360896Y-13518600D02*
X27341848Y-13504314D01*
X27341848Y-13504314D02*
X27341848Y-13404314D01*
X27341848Y-13404314D02*
X27418038Y-13404314D01*
X27170419Y-13532885D02*
X27170419Y-13232885D01*
X27170419Y-13232885D02*
X26941848Y-13532885D01*
X26941848Y-13532885D02*
X26941848Y-13232885D01*
X26751371Y-13532885D02*
X26751371Y-13232885D01*
X26751371Y-13232885D02*
X26656133Y-13232885D01*
X26656133Y-13232885D02*
X26598990Y-13247171D01*
X26598990Y-13247171D02*
X26560895Y-13275742D01*
X26560895Y-13275742D02*
X26541848Y-13304314D01*
X26541848Y-13304314D02*
X26522800Y-13361457D01*
X26522800Y-13361457D02*
X26522800Y-13404314D01*
X26522800Y-13404314D02*
X26541848Y-13461457D01*
X26541848Y-13461457D02*
X26560895Y-13490028D01*
X26560895Y-13490028D02*
X26598990Y-13518600D01*
X26598990Y-13518600D02*
X26656133Y-13532885D01*
X26656133Y-13532885D02*
X26751371Y-13532885D01*
X24827561Y-13418600D02*
X24522800Y-13418600D01*
X24675180Y-13532885D02*
X24675180Y-13304314D01*
X24141847Y-13232885D02*
X24332323Y-13232885D01*
X24332323Y-13232885D02*
X24351371Y-13375742D01*
X24351371Y-13375742D02*
X24332323Y-13361457D01*
X24332323Y-13361457D02*
X24294228Y-13347171D01*
X24294228Y-13347171D02*
X24198990Y-13347171D01*
X24198990Y-13347171D02*
X24160895Y-13361457D01*
X24160895Y-13361457D02*
X24141847Y-13375742D01*
X24141847Y-13375742D02*
X24122800Y-13404314D01*
X24122800Y-13404314D02*
X24122800Y-13475742D01*
X24122800Y-13475742D02*
X24141847Y-13504314D01*
X24141847Y-13504314D02*
X24160895Y-13518600D01*
X24160895Y-13518600D02*
X24198990Y-13532885D01*
X24198990Y-13532885D02*
X24294228Y-13532885D01*
X24294228Y-13532885D02*
X24332323Y-13518600D01*
X24332323Y-13518600D02*
X24351371Y-13504314D01*
D10*
X36869925Y-16482308D02*
X36784211Y-16501355D01*
X36784211Y-16501355D02*
X36641353Y-16501355D01*
X36641353Y-16501355D02*
X36584211Y-16482308D01*
X36584211Y-16482308D02*
X36555639Y-16463260D01*
X36555639Y-16463260D02*
X36527068Y-16425165D01*
X36527068Y-16425165D02*
X36527068Y-16387069D01*
X36527068Y-16387069D02*
X36555639Y-16348974D01*
X36555639Y-16348974D02*
X36584211Y-16329927D01*
X36584211Y-16329927D02*
X36641353Y-16310879D01*
X36641353Y-16310879D02*
X36755639Y-16291831D01*
X36755639Y-16291831D02*
X36812782Y-16272784D01*
X36812782Y-16272784D02*
X36841353Y-16253736D01*
X36841353Y-16253736D02*
X36869925Y-16215641D01*
X36869925Y-16215641D02*
X36869925Y-16177546D01*
X36869925Y-16177546D02*
X36841353Y-16139450D01*
X36841353Y-16139450D02*
X36812782Y-16120403D01*
X36812782Y-16120403D02*
X36755639Y-16101355D01*
X36755639Y-16101355D02*
X36612782Y-16101355D01*
X36612782Y-16101355D02*
X36527068Y-16120403D01*
X36012782Y-16501355D02*
X36012782Y-16291831D01*
X36012782Y-16291831D02*
X36041353Y-16253736D01*
X36041353Y-16253736D02*
X36098496Y-16234688D01*
X36098496Y-16234688D02*
X36212782Y-16234688D01*
X36212782Y-16234688D02*
X36269924Y-16253736D01*
X36012782Y-16482308D02*
X36069924Y-16501355D01*
X36069924Y-16501355D02*
X36212782Y-16501355D01*
X36212782Y-16501355D02*
X36269924Y-16482308D01*
X36269924Y-16482308D02*
X36298496Y-16444212D01*
X36298496Y-16444212D02*
X36298496Y-16406117D01*
X36298496Y-16406117D02*
X36269924Y-16368022D01*
X36269924Y-16368022D02*
X36212782Y-16348974D01*
X36212782Y-16348974D02*
X36069924Y-16348974D01*
X36069924Y-16348974D02*
X36012782Y-16329927D01*
X35727067Y-16501355D02*
X35727067Y-16234688D01*
X35727067Y-16272784D02*
X35698496Y-16253736D01*
X35698496Y-16253736D02*
X35641353Y-16234688D01*
X35641353Y-16234688D02*
X35555639Y-16234688D01*
X35555639Y-16234688D02*
X35498496Y-16253736D01*
X35498496Y-16253736D02*
X35469925Y-16291831D01*
X35469925Y-16291831D02*
X35469925Y-16501355D01*
X35469925Y-16291831D02*
X35441353Y-16253736D01*
X35441353Y-16253736D02*
X35384210Y-16234688D01*
X35384210Y-16234688D02*
X35298496Y-16234688D01*
X35298496Y-16234688D02*
X35241353Y-16253736D01*
X35241353Y-16253736D02*
X35212782Y-16291831D01*
X35212782Y-16291831D02*
X35212782Y-16501355D01*
X34698496Y-16482308D02*
X34755639Y-16501355D01*
X34755639Y-16501355D02*
X34869925Y-16501355D01*
X34869925Y-16501355D02*
X34927067Y-16482308D01*
X34927067Y-16482308D02*
X34955639Y-16444212D01*
X34955639Y-16444212D02*
X34955639Y-16291831D01*
X34955639Y-16291831D02*
X34927067Y-16253736D01*
X34927067Y-16253736D02*
X34869925Y-16234688D01*
X34869925Y-16234688D02*
X34755639Y-16234688D01*
X34755639Y-16234688D02*
X34698496Y-16253736D01*
X34698496Y-16253736D02*
X34669925Y-16291831D01*
X34669925Y-16291831D02*
X34669925Y-16329927D01*
X34669925Y-16329927D02*
X34955639Y-16368022D01*
X33984210Y-16482308D02*
X33927067Y-16501355D01*
X33927067Y-16501355D02*
X33812781Y-16501355D01*
X33812781Y-16501355D02*
X33755638Y-16482308D01*
X33755638Y-16482308D02*
X33727067Y-16444212D01*
X33727067Y-16444212D02*
X33727067Y-16425165D01*
X33727067Y-16425165D02*
X33755638Y-16387069D01*
X33755638Y-16387069D02*
X33812781Y-16368022D01*
X33812781Y-16368022D02*
X33898496Y-16368022D01*
X33898496Y-16368022D02*
X33955638Y-16348974D01*
X33955638Y-16348974D02*
X33984210Y-16310879D01*
X33984210Y-16310879D02*
X33984210Y-16291831D01*
X33984210Y-16291831D02*
X33955638Y-16253736D01*
X33955638Y-16253736D02*
X33898496Y-16234688D01*
X33898496Y-16234688D02*
X33812781Y-16234688D01*
X33812781Y-16234688D02*
X33755638Y-16253736D01*
X33212782Y-16234688D02*
X33212782Y-16501355D01*
X33469924Y-16234688D02*
X33469924Y-16444212D01*
X33469924Y-16444212D02*
X33441353Y-16482308D01*
X33441353Y-16482308D02*
X33384210Y-16501355D01*
X33384210Y-16501355D02*
X33298496Y-16501355D01*
X33298496Y-16501355D02*
X33241353Y-16482308D01*
X33241353Y-16482308D02*
X33212782Y-16463260D01*
X32927067Y-16234688D02*
X32927067Y-16634688D01*
X32927067Y-16253736D02*
X32869925Y-16234688D01*
X32869925Y-16234688D02*
X32755639Y-16234688D01*
X32755639Y-16234688D02*
X32698496Y-16253736D01*
X32698496Y-16253736D02*
X32669925Y-16272784D01*
X32669925Y-16272784D02*
X32641353Y-16310879D01*
X32641353Y-16310879D02*
X32641353Y-16425165D01*
X32641353Y-16425165D02*
X32669925Y-16463260D01*
X32669925Y-16463260D02*
X32698496Y-16482308D01*
X32698496Y-16482308D02*
X32755639Y-16501355D01*
X32755639Y-16501355D02*
X32869925Y-16501355D01*
X32869925Y-16501355D02*
X32927067Y-16482308D01*
X32384210Y-16234688D02*
X32384210Y-16634688D01*
X32384210Y-16253736D02*
X32327068Y-16234688D01*
X32327068Y-16234688D02*
X32212782Y-16234688D01*
X32212782Y-16234688D02*
X32155639Y-16253736D01*
X32155639Y-16253736D02*
X32127068Y-16272784D01*
X32127068Y-16272784D02*
X32098496Y-16310879D01*
X32098496Y-16310879D02*
X32098496Y-16425165D01*
X32098496Y-16425165D02*
X32127068Y-16463260D01*
X32127068Y-16463260D02*
X32155639Y-16482308D01*
X32155639Y-16482308D02*
X32212782Y-16501355D01*
X32212782Y-16501355D02*
X32327068Y-16501355D01*
X32327068Y-16501355D02*
X32384210Y-16482308D01*
X31755639Y-16501355D02*
X31812782Y-16482308D01*
X31812782Y-16482308D02*
X31841353Y-16444212D01*
X31841353Y-16444212D02*
X31841353Y-16101355D01*
X31584210Y-16234688D02*
X31441353Y-16501355D01*
X31298496Y-16234688D02*
X31441353Y-16501355D01*
X31441353Y-16501355D02*
X31498496Y-16596593D01*
X31498496Y-16596593D02*
X31527067Y-16615641D01*
X31527067Y-16615641D02*
X31584210Y-16634688D01*
X30984210Y-16463260D02*
X30955639Y-16482308D01*
X30955639Y-16482308D02*
X30984210Y-16501355D01*
X30984210Y-16501355D02*
X31012782Y-16482308D01*
X31012782Y-16482308D02*
X30984210Y-16463260D01*
X30984210Y-16463260D02*
X30984210Y-16501355D01*
X31098496Y-16120403D02*
X31041353Y-16101355D01*
X31041353Y-16101355D02*
X30898496Y-16101355D01*
X30898496Y-16101355D02*
X30841353Y-16120403D01*
X30841353Y-16120403D02*
X30812782Y-16158498D01*
X30812782Y-16158498D02*
X30812782Y-16196593D01*
X30812782Y-16196593D02*
X30841353Y-16234688D01*
X30841353Y-16234688D02*
X30869924Y-16253736D01*
X30869924Y-16253736D02*
X30927067Y-16272784D01*
X30927067Y-16272784D02*
X30955639Y-16291831D01*
X30955639Y-16291831D02*
X30984210Y-16329927D01*
X30984210Y-16329927D02*
X30984210Y-16348974D01*
X30320000Y-15787508D02*
X37350000Y-15787508D01*
X37350000Y-16880000D01*
X30320000Y-16880000D01*
X30320000Y-15787508D01*
X27471353Y-11227650D02*
X27385639Y-11256222D01*
X27385639Y-11256222D02*
X27357068Y-11284793D01*
X27357068Y-11284793D02*
X27328496Y-11341936D01*
X27328496Y-11341936D02*
X27328496Y-11427650D01*
X27328496Y-11427650D02*
X27357068Y-11484793D01*
X27357068Y-11484793D02*
X27385639Y-11513365D01*
X27385639Y-11513365D02*
X27442782Y-11541936D01*
X27442782Y-11541936D02*
X27671353Y-11541936D01*
X27671353Y-11541936D02*
X27671353Y-10941936D01*
X27671353Y-10941936D02*
X27471353Y-10941936D01*
X27471353Y-10941936D02*
X27414211Y-10970507D01*
X27414211Y-10970507D02*
X27385639Y-10999079D01*
X27385639Y-10999079D02*
X27357068Y-11056222D01*
X27357068Y-11056222D02*
X27357068Y-11113365D01*
X27357068Y-11113365D02*
X27385639Y-11170507D01*
X27385639Y-11170507D02*
X27414211Y-11199079D01*
X27414211Y-11199079D02*
X27471353Y-11227650D01*
X27471353Y-11227650D02*
X27671353Y-11227650D01*
X27071353Y-11541936D02*
X27071353Y-11141936D01*
X27071353Y-11256222D02*
X27042782Y-11199079D01*
X27042782Y-11199079D02*
X27014211Y-11170507D01*
X27014211Y-11170507D02*
X26957068Y-11141936D01*
X26957068Y-11141936D02*
X26899925Y-11141936D01*
X26699924Y-11541936D02*
X26699924Y-11141936D01*
X26699924Y-10941936D02*
X26728496Y-10970507D01*
X26728496Y-10970507D02*
X26699924Y-10999079D01*
X26699924Y-10999079D02*
X26671353Y-10970507D01*
X26671353Y-10970507D02*
X26699924Y-10941936D01*
X26699924Y-10941936D02*
X26699924Y-10999079D01*
X26157068Y-11541936D02*
X26157068Y-10941936D01*
X26157068Y-11513365D02*
X26214210Y-11541936D01*
X26214210Y-11541936D02*
X26328496Y-11541936D01*
X26328496Y-11541936D02*
X26385639Y-11513365D01*
X26385639Y-11513365D02*
X26414210Y-11484793D01*
X26414210Y-11484793D02*
X26442782Y-11427650D01*
X26442782Y-11427650D02*
X26442782Y-11256222D01*
X26442782Y-11256222D02*
X26414210Y-11199079D01*
X26414210Y-11199079D02*
X26385639Y-11170507D01*
X26385639Y-11170507D02*
X26328496Y-11141936D01*
X26328496Y-11141936D02*
X26214210Y-11141936D01*
X26214210Y-11141936D02*
X26157068Y-11170507D01*
X25614211Y-11141936D02*
X25614211Y-11627650D01*
X25614211Y-11627650D02*
X25642782Y-11684793D01*
X25642782Y-11684793D02*
X25671353Y-11713365D01*
X25671353Y-11713365D02*
X25728496Y-11741936D01*
X25728496Y-11741936D02*
X25814211Y-11741936D01*
X25814211Y-11741936D02*
X25871353Y-11713365D01*
X25614211Y-11513365D02*
X25671353Y-11541936D01*
X25671353Y-11541936D02*
X25785639Y-11541936D01*
X25785639Y-11541936D02*
X25842782Y-11513365D01*
X25842782Y-11513365D02*
X25871353Y-11484793D01*
X25871353Y-11484793D02*
X25899925Y-11427650D01*
X25899925Y-11427650D02*
X25899925Y-11256222D01*
X25899925Y-11256222D02*
X25871353Y-11199079D01*
X25871353Y-11199079D02*
X25842782Y-11170507D01*
X25842782Y-11170507D02*
X25785639Y-11141936D01*
X25785639Y-11141936D02*
X25671353Y-11141936D01*
X25671353Y-11141936D02*
X25614211Y-11170507D01*
X25099925Y-11513365D02*
X25157068Y-11541936D01*
X25157068Y-11541936D02*
X25271354Y-11541936D01*
X25271354Y-11541936D02*
X25328496Y-11513365D01*
X25328496Y-11513365D02*
X25357068Y-11456222D01*
X25357068Y-11456222D02*
X25357068Y-11227650D01*
X25357068Y-11227650D02*
X25328496Y-11170507D01*
X25328496Y-11170507D02*
X25271354Y-11141936D01*
X25271354Y-11141936D02*
X25157068Y-11141936D01*
X25157068Y-11141936D02*
X25099925Y-11170507D01*
X25099925Y-11170507D02*
X25071354Y-11227650D01*
X25071354Y-11227650D02*
X25071354Y-11284793D01*
X25071354Y-11284793D02*
X25357068Y-11341936D01*
X27585639Y-12507902D02*
X27642782Y-12479331D01*
X27642782Y-12479331D02*
X27671353Y-12450759D01*
X27671353Y-12450759D02*
X27699925Y-12393616D01*
X27699925Y-12393616D02*
X27699925Y-12222188D01*
X27699925Y-12222188D02*
X27671353Y-12165045D01*
X27671353Y-12165045D02*
X27642782Y-12136473D01*
X27642782Y-12136473D02*
X27585639Y-12107902D01*
X27585639Y-12107902D02*
X27499925Y-12107902D01*
X27499925Y-12107902D02*
X27442782Y-12136473D01*
X27442782Y-12136473D02*
X27414211Y-12165045D01*
X27414211Y-12165045D02*
X27385639Y-12222188D01*
X27385639Y-12222188D02*
X27385639Y-12393616D01*
X27385639Y-12393616D02*
X27414211Y-12450759D01*
X27414211Y-12450759D02*
X27442782Y-12479331D01*
X27442782Y-12479331D02*
X27499925Y-12507902D01*
X27499925Y-12507902D02*
X27585639Y-12507902D01*
X27128496Y-12107902D02*
X27128496Y-12507902D01*
X27128496Y-12165045D02*
X27099925Y-12136473D01*
X27099925Y-12136473D02*
X27042782Y-12107902D01*
X27042782Y-12107902D02*
X26957068Y-12107902D01*
X26957068Y-12107902D02*
X26899925Y-12136473D01*
X26899925Y-12136473D02*
X26871354Y-12193616D01*
X26871354Y-12193616D02*
X26871354Y-12507902D01*
X26499925Y-12507902D02*
X26557068Y-12479331D01*
X26557068Y-12479331D02*
X26585639Y-12422188D01*
X26585639Y-12422188D02*
X26585639Y-11907902D01*
X26328496Y-12107902D02*
X26185639Y-12507902D01*
X26042782Y-12107902D02*
X26185639Y-12507902D01*
X26185639Y-12507902D02*
X26242782Y-12650759D01*
X26242782Y-12650759D02*
X26271353Y-12679331D01*
X26271353Y-12679331D02*
X26328496Y-12707902D01*
X25271353Y-12507902D02*
X25328496Y-12479331D01*
X25328496Y-12479331D02*
X25357067Y-12450759D01*
X25357067Y-12450759D02*
X25385639Y-12393616D01*
X25385639Y-12393616D02*
X25385639Y-12222188D01*
X25385639Y-12222188D02*
X25357067Y-12165045D01*
X25357067Y-12165045D02*
X25328496Y-12136473D01*
X25328496Y-12136473D02*
X25271353Y-12107902D01*
X25271353Y-12107902D02*
X25185639Y-12107902D01*
X25185639Y-12107902D02*
X25128496Y-12136473D01*
X25128496Y-12136473D02*
X25099925Y-12165045D01*
X25099925Y-12165045D02*
X25071353Y-12222188D01*
X25071353Y-12222188D02*
X25071353Y-12393616D01*
X25071353Y-12393616D02*
X25099925Y-12450759D01*
X25099925Y-12450759D02*
X25128496Y-12479331D01*
X25128496Y-12479331D02*
X25185639Y-12507902D01*
X25185639Y-12507902D02*
X25271353Y-12507902D01*
X24814210Y-12107902D02*
X24814210Y-12507902D01*
X24814210Y-12165045D02*
X24785639Y-12136473D01*
X24785639Y-12136473D02*
X24728496Y-12107902D01*
X24728496Y-12107902D02*
X24642782Y-12107902D01*
X24642782Y-12107902D02*
X24585639Y-12136473D01*
X24585639Y-12136473D02*
X24557068Y-12193616D01*
X24557068Y-12193616D02*
X24557068Y-12507902D01*
X24042782Y-12479331D02*
X24099925Y-12507902D01*
X24099925Y-12507902D02*
X24214211Y-12507902D01*
X24214211Y-12507902D02*
X24271353Y-12479331D01*
X24271353Y-12479331D02*
X24299925Y-12422188D01*
X24299925Y-12422188D02*
X24299925Y-12193616D01*
X24299925Y-12193616D02*
X24271353Y-12136473D01*
X24271353Y-12136473D02*
X24214211Y-12107902D01*
X24214211Y-12107902D02*
X24099925Y-12107902D01*
X24099925Y-12107902D02*
X24042782Y-12136473D01*
X24042782Y-12136473D02*
X24014211Y-12193616D01*
X24014211Y-12193616D02*
X24014211Y-12250759D01*
X24014211Y-12250759D02*
X24299925Y-12307902D01*
X23330000Y-10468565D02*
X28330000Y-10468565D01*
X28330000Y-17450000D01*
X23330000Y-17450000D01*
X23330000Y-10468565D01*
D12*
%TO.C,solderable_connection3*%
X23990000Y-15716267D02*
X23990000Y-15423733D01*
X25010000Y-15716267D02*
X25010000Y-15423733D01*
%TO.C,solderable_connection0*%
X35427500Y-19281233D02*
X35427500Y-19573767D01*
X36447500Y-19281233D02*
X36447500Y-19573767D01*
%TO.C,solderable_connection1*%
X18690000Y-15693767D02*
X18690000Y-15401233D01*
X19710000Y-15693767D02*
X19710000Y-15401233D01*
%TO.C,solderable_connection2*%
X21290000Y-15696267D02*
X21290000Y-15403733D01*
X22310000Y-15696267D02*
X22310000Y-15403733D01*
%TO.C,solderable_connection4*%
X26700000Y-15693767D02*
X26700000Y-15401233D01*
X27720000Y-15693767D02*
X27720000Y-15401233D01*
%TD*%
M02*
