%TF.GenerationSoftware,KiCad,Pcbnew,9.0.7*%
%TF.CreationDate,2026-03-06T14:27:00+01:00*%
%TF.ProjectId,adc board,61646320-626f-4617-9264-2e6b69636164,rev?*%
%TF.SameCoordinates,Original*%
%TF.FileFunction,Copper,L2,Bot*%
%TF.FilePolarity,Positive*%
%FSLAX46Y46*%
G04 Gerber Fmt 4.6, Leading zero omitted, Abs format (unit mm)*
G04 Created by KiCad (PCBNEW 9.0.7) date 2026-03-06 14:27:00*
%MOMM*%
%LPD*%
G01*
G04 APERTURE LIST*
G04 Aperture macros list*
%AMRoundRect*
0 Rectangle with rounded corners*
0 $1 Rounding radius*
0 $2 $3 $4 $5 $6 $7 $8 $9 X,Y pos of 4 corners*
0 Add a 4 corners polygon primitive as box body*
4,1,4,$2,$3,$4,$5,$6,$7,$8,$9,$2,$3,0*
0 Add four circle primitives for the rounded corners*
1,1,$1+$1,$2,$3*
1,1,$1+$1,$4,$5*
1,1,$1+$1,$6,$7*
1,1,$1+$1,$8,$9*
0 Add four rect primitives between the rounded corners*
20,1,$1+$1,$2,$3,$4,$5,0*
20,1,$1+$1,$4,$5,$6,$7,0*
20,1,$1+$1,$6,$7,$8,$9,0*
20,1,$1+$1,$8,$9,$2,$3,0*%
G04 Aperture macros list end*
%TA.AperFunction,ComponentPad*%
%ADD10RoundRect,0.250000X0.725000X-0.600000X0.725000X0.600000X-0.725000X0.600000X-0.725000X-0.600000X0*%
%TD*%
%TA.AperFunction,ComponentPad*%
%ADD11O,1.950000X1.700000*%
%TD*%
%TA.AperFunction,ComponentPad*%
%ADD12RoundRect,0.250000X-0.725000X0.600000X-0.725000X-0.600000X0.725000X-0.600000X0.725000X0.600000X0*%
%TD*%
%TA.AperFunction,SMDPad,CuDef*%
%ADD13RoundRect,0.237500X-0.237500X0.300000X-0.237500X-0.300000X0.237500X-0.300000X0.237500X0.300000X0*%
%TD*%
%TA.AperFunction,SMDPad,CuDef*%
%ADD14RoundRect,0.237500X0.237500X-0.300000X0.237500X0.300000X-0.237500X0.300000X-0.237500X-0.300000X0*%
%TD*%
%TA.AperFunction,ViaPad*%
%ADD15C,0.600000*%
%TD*%
%TA.AperFunction,Conductor*%
%ADD16C,0.200000*%
%TD*%
G04 APERTURE END LIST*
D10*
%TO.P,J1,1,Pin_1*%
%TO.N,AIN3*%
X13410000Y-31180000D03*
D11*
%TO.P,J1,2,Pin_2*%
%TO.N,AIN2*%
X13410000Y-28680000D03*
%TO.P,J1,3,Pin_3*%
%TO.N,AIN1*%
X13410000Y-26180000D03*
%TO.P,J1,4,Pin_4*%
%TO.N,AIN0*%
X13410000Y-23680000D03*
%TO.P,J1,5,Pin_5*%
%TO.N,GND*%
X13410000Y-21180000D03*
%TO.P,J1,6,Pin_6*%
%TO.N,+5V*%
X13410000Y-18680000D03*
%TD*%
D12*
%TO.P,J5,1,Pin_1*%
%TO.N,+5V*%
X33097500Y-18347500D03*
D11*
%TO.P,J5,2,Pin_2*%
%TO.N,+3.3V*%
X33097500Y-20847500D03*
%TO.P,J5,3,Pin_3*%
%TO.N,SCL*%
X33097500Y-23347500D03*
%TO.P,J5,4,Pin_4*%
%TO.N,SDA*%
X33097500Y-25847500D03*
%TO.P,J5,5,Pin_5*%
%TO.N,neg_DRDY*%
X33097500Y-28347500D03*
%TO.P,J5,6,Pin_6*%
%TO.N,neg_RESET*%
X33097500Y-30847500D03*
%TO.P,J5,7,Pin_7*%
%TO.N,GND*%
X33097500Y-33347500D03*
%TD*%
D13*
%TO.P,solderable_connection3,1*%
%TO.N,+5V*%
X24500000Y-14707500D03*
%TO.P,solderable_connection3,2*%
%TO.N,Net-(IC1-A0)*%
X24500000Y-16432500D03*
%TD*%
D14*
%TO.P,solderable_connection0,1*%
%TO.N,+3.3V*%
X35937500Y-20290000D03*
%TO.P,solderable_connection0,2*%
%TO.N,+5V*%
X35937500Y-18565000D03*
%TD*%
D13*
%TO.P,solderable_connection1,1*%
%TO.N,GND*%
X19200000Y-14685000D03*
%TO.P,solderable_connection1,2*%
%TO.N,Net-(IC1-A1)*%
X19200000Y-16410000D03*
%TD*%
%TO.P,solderable_connection2,1*%
%TO.N,+5V*%
X21800000Y-14687500D03*
%TO.P,solderable_connection2,2*%
%TO.N,Net-(IC1-A1)*%
X21800000Y-16412500D03*
%TD*%
%TO.P,solderable_connection4,1*%
%TO.N,GND*%
X27210000Y-14685000D03*
%TO.P,solderable_connection4,2*%
%TO.N,Net-(IC1-A0)*%
X27210000Y-16410000D03*
%TD*%
D15*
%TO.N,GND*%
X20000000Y-20000000D03*
X36000000Y-24000000D03*
X28000000Y-33000000D03*
X29000000Y-18000000D03*
X16000000Y-27500000D03*
X28000000Y-28000000D03*
%TO.N,+5V*%
X28568750Y-22568750D03*
%TO.N,Net-(IC1-A1)*%
X17588293Y-21915062D03*
%TO.N,SCL*%
X23000000Y-21500000D03*
%TO.N,AIN1*%
X23500000Y-25500000D03*
%TO.N,SDA*%
X23000000Y-22500000D03*
%TO.N,neg_DRDY*%
X23000000Y-23500000D03*
%TO.N,AIN0*%
X23500000Y-24500000D03*
%TO.N,Net-(IC1-A0)*%
X21000000Y-21500000D03*
%TD*%
D16*
%TO.N,GND*%
X32382500Y-33347500D02*
X33097500Y-33347500D01*
%TO.N,+5V*%
X20500000Y-13000000D02*
X22792500Y-13000000D01*
X28931250Y-22568750D02*
X33097500Y-18402500D01*
X33210000Y-18390000D02*
X35937500Y-18390000D01*
X22792500Y-13000000D02*
X24500000Y-14707500D01*
X21500000Y-14000000D02*
X21800000Y-14300000D01*
X13410000Y-18020000D02*
X18430000Y-13000000D01*
X13410000Y-18680000D02*
X13410000Y-18020000D01*
X20500000Y-13000000D02*
X21500000Y-14000000D01*
X21800000Y-14300000D02*
X21800000Y-14687500D01*
X28568750Y-22568750D02*
X28931250Y-22568750D01*
X27750000Y-13000000D02*
X33097500Y-18347500D01*
X18430000Y-13000000D02*
X20500000Y-13000000D01*
X33097500Y-18402500D02*
X33097500Y-18347500D01*
X32920000Y-18100000D02*
X33210000Y-18390000D01*
X22792500Y-13000000D02*
X27750000Y-13000000D01*
%TO.N,+3.3V*%
X35937500Y-20465000D02*
X33090000Y-20465000D01*
X33090000Y-20465000D02*
X32917500Y-20637500D01*
%TO.N,Net-(IC1-A1)*%
X18000000Y-17785000D02*
X18000000Y-21503355D01*
X17588293Y-21915062D02*
X17570855Y-21932500D01*
X18000000Y-17785000D02*
X19200000Y-16585000D01*
X19200000Y-16585000D02*
X19202500Y-16587500D01*
X19202500Y-16587500D02*
X21800000Y-16587500D01*
X18000000Y-21503355D02*
X17588293Y-21915062D01*
%TO.N,SCL*%
X28360000Y-23310000D02*
X33060000Y-23310000D01*
X26550000Y-21500000D02*
X28360000Y-23310000D01*
X23000000Y-21500000D02*
X26550000Y-21500000D01*
X33060000Y-23310000D02*
X33097500Y-23347500D01*
%TO.N,AIN1*%
X13410000Y-26180000D02*
X22820000Y-26180000D01*
X22820000Y-26180000D02*
X23500000Y-25500000D01*
%TO.N,SDA*%
X29537500Y-25847500D02*
X33097500Y-25847500D01*
X23000000Y-22500000D02*
X26190000Y-22500000D01*
X26190000Y-22500000D02*
X29537500Y-25847500D01*
%TO.N,neg_DRDY*%
X23000000Y-23500000D02*
X25910000Y-23500000D01*
X30700000Y-28290000D02*
X33040000Y-28290000D01*
X33040000Y-28290000D02*
X33097500Y-28347500D01*
X25910000Y-23500000D02*
X30700000Y-28290000D01*
%TO.N,AIN0*%
X15500000Y-25500000D02*
X22500000Y-25500000D01*
X15230000Y-25500000D02*
X15500000Y-25500000D01*
X13410000Y-23680000D02*
X15230000Y-25500000D01*
X22500000Y-25500000D02*
X23500000Y-24500000D01*
%TO.N,Net-(IC1-A0)*%
X24500000Y-16432500D02*
X27187500Y-16432500D01*
X27187500Y-16432500D02*
X27210000Y-16410000D01*
X21000000Y-21500000D02*
X24500000Y-18000000D01*
X24500000Y-18000000D02*
X24500000Y-16432500D01*
%TD*%
%TA.AperFunction,Conductor*%
%TO.N,GND*%
G36*
X37442539Y-10520185D02*
G01*
X37488294Y-10572989D01*
X37499500Y-10624500D01*
X37499500Y-34375500D01*
X37479815Y-34442539D01*
X37427011Y-34488294D01*
X37375500Y-34499500D01*
X34279050Y-34499500D01*
X34212011Y-34479815D01*
X34166256Y-34427011D01*
X34156312Y-34357853D01*
X34185337Y-34294297D01*
X34191369Y-34287819D01*
X34252223Y-34226964D01*
X34252227Y-34226959D01*
X34377120Y-34055057D01*
X34473595Y-33865717D01*
X34539257Y-33663629D01*
X34539257Y-33663626D01*
X34549731Y-33597500D01*
X33501646Y-33597500D01*
X33540130Y-33530843D01*
X33572500Y-33410035D01*
X33572500Y-33284965D01*
X33540130Y-33164157D01*
X33501646Y-33097500D01*
X34549731Y-33097500D01*
X34539257Y-33031373D01*
X34539257Y-33031370D01*
X34473595Y-32829282D01*
X34377120Y-32639942D01*
X34252227Y-32468040D01*
X34252223Y-32468035D01*
X34101964Y-32317776D01*
X34101959Y-32317772D01*
X33937281Y-32198127D01*
X33894615Y-32142797D01*
X33888636Y-32073184D01*
X33921241Y-32011389D01*
X33937276Y-31997494D01*
X34102292Y-31877604D01*
X34252604Y-31727292D01*
X34252606Y-31727288D01*
X34252609Y-31727286D01*
X34377548Y-31555320D01*
X34377547Y-31555320D01*
X34377551Y-31555316D01*
X34474057Y-31365912D01*
X34539746Y-31163743D01*
X34573000Y-30953787D01*
X34573000Y-30741213D01*
X34539746Y-30531257D01*
X34474057Y-30329088D01*
X34377551Y-30139684D01*
X34377549Y-30139681D01*
X34377548Y-30139679D01*
X34252609Y-29967713D01*
X34102292Y-29817396D01*
X34038309Y-29770910D01*
X33937704Y-29697816D01*
X33895040Y-29642489D01*
X33889061Y-29572876D01*
X33921666Y-29511080D01*
X33937699Y-29497186D01*
X34102292Y-29377604D01*
X34252604Y-29227292D01*
X34252606Y-29227288D01*
X34252609Y-29227286D01*
X34377548Y-29055320D01*
X34377550Y-29055317D01*
X34377551Y-29055316D01*
X34474057Y-28865912D01*
X34539746Y-28663743D01*
X34573000Y-28453787D01*
X34573000Y-28241213D01*
X34539746Y-28031257D01*
X34474057Y-27829088D01*
X34377551Y-27639684D01*
X34377549Y-27639681D01*
X34377548Y-27639679D01*
X34252609Y-27467713D01*
X34102292Y-27317396D01*
X34102284Y-27317390D01*
X33937704Y-27197816D01*
X33895040Y-27142489D01*
X33889061Y-27072876D01*
X33921666Y-27011080D01*
X33937699Y-26997186D01*
X34102292Y-26877604D01*
X34252604Y-26727292D01*
X34252606Y-26727288D01*
X34252609Y-26727286D01*
X34377548Y-26555320D01*
X34377547Y-26555320D01*
X34377551Y-26555316D01*
X34474057Y-26365912D01*
X34539746Y-26163743D01*
X34573000Y-25953787D01*
X34573000Y-25741213D01*
X34539746Y-25531257D01*
X34474057Y-25329088D01*
X34377551Y-25139684D01*
X34377549Y-25139681D01*
X34377548Y-25139679D01*
X34252609Y-24967713D01*
X34102292Y-24817396D01*
X34102284Y-24817390D01*
X33937704Y-24697816D01*
X33895040Y-24642489D01*
X33889061Y-24572876D01*
X33921666Y-24511080D01*
X33937699Y-24497186D01*
X34102292Y-24377604D01*
X34252604Y-24227292D01*
X34252606Y-24227288D01*
X34252609Y-24227286D01*
X34361586Y-24077289D01*
X34377551Y-24055316D01*
X34474057Y-23865912D01*
X34539746Y-23663743D01*
X34573000Y-23453787D01*
X34573000Y-23241213D01*
X34539746Y-23031257D01*
X34474057Y-22829088D01*
X34377551Y-22639684D01*
X34377549Y-22639681D01*
X34377548Y-22639679D01*
X34252609Y-22467713D01*
X34102292Y-22317396D01*
X34070430Y-22294247D01*
X33937704Y-22197816D01*
X33895040Y-22142489D01*
X33889061Y-22072876D01*
X33921666Y-22011080D01*
X33937699Y-21997186D01*
X34102292Y-21877604D01*
X34252604Y-21727292D01*
X34252606Y-21727288D01*
X34252609Y-21727286D01*
X34377548Y-21555320D01*
X34377547Y-21555320D01*
X34377551Y-21555316D01*
X34474057Y-21365912D01*
X34539746Y-21163743D01*
X34539745Y-21163743D01*
X34539747Y-21163740D01*
X34540511Y-21160558D01*
X34541133Y-21159473D01*
X34541252Y-21159109D01*
X34541328Y-21159133D01*
X34575299Y-21099964D01*
X34637324Y-21067798D01*
X34661086Y-21065500D01*
X35080448Y-21065500D01*
X35147487Y-21085185D01*
X35168129Y-21101819D01*
X35239150Y-21172840D01*
X35385984Y-21263408D01*
X35549747Y-21317674D01*
X35650823Y-21328000D01*
X36224176Y-21327999D01*
X36224184Y-21327998D01*
X36224187Y-21327998D01*
X36279530Y-21322344D01*
X36325253Y-21317674D01*
X36489016Y-21263408D01*
X36635850Y-21172840D01*
X36757840Y-21050850D01*
X36848408Y-20904016D01*
X36902674Y-20740253D01*
X36913000Y-20639177D01*
X36912999Y-19940824D01*
X36912052Y-19931557D01*
X36902674Y-19839747D01*
X36899441Y-19829990D01*
X36848408Y-19675984D01*
X36757840Y-19529150D01*
X36743871Y-19515181D01*
X36710386Y-19453858D01*
X36715370Y-19384166D01*
X36743871Y-19339819D01*
X36757840Y-19325850D01*
X36848408Y-19179016D01*
X36902674Y-19015253D01*
X36913000Y-18914177D01*
X36912999Y-18215824D01*
X36907458Y-18161585D01*
X36902674Y-18114747D01*
X36848408Y-17950984D01*
X36757840Y-17804150D01*
X36635850Y-17682160D01*
X36489016Y-17591592D01*
X36325253Y-17537326D01*
X36325251Y-17537325D01*
X36224178Y-17527000D01*
X35650830Y-17527000D01*
X35650812Y-17527001D01*
X35549747Y-17537325D01*
X35385984Y-17591592D01*
X35385981Y-17591593D01*
X35239148Y-17682161D01*
X35168129Y-17753181D01*
X35106806Y-17786666D01*
X35080448Y-17789500D01*
X34694376Y-17789500D01*
X34627337Y-17769815D01*
X34581582Y-17717011D01*
X34571018Y-17678101D01*
X34568136Y-17649890D01*
X34562499Y-17594703D01*
X34507314Y-17428166D01*
X34415212Y-17278844D01*
X34291156Y-17154788D01*
X34141834Y-17062686D01*
X33975297Y-17007501D01*
X33975295Y-17007500D01*
X33872516Y-16997000D01*
X33872509Y-16997000D01*
X32647597Y-16997000D01*
X32580558Y-16977315D01*
X32559916Y-16960681D01*
X28500812Y-12901577D01*
X32749500Y-12901577D01*
X32749500Y-13098422D01*
X32780290Y-13292826D01*
X32841117Y-13480029D01*
X32915103Y-13625233D01*
X32930476Y-13655405D01*
X33046172Y-13814646D01*
X33185354Y-13953828D01*
X33344595Y-14069524D01*
X33427455Y-14111743D01*
X33519970Y-14158882D01*
X33519972Y-14158882D01*
X33519975Y-14158884D01*
X33620317Y-14191487D01*
X33707173Y-14219709D01*
X33901578Y-14250500D01*
X33901583Y-14250500D01*
X34098422Y-14250500D01*
X34292826Y-14219709D01*
X34361796Y-14197299D01*
X34480025Y-14158884D01*
X34655405Y-14069524D01*
X34814646Y-13953828D01*
X34953828Y-13814646D01*
X35069524Y-13655405D01*
X35158884Y-13480025D01*
X35219709Y-13292826D01*
X35250500Y-13098422D01*
X35250500Y-12901577D01*
X35219709Y-12707173D01*
X35158882Y-12519970D01*
X35069523Y-12344594D01*
X34953828Y-12185354D01*
X34814646Y-12046172D01*
X34655405Y-11930476D01*
X34480029Y-11841117D01*
X34292826Y-11780290D01*
X34098422Y-11749500D01*
X34098417Y-11749500D01*
X33901583Y-11749500D01*
X33901578Y-11749500D01*
X33707173Y-11780290D01*
X33519970Y-11841117D01*
X33344594Y-11930476D01*
X33253741Y-11996485D01*
X33185354Y-12046172D01*
X33185352Y-12046174D01*
X33185351Y-12046174D01*
X33046174Y-12185351D01*
X33046174Y-12185352D01*
X33046172Y-12185354D01*
X32996485Y-12253741D01*
X32930476Y-12344594D01*
X32841117Y-12519970D01*
X32780290Y-12707173D01*
X32749500Y-12901577D01*
X28500812Y-12901577D01*
X28237590Y-12638355D01*
X28237588Y-12638352D01*
X28118717Y-12519481D01*
X28118716Y-12519480D01*
X28031904Y-12469360D01*
X28031904Y-12469359D01*
X28031900Y-12469358D01*
X27981785Y-12440423D01*
X27829057Y-12399499D01*
X27670943Y-12399499D01*
X27663347Y-12399499D01*
X27663331Y-12399500D01*
X22871561Y-12399500D01*
X22871557Y-12399499D01*
X22713443Y-12399499D01*
X22713439Y-12399500D01*
X20586669Y-12399500D01*
X20586653Y-12399499D01*
X20579057Y-12399499D01*
X20420943Y-12399499D01*
X20413347Y-12399499D01*
X20413331Y-12399500D01*
X18509057Y-12399500D01*
X18350943Y-12399500D01*
X18198215Y-12440423D01*
X18198214Y-12440423D01*
X18198212Y-12440424D01*
X18198209Y-12440425D01*
X18148096Y-12469359D01*
X18148095Y-12469360D01*
X18104689Y-12494420D01*
X18061285Y-12519479D01*
X18061282Y-12519481D01*
X17949478Y-12631286D01*
X13287584Y-17293181D01*
X13226261Y-17326666D01*
X13199903Y-17329500D01*
X13178713Y-17329500D01*
X13130042Y-17337208D01*
X12968760Y-17362753D01*
X12766585Y-17428444D01*
X12577179Y-17524951D01*
X12405213Y-17649890D01*
X12254890Y-17800213D01*
X12129951Y-17972179D01*
X12033444Y-18161585D01*
X11967753Y-18363760D01*
X11934500Y-18573713D01*
X11934500Y-18786286D01*
X11964769Y-18977401D01*
X11967754Y-18996243D01*
X12027141Y-19179018D01*
X12033444Y-19198414D01*
X12129951Y-19387820D01*
X12254890Y-19559786D01*
X12405209Y-19710105D01*
X12405214Y-19710109D01*
X12570218Y-19829991D01*
X12612884Y-19885320D01*
X12618863Y-19954934D01*
X12586258Y-20016729D01*
X12570218Y-20030627D01*
X12405540Y-20150272D01*
X12405535Y-20150276D01*
X12255276Y-20300535D01*
X12255272Y-20300540D01*
X12130379Y-20472442D01*
X12033904Y-20661782D01*
X11968242Y-20863870D01*
X11968242Y-20863873D01*
X11957769Y-20930000D01*
X13005854Y-20930000D01*
X12967370Y-20996657D01*
X12935000Y-21117465D01*
X12935000Y-21242535D01*
X12967370Y-21363343D01*
X13005854Y-21430000D01*
X11957769Y-21430000D01*
X11968242Y-21496126D01*
X11968242Y-21496129D01*
X12033904Y-21698217D01*
X12130379Y-21887557D01*
X12255272Y-22059459D01*
X12255276Y-22059464D01*
X12405535Y-22209723D01*
X12405540Y-22209727D01*
X12570218Y-22329372D01*
X12612884Y-22384701D01*
X12618863Y-22454315D01*
X12586258Y-22516110D01*
X12570218Y-22530008D01*
X12405214Y-22649890D01*
X12405209Y-22649894D01*
X12254890Y-22800213D01*
X12129951Y-22972179D01*
X12033444Y-23161585D01*
X11967753Y-23363760D01*
X11934500Y-23573713D01*
X11934500Y-23786286D01*
X11954852Y-23914787D01*
X11967754Y-23996243D01*
X12014503Y-24140122D01*
X12033444Y-24198414D01*
X12129951Y-24387820D01*
X12254890Y-24559786D01*
X12405209Y-24710105D01*
X12405214Y-24710109D01*
X12569793Y-24829682D01*
X12612459Y-24885011D01*
X12618438Y-24954625D01*
X12585833Y-25016420D01*
X12569793Y-25030318D01*
X12405214Y-25149890D01*
X12405209Y-25149894D01*
X12254890Y-25300213D01*
X12129951Y-25472179D01*
X12033444Y-25661585D01*
X11967753Y-25863760D01*
X11944545Y-26010289D01*
X11934500Y-26073713D01*
X11934500Y-26286287D01*
X11967754Y-26496243D01*
X12020858Y-26659681D01*
X12033444Y-26698414D01*
X12129951Y-26887820D01*
X12254890Y-27059786D01*
X12405209Y-27210105D01*
X12405214Y-27210109D01*
X12569793Y-27329682D01*
X12612459Y-27385011D01*
X12618438Y-27454625D01*
X12585833Y-27516420D01*
X12569793Y-27530318D01*
X12405214Y-27649890D01*
X12405209Y-27649894D01*
X12254890Y-27800213D01*
X12129951Y-27972179D01*
X12033444Y-28161585D01*
X11967753Y-28363760D01*
X11934500Y-28573713D01*
X11934500Y-28786287D01*
X11967754Y-28996243D01*
X11986949Y-29055320D01*
X12033444Y-29198414D01*
X12129951Y-29387820D01*
X12254890Y-29559786D01*
X12393705Y-29698601D01*
X12427190Y-29759924D01*
X12422206Y-29829616D01*
X12380334Y-29885549D01*
X12371121Y-29891821D01*
X12216342Y-29987289D01*
X12092289Y-30111342D01*
X12000187Y-30260663D01*
X12000186Y-30260666D01*
X11945001Y-30427203D01*
X11945001Y-30427204D01*
X11945000Y-30427204D01*
X11934500Y-30529983D01*
X11934500Y-31830001D01*
X11934501Y-31830018D01*
X11945000Y-31932796D01*
X11945001Y-31932799D01*
X11968115Y-32002551D01*
X12000186Y-32099334D01*
X12092288Y-32248656D01*
X12216344Y-32372712D01*
X12365666Y-32464814D01*
X12532203Y-32519999D01*
X12634991Y-32530500D01*
X14185008Y-32530499D01*
X14287797Y-32519999D01*
X14454334Y-32464814D01*
X14603656Y-32372712D01*
X14727712Y-32248656D01*
X14819814Y-32099334D01*
X14874999Y-31932797D01*
X14885500Y-31830009D01*
X14885499Y-30529992D01*
X14874999Y-30427203D01*
X14819814Y-30260666D01*
X14727712Y-30111344D01*
X14603656Y-29987288D01*
X14454334Y-29895186D01*
X14454333Y-29895185D01*
X14448878Y-29891821D01*
X14402154Y-29839873D01*
X14390931Y-29770910D01*
X14418775Y-29706828D01*
X14426272Y-29698623D01*
X14565104Y-29559792D01*
X14690051Y-29387816D01*
X14786557Y-29198412D01*
X14852246Y-28996243D01*
X14885500Y-28786287D01*
X14885500Y-28573713D01*
X14852246Y-28363757D01*
X14786557Y-28161588D01*
X14690051Y-27972184D01*
X14690049Y-27972181D01*
X14690048Y-27972179D01*
X14565109Y-27800213D01*
X14414792Y-27649896D01*
X14398948Y-27638385D01*
X14250204Y-27530316D01*
X14207540Y-27474989D01*
X14201561Y-27405376D01*
X14234166Y-27343580D01*
X14250199Y-27329686D01*
X14414792Y-27210104D01*
X14565104Y-27059792D01*
X14565106Y-27059788D01*
X14565109Y-27059786D01*
X14623661Y-26979193D01*
X14690051Y-26887816D01*
X14695254Y-26877605D01*
X14710235Y-26848205D01*
X14758209Y-26797409D01*
X14820719Y-26780500D01*
X22733331Y-26780500D01*
X22733347Y-26780501D01*
X22740943Y-26780501D01*
X22899054Y-26780501D01*
X22899057Y-26780501D01*
X23051785Y-26739577D01*
X23101904Y-26710639D01*
X23188716Y-26660520D01*
X23300520Y-26548716D01*
X23300520Y-26548714D01*
X23310728Y-26538507D01*
X23310729Y-26538504D01*
X23514661Y-26334572D01*
X23575983Y-26301089D01*
X23578150Y-26300638D01*
X23650300Y-26286286D01*
X23733497Y-26269737D01*
X23879179Y-26209394D01*
X24010289Y-26121789D01*
X24121789Y-26010289D01*
X24209394Y-25879179D01*
X24269737Y-25733497D01*
X24300500Y-25578842D01*
X24300500Y-25421158D01*
X24300500Y-25421155D01*
X24300499Y-25421153D01*
X24269738Y-25266510D01*
X24269737Y-25266503D01*
X24221437Y-25149896D01*
X24209396Y-25120825D01*
X24209394Y-25120822D01*
X24209394Y-25120821D01*
X24174694Y-25068889D01*
X24153816Y-25002215D01*
X24172300Y-24934835D01*
X24174676Y-24931136D01*
X24209394Y-24879179D01*
X24269737Y-24733497D01*
X24300500Y-24578842D01*
X24300500Y-24421158D01*
X24300500Y-24421155D01*
X24300499Y-24421153D01*
X24293868Y-24387816D01*
X24269737Y-24266503D01*
X24269732Y-24266492D01*
X24267969Y-24260676D01*
X24270720Y-24259841D01*
X24264497Y-24202641D01*
X24295691Y-24140122D01*
X24355734Y-24104392D01*
X24386555Y-24100500D01*
X25609903Y-24100500D01*
X25676942Y-24120185D01*
X25697584Y-24136819D01*
X30215139Y-28654374D01*
X30215149Y-28654385D01*
X30219479Y-28658715D01*
X30219480Y-28658716D01*
X30331284Y-28770520D01*
X30418095Y-28820639D01*
X30418097Y-28820641D01*
X30456151Y-28842611D01*
X30468215Y-28849577D01*
X30620943Y-28890501D01*
X30620946Y-28890501D01*
X30786653Y-28890501D01*
X30786669Y-28890500D01*
X31657484Y-28890500D01*
X31724523Y-28910185D01*
X31767969Y-28958206D01*
X31817449Y-29055317D01*
X31942390Y-29227286D01*
X32092709Y-29377605D01*
X32092714Y-29377609D01*
X32257293Y-29497182D01*
X32299959Y-29552511D01*
X32305938Y-29622125D01*
X32273333Y-29683920D01*
X32257293Y-29697818D01*
X32092714Y-29817390D01*
X32092709Y-29817394D01*
X31942390Y-29967713D01*
X31817451Y-30139679D01*
X31720944Y-30329085D01*
X31655253Y-30531260D01*
X31622000Y-30741213D01*
X31622000Y-30953786D01*
X31655253Y-31163739D01*
X31720944Y-31365914D01*
X31817451Y-31555320D01*
X31942390Y-31727286D01*
X32092709Y-31877605D01*
X32092714Y-31877609D01*
X32257718Y-31997491D01*
X32300384Y-32052820D01*
X32306363Y-32122434D01*
X32273758Y-32184229D01*
X32257718Y-32198127D01*
X32093040Y-32317772D01*
X32093035Y-32317776D01*
X31942776Y-32468035D01*
X31942772Y-32468040D01*
X31817879Y-32639942D01*
X31721404Y-32829282D01*
X31655742Y-33031370D01*
X31655742Y-33031373D01*
X31645269Y-33097500D01*
X32693354Y-33097500D01*
X32654870Y-33164157D01*
X32622500Y-33284965D01*
X32622500Y-33410035D01*
X32654870Y-33530843D01*
X32693354Y-33597500D01*
X31645269Y-33597500D01*
X31655742Y-33663626D01*
X31655742Y-33663629D01*
X31721404Y-33865717D01*
X31817879Y-34055057D01*
X31942772Y-34226959D01*
X31942776Y-34226964D01*
X32003631Y-34287819D01*
X32037116Y-34349142D01*
X32032132Y-34418834D01*
X31990260Y-34474767D01*
X31924796Y-34499184D01*
X31915950Y-34499500D01*
X10624500Y-34499500D01*
X10557461Y-34479815D01*
X10511706Y-34427011D01*
X10500500Y-34375500D01*
X10500500Y-32901577D01*
X22749500Y-32901577D01*
X22749500Y-33098422D01*
X22780290Y-33292826D01*
X22841117Y-33480029D01*
X22900972Y-33597500D01*
X22930476Y-33655405D01*
X23046172Y-33814646D01*
X23185354Y-33953828D01*
X23344595Y-34069524D01*
X23427455Y-34111743D01*
X23519970Y-34158882D01*
X23519972Y-34158882D01*
X23519975Y-34158884D01*
X23620317Y-34191487D01*
X23707173Y-34219709D01*
X23901578Y-34250500D01*
X23901583Y-34250500D01*
X24098422Y-34250500D01*
X24292826Y-34219709D01*
X24480025Y-34158884D01*
X24655405Y-34069524D01*
X24814646Y-33953828D01*
X24953828Y-33814646D01*
X25069524Y-33655405D01*
X25158884Y-33480025D01*
X25219709Y-33292826D01*
X25240088Y-33164157D01*
X25250500Y-33098422D01*
X25250500Y-32901577D01*
X25219709Y-32707173D01*
X25191487Y-32620317D01*
X25158884Y-32519975D01*
X25158882Y-32519972D01*
X25158882Y-32519970D01*
X25069523Y-32344594D01*
X24953828Y-32185354D01*
X24814646Y-32046172D01*
X24655405Y-31930476D01*
X24480029Y-31841117D01*
X24292826Y-31780290D01*
X24098422Y-31749500D01*
X24098417Y-31749500D01*
X23901583Y-31749500D01*
X23901578Y-31749500D01*
X23707173Y-31780290D01*
X23519970Y-31841117D01*
X23344594Y-31930476D01*
X23253741Y-31996485D01*
X23185354Y-32046172D01*
X23185352Y-32046174D01*
X23185351Y-32046174D01*
X23046174Y-32185351D01*
X23046174Y-32185352D01*
X23046172Y-32185354D01*
X23036892Y-32198127D01*
X22930476Y-32344594D01*
X22841117Y-32519970D01*
X22780290Y-32707173D01*
X22749500Y-32901577D01*
X10500500Y-32901577D01*
X10500500Y-12901577D01*
X12749500Y-12901577D01*
X12749500Y-13098422D01*
X12780290Y-13292826D01*
X12841117Y-13480029D01*
X12915103Y-13625233D01*
X12930476Y-13655405D01*
X13046172Y-13814646D01*
X13185354Y-13953828D01*
X13344595Y-14069524D01*
X13427455Y-14111743D01*
X13519970Y-14158882D01*
X13519972Y-14158882D01*
X13519975Y-14158884D01*
X13620317Y-14191487D01*
X13707173Y-14219709D01*
X13901578Y-14250500D01*
X13901583Y-14250500D01*
X14098422Y-14250500D01*
X14292826Y-14219709D01*
X14361796Y-14197299D01*
X14480025Y-14158884D01*
X14655405Y-14069524D01*
X14814646Y-13953828D01*
X14953828Y-13814646D01*
X15069524Y-13655405D01*
X15158884Y-13480025D01*
X15219709Y-13292826D01*
X15250500Y-13098422D01*
X15250500Y-12901577D01*
X15219709Y-12707173D01*
X15158882Y-12519970D01*
X15069523Y-12344594D01*
X14953828Y-12185354D01*
X14814646Y-12046172D01*
X14655405Y-11930476D01*
X14480029Y-11841117D01*
X14292826Y-11780290D01*
X14098422Y-11749500D01*
X14098417Y-11749500D01*
X13901583Y-11749500D01*
X13901578Y-11749500D01*
X13707173Y-11780290D01*
X13519970Y-11841117D01*
X13344594Y-11930476D01*
X13253741Y-11996485D01*
X13185354Y-12046172D01*
X13185352Y-12046174D01*
X13185351Y-12046174D01*
X13046174Y-12185351D01*
X13046174Y-12185352D01*
X13046172Y-12185354D01*
X12996485Y-12253741D01*
X12930476Y-12344594D01*
X12841117Y-12519970D01*
X12780290Y-12707173D01*
X12749500Y-12901577D01*
X10500500Y-12901577D01*
X10500500Y-10624500D01*
X10520185Y-10557461D01*
X10572989Y-10511706D01*
X10624500Y-10500500D01*
X37375500Y-10500500D01*
X37442539Y-10520185D01*
G37*
%TD.AperFunction*%
%TA.AperFunction,Conductor*%
G36*
X20266942Y-13620185D02*
G01*
X20287584Y-13636819D01*
X20798090Y-14147326D01*
X20831575Y-14208649D01*
X20833767Y-14247609D01*
X20824500Y-14338313D01*
X20824500Y-15036669D01*
X20824501Y-15036687D01*
X20834825Y-15137752D01*
X20889092Y-15301515D01*
X20889093Y-15301518D01*
X20979661Y-15448351D01*
X20993629Y-15462319D01*
X21027114Y-15523642D01*
X21022130Y-15593334D01*
X20993629Y-15637681D01*
X20979661Y-15651648D01*
X20889093Y-15798481D01*
X20889091Y-15798486D01*
X20854789Y-15902004D01*
X20815016Y-15959449D01*
X20750500Y-15986272D01*
X20737083Y-15987000D01*
X20263746Y-15987000D01*
X20196707Y-15967315D01*
X20150952Y-15914511D01*
X20146040Y-15902005D01*
X20146040Y-15902004D01*
X20110908Y-15795984D01*
X20020340Y-15649150D01*
X20006017Y-15634827D01*
X19972532Y-15573504D01*
X19977516Y-15503812D01*
X20006021Y-15459460D01*
X20019947Y-15445535D01*
X20110448Y-15298811D01*
X20110453Y-15298800D01*
X20164680Y-15135152D01*
X20174999Y-15034154D01*
X20175000Y-15034141D01*
X20175000Y-14935000D01*
X18225001Y-14935000D01*
X18225001Y-15034154D01*
X18235319Y-15135152D01*
X18289546Y-15298800D01*
X18289551Y-15298811D01*
X18380052Y-15445534D01*
X18380055Y-15445538D01*
X18393982Y-15459465D01*
X18427467Y-15520788D01*
X18422483Y-15590480D01*
X18393984Y-15634825D01*
X18379661Y-15649148D01*
X18289093Y-15795981D01*
X18289091Y-15795986D01*
X18281193Y-15819822D01*
X18234826Y-15959747D01*
X18234826Y-15959748D01*
X18234825Y-15959748D01*
X18224500Y-16060815D01*
X18224500Y-16659902D01*
X18204815Y-16726941D01*
X18188181Y-16747583D01*
X17519481Y-17416282D01*
X17519479Y-17416284D01*
X17497478Y-17454392D01*
X17488179Y-17470500D01*
X17440423Y-17553215D01*
X17399499Y-17705943D01*
X17399499Y-17705945D01*
X17399499Y-17874046D01*
X17399500Y-17874059D01*
X17399500Y-21043953D01*
X17379815Y-21110992D01*
X17327011Y-21156747D01*
X17322953Y-21158514D01*
X17209117Y-21205666D01*
X17209107Y-21205671D01*
X17078004Y-21293272D01*
X17078000Y-21293275D01*
X16966506Y-21404769D01*
X16966503Y-21404773D01*
X16878902Y-21535876D01*
X16878895Y-21535889D01*
X16818557Y-21681560D01*
X16818554Y-21681572D01*
X16787793Y-21836215D01*
X16787793Y-21993908D01*
X16818554Y-22148551D01*
X16818557Y-22148563D01*
X16878895Y-22294234D01*
X16878902Y-22294247D01*
X16966503Y-22425350D01*
X16966506Y-22425354D01*
X17078000Y-22536848D01*
X17078004Y-22536851D01*
X17209107Y-22624452D01*
X17209120Y-22624459D01*
X17354791Y-22684797D01*
X17354796Y-22684799D01*
X17509446Y-22715561D01*
X17509449Y-22715562D01*
X17509451Y-22715562D01*
X17667137Y-22715562D01*
X17667138Y-22715561D01*
X17821790Y-22684799D01*
X17967472Y-22624456D01*
X18098582Y-22536851D01*
X18210082Y-22425351D01*
X18297687Y-22294241D01*
X18358030Y-22148559D01*
X18388793Y-21993904D01*
X18388793Y-21993902D01*
X18388930Y-21993214D01*
X18421314Y-21931303D01*
X18422790Y-21929799D01*
X18480520Y-21872071D01*
X18559577Y-21735139D01*
X18600501Y-21582412D01*
X18600501Y-21424297D01*
X18600501Y-21416702D01*
X18600500Y-21416684D01*
X18600500Y-18085096D01*
X18620185Y-18018057D01*
X18636815Y-17997419D01*
X19149916Y-17484317D01*
X19211239Y-17450833D01*
X19237597Y-17447999D01*
X19486670Y-17447999D01*
X19486676Y-17447999D01*
X19587753Y-17437674D01*
X19751516Y-17383408D01*
X19898350Y-17292840D01*
X19966871Y-17224319D01*
X20028194Y-17190834D01*
X20054552Y-17188000D01*
X20942948Y-17188000D01*
X21009987Y-17207685D01*
X21030629Y-17224319D01*
X21101650Y-17295340D01*
X21248484Y-17385908D01*
X21412247Y-17440174D01*
X21513323Y-17450500D01*
X22086676Y-17450499D01*
X22086684Y-17450498D01*
X22086687Y-17450498D01*
X22142030Y-17444844D01*
X22187753Y-17440174D01*
X22351516Y-17385908D01*
X22498350Y-17295340D01*
X22620340Y-17173350D01*
X22710908Y-17026516D01*
X22765174Y-16862753D01*
X22775500Y-16761677D01*
X22775499Y-16063324D01*
X22775242Y-16060812D01*
X22765174Y-15962247D01*
X22764247Y-15959449D01*
X22710908Y-15798484D01*
X22620340Y-15651650D01*
X22606371Y-15637681D01*
X22572886Y-15576358D01*
X22577870Y-15506666D01*
X22606371Y-15462319D01*
X22609230Y-15459460D01*
X22620340Y-15448350D01*
X22710908Y-15301516D01*
X22765174Y-15137753D01*
X22775500Y-15036677D01*
X22775499Y-14338324D01*
X22775247Y-14335860D01*
X22765174Y-14237247D01*
X22759362Y-14219709D01*
X22723906Y-14112711D01*
X22721505Y-14042886D01*
X22757236Y-13982844D01*
X22819756Y-13951651D01*
X22889216Y-13959211D01*
X22929294Y-13986029D01*
X23488181Y-14544916D01*
X23521666Y-14606239D01*
X23524500Y-14632597D01*
X23524500Y-15056669D01*
X23524501Y-15056687D01*
X23534825Y-15157752D01*
X23571109Y-15267249D01*
X23589092Y-15321516D01*
X23665589Y-15445538D01*
X23679661Y-15468351D01*
X23693629Y-15482319D01*
X23727114Y-15543642D01*
X23722130Y-15613334D01*
X23693629Y-15657681D01*
X23679661Y-15671648D01*
X23589093Y-15818481D01*
X23589091Y-15818486D01*
X23588430Y-15820481D01*
X23534826Y-15982247D01*
X23534826Y-15982248D01*
X23534825Y-15982248D01*
X23524500Y-16083315D01*
X23524500Y-16781669D01*
X23524501Y-16781687D01*
X23534825Y-16882752D01*
X23560649Y-16960681D01*
X23589092Y-17046516D01*
X23679660Y-17193350D01*
X23801650Y-17315340D01*
X23840597Y-17339362D01*
X23887320Y-17391307D01*
X23899500Y-17444900D01*
X23899500Y-17699903D01*
X23879815Y-17766942D01*
X23863181Y-17787584D01*
X20985339Y-20665425D01*
X20924016Y-20698910D01*
X20921850Y-20699361D01*
X20766508Y-20730261D01*
X20766498Y-20730264D01*
X20620827Y-20790602D01*
X20620814Y-20790609D01*
X20489711Y-20878210D01*
X20489707Y-20878213D01*
X20378213Y-20989707D01*
X20378210Y-20989711D01*
X20290609Y-21120814D01*
X20290602Y-21120827D01*
X20230264Y-21266498D01*
X20230261Y-21266510D01*
X20199500Y-21421153D01*
X20199500Y-21578846D01*
X20230261Y-21733489D01*
X20230264Y-21733501D01*
X20290602Y-21879172D01*
X20290609Y-21879185D01*
X20378210Y-22010288D01*
X20378213Y-22010292D01*
X20489707Y-22121786D01*
X20489711Y-22121789D01*
X20620814Y-22209390D01*
X20620827Y-22209397D01*
X20758683Y-22266498D01*
X20766503Y-22269737D01*
X20921153Y-22300499D01*
X20921156Y-22300500D01*
X20921158Y-22300500D01*
X21078844Y-22300500D01*
X21078845Y-22300499D01*
X21233497Y-22269737D01*
X21379179Y-22209394D01*
X21510289Y-22121789D01*
X21621789Y-22010289D01*
X21709394Y-21879179D01*
X21769737Y-21733497D01*
X21799790Y-21582412D01*
X21800638Y-21578150D01*
X21809402Y-21561393D01*
X21813423Y-21542914D01*
X21832167Y-21517875D01*
X21833023Y-21516239D01*
X21834519Y-21514715D01*
X21987821Y-21361413D01*
X22049142Y-21327930D01*
X22118834Y-21332914D01*
X22174767Y-21374786D01*
X22199184Y-21440250D01*
X22199500Y-21449096D01*
X22199500Y-21578846D01*
X22230261Y-21733489D01*
X22230264Y-21733501D01*
X22290602Y-21879172D01*
X22290609Y-21879185D01*
X22325304Y-21931109D01*
X22346182Y-21997786D01*
X22327698Y-22065167D01*
X22325304Y-22068891D01*
X22290609Y-22120814D01*
X22290602Y-22120827D01*
X22230264Y-22266498D01*
X22230261Y-22266510D01*
X22199500Y-22421153D01*
X22199500Y-22578846D01*
X22230261Y-22733489D01*
X22230264Y-22733501D01*
X22290602Y-22879172D01*
X22290609Y-22879185D01*
X22325304Y-22931109D01*
X22346182Y-22997786D01*
X22327698Y-23065167D01*
X22325304Y-23068891D01*
X22290609Y-23120814D01*
X22290602Y-23120827D01*
X22230264Y-23266498D01*
X22230261Y-23266510D01*
X22199500Y-23421153D01*
X22199500Y-23578846D01*
X22230261Y-23733489D01*
X22230264Y-23733501D01*
X22290602Y-23879172D01*
X22290609Y-23879185D01*
X22378210Y-24010288D01*
X22378213Y-24010292D01*
X22489707Y-24121786D01*
X22489711Y-24121789D01*
X22620817Y-24209392D01*
X22620819Y-24209393D01*
X22620821Y-24209394D01*
X22638409Y-24216679D01*
X22663130Y-24236600D01*
X22688881Y-24255170D01*
X22690138Y-24258365D01*
X22692812Y-24260520D01*
X22702839Y-24290648D01*
X22714462Y-24320188D01*
X22714213Y-24324821D01*
X22714877Y-24326814D01*
X22712573Y-24355431D01*
X22699362Y-24421847D01*
X22666977Y-24483758D01*
X22665426Y-24485337D01*
X22287584Y-24863181D01*
X22226261Y-24896666D01*
X22199903Y-24899500D01*
X15530098Y-24899500D01*
X15463059Y-24879815D01*
X15442417Y-24863181D01*
X15152112Y-24572876D01*
X14838101Y-24258866D01*
X14804617Y-24197544D01*
X14807851Y-24132874D01*
X14852246Y-23996243D01*
X14885500Y-23786287D01*
X14885500Y-23573713D01*
X14852246Y-23363757D01*
X14786557Y-23161588D01*
X14690051Y-22972184D01*
X14690049Y-22972181D01*
X14690048Y-22972179D01*
X14565109Y-22800213D01*
X14414790Y-22649894D01*
X14414785Y-22649890D01*
X14249781Y-22530008D01*
X14207115Y-22474678D01*
X14201136Y-22405065D01*
X14233741Y-22343270D01*
X14249781Y-22329371D01*
X14414466Y-22209721D01*
X14564723Y-22059464D01*
X14564727Y-22059459D01*
X14689620Y-21887557D01*
X14786095Y-21698217D01*
X14851757Y-21496129D01*
X14851757Y-21496126D01*
X14862231Y-21430000D01*
X13814146Y-21430000D01*
X13852630Y-21363343D01*
X13885000Y-21242535D01*
X13885000Y-21117465D01*
X13852630Y-20996657D01*
X13814146Y-20930000D01*
X14862231Y-20930000D01*
X14851757Y-20863873D01*
X14851757Y-20863870D01*
X14786095Y-20661782D01*
X14689620Y-20472442D01*
X14564727Y-20300540D01*
X14564723Y-20300535D01*
X14414464Y-20150276D01*
X14414459Y-20150272D01*
X14249781Y-20030627D01*
X14207115Y-19975297D01*
X14201136Y-19905684D01*
X14233741Y-19843889D01*
X14249776Y-19829994D01*
X14414792Y-19710104D01*
X14565104Y-19559792D01*
X14565106Y-19559788D01*
X14565109Y-19559786D01*
X14690048Y-19387820D01*
X14690047Y-19387820D01*
X14690051Y-19387816D01*
X14786557Y-19198412D01*
X14852246Y-18996243D01*
X14885500Y-18786287D01*
X14885500Y-18573713D01*
X14852246Y-18363757D01*
X14786557Y-18161588D01*
X14690051Y-17972184D01*
X14591131Y-17836031D01*
X14567651Y-17770225D01*
X14583477Y-17702171D01*
X14603764Y-17675469D01*
X18013320Y-14265913D01*
X18074642Y-14232430D01*
X18144334Y-14237414D01*
X18200267Y-14279286D01*
X18224684Y-14344750D01*
X18225000Y-14353596D01*
X18225000Y-14435000D01*
X20174999Y-14435000D01*
X20174999Y-14335860D01*
X20174998Y-14335845D01*
X20164680Y-14234847D01*
X20110453Y-14071199D01*
X20110448Y-14071188D01*
X20019947Y-13924465D01*
X20019944Y-13924461D01*
X19907664Y-13812181D01*
X19897051Y-13792744D01*
X19882551Y-13776011D01*
X19880634Y-13762679D01*
X19874179Y-13750858D01*
X19875758Y-13728771D01*
X19872607Y-13706853D01*
X19878202Y-13694601D01*
X19879163Y-13681166D01*
X19892433Y-13663439D01*
X19901632Y-13643297D01*
X19912963Y-13636014D01*
X19921035Y-13625233D01*
X19941780Y-13617495D01*
X19960410Y-13605523D01*
X19982328Y-13602371D01*
X19986499Y-13600816D01*
X19995345Y-13600500D01*
X20199903Y-13600500D01*
X20266942Y-13620185D01*
G37*
%TD.AperFunction*%
%TA.AperFunction,Conductor*%
G36*
X26481694Y-13620185D02*
G01*
X26527449Y-13672989D01*
X26537393Y-13742147D01*
X26508368Y-13805703D01*
X26502336Y-13812181D01*
X26390055Y-13924461D01*
X26390052Y-13924465D01*
X26299551Y-14071188D01*
X26299546Y-14071199D01*
X26245319Y-14234847D01*
X26235000Y-14335845D01*
X26235000Y-14435000D01*
X28195223Y-14435000D01*
X28234024Y-14413813D01*
X28303716Y-14418797D01*
X28348063Y-14447298D01*
X31585681Y-17684916D01*
X31619166Y-17746239D01*
X31622000Y-17772597D01*
X31622000Y-18977401D01*
X31602315Y-19044440D01*
X31585681Y-19065082D01*
X28890404Y-21760359D01*
X28829081Y-21793844D01*
X28778532Y-21794295D01*
X28647595Y-21768250D01*
X28647592Y-21768250D01*
X28489908Y-21768250D01*
X28489905Y-21768250D01*
X28335260Y-21799011D01*
X28335248Y-21799014D01*
X28189577Y-21859352D01*
X28189564Y-21859359D01*
X28058464Y-21946958D01*
X28058458Y-21946962D01*
X28040007Y-21965414D01*
X27978683Y-21998898D01*
X27908992Y-21993912D01*
X27864647Y-21965412D01*
X27037590Y-21138355D01*
X27037588Y-21138352D01*
X26918717Y-21019481D01*
X26918716Y-21019480D01*
X26831904Y-20969360D01*
X26831904Y-20969359D01*
X26831900Y-20969358D01*
X26781785Y-20940423D01*
X26629057Y-20899499D01*
X26470943Y-20899499D01*
X26463347Y-20899499D01*
X26463331Y-20899500D01*
X23579766Y-20899500D01*
X23512727Y-20879815D01*
X23510875Y-20878602D01*
X23379185Y-20790609D01*
X23379172Y-20790602D01*
X23233501Y-20730264D01*
X23233489Y-20730261D01*
X23078845Y-20699500D01*
X23078842Y-20699500D01*
X22949097Y-20699500D01*
X22882058Y-20679815D01*
X22836303Y-20627011D01*
X22826359Y-20557853D01*
X22855384Y-20494297D01*
X22861416Y-20487819D01*
X24358734Y-18990500D01*
X24858506Y-18490727D01*
X24858511Y-18490724D01*
X24868714Y-18480520D01*
X24868716Y-18480520D01*
X24980520Y-18368716D01*
X25059577Y-18231784D01*
X25100500Y-18079057D01*
X25100500Y-17444900D01*
X25120185Y-17377861D01*
X25159401Y-17339363D01*
X25198350Y-17315340D01*
X25320340Y-17193350D01*
X25344125Y-17154788D01*
X25382914Y-17091903D01*
X25434862Y-17045178D01*
X25488452Y-17033000D01*
X26235426Y-17033000D01*
X26302465Y-17052685D01*
X26340964Y-17091903D01*
X26389657Y-17170846D01*
X26389660Y-17170850D01*
X26511650Y-17292840D01*
X26658484Y-17383408D01*
X26822247Y-17437674D01*
X26923323Y-17448000D01*
X27496676Y-17447999D01*
X27496684Y-17447998D01*
X27496687Y-17447998D01*
X27573279Y-17440174D01*
X27597753Y-17437674D01*
X27761516Y-17383408D01*
X27908350Y-17292840D01*
X28030340Y-17170850D01*
X28120908Y-17024016D01*
X28175174Y-16860253D01*
X28185500Y-16759177D01*
X28185499Y-16060824D01*
X28177472Y-15982248D01*
X28175174Y-15959747D01*
X28156040Y-15902005D01*
X28120908Y-15795984D01*
X28030340Y-15649150D01*
X28016017Y-15634827D01*
X27982532Y-15573504D01*
X27987516Y-15503812D01*
X28016021Y-15459460D01*
X28029947Y-15445535D01*
X28120448Y-15298811D01*
X28120453Y-15298800D01*
X28174680Y-15135152D01*
X28184999Y-15034154D01*
X28185000Y-15034141D01*
X28185000Y-14935000D01*
X26235001Y-14935000D01*
X26235001Y-15034154D01*
X26245319Y-15135152D01*
X26299546Y-15298800D01*
X26299551Y-15298811D01*
X26390052Y-15445534D01*
X26390055Y-15445538D01*
X26403982Y-15459465D01*
X26437467Y-15520788D01*
X26432483Y-15590480D01*
X26419062Y-15616545D01*
X26412399Y-15626410D01*
X26389660Y-15649150D01*
X26311865Y-15775274D01*
X26310431Y-15777399D01*
X26285414Y-15798097D01*
X26261261Y-15819822D01*
X26258359Y-15820481D01*
X26256598Y-15821939D01*
X26246683Y-15823134D01*
X26207670Y-15832000D01*
X25488452Y-15832000D01*
X25421413Y-15812315D01*
X25382914Y-15773097D01*
X25320342Y-15671653D01*
X25320339Y-15671649D01*
X25306371Y-15657681D01*
X25272886Y-15596358D01*
X25277870Y-15526666D01*
X25306371Y-15482319D01*
X25320340Y-15468350D01*
X25410908Y-15321516D01*
X25465174Y-15157753D01*
X25475500Y-15056677D01*
X25475499Y-14358324D01*
X25474112Y-14344750D01*
X25465174Y-14257247D01*
X25458602Y-14237414D01*
X25410908Y-14093484D01*
X25320340Y-13946650D01*
X25198350Y-13824660D01*
X25194690Y-13821766D01*
X25154313Y-13764744D01*
X25151175Y-13694945D01*
X25186271Y-13634529D01*
X25248459Y-13602679D01*
X25271601Y-13600500D01*
X26414655Y-13600500D01*
X26481694Y-13620185D01*
G37*
%TD.AperFunction*%
%TD*%
M02*
