%TF.GenerationSoftware,KiCad,Pcbnew,9.0.7*%
%TF.CreationDate,2026-03-06T14:27:00+01:00*%
%TF.ProjectId,adc board,61646320-626f-4617-9264-2e6b69636164,rev?*%
%TF.SameCoordinates,Original*%
%TF.FileFunction,Copper,L1,Top*%
%TF.FilePolarity,Positive*%
%FSLAX46Y46*%
G04 Gerber Fmt 4.6, Leading zero omitted, Abs format (unit mm)*
G04 Created by KiCad (PCBNEW 9.0.7) date 2026-03-06 14:27:00*
%MOMM*%
%LPD*%
G01*
G04 APERTURE LIST*
G04 Aperture macros list*
%AMRoundRect*
0 Rectangle with rounded corners*
0 $1 Rounding radius*
0 $2 $3 $4 $5 $6 $7 $8 $9 X,Y pos of 4 corners*
0 Add a 4 corners polygon primitive as box body*
4,1,4,$2,$3,$4,$5,$6,$7,$8,$9,$2,$3,0*
0 Add four circle primitives for the rounded corners*
1,1,$1+$1,$2,$3*
1,1,$1+$1,$4,$5*
1,1,$1+$1,$6,$7*
1,1,$1+$1,$8,$9*
0 Add four rect primitives between the rounded corners*
20,1,$1+$1,$2,$3,$4,$5,0*
20,1,$1+$1,$4,$5,$6,$7,0*
20,1,$1+$1,$6,$7,$8,$9,0*
20,1,$1+$1,$8,$9,$2,$3,0*%
G04 Aperture macros list end*
%TA.AperFunction,SMDPad,CuDef*%
%ADD10R,1.475000X0.450000*%
%TD*%
%TA.AperFunction,ComponentPad*%
%ADD11RoundRect,0.250000X0.725000X-0.600000X0.725000X0.600000X-0.725000X0.600000X-0.725000X-0.600000X0*%
%TD*%
%TA.AperFunction,ComponentPad*%
%ADD12O,1.950000X1.700000*%
%TD*%
%TA.AperFunction,ComponentPad*%
%ADD13RoundRect,0.250000X-0.725000X0.600000X-0.725000X-0.600000X0.725000X-0.600000X0.725000X0.600000X0*%
%TD*%
%TA.AperFunction,SMDPad,CuDef*%
%ADD14RoundRect,0.237500X-0.300000X-0.237500X0.300000X-0.237500X0.300000X0.237500X-0.300000X0.237500X0*%
%TD*%
%TA.AperFunction,SMDPad,CuDef*%
%ADD15RoundRect,0.237500X-0.237500X0.300000X-0.237500X-0.300000X0.237500X-0.300000X0.237500X0.300000X0*%
%TD*%
%TA.AperFunction,ViaPad*%
%ADD16C,0.600000*%
%TD*%
%TA.AperFunction,Conductor*%
%ADD17C,0.200000*%
%TD*%
G04 APERTURE END LIST*
D10*
%TO.P,IC1,1,A0*%
%TO.N,Net-(IC1-A0)*%
X19042000Y-21257500D03*
%TO.P,IC1,2,A1*%
%TO.N,Net-(IC1-A1)*%
X19042000Y-21907500D03*
%TO.P,IC1,3,~{RESET}*%
%TO.N,neg_RESET*%
X19042000Y-22557500D03*
%TO.P,IC1,4,DGND*%
%TO.N,GND*%
X19042000Y-23207500D03*
%TO.P,IC1,5,AVSS*%
X19042000Y-23857500D03*
%TO.P,IC1,6,AIN3*%
%TO.N,AIN3*%
X19042000Y-24507500D03*
%TO.P,IC1,7,AIN2*%
%TO.N,AIN2*%
X19042000Y-25157500D03*
%TO.P,IC1,8,REFN*%
%TO.N,GND*%
X19042000Y-25807500D03*
%TO.P,IC1,9,REFP*%
%TO.N,+5V*%
X24918000Y-25807500D03*
%TO.P,IC1,10,AIN1*%
%TO.N,AIN1*%
X24918000Y-25157500D03*
%TO.P,IC1,11,AIN0*%
%TO.N,AIN0*%
X24918000Y-24507500D03*
%TO.P,IC1,12,AVDD*%
%TO.N,+5V*%
X24918000Y-23857500D03*
%TO.P,IC1,13,DVDD*%
%TO.N,+3.3V*%
X24918000Y-23207500D03*
%TO.P,IC1,14,~{DRDY}*%
%TO.N,neg_DRDY*%
X24918000Y-22557500D03*
%TO.P,IC1,15,SDA*%
%TO.N,SDA*%
X24918000Y-21907500D03*
%TO.P,IC1,16,SCL*%
%TO.N,SCL*%
X24918000Y-21257500D03*
%TD*%
D11*
%TO.P,J1,1,Pin_1*%
%TO.N,AIN3*%
X13410000Y-31180000D03*
D12*
%TO.P,J1,2,Pin_2*%
%TO.N,AIN2*%
X13410000Y-28680000D03*
%TO.P,J1,3,Pin_3*%
%TO.N,AIN1*%
X13410000Y-26180000D03*
%TO.P,J1,4,Pin_4*%
%TO.N,AIN0*%
X13410000Y-23680000D03*
%TO.P,J1,5,Pin_5*%
%TO.N,GND*%
X13410000Y-21180000D03*
%TO.P,J1,6,Pin_6*%
%TO.N,+5V*%
X13410000Y-18680000D03*
%TD*%
D13*
%TO.P,J5,1,Pin_1*%
%TO.N,+5V*%
X33097500Y-18347500D03*
D12*
%TO.P,J5,2,Pin_2*%
%TO.N,+3.3V*%
X33097500Y-20847500D03*
%TO.P,J5,3,Pin_3*%
%TO.N,SCL*%
X33097500Y-23347500D03*
%TO.P,J5,4,Pin_4*%
%TO.N,SDA*%
X33097500Y-25847500D03*
%TO.P,J5,5,Pin_5*%
%TO.N,neg_DRDY*%
X33097500Y-28347500D03*
%TO.P,J5,6,Pin_6*%
%TO.N,neg_RESET*%
X33097500Y-30847500D03*
%TO.P,J5,7,Pin_7*%
%TO.N,GND*%
X33097500Y-33347500D03*
%TD*%
D14*
%TO.P,C2,1*%
%TO.N,+5V*%
X27137500Y-24000000D03*
%TO.P,C2,2*%
%TO.N,GND*%
X28862500Y-24000000D03*
%TD*%
D15*
%TO.P,C4,1*%
%TO.N,GND*%
X27240000Y-19917500D03*
%TO.P,C4,2*%
%TO.N,+3.3V*%
X27240000Y-21642500D03*
%TD*%
D14*
%TO.P,C1,1*%
%TO.N,+5V*%
X27137500Y-25500000D03*
%TO.P,C1,2*%
%TO.N,GND*%
X28862500Y-25500000D03*
%TD*%
D16*
%TO.N,GND*%
X20000000Y-20000000D03*
X36000000Y-24000000D03*
X28000000Y-33000000D03*
X29000000Y-18000000D03*
X16000000Y-27500000D03*
X28000000Y-28000000D03*
%TO.N,+5V*%
X28568750Y-22568750D03*
%TO.N,Net-(IC1-A1)*%
X17588293Y-21915062D03*
%TO.N,SCL*%
X23000000Y-21500000D03*
%TO.N,AIN1*%
X23500000Y-25500000D03*
%TO.N,SDA*%
X23000000Y-22500000D03*
%TO.N,neg_DRDY*%
X23000000Y-23500000D03*
%TO.N,AIN0*%
X23500000Y-24500000D03*
%TO.N,Net-(IC1-A0)*%
X21000000Y-21500000D03*
%TD*%
D17*
%TO.N,GND*%
X19042000Y-23857500D02*
X17142500Y-23857500D01*
X16000000Y-27500000D02*
X17692500Y-25807500D01*
X19042000Y-23207500D02*
X19042000Y-23857500D01*
X17692500Y-25807500D02*
X19042000Y-25807500D01*
X19042000Y-23207500D02*
X17207500Y-23207500D01*
%TO.N,+5V*%
X27137500Y-24000000D02*
X26995000Y-23857500D01*
X28568750Y-22568750D02*
X27137500Y-24000000D01*
X27137500Y-25500000D02*
X26830000Y-25807500D01*
X26995000Y-23857500D02*
X24918000Y-23857500D01*
X26830000Y-25807500D02*
X24918000Y-25807500D01*
X24970000Y-25859500D02*
X24918000Y-25807500D01*
X27137500Y-25500000D02*
X27137500Y-24000000D01*
%TO.N,+3.3V*%
X24918000Y-23207500D02*
X25850000Y-23207500D01*
X28035000Y-20847500D02*
X27240000Y-21642500D01*
X25850000Y-23207500D02*
X27415000Y-21642500D01*
X33097500Y-20847500D02*
X28035000Y-20847500D01*
%TO.N,Net-(IC1-A1)*%
X17595855Y-21907500D02*
X17588293Y-21915062D01*
X19042000Y-21907500D02*
X17595855Y-21907500D01*
%TO.N,SCL*%
X24794000Y-21381500D02*
X24918000Y-21257500D01*
X23000000Y-21500000D02*
X23242500Y-21257500D01*
X23242500Y-21257500D02*
X24918000Y-21257500D01*
%TO.N,AIN1*%
X23500000Y-25500000D02*
X23842500Y-25157500D01*
X23842500Y-25157500D02*
X24918000Y-25157500D01*
%TO.N,AIN2*%
X16932500Y-25157500D02*
X13410000Y-28680000D01*
X19042000Y-25157500D02*
X16932500Y-25157500D01*
%TO.N,SDA*%
X23592500Y-21907500D02*
X23000000Y-22500000D01*
X24918000Y-21907500D02*
X23592500Y-21907500D01*
%TO.N,neg_DRDY*%
X23038000Y-23500000D02*
X23980500Y-22557500D01*
X23000000Y-23500000D02*
X23038000Y-23500000D01*
X23980500Y-22557500D02*
X24918000Y-22557500D01*
%TO.N,AIN3*%
X14320000Y-30280000D02*
X14310000Y-30280000D01*
X19954500Y-24507500D02*
X19042000Y-24507500D01*
X14320000Y-30280000D02*
X18267500Y-26332500D01*
X20079500Y-26332500D02*
X20079500Y-24632500D01*
X20079500Y-24632500D02*
X19954500Y-24507500D01*
X14310000Y-30280000D02*
X13410000Y-31180000D01*
X18267500Y-26332500D02*
X20079500Y-26332500D01*
%TO.N,AIN0*%
X24910500Y-24500000D02*
X24918000Y-24507500D01*
X23500000Y-24500000D02*
X24910500Y-24500000D01*
%TO.N,neg_RESET*%
X19979500Y-22557500D02*
X19042000Y-22557500D01*
X22500000Y-25078000D02*
X19979500Y-22557500D01*
X33097500Y-30847500D02*
X32250000Y-30000000D01*
X26500000Y-30000000D02*
X22500000Y-26000000D01*
X22500000Y-26000000D02*
X22500000Y-25078000D01*
X32250000Y-30000000D02*
X26500000Y-30000000D01*
%TO.N,Net-(IC1-A0)*%
X20757500Y-21257500D02*
X19042000Y-21257500D01*
X21000000Y-21500000D02*
X20757500Y-21257500D01*
%TD*%
%TA.AperFunction,Conductor*%
%TO.N,GND*%
G36*
X37442539Y-10520185D02*
G01*
X37488294Y-10572989D01*
X37499500Y-10624500D01*
X37499500Y-34375500D01*
X37479815Y-34442539D01*
X37427011Y-34488294D01*
X37375500Y-34499500D01*
X34279050Y-34499500D01*
X34212011Y-34479815D01*
X34166256Y-34427011D01*
X34156312Y-34357853D01*
X34185337Y-34294297D01*
X34191369Y-34287819D01*
X34252223Y-34226964D01*
X34252227Y-34226959D01*
X34377120Y-34055057D01*
X34473595Y-33865717D01*
X34539257Y-33663629D01*
X34539257Y-33663626D01*
X34549731Y-33597500D01*
X33501646Y-33597500D01*
X33540130Y-33530843D01*
X33572500Y-33410035D01*
X33572500Y-33284965D01*
X33540130Y-33164157D01*
X33501646Y-33097500D01*
X34549731Y-33097500D01*
X34539257Y-33031373D01*
X34539257Y-33031370D01*
X34473595Y-32829282D01*
X34377120Y-32639942D01*
X34252227Y-32468040D01*
X34252223Y-32468035D01*
X34101964Y-32317776D01*
X34101959Y-32317772D01*
X33937281Y-32198127D01*
X33894615Y-32142797D01*
X33888636Y-32073184D01*
X33921241Y-32011389D01*
X33937276Y-31997494D01*
X34102292Y-31877604D01*
X34252604Y-31727292D01*
X34252606Y-31727288D01*
X34252609Y-31727286D01*
X34377548Y-31555320D01*
X34377547Y-31555320D01*
X34377551Y-31555316D01*
X34474057Y-31365912D01*
X34539746Y-31163743D01*
X34573000Y-30953787D01*
X34573000Y-30741213D01*
X34539746Y-30531257D01*
X34474057Y-30329088D01*
X34377551Y-30139684D01*
X34377549Y-30139681D01*
X34377548Y-30139679D01*
X34252609Y-29967713D01*
X34102292Y-29817396D01*
X33937704Y-29697816D01*
X33895040Y-29642489D01*
X33889061Y-29572876D01*
X33921666Y-29511080D01*
X33937699Y-29497186D01*
X34102292Y-29377604D01*
X34252604Y-29227292D01*
X34252606Y-29227288D01*
X34252609Y-29227286D01*
X34377548Y-29055320D01*
X34377547Y-29055320D01*
X34377551Y-29055316D01*
X34474057Y-28865912D01*
X34539746Y-28663743D01*
X34573000Y-28453787D01*
X34573000Y-28241213D01*
X34539746Y-28031257D01*
X34474057Y-27829088D01*
X34377551Y-27639684D01*
X34377549Y-27639681D01*
X34377548Y-27639679D01*
X34252609Y-27467713D01*
X34102292Y-27317396D01*
X34102284Y-27317390D01*
X33937704Y-27197816D01*
X33895040Y-27142489D01*
X33889061Y-27072876D01*
X33921666Y-27011080D01*
X33937699Y-26997186D01*
X34102292Y-26877604D01*
X34252604Y-26727292D01*
X34252606Y-26727288D01*
X34252609Y-26727286D01*
X34377548Y-26555320D01*
X34377547Y-26555320D01*
X34377551Y-26555316D01*
X34474057Y-26365912D01*
X34539746Y-26163743D01*
X34573000Y-25953787D01*
X34573000Y-25741213D01*
X34539746Y-25531257D01*
X34474057Y-25329088D01*
X34377551Y-25139684D01*
X34377549Y-25139681D01*
X34377548Y-25139679D01*
X34252609Y-24967713D01*
X34102292Y-24817396D01*
X34062913Y-24788786D01*
X33937704Y-24697816D01*
X33895040Y-24642489D01*
X33889061Y-24572876D01*
X33921666Y-24511080D01*
X33937699Y-24497186D01*
X34102292Y-24377604D01*
X34252604Y-24227292D01*
X34252606Y-24227288D01*
X34252609Y-24227286D01*
X34377548Y-24055320D01*
X34377547Y-24055320D01*
X34377551Y-24055316D01*
X34474057Y-23865912D01*
X34539746Y-23663743D01*
X34573000Y-23453787D01*
X34573000Y-23241213D01*
X34539746Y-23031257D01*
X34474057Y-22829088D01*
X34377551Y-22639684D01*
X34377549Y-22639681D01*
X34377548Y-22639679D01*
X34252609Y-22467713D01*
X34102292Y-22317396D01*
X34070430Y-22294247D01*
X33937704Y-22197816D01*
X33895040Y-22142489D01*
X33889061Y-22072876D01*
X33921666Y-22011080D01*
X33937699Y-21997186D01*
X34102292Y-21877604D01*
X34252604Y-21727292D01*
X34252606Y-21727288D01*
X34252609Y-21727286D01*
X34377548Y-21555320D01*
X34377547Y-21555320D01*
X34377551Y-21555316D01*
X34474057Y-21365912D01*
X34539746Y-21163743D01*
X34573000Y-20953787D01*
X34573000Y-20741213D01*
X34539746Y-20531257D01*
X34474057Y-20329088D01*
X34377551Y-20139684D01*
X34377549Y-20139681D01*
X34377548Y-20139679D01*
X34252609Y-19967713D01*
X34113794Y-19828898D01*
X34080309Y-19767575D01*
X34085293Y-19697883D01*
X34127165Y-19641950D01*
X34136379Y-19635678D01*
X34141831Y-19632314D01*
X34141834Y-19632314D01*
X34291156Y-19540212D01*
X34415212Y-19416156D01*
X34507314Y-19266834D01*
X34562499Y-19100297D01*
X34573000Y-18997509D01*
X34572999Y-17697492D01*
X34562499Y-17594703D01*
X34507314Y-17428166D01*
X34415212Y-17278844D01*
X34291156Y-17154788D01*
X34141834Y-17062686D01*
X33975297Y-17007501D01*
X33975295Y-17007500D01*
X33872510Y-16997000D01*
X32322498Y-16997000D01*
X32322481Y-16997001D01*
X32219703Y-17007500D01*
X32219700Y-17007501D01*
X32053168Y-17062685D01*
X32053163Y-17062687D01*
X31903842Y-17154789D01*
X31779789Y-17278842D01*
X31687687Y-17428163D01*
X31687686Y-17428166D01*
X31632501Y-17594703D01*
X31632501Y-17594704D01*
X31632500Y-17594704D01*
X31622000Y-17697483D01*
X31622000Y-18997501D01*
X31622001Y-18997518D01*
X31632500Y-19100296D01*
X31632501Y-19100299D01*
X31651279Y-19156965D01*
X31687686Y-19266834D01*
X31762310Y-19387820D01*
X31779789Y-19416157D01*
X31903844Y-19540212D01*
X32058620Y-19635678D01*
X32105345Y-19687626D01*
X32116568Y-19756588D01*
X32088724Y-19820671D01*
X32081206Y-19828898D01*
X31942389Y-19967715D01*
X31817448Y-20139684D01*
X31817447Y-20139685D01*
X31797265Y-20179295D01*
X31749291Y-20230091D01*
X31686781Y-20247000D01*
X28339000Y-20247000D01*
X28271961Y-20227315D01*
X28251470Y-20203667D01*
X28251319Y-20203819D01*
X28215000Y-20167500D01*
X26265001Y-20167500D01*
X26265001Y-20266654D01*
X26275319Y-20367652D01*
X26329546Y-20531300D01*
X26329551Y-20531311D01*
X26420052Y-20678034D01*
X26420055Y-20678038D01*
X26433982Y-20691965D01*
X26467467Y-20753288D01*
X26462483Y-20822980D01*
X26447788Y-20850895D01*
X26441597Y-20859712D01*
X26419660Y-20881650D01*
X26372366Y-20958324D01*
X26370242Y-20961351D01*
X26345694Y-20980922D01*
X26322345Y-21001924D01*
X26318586Y-21002535D01*
X26315611Y-21004908D01*
X26284372Y-21008102D01*
X26253382Y-21013145D01*
X26249892Y-21011628D01*
X26246104Y-21012016D01*
X26218091Y-20997811D01*
X26189300Y-20985301D01*
X26187183Y-20982137D01*
X26183788Y-20980416D01*
X26167905Y-20953326D01*
X26153521Y-20931830D01*
X26152302Y-20932285D01*
X26099297Y-20790171D01*
X26099293Y-20790164D01*
X26013047Y-20674955D01*
X26013044Y-20674952D01*
X25897835Y-20588706D01*
X25897828Y-20588702D01*
X25762982Y-20538408D01*
X25762983Y-20538408D01*
X25703383Y-20532001D01*
X25703381Y-20532000D01*
X25703373Y-20532000D01*
X25703364Y-20532000D01*
X24132629Y-20532000D01*
X24132623Y-20532001D01*
X24073016Y-20538408D01*
X23938171Y-20588702D01*
X23938168Y-20588704D01*
X23879976Y-20632267D01*
X23814511Y-20656684D01*
X23805665Y-20657000D01*
X23329170Y-20657000D01*
X23329154Y-20656999D01*
X23321558Y-20656999D01*
X23163443Y-20656999D01*
X23020596Y-20695275D01*
X22988504Y-20699500D01*
X22921155Y-20699500D01*
X22766510Y-20730261D01*
X22766498Y-20730264D01*
X22620827Y-20790602D01*
X22620814Y-20790609D01*
X22489711Y-20878210D01*
X22489707Y-20878213D01*
X22378213Y-20989707D01*
X22378210Y-20989711D01*
X22290609Y-21120814D01*
X22290602Y-21120827D01*
X22230264Y-21266498D01*
X22230261Y-21266510D01*
X22199500Y-21421153D01*
X22199500Y-21578846D01*
X22230261Y-21733489D01*
X22230264Y-21733501D01*
X22290602Y-21879172D01*
X22290609Y-21879185D01*
X22325304Y-21931109D01*
X22346182Y-21997786D01*
X22327698Y-22065167D01*
X22325304Y-22068891D01*
X22290609Y-22120814D01*
X22290602Y-22120827D01*
X22230264Y-22266498D01*
X22230261Y-22266510D01*
X22199500Y-22421153D01*
X22199500Y-22578846D01*
X22230261Y-22733489D01*
X22230264Y-22733501D01*
X22290602Y-22879172D01*
X22290609Y-22879185D01*
X22325304Y-22931109D01*
X22346182Y-22997786D01*
X22327698Y-23065167D01*
X22325304Y-23068891D01*
X22290609Y-23120814D01*
X22290602Y-23120827D01*
X22230264Y-23266498D01*
X22230261Y-23266510D01*
X22199500Y-23421153D01*
X22199500Y-23578841D01*
X22206515Y-23614110D01*
X22200286Y-23683701D01*
X22157423Y-23738878D01*
X22091533Y-23762122D01*
X22023536Y-23746054D01*
X21997216Y-23725981D01*
X20774018Y-22502783D01*
X20740533Y-22441460D01*
X20745517Y-22371768D01*
X20787389Y-22315835D01*
X20852853Y-22291418D01*
X20885891Y-22293485D01*
X20921156Y-22300500D01*
X20921158Y-22300500D01*
X21078844Y-22300500D01*
X21078845Y-22300499D01*
X21233497Y-22269737D01*
X21379179Y-22209394D01*
X21510289Y-22121789D01*
X21621789Y-22010289D01*
X21709394Y-21879179D01*
X21769737Y-21733497D01*
X21800500Y-21578842D01*
X21800500Y-21421158D01*
X21800500Y-21421155D01*
X21800499Y-21421153D01*
X21775062Y-21293273D01*
X21769737Y-21266503D01*
X21744537Y-21205664D01*
X21709397Y-21120827D01*
X21709390Y-21120814D01*
X21621789Y-20989711D01*
X21621786Y-20989707D01*
X21510292Y-20878213D01*
X21510288Y-20878210D01*
X21379185Y-20790609D01*
X21379172Y-20790602D01*
X21233501Y-20730264D01*
X21233489Y-20730261D01*
X21078845Y-20699500D01*
X21078842Y-20699500D01*
X21011496Y-20699500D01*
X20979403Y-20695275D01*
X20836557Y-20656999D01*
X20678443Y-20656999D01*
X20670847Y-20656999D01*
X20670831Y-20657000D01*
X20154335Y-20657000D01*
X20087296Y-20637315D01*
X20080024Y-20632267D01*
X20021831Y-20588704D01*
X20021828Y-20588702D01*
X19886982Y-20538408D01*
X19886983Y-20538408D01*
X19827383Y-20532001D01*
X19827381Y-20532000D01*
X19827373Y-20532000D01*
X19827364Y-20532000D01*
X18256629Y-20532000D01*
X18256623Y-20532001D01*
X18197016Y-20538408D01*
X18062171Y-20588702D01*
X18062164Y-20588706D01*
X17946955Y-20674952D01*
X17946952Y-20674955D01*
X17860706Y-20790164D01*
X17860702Y-20790171D01*
X17810408Y-20925017D01*
X17804001Y-20984616D01*
X17804000Y-20984635D01*
X17804000Y-20991229D01*
X17784315Y-21058268D01*
X17731511Y-21104023D01*
X17673227Y-21113735D01*
X17673227Y-21114562D01*
X17668267Y-21114562D01*
X17667847Y-21114632D01*
X17667136Y-21114562D01*
X17667135Y-21114562D01*
X17509451Y-21114562D01*
X17509448Y-21114562D01*
X17354803Y-21145323D01*
X17354791Y-21145326D01*
X17209120Y-21205664D01*
X17209107Y-21205671D01*
X17078004Y-21293272D01*
X17078000Y-21293275D01*
X16966506Y-21404769D01*
X16966503Y-21404773D01*
X16878902Y-21535876D01*
X16878895Y-21535889D01*
X16818557Y-21681560D01*
X16818554Y-21681572D01*
X16787793Y-21836215D01*
X16787793Y-21993908D01*
X16818554Y-22148551D01*
X16818557Y-22148563D01*
X16878895Y-22294234D01*
X16878902Y-22294247D01*
X16966503Y-22425350D01*
X16966506Y-22425354D01*
X17078000Y-22536848D01*
X17078004Y-22536851D01*
X17209107Y-22624452D01*
X17209120Y-22624459D01*
X17322141Y-22671273D01*
X17354796Y-22684799D01*
X17506394Y-22714954D01*
X17509446Y-22715561D01*
X17509449Y-22715562D01*
X17509451Y-22715562D01*
X17667131Y-22715562D01*
X17667135Y-22715562D01*
X17667138Y-22715561D01*
X17668115Y-22715465D01*
X17668627Y-22715562D01*
X17673227Y-22715562D01*
X17673227Y-22716434D01*
X17676572Y-22717068D01*
X17684917Y-22714954D01*
X17710379Y-22723477D01*
X17736762Y-22728479D01*
X17743010Y-22734400D01*
X17751173Y-22737133D01*
X17767984Y-22758067D01*
X17787476Y-22776540D01*
X17790675Y-22786324D01*
X17794921Y-22791612D01*
X17800552Y-22816532D01*
X17803590Y-22825824D01*
X17804000Y-22829709D01*
X17804001Y-22830372D01*
X17808361Y-22870937D01*
X17808453Y-22871801D01*
X17808431Y-22871921D01*
X17808431Y-22898096D01*
X17804500Y-22934665D01*
X17804500Y-22982500D01*
X17820111Y-22998111D01*
X17833984Y-23002185D01*
X17866211Y-23032188D01*
X17946955Y-23140047D01*
X18039376Y-23209234D01*
X18081247Y-23265168D01*
X18086231Y-23334859D01*
X18052745Y-23396182D01*
X17991422Y-23429666D01*
X17965065Y-23432500D01*
X17804500Y-23432500D01*
X17804500Y-23480335D01*
X17808683Y-23519248D01*
X17808683Y-23545752D01*
X17804500Y-23584664D01*
X17804500Y-23632500D01*
X17965065Y-23632500D01*
X18032104Y-23652185D01*
X18077859Y-23704989D01*
X18087803Y-23774147D01*
X18058778Y-23837703D01*
X18039376Y-23855766D01*
X17946955Y-23924952D01*
X17877025Y-24018365D01*
X17877023Y-24018368D01*
X17860704Y-24040169D01*
X17810409Y-24175017D01*
X17806791Y-24208667D01*
X17806789Y-24208673D01*
X17804000Y-24234622D01*
X17804000Y-24234627D01*
X17804000Y-24392866D01*
X17804001Y-24432999D01*
X17784317Y-24500039D01*
X17731513Y-24545794D01*
X17680001Y-24557000D01*
X17011557Y-24557000D01*
X16853442Y-24557000D01*
X16700715Y-24597923D01*
X16700714Y-24597923D01*
X16700712Y-24597924D01*
X16700709Y-24597925D01*
X16650596Y-24626859D01*
X16650595Y-24626860D01*
X16623525Y-24642489D01*
X16563785Y-24676979D01*
X16563782Y-24676981D01*
X16451978Y-24788786D01*
X15096079Y-26144684D01*
X15034756Y-26178169D01*
X14965064Y-26173185D01*
X14909131Y-26131313D01*
X14885925Y-26076401D01*
X14885500Y-26073717D01*
X14885500Y-26073713D01*
X14852246Y-25863757D01*
X14786557Y-25661588D01*
X14690051Y-25472184D01*
X14690049Y-25472181D01*
X14690048Y-25472179D01*
X14565109Y-25300213D01*
X14414792Y-25149896D01*
X14400729Y-25139679D01*
X14250204Y-25030316D01*
X14207540Y-24974989D01*
X14201561Y-24905376D01*
X14234166Y-24843580D01*
X14250199Y-24829686D01*
X14414792Y-24710104D01*
X14565104Y-24559792D01*
X14565106Y-24559788D01*
X14565109Y-24559786D01*
X14690048Y-24387820D01*
X14690047Y-24387820D01*
X14690051Y-24387816D01*
X14786557Y-24198412D01*
X14852246Y-23996243D01*
X14885500Y-23786287D01*
X14885500Y-23573713D01*
X14852246Y-23363757D01*
X14786557Y-23161588D01*
X14690051Y-22972184D01*
X14690049Y-22972181D01*
X14690048Y-22972179D01*
X14565109Y-22800213D01*
X14414790Y-22649894D01*
X14414785Y-22649890D01*
X14249781Y-22530008D01*
X14207115Y-22474678D01*
X14201136Y-22405065D01*
X14233741Y-22343270D01*
X14249781Y-22329371D01*
X14414466Y-22209721D01*
X14564723Y-22059464D01*
X14564727Y-22059459D01*
X14689620Y-21887557D01*
X14786095Y-21698217D01*
X14851757Y-21496129D01*
X14851757Y-21496126D01*
X14862231Y-21430000D01*
X13814146Y-21430000D01*
X13852630Y-21363343D01*
X13885000Y-21242535D01*
X13885000Y-21117465D01*
X13852630Y-20996657D01*
X13814146Y-20930000D01*
X14862231Y-20930000D01*
X14851757Y-20863873D01*
X14851757Y-20863870D01*
X14786095Y-20661782D01*
X14689620Y-20472442D01*
X14564727Y-20300540D01*
X14564723Y-20300535D01*
X14414464Y-20150276D01*
X14414459Y-20150272D01*
X14249781Y-20030627D01*
X14207115Y-19975297D01*
X14201136Y-19905684D01*
X14233741Y-19843889D01*
X14249776Y-19829994D01*
X14414792Y-19710104D01*
X14556551Y-19568345D01*
X26265000Y-19568345D01*
X26265000Y-19667500D01*
X26990000Y-19667500D01*
X27490000Y-19667500D01*
X28214999Y-19667500D01*
X28214999Y-19568360D01*
X28214998Y-19568345D01*
X28204680Y-19467347D01*
X28150453Y-19303699D01*
X28150448Y-19303688D01*
X28059947Y-19156965D01*
X28059944Y-19156961D01*
X27938038Y-19035055D01*
X27938034Y-19035052D01*
X27791311Y-18944551D01*
X27791300Y-18944546D01*
X27627652Y-18890319D01*
X27526654Y-18880000D01*
X27490000Y-18880000D01*
X27490000Y-19667500D01*
X26990000Y-19667500D01*
X26990000Y-18880000D01*
X26953361Y-18880000D01*
X26953343Y-18880001D01*
X26852347Y-18890319D01*
X26688699Y-18944546D01*
X26688688Y-18944551D01*
X26541965Y-19035052D01*
X26541961Y-19035055D01*
X26420055Y-19156961D01*
X26420052Y-19156965D01*
X26329551Y-19303688D01*
X26329546Y-19303699D01*
X26275319Y-19467347D01*
X26265000Y-19568345D01*
X14556551Y-19568345D01*
X14565104Y-19559792D01*
X14690051Y-19387816D01*
X14786557Y-19198412D01*
X14852246Y-18996243D01*
X14885500Y-18786287D01*
X14885500Y-18573713D01*
X14852246Y-18363757D01*
X14786557Y-18161588D01*
X14690051Y-17972184D01*
X14690049Y-17972181D01*
X14690048Y-17972179D01*
X14565109Y-17800213D01*
X14414786Y-17649890D01*
X14242820Y-17524951D01*
X14053414Y-17428444D01*
X14053413Y-17428443D01*
X14053412Y-17428443D01*
X13851243Y-17362754D01*
X13851241Y-17362753D01*
X13851240Y-17362753D01*
X13689957Y-17337208D01*
X13641287Y-17329500D01*
X13178713Y-17329500D01*
X13130042Y-17337208D01*
X12968760Y-17362753D01*
X12766585Y-17428444D01*
X12577179Y-17524951D01*
X12405213Y-17649890D01*
X12254890Y-17800213D01*
X12129951Y-17972179D01*
X12033444Y-18161585D01*
X11967753Y-18363760D01*
X11934500Y-18573713D01*
X11934500Y-18786286D01*
X11959566Y-18944551D01*
X11967754Y-18996243D01*
X12001563Y-19100297D01*
X12033444Y-19198414D01*
X12129951Y-19387820D01*
X12254890Y-19559786D01*
X12405209Y-19710105D01*
X12405214Y-19710109D01*
X12570218Y-19829991D01*
X12612884Y-19885320D01*
X12618863Y-19954934D01*
X12586258Y-20016729D01*
X12570218Y-20030627D01*
X12405540Y-20150272D01*
X12405535Y-20150276D01*
X12255276Y-20300535D01*
X12255272Y-20300540D01*
X12130379Y-20472442D01*
X12033904Y-20661782D01*
X11968242Y-20863870D01*
X11968242Y-20863873D01*
X11957769Y-20930000D01*
X13005854Y-20930000D01*
X12967370Y-20996657D01*
X12935000Y-21117465D01*
X12935000Y-21242535D01*
X12967370Y-21363343D01*
X13005854Y-21430000D01*
X11957769Y-21430000D01*
X11968242Y-21496126D01*
X11968242Y-21496129D01*
X12033904Y-21698217D01*
X12130379Y-21887557D01*
X12255272Y-22059459D01*
X12255276Y-22059464D01*
X12405535Y-22209723D01*
X12405540Y-22209727D01*
X12570218Y-22329372D01*
X12612884Y-22384701D01*
X12618863Y-22454315D01*
X12586258Y-22516110D01*
X12570218Y-22530008D01*
X12405214Y-22649890D01*
X12405209Y-22649894D01*
X12254890Y-22800213D01*
X12129951Y-22972179D01*
X12033444Y-23161585D01*
X11967753Y-23363760D01*
X11943126Y-23519248D01*
X11934500Y-23573713D01*
X11934500Y-23786287D01*
X11938451Y-23811235D01*
X11958399Y-23937182D01*
X11967754Y-23996243D01*
X12025841Y-24175017D01*
X12033444Y-24198414D01*
X12129951Y-24387820D01*
X12254890Y-24559786D01*
X12405209Y-24710105D01*
X12405214Y-24710109D01*
X12569793Y-24829682D01*
X12612459Y-24885011D01*
X12618438Y-24954625D01*
X12585833Y-25016420D01*
X12569793Y-25030318D01*
X12405214Y-25149890D01*
X12405209Y-25149894D01*
X12254890Y-25300213D01*
X12129951Y-25472179D01*
X12033444Y-25661585D01*
X11967753Y-25863760D01*
X11934500Y-26073713D01*
X11934500Y-26286286D01*
X11966382Y-26487585D01*
X11967754Y-26496243D01*
X12028551Y-26683357D01*
X12033444Y-26698414D01*
X12129951Y-26887820D01*
X12254890Y-27059786D01*
X12405209Y-27210105D01*
X12405214Y-27210109D01*
X12569793Y-27329682D01*
X12612459Y-27385011D01*
X12618438Y-27454625D01*
X12585833Y-27516420D01*
X12569793Y-27530318D01*
X12405214Y-27649890D01*
X12405209Y-27649894D01*
X12254890Y-27800213D01*
X12129951Y-27972179D01*
X12033444Y-28161585D01*
X11967753Y-28363760D01*
X11934501Y-28573706D01*
X11934500Y-28573713D01*
X11934500Y-28786287D01*
X11967754Y-28996243D01*
X11986949Y-29055320D01*
X12033444Y-29198414D01*
X12129951Y-29387820D01*
X12254890Y-29559786D01*
X12393705Y-29698601D01*
X12427190Y-29759924D01*
X12422206Y-29829616D01*
X12380334Y-29885549D01*
X12371121Y-29891821D01*
X12216342Y-29987289D01*
X12092289Y-30111342D01*
X12000187Y-30260663D01*
X12000186Y-30260666D01*
X11945001Y-30427203D01*
X11945001Y-30427204D01*
X11945000Y-30427204D01*
X11934500Y-30529983D01*
X11934500Y-31830001D01*
X11934501Y-31830018D01*
X11945000Y-31932796D01*
X11945001Y-31932799D01*
X11968115Y-32002551D01*
X12000186Y-32099334D01*
X12092288Y-32248656D01*
X12216344Y-32372712D01*
X12365666Y-32464814D01*
X12532203Y-32519999D01*
X12634991Y-32530500D01*
X14185008Y-32530499D01*
X14287797Y-32519999D01*
X14454334Y-32464814D01*
X14603656Y-32372712D01*
X14727712Y-32248656D01*
X14819814Y-32099334D01*
X14874999Y-31932797D01*
X14885500Y-31830009D01*
X14885499Y-30615095D01*
X14905184Y-30548057D01*
X14921813Y-30527420D01*
X18479916Y-26969319D01*
X18541239Y-26935834D01*
X18567597Y-26933000D01*
X20158555Y-26933000D01*
X20158557Y-26933000D01*
X20311284Y-26892077D01*
X20448216Y-26813020D01*
X20560020Y-26701216D01*
X20639077Y-26564284D01*
X20680000Y-26411557D01*
X20680000Y-24721560D01*
X20680001Y-24721547D01*
X20680001Y-24553444D01*
X20679751Y-24552511D01*
X20639077Y-24400716D01*
X20639075Y-24400714D01*
X20636973Y-24392866D01*
X20639709Y-24392132D01*
X20633709Y-24336318D01*
X20664985Y-24273839D01*
X20725074Y-24238188D01*
X20794899Y-24240682D01*
X20843420Y-24270655D01*
X21863181Y-25290416D01*
X21896666Y-25351739D01*
X21899500Y-25378097D01*
X21899500Y-25913330D01*
X21899499Y-25913348D01*
X21899499Y-26079054D01*
X21899498Y-26079054D01*
X21922189Y-26163739D01*
X21940423Y-26231785D01*
X21962335Y-26269737D01*
X22017861Y-26365912D01*
X22019479Y-26368714D01*
X22019481Y-26368717D01*
X22138349Y-26487585D01*
X22138355Y-26487590D01*
X26015139Y-30364374D01*
X26015149Y-30364385D01*
X26019479Y-30368715D01*
X26019480Y-30368716D01*
X26131284Y-30480520D01*
X26216971Y-30529991D01*
X26216972Y-30529992D01*
X26268209Y-30559574D01*
X26268210Y-30559574D01*
X26268215Y-30559577D01*
X26420942Y-30600500D01*
X26420943Y-30600500D01*
X31499102Y-30600500D01*
X31566141Y-30620185D01*
X31611896Y-30672989D01*
X31620992Y-30736252D01*
X31622382Y-30736362D01*
X31622000Y-30741212D01*
X31622000Y-30953786D01*
X31655253Y-31163739D01*
X31720944Y-31365914D01*
X31817451Y-31555320D01*
X31942390Y-31727286D01*
X32092709Y-31877605D01*
X32092714Y-31877609D01*
X32257718Y-31997491D01*
X32300384Y-32052820D01*
X32306363Y-32122434D01*
X32273758Y-32184229D01*
X32257718Y-32198127D01*
X32093040Y-32317772D01*
X32093035Y-32317776D01*
X31942776Y-32468035D01*
X31942772Y-32468040D01*
X31817879Y-32639942D01*
X31721404Y-32829282D01*
X31655742Y-33031370D01*
X31655742Y-33031373D01*
X31645269Y-33097500D01*
X32693354Y-33097500D01*
X32654870Y-33164157D01*
X32622500Y-33284965D01*
X32622500Y-33410035D01*
X32654870Y-33530843D01*
X32693354Y-33597500D01*
X31645269Y-33597500D01*
X31655742Y-33663626D01*
X31655742Y-33663629D01*
X31721404Y-33865717D01*
X31817879Y-34055057D01*
X31942772Y-34226959D01*
X31942776Y-34226964D01*
X32003631Y-34287819D01*
X32037116Y-34349142D01*
X32032132Y-34418834D01*
X31990260Y-34474767D01*
X31924796Y-34499184D01*
X31915950Y-34499500D01*
X10624500Y-34499500D01*
X10557461Y-34479815D01*
X10511706Y-34427011D01*
X10500500Y-34375500D01*
X10500500Y-32901577D01*
X22749500Y-32901577D01*
X22749500Y-33098422D01*
X22780290Y-33292826D01*
X22841117Y-33480029D01*
X22900972Y-33597500D01*
X22930476Y-33655405D01*
X23046172Y-33814646D01*
X23185354Y-33953828D01*
X23344595Y-34069524D01*
X23427455Y-34111743D01*
X23519970Y-34158882D01*
X23519972Y-34158882D01*
X23519975Y-34158884D01*
X23620317Y-34191487D01*
X23707173Y-34219709D01*
X23901578Y-34250500D01*
X23901583Y-34250500D01*
X24098422Y-34250500D01*
X24292826Y-34219709D01*
X24480025Y-34158884D01*
X24655405Y-34069524D01*
X24814646Y-33953828D01*
X24953828Y-33814646D01*
X25069524Y-33655405D01*
X25158884Y-33480025D01*
X25219709Y-33292826D01*
X25240088Y-33164157D01*
X25250500Y-33098422D01*
X25250500Y-32901577D01*
X25219709Y-32707173D01*
X25191487Y-32620317D01*
X25158884Y-32519975D01*
X25158882Y-32519972D01*
X25158882Y-32519970D01*
X25069523Y-32344594D01*
X24953828Y-32185354D01*
X24814646Y-32046172D01*
X24655405Y-31930476D01*
X24480029Y-31841117D01*
X24292826Y-31780290D01*
X24098422Y-31749500D01*
X24098417Y-31749500D01*
X23901583Y-31749500D01*
X23901578Y-31749500D01*
X23707173Y-31780290D01*
X23519970Y-31841117D01*
X23344594Y-31930476D01*
X23253741Y-31996485D01*
X23185354Y-32046172D01*
X23185352Y-32046174D01*
X23185351Y-32046174D01*
X23046174Y-32185351D01*
X23046174Y-32185352D01*
X23046172Y-32185354D01*
X23036892Y-32198127D01*
X22930476Y-32344594D01*
X22841117Y-32519970D01*
X22780290Y-32707173D01*
X22749500Y-32901577D01*
X10500500Y-32901577D01*
X10500500Y-12901577D01*
X12749500Y-12901577D01*
X12749500Y-13098422D01*
X12780290Y-13292826D01*
X12841117Y-13480029D01*
X12930476Y-13655405D01*
X13046172Y-13814646D01*
X13185354Y-13953828D01*
X13344595Y-14069524D01*
X13427455Y-14111743D01*
X13519970Y-14158882D01*
X13519972Y-14158882D01*
X13519975Y-14158884D01*
X13620317Y-14191487D01*
X13707173Y-14219709D01*
X13901578Y-14250500D01*
X13901583Y-14250500D01*
X14098422Y-14250500D01*
X14292826Y-14219709D01*
X14480025Y-14158884D01*
X14655405Y-14069524D01*
X14814646Y-13953828D01*
X14953828Y-13814646D01*
X15069524Y-13655405D01*
X15158884Y-13480025D01*
X15219709Y-13292826D01*
X15250500Y-13098422D01*
X15250500Y-12901577D01*
X32749500Y-12901577D01*
X32749500Y-13098422D01*
X32780290Y-13292826D01*
X32841117Y-13480029D01*
X32930476Y-13655405D01*
X33046172Y-13814646D01*
X33185354Y-13953828D01*
X33344595Y-14069524D01*
X33427455Y-14111743D01*
X33519970Y-14158882D01*
X33519972Y-14158882D01*
X33519975Y-14158884D01*
X33620317Y-14191487D01*
X33707173Y-14219709D01*
X33901578Y-14250500D01*
X33901583Y-14250500D01*
X34098422Y-14250500D01*
X34292826Y-14219709D01*
X34480025Y-14158884D01*
X34655405Y-14069524D01*
X34814646Y-13953828D01*
X34953828Y-13814646D01*
X35069524Y-13655405D01*
X35158884Y-13480025D01*
X35219709Y-13292826D01*
X35250500Y-13098422D01*
X35250500Y-12901577D01*
X35219709Y-12707173D01*
X35158882Y-12519970D01*
X35069523Y-12344594D01*
X34953828Y-12185354D01*
X34814646Y-12046172D01*
X34655405Y-11930476D01*
X34480029Y-11841117D01*
X34292826Y-11780290D01*
X34098422Y-11749500D01*
X34098417Y-11749500D01*
X33901583Y-11749500D01*
X33901578Y-11749500D01*
X33707173Y-11780290D01*
X33519970Y-11841117D01*
X33344594Y-11930476D01*
X33253741Y-11996485D01*
X33185354Y-12046172D01*
X33185352Y-12046174D01*
X33185351Y-12046174D01*
X33046174Y-12185351D01*
X33046174Y-12185352D01*
X33046172Y-12185354D01*
X32996485Y-12253741D01*
X32930476Y-12344594D01*
X32841117Y-12519970D01*
X32780290Y-12707173D01*
X32749500Y-12901577D01*
X15250500Y-12901577D01*
X15219709Y-12707173D01*
X15158882Y-12519970D01*
X15069523Y-12344594D01*
X14953828Y-12185354D01*
X14814646Y-12046172D01*
X14655405Y-11930476D01*
X14480029Y-11841117D01*
X14292826Y-11780290D01*
X14098422Y-11749500D01*
X14098417Y-11749500D01*
X13901583Y-11749500D01*
X13901578Y-11749500D01*
X13707173Y-11780290D01*
X13519970Y-11841117D01*
X13344594Y-11930476D01*
X13253741Y-11996485D01*
X13185354Y-12046172D01*
X13185352Y-12046174D01*
X13185351Y-12046174D01*
X13046174Y-12185351D01*
X13046174Y-12185352D01*
X13046172Y-12185354D01*
X12996485Y-12253741D01*
X12930476Y-12344594D01*
X12841117Y-12519970D01*
X12780290Y-12707173D01*
X12749500Y-12901577D01*
X10500500Y-12901577D01*
X10500500Y-10624500D01*
X10520185Y-10557461D01*
X10572989Y-10511706D01*
X10624500Y-10500500D01*
X37375500Y-10500500D01*
X37442539Y-10520185D01*
G37*
%TD.AperFunction*%
%TA.AperFunction,Conductor*%
G36*
X31753820Y-21467685D02*
G01*
X31797265Y-21515705D01*
X31817447Y-21555314D01*
X31817448Y-21555315D01*
X31942390Y-21727286D01*
X32092709Y-21877605D01*
X32092714Y-21877609D01*
X32257293Y-21997182D01*
X32299959Y-22052511D01*
X32305938Y-22122125D01*
X32273333Y-22183920D01*
X32257293Y-22197818D01*
X32092714Y-22317390D01*
X32092709Y-22317394D01*
X31942390Y-22467713D01*
X31817451Y-22639679D01*
X31720944Y-22829085D01*
X31655253Y-23031260D01*
X31622000Y-23241213D01*
X31622000Y-23453786D01*
X31650305Y-23632500D01*
X31655254Y-23663743D01*
X31717646Y-23855766D01*
X31720944Y-23865914D01*
X31817451Y-24055320D01*
X31942390Y-24227286D01*
X32092709Y-24377605D01*
X32092714Y-24377609D01*
X32257293Y-24497182D01*
X32299959Y-24552511D01*
X32305938Y-24622125D01*
X32273333Y-24683920D01*
X32257293Y-24697818D01*
X32092714Y-24817390D01*
X32092709Y-24817394D01*
X31942390Y-24967713D01*
X31817451Y-25139679D01*
X31720944Y-25329085D01*
X31655253Y-25531260D01*
X31634612Y-25661585D01*
X31622000Y-25741213D01*
X31622000Y-25953787D01*
X31623584Y-25963786D01*
X31650117Y-26131313D01*
X31655254Y-26163743D01*
X31706135Y-26320339D01*
X31720944Y-26365914D01*
X31817451Y-26555320D01*
X31942390Y-26727286D01*
X32092709Y-26877605D01*
X32092714Y-26877609D01*
X32257293Y-26997182D01*
X32299959Y-27052511D01*
X32305938Y-27122125D01*
X32273333Y-27183920D01*
X32257293Y-27197818D01*
X32092714Y-27317390D01*
X32092709Y-27317394D01*
X31942390Y-27467713D01*
X31817451Y-27639679D01*
X31720944Y-27829085D01*
X31655253Y-28031260D01*
X31622000Y-28241213D01*
X31622000Y-28453786D01*
X31653678Y-28653797D01*
X31655254Y-28663743D01*
X31662902Y-28687282D01*
X31720944Y-28865914D01*
X31817448Y-29055315D01*
X31924467Y-29202615D01*
X31947946Y-29268422D01*
X31932120Y-29336475D01*
X31882014Y-29385170D01*
X31824148Y-29399500D01*
X26800097Y-29399500D01*
X26733058Y-29379815D01*
X26712416Y-29363181D01*
X24093915Y-26744680D01*
X24060430Y-26683357D01*
X24065414Y-26613665D01*
X24107286Y-26557732D01*
X24172750Y-26533315D01*
X24181568Y-26532999D01*
X25703372Y-26532999D01*
X25762983Y-26526591D01*
X25897831Y-26476296D01*
X25956024Y-26432733D01*
X26021489Y-26408316D01*
X26030335Y-26408000D01*
X26494698Y-26408000D01*
X26533702Y-26414294D01*
X26687247Y-26465174D01*
X26788323Y-26475500D01*
X27486676Y-26475499D01*
X27486684Y-26475498D01*
X27486687Y-26475498D01*
X27542030Y-26469844D01*
X27587753Y-26465174D01*
X27751516Y-26410908D01*
X27898350Y-26320340D01*
X27912671Y-26306018D01*
X27973989Y-26272533D01*
X28043681Y-26277514D01*
X28088034Y-26306017D01*
X28101961Y-26319944D01*
X28101965Y-26319947D01*
X28248688Y-26410448D01*
X28248699Y-26410453D01*
X28412347Y-26464680D01*
X28513351Y-26474999D01*
X29112500Y-26474999D01*
X29211640Y-26474999D01*
X29211654Y-26474998D01*
X29312652Y-26464680D01*
X29476300Y-26410453D01*
X29476311Y-26410448D01*
X29623034Y-26319947D01*
X29623038Y-26319944D01*
X29744944Y-26198038D01*
X29744947Y-26198034D01*
X29835448Y-26051311D01*
X29835453Y-26051300D01*
X29889680Y-25887652D01*
X29899999Y-25786654D01*
X29900000Y-25786641D01*
X29900000Y-25750000D01*
X29112500Y-25750000D01*
X29112500Y-26474999D01*
X28513351Y-26474999D01*
X28612500Y-26474998D01*
X28612500Y-25250000D01*
X29112500Y-25250000D01*
X29899999Y-25250000D01*
X29899999Y-25213360D01*
X29899998Y-25213345D01*
X29889680Y-25112347D01*
X29835453Y-24948699D01*
X29835450Y-24948692D01*
X29753047Y-24815098D01*
X29734606Y-24747705D01*
X29753047Y-24684902D01*
X29835450Y-24551307D01*
X29835453Y-24551300D01*
X29889680Y-24387652D01*
X29899999Y-24286654D01*
X29900000Y-24286641D01*
X29900000Y-24250000D01*
X29112500Y-24250000D01*
X29112500Y-25250000D01*
X28612500Y-25250000D01*
X28612500Y-24124000D01*
X28632185Y-24056961D01*
X28684989Y-24011206D01*
X28736500Y-24000000D01*
X28862500Y-24000000D01*
X28862500Y-23874000D01*
X28882185Y-23806961D01*
X28934989Y-23761206D01*
X28986500Y-23750000D01*
X29899999Y-23750000D01*
X29899999Y-23713360D01*
X29899998Y-23713345D01*
X29889680Y-23612347D01*
X29835453Y-23448699D01*
X29835448Y-23448688D01*
X29744947Y-23301965D01*
X29744944Y-23301961D01*
X29623038Y-23180055D01*
X29623034Y-23180052D01*
X29476311Y-23089551D01*
X29476300Y-23089546D01*
X29377071Y-23056665D01*
X29319626Y-23016892D01*
X29292803Y-22952376D01*
X29301513Y-22891509D01*
X29338487Y-22802247D01*
X29369250Y-22647592D01*
X29369250Y-22489908D01*
X29369250Y-22489905D01*
X29369249Y-22489903D01*
X29356409Y-22425351D01*
X29338487Y-22335253D01*
X29336051Y-22329371D01*
X29278147Y-22189577D01*
X29278140Y-22189564D01*
X29190539Y-22058461D01*
X29190536Y-22058457D01*
X29079042Y-21946963D01*
X29079038Y-21946960D01*
X28947935Y-21859359D01*
X28947922Y-21859352D01*
X28802251Y-21799014D01*
X28802239Y-21799011D01*
X28647595Y-21768250D01*
X28647592Y-21768250D01*
X28489908Y-21768250D01*
X28489903Y-21768250D01*
X28363690Y-21793355D01*
X28294098Y-21787128D01*
X28238921Y-21744264D01*
X28215677Y-21678374D01*
X28215499Y-21671738D01*
X28215499Y-21572000D01*
X28235184Y-21504961D01*
X28287988Y-21459206D01*
X28339499Y-21448000D01*
X31686781Y-21448000D01*
X31753820Y-21467685D01*
G37*
%TD.AperFunction*%
%TA.AperFunction,Conductor*%
G36*
X17760441Y-25777685D02*
G01*
X17806196Y-25830489D01*
X17816140Y-25899647D01*
X17787115Y-25963203D01*
X17781083Y-25969681D01*
X15096966Y-28653797D01*
X15035643Y-28687282D01*
X14965951Y-28682298D01*
X14910018Y-28640426D01*
X14886654Y-28578462D01*
X14886262Y-28578525D01*
X14885960Y-28576623D01*
X14885667Y-28575844D01*
X14885500Y-28573731D01*
X14885500Y-28573713D01*
X14852246Y-28363757D01*
X14807851Y-28227126D01*
X14805857Y-28157290D01*
X14838100Y-28101133D01*
X17144916Y-25794319D01*
X17206239Y-25760834D01*
X17232597Y-25758000D01*
X17693402Y-25758000D01*
X17760441Y-25777685D01*
G37*
%TD.AperFunction*%
%TD*%
M02*
