M48
; DRILL file {KiCad 9.0.7-9.0.7~ubuntu24.04.1} date 2026-03-11T15:51:19+0100
; FORMAT={-:-/ absolute / metric / decimal}
; #@! TF.CreationDate,2026-03-11T15:51:19+01:00
; #@! TF.GenerationSoftware,Kicad,Pcbnew,9.0.7-9.0.7~ubuntu24.04.1
; #@! TF.FileFunction,Plated,1,2,PTH
FMAT,2
METRIC
; #@! TA.AperFunction,Plated,PTH,ViaDrill
T1C0.300
; #@! TA.AperFunction,Plated,PTH,ComponentDrill
T2C0.950
%
G90
G05
T1
X15.41Y-27.27
X15.5Y-33.5
X17.0Y-20.0
X22.12Y-21.56
X22.12Y-22.56
X22.12Y-23.56
X22.62Y-24.56
X22.62Y-25.56
X22.914Y-28.145
X22.94Y-27.27
X24.036Y-29.267
X26.0Y-27.0
X27.0Y-31.5
X27.293Y-22.192
X28.52Y-17.04
X30.5Y-22.69
X30.511Y-29.268
X33.87Y-24.69
T2
X12.53Y-18.74
X12.53Y-21.24
X12.53Y-23.74
X12.53Y-26.24
X12.53Y-28.74
X12.53Y-31.24
X32.218Y-18.407
X32.218Y-20.907
X32.218Y-23.407
X32.218Y-25.907
X32.218Y-28.407
X32.218Y-30.907
X32.218Y-33.407
M30
