%TF.GenerationSoftware,KiCad,Pcbnew,9.0.7*%
%TF.CreationDate,2026-03-06T14:27:00+01:00*%
%TF.ProjectId,adc board,61646320-626f-4617-9264-2e6b69636164,rev?*%
%TF.SameCoordinates,Original*%
%TF.FileFunction,Legend,Top*%
%TF.FilePolarity,Positive*%
%FSLAX46Y46*%
G04 Gerber Fmt 4.6, Leading zero omitted, Abs format (unit mm)*
G04 Created by KiCad (PCBNEW 9.0.7) date 2026-03-06 14:27:00*
%MOMM*%
%LPD*%
G01*
G04 APERTURE LIST*
%ADD10C,0.100000*%
%ADD11C,0.254000*%
%ADD12C,0.150000*%
%ADD13C,0.200000*%
%ADD14C,0.120000*%
%ADD15C,0.000000*%
G04 APERTURE END LIST*
D10*
X18340752Y-33182857D02*
X18340752Y-32897143D01*
X18483609Y-33240000D02*
X17983609Y-33040000D01*
X17983609Y-33040000D02*
X18483609Y-32840000D01*
X18483609Y-32639999D02*
X17983609Y-32639999D01*
X17983609Y-32639999D02*
X17983609Y-32497142D01*
X17983609Y-32497142D02*
X18007419Y-32411428D01*
X18007419Y-32411428D02*
X18055038Y-32354285D01*
X18055038Y-32354285D02*
X18102657Y-32325714D01*
X18102657Y-32325714D02*
X18197895Y-32297142D01*
X18197895Y-32297142D02*
X18269323Y-32297142D01*
X18269323Y-32297142D02*
X18364561Y-32325714D01*
X18364561Y-32325714D02*
X18412180Y-32354285D01*
X18412180Y-32354285D02*
X18459800Y-32411428D01*
X18459800Y-32411428D02*
X18483609Y-32497142D01*
X18483609Y-32497142D02*
X18483609Y-32639999D01*
X18435990Y-31697142D02*
X18459800Y-31725714D01*
X18459800Y-31725714D02*
X18483609Y-31811428D01*
X18483609Y-31811428D02*
X18483609Y-31868571D01*
X18483609Y-31868571D02*
X18459800Y-31954285D01*
X18459800Y-31954285D02*
X18412180Y-32011428D01*
X18412180Y-32011428D02*
X18364561Y-32039999D01*
X18364561Y-32039999D02*
X18269323Y-32068571D01*
X18269323Y-32068571D02*
X18197895Y-32068571D01*
X18197895Y-32068571D02*
X18102657Y-32039999D01*
X18102657Y-32039999D02*
X18055038Y-32011428D01*
X18055038Y-32011428D02*
X18007419Y-31954285D01*
X18007419Y-31954285D02*
X17983609Y-31868571D01*
X17983609Y-31868571D02*
X17983609Y-31811428D01*
X17983609Y-31811428D02*
X18007419Y-31725714D01*
X18007419Y-31725714D02*
X18031228Y-31697142D01*
X18483609Y-30982856D02*
X17983609Y-30982856D01*
X18174085Y-30982856D02*
X18150276Y-30925714D01*
X18150276Y-30925714D02*
X18150276Y-30811428D01*
X18150276Y-30811428D02*
X18174085Y-30754285D01*
X18174085Y-30754285D02*
X18197895Y-30725714D01*
X18197895Y-30725714D02*
X18245514Y-30697142D01*
X18245514Y-30697142D02*
X18388371Y-30697142D01*
X18388371Y-30697142D02*
X18435990Y-30725714D01*
X18435990Y-30725714D02*
X18459800Y-30754285D01*
X18459800Y-30754285D02*
X18483609Y-30811428D01*
X18483609Y-30811428D02*
X18483609Y-30925714D01*
X18483609Y-30925714D02*
X18459800Y-30982856D01*
X18483609Y-30354285D02*
X18459800Y-30411428D01*
X18459800Y-30411428D02*
X18435990Y-30439999D01*
X18435990Y-30439999D02*
X18388371Y-30468571D01*
X18388371Y-30468571D02*
X18245514Y-30468571D01*
X18245514Y-30468571D02*
X18197895Y-30439999D01*
X18197895Y-30439999D02*
X18174085Y-30411428D01*
X18174085Y-30411428D02*
X18150276Y-30354285D01*
X18150276Y-30354285D02*
X18150276Y-30268571D01*
X18150276Y-30268571D02*
X18174085Y-30211428D01*
X18174085Y-30211428D02*
X18197895Y-30182857D01*
X18197895Y-30182857D02*
X18245514Y-30154285D01*
X18245514Y-30154285D02*
X18388371Y-30154285D01*
X18388371Y-30154285D02*
X18435990Y-30182857D01*
X18435990Y-30182857D02*
X18459800Y-30211428D01*
X18459800Y-30211428D02*
X18483609Y-30268571D01*
X18483609Y-30268571D02*
X18483609Y-30354285D01*
X18483609Y-29640000D02*
X18221704Y-29640000D01*
X18221704Y-29640000D02*
X18174085Y-29668571D01*
X18174085Y-29668571D02*
X18150276Y-29725714D01*
X18150276Y-29725714D02*
X18150276Y-29840000D01*
X18150276Y-29840000D02*
X18174085Y-29897142D01*
X18459800Y-29640000D02*
X18483609Y-29697142D01*
X18483609Y-29697142D02*
X18483609Y-29840000D01*
X18483609Y-29840000D02*
X18459800Y-29897142D01*
X18459800Y-29897142D02*
X18412180Y-29925714D01*
X18412180Y-29925714D02*
X18364561Y-29925714D01*
X18364561Y-29925714D02*
X18316942Y-29897142D01*
X18316942Y-29897142D02*
X18293133Y-29840000D01*
X18293133Y-29840000D02*
X18293133Y-29697142D01*
X18293133Y-29697142D02*
X18269323Y-29640000D01*
X18483609Y-29354285D02*
X18150276Y-29354285D01*
X18245514Y-29354285D02*
X18197895Y-29325714D01*
X18197895Y-29325714D02*
X18174085Y-29297143D01*
X18174085Y-29297143D02*
X18150276Y-29240000D01*
X18150276Y-29240000D02*
X18150276Y-29182857D01*
X18483609Y-28725714D02*
X17983609Y-28725714D01*
X18459800Y-28725714D02*
X18483609Y-28782856D01*
X18483609Y-28782856D02*
X18483609Y-28897142D01*
X18483609Y-28897142D02*
X18459800Y-28954285D01*
X18459800Y-28954285D02*
X18435990Y-28982856D01*
X18435990Y-28982856D02*
X18388371Y-29011428D01*
X18388371Y-29011428D02*
X18245514Y-29011428D01*
X18245514Y-29011428D02*
X18197895Y-28982856D01*
X18197895Y-28982856D02*
X18174085Y-28954285D01*
X18174085Y-28954285D02*
X18150276Y-28897142D01*
X18150276Y-28897142D02*
X18150276Y-28782856D01*
X18150276Y-28782856D02*
X18174085Y-28725714D01*
X18955248Y-31654285D02*
X18955248Y-31425713D01*
X19288581Y-31568570D02*
X18860010Y-31568570D01*
X18860010Y-31568570D02*
X18812391Y-31539999D01*
X18812391Y-31539999D02*
X18788581Y-31482856D01*
X18788581Y-31482856D02*
X18788581Y-31425713D01*
X19288581Y-31139999D02*
X19264772Y-31197142D01*
X19264772Y-31197142D02*
X19240962Y-31225713D01*
X19240962Y-31225713D02*
X19193343Y-31254285D01*
X19193343Y-31254285D02*
X19050486Y-31254285D01*
X19050486Y-31254285D02*
X19002867Y-31225713D01*
X19002867Y-31225713D02*
X18979057Y-31197142D01*
X18979057Y-31197142D02*
X18955248Y-31139999D01*
X18955248Y-31139999D02*
X18955248Y-31054285D01*
X18955248Y-31054285D02*
X18979057Y-30997142D01*
X18979057Y-30997142D02*
X19002867Y-30968571D01*
X19002867Y-30968571D02*
X19050486Y-30939999D01*
X19050486Y-30939999D02*
X19193343Y-30939999D01*
X19193343Y-30939999D02*
X19240962Y-30968571D01*
X19240962Y-30968571D02*
X19264772Y-30997142D01*
X19264772Y-30997142D02*
X19288581Y-31054285D01*
X19288581Y-31054285D02*
X19288581Y-31139999D01*
X19288581Y-30682856D02*
X18955248Y-30682856D01*
X19050486Y-30682856D02*
X19002867Y-30654285D01*
X19002867Y-30654285D02*
X18979057Y-30625714D01*
X18979057Y-30625714D02*
X18955248Y-30568571D01*
X18955248Y-30568571D02*
X18955248Y-30511428D01*
X19240962Y-30311427D02*
X19264772Y-30282856D01*
X19264772Y-30282856D02*
X19288581Y-30311427D01*
X19288581Y-30311427D02*
X19264772Y-30339999D01*
X19264772Y-30339999D02*
X19240962Y-30311427D01*
X19240962Y-30311427D02*
X19288581Y-30311427D01*
X18979057Y-30311427D02*
X19002867Y-30282856D01*
X19002867Y-30282856D02*
X19026676Y-30311427D01*
X19026676Y-30311427D02*
X19002867Y-30339999D01*
X19002867Y-30339999D02*
X18979057Y-30311427D01*
X18979057Y-30311427D02*
X19026676Y-30311427D01*
X19950696Y-33354287D02*
X19950696Y-33068573D01*
X20093553Y-33411430D02*
X19593553Y-33211430D01*
X19593553Y-33211430D02*
X20093553Y-33011430D01*
X20093553Y-32811429D02*
X19593553Y-32811429D01*
X19593553Y-32811429D02*
X19593553Y-32668572D01*
X19593553Y-32668572D02*
X19617363Y-32582858D01*
X19617363Y-32582858D02*
X19664982Y-32525715D01*
X19664982Y-32525715D02*
X19712601Y-32497144D01*
X19712601Y-32497144D02*
X19807839Y-32468572D01*
X19807839Y-32468572D02*
X19879267Y-32468572D01*
X19879267Y-32468572D02*
X19974505Y-32497144D01*
X19974505Y-32497144D02*
X20022124Y-32525715D01*
X20022124Y-32525715D02*
X20069744Y-32582858D01*
X20069744Y-32582858D02*
X20093553Y-32668572D01*
X20093553Y-32668572D02*
X20093553Y-32811429D01*
X20069744Y-32240001D02*
X20093553Y-32154287D01*
X20093553Y-32154287D02*
X20093553Y-32011429D01*
X20093553Y-32011429D02*
X20069744Y-31954287D01*
X20069744Y-31954287D02*
X20045934Y-31925715D01*
X20045934Y-31925715D02*
X19998315Y-31897144D01*
X19998315Y-31897144D02*
X19950696Y-31897144D01*
X19950696Y-31897144D02*
X19903077Y-31925715D01*
X19903077Y-31925715D02*
X19879267Y-31954287D01*
X19879267Y-31954287D02*
X19855458Y-32011429D01*
X19855458Y-32011429D02*
X19831648Y-32125715D01*
X19831648Y-32125715D02*
X19807839Y-32182858D01*
X19807839Y-32182858D02*
X19784029Y-32211429D01*
X19784029Y-32211429D02*
X19736410Y-32240001D01*
X19736410Y-32240001D02*
X19688791Y-32240001D01*
X19688791Y-32240001D02*
X19641172Y-32211429D01*
X19641172Y-32211429D02*
X19617363Y-32182858D01*
X19617363Y-32182858D02*
X19593553Y-32125715D01*
X19593553Y-32125715D02*
X19593553Y-31982858D01*
X19593553Y-31982858D02*
X19617363Y-31897144D01*
X20093553Y-31325715D02*
X20093553Y-31668572D01*
X20093553Y-31497143D02*
X19593553Y-31497143D01*
X19593553Y-31497143D02*
X19664982Y-31554286D01*
X19664982Y-31554286D02*
X19712601Y-31611429D01*
X19712601Y-31611429D02*
X19736410Y-31668572D01*
X19641172Y-31097143D02*
X19617363Y-31068571D01*
X19617363Y-31068571D02*
X19593553Y-31011429D01*
X19593553Y-31011429D02*
X19593553Y-30868571D01*
X19593553Y-30868571D02*
X19617363Y-30811429D01*
X19617363Y-30811429D02*
X19641172Y-30782857D01*
X19641172Y-30782857D02*
X19688791Y-30754286D01*
X19688791Y-30754286D02*
X19736410Y-30754286D01*
X19736410Y-30754286D02*
X19807839Y-30782857D01*
X19807839Y-30782857D02*
X20093553Y-31125714D01*
X20093553Y-31125714D02*
X20093553Y-30754286D01*
X19641172Y-30525714D02*
X19617363Y-30497142D01*
X19617363Y-30497142D02*
X19593553Y-30440000D01*
X19593553Y-30440000D02*
X19593553Y-30297142D01*
X19593553Y-30297142D02*
X19617363Y-30240000D01*
X19617363Y-30240000D02*
X19641172Y-30211428D01*
X19641172Y-30211428D02*
X19688791Y-30182857D01*
X19688791Y-30182857D02*
X19736410Y-30182857D01*
X19736410Y-30182857D02*
X19807839Y-30211428D01*
X19807839Y-30211428D02*
X20093553Y-30554285D01*
X20093553Y-30554285D02*
X20093553Y-30182857D01*
X20069744Y-29668571D02*
X20093553Y-29725713D01*
X20093553Y-29725713D02*
X20093553Y-29839999D01*
X20093553Y-29839999D02*
X20069744Y-29897142D01*
X20069744Y-29897142D02*
X20045934Y-29925713D01*
X20045934Y-29925713D02*
X19998315Y-29954285D01*
X19998315Y-29954285D02*
X19855458Y-29954285D01*
X19855458Y-29954285D02*
X19807839Y-29925713D01*
X19807839Y-29925713D02*
X19784029Y-29897142D01*
X19784029Y-29897142D02*
X19760220Y-29839999D01*
X19760220Y-29839999D02*
X19760220Y-29725713D01*
X19760220Y-29725713D02*
X19784029Y-29668571D01*
X19593553Y-29297142D02*
X19593553Y-29239999D01*
X19593553Y-29239999D02*
X19617363Y-29182856D01*
X19617363Y-29182856D02*
X19641172Y-29154285D01*
X19641172Y-29154285D02*
X19688791Y-29125713D01*
X19688791Y-29125713D02*
X19784029Y-29097142D01*
X19784029Y-29097142D02*
X19903077Y-29097142D01*
X19903077Y-29097142D02*
X19998315Y-29125713D01*
X19998315Y-29125713D02*
X20045934Y-29154285D01*
X20045934Y-29154285D02*
X20069744Y-29182856D01*
X20069744Y-29182856D02*
X20093553Y-29239999D01*
X20093553Y-29239999D02*
X20093553Y-29297142D01*
X20093553Y-29297142D02*
X20069744Y-29354285D01*
X20069744Y-29354285D02*
X20045934Y-29382856D01*
X20045934Y-29382856D02*
X19998315Y-29411427D01*
X19998315Y-29411427D02*
X19903077Y-29439999D01*
X19903077Y-29439999D02*
X19784029Y-29439999D01*
X19784029Y-29439999D02*
X19688791Y-29411427D01*
X19688791Y-29411427D02*
X19641172Y-29382856D01*
X19641172Y-29382856D02*
X19617363Y-29354285D01*
X19617363Y-29354285D02*
X19593553Y-29297142D01*
X19760220Y-28582856D02*
X20093553Y-28582856D01*
X19569744Y-28725713D02*
X19926886Y-28868570D01*
X19926886Y-28868570D02*
X19926886Y-28497141D01*
X17590000Y-27840000D02*
X20562492Y-27840000D01*
X20562492Y-34040000D01*
X17590000Y-34040000D01*
X17590000Y-27840000D01*
X30231025Y-18062931D02*
X30231025Y-18405789D01*
X30078644Y-18234360D02*
X30383406Y-18234360D01*
X30478644Y-18834360D02*
X30478644Y-18620074D01*
X30478644Y-18620074D02*
X30288168Y-18598646D01*
X30288168Y-18598646D02*
X30307215Y-18620074D01*
X30307215Y-18620074D02*
X30326263Y-18662932D01*
X30326263Y-18662932D02*
X30326263Y-18770074D01*
X30326263Y-18770074D02*
X30307215Y-18812932D01*
X30307215Y-18812932D02*
X30288168Y-18834360D01*
X30288168Y-18834360D02*
X30250072Y-18855789D01*
X30250072Y-18855789D02*
X30154834Y-18855789D01*
X30154834Y-18855789D02*
X30116739Y-18834360D01*
X30116739Y-18834360D02*
X30097692Y-18812932D01*
X30097692Y-18812932D02*
X30078644Y-18770074D01*
X30078644Y-18770074D02*
X30078644Y-18662932D01*
X30078644Y-18662932D02*
X30097692Y-18620074D01*
X30097692Y-18620074D02*
X30116739Y-18598646D01*
X30478644Y-18984360D02*
X30078644Y-19134360D01*
X30078644Y-19134360D02*
X30478644Y-19284360D01*
X30231025Y-20120073D02*
X30231025Y-20462931D01*
X30078644Y-20291502D02*
X30383406Y-20291502D01*
X30478644Y-20634359D02*
X30478644Y-20912931D01*
X30478644Y-20912931D02*
X30326263Y-20762931D01*
X30326263Y-20762931D02*
X30326263Y-20827216D01*
X30326263Y-20827216D02*
X30307215Y-20870074D01*
X30307215Y-20870074D02*
X30288168Y-20891502D01*
X30288168Y-20891502D02*
X30250072Y-20912931D01*
X30250072Y-20912931D02*
X30154834Y-20912931D01*
X30154834Y-20912931D02*
X30116739Y-20891502D01*
X30116739Y-20891502D02*
X30097692Y-20870074D01*
X30097692Y-20870074D02*
X30078644Y-20827216D01*
X30078644Y-20827216D02*
X30078644Y-20698645D01*
X30078644Y-20698645D02*
X30097692Y-20655788D01*
X30097692Y-20655788D02*
X30116739Y-20634359D01*
X30116739Y-21105787D02*
X30097692Y-21127216D01*
X30097692Y-21127216D02*
X30078644Y-21105787D01*
X30078644Y-21105787D02*
X30097692Y-21084359D01*
X30097692Y-21084359D02*
X30116739Y-21105787D01*
X30116739Y-21105787D02*
X30078644Y-21105787D01*
X30478644Y-21277216D02*
X30478644Y-21555788D01*
X30478644Y-21555788D02*
X30326263Y-21405788D01*
X30326263Y-21405788D02*
X30326263Y-21470073D01*
X30326263Y-21470073D02*
X30307215Y-21512931D01*
X30307215Y-21512931D02*
X30288168Y-21534359D01*
X30288168Y-21534359D02*
X30250072Y-21555788D01*
X30250072Y-21555788D02*
X30154834Y-21555788D01*
X30154834Y-21555788D02*
X30116739Y-21534359D01*
X30116739Y-21534359D02*
X30097692Y-21512931D01*
X30097692Y-21512931D02*
X30078644Y-21470073D01*
X30078644Y-21470073D02*
X30078644Y-21341502D01*
X30078644Y-21341502D02*
X30097692Y-21298645D01*
X30097692Y-21298645D02*
X30116739Y-21277216D01*
X30478644Y-21684359D02*
X30078644Y-21834359D01*
X30078644Y-21834359D02*
X30478644Y-21984359D01*
X30097692Y-22798644D02*
X30078644Y-22862930D01*
X30078644Y-22862930D02*
X30078644Y-22970072D01*
X30078644Y-22970072D02*
X30097692Y-23012930D01*
X30097692Y-23012930D02*
X30116739Y-23034358D01*
X30116739Y-23034358D02*
X30154834Y-23055787D01*
X30154834Y-23055787D02*
X30192930Y-23055787D01*
X30192930Y-23055787D02*
X30231025Y-23034358D01*
X30231025Y-23034358D02*
X30250072Y-23012930D01*
X30250072Y-23012930D02*
X30269120Y-22970072D01*
X30269120Y-22970072D02*
X30288168Y-22884358D01*
X30288168Y-22884358D02*
X30307215Y-22841501D01*
X30307215Y-22841501D02*
X30326263Y-22820072D01*
X30326263Y-22820072D02*
X30364358Y-22798644D01*
X30364358Y-22798644D02*
X30402453Y-22798644D01*
X30402453Y-22798644D02*
X30440549Y-22820072D01*
X30440549Y-22820072D02*
X30459596Y-22841501D01*
X30459596Y-22841501D02*
X30478644Y-22884358D01*
X30478644Y-22884358D02*
X30478644Y-22991501D01*
X30478644Y-22991501D02*
X30459596Y-23055787D01*
X30116739Y-23505786D02*
X30097692Y-23484358D01*
X30097692Y-23484358D02*
X30078644Y-23420072D01*
X30078644Y-23420072D02*
X30078644Y-23377215D01*
X30078644Y-23377215D02*
X30097692Y-23312929D01*
X30097692Y-23312929D02*
X30135787Y-23270072D01*
X30135787Y-23270072D02*
X30173882Y-23248643D01*
X30173882Y-23248643D02*
X30250072Y-23227215D01*
X30250072Y-23227215D02*
X30307215Y-23227215D01*
X30307215Y-23227215D02*
X30383406Y-23248643D01*
X30383406Y-23248643D02*
X30421501Y-23270072D01*
X30421501Y-23270072D02*
X30459596Y-23312929D01*
X30459596Y-23312929D02*
X30478644Y-23377215D01*
X30478644Y-23377215D02*
X30478644Y-23420072D01*
X30478644Y-23420072D02*
X30459596Y-23484358D01*
X30459596Y-23484358D02*
X30440549Y-23505786D01*
X30078644Y-23912929D02*
X30078644Y-23698643D01*
X30078644Y-23698643D02*
X30478644Y-23698643D01*
X30097692Y-25070072D02*
X30078644Y-25134358D01*
X30078644Y-25134358D02*
X30078644Y-25241500D01*
X30078644Y-25241500D02*
X30097692Y-25284358D01*
X30097692Y-25284358D02*
X30116739Y-25305786D01*
X30116739Y-25305786D02*
X30154834Y-25327215D01*
X30154834Y-25327215D02*
X30192930Y-25327215D01*
X30192930Y-25327215D02*
X30231025Y-25305786D01*
X30231025Y-25305786D02*
X30250072Y-25284358D01*
X30250072Y-25284358D02*
X30269120Y-25241500D01*
X30269120Y-25241500D02*
X30288168Y-25155786D01*
X30288168Y-25155786D02*
X30307215Y-25112929D01*
X30307215Y-25112929D02*
X30326263Y-25091500D01*
X30326263Y-25091500D02*
X30364358Y-25070072D01*
X30364358Y-25070072D02*
X30402453Y-25070072D01*
X30402453Y-25070072D02*
X30440549Y-25091500D01*
X30440549Y-25091500D02*
X30459596Y-25112929D01*
X30459596Y-25112929D02*
X30478644Y-25155786D01*
X30478644Y-25155786D02*
X30478644Y-25262929D01*
X30478644Y-25262929D02*
X30459596Y-25327215D01*
X30078644Y-25520071D02*
X30478644Y-25520071D01*
X30478644Y-25520071D02*
X30478644Y-25627214D01*
X30478644Y-25627214D02*
X30459596Y-25691500D01*
X30459596Y-25691500D02*
X30421501Y-25734357D01*
X30421501Y-25734357D02*
X30383406Y-25755786D01*
X30383406Y-25755786D02*
X30307215Y-25777214D01*
X30307215Y-25777214D02*
X30250072Y-25777214D01*
X30250072Y-25777214D02*
X30173882Y-25755786D01*
X30173882Y-25755786D02*
X30135787Y-25734357D01*
X30135787Y-25734357D02*
X30097692Y-25691500D01*
X30097692Y-25691500D02*
X30078644Y-25627214D01*
X30078644Y-25627214D02*
X30078644Y-25520071D01*
X30192930Y-25948643D02*
X30192930Y-26162929D01*
X30078644Y-25905786D02*
X30478644Y-26055786D01*
X30478644Y-26055786D02*
X30078644Y-26205786D01*
X30345311Y-27384356D02*
X30078644Y-27384356D01*
X30307215Y-27384356D02*
X30326263Y-27405785D01*
X30326263Y-27405785D02*
X30345311Y-27448642D01*
X30345311Y-27448642D02*
X30345311Y-27512928D01*
X30345311Y-27512928D02*
X30326263Y-27555785D01*
X30326263Y-27555785D02*
X30288168Y-27577214D01*
X30288168Y-27577214D02*
X30078644Y-27577214D01*
X30078644Y-27791499D02*
X30478644Y-27791499D01*
X30478644Y-27791499D02*
X30478644Y-27898642D01*
X30478644Y-27898642D02*
X30459596Y-27962928D01*
X30459596Y-27962928D02*
X30421501Y-28005785D01*
X30421501Y-28005785D02*
X30383406Y-28027214D01*
X30383406Y-28027214D02*
X30307215Y-28048642D01*
X30307215Y-28048642D02*
X30250072Y-28048642D01*
X30250072Y-28048642D02*
X30173882Y-28027214D01*
X30173882Y-28027214D02*
X30135787Y-28005785D01*
X30135787Y-28005785D02*
X30097692Y-27962928D01*
X30097692Y-27962928D02*
X30078644Y-27898642D01*
X30078644Y-27898642D02*
X30078644Y-27791499D01*
X30078644Y-28498642D02*
X30269120Y-28348642D01*
X30078644Y-28241499D02*
X30478644Y-28241499D01*
X30478644Y-28241499D02*
X30478644Y-28412928D01*
X30478644Y-28412928D02*
X30459596Y-28455785D01*
X30459596Y-28455785D02*
X30440549Y-28477214D01*
X30440549Y-28477214D02*
X30402453Y-28498642D01*
X30402453Y-28498642D02*
X30345311Y-28498642D01*
X30345311Y-28498642D02*
X30307215Y-28477214D01*
X30307215Y-28477214D02*
X30288168Y-28455785D01*
X30288168Y-28455785D02*
X30269120Y-28412928D01*
X30269120Y-28412928D02*
X30269120Y-28241499D01*
X30078644Y-28691499D02*
X30478644Y-28691499D01*
X30478644Y-28691499D02*
X30478644Y-28798642D01*
X30478644Y-28798642D02*
X30459596Y-28862928D01*
X30459596Y-28862928D02*
X30421501Y-28905785D01*
X30421501Y-28905785D02*
X30383406Y-28927214D01*
X30383406Y-28927214D02*
X30307215Y-28948642D01*
X30307215Y-28948642D02*
X30250072Y-28948642D01*
X30250072Y-28948642D02*
X30173882Y-28927214D01*
X30173882Y-28927214D02*
X30135787Y-28905785D01*
X30135787Y-28905785D02*
X30097692Y-28862928D01*
X30097692Y-28862928D02*
X30078644Y-28798642D01*
X30078644Y-28798642D02*
X30078644Y-28691499D01*
X30269120Y-29227214D02*
X30078644Y-29227214D01*
X30478644Y-29077214D02*
X30269120Y-29227214D01*
X30269120Y-29227214D02*
X30478644Y-29377214D01*
X30345311Y-30212927D02*
X30078644Y-30212927D01*
X30307215Y-30212927D02*
X30326263Y-30234356D01*
X30326263Y-30234356D02*
X30345311Y-30277213D01*
X30345311Y-30277213D02*
X30345311Y-30341499D01*
X30345311Y-30341499D02*
X30326263Y-30384356D01*
X30326263Y-30384356D02*
X30288168Y-30405785D01*
X30288168Y-30405785D02*
X30078644Y-30405785D01*
X30078644Y-30877213D02*
X30269120Y-30727213D01*
X30078644Y-30620070D02*
X30478644Y-30620070D01*
X30478644Y-30620070D02*
X30478644Y-30791499D01*
X30478644Y-30791499D02*
X30459596Y-30834356D01*
X30459596Y-30834356D02*
X30440549Y-30855785D01*
X30440549Y-30855785D02*
X30402453Y-30877213D01*
X30402453Y-30877213D02*
X30345311Y-30877213D01*
X30345311Y-30877213D02*
X30307215Y-30855785D01*
X30307215Y-30855785D02*
X30288168Y-30834356D01*
X30288168Y-30834356D02*
X30269120Y-30791499D01*
X30269120Y-30791499D02*
X30269120Y-30620070D01*
X30288168Y-31070070D02*
X30288168Y-31220070D01*
X30078644Y-31284356D02*
X30078644Y-31070070D01*
X30078644Y-31070070D02*
X30478644Y-31070070D01*
X30478644Y-31070070D02*
X30478644Y-31284356D01*
X30097692Y-31455785D02*
X30078644Y-31520071D01*
X30078644Y-31520071D02*
X30078644Y-31627213D01*
X30078644Y-31627213D02*
X30097692Y-31670071D01*
X30097692Y-31670071D02*
X30116739Y-31691499D01*
X30116739Y-31691499D02*
X30154834Y-31712928D01*
X30154834Y-31712928D02*
X30192930Y-31712928D01*
X30192930Y-31712928D02*
X30231025Y-31691499D01*
X30231025Y-31691499D02*
X30250072Y-31670071D01*
X30250072Y-31670071D02*
X30269120Y-31627213D01*
X30269120Y-31627213D02*
X30288168Y-31541499D01*
X30288168Y-31541499D02*
X30307215Y-31498642D01*
X30307215Y-31498642D02*
X30326263Y-31477213D01*
X30326263Y-31477213D02*
X30364358Y-31455785D01*
X30364358Y-31455785D02*
X30402453Y-31455785D01*
X30402453Y-31455785D02*
X30440549Y-31477213D01*
X30440549Y-31477213D02*
X30459596Y-31498642D01*
X30459596Y-31498642D02*
X30478644Y-31541499D01*
X30478644Y-31541499D02*
X30478644Y-31648642D01*
X30478644Y-31648642D02*
X30459596Y-31712928D01*
X30288168Y-31905784D02*
X30288168Y-32055784D01*
X30078644Y-32120070D02*
X30078644Y-31905784D01*
X30078644Y-31905784D02*
X30478644Y-31905784D01*
X30478644Y-31905784D02*
X30478644Y-32120070D01*
X30459596Y-33234356D02*
X30478644Y-33191499D01*
X30478644Y-33191499D02*
X30478644Y-33127213D01*
X30478644Y-33127213D02*
X30459596Y-33062927D01*
X30459596Y-33062927D02*
X30421501Y-33020070D01*
X30421501Y-33020070D02*
X30383406Y-32998641D01*
X30383406Y-32998641D02*
X30307215Y-32977213D01*
X30307215Y-32977213D02*
X30250072Y-32977213D01*
X30250072Y-32977213D02*
X30173882Y-32998641D01*
X30173882Y-32998641D02*
X30135787Y-33020070D01*
X30135787Y-33020070D02*
X30097692Y-33062927D01*
X30097692Y-33062927D02*
X30078644Y-33127213D01*
X30078644Y-33127213D02*
X30078644Y-33170070D01*
X30078644Y-33170070D02*
X30097692Y-33234356D01*
X30097692Y-33234356D02*
X30116739Y-33255784D01*
X30116739Y-33255784D02*
X30250072Y-33255784D01*
X30250072Y-33255784D02*
X30250072Y-33170070D01*
X30078644Y-33448641D02*
X30478644Y-33448641D01*
X30478644Y-33448641D02*
X30078644Y-33705784D01*
X30078644Y-33705784D02*
X30478644Y-33705784D01*
X30078644Y-33920070D02*
X30478644Y-33920070D01*
X30478644Y-33920070D02*
X30478644Y-34027213D01*
X30478644Y-34027213D02*
X30459596Y-34091499D01*
X30459596Y-34091499D02*
X30421501Y-34134356D01*
X30421501Y-34134356D02*
X30383406Y-34155785D01*
X30383406Y-34155785D02*
X30307215Y-34177213D01*
X30307215Y-34177213D02*
X30250072Y-34177213D01*
X30250072Y-34177213D02*
X30173882Y-34155785D01*
X30173882Y-34155785D02*
X30135787Y-34134356D01*
X30135787Y-34134356D02*
X30097692Y-34091499D01*
X30097692Y-34091499D02*
X30078644Y-34027213D01*
X30078644Y-34027213D02*
X30078644Y-33920070D01*
X29700000Y-17590000D02*
X30792492Y-17590000D01*
X30792492Y-34680000D01*
X29700000Y-34680000D01*
X29700000Y-17590000D01*
X16397069Y-31563972D02*
X16397069Y-31325877D01*
X16511355Y-31611591D02*
X16111355Y-31444925D01*
X16111355Y-31444925D02*
X16511355Y-31278258D01*
X16511355Y-31111592D02*
X16111355Y-31111592D01*
X16511355Y-30873497D02*
X16111355Y-30873497D01*
X16111355Y-30873497D02*
X16511355Y-30587783D01*
X16511355Y-30587783D02*
X16111355Y-30587783D01*
X16111355Y-30397306D02*
X16111355Y-30087782D01*
X16111355Y-30087782D02*
X16263736Y-30254449D01*
X16263736Y-30254449D02*
X16263736Y-30183020D01*
X16263736Y-30183020D02*
X16282784Y-30135401D01*
X16282784Y-30135401D02*
X16301831Y-30111592D01*
X16301831Y-30111592D02*
X16339927Y-30087782D01*
X16339927Y-30087782D02*
X16435165Y-30087782D01*
X16435165Y-30087782D02*
X16473260Y-30111592D01*
X16473260Y-30111592D02*
X16492308Y-30135401D01*
X16492308Y-30135401D02*
X16511355Y-30183020D01*
X16511355Y-30183020D02*
X16511355Y-30325877D01*
X16511355Y-30325877D02*
X16492308Y-30373496D01*
X16492308Y-30373496D02*
X16473260Y-30397306D01*
X16397069Y-29135402D02*
X16397069Y-28897307D01*
X16511355Y-29183021D02*
X16111355Y-29016355D01*
X16111355Y-29016355D02*
X16511355Y-28849688D01*
X16511355Y-28683022D02*
X16111355Y-28683022D01*
X16511355Y-28444927D02*
X16111355Y-28444927D01*
X16111355Y-28444927D02*
X16511355Y-28159213D01*
X16511355Y-28159213D02*
X16111355Y-28159213D01*
X16149450Y-27944926D02*
X16130403Y-27921117D01*
X16130403Y-27921117D02*
X16111355Y-27873498D01*
X16111355Y-27873498D02*
X16111355Y-27754450D01*
X16111355Y-27754450D02*
X16130403Y-27706831D01*
X16130403Y-27706831D02*
X16149450Y-27683022D01*
X16149450Y-27683022D02*
X16187546Y-27659212D01*
X16187546Y-27659212D02*
X16225641Y-27659212D01*
X16225641Y-27659212D02*
X16282784Y-27683022D01*
X16282784Y-27683022D02*
X16511355Y-27968736D01*
X16511355Y-27968736D02*
X16511355Y-27659212D01*
X16397069Y-26706832D02*
X16397069Y-26468737D01*
X16511355Y-26754451D02*
X16111355Y-26587785D01*
X16111355Y-26587785D02*
X16511355Y-26421118D01*
X16511355Y-26254452D02*
X16111355Y-26254452D01*
X16511355Y-26016357D02*
X16111355Y-26016357D01*
X16111355Y-26016357D02*
X16511355Y-25730643D01*
X16511355Y-25730643D02*
X16111355Y-25730643D01*
X16511355Y-25230642D02*
X16511355Y-25516356D01*
X16511355Y-25373499D02*
X16111355Y-25373499D01*
X16111355Y-25373499D02*
X16168498Y-25421118D01*
X16168498Y-25421118D02*
X16206593Y-25468737D01*
X16206593Y-25468737D02*
X16225641Y-25516356D01*
X16397069Y-24278262D02*
X16397069Y-24040167D01*
X16511355Y-24325881D02*
X16111355Y-24159215D01*
X16111355Y-24159215D02*
X16511355Y-23992548D01*
X16511355Y-23825882D02*
X16111355Y-23825882D01*
X16511355Y-23587787D02*
X16111355Y-23587787D01*
X16111355Y-23587787D02*
X16511355Y-23302073D01*
X16511355Y-23302073D02*
X16111355Y-23302073D01*
X16111355Y-22968739D02*
X16111355Y-22921120D01*
X16111355Y-22921120D02*
X16130403Y-22873501D01*
X16130403Y-22873501D02*
X16149450Y-22849691D01*
X16149450Y-22849691D02*
X16187546Y-22825882D01*
X16187546Y-22825882D02*
X16263736Y-22802072D01*
X16263736Y-22802072D02*
X16358974Y-22802072D01*
X16358974Y-22802072D02*
X16435165Y-22825882D01*
X16435165Y-22825882D02*
X16473260Y-22849691D01*
X16473260Y-22849691D02*
X16492308Y-22873501D01*
X16492308Y-22873501D02*
X16511355Y-22921120D01*
X16511355Y-22921120D02*
X16511355Y-22968739D01*
X16511355Y-22968739D02*
X16492308Y-23016358D01*
X16492308Y-23016358D02*
X16473260Y-23040167D01*
X16473260Y-23040167D02*
X16435165Y-23063977D01*
X16435165Y-23063977D02*
X16358974Y-23087786D01*
X16358974Y-23087786D02*
X16263736Y-23087786D01*
X16263736Y-23087786D02*
X16187546Y-23063977D01*
X16187546Y-23063977D02*
X16149450Y-23040167D01*
X16149450Y-23040167D02*
X16130403Y-23016358D01*
X16130403Y-23016358D02*
X16111355Y-22968739D01*
X16130403Y-21563978D02*
X16111355Y-21611597D01*
X16111355Y-21611597D02*
X16111355Y-21683026D01*
X16111355Y-21683026D02*
X16130403Y-21754454D01*
X16130403Y-21754454D02*
X16168498Y-21802073D01*
X16168498Y-21802073D02*
X16206593Y-21825883D01*
X16206593Y-21825883D02*
X16282784Y-21849692D01*
X16282784Y-21849692D02*
X16339927Y-21849692D01*
X16339927Y-21849692D02*
X16416117Y-21825883D01*
X16416117Y-21825883D02*
X16454212Y-21802073D01*
X16454212Y-21802073D02*
X16492308Y-21754454D01*
X16492308Y-21754454D02*
X16511355Y-21683026D01*
X16511355Y-21683026D02*
X16511355Y-21635407D01*
X16511355Y-21635407D02*
X16492308Y-21563978D01*
X16492308Y-21563978D02*
X16473260Y-21540169D01*
X16473260Y-21540169D02*
X16339927Y-21540169D01*
X16339927Y-21540169D02*
X16339927Y-21635407D01*
X16511355Y-21325883D02*
X16111355Y-21325883D01*
X16111355Y-21325883D02*
X16511355Y-21040169D01*
X16511355Y-21040169D02*
X16111355Y-21040169D01*
X16511355Y-20802073D02*
X16111355Y-20802073D01*
X16111355Y-20802073D02*
X16111355Y-20683025D01*
X16111355Y-20683025D02*
X16130403Y-20611597D01*
X16130403Y-20611597D02*
X16168498Y-20563978D01*
X16168498Y-20563978D02*
X16206593Y-20540168D01*
X16206593Y-20540168D02*
X16282784Y-20516359D01*
X16282784Y-20516359D02*
X16339927Y-20516359D01*
X16339927Y-20516359D02*
X16416117Y-20540168D01*
X16416117Y-20540168D02*
X16454212Y-20563978D01*
X16454212Y-20563978D02*
X16492308Y-20611597D01*
X16492308Y-20611597D02*
X16511355Y-20683025D01*
X16511355Y-20683025D02*
X16511355Y-20802073D01*
X16358974Y-19540169D02*
X16358974Y-19159217D01*
X16511355Y-19349693D02*
X16206593Y-19349693D01*
X16111355Y-18683026D02*
X16111355Y-18921121D01*
X16111355Y-18921121D02*
X16301831Y-18944930D01*
X16301831Y-18944930D02*
X16282784Y-18921121D01*
X16282784Y-18921121D02*
X16263736Y-18873502D01*
X16263736Y-18873502D02*
X16263736Y-18754454D01*
X16263736Y-18754454D02*
X16282784Y-18706835D01*
X16282784Y-18706835D02*
X16301831Y-18683026D01*
X16301831Y-18683026D02*
X16339927Y-18659216D01*
X16339927Y-18659216D02*
X16435165Y-18659216D01*
X16435165Y-18659216D02*
X16473260Y-18683026D01*
X16473260Y-18683026D02*
X16492308Y-18706835D01*
X16492308Y-18706835D02*
X16511355Y-18754454D01*
X16511355Y-18754454D02*
X16511355Y-18873502D01*
X16511355Y-18873502D02*
X16492308Y-18921121D01*
X16492308Y-18921121D02*
X16473260Y-18944930D01*
X16111355Y-18516359D02*
X16511355Y-18349693D01*
X16511355Y-18349693D02*
X16111355Y-18183026D01*
X15797508Y-15835000D02*
X16890000Y-15835000D01*
X16890000Y-32025000D01*
X15797508Y-32025000D01*
X15797508Y-15835000D01*
D11*
X20740237Y-24106818D02*
X20740237Y-22836818D01*
X22070714Y-23985865D02*
X22010238Y-24046342D01*
X22010238Y-24046342D02*
X21828809Y-24106818D01*
X21828809Y-24106818D02*
X21707857Y-24106818D01*
X21707857Y-24106818D02*
X21526428Y-24046342D01*
X21526428Y-24046342D02*
X21405476Y-23925389D01*
X21405476Y-23925389D02*
X21344999Y-23804437D01*
X21344999Y-23804437D02*
X21284523Y-23562532D01*
X21284523Y-23562532D02*
X21284523Y-23381103D01*
X21284523Y-23381103D02*
X21344999Y-23139199D01*
X21344999Y-23139199D02*
X21405476Y-23018246D01*
X21405476Y-23018246D02*
X21526428Y-22897294D01*
X21526428Y-22897294D02*
X21707857Y-22836818D01*
X21707857Y-22836818D02*
X21828809Y-22836818D01*
X21828809Y-22836818D02*
X22010238Y-22897294D01*
X22010238Y-22897294D02*
X22070714Y-22957770D01*
X23280238Y-24106818D02*
X22554523Y-24106818D01*
X22917380Y-24106818D02*
X22917380Y-22836818D01*
X22917380Y-22836818D02*
X22796428Y-23018246D01*
X22796428Y-23018246D02*
X22675476Y-23139199D01*
X22675476Y-23139199D02*
X22554523Y-23199675D01*
D12*
X14284819Y-25243333D02*
X14999104Y-25243333D01*
X14999104Y-25243333D02*
X15141961Y-25290952D01*
X15141961Y-25290952D02*
X15237200Y-25386190D01*
X15237200Y-25386190D02*
X15284819Y-25529047D01*
X15284819Y-25529047D02*
X15284819Y-25624285D01*
X15284819Y-24243333D02*
X15284819Y-24814761D01*
X15284819Y-24529047D02*
X14284819Y-24529047D01*
X14284819Y-24529047D02*
X14427676Y-24624285D01*
X14427676Y-24624285D02*
X14522914Y-24719523D01*
X14522914Y-24719523D02*
X14570533Y-24814761D01*
X31154819Y-24833333D02*
X31869104Y-24833333D01*
X31869104Y-24833333D02*
X32011961Y-24880952D01*
X32011961Y-24880952D02*
X32107200Y-24976190D01*
X32107200Y-24976190D02*
X32154819Y-25119047D01*
X32154819Y-25119047D02*
X32154819Y-25214285D01*
X31154819Y-23880952D02*
X31154819Y-24357142D01*
X31154819Y-24357142D02*
X31631009Y-24404761D01*
X31631009Y-24404761D02*
X31583390Y-24357142D01*
X31583390Y-24357142D02*
X31535771Y-24261904D01*
X31535771Y-24261904D02*
X31535771Y-24023809D01*
X31535771Y-24023809D02*
X31583390Y-23928571D01*
X31583390Y-23928571D02*
X31631009Y-23880952D01*
X31631009Y-23880952D02*
X31726247Y-23833333D01*
X31726247Y-23833333D02*
X31964342Y-23833333D01*
X31964342Y-23833333D02*
X32059580Y-23880952D01*
X32059580Y-23880952D02*
X32107200Y-23928571D01*
X32107200Y-23928571D02*
X32154819Y-24023809D01*
X32154819Y-24023809D02*
X32154819Y-24261904D01*
X32154819Y-24261904D02*
X32107200Y-24357142D01*
X32107200Y-24357142D02*
X32059580Y-24404761D01*
X28608449Y-22854854D02*
X28570353Y-22892950D01*
X28570353Y-22892950D02*
X28456068Y-22931045D01*
X28456068Y-22931045D02*
X28379877Y-22931045D01*
X28379877Y-22931045D02*
X28265591Y-22892950D01*
X28265591Y-22892950D02*
X28189401Y-22816759D01*
X28189401Y-22816759D02*
X28151306Y-22740569D01*
X28151306Y-22740569D02*
X28113210Y-22588188D01*
X28113210Y-22588188D02*
X28113210Y-22473902D01*
X28113210Y-22473902D02*
X28151306Y-22321521D01*
X28151306Y-22321521D02*
X28189401Y-22245330D01*
X28189401Y-22245330D02*
X28265591Y-22169140D01*
X28265591Y-22169140D02*
X28379877Y-22131045D01*
X28379877Y-22131045D02*
X28456068Y-22131045D01*
X28456068Y-22131045D02*
X28570353Y-22169140D01*
X28570353Y-22169140D02*
X28608449Y-22207235D01*
X28913210Y-22207235D02*
X28951306Y-22169140D01*
X28951306Y-22169140D02*
X29027496Y-22131045D01*
X29027496Y-22131045D02*
X29217972Y-22131045D01*
X29217972Y-22131045D02*
X29294163Y-22169140D01*
X29294163Y-22169140D02*
X29332258Y-22207235D01*
X29332258Y-22207235D02*
X29370353Y-22283426D01*
X29370353Y-22283426D02*
X29370353Y-22359616D01*
X29370353Y-22359616D02*
X29332258Y-22473902D01*
X29332258Y-22473902D02*
X28875115Y-22931045D01*
X28875115Y-22931045D02*
X29370353Y-22931045D01*
X29029580Y-20946666D02*
X29077200Y-20994285D01*
X29077200Y-20994285D02*
X29124819Y-21137142D01*
X29124819Y-21137142D02*
X29124819Y-21232380D01*
X29124819Y-21232380D02*
X29077200Y-21375237D01*
X29077200Y-21375237D02*
X28981961Y-21470475D01*
X28981961Y-21470475D02*
X28886723Y-21518094D01*
X28886723Y-21518094D02*
X28696247Y-21565713D01*
X28696247Y-21565713D02*
X28553390Y-21565713D01*
X28553390Y-21565713D02*
X28362914Y-21518094D01*
X28362914Y-21518094D02*
X28267676Y-21470475D01*
X28267676Y-21470475D02*
X28172438Y-21375237D01*
X28172438Y-21375237D02*
X28124819Y-21232380D01*
X28124819Y-21232380D02*
X28124819Y-21137142D01*
X28124819Y-21137142D02*
X28172438Y-20994285D01*
X28172438Y-20994285D02*
X28220057Y-20946666D01*
X28458152Y-20089523D02*
X29124819Y-20089523D01*
X28077200Y-20327618D02*
X28791485Y-20565713D01*
X28791485Y-20565713D02*
X28791485Y-19946666D01*
X27833333Y-27359580D02*
X27785714Y-27407200D01*
X27785714Y-27407200D02*
X27642857Y-27454819D01*
X27642857Y-27454819D02*
X27547619Y-27454819D01*
X27547619Y-27454819D02*
X27404762Y-27407200D01*
X27404762Y-27407200D02*
X27309524Y-27311961D01*
X27309524Y-27311961D02*
X27261905Y-27216723D01*
X27261905Y-27216723D02*
X27214286Y-27026247D01*
X27214286Y-27026247D02*
X27214286Y-26883390D01*
X27214286Y-26883390D02*
X27261905Y-26692914D01*
X27261905Y-26692914D02*
X27309524Y-26597676D01*
X27309524Y-26597676D02*
X27404762Y-26502438D01*
X27404762Y-26502438D02*
X27547619Y-26454819D01*
X27547619Y-26454819D02*
X27642857Y-26454819D01*
X27642857Y-26454819D02*
X27785714Y-26502438D01*
X27785714Y-26502438D02*
X27833333Y-26550057D01*
X28785714Y-27454819D02*
X28214286Y-27454819D01*
X28500000Y-27454819D02*
X28500000Y-26454819D01*
X28500000Y-26454819D02*
X28404762Y-26597676D01*
X28404762Y-26597676D02*
X28309524Y-26692914D01*
X28309524Y-26692914D02*
X28214286Y-26740533D01*
D13*
%TO.C,IC1*%
X18305000Y-20682500D02*
X19780000Y-20682500D01*
X20130000Y-21032500D02*
X23830000Y-21032500D01*
X20130000Y-26032500D02*
X20130000Y-21032500D01*
X23830000Y-21032500D02*
X23830000Y-26032500D01*
X23830000Y-26032500D02*
X20130000Y-26032500D01*
D14*
%TO.C,J1*%
X6600000Y-16070000D02*
X15020000Y-16070000D01*
X6600000Y-33790000D02*
X6600000Y-16070000D01*
X7820000Y-16070000D02*
X7820000Y-17290000D01*
X7820000Y-17290000D02*
X12820000Y-17290000D01*
X7820000Y-32570000D02*
X12820000Y-32570000D01*
X7820000Y-33790000D02*
X7820000Y-32570000D01*
X8320000Y-18680000D02*
X8400000Y-18360000D01*
X8320000Y-21180000D02*
X8400000Y-20860000D01*
X8320000Y-23680000D02*
X8400000Y-23360000D01*
X8320000Y-26180000D02*
X8400000Y-25860000D01*
X8320000Y-28680000D02*
X8400000Y-28360000D01*
X8320000Y-31180000D02*
X8400000Y-30860000D01*
X8400000Y-18360000D02*
X11820000Y-18360000D01*
X8400000Y-19000000D02*
X8320000Y-18680000D01*
X8400000Y-20860000D02*
X11820000Y-20860000D01*
X8400000Y-21500000D02*
X8320000Y-21180000D01*
X8400000Y-23360000D02*
X11820000Y-23360000D01*
X8400000Y-24000000D02*
X8320000Y-23680000D01*
X8400000Y-25860000D02*
X11820000Y-25860000D01*
X8400000Y-26500000D02*
X8320000Y-26180000D01*
X8400000Y-28360000D02*
X11820000Y-28360000D01*
X8400000Y-29000000D02*
X8320000Y-28680000D01*
X8400000Y-30860000D02*
X11820000Y-30860000D01*
X8400000Y-31500000D02*
X8320000Y-31180000D01*
X11820000Y-18360000D02*
X11820000Y-18680000D01*
X11820000Y-18680000D02*
X11820000Y-19000000D01*
X11820000Y-19000000D02*
X8400000Y-19000000D01*
X11820000Y-20860000D02*
X11820000Y-21180000D01*
X11820000Y-21180000D02*
X11820000Y-21500000D01*
X11820000Y-21500000D02*
X8400000Y-21500000D01*
X11820000Y-23360000D02*
X11820000Y-23680000D01*
X11820000Y-23680000D02*
X11820000Y-24000000D01*
X11820000Y-24000000D02*
X8400000Y-24000000D01*
X11820000Y-25860000D02*
X11820000Y-26180000D01*
X11820000Y-26180000D02*
X11820000Y-26500000D01*
X11820000Y-26500000D02*
X8400000Y-26500000D01*
X11820000Y-28360000D02*
X11820000Y-28680000D01*
X11820000Y-28680000D02*
X11820000Y-29000000D01*
X11820000Y-29000000D02*
X8400000Y-29000000D01*
X11820000Y-30860000D02*
X11820000Y-31180000D01*
X11820000Y-31180000D02*
X11820000Y-31500000D01*
X11820000Y-31500000D02*
X8400000Y-31500000D01*
X11820000Y-32570000D02*
X11820000Y-17290000D01*
X12820000Y-17290000D02*
X12820000Y-16070000D01*
X12820000Y-20010000D02*
X12820000Y-19850000D01*
X12820000Y-22510000D02*
X12820000Y-22350000D01*
X12820000Y-25010000D02*
X12820000Y-24850000D01*
X12820000Y-27510000D02*
X12820000Y-27350000D01*
X12820000Y-30010000D02*
X12820000Y-29850000D01*
X12820000Y-32570000D02*
X12820000Y-33790000D01*
X12820000Y-32570000D02*
X15020000Y-32570000D01*
X14910000Y-31180000D02*
X15510000Y-31480000D01*
X15020000Y-16070000D02*
X15020000Y-17290000D01*
X15020000Y-17290000D02*
X12820000Y-17290000D01*
X15020000Y-32570000D02*
X15020000Y-33790000D01*
X15020000Y-33790000D02*
X6600000Y-33790000D01*
X15510000Y-30880000D02*
X14910000Y-31180000D01*
X15510000Y-31480000D02*
X15510000Y-30880000D01*
D15*
%TO.C,G\u002A\u002A\u002A*%
G36*
X29466407Y-14341682D02*
G01*
X29466407Y-14415806D01*
X29241288Y-14415806D01*
X29016169Y-14415806D01*
X29016169Y-14555819D01*
X29016169Y-14695832D01*
X29224816Y-14695832D01*
X29433463Y-14695832D01*
X29433463Y-14772702D01*
X29433463Y-14849572D01*
X29224816Y-14849572D01*
X29016169Y-14849572D01*
X29016169Y-14992330D01*
X29016169Y-15135088D01*
X29246779Y-15135088D01*
X29477389Y-15135088D01*
X29477389Y-15209213D01*
X29477389Y-15283337D01*
X29158928Y-15283337D01*
X28840467Y-15283337D01*
X28840467Y-14775447D01*
X28840467Y-14267557D01*
X29153437Y-14267557D01*
X29466407Y-14267557D01*
X29466407Y-14341682D01*
G37*
G36*
X27929908Y-10776706D02*
G01*
X28018657Y-10778214D01*
X28219543Y-11126874D01*
X28420428Y-11475534D01*
X28421841Y-11125501D01*
X28423255Y-10775469D01*
X28511065Y-10775469D01*
X28598876Y-10775469D01*
X28598876Y-11283495D01*
X28598876Y-11791521D01*
X28510511Y-11790013D01*
X28422146Y-11788504D01*
X28228099Y-11451732D01*
X28195784Y-11395682D01*
X28164920Y-11342219D01*
X28135970Y-11292137D01*
X28109393Y-11246228D01*
X28085650Y-11205288D01*
X28065201Y-11170108D01*
X28048508Y-11141484D01*
X28036031Y-11120208D01*
X28028230Y-11107073D01*
X28025745Y-11103072D01*
X28024061Y-11101497D01*
X28022616Y-11102450D01*
X28021392Y-11106675D01*
X28020369Y-11114916D01*
X28019529Y-11127917D01*
X28018853Y-11146424D01*
X28018321Y-11171181D01*
X28017916Y-11202931D01*
X28017617Y-11242421D01*
X28017406Y-11290393D01*
X28017265Y-11347593D01*
X28017173Y-11414765D01*
X28017149Y-11441217D01*
X28016861Y-11791249D01*
X27929010Y-11791249D01*
X27841159Y-11791249D01*
X27841159Y-11283223D01*
X27841159Y-10775197D01*
X27929908Y-10776706D01*
G37*
G36*
X20493686Y-10792072D02*
G01*
X20567121Y-10792188D01*
X20638258Y-10792368D01*
X20706267Y-10792612D01*
X20770319Y-10792918D01*
X20829582Y-10793289D01*
X20883227Y-10793723D01*
X20930425Y-10794222D01*
X20970345Y-10794786D01*
X21002157Y-10795415D01*
X21025031Y-10796108D01*
X21038138Y-10796868D01*
X21040496Y-10797198D01*
X21068859Y-10808301D01*
X21091040Y-10827656D01*
X21102601Y-10844619D01*
X21113071Y-10872921D01*
X21113699Y-10901645D01*
X21105351Y-10928782D01*
X21088893Y-10952324D01*
X21065193Y-10970265D01*
X21044868Y-10978383D01*
X21036566Y-10979173D01*
X21018127Y-10979899D01*
X20990377Y-10980561D01*
X20954139Y-10981158D01*
X20910237Y-10981693D01*
X20859496Y-10982164D01*
X20802739Y-10982571D01*
X20740792Y-10982916D01*
X20674477Y-10983198D01*
X20604618Y-10983417D01*
X20532041Y-10983574D01*
X20457570Y-10983668D01*
X20382027Y-10983700D01*
X20306238Y-10983671D01*
X20231027Y-10983580D01*
X20157217Y-10983427D01*
X20085632Y-10983213D01*
X20017098Y-10982938D01*
X19952438Y-10982603D01*
X19892476Y-10982206D01*
X19838036Y-10981749D01*
X19789942Y-10981232D01*
X19749019Y-10980654D01*
X19716090Y-10980017D01*
X19691980Y-10979319D01*
X19677512Y-10978563D01*
X19673735Y-10978060D01*
X19648872Y-10965075D01*
X19629260Y-10944504D01*
X19615975Y-10918895D01*
X19610088Y-10890796D01*
X19612674Y-10862757D01*
X19618631Y-10847229D01*
X19634837Y-10825763D01*
X19657683Y-10807911D01*
X19680769Y-10797673D01*
X19689080Y-10796881D01*
X19707542Y-10796147D01*
X19735325Y-10795472D01*
X19771600Y-10794856D01*
X19815536Y-10794300D01*
X19866304Y-10793804D01*
X19923073Y-10793367D01*
X19985013Y-10792991D01*
X20051296Y-10792675D01*
X20121090Y-10792421D01*
X20193566Y-10792227D01*
X20267893Y-10792095D01*
X20343242Y-10792025D01*
X20418783Y-10792017D01*
X20493686Y-10792072D01*
G37*
G36*
X18159744Y-10791808D02*
G01*
X18234817Y-10791894D01*
X18308411Y-10792048D01*
X18379695Y-10792269D01*
X18447839Y-10792557D01*
X18512011Y-10792913D01*
X18571381Y-10793336D01*
X18625119Y-10793826D01*
X18672394Y-10794384D01*
X18712374Y-10795009D01*
X18744230Y-10795702D01*
X18767131Y-10796462D01*
X18780246Y-10797289D01*
X18782698Y-10797673D01*
X18810660Y-10810378D01*
X18832011Y-10829873D01*
X18846212Y-10854134D01*
X18852727Y-10881136D01*
X18851017Y-10908852D01*
X18840544Y-10935259D01*
X18824496Y-10955027D01*
X18820090Y-10959286D01*
X18816091Y-10963109D01*
X18811910Y-10966518D01*
X18806964Y-10969538D01*
X18800667Y-10972191D01*
X18792432Y-10974500D01*
X18781674Y-10976489D01*
X18767807Y-10978180D01*
X18750247Y-10979598D01*
X18728406Y-10980764D01*
X18701700Y-10981703D01*
X18669544Y-10982436D01*
X18631350Y-10982989D01*
X18586534Y-10983382D01*
X18534510Y-10983641D01*
X18474692Y-10983787D01*
X18406495Y-10983844D01*
X18329334Y-10983836D01*
X18242621Y-10983785D01*
X18145773Y-10983714D01*
X18099452Y-10983682D01*
X17983219Y-10983562D01*
X17877909Y-10983357D01*
X17783464Y-10983068D01*
X17699827Y-10982694D01*
X17626938Y-10982235D01*
X17564740Y-10981689D01*
X17513175Y-10981057D01*
X17472185Y-10980337D01*
X17441712Y-10979530D01*
X17421697Y-10978635D01*
X17412084Y-10977651D01*
X17411565Y-10977506D01*
X17384751Y-10962665D01*
X17364253Y-10940186D01*
X17351684Y-10912358D01*
X17348422Y-10888028D01*
X17353532Y-10857198D01*
X17368012Y-10830704D01*
X17390586Y-10810191D01*
X17418599Y-10797673D01*
X17427157Y-10796816D01*
X17445867Y-10796027D01*
X17473895Y-10795305D01*
X17510413Y-10794650D01*
X17554590Y-10794063D01*
X17605594Y-10793543D01*
X17662595Y-10793090D01*
X17724763Y-10792705D01*
X17791266Y-10792387D01*
X17861275Y-10792136D01*
X17933957Y-10791953D01*
X18008483Y-10791837D01*
X18084023Y-10791789D01*
X18159744Y-10791808D01*
G37*
G36*
X27972276Y-14285402D02*
G01*
X27974828Y-14293550D01*
X27980354Y-14311290D01*
X27988575Y-14337725D01*
X27999213Y-14371957D01*
X28011988Y-14413088D01*
X28026623Y-14460223D01*
X28042838Y-14512464D01*
X28060355Y-14568913D01*
X28078896Y-14628674D01*
X28091212Y-14668378D01*
X28110178Y-14729384D01*
X28128278Y-14787332D01*
X28145240Y-14841366D01*
X28160789Y-14890627D01*
X28174654Y-14934261D01*
X28186560Y-14971409D01*
X28196236Y-15001215D01*
X28203408Y-15022821D01*
X28207803Y-15035372D01*
X28209065Y-15038295D01*
X28212716Y-15035875D01*
X28218117Y-15025075D01*
X28224186Y-15008126D01*
X28225039Y-15005351D01*
X28228632Y-14993627D01*
X28235198Y-14972412D01*
X28244429Y-14942694D01*
X28256017Y-14905461D01*
X28269652Y-14861703D01*
X28285029Y-14812408D01*
X28301837Y-14758563D01*
X28319770Y-14701159D01*
X28338518Y-14641183D01*
X28345468Y-14618962D01*
X28454522Y-14270302D01*
X28537681Y-14268787D01*
X28566477Y-14268356D01*
X28590936Y-14268170D01*
X28609172Y-14268228D01*
X28619301Y-14268531D01*
X28620738Y-14268787D01*
X28619072Y-14274111D01*
X28614257Y-14289169D01*
X28606523Y-14313248D01*
X28596100Y-14345633D01*
X28583219Y-14385609D01*
X28568110Y-14432464D01*
X28551004Y-14485482D01*
X28532130Y-14543950D01*
X28511719Y-14607153D01*
X28490002Y-14674377D01*
X28467208Y-14744908D01*
X28457336Y-14775447D01*
X28294035Y-15280592D01*
X28203492Y-15282060D01*
X28112949Y-15283528D01*
X27951515Y-14782406D01*
X27928455Y-14710834D01*
X27906329Y-14642175D01*
X27885370Y-14577159D01*
X27865814Y-14516512D01*
X27847896Y-14460961D01*
X27831850Y-14411236D01*
X27817911Y-14368063D01*
X27806315Y-14332171D01*
X27797295Y-14304286D01*
X27791087Y-14285137D01*
X27787926Y-14275451D01*
X27787579Y-14274420D01*
X27789049Y-14271777D01*
X27796466Y-14269862D01*
X27811013Y-14268583D01*
X27833875Y-14267849D01*
X27866236Y-14267568D01*
X27875835Y-14267557D01*
X27966593Y-14267557D01*
X27972276Y-14285402D01*
G37*
G36*
X26166490Y-12827620D02*
G01*
X26190532Y-12882795D01*
X26213495Y-12935401D01*
X26234967Y-12984497D01*
X26254536Y-13029147D01*
X26271789Y-13068412D01*
X26286314Y-13101353D01*
X26297699Y-13127033D01*
X26305531Y-13144513D01*
X26309390Y-13152839D01*
X26319027Y-13171951D01*
X26327017Y-13152839D01*
X26330609Y-13144457D01*
X26338183Y-13126948D01*
X26349332Y-13101247D01*
X26363647Y-13068292D01*
X26380722Y-13029021D01*
X26400149Y-12984371D01*
X26421520Y-12935280D01*
X26444428Y-12882684D01*
X26468422Y-12827620D01*
X26601836Y-12521513D01*
X26686154Y-12521513D01*
X26770471Y-12521513D01*
X26770471Y-13029403D01*
X26770471Y-13537293D01*
X26682620Y-13537293D01*
X26594769Y-13537293D01*
X26594446Y-13222950D01*
X26594281Y-13147396D01*
X26593952Y-13082718D01*
X26593456Y-13028812D01*
X26592793Y-12985574D01*
X26591958Y-12952900D01*
X26590952Y-12930685D01*
X26589771Y-12918827D01*
X26588606Y-12916844D01*
X26585465Y-12923234D01*
X26578326Y-12938790D01*
X26567589Y-12962614D01*
X26553653Y-12993809D01*
X26536916Y-13031477D01*
X26517776Y-13074721D01*
X26496634Y-13122644D01*
X26473887Y-13174348D01*
X26449934Y-13228935D01*
X26449657Y-13229567D01*
X26425750Y-13283965D01*
X26403054Y-13335305D01*
X26381963Y-13382713D01*
X26362872Y-13425317D01*
X26346176Y-13462244D01*
X26332270Y-13492620D01*
X26321549Y-13515572D01*
X26314408Y-13530226D01*
X26311241Y-13535711D01*
X26311212Y-13535725D01*
X26307036Y-13531759D01*
X26299906Y-13519730D01*
X26290996Y-13501755D01*
X26285416Y-13489301D01*
X26253418Y-13415387D01*
X26222390Y-13343991D01*
X26192626Y-13275769D01*
X26164417Y-13211377D01*
X26138053Y-13151471D01*
X26113827Y-13096706D01*
X26092030Y-13047740D01*
X26072954Y-13005226D01*
X26056890Y-12969822D01*
X26044130Y-12942183D01*
X26034964Y-12922965D01*
X26029685Y-12912824D01*
X26028550Y-12911353D01*
X26027640Y-12916691D01*
X26026791Y-12932098D01*
X26026017Y-12956659D01*
X26025333Y-12989460D01*
X26024753Y-13029590D01*
X26024289Y-13076134D01*
X26023958Y-13128179D01*
X26023772Y-13184811D01*
X26023735Y-13224323D01*
X26023735Y-13537293D01*
X25938629Y-13537293D01*
X25853524Y-13537293D01*
X25853524Y-13029403D01*
X25853524Y-12521513D01*
X25943375Y-12521513D01*
X26033226Y-12521513D01*
X26166490Y-12827620D01*
G37*
G36*
X30008614Y-14268686D02*
G01*
X30069822Y-14269069D01*
X30121058Y-14269446D01*
X30163334Y-14269863D01*
X30197661Y-14270366D01*
X30225048Y-14271001D01*
X30246506Y-14271815D01*
X30263047Y-14272854D01*
X30275679Y-14274163D01*
X30285415Y-14275790D01*
X30293264Y-14277780D01*
X30300236Y-14280180D01*
X30305465Y-14282263D01*
X30350539Y-14306366D01*
X30388358Y-14338686D01*
X30418773Y-14379071D01*
X30439125Y-14420719D01*
X30443479Y-14433034D01*
X30446751Y-14445896D01*
X30449148Y-14461259D01*
X30450878Y-14481079D01*
X30452149Y-14507310D01*
X30453170Y-14541907D01*
X30453494Y-14555819D01*
X30454020Y-14597952D01*
X30453670Y-14635242D01*
X30452492Y-14665847D01*
X30450539Y-14687924D01*
X30449759Y-14692884D01*
X30435644Y-14741892D01*
X30412892Y-14785682D01*
X30382422Y-14823066D01*
X30345152Y-14852857D01*
X30312936Y-14869651D01*
X30274429Y-14885728D01*
X30331945Y-14995309D01*
X30352496Y-15034478D01*
X30374961Y-15077319D01*
X30397581Y-15120478D01*
X30418598Y-15160600D01*
X30436141Y-15194113D01*
X30482819Y-15283337D01*
X30387080Y-15283337D01*
X30291341Y-15283337D01*
X30188587Y-15085672D01*
X30085832Y-14888007D01*
X30001239Y-14888007D01*
X29916645Y-14888007D01*
X29916645Y-15085672D01*
X29916645Y-15283337D01*
X29828794Y-15283337D01*
X29740943Y-15283337D01*
X29740943Y-14775203D01*
X29740943Y-14739758D01*
X29916645Y-14739758D01*
X30066352Y-14739758D01*
X30111420Y-14739698D01*
X30146878Y-14739466D01*
X30174098Y-14738977D01*
X30194452Y-14738149D01*
X30209310Y-14736899D01*
X30220046Y-14735146D01*
X30228030Y-14732805D01*
X30234633Y-14729795D01*
X30235015Y-14729592D01*
X30248328Y-14721943D01*
X30258434Y-14714100D01*
X30265802Y-14704473D01*
X30270902Y-14691468D01*
X30274203Y-14673494D01*
X30276175Y-14648959D01*
X30277286Y-14616270D01*
X30277855Y-14584261D01*
X30278234Y-14542154D01*
X30277681Y-14509490D01*
X30275775Y-14484743D01*
X30272097Y-14466384D01*
X30266226Y-14452889D01*
X30257743Y-14442729D01*
X30246228Y-14434379D01*
X30234909Y-14428160D01*
X30227264Y-14424456D01*
X30219559Y-14421577D01*
X30210358Y-14419419D01*
X30198225Y-14417879D01*
X30181725Y-14416852D01*
X30159419Y-14416235D01*
X30129873Y-14415924D01*
X30091651Y-14415817D01*
X30063731Y-14415806D01*
X29916645Y-14415806D01*
X29916645Y-14577782D01*
X29916645Y-14739758D01*
X29740943Y-14739758D01*
X29740943Y-14577782D01*
X29740943Y-14267069D01*
X30008614Y-14268686D01*
G37*
G36*
X27428413Y-12522755D02*
G01*
X27519753Y-12524258D01*
X27644544Y-12886645D01*
X27667026Y-12951938D01*
X27689732Y-13017898D01*
X27712203Y-13083188D01*
X27733980Y-13146473D01*
X27754602Y-13206415D01*
X27773610Y-13261679D01*
X27790544Y-13310927D01*
X27804944Y-13352825D01*
X27816351Y-13386034D01*
X27818843Y-13393294D01*
X27868350Y-13537558D01*
X27776965Y-13536053D01*
X27685579Y-13534548D01*
X27643490Y-13408262D01*
X27601400Y-13281976D01*
X27420600Y-13280530D01*
X27239800Y-13279085D01*
X27196896Y-13408189D01*
X27153992Y-13537293D01*
X27072046Y-13537293D01*
X27043461Y-13537086D01*
X27019219Y-13536514D01*
X27001222Y-13535655D01*
X26991374Y-13534584D01*
X26990099Y-13534006D01*
X26991847Y-13528439D01*
X26996919Y-13513246D01*
X27005057Y-13489183D01*
X27016001Y-13457003D01*
X27029495Y-13417463D01*
X27045280Y-13371317D01*
X27063098Y-13319321D01*
X27082690Y-13262229D01*
X27103799Y-13200796D01*
X27126166Y-13135778D01*
X27130371Y-13123567D01*
X27292088Y-13123567D01*
X27293945Y-13125986D01*
X27300287Y-13127841D01*
X27312267Y-13129197D01*
X27331041Y-13130122D01*
X27357763Y-13130681D01*
X27393588Y-13130941D01*
X27421120Y-13130981D01*
X27457445Y-13130814D01*
X27489814Y-13130345D01*
X27516710Y-13129622D01*
X27536617Y-13128694D01*
X27548018Y-13127610D01*
X27550151Y-13126864D01*
X27548484Y-13120446D01*
X27543793Y-13105256D01*
X27536547Y-13082685D01*
X27527215Y-13054125D01*
X27516264Y-13020967D01*
X27504163Y-12984603D01*
X27491381Y-12946425D01*
X27478385Y-12907825D01*
X27465644Y-12870194D01*
X27453626Y-12834924D01*
X27442799Y-12803406D01*
X27433632Y-12777032D01*
X27426593Y-12757193D01*
X27422150Y-12745282D01*
X27420780Y-12742396D01*
X27418363Y-12748143D01*
X27412979Y-12762887D01*
X27405111Y-12785199D01*
X27395240Y-12813649D01*
X27383850Y-12846810D01*
X27371422Y-12883251D01*
X27358440Y-12921544D01*
X27345386Y-12960260D01*
X27332741Y-12997969D01*
X27320990Y-13033244D01*
X27310613Y-13064655D01*
X27302094Y-13090773D01*
X27295915Y-13110169D01*
X27292558Y-13121415D01*
X27292088Y-13123567D01*
X27130371Y-13123567D01*
X27144548Y-13082396D01*
X27168253Y-13013572D01*
X27191293Y-12946655D01*
X27213364Y-12882525D01*
X27234166Y-12822061D01*
X27253395Y-12766140D01*
X27270751Y-12715641D01*
X27285931Y-12671442D01*
X27298633Y-12634423D01*
X27308555Y-12605461D01*
X27315396Y-12585435D01*
X27318035Y-12577662D01*
X27337074Y-12521252D01*
X27428413Y-12522755D01*
G37*
G36*
X28355912Y-12522642D02*
G01*
X28623584Y-12524258D01*
X28660693Y-12541837D01*
X28705046Y-12568297D01*
X28740897Y-12601663D01*
X28768292Y-12642000D01*
X28787279Y-12689376D01*
X28797340Y-12739084D01*
X28800341Y-12774383D01*
X28801476Y-12814457D01*
X28800875Y-12856543D01*
X28798668Y-12897877D01*
X28794985Y-12935694D01*
X28789955Y-12967230D01*
X28785835Y-12983667D01*
X28768252Y-13023936D01*
X28742534Y-13060954D01*
X28710666Y-13092634D01*
X28674632Y-13116890D01*
X28648357Y-13128214D01*
X28632990Y-13133601D01*
X28623002Y-13137644D01*
X28620839Y-13139000D01*
X28623297Y-13144058D01*
X28630316Y-13157814D01*
X28641361Y-13179236D01*
X28655897Y-13207293D01*
X28673391Y-13240956D01*
X28693307Y-13279192D01*
X28715111Y-13320971D01*
X28724582Y-13339094D01*
X28828324Y-13537542D01*
X28732221Y-13536045D01*
X28636117Y-13534548D01*
X28536508Y-13344852D01*
X28514324Y-13302650D01*
X28493633Y-13263378D01*
X28475014Y-13228126D01*
X28459044Y-13197986D01*
X28446303Y-13174050D01*
X28437369Y-13157409D01*
X28432821Y-13149154D01*
X28432458Y-13148559D01*
X28426252Y-13145686D01*
X28411586Y-13143671D01*
X28387676Y-13142454D01*
X28353739Y-13141975D01*
X28345979Y-13141963D01*
X28263943Y-13141963D01*
X28263943Y-13339628D01*
X28263943Y-13537293D01*
X28176092Y-13537293D01*
X28088240Y-13537293D01*
X28088240Y-13029159D01*
X28088240Y-12993714D01*
X28263943Y-12993714D01*
X28410819Y-12993593D01*
X28455434Y-12993497D01*
X28490505Y-12993230D01*
X28517466Y-12992701D01*
X28537756Y-12991818D01*
X28552810Y-12990491D01*
X28564064Y-12988629D01*
X28572955Y-12986139D01*
X28580919Y-12982932D01*
X28581268Y-12982774D01*
X28598394Y-12972716D01*
X28609897Y-12958964D01*
X28616024Y-12946794D01*
X28620067Y-12936724D01*
X28622944Y-12926360D01*
X28624802Y-12913765D01*
X28625789Y-12897003D01*
X28626051Y-12874139D01*
X28625736Y-12843236D01*
X28625395Y-12823478D01*
X28624534Y-12785520D01*
X28623209Y-12756758D01*
X28620912Y-12735410D01*
X28617139Y-12719690D01*
X28611383Y-12707815D01*
X28603138Y-12697999D01*
X28591898Y-12688459D01*
X28585792Y-12683828D01*
X28580789Y-12680487D01*
X28574875Y-12677854D01*
X28566728Y-12675825D01*
X28555025Y-12674301D01*
X28538443Y-12673178D01*
X28515658Y-12672356D01*
X28485348Y-12671733D01*
X28446189Y-12671207D01*
X28417292Y-12670890D01*
X28263943Y-12669273D01*
X28263943Y-12831493D01*
X28263943Y-12993714D01*
X28088240Y-12993714D01*
X28088240Y-12831493D01*
X28088240Y-12521025D01*
X28355912Y-12522642D01*
G37*
G36*
X26168967Y-14267602D02*
G01*
X26220128Y-14267757D01*
X26262349Y-14268054D01*
X26296649Y-14268526D01*
X26324050Y-14269203D01*
X26345571Y-14270118D01*
X26362234Y-14271302D01*
X26375057Y-14272787D01*
X26385062Y-14274605D01*
X26391989Y-14276399D01*
X26440439Y-14295509D01*
X26480678Y-14321841D01*
X26513063Y-14355742D01*
X26537947Y-14397561D01*
X26551480Y-14432964D01*
X26556041Y-14454529D01*
X26559442Y-14484552D01*
X26561685Y-14520570D01*
X26562768Y-14560120D01*
X26562692Y-14600740D01*
X26561457Y-14639968D01*
X26559062Y-14675340D01*
X26555509Y-14704395D01*
X26551480Y-14722600D01*
X26531806Y-14770065D01*
X26504587Y-14809665D01*
X26469375Y-14841913D01*
X26425726Y-14867323D01*
X26425543Y-14867407D01*
X26407487Y-14875810D01*
X26393768Y-14882353D01*
X26387042Y-14885767D01*
X26386821Y-14885914D01*
X26388835Y-14890959D01*
X26395440Y-14904682D01*
X26406111Y-14926045D01*
X26420317Y-14954012D01*
X26437532Y-14987545D01*
X26457228Y-15025607D01*
X26478876Y-15067161D01*
X26487027Y-15082740D01*
X26509317Y-15125361D01*
X26529932Y-15164904D01*
X26548331Y-15200322D01*
X26563974Y-15230571D01*
X26576322Y-15254604D01*
X26584832Y-15271375D01*
X26588965Y-15279839D01*
X26589278Y-15280647D01*
X26584082Y-15281516D01*
X26569676Y-15282250D01*
X26547827Y-15282802D01*
X26520308Y-15283126D01*
X26494563Y-15283186D01*
X26399849Y-15283035D01*
X26298001Y-15086893D01*
X26196154Y-14890752D01*
X26111317Y-14890752D01*
X26026481Y-14890752D01*
X26025039Y-15087045D01*
X26023597Y-15283337D01*
X25938560Y-15283337D01*
X25853524Y-15283337D01*
X25853524Y-14775447D01*
X25853524Y-14739758D01*
X26023570Y-14739758D01*
X26171544Y-14739758D01*
X26219196Y-14739532D01*
X26260020Y-14738878D01*
X26293070Y-14737828D01*
X26317403Y-14736417D01*
X26332072Y-14734679D01*
X26334975Y-14733918D01*
X26353517Y-14724766D01*
X26367849Y-14712175D01*
X26378379Y-14694883D01*
X26385515Y-14671629D01*
X26389664Y-14641150D01*
X26391234Y-14602185D01*
X26390835Y-14561046D01*
X26389462Y-14523461D01*
X26387075Y-14494947D01*
X26383101Y-14473604D01*
X26376968Y-14457529D01*
X26368103Y-14444822D01*
X26355934Y-14433582D01*
X26351413Y-14430107D01*
X26346443Y-14426722D01*
X26340795Y-14424072D01*
X26333149Y-14422066D01*
X26322186Y-14420615D01*
X26306588Y-14419630D01*
X26285036Y-14419020D01*
X26256211Y-14418697D01*
X26218793Y-14418571D01*
X26181201Y-14418551D01*
X26026481Y-14418551D01*
X26025025Y-14579155D01*
X26023570Y-14739758D01*
X25853524Y-14739758D01*
X25853524Y-14267557D01*
X26107845Y-14267557D01*
X26168967Y-14267602D01*
G37*
G36*
X27168779Y-10775521D02*
G01*
X27220596Y-10775698D01*
X27263464Y-10776030D01*
X27298397Y-10776546D01*
X27326411Y-10777278D01*
X27348521Y-10778255D01*
X27365744Y-10779507D01*
X27379094Y-10781065D01*
X27389588Y-10782959D01*
X27393885Y-10783990D01*
X27440217Y-10801426D01*
X27480331Y-10827642D01*
X27513582Y-10861957D01*
X27539327Y-10903692D01*
X27556923Y-10952164D01*
X27558345Y-10957930D01*
X27561540Y-10978066D01*
X27563985Y-11006506D01*
X27565650Y-11040594D01*
X27566509Y-11077678D01*
X27566530Y-11115101D01*
X27565687Y-11150210D01*
X27563949Y-11180351D01*
X27561288Y-11202868D01*
X27561019Y-11204343D01*
X27548550Y-11246647D01*
X27528357Y-11287494D01*
X27502547Y-11322833D01*
X27495478Y-11330319D01*
X27478803Y-11345481D01*
X27460665Y-11358337D01*
X27438327Y-11370513D01*
X27409049Y-11383636D01*
X27397980Y-11388214D01*
X27394286Y-11390137D01*
X27392284Y-11393147D01*
X27392459Y-11398458D01*
X27395295Y-11407288D01*
X27401278Y-11420853D01*
X27410893Y-11440368D01*
X27424626Y-11467050D01*
X27442961Y-11502115D01*
X27444858Y-11505733D01*
X27465395Y-11544889D01*
X27487628Y-11587281D01*
X27509896Y-11629741D01*
X27530537Y-11669100D01*
X27547890Y-11702189D01*
X27549244Y-11704771D01*
X27594593Y-11791249D01*
X27498980Y-11791249D01*
X27403367Y-11791249D01*
X27300324Y-11593584D01*
X27197282Y-11395918D01*
X27112908Y-11395918D01*
X27028534Y-11395918D01*
X27028534Y-11593584D01*
X27028534Y-11791249D01*
X26940683Y-11791249D01*
X26852832Y-11791249D01*
X26852832Y-11283359D01*
X26852832Y-11247669D01*
X27028534Y-11247669D01*
X27178242Y-11247669D01*
X27223309Y-11247610D01*
X27258767Y-11247377D01*
X27285987Y-11246889D01*
X27306341Y-11246061D01*
X27321200Y-11244811D01*
X27331935Y-11243058D01*
X27339919Y-11240717D01*
X27346522Y-11237707D01*
X27346904Y-11237504D01*
X27360217Y-11229854D01*
X27370323Y-11222012D01*
X27377691Y-11212385D01*
X27382791Y-11199380D01*
X27386093Y-11181406D01*
X27388064Y-11156871D01*
X27389176Y-11124182D01*
X27389745Y-11092172D01*
X27390124Y-11050066D01*
X27389570Y-11017402D01*
X27387664Y-10992654D01*
X27383986Y-10974296D01*
X27378116Y-10960800D01*
X27369632Y-10950641D01*
X27358117Y-10942291D01*
X27346798Y-10936072D01*
X27339153Y-10932368D01*
X27331448Y-10929489D01*
X27322247Y-10927331D01*
X27310115Y-10925791D01*
X27293614Y-10924764D01*
X27271309Y-10924147D01*
X27241763Y-10923836D01*
X27203540Y-10923728D01*
X27175620Y-10923718D01*
X27028534Y-10923718D01*
X27028534Y-11085694D01*
X27028534Y-11247669D01*
X26852832Y-11247669D01*
X26852832Y-11085694D01*
X26852832Y-10775469D01*
X27106996Y-10775469D01*
X27168779Y-10775521D01*
G37*
G36*
X26115705Y-10776593D02*
G01*
X26176237Y-10776982D01*
X26226812Y-10777365D01*
X26268453Y-10777790D01*
X26302182Y-10778305D01*
X26329023Y-10778958D01*
X26349999Y-10779796D01*
X26366135Y-10780868D01*
X26378452Y-10782220D01*
X26387976Y-10783900D01*
X26395728Y-10785957D01*
X26402732Y-10788437D01*
X26407064Y-10790175D01*
X26452132Y-10814266D01*
X26489954Y-10846601D01*
X26520476Y-10887122D01*
X26540906Y-10928631D01*
X26545623Y-10941652D01*
X26548966Y-10954599D01*
X26551170Y-10969722D01*
X26552468Y-10989267D01*
X26553095Y-11015485D01*
X26553282Y-11047259D01*
X26553194Y-11081389D01*
X26552636Y-11106781D01*
X26551379Y-11125672D01*
X26549194Y-11140304D01*
X26545849Y-11152914D01*
X26541115Y-11165744D01*
X26541115Y-11165745D01*
X26521680Y-11201813D01*
X26494470Y-11235263D01*
X26467571Y-11258680D01*
X26446793Y-11273731D01*
X26479611Y-11293987D01*
X26516183Y-11322816D01*
X26544829Y-11359231D01*
X26562503Y-11395081D01*
X26568093Y-11411947D01*
X26572025Y-11430633D01*
X26574684Y-11453868D01*
X26576455Y-11484379D01*
X26576943Y-11497497D01*
X26576743Y-11552718D01*
X26571765Y-11599462D01*
X26561477Y-11639381D01*
X26545345Y-11674123D01*
X26522838Y-11705341D01*
X26503282Y-11725717D01*
X26463261Y-11756213D01*
X26418057Y-11777331D01*
X26386343Y-11785717D01*
X26374188Y-11786962D01*
X26352115Y-11788090D01*
X26321189Y-11789079D01*
X26282473Y-11789908D01*
X26237030Y-11790556D01*
X26185924Y-11791003D01*
X26130220Y-11791227D01*
X26105347Y-11791249D01*
X25853524Y-11791249D01*
X25853524Y-11496581D01*
X25853524Y-11357484D01*
X26023735Y-11357484D01*
X26023735Y-11496581D01*
X26023874Y-11534608D01*
X26024265Y-11568958D01*
X26024869Y-11598121D01*
X26025647Y-11620583D01*
X26026561Y-11634832D01*
X26027396Y-11639340D01*
X26034065Y-11640649D01*
X26049975Y-11641646D01*
X26073390Y-11642344D01*
X26102575Y-11642755D01*
X26135796Y-11642893D01*
X26171315Y-11642770D01*
X26207397Y-11642399D01*
X26242308Y-11641794D01*
X26274311Y-11640967D01*
X26301672Y-11639930D01*
X26322653Y-11638698D01*
X26335521Y-11637282D01*
X26336706Y-11637040D01*
X26355010Y-11630821D01*
X26370741Y-11622193D01*
X26374290Y-11619330D01*
X26384517Y-11608814D01*
X26391958Y-11597940D01*
X26397048Y-11584775D01*
X26400218Y-11567386D01*
X26401903Y-11543840D01*
X26402536Y-11512204D01*
X26402594Y-11493090D01*
X26402490Y-11460510D01*
X26402016Y-11436907D01*
X26400928Y-11420275D01*
X26398983Y-11408613D01*
X26395939Y-11399914D01*
X26391551Y-11392176D01*
X26390075Y-11389947D01*
X26383886Y-11381149D01*
X26377627Y-11374114D01*
X26370060Y-11368643D01*
X26359944Y-11364540D01*
X26346043Y-11361606D01*
X26327116Y-11359643D01*
X26301925Y-11358455D01*
X26269232Y-11357844D01*
X26227797Y-11357611D01*
X26187084Y-11357564D01*
X26023735Y-11357484D01*
X25853524Y-11357484D01*
X25853524Y-11283111D01*
X25853524Y-11203744D01*
X26023547Y-11203744D01*
X26172067Y-11203744D01*
X26219425Y-11203620D01*
X26257030Y-11203210D01*
X26286107Y-11202456D01*
X26307881Y-11201301D01*
X26323579Y-11199685D01*
X26334424Y-11197552D01*
X26339507Y-11195838D01*
X26353874Y-11188452D01*
X26364528Y-11178918D01*
X26371993Y-11165615D01*
X26376796Y-11146921D01*
X26379464Y-11121216D01*
X26380520Y-11086878D01*
X26380611Y-11069136D01*
X26380176Y-11030640D01*
X26378466Y-11001379D01*
X26374908Y-10979625D01*
X26368928Y-10963654D01*
X26359952Y-10951740D01*
X26347406Y-10942158D01*
X26336329Y-10935983D01*
X26328603Y-10932212D01*
X26320984Y-10929309D01*
X26312007Y-10927178D01*
X26300209Y-10925724D01*
X26284129Y-10924849D01*
X26262301Y-10924457D01*
X26233264Y-10924454D01*
X26195554Y-10924741D01*
X26169269Y-10925002D01*
X26026481Y-10926463D01*
X26025014Y-11065104D01*
X26023547Y-11203744D01*
X25853524Y-11203744D01*
X25853524Y-10774972D01*
X26115705Y-10776593D01*
G37*
G36*
X20388501Y-11154799D02*
G01*
X20413005Y-11170772D01*
X20428811Y-11191592D01*
X20437071Y-11219072D01*
X20438609Y-11233709D01*
X20439055Y-11254471D01*
X20436629Y-11268997D01*
X20430373Y-11281866D01*
X20427685Y-11285974D01*
X20414172Y-11302022D01*
X20398186Y-11316146D01*
X20396193Y-11317545D01*
X20377667Y-11330030D01*
X19994130Y-11330030D01*
X19930328Y-11330088D01*
X19869847Y-11330255D01*
X19813565Y-11330521D01*
X19762362Y-11330878D01*
X19717117Y-11331315D01*
X19678711Y-11331824D01*
X19648022Y-11332394D01*
X19625930Y-11333016D01*
X19613314Y-11333681D01*
X19610592Y-11334174D01*
X19614371Y-11338710D01*
X19625244Y-11350282D01*
X19642518Y-11368186D01*
X19665500Y-11391714D01*
X19693496Y-11420162D01*
X19725811Y-11452825D01*
X19761754Y-11488997D01*
X19800629Y-11527973D01*
X19830592Y-11557920D01*
X19871632Y-11599056D01*
X19910556Y-11638400D01*
X19946622Y-11675179D01*
X19979088Y-11708621D01*
X20007212Y-11737954D01*
X20030251Y-11762404D01*
X20047464Y-11781201D01*
X20058107Y-11793571D01*
X20061201Y-11797894D01*
X20070133Y-11825640D01*
X20069382Y-11853301D01*
X20060114Y-11879075D01*
X20043491Y-11901161D01*
X20020679Y-11917758D01*
X19992842Y-11927066D01*
X19976824Y-11928427D01*
X19957524Y-11926815D01*
X19940342Y-11922659D01*
X19935644Y-11920637D01*
X19929439Y-11915547D01*
X19916133Y-11903292D01*
X19896366Y-11884497D01*
X19870775Y-11859785D01*
X19840000Y-11829782D01*
X19804680Y-11795113D01*
X19765452Y-11756403D01*
X19722955Y-11714277D01*
X19677829Y-11669360D01*
X19630712Y-11622277D01*
X19629829Y-11621393D01*
X19338841Y-11330030D01*
X19220752Y-11330030D01*
X19102663Y-11330030D01*
X18811675Y-11621582D01*
X18761935Y-11671287D01*
X18714836Y-11718093D01*
X18670957Y-11761440D01*
X18630876Y-11800767D01*
X18595171Y-11835514D01*
X18564420Y-11865120D01*
X18539201Y-11889025D01*
X18520093Y-11906668D01*
X18507672Y-11917490D01*
X18503019Y-11920826D01*
X18476512Y-11927500D01*
X18447670Y-11927066D01*
X18421671Y-11919678D01*
X18419024Y-11918350D01*
X18395398Y-11899909D01*
X18379099Y-11874719D01*
X18371133Y-11845014D01*
X18372213Y-11814585D01*
X18373757Y-11809455D01*
X18377057Y-11803102D01*
X18382694Y-11794903D01*
X18391246Y-11784235D01*
X18403294Y-11770474D01*
X18419418Y-11752999D01*
X18440196Y-11731185D01*
X18466208Y-11704409D01*
X18498034Y-11672050D01*
X18536254Y-11633482D01*
X18581448Y-11588085D01*
X18603433Y-11566044D01*
X18644679Y-11524645D01*
X18683518Y-11485534D01*
X18719269Y-11449402D01*
X18751253Y-11416943D01*
X18778790Y-11388852D01*
X18801200Y-11365821D01*
X18817802Y-11348544D01*
X18827917Y-11337715D01*
X18830912Y-11334061D01*
X18825568Y-11333392D01*
X18810121Y-11332757D01*
X18785448Y-11332166D01*
X18752430Y-11331628D01*
X18711943Y-11331153D01*
X18664866Y-11330749D01*
X18612078Y-11330426D01*
X18554456Y-11330193D01*
X18492880Y-11330060D01*
X18446290Y-11330030D01*
X18370295Y-11330040D01*
X18304494Y-11330028D01*
X18248103Y-11329935D01*
X18200335Y-11329701D01*
X18160405Y-11329264D01*
X18127526Y-11328566D01*
X18100911Y-11327544D01*
X18079776Y-11326140D01*
X18063335Y-11324292D01*
X18050800Y-11321941D01*
X18041386Y-11319025D01*
X18034308Y-11315486D01*
X18028778Y-11311261D01*
X18024012Y-11306292D01*
X18019222Y-11300518D01*
X18016341Y-11297033D01*
X18000189Y-11270272D01*
X17993769Y-11241687D01*
X17996624Y-11213345D01*
X18008297Y-11187312D01*
X18028330Y-11165655D01*
X18048055Y-11153758D01*
X18050928Y-11152586D01*
X18054470Y-11151508D01*
X18059129Y-11150518D01*
X18065352Y-11149615D01*
X18073584Y-11148793D01*
X18084273Y-11148049D01*
X18097866Y-11147379D01*
X18114808Y-11146778D01*
X18135547Y-11146244D01*
X18160529Y-11145771D01*
X18190202Y-11145357D01*
X18225011Y-11144997D01*
X18265403Y-11144687D01*
X18311825Y-11144423D01*
X18364724Y-11144202D01*
X18424546Y-11144019D01*
X18491739Y-11143871D01*
X18566748Y-11143753D01*
X18650020Y-11143662D01*
X18742002Y-11143593D01*
X18843141Y-11143543D01*
X18953884Y-11143509D01*
X19074676Y-11143485D01*
X19205965Y-11143468D01*
X19217646Y-11143467D01*
X20364842Y-11143346D01*
X20388501Y-11154799D01*
G37*
G36*
X27267476Y-14267605D02*
G01*
X27307458Y-14267795D01*
X27339185Y-14268199D01*
X27364018Y-14268886D01*
X27383320Y-14269929D01*
X27398453Y-14271396D01*
X27410780Y-14273358D01*
X27421664Y-14275888D01*
X27431016Y-14278603D01*
X27476242Y-14298144D01*
X27516219Y-14326609D01*
X27549468Y-14362638D01*
X27574508Y-14404874D01*
X27578391Y-14413919D01*
X27591332Y-14446005D01*
X27592920Y-14758716D01*
X27593201Y-14835632D01*
X27593217Y-14903311D01*
X27592972Y-14961483D01*
X27592469Y-15009879D01*
X27591711Y-15048229D01*
X27590703Y-15076265D01*
X27589446Y-15093718D01*
X27588774Y-15098171D01*
X27573239Y-15145722D01*
X27548649Y-15187575D01*
X27515762Y-15222961D01*
X27475336Y-15251109D01*
X27428129Y-15271247D01*
X27414568Y-15275147D01*
X27399296Y-15277566D01*
X27374851Y-15279566D01*
X27343031Y-15281146D01*
X27305635Y-15282303D01*
X27264463Y-15283034D01*
X27221315Y-15283338D01*
X27177990Y-15283211D01*
X27136287Y-15282652D01*
X27098005Y-15281658D01*
X27064945Y-15280226D01*
X27038905Y-15278354D01*
X27021685Y-15276040D01*
X27020071Y-15275679D01*
X26971539Y-15258699D01*
X26929752Y-15233229D01*
X26895247Y-15199773D01*
X26868562Y-15158835D01*
X26852385Y-15118384D01*
X26850079Y-15110396D01*
X26848129Y-15102215D01*
X26846509Y-15092916D01*
X26845196Y-15081572D01*
X26844164Y-15067254D01*
X26843390Y-15049038D01*
X26842850Y-15025995D01*
X26842519Y-14997199D01*
X26842372Y-14961724D01*
X26842386Y-14918641D01*
X26842536Y-14867025D01*
X26842797Y-14805949D01*
X26842962Y-14771732D01*
X27014808Y-14771732D01*
X27014829Y-14837157D01*
X27014910Y-14892506D01*
X27015080Y-14938683D01*
X27015366Y-14976592D01*
X27015795Y-15007140D01*
X27016395Y-15031229D01*
X27017194Y-15049766D01*
X27018220Y-15063655D01*
X27019500Y-15073800D01*
X27021062Y-15081107D01*
X27022933Y-15086480D01*
X27024531Y-15089738D01*
X27042776Y-15112099D01*
X27068849Y-15126777D01*
X27079461Y-15130003D01*
X27089865Y-15131219D01*
X27109468Y-15132219D01*
X27136489Y-15132962D01*
X27169148Y-15133408D01*
X27205662Y-15133516D01*
X27228945Y-15133400D01*
X27270436Y-15133029D01*
X27302453Y-15132574D01*
X27326502Y-15131898D01*
X27344090Y-15130862D01*
X27356724Y-15129329D01*
X27365911Y-15127161D01*
X27373158Y-15124221D01*
X27379970Y-15120370D01*
X27381445Y-15119459D01*
X27390141Y-15114062D01*
X27397462Y-15108962D01*
X27403533Y-15103216D01*
X27408479Y-15095880D01*
X27412424Y-15086011D01*
X27415493Y-15072667D01*
X27417811Y-15054903D01*
X27419501Y-15031778D01*
X27420689Y-15002347D01*
X27421499Y-14965667D01*
X27422055Y-14920797D01*
X27422482Y-14866791D01*
X27422886Y-14805646D01*
X27423295Y-14737303D01*
X27423513Y-14679041D01*
X27423497Y-14629962D01*
X27423202Y-14589166D01*
X27422583Y-14555755D01*
X27421596Y-14528829D01*
X27420196Y-14507489D01*
X27418338Y-14490837D01*
X27415978Y-14477974D01*
X27413071Y-14467999D01*
X27409574Y-14460016D01*
X27405440Y-14453123D01*
X27405399Y-14453063D01*
X27398436Y-14443313D01*
X27391269Y-14435596D01*
X27382587Y-14429673D01*
X27371077Y-14425307D01*
X27355427Y-14422263D01*
X27334324Y-14420302D01*
X27306455Y-14419189D01*
X27270508Y-14418685D01*
X27225170Y-14418554D01*
X27214244Y-14418551D01*
X27170187Y-14418590D01*
X27135751Y-14418770D01*
X27109576Y-14419186D01*
X27090302Y-14419934D01*
X27076568Y-14421109D01*
X27067015Y-14422805D01*
X27060282Y-14425119D01*
X27055009Y-14428146D01*
X27052608Y-14429872D01*
X27037951Y-14442950D01*
X27026128Y-14456356D01*
X27023677Y-14459888D01*
X27021607Y-14463979D01*
X27019887Y-14469529D01*
X27018485Y-14477440D01*
X27017368Y-14488613D01*
X27016503Y-14503951D01*
X27015859Y-14524355D01*
X27015403Y-14550725D01*
X27015102Y-14583965D01*
X27014924Y-14624975D01*
X27014838Y-14674657D01*
X27014810Y-14733912D01*
X27014808Y-14771732D01*
X26842962Y-14771732D01*
X26843012Y-14761414D01*
X26844596Y-14440514D01*
X26861971Y-14403838D01*
X26888006Y-14359819D01*
X26920531Y-14324513D01*
X26960200Y-14297354D01*
X27007257Y-14277902D01*
X27017532Y-14275002D01*
X27028580Y-14272694D01*
X27041741Y-14270912D01*
X27058357Y-14269589D01*
X27079770Y-14268660D01*
X27107321Y-14268059D01*
X27142352Y-14267720D01*
X27186204Y-14267576D01*
X27217875Y-14267557D01*
X27267476Y-14267605D01*
G37*
G36*
X29333119Y-10778263D02*
G01*
X29379526Y-10778536D01*
X29417445Y-10779223D01*
X29448124Y-10780512D01*
X29472810Y-10782594D01*
X29492749Y-10785656D01*
X29509188Y-10789890D01*
X29523374Y-10795483D01*
X29536555Y-10802625D01*
X29549977Y-10811506D01*
X29564207Y-10821813D01*
X29597675Y-10852265D01*
X29624768Y-10890099D01*
X29643385Y-10928631D01*
X29646068Y-10935449D01*
X29648340Y-10942188D01*
X29650241Y-10949788D01*
X29651810Y-10959189D01*
X29653087Y-10971331D01*
X29654111Y-10987154D01*
X29654922Y-11007597D01*
X29655559Y-11033602D01*
X29656061Y-11066108D01*
X29656469Y-11106055D01*
X29656821Y-11154383D01*
X29657157Y-11212032D01*
X29657429Y-11263086D01*
X29657700Y-11336227D01*
X29657710Y-11401439D01*
X29657465Y-11458252D01*
X29656970Y-11506199D01*
X29656231Y-11544810D01*
X29655255Y-11573615D01*
X29654046Y-11592147D01*
X29653351Y-11597438D01*
X29639325Y-11644580D01*
X29616184Y-11687184D01*
X29585157Y-11724007D01*
X29547475Y-11753805D01*
X29504368Y-11775336D01*
X29467031Y-11785730D01*
X29453944Y-11787138D01*
X29431576Y-11788392D01*
X29401623Y-11789445D01*
X29365784Y-11790252D01*
X29325758Y-11790766D01*
X29283243Y-11790942D01*
X29274856Y-11790933D01*
X29225674Y-11790740D01*
X29186052Y-11790328D01*
X29154571Y-11789627D01*
X29129811Y-11788568D01*
X29110350Y-11787081D01*
X29094771Y-11785097D01*
X29081651Y-11782546D01*
X29076288Y-11781225D01*
X29030274Y-11763784D01*
X28990025Y-11737496D01*
X28956399Y-11703337D01*
X28930253Y-11662284D01*
X28912445Y-11615314D01*
X28906639Y-11588093D01*
X28905361Y-11574296D01*
X28904248Y-11550884D01*
X28903302Y-11519221D01*
X28902523Y-11480672D01*
X28901911Y-11436601D01*
X28901466Y-11388374D01*
X28901191Y-11337354D01*
X28901084Y-11284908D01*
X28901086Y-11283720D01*
X29076576Y-11283720D01*
X29076601Y-11348110D01*
X29076693Y-11402443D01*
X29076878Y-11447641D01*
X29077188Y-11484627D01*
X29077648Y-11514324D01*
X29078290Y-11537657D01*
X29079141Y-11555548D01*
X29080229Y-11568921D01*
X29081585Y-11578698D01*
X29083235Y-11585803D01*
X29085209Y-11591160D01*
X29086185Y-11593194D01*
X29104323Y-11617172D01*
X29129706Y-11633307D01*
X29143130Y-11637713D01*
X29153837Y-11638983D01*
X29173704Y-11640029D01*
X29200909Y-11640808D01*
X29233633Y-11641274D01*
X29270056Y-11641385D01*
X29290705Y-11641280D01*
X29332541Y-11640864D01*
X29364924Y-11640285D01*
X29389381Y-11639428D01*
X29407440Y-11638177D01*
X29420629Y-11636416D01*
X29430475Y-11634028D01*
X29438506Y-11630898D01*
X29440600Y-11629891D01*
X29461535Y-11613836D01*
X29472172Y-11598538D01*
X29474513Y-11593530D01*
X29476486Y-11587831D01*
X29478123Y-11580512D01*
X29479454Y-11570647D01*
X29480511Y-11557308D01*
X29481326Y-11539567D01*
X29481930Y-11516497D01*
X29482354Y-11487171D01*
X29482629Y-11450662D01*
X29482788Y-11406043D01*
X29482861Y-11352385D01*
X29482879Y-11288762D01*
X29482879Y-11282119D01*
X29482888Y-11214528D01*
X29482838Y-11157038D01*
X29482616Y-11108770D01*
X29482111Y-11068844D01*
X29481210Y-11036380D01*
X29479800Y-11010500D01*
X29477768Y-10990322D01*
X29475002Y-10974968D01*
X29471389Y-10963557D01*
X29466817Y-10955211D01*
X29461172Y-10949048D01*
X29454343Y-10944191D01*
X29446217Y-10939758D01*
X29438547Y-10935845D01*
X29430769Y-10932000D01*
X29423157Y-10929050D01*
X29414230Y-10926895D01*
X29402506Y-10925438D01*
X29386504Y-10924579D01*
X29364743Y-10924218D01*
X29335741Y-10924257D01*
X29298018Y-10924598D01*
X29274233Y-10924863D01*
X29227096Y-10925515D01*
X29189631Y-10926486D01*
X29160528Y-10928097D01*
X29138475Y-10930669D01*
X29122165Y-10934523D01*
X29110285Y-10939981D01*
X29101528Y-10947362D01*
X29094581Y-10956988D01*
X29088136Y-10969181D01*
X29087432Y-10970630D01*
X29085039Y-10975972D01*
X29083025Y-10981912D01*
X29081358Y-10989390D01*
X29080005Y-10999347D01*
X29078934Y-11012723D01*
X29078111Y-11030460D01*
X29077505Y-11053498D01*
X29077083Y-11082779D01*
X29076811Y-11119242D01*
X29076658Y-11163829D01*
X29076590Y-11217481D01*
X29076576Y-11281138D01*
X29076576Y-11283720D01*
X28901086Y-11283720D01*
X28901089Y-11281138D01*
X28901147Y-11232398D01*
X28901379Y-11181191D01*
X28901783Y-11132650D01*
X28902357Y-11088140D01*
X28903103Y-11049027D01*
X28904021Y-11016675D01*
X28905112Y-10992447D01*
X28906377Y-10977710D01*
X28906399Y-10977557D01*
X28918825Y-10928037D01*
X28940655Y-10883529D01*
X28971143Y-10845043D01*
X29009545Y-10813590D01*
X29039613Y-10796822D01*
X29079313Y-10778214D01*
X29276978Y-10778214D01*
X29333119Y-10778263D01*
G37*
G36*
X29370860Y-12522027D02*
G01*
X29412466Y-12522347D01*
X29439584Y-12522625D01*
X29486210Y-12523162D01*
X29523269Y-12523732D01*
X29552175Y-12524440D01*
X29574345Y-12525391D01*
X29591191Y-12526693D01*
X29604129Y-12528450D01*
X29614573Y-12530769D01*
X29623938Y-12533755D01*
X29632513Y-12537060D01*
X29666793Y-12554695D01*
X29699730Y-12578507D01*
X29727290Y-12605416D01*
X29735409Y-12615667D01*
X29752676Y-12643365D01*
X29764900Y-12672890D01*
X29772841Y-12706892D01*
X29777260Y-12748018D01*
X29778110Y-12764477D01*
X29780731Y-12828992D01*
X29695710Y-12828992D01*
X29610689Y-12828992D01*
X29607939Y-12780768D01*
X29604421Y-12746269D01*
X29597926Y-12720478D01*
X29587782Y-12701366D01*
X29578156Y-12690881D01*
X29568108Y-12683652D01*
X29555350Y-12678178D01*
X29538445Y-12674282D01*
X29515955Y-12671787D01*
X29486442Y-12670516D01*
X29448470Y-12670291D01*
X29414246Y-12670692D01*
X29376699Y-12671372D01*
X29348469Y-12672125D01*
X29327894Y-12673142D01*
X29313308Y-12674613D01*
X29303049Y-12676727D01*
X29295453Y-12679675D01*
X29288856Y-12683647D01*
X29286504Y-12685294D01*
X29274235Y-12695049D01*
X29265273Y-12705457D01*
X29259110Y-12718386D01*
X29255241Y-12735705D01*
X29253156Y-12759280D01*
X29252351Y-12790979D01*
X29252270Y-12811436D01*
X29252384Y-12843468D01*
X29252897Y-12866576D01*
X29254063Y-12882813D01*
X29256138Y-12894235D01*
X29259376Y-12902898D01*
X29264032Y-12910856D01*
X29264733Y-12911914D01*
X29272969Y-12923252D01*
X29281669Y-12932078D01*
X29292270Y-12938706D01*
X29306212Y-12943446D01*
X29324930Y-12946610D01*
X29349863Y-12948510D01*
X29382449Y-12949458D01*
X29424124Y-12949765D01*
X29439318Y-12949779D01*
X29477370Y-12950051D01*
X29513758Y-12950805D01*
X29546344Y-12951959D01*
X29572988Y-12953432D01*
X29591551Y-12955141D01*
X29595803Y-12955791D01*
X29644213Y-12969964D01*
X29686969Y-12993106D01*
X29723230Y-13024311D01*
X29752151Y-13062677D01*
X29772891Y-13107298D01*
X29784606Y-13157272D01*
X29784757Y-13158435D01*
X29790002Y-13221498D01*
X29789390Y-13280861D01*
X29783079Y-13334912D01*
X29771227Y-13382036D01*
X29760131Y-13409204D01*
X29733864Y-13450590D01*
X29699714Y-13484688D01*
X29658557Y-13510832D01*
X29611269Y-13528361D01*
X29599287Y-13531173D01*
X29582686Y-13533340D01*
X29557190Y-13535006D01*
X29524718Y-13536184D01*
X29487193Y-13536888D01*
X29446532Y-13537129D01*
X29404659Y-13536922D01*
X29363492Y-13536279D01*
X29324952Y-13535213D01*
X29290959Y-13533738D01*
X29263435Y-13531866D01*
X29244299Y-13529610D01*
X29239971Y-13528740D01*
X29197972Y-13514902D01*
X29162039Y-13494468D01*
X29138393Y-13475133D01*
X29110038Y-13444624D01*
X29088910Y-13411145D01*
X29074224Y-13372787D01*
X29065194Y-13327639D01*
X29061695Y-13288839D01*
X29058450Y-13229814D01*
X29146594Y-13229814D01*
X29234738Y-13229814D01*
X29236640Y-13281586D01*
X29238838Y-13312612D01*
X29243557Y-13335239D01*
X29251962Y-13351969D01*
X29265217Y-13365300D01*
X29280297Y-13375318D01*
X29288138Y-13379293D01*
X29297419Y-13382263D01*
X29309908Y-13384417D01*
X29327375Y-13385947D01*
X29351590Y-13387044D01*
X29384321Y-13387898D01*
X29399915Y-13388208D01*
X29446972Y-13388813D01*
X29484500Y-13388555D01*
X29513924Y-13387293D01*
X29536672Y-13384886D01*
X29554171Y-13381191D01*
X29567849Y-13376069D01*
X29577317Y-13370634D01*
X29589465Y-13361436D01*
X29598417Y-13351372D01*
X29604649Y-13338657D01*
X29608636Y-13321506D01*
X29610854Y-13298133D01*
X29611778Y-13266754D01*
X29611911Y-13240795D01*
X29611817Y-13208196D01*
X29611372Y-13184600D01*
X29610330Y-13168029D01*
X29608445Y-13156506D01*
X29605473Y-13148053D01*
X29601168Y-13140693D01*
X29599124Y-13137762D01*
X29590686Y-13126820D01*
X29581955Y-13118488D01*
X29571353Y-13112412D01*
X29557300Y-13108238D01*
X29538218Y-13105612D01*
X29512527Y-13104180D01*
X29478649Y-13103590D01*
X29446090Y-13103486D01*
X29408868Y-13103193D01*
X29371931Y-13102404D01*
X29338005Y-13101214D01*
X29309820Y-13099716D01*
X29291294Y-13098146D01*
X29239748Y-13087279D01*
X29193813Y-13067584D01*
X29154290Y-13039766D01*
X29121976Y-13004530D01*
X29097671Y-12962582D01*
X29082172Y-12914626D01*
X29081873Y-12913207D01*
X29079238Y-12892809D01*
X29077682Y-12863092D01*
X29077258Y-12825671D01*
X29077773Y-12791207D01*
X29078863Y-12755392D01*
X29080254Y-12728388D01*
X29082199Y-12708025D01*
X29084952Y-12692133D01*
X29088768Y-12678543D01*
X29092000Y-12669762D01*
X29114996Y-12626132D01*
X29146521Y-12588432D01*
X29185134Y-12557987D01*
X29229392Y-12536124D01*
X29241805Y-12531961D01*
X29253094Y-12528754D01*
X29264330Y-12526258D01*
X29276974Y-12524404D01*
X29292488Y-12523123D01*
X29312332Y-12522346D01*
X29337969Y-12522004D01*
X29370860Y-12522027D01*
G37*
G36*
X24160386Y-12699252D02*
G01*
X24193286Y-12712861D01*
X24220163Y-12735625D01*
X24241277Y-12767712D01*
X24244303Y-12774085D01*
X24246408Y-12778992D01*
X24248231Y-12784280D01*
X24249793Y-12790732D01*
X24251115Y-12799130D01*
X24252216Y-12810257D01*
X24253117Y-12824894D01*
X24253839Y-12843824D01*
X24254402Y-12867830D01*
X24254827Y-12897693D01*
X24255134Y-12934197D01*
X24255343Y-12978123D01*
X24255476Y-13030254D01*
X24255553Y-13091372D01*
X24255593Y-13162260D01*
X24255608Y-13205619D01*
X24255728Y-13612444D01*
X24332815Y-13624601D01*
X24450006Y-13648521D01*
X24563456Y-13682469D01*
X24672644Y-13725974D01*
X24777047Y-13778566D01*
X24876144Y-13839772D01*
X24969414Y-13909122D01*
X25056334Y-13986145D01*
X25136382Y-14070370D01*
X25209038Y-14161326D01*
X25273778Y-14258542D01*
X25330082Y-14361546D01*
X25377428Y-14469869D01*
X25415294Y-14583038D01*
X25422153Y-14607984D01*
X25439931Y-14682354D01*
X25452615Y-14753180D01*
X25460709Y-14824399D01*
X25464718Y-14899948D01*
X25465367Y-14945659D01*
X25464402Y-15015264D01*
X25461218Y-15077864D01*
X25455912Y-15132762D01*
X25448583Y-15179263D01*
X25439329Y-15216671D01*
X25428249Y-15244289D01*
X25421696Y-15254685D01*
X25396766Y-15279207D01*
X25367429Y-15294838D01*
X25335422Y-15301790D01*
X25302481Y-15300276D01*
X25270343Y-15290507D01*
X25240744Y-15272696D01*
X25215421Y-15247053D01*
X25203000Y-15227994D01*
X25195966Y-15213360D01*
X25190909Y-15197710D01*
X25187756Y-15179476D01*
X25186436Y-15157091D01*
X25186877Y-15128985D01*
X25189006Y-15093591D01*
X25192751Y-15049340D01*
X25194116Y-15034769D01*
X25198123Y-14938421D01*
X25192386Y-14839676D01*
X25177223Y-14740535D01*
X25152951Y-14643002D01*
X25119889Y-14549078D01*
X25115269Y-14537963D01*
X25068015Y-14440003D01*
X25011911Y-14348132D01*
X24947503Y-14262851D01*
X24875337Y-14184666D01*
X24795962Y-14114082D01*
X24709922Y-14051601D01*
X24617764Y-13997729D01*
X24520036Y-13952970D01*
X24456095Y-13929757D01*
X24413668Y-13917179D01*
X24364559Y-13904819D01*
X24313038Y-13893691D01*
X24273573Y-13886459D01*
X24255728Y-13883482D01*
X24255728Y-14379176D01*
X24255728Y-14874869D01*
X24241506Y-14903409D01*
X24220014Y-14935283D01*
X24192306Y-14958905D01*
X24159992Y-14973729D01*
X24124679Y-14979209D01*
X24087978Y-14974798D01*
X24060734Y-14964780D01*
X24054755Y-14960679D01*
X24045120Y-14952235D01*
X24031488Y-14939085D01*
X24013516Y-14920862D01*
X23990863Y-14897201D01*
X23963187Y-14867735D01*
X23930145Y-14832100D01*
X23891396Y-14789930D01*
X23846597Y-14740859D01*
X23795408Y-14684521D01*
X23737485Y-14620551D01*
X23698967Y-14577920D01*
X23649583Y-14523279D01*
X23602262Y-14471019D01*
X23557523Y-14421711D01*
X23515888Y-14375924D01*
X23477877Y-14334225D01*
X23444010Y-14297185D01*
X23414807Y-14265372D01*
X23390788Y-14239355D01*
X23372475Y-14219703D01*
X23360387Y-14206984D01*
X23355045Y-14201769D01*
X23354853Y-14201669D01*
X23348675Y-14205733D01*
X23337193Y-14216832D01*
X23321834Y-14233327D01*
X23304029Y-14253578D01*
X23285206Y-14275947D01*
X23266794Y-14298793D01*
X23250222Y-14320479D01*
X23244915Y-14327780D01*
X23190343Y-14412830D01*
X23143845Y-14503447D01*
X23105813Y-14598254D01*
X23076637Y-14695875D01*
X23056710Y-14794934D01*
X23046423Y-14894054D01*
X23046168Y-14991858D01*
X23048029Y-15019818D01*
X23051762Y-15065225D01*
X23054590Y-15101110D01*
X23056537Y-15128893D01*
X23057626Y-15149994D01*
X23057880Y-15165833D01*
X23057323Y-15177831D01*
X23055977Y-15187408D01*
X23053866Y-15195983D01*
X23051056Y-15204852D01*
X23035190Y-15238025D01*
X23012842Y-15264637D01*
X22985663Y-15284369D01*
X22955309Y-15296898D01*
X22923432Y-15301905D01*
X22891687Y-15299069D01*
X22861728Y-15288068D01*
X22835207Y-15268583D01*
X22819586Y-15249741D01*
X22806608Y-15223327D01*
X22796101Y-15186243D01*
X22788068Y-15138520D01*
X22782514Y-15080190D01*
X22779442Y-15011283D01*
X22778771Y-14955051D01*
X22780674Y-14868040D01*
X22786796Y-14788137D01*
X22797638Y-14712119D01*
X22813702Y-14636761D01*
X22835490Y-14558837D01*
X22845217Y-14528366D01*
X22881794Y-14430593D01*
X22926311Y-14336224D01*
X22979439Y-14244138D01*
X23041847Y-14153213D01*
X23114206Y-14062327D01*
X23140970Y-14031574D01*
X23570383Y-14031574D01*
X23574204Y-14036314D01*
X23584559Y-14048261D01*
X23600646Y-14066524D01*
X23621665Y-14090210D01*
X23646813Y-14118430D01*
X23675289Y-14150292D01*
X23706291Y-14184905D01*
X23739017Y-14221379D01*
X23772667Y-14258820D01*
X23806437Y-14296340D01*
X23839528Y-14333046D01*
X23871136Y-14368048D01*
X23900461Y-14400454D01*
X23926701Y-14429374D01*
X23949054Y-14453916D01*
X23966718Y-14473189D01*
X23978892Y-14486302D01*
X23984775Y-14492364D01*
X23985184Y-14492676D01*
X23985463Y-14487350D01*
X23985726Y-14472029D01*
X23985966Y-14447699D01*
X23986180Y-14415348D01*
X23986362Y-14375962D01*
X23986508Y-14330527D01*
X23986613Y-14280030D01*
X23986673Y-14225458D01*
X23986684Y-14187837D01*
X23986684Y-13882998D01*
X23974330Y-13885558D01*
X23964041Y-13887630D01*
X23945758Y-13891257D01*
X23922265Y-13895889D01*
X23901578Y-13899949D01*
X23868604Y-13907191D01*
X23831629Y-13916527D01*
X23796730Y-13926383D01*
X23783528Y-13930502D01*
X23761030Y-13938511D01*
X23734379Y-13949110D01*
X23705240Y-13961507D01*
X23675282Y-13974913D01*
X23646171Y-13988538D01*
X23619574Y-14001590D01*
X23597157Y-14013279D01*
X23580588Y-14022816D01*
X23571534Y-14029409D01*
X23570383Y-14031574D01*
X23140970Y-14031574D01*
X23144677Y-14027314D01*
X23172946Y-13995562D01*
X22917574Y-13712893D01*
X22874182Y-13664863D01*
X22832433Y-13618651D01*
X22792995Y-13574997D01*
X22756533Y-13534638D01*
X22723714Y-13498311D01*
X22695205Y-13466755D01*
X22671673Y-13440708D01*
X22653783Y-13420906D01*
X22642203Y-13408089D01*
X22638648Y-13404153D01*
X22615093Y-13378082D01*
X22345067Y-13683070D01*
X22075040Y-13988058D01*
X22107051Y-14023779D01*
X22139291Y-14060097D01*
X22165681Y-14090732D01*
X22187990Y-14117910D01*
X22207991Y-14143856D01*
X22227452Y-14170793D01*
X22248145Y-14200946D01*
X22248632Y-14201669D01*
X22311903Y-14305124D01*
X22365405Y-14412824D01*
X22408879Y-14524061D01*
X22442066Y-14638129D01*
X22464706Y-14754322D01*
X22471621Y-14809387D01*
X22474271Y-14845574D01*
X22475734Y-14889354D01*
X22476075Y-14938088D01*
X22475357Y-14989137D01*
X22473644Y-15039859D01*
X22471001Y-15087616D01*
X22467490Y-15129768D01*
X22463176Y-15163674D01*
X22463049Y-15164450D01*
X22454777Y-15204356D01*
X22444142Y-15235136D01*
X22430135Y-15258565D01*
X22411748Y-15276413D01*
X22392670Y-15288141D01*
X22358622Y-15299841D01*
X22323897Y-15301575D01*
X22290197Y-15294094D01*
X22259223Y-15278153D01*
X22232676Y-15254505D01*
X22212259Y-15223904D01*
X22204383Y-15204759D01*
X22201691Y-15196598D01*
X22199645Y-15189302D01*
X22198266Y-15181491D01*
X22197577Y-15171784D01*
X22197598Y-15158802D01*
X22198353Y-15141165D01*
X22199863Y-15117492D01*
X22202151Y-15086403D01*
X22205237Y-15046519D01*
X22207326Y-15019784D01*
X22209655Y-14930019D01*
X22203262Y-14836399D01*
X22188480Y-14741287D01*
X22165639Y-14647044D01*
X22146769Y-14587775D01*
X22123403Y-14528990D01*
X22094061Y-14467837D01*
X22060148Y-14406579D01*
X22023069Y-14347482D01*
X21984225Y-14292812D01*
X21945023Y-14244834D01*
X21914408Y-14212852D01*
X21894533Y-14193837D01*
X21878974Y-14210107D01*
X21872977Y-14216694D01*
X21860296Y-14230869D01*
X21841511Y-14251979D01*
X21817197Y-14279372D01*
X21787932Y-14312397D01*
X21754292Y-14350402D01*
X21716857Y-14392734D01*
X21676201Y-14438742D01*
X21632904Y-14487774D01*
X21587541Y-14539178D01*
X21568019Y-14561310D01*
X21509870Y-14627234D01*
X21458515Y-14685423D01*
X21413487Y-14736380D01*
X21374318Y-14780608D01*
X21340542Y-14818610D01*
X21311691Y-14850890D01*
X21287298Y-14877950D01*
X21266897Y-14900293D01*
X21250019Y-14918423D01*
X21236198Y-14932843D01*
X21224967Y-14944056D01*
X21215859Y-14952565D01*
X21208406Y-14958872D01*
X21202141Y-14963483D01*
X21196598Y-14966898D01*
X21191309Y-14969623D01*
X21187137Y-14971556D01*
X21152737Y-14981538D01*
X21117721Y-14981671D01*
X21083966Y-14972799D01*
X21053350Y-14955769D01*
X21027751Y-14931426D01*
X21009048Y-14900613D01*
X21004824Y-14889518D01*
X21001113Y-14867859D01*
X21001257Y-14841195D01*
X21004863Y-14814561D01*
X21011543Y-14792992D01*
X21012456Y-14791131D01*
X21017276Y-14784686D01*
X21028857Y-14770643D01*
X21046669Y-14749610D01*
X21070180Y-14722201D01*
X21098859Y-14689025D01*
X21132175Y-14650694D01*
X21169597Y-14607818D01*
X21210594Y-14561009D01*
X21254635Y-14510878D01*
X21301189Y-14458035D01*
X21349724Y-14403092D01*
X21350491Y-14402226D01*
X21398756Y-14347567D01*
X21444823Y-14295207D01*
X21488184Y-14245734D01*
X21528334Y-14199735D01*
X21564763Y-14157797D01*
X21596966Y-14120508D01*
X21624435Y-14088455D01*
X21646663Y-14062226D01*
X21663143Y-14042408D01*
X21673367Y-14029589D01*
X21676828Y-14024355D01*
X21676812Y-14024299D01*
X21669913Y-14018981D01*
X21654668Y-14010420D01*
X21632925Y-13999456D01*
X21606534Y-13986929D01*
X21577342Y-13973678D01*
X21547197Y-13960546D01*
X21517947Y-13948372D01*
X21491441Y-13937996D01*
X21471195Y-13930803D01*
X21377280Y-13904383D01*
X21283121Y-13887191D01*
X21185857Y-13878775D01*
X21134263Y-13877717D01*
X21025482Y-13883024D01*
X20919545Y-13898694D01*
X20817005Y-13924350D01*
X20718414Y-13959616D01*
X20624325Y-14004115D01*
X20535290Y-14057469D01*
X20451863Y-14119302D01*
X20374596Y-14189238D01*
X20304042Y-14266899D01*
X20240754Y-14351909D01*
X20185284Y-14443890D01*
X20138186Y-14542467D01*
X20130111Y-14562207D01*
X20113566Y-14608464D01*
X20097606Y-14661837D01*
X20083265Y-14718473D01*
X20071576Y-14774516D01*
X20068527Y-14791919D01*
X20064008Y-14828229D01*
X20060883Y-14872425D01*
X20059182Y-14921496D01*
X20058933Y-14972433D01*
X20060165Y-15022224D01*
X20062906Y-15067860D01*
X20065634Y-15094867D01*
X20069470Y-15132985D01*
X20070184Y-15163061D01*
X20067456Y-15187673D01*
X20060962Y-15209398D01*
X20050383Y-15230813D01*
X20048218Y-15234502D01*
X20027551Y-15260516D01*
X20000580Y-15282157D01*
X19970744Y-15296999D01*
X19953098Y-15301599D01*
X19919074Y-15301936D01*
X19886144Y-15292832D01*
X19856708Y-15275557D01*
X19833166Y-15251383D01*
X19821978Y-15232168D01*
X19812660Y-15204692D01*
X19804803Y-15168042D01*
X19798479Y-15123936D01*
X19793761Y-15074095D01*
X19790722Y-15020236D01*
X19789435Y-14964080D01*
X19789971Y-14907344D01*
X19792405Y-14851748D01*
X19796808Y-14799012D01*
X19801959Y-14758975D01*
X19821595Y-14655137D01*
X19847715Y-14556072D01*
X19869507Y-14491001D01*
X19916027Y-14380126D01*
X19971782Y-14274666D01*
X20036235Y-14175108D01*
X20108846Y-14081940D01*
X20189077Y-13995647D01*
X20276390Y-13916718D01*
X20370246Y-13845640D01*
X20470106Y-13782900D01*
X20575433Y-13728986D01*
X20685687Y-13684383D01*
X20799330Y-13649835D01*
X20847174Y-13638114D01*
X20889935Y-13628965D01*
X20930166Y-13622096D01*
X20970420Y-13617215D01*
X21013252Y-13614031D01*
X21061214Y-13612252D01*
X21116860Y-13611587D01*
X21134263Y-13611560D01*
X21189530Y-13611915D01*
X21236423Y-13613136D01*
X21277530Y-13615495D01*
X21315443Y-13619262D01*
X21352752Y-13624710D01*
X21392046Y-13632110D01*
X21435916Y-13641734D01*
X21447233Y-13644362D01*
X21510041Y-13661153D01*
X21575572Y-13682454D01*
X21641315Y-13707226D01*
X21704763Y-13734430D01*
X21763404Y-13763028D01*
X21814729Y-13791981D01*
X21834230Y-13804487D01*
X21848185Y-13812514D01*
X21859498Y-13816767D01*
X21861683Y-13816985D01*
X21866256Y-13812991D01*
X21877267Y-13801668D01*
X21893953Y-13783867D01*
X21915551Y-13760443D01*
X21941301Y-13732249D01*
X21970438Y-13700139D01*
X22002200Y-13664966D01*
X22035826Y-13627584D01*
X22070552Y-13588846D01*
X22105615Y-13549606D01*
X22140254Y-13510716D01*
X22173706Y-13473032D01*
X22205209Y-13437405D01*
X22233999Y-13404690D01*
X22259315Y-13375740D01*
X22280393Y-13351409D01*
X22296472Y-13332549D01*
X22306789Y-13320016D01*
X22310581Y-13314661D01*
X22310563Y-13314542D01*
X22305033Y-13314488D01*
X22288999Y-13314530D01*
X22262936Y-13314666D01*
X22227322Y-13314890D01*
X22182633Y-13315199D01*
X22129344Y-13315590D01*
X22067932Y-13316057D01*
X21998874Y-13316599D01*
X21922646Y-13317209D01*
X21839725Y-13317886D01*
X21750586Y-13318624D01*
X21655706Y-13319421D01*
X21555562Y-13320271D01*
X21450630Y-13321172D01*
X21341385Y-13322120D01*
X21228306Y-13323110D01*
X21111867Y-13324139D01*
X20998520Y-13325149D01*
X20856990Y-13326417D01*
X20726027Y-13327595D01*
X20605218Y-13328690D01*
X20494149Y-13329709D01*
X20392407Y-13330659D01*
X20299578Y-13331548D01*
X20215249Y-13332382D01*
X20139005Y-13333168D01*
X20070435Y-13333914D01*
X20009123Y-13334627D01*
X19954656Y-13335314D01*
X19906622Y-13335981D01*
X19864605Y-13336637D01*
X19828193Y-13337288D01*
X19796973Y-13337941D01*
X19770530Y-13338604D01*
X19748450Y-13339283D01*
X19730322Y-13339986D01*
X19715730Y-13340720D01*
X19704261Y-13341491D01*
X19695503Y-13342308D01*
X19689040Y-13343176D01*
X19684460Y-13344104D01*
X19681349Y-13345098D01*
X19679294Y-13346165D01*
X19677880Y-13347313D01*
X19677338Y-13347864D01*
X19671887Y-13353888D01*
X19659903Y-13367325D01*
X19642074Y-13387394D01*
X19619089Y-13413316D01*
X19591635Y-13444313D01*
X19560401Y-13479605D01*
X19526076Y-13518412D01*
X19489347Y-13559955D01*
X19450903Y-13603455D01*
X19411432Y-13648132D01*
X19371623Y-13693207D01*
X19332164Y-13737900D01*
X19293743Y-13781433D01*
X19257048Y-13823026D01*
X19222768Y-13861900D01*
X19191591Y-13897274D01*
X19164205Y-13928370D01*
X19141299Y-13954409D01*
X19123561Y-13974611D01*
X19111680Y-13988197D01*
X19106343Y-13994387D01*
X19106241Y-13994512D01*
X19103764Y-13999390D01*
X19104771Y-14005454D01*
X19110295Y-14014323D01*
X19121367Y-14027616D01*
X19139020Y-14046951D01*
X19141104Y-14049190D01*
X19211793Y-14132699D01*
X19276195Y-14224381D01*
X19333579Y-14322938D01*
X19383214Y-14427073D01*
X19424371Y-14535488D01*
X19436889Y-14575037D01*
X19454643Y-14639750D01*
X19468153Y-14702436D01*
X19477888Y-14766228D01*
X19484320Y-14834259D01*
X19487921Y-14909663D01*
X19488084Y-14915460D01*
X19488366Y-15001475D01*
X19484528Y-15081436D01*
X19476678Y-15153831D01*
X19467483Y-15205735D01*
X19455506Y-15238024D01*
X19435848Y-15264212D01*
X19410267Y-15283806D01*
X19380522Y-15296315D01*
X19348371Y-15301247D01*
X19315573Y-15298112D01*
X19283887Y-15286418D01*
X19255070Y-15265674D01*
X19254588Y-15265214D01*
X19233860Y-15241773D01*
X19219619Y-15216449D01*
X19211414Y-15187372D01*
X19208796Y-15152673D01*
X19211312Y-15110482D01*
X19213282Y-15093908D01*
X19216844Y-15056522D01*
X19218951Y-15012139D01*
X19219656Y-14963576D01*
X19219007Y-14913651D01*
X19217056Y-14865180D01*
X19213851Y-14820981D01*
X19209444Y-14783869D01*
X19207566Y-14772751D01*
X19181951Y-14663609D01*
X19147031Y-14559834D01*
X19102950Y-14461783D01*
X19049851Y-14369817D01*
X19040338Y-14355408D01*
X19022913Y-14330418D01*
X19003705Y-14304401D01*
X18983919Y-14278818D01*
X18964761Y-14255132D01*
X18947438Y-14234805D01*
X18933155Y-14219302D01*
X18923118Y-14210082D01*
X18918963Y-14208212D01*
X18914758Y-14212481D01*
X18903796Y-14224408D01*
X18886587Y-14243420D01*
X18863644Y-14268945D01*
X18835477Y-14300409D01*
X18802598Y-14337239D01*
X18765518Y-14378863D01*
X18724749Y-14424707D01*
X18680802Y-14474199D01*
X18634189Y-14526765D01*
X18585420Y-14581832D01*
X18573786Y-14594979D01*
X18521465Y-14653999D01*
X18471572Y-14710057D01*
X18424593Y-14762619D01*
X18381012Y-14811151D01*
X18341316Y-14855118D01*
X18305991Y-14893987D01*
X18275520Y-14927222D01*
X18250390Y-14954290D01*
X18231086Y-14974657D01*
X18218093Y-14987787D01*
X18212159Y-14993001D01*
X18186792Y-15003503D01*
X18156164Y-15008526D01*
X18124594Y-15007898D01*
X18096403Y-15001448D01*
X18088374Y-14997908D01*
X18060889Y-14980921D01*
X18040890Y-14961199D01*
X18027362Y-14940168D01*
X18025373Y-14936356D01*
X18023617Y-14932312D01*
X18022076Y-14927353D01*
X18020730Y-14920800D01*
X18019562Y-14911968D01*
X18018553Y-14900178D01*
X18017685Y-14884747D01*
X18016939Y-14864992D01*
X18016297Y-14840234D01*
X18015740Y-14809788D01*
X18015250Y-14772974D01*
X18014809Y-14729111D01*
X18014397Y-14677515D01*
X18013997Y-14617506D01*
X18013590Y-14548401D01*
X18013157Y-14469519D01*
X18012797Y-14402079D01*
X18011715Y-14198553D01*
X18281842Y-14198553D01*
X18281882Y-14256332D01*
X18281997Y-14310702D01*
X18282179Y-14360694D01*
X18282423Y-14405339D01*
X18282719Y-14443668D01*
X18283061Y-14474713D01*
X18283443Y-14497504D01*
X18283855Y-14511073D01*
X18284210Y-14514639D01*
X18288179Y-14510644D01*
X18298767Y-14499145D01*
X18315323Y-14480868D01*
X18337195Y-14456541D01*
X18363733Y-14426889D01*
X18394286Y-14392639D01*
X18428205Y-14354519D01*
X18464837Y-14313255D01*
X18496011Y-14278073D01*
X18534302Y-14234660D01*
X18570246Y-14193597D01*
X18603208Y-14155632D01*
X18632549Y-14121514D01*
X18657634Y-14091989D01*
X18677825Y-14067808D01*
X18692486Y-14049719D01*
X18700980Y-14038469D01*
X18702905Y-14034893D01*
X18696720Y-14029138D01*
X18682279Y-14020005D01*
X18661430Y-14008421D01*
X18636019Y-13995311D01*
X18607894Y-13981601D01*
X18578902Y-13968218D01*
X18550890Y-13956089D01*
X18526479Y-13946425D01*
X18493889Y-13935143D01*
X18456584Y-13923544D01*
X18417671Y-13912480D01*
X18380253Y-13902800D01*
X18347436Y-13895355D01*
X18325767Y-13891460D01*
X18308450Y-13888677D01*
X18294587Y-13885962D01*
X18291451Y-13885182D01*
X18289416Y-13885091D01*
X18287691Y-13886609D01*
X18286248Y-13890558D01*
X18285063Y-13897762D01*
X18284111Y-13909043D01*
X18283367Y-13925225D01*
X18282805Y-13947131D01*
X18282399Y-13975583D01*
X18282126Y-14011405D01*
X18281959Y-14055420D01*
X18281873Y-14108450D01*
X18281844Y-14171320D01*
X18281842Y-14198553D01*
X18011715Y-14198553D01*
X18010052Y-13885953D01*
X17990834Y-13887683D01*
X17977720Y-13889564D01*
X17956951Y-13893333D01*
X17931576Y-13898410D01*
X17909115Y-13903222D01*
X17806161Y-13931445D01*
X17707802Y-13969322D01*
X17614529Y-14016323D01*
X17526834Y-14071915D01*
X17445211Y-14135566D01*
X17370152Y-14206745D01*
X17302148Y-14284920D01*
X17241693Y-14369559D01*
X17189278Y-14460130D01*
X17145396Y-14556102D01*
X17110539Y-14656943D01*
X17085200Y-14762121D01*
X17078609Y-14800258D01*
X17075283Y-14830071D01*
X17073003Y-14868135D01*
X17071769Y-14911769D01*
X17071578Y-14958295D01*
X17072430Y-15005031D01*
X17074324Y-15049298D01*
X17077258Y-15088416D01*
X17078754Y-15102281D01*
X17082307Y-15142530D01*
X17081784Y-15174758D01*
X17076667Y-15201330D01*
X17066436Y-15224615D01*
X17050574Y-15246980D01*
X17045871Y-15252474D01*
X17016116Y-15279394D01*
X16983471Y-15296273D01*
X16948810Y-15302778D01*
X16920147Y-15300276D01*
X16886588Y-15288253D01*
X16858097Y-15268022D01*
X16836784Y-15241273D01*
X16830452Y-15228430D01*
X16822875Y-15203636D01*
X16816357Y-15169664D01*
X16810966Y-15128273D01*
X16806769Y-15081223D01*
X16803836Y-15030273D01*
X16802233Y-14977181D01*
X16802030Y-14923708D01*
X16803295Y-14871611D01*
X16806095Y-14822651D01*
X16810500Y-14778585D01*
X16812460Y-14764466D01*
X16836196Y-14642873D01*
X16869944Y-14525455D01*
X16913523Y-14412584D01*
X16966751Y-14304635D01*
X17029447Y-14201982D01*
X17101430Y-14104997D01*
X17170631Y-14026402D01*
X17255363Y-13944975D01*
X17347117Y-13871187D01*
X17444938Y-13805521D01*
X17547869Y-13748459D01*
X17654956Y-13700484D01*
X17765242Y-13662079D01*
X17877772Y-13633725D01*
X17981226Y-13617077D01*
X18012797Y-13613373D01*
X18012918Y-13217065D01*
X18012922Y-13139034D01*
X18012935Y-13071204D01*
X18013034Y-13012794D01*
X18013295Y-12963022D01*
X18013795Y-12921110D01*
X18014611Y-12886275D01*
X18015818Y-12857737D01*
X18017495Y-12834716D01*
X18019716Y-12816430D01*
X18022560Y-12802099D01*
X18026103Y-12790943D01*
X18030421Y-12782180D01*
X18035591Y-12775031D01*
X18041690Y-12768713D01*
X18048794Y-12762448D01*
X18056980Y-12755453D01*
X18058355Y-12754249D01*
X18089966Y-12733002D01*
X18123901Y-12721660D01*
X18158462Y-12719909D01*
X18191953Y-12727435D01*
X18222674Y-12743924D01*
X18248929Y-12769062D01*
X18264077Y-12792271D01*
X18279096Y-12820756D01*
X18280641Y-13217149D01*
X18282186Y-13613542D01*
X18308095Y-13616865D01*
X18349750Y-13623256D01*
X18397551Y-13632289D01*
X18447563Y-13643097D01*
X18495849Y-13654813D01*
X18538474Y-13666568D01*
X18550886Y-13670390D01*
X18608167Y-13689823D01*
X18662209Y-13710838D01*
X18715487Y-13734590D01*
X18770478Y-13762234D01*
X18829655Y-13794924D01*
X18876051Y-13822118D01*
X18887014Y-13827724D01*
X18894122Y-13826759D01*
X18901424Y-13820065D01*
X18906564Y-13814373D01*
X18918428Y-13801066D01*
X18936471Y-13780760D01*
X18960148Y-13754072D01*
X18988914Y-13721615D01*
X19022222Y-13684007D01*
X19059528Y-13641863D01*
X19100287Y-13595798D01*
X19143952Y-13546429D01*
X19189979Y-13494372D01*
X19227633Y-13451770D01*
X19283116Y-13389013D01*
X19331838Y-13333977D01*
X19374289Y-13286135D01*
X19410960Y-13244961D01*
X19442341Y-13209929D01*
X19468923Y-13180512D01*
X19491197Y-13156185D01*
X19509653Y-13136422D01*
X19524781Y-13120697D01*
X19537073Y-13108482D01*
X19547018Y-13099253D01*
X19555108Y-13092483D01*
X19561832Y-13087646D01*
X19567682Y-13084215D01*
X19572444Y-13081965D01*
X19601481Y-13069474D01*
X21121478Y-13055661D01*
X22641475Y-13041848D01*
X22670294Y-13055969D01*
X22675942Y-13059167D01*
X22682682Y-13063939D01*
X22690980Y-13070777D01*
X22701301Y-13080177D01*
X22714113Y-13092633D01*
X22729882Y-13108637D01*
X22749074Y-13128685D01*
X22772155Y-13153271D01*
X22799591Y-13182888D01*
X22831849Y-13218030D01*
X22869395Y-13259191D01*
X22912695Y-13306866D01*
X22962216Y-13361549D01*
X23018424Y-13423733D01*
X23041193Y-13448946D01*
X23383273Y-13827802D01*
X23411816Y-13809659D01*
X23503220Y-13757414D01*
X23601969Y-13711875D01*
X23706238Y-13673710D01*
X23814199Y-13643587D01*
X23924028Y-13622173D01*
X23924914Y-13622038D01*
X23986684Y-13612640D01*
X23986925Y-13208462D01*
X23987008Y-13128836D01*
X23987165Y-13059505D01*
X23987407Y-12999785D01*
X23987748Y-12948989D01*
X23988198Y-12906433D01*
X23988771Y-12871430D01*
X23989479Y-12843295D01*
X23990334Y-12821343D01*
X23991348Y-12804888D01*
X23992533Y-12793245D01*
X23993902Y-12785728D01*
X23994518Y-12783683D01*
X24012094Y-12750343D01*
X24038477Y-12722451D01*
X24056877Y-12709692D01*
X24073586Y-12701052D01*
X24089378Y-12696441D01*
X24109023Y-12694742D01*
X24121206Y-12694633D01*
X24160386Y-12699252D01*
G37*
D14*
%TO.C,J5*%
X30997500Y-18047500D02*
X30997500Y-18647500D01*
X30997500Y-18647500D02*
X31597500Y-18347500D01*
X31487500Y-15737500D02*
X39907500Y-15737500D01*
X31487500Y-16957500D02*
X31487500Y-15737500D01*
X31487500Y-34737500D02*
X33687500Y-34737500D01*
X31487500Y-35957500D02*
X31487500Y-34737500D01*
X31597500Y-18347500D02*
X30997500Y-18047500D01*
X33687500Y-16957500D02*
X31487500Y-16957500D01*
X33687500Y-16957500D02*
X33687500Y-15737500D01*
X33687500Y-19517500D02*
X33687500Y-19677500D01*
X33687500Y-22017500D02*
X33687500Y-22177500D01*
X33687500Y-24517500D02*
X33687500Y-24677500D01*
X33687500Y-27017500D02*
X33687500Y-27177500D01*
X33687500Y-29517500D02*
X33687500Y-29677500D01*
X33687500Y-32017500D02*
X33687500Y-32177500D01*
X33687500Y-34737500D02*
X33687500Y-35957500D01*
X34687500Y-16957500D02*
X34687500Y-34737500D01*
X34687500Y-18027500D02*
X38107500Y-18027500D01*
X34687500Y-18347500D02*
X34687500Y-18027500D01*
X34687500Y-18667500D02*
X34687500Y-18347500D01*
X34687500Y-20527500D02*
X38107500Y-20527500D01*
X34687500Y-20847500D02*
X34687500Y-20527500D01*
X34687500Y-21167500D02*
X34687500Y-20847500D01*
X34687500Y-23027500D02*
X38107500Y-23027500D01*
X34687500Y-23347500D02*
X34687500Y-23027500D01*
X34687500Y-23667500D02*
X34687500Y-23347500D01*
X34687500Y-25527500D02*
X38107500Y-25527500D01*
X34687500Y-25847500D02*
X34687500Y-25527500D01*
X34687500Y-26167500D02*
X34687500Y-25847500D01*
X34687500Y-28027500D02*
X38107500Y-28027500D01*
X34687500Y-28347500D02*
X34687500Y-28027500D01*
X34687500Y-28667500D02*
X34687500Y-28347500D01*
X34687500Y-30527500D02*
X38107500Y-30527500D01*
X34687500Y-30847500D02*
X34687500Y-30527500D01*
X34687500Y-31167500D02*
X34687500Y-30847500D01*
X34687500Y-33027500D02*
X38107500Y-33027500D01*
X34687500Y-33347500D02*
X34687500Y-33027500D01*
X34687500Y-33667500D02*
X34687500Y-33347500D01*
X38107500Y-18027500D02*
X38187500Y-18347500D01*
X38107500Y-18667500D02*
X34687500Y-18667500D01*
X38107500Y-20527500D02*
X38187500Y-20847500D01*
X38107500Y-21167500D02*
X34687500Y-21167500D01*
X38107500Y-23027500D02*
X38187500Y-23347500D01*
X38107500Y-23667500D02*
X34687500Y-23667500D01*
X38107500Y-25527500D02*
X38187500Y-25847500D01*
X38107500Y-26167500D02*
X34687500Y-26167500D01*
X38107500Y-28027500D02*
X38187500Y-28347500D01*
X38107500Y-28667500D02*
X34687500Y-28667500D01*
X38107500Y-30527500D02*
X38187500Y-30847500D01*
X38107500Y-31167500D02*
X34687500Y-31167500D01*
X38107500Y-33027500D02*
X38187500Y-33347500D01*
X38107500Y-33667500D02*
X34687500Y-33667500D01*
X38187500Y-18347500D02*
X38107500Y-18667500D01*
X38187500Y-20847500D02*
X38107500Y-21167500D01*
X38187500Y-23347500D02*
X38107500Y-23667500D01*
X38187500Y-25847500D02*
X38107500Y-26167500D01*
X38187500Y-28347500D02*
X38107500Y-28667500D01*
X38187500Y-30847500D02*
X38107500Y-31167500D01*
X38187500Y-33347500D02*
X38107500Y-33667500D01*
X38687500Y-15737500D02*
X38687500Y-16957500D01*
X38687500Y-16957500D02*
X33687500Y-16957500D01*
X38687500Y-34737500D02*
X33687500Y-34737500D01*
X38687500Y-35957500D02*
X38687500Y-34737500D01*
X39907500Y-15737500D02*
X39907500Y-35957500D01*
X39907500Y-35957500D02*
X31487500Y-35957500D01*
%TO.C,C2*%
X27853733Y-23490000D02*
X28146267Y-23490000D01*
X27853733Y-24510000D02*
X28146267Y-24510000D01*
%TO.C,C4*%
X26730000Y-20633733D02*
X26730000Y-20926267D01*
X27750000Y-20633733D02*
X27750000Y-20926267D01*
%TO.C,C1*%
X27853733Y-24990000D02*
X28146267Y-24990000D01*
X27853733Y-26010000D02*
X28146267Y-26010000D01*
%TD*%
M02*
