%TF.GenerationSoftware,KiCad,Pcbnew,10.0.2*%
%TF.CreationDate,2026-05-13T20:45:37+02:00*%
%TF.ProjectId,drill_pcb,6472696c-6c5f-4706-9362-2e6b69636164,rev?*%
%TF.SameCoordinates,Original*%
%TF.FileFunction,Legend,Bot*%
%TF.FilePolarity,Positive*%
%FSLAX46Y46*%
G04 Gerber Fmt 4.6, Leading zero omitted, Abs format (unit mm)*
G04 Created by KiCad (PCBNEW 10.0.2) date 2026-05-13 20:45:37*
%MOMM*%
%LPD*%
G01*
G04 APERTURE LIST*
%ADD10C,0.150000*%
%ADD11C,0.120000*%
G04 APERTURE END LIST*
D10*
X120261904Y-119454819D02*
X120261904Y-120264342D01*
X120261904Y-120264342D02*
X120214285Y-120359580D01*
X120214285Y-120359580D02*
X120166666Y-120407200D01*
X120166666Y-120407200D02*
X120071428Y-120454819D01*
X120071428Y-120454819D02*
X119880952Y-120454819D01*
X119880952Y-120454819D02*
X119785714Y-120407200D01*
X119785714Y-120407200D02*
X119738095Y-120359580D01*
X119738095Y-120359580D02*
X119690476Y-120264342D01*
X119690476Y-120264342D02*
X119690476Y-119454819D01*
X119309523Y-119454819D02*
X118690476Y-119454819D01*
X118690476Y-119454819D02*
X119023809Y-119835771D01*
X119023809Y-119835771D02*
X118880952Y-119835771D01*
X118880952Y-119835771D02*
X118785714Y-119883390D01*
X118785714Y-119883390D02*
X118738095Y-119931009D01*
X118738095Y-119931009D02*
X118690476Y-120026247D01*
X118690476Y-120026247D02*
X118690476Y-120264342D01*
X118690476Y-120264342D02*
X118738095Y-120359580D01*
X118738095Y-120359580D02*
X118785714Y-120407200D01*
X118785714Y-120407200D02*
X118880952Y-120454819D01*
X118880952Y-120454819D02*
X119166666Y-120454819D01*
X119166666Y-120454819D02*
X119261904Y-120407200D01*
X119261904Y-120407200D02*
X119309523Y-120359580D01*
X47104166Y-52159580D02*
X47151785Y-52207200D01*
X47151785Y-52207200D02*
X47294642Y-52254819D01*
X47294642Y-52254819D02*
X47389880Y-52254819D01*
X47389880Y-52254819D02*
X47532737Y-52207200D01*
X47532737Y-52207200D02*
X47627975Y-52111961D01*
X47627975Y-52111961D02*
X47675594Y-52016723D01*
X47675594Y-52016723D02*
X47723213Y-51826247D01*
X47723213Y-51826247D02*
X47723213Y-51683390D01*
X47723213Y-51683390D02*
X47675594Y-51492914D01*
X47675594Y-51492914D02*
X47627975Y-51397676D01*
X47627975Y-51397676D02*
X47532737Y-51302438D01*
X47532737Y-51302438D02*
X47389880Y-51254819D01*
X47389880Y-51254819D02*
X47294642Y-51254819D01*
X47294642Y-51254819D02*
X47151785Y-51302438D01*
X47151785Y-51302438D02*
X47104166Y-51350057D01*
X46627975Y-52254819D02*
X46437499Y-52254819D01*
X46437499Y-52254819D02*
X46342261Y-52207200D01*
X46342261Y-52207200D02*
X46294642Y-52159580D01*
X46294642Y-52159580D02*
X46199404Y-52016723D01*
X46199404Y-52016723D02*
X46151785Y-51826247D01*
X46151785Y-51826247D02*
X46151785Y-51445295D01*
X46151785Y-51445295D02*
X46199404Y-51350057D01*
X46199404Y-51350057D02*
X46247023Y-51302438D01*
X46247023Y-51302438D02*
X46342261Y-51254819D01*
X46342261Y-51254819D02*
X46532737Y-51254819D01*
X46532737Y-51254819D02*
X46627975Y-51302438D01*
X46627975Y-51302438D02*
X46675594Y-51350057D01*
X46675594Y-51350057D02*
X46723213Y-51445295D01*
X46723213Y-51445295D02*
X46723213Y-51683390D01*
X46723213Y-51683390D02*
X46675594Y-51778628D01*
X46675594Y-51778628D02*
X46627975Y-51826247D01*
X46627975Y-51826247D02*
X46532737Y-51873866D01*
X46532737Y-51873866D02*
X46342261Y-51873866D01*
X46342261Y-51873866D02*
X46247023Y-51826247D01*
X46247023Y-51826247D02*
X46199404Y-51778628D01*
X46199404Y-51778628D02*
X46151785Y-51683390D01*
X118166666Y-132784819D02*
X118499999Y-132308628D01*
X118738094Y-132784819D02*
X118738094Y-131784819D01*
X118738094Y-131784819D02*
X118357142Y-131784819D01*
X118357142Y-131784819D02*
X118261904Y-131832438D01*
X118261904Y-131832438D02*
X118214285Y-131880057D01*
X118214285Y-131880057D02*
X118166666Y-131975295D01*
X118166666Y-131975295D02*
X118166666Y-132118152D01*
X118166666Y-132118152D02*
X118214285Y-132213390D01*
X118214285Y-132213390D02*
X118261904Y-132261009D01*
X118261904Y-132261009D02*
X118357142Y-132308628D01*
X118357142Y-132308628D02*
X118738094Y-132308628D01*
X117833332Y-131784819D02*
X117166666Y-131784819D01*
X117166666Y-131784819D02*
X117595237Y-132784819D01*
X59604166Y-52159580D02*
X59651785Y-52207200D01*
X59651785Y-52207200D02*
X59794642Y-52254819D01*
X59794642Y-52254819D02*
X59889880Y-52254819D01*
X59889880Y-52254819D02*
X60032737Y-52207200D01*
X60032737Y-52207200D02*
X60127975Y-52111961D01*
X60127975Y-52111961D02*
X60175594Y-52016723D01*
X60175594Y-52016723D02*
X60223213Y-51826247D01*
X60223213Y-51826247D02*
X60223213Y-51683390D01*
X60223213Y-51683390D02*
X60175594Y-51492914D01*
X60175594Y-51492914D02*
X60127975Y-51397676D01*
X60127975Y-51397676D02*
X60032737Y-51302438D01*
X60032737Y-51302438D02*
X59889880Y-51254819D01*
X59889880Y-51254819D02*
X59794642Y-51254819D01*
X59794642Y-51254819D02*
X59651785Y-51302438D01*
X59651785Y-51302438D02*
X59604166Y-51350057D01*
X59032737Y-51683390D02*
X59127975Y-51635771D01*
X59127975Y-51635771D02*
X59175594Y-51588152D01*
X59175594Y-51588152D02*
X59223213Y-51492914D01*
X59223213Y-51492914D02*
X59223213Y-51445295D01*
X59223213Y-51445295D02*
X59175594Y-51350057D01*
X59175594Y-51350057D02*
X59127975Y-51302438D01*
X59127975Y-51302438D02*
X59032737Y-51254819D01*
X59032737Y-51254819D02*
X58842261Y-51254819D01*
X58842261Y-51254819D02*
X58747023Y-51302438D01*
X58747023Y-51302438D02*
X58699404Y-51350057D01*
X58699404Y-51350057D02*
X58651785Y-51445295D01*
X58651785Y-51445295D02*
X58651785Y-51492914D01*
X58651785Y-51492914D02*
X58699404Y-51588152D01*
X58699404Y-51588152D02*
X58747023Y-51635771D01*
X58747023Y-51635771D02*
X58842261Y-51683390D01*
X58842261Y-51683390D02*
X59032737Y-51683390D01*
X59032737Y-51683390D02*
X59127975Y-51731009D01*
X59127975Y-51731009D02*
X59175594Y-51778628D01*
X59175594Y-51778628D02*
X59223213Y-51873866D01*
X59223213Y-51873866D02*
X59223213Y-52064342D01*
X59223213Y-52064342D02*
X59175594Y-52159580D01*
X59175594Y-52159580D02*
X59127975Y-52207200D01*
X59127975Y-52207200D02*
X59032737Y-52254819D01*
X59032737Y-52254819D02*
X58842261Y-52254819D01*
X58842261Y-52254819D02*
X58747023Y-52207200D01*
X58747023Y-52207200D02*
X58699404Y-52159580D01*
X58699404Y-52159580D02*
X58651785Y-52064342D01*
X58651785Y-52064342D02*
X58651785Y-51873866D01*
X58651785Y-51873866D02*
X58699404Y-51778628D01*
X58699404Y-51778628D02*
X58747023Y-51731009D01*
X58747023Y-51731009D02*
X58842261Y-51683390D01*
X127359580Y-127833333D02*
X127407200Y-127785714D01*
X127407200Y-127785714D02*
X127454819Y-127642857D01*
X127454819Y-127642857D02*
X127454819Y-127547619D01*
X127454819Y-127547619D02*
X127407200Y-127404762D01*
X127407200Y-127404762D02*
X127311961Y-127309524D01*
X127311961Y-127309524D02*
X127216723Y-127261905D01*
X127216723Y-127261905D02*
X127026247Y-127214286D01*
X127026247Y-127214286D02*
X126883390Y-127214286D01*
X126883390Y-127214286D02*
X126692914Y-127261905D01*
X126692914Y-127261905D02*
X126597676Y-127309524D01*
X126597676Y-127309524D02*
X126502438Y-127404762D01*
X126502438Y-127404762D02*
X126454819Y-127547619D01*
X126454819Y-127547619D02*
X126454819Y-127642857D01*
X126454819Y-127642857D02*
X126502438Y-127785714D01*
X126502438Y-127785714D02*
X126550057Y-127833333D01*
X126454819Y-128166667D02*
X126454819Y-128833333D01*
X126454819Y-128833333D02*
X127454819Y-128404762D01*
X50566666Y-66859580D02*
X50614285Y-66907200D01*
X50614285Y-66907200D02*
X50757142Y-66954819D01*
X50757142Y-66954819D02*
X50852380Y-66954819D01*
X50852380Y-66954819D02*
X50995237Y-66907200D01*
X50995237Y-66907200D02*
X51090475Y-66811961D01*
X51090475Y-66811961D02*
X51138094Y-66716723D01*
X51138094Y-66716723D02*
X51185713Y-66526247D01*
X51185713Y-66526247D02*
X51185713Y-66383390D01*
X51185713Y-66383390D02*
X51138094Y-66192914D01*
X51138094Y-66192914D02*
X51090475Y-66097676D01*
X51090475Y-66097676D02*
X50995237Y-66002438D01*
X50995237Y-66002438D02*
X50852380Y-65954819D01*
X50852380Y-65954819D02*
X50757142Y-65954819D01*
X50757142Y-65954819D02*
X50614285Y-66002438D01*
X50614285Y-66002438D02*
X50566666Y-66050057D01*
X50185713Y-66050057D02*
X50138094Y-66002438D01*
X50138094Y-66002438D02*
X50042856Y-65954819D01*
X50042856Y-65954819D02*
X49804761Y-65954819D01*
X49804761Y-65954819D02*
X49709523Y-66002438D01*
X49709523Y-66002438D02*
X49661904Y-66050057D01*
X49661904Y-66050057D02*
X49614285Y-66145295D01*
X49614285Y-66145295D02*
X49614285Y-66240533D01*
X49614285Y-66240533D02*
X49661904Y-66383390D01*
X49661904Y-66383390D02*
X50233332Y-66954819D01*
X50233332Y-66954819D02*
X49614285Y-66954819D01*
X57566666Y-59999580D02*
X57614285Y-60047200D01*
X57614285Y-60047200D02*
X57757142Y-60094819D01*
X57757142Y-60094819D02*
X57852380Y-60094819D01*
X57852380Y-60094819D02*
X57995237Y-60047200D01*
X57995237Y-60047200D02*
X58090475Y-59951961D01*
X58090475Y-59951961D02*
X58138094Y-59856723D01*
X58138094Y-59856723D02*
X58185713Y-59666247D01*
X58185713Y-59666247D02*
X58185713Y-59523390D01*
X58185713Y-59523390D02*
X58138094Y-59332914D01*
X58138094Y-59332914D02*
X58090475Y-59237676D01*
X58090475Y-59237676D02*
X57995237Y-59142438D01*
X57995237Y-59142438D02*
X57852380Y-59094819D01*
X57852380Y-59094819D02*
X57757142Y-59094819D01*
X57757142Y-59094819D02*
X57614285Y-59142438D01*
X57614285Y-59142438D02*
X57566666Y-59190057D01*
X56709523Y-59428152D02*
X56709523Y-60094819D01*
X56947618Y-59047200D02*
X57185713Y-59761485D01*
X57185713Y-59761485D02*
X56566666Y-59761485D01*
X77124819Y-83833333D02*
X76648628Y-83500000D01*
X77124819Y-83261905D02*
X76124819Y-83261905D01*
X76124819Y-83261905D02*
X76124819Y-83642857D01*
X76124819Y-83642857D02*
X76172438Y-83738095D01*
X76172438Y-83738095D02*
X76220057Y-83785714D01*
X76220057Y-83785714D02*
X76315295Y-83833333D01*
X76315295Y-83833333D02*
X76458152Y-83833333D01*
X76458152Y-83833333D02*
X76553390Y-83785714D01*
X76553390Y-83785714D02*
X76601009Y-83738095D01*
X76601009Y-83738095D02*
X76648628Y-83642857D01*
X76648628Y-83642857D02*
X76648628Y-83261905D01*
X76124819Y-84166667D02*
X76124819Y-84785714D01*
X76124819Y-84785714D02*
X76505771Y-84452381D01*
X76505771Y-84452381D02*
X76505771Y-84595238D01*
X76505771Y-84595238D02*
X76553390Y-84690476D01*
X76553390Y-84690476D02*
X76601009Y-84738095D01*
X76601009Y-84738095D02*
X76696247Y-84785714D01*
X76696247Y-84785714D02*
X76934342Y-84785714D01*
X76934342Y-84785714D02*
X77029580Y-84738095D01*
X77029580Y-84738095D02*
X77077200Y-84690476D01*
X77077200Y-84690476D02*
X77124819Y-84595238D01*
X77124819Y-84595238D02*
X77124819Y-84309524D01*
X77124819Y-84309524D02*
X77077200Y-84214286D01*
X77077200Y-84214286D02*
X77029580Y-84166667D01*
X75407200Y-81889160D02*
X75454819Y-82032017D01*
X75454819Y-82032017D02*
X75454819Y-82270112D01*
X75454819Y-82270112D02*
X75407200Y-82365350D01*
X75407200Y-82365350D02*
X75359580Y-82412969D01*
X75359580Y-82412969D02*
X75264342Y-82460588D01*
X75264342Y-82460588D02*
X75169104Y-82460588D01*
X75169104Y-82460588D02*
X75073866Y-82412969D01*
X75073866Y-82412969D02*
X75026247Y-82365350D01*
X75026247Y-82365350D02*
X74978628Y-82270112D01*
X74978628Y-82270112D02*
X74931009Y-82079636D01*
X74931009Y-82079636D02*
X74883390Y-81984398D01*
X74883390Y-81984398D02*
X74835771Y-81936779D01*
X74835771Y-81936779D02*
X74740533Y-81889160D01*
X74740533Y-81889160D02*
X74645295Y-81889160D01*
X74645295Y-81889160D02*
X74550057Y-81936779D01*
X74550057Y-81936779D02*
X74502438Y-81984398D01*
X74502438Y-81984398D02*
X74454819Y-82079636D01*
X74454819Y-82079636D02*
X74454819Y-82317731D01*
X74454819Y-82317731D02*
X74502438Y-82460588D01*
X75359580Y-83460588D02*
X75407200Y-83412969D01*
X75407200Y-83412969D02*
X75454819Y-83270112D01*
X75454819Y-83270112D02*
X75454819Y-83174874D01*
X75454819Y-83174874D02*
X75407200Y-83032017D01*
X75407200Y-83032017D02*
X75311961Y-82936779D01*
X75311961Y-82936779D02*
X75216723Y-82889160D01*
X75216723Y-82889160D02*
X75026247Y-82841541D01*
X75026247Y-82841541D02*
X74883390Y-82841541D01*
X74883390Y-82841541D02*
X74692914Y-82889160D01*
X74692914Y-82889160D02*
X74597676Y-82936779D01*
X74597676Y-82936779D02*
X74502438Y-83032017D01*
X74502438Y-83032017D02*
X74454819Y-83174874D01*
X74454819Y-83174874D02*
X74454819Y-83270112D01*
X74454819Y-83270112D02*
X74502438Y-83412969D01*
X74502438Y-83412969D02*
X74550057Y-83460588D01*
X75454819Y-84365350D02*
X75454819Y-83889160D01*
X75454819Y-83889160D02*
X74454819Y-83889160D01*
X75454819Y-85460589D02*
X74454819Y-85460589D01*
X74454819Y-85460589D02*
X74454819Y-85841541D01*
X74454819Y-85841541D02*
X74502438Y-85936779D01*
X74502438Y-85936779D02*
X74550057Y-85984398D01*
X74550057Y-85984398D02*
X74645295Y-86032017D01*
X74645295Y-86032017D02*
X74788152Y-86032017D01*
X74788152Y-86032017D02*
X74883390Y-85984398D01*
X74883390Y-85984398D02*
X74931009Y-85936779D01*
X74931009Y-85936779D02*
X74978628Y-85841541D01*
X74978628Y-85841541D02*
X74978628Y-85460589D01*
X74454819Y-86460589D02*
X75264342Y-86460589D01*
X75264342Y-86460589D02*
X75359580Y-86508208D01*
X75359580Y-86508208D02*
X75407200Y-86555827D01*
X75407200Y-86555827D02*
X75454819Y-86651065D01*
X75454819Y-86651065D02*
X75454819Y-86841541D01*
X75454819Y-86841541D02*
X75407200Y-86936779D01*
X75407200Y-86936779D02*
X75359580Y-86984398D01*
X75359580Y-86984398D02*
X75264342Y-87032017D01*
X75264342Y-87032017D02*
X74454819Y-87032017D01*
X75454819Y-87984398D02*
X75454819Y-87508208D01*
X75454819Y-87508208D02*
X74454819Y-87508208D01*
X75454819Y-88793922D02*
X75454819Y-88317732D01*
X75454819Y-88317732D02*
X74454819Y-88317732D01*
X74454819Y-89127256D02*
X75264342Y-89127256D01*
X75264342Y-89127256D02*
X75359580Y-89174875D01*
X75359580Y-89174875D02*
X75407200Y-89222494D01*
X75407200Y-89222494D02*
X75454819Y-89317732D01*
X75454819Y-89317732D02*
X75454819Y-89508208D01*
X75454819Y-89508208D02*
X75407200Y-89603446D01*
X75407200Y-89603446D02*
X75359580Y-89651065D01*
X75359580Y-89651065D02*
X75264342Y-89698684D01*
X75264342Y-89698684D02*
X74454819Y-89698684D01*
X75454819Y-90174875D02*
X74454819Y-90174875D01*
X74454819Y-90174875D02*
X74454819Y-90555827D01*
X74454819Y-90555827D02*
X74502438Y-90651065D01*
X74502438Y-90651065D02*
X74550057Y-90698684D01*
X74550057Y-90698684D02*
X74645295Y-90746303D01*
X74645295Y-90746303D02*
X74788152Y-90746303D01*
X74788152Y-90746303D02*
X74883390Y-90698684D01*
X74883390Y-90698684D02*
X74931009Y-90651065D01*
X74931009Y-90651065D02*
X74978628Y-90555827D01*
X74978628Y-90555827D02*
X74978628Y-90174875D01*
X88454819Y-83833333D02*
X87978628Y-83500000D01*
X88454819Y-83261905D02*
X87454819Y-83261905D01*
X87454819Y-83261905D02*
X87454819Y-83642857D01*
X87454819Y-83642857D02*
X87502438Y-83738095D01*
X87502438Y-83738095D02*
X87550057Y-83785714D01*
X87550057Y-83785714D02*
X87645295Y-83833333D01*
X87645295Y-83833333D02*
X87788152Y-83833333D01*
X87788152Y-83833333D02*
X87883390Y-83785714D01*
X87883390Y-83785714D02*
X87931009Y-83738095D01*
X87931009Y-83738095D02*
X87978628Y-83642857D01*
X87978628Y-83642857D02*
X87978628Y-83261905D01*
X87550057Y-84214286D02*
X87502438Y-84261905D01*
X87502438Y-84261905D02*
X87454819Y-84357143D01*
X87454819Y-84357143D02*
X87454819Y-84595238D01*
X87454819Y-84595238D02*
X87502438Y-84690476D01*
X87502438Y-84690476D02*
X87550057Y-84738095D01*
X87550057Y-84738095D02*
X87645295Y-84785714D01*
X87645295Y-84785714D02*
X87740533Y-84785714D01*
X87740533Y-84785714D02*
X87883390Y-84738095D01*
X87883390Y-84738095D02*
X88454819Y-84166667D01*
X88454819Y-84166667D02*
X88454819Y-84785714D01*
X90007200Y-81889160D02*
X90054819Y-82032017D01*
X90054819Y-82032017D02*
X90054819Y-82270112D01*
X90054819Y-82270112D02*
X90007200Y-82365350D01*
X90007200Y-82365350D02*
X89959580Y-82412969D01*
X89959580Y-82412969D02*
X89864342Y-82460588D01*
X89864342Y-82460588D02*
X89769104Y-82460588D01*
X89769104Y-82460588D02*
X89673866Y-82412969D01*
X89673866Y-82412969D02*
X89626247Y-82365350D01*
X89626247Y-82365350D02*
X89578628Y-82270112D01*
X89578628Y-82270112D02*
X89531009Y-82079636D01*
X89531009Y-82079636D02*
X89483390Y-81984398D01*
X89483390Y-81984398D02*
X89435771Y-81936779D01*
X89435771Y-81936779D02*
X89340533Y-81889160D01*
X89340533Y-81889160D02*
X89245295Y-81889160D01*
X89245295Y-81889160D02*
X89150057Y-81936779D01*
X89150057Y-81936779D02*
X89102438Y-81984398D01*
X89102438Y-81984398D02*
X89054819Y-82079636D01*
X89054819Y-82079636D02*
X89054819Y-82317731D01*
X89054819Y-82317731D02*
X89102438Y-82460588D01*
X90054819Y-82889160D02*
X89054819Y-82889160D01*
X89054819Y-82889160D02*
X89054819Y-83127255D01*
X89054819Y-83127255D02*
X89102438Y-83270112D01*
X89102438Y-83270112D02*
X89197676Y-83365350D01*
X89197676Y-83365350D02*
X89292914Y-83412969D01*
X89292914Y-83412969D02*
X89483390Y-83460588D01*
X89483390Y-83460588D02*
X89626247Y-83460588D01*
X89626247Y-83460588D02*
X89816723Y-83412969D01*
X89816723Y-83412969D02*
X89911961Y-83365350D01*
X89911961Y-83365350D02*
X90007200Y-83270112D01*
X90007200Y-83270112D02*
X90054819Y-83127255D01*
X90054819Y-83127255D02*
X90054819Y-82889160D01*
X89769104Y-83841541D02*
X89769104Y-84317731D01*
X90054819Y-83746303D02*
X89054819Y-84079636D01*
X89054819Y-84079636D02*
X90054819Y-84412969D01*
X90054819Y-85508208D02*
X89054819Y-85508208D01*
X89054819Y-85508208D02*
X89054819Y-85889160D01*
X89054819Y-85889160D02*
X89102438Y-85984398D01*
X89102438Y-85984398D02*
X89150057Y-86032017D01*
X89150057Y-86032017D02*
X89245295Y-86079636D01*
X89245295Y-86079636D02*
X89388152Y-86079636D01*
X89388152Y-86079636D02*
X89483390Y-86032017D01*
X89483390Y-86032017D02*
X89531009Y-85984398D01*
X89531009Y-85984398D02*
X89578628Y-85889160D01*
X89578628Y-85889160D02*
X89578628Y-85508208D01*
X89054819Y-86508208D02*
X89864342Y-86508208D01*
X89864342Y-86508208D02*
X89959580Y-86555827D01*
X89959580Y-86555827D02*
X90007200Y-86603446D01*
X90007200Y-86603446D02*
X90054819Y-86698684D01*
X90054819Y-86698684D02*
X90054819Y-86889160D01*
X90054819Y-86889160D02*
X90007200Y-86984398D01*
X90007200Y-86984398D02*
X89959580Y-87032017D01*
X89959580Y-87032017D02*
X89864342Y-87079636D01*
X89864342Y-87079636D02*
X89054819Y-87079636D01*
X90054819Y-88032017D02*
X90054819Y-87555827D01*
X90054819Y-87555827D02*
X89054819Y-87555827D01*
X90054819Y-88841541D02*
X90054819Y-88365351D01*
X90054819Y-88365351D02*
X89054819Y-88365351D01*
X89054819Y-89174875D02*
X89864342Y-89174875D01*
X89864342Y-89174875D02*
X89959580Y-89222494D01*
X89959580Y-89222494D02*
X90007200Y-89270113D01*
X90007200Y-89270113D02*
X90054819Y-89365351D01*
X90054819Y-89365351D02*
X90054819Y-89555827D01*
X90054819Y-89555827D02*
X90007200Y-89651065D01*
X90007200Y-89651065D02*
X89959580Y-89698684D01*
X89959580Y-89698684D02*
X89864342Y-89746303D01*
X89864342Y-89746303D02*
X89054819Y-89746303D01*
X90054819Y-90222494D02*
X89054819Y-90222494D01*
X89054819Y-90222494D02*
X89054819Y-90603446D01*
X89054819Y-90603446D02*
X89102438Y-90698684D01*
X89102438Y-90698684D02*
X89150057Y-90746303D01*
X89150057Y-90746303D02*
X89245295Y-90793922D01*
X89245295Y-90793922D02*
X89388152Y-90793922D01*
X89388152Y-90793922D02*
X89483390Y-90746303D01*
X89483390Y-90746303D02*
X89531009Y-90698684D01*
X89531009Y-90698684D02*
X89578628Y-90603446D01*
X89578628Y-90603446D02*
X89578628Y-90222494D01*
%TO.C,U3*%
D11*
X118440000Y-122440000D02*
X118440000Y-126560000D01*
X118440000Y-126560000D02*
X118535000Y-126560000D01*
X118535000Y-122440000D02*
X118440000Y-122440000D01*
X123465000Y-126560000D02*
X123560000Y-126560000D01*
X123560000Y-122440000D02*
X123465000Y-122440000D01*
X123560000Y-126560000D02*
X123560000Y-122440000D01*
X118530000Y-121900000D02*
X118200000Y-121660000D01*
X118200000Y-122140000D01*
X118530000Y-121900000D01*
G36*
X118530000Y-121900000D02*
G01*
X118200000Y-122140000D01*
X118200000Y-121660000D01*
X118530000Y-121900000D01*
G37*
%TO.C,C9*%
X47648752Y-49090000D02*
X46226248Y-49090000D01*
X47648752Y-50910000D02*
X46226248Y-50910000D01*
%TO.C,R7*%
X118272936Y-129590000D02*
X119727064Y-129590000D01*
X118272936Y-131410000D02*
X119727064Y-131410000D01*
%TO.C,C8*%
X60148752Y-49090000D02*
X58726248Y-49090000D01*
X60148752Y-50910000D02*
X58726248Y-50910000D01*
%TO.C,C7*%
X124090000Y-127288748D02*
X124090000Y-128711252D01*
X125910000Y-127288748D02*
X125910000Y-128711252D01*
%TO.C,C2*%
X49490000Y-62088748D02*
X49490000Y-63511252D01*
X51310000Y-62088748D02*
X51310000Y-63511252D01*
%TO.C,C4*%
X56490000Y-62051248D02*
X56490000Y-63473752D01*
X58310000Y-62051248D02*
X58310000Y-63473752D01*
%TO.C,R3*%
X77590000Y-83272936D02*
X77590000Y-84727064D01*
X79410000Y-83272936D02*
X79410000Y-84727064D01*
%TO.C,R2*%
X85090000Y-83272936D02*
X85090000Y-84727064D01*
X86910000Y-83272936D02*
X86910000Y-84727064D01*
%TD*%
M02*
