M48
; DRILL file KiCad 10.0.2 date 2026-05-14T21:58:31
; FORMAT={-:-/ absolute / metric / decimal}
; #@! TF.CreationDate,2026-05-14T21:58:31+02:00
; #@! TF.GenerationSoftware,Kicad,Pcbnew,10.0.2
; #@! TF.FileFunction,Plated,1,2,PTH
FMAT,2
METRIC
; #@! TA.AperFunction,Plated,PTH,ViaDrill
T1C0.500
; #@! TA.AperFunction,Plated,PTH,ComponentDrill
T2C0.800
; #@! TA.AperFunction,Plated,PTH,ComponentDrill
T3C0.950
; #@! TA.AperFunction,Plated,PTH,ComponentDrill
T4C1.000
; #@! TA.AperFunction,Plated,PTH,ComponentDrill
T5C1.100
; #@! TA.AperFunction,Plated,PTH,ComponentDrill
T6C1.200
; #@! TA.AperFunction,Plated,PTH,ComponentDrill
T7C2.800
; #@! TA.AperFunction,Plated,PTH,ComponentDrill
T8C4.572
%
G90
G05
T1
X63.0Y-73.4
X68.7Y-67.0
X73.025Y-49.225
X99.9Y-83.9
X103.6Y-84.0
X111.39Y-44.03
X112.02Y-88.25
X121.8Y-118.0
X123.0Y-119.8
X131.16Y-95.78
T2
X73.6Y-77.47
X73.6Y-102.87
X73.66Y-114.3
X73.66Y-127.0
X76.14Y-77.47
X76.14Y-102.87
X76.2Y-114.3
X76.2Y-127.0
X78.68Y-77.47
X78.68Y-102.87
X78.74Y-114.3
X78.74Y-127.0
X81.22Y-77.47
X81.22Y-102.87
X81.28Y-114.3
X81.28Y-127.0
X83.76Y-77.47
X83.76Y-102.87
X83.82Y-114.3
X83.82Y-127.0
X86.3Y-77.47
X86.3Y-102.87
X86.36Y-114.3
X86.36Y-127.0
X88.84Y-77.47
X88.84Y-102.87
X88.9Y-114.3
X88.9Y-127.0
X91.38Y-77.47
X91.38Y-102.87
X91.44Y-114.3
X91.44Y-116.84
X91.44Y-119.38
X91.44Y-127.0
X93.0Y-133.64
X93.0Y-137.14
X93.92Y-77.47
X93.92Y-102.87
X96.46Y-77.47
X96.46Y-102.87
X97.79Y-114.3
X97.79Y-127.0
X99.0Y-77.47
X99.0Y-102.87
X100.33Y-114.3
X100.33Y-127.0
X101.54Y-77.47
X101.54Y-102.87
X102.87Y-114.3
X102.87Y-127.0
X104.08Y-77.47
X104.08Y-102.87
X105.41Y-114.3
X105.41Y-127.0
X106.62Y-77.47
X106.62Y-102.87
X107.95Y-114.3
X107.95Y-127.0
X109.16Y-77.47
X109.16Y-102.87
X110.49Y-114.3
X110.49Y-127.0
X111.7Y-77.47
X111.7Y-102.87
X113.03Y-114.3
X113.03Y-127.0
X114.24Y-77.47
X114.24Y-102.87
X115.57Y-114.3
X115.57Y-116.84
X115.57Y-119.38
X115.57Y-127.0
X116.777Y-77.474
X116.78Y-102.87
X119.317Y-77.474
X119.32Y-102.87
X120.0Y-133.5
X120.0Y-137.0
T3
X46.0Y-46.8
X48.5Y-46.8
X51.0Y-46.8
X58.6Y-46.8
X61.1Y-46.8
X62.0Y-81.0
X62.0Y-83.5
X62.0Y-86.0
X63.6Y-46.8
X75.05Y-134.62
X77.55Y-134.62
X78.7Y-54.2
X78.7Y-70.8
X78.79Y-62.7
X80.05Y-134.62
X81.2Y-54.2
X81.2Y-70.8
X81.29Y-62.7
X82.55Y-134.62
X83.7Y-54.2
X83.7Y-70.8
X83.79Y-62.7
X86.2Y-54.2
X86.2Y-70.8
X86.29Y-62.7
X100.6Y-52.8
X100.6Y-60.9
X100.6Y-69.0
X102.87Y-134.62
X103.1Y-52.8
X103.1Y-60.9
X103.1Y-69.0
X105.37Y-134.62
X105.6Y-52.8
X105.6Y-60.9
X105.6Y-69.0
X107.87Y-134.62
X110.37Y-134.62
X114.8Y-59.2
X114.8Y-69.2
X117.3Y-59.2
X117.3Y-69.2
X119.8Y-59.2
X119.8Y-69.2
X122.3Y-59.2
X122.3Y-69.2
X124.8Y-59.2
X124.8Y-69.2
X127.3Y-59.2
X127.3Y-69.2
T4
X35.64Y-64.0
X35.64Y-104.0
X39.5Y-53.0
X39.5Y-58.0
X53.64Y-64.0
X53.64Y-104.0
X66.6Y-55.56
X66.6Y-60.56
X70.0Y-46.0
X75.0Y-46.0
X131.0Y-121.42
X131.0Y-123.96
X131.0Y-126.5
T5
X50.7Y-58.0
X53.24Y-58.0
X55.78Y-58.0
T6
X59.5Y-111.0
X59.5Y-116.0
T7
X35.56Y-109.4
X35.56Y-114.4
X35.56Y-118.6
X35.56Y-123.6
X46.99Y-109.4
X46.99Y-114.4
X46.99Y-118.6
X46.99Y-123.6
T8
X46.568Y-134.88
X53.68Y-134.456
X65.98Y-127.268
X66.404Y-134.38
M30
