%TF.GenerationSoftware,KiCad,Pcbnew,10.0.2*%
%TF.CreationDate,2026-05-13T20:45:37+02:00*%
%TF.ProjectId,drill_pcb,6472696c-6c5f-4706-9362-2e6b69636164,rev?*%
%TF.SameCoordinates,Original*%
%TF.FileFunction,Copper,L1,Top*%
%TF.FilePolarity,Positive*%
%FSLAX46Y46*%
G04 Gerber Fmt 4.6, Leading zero omitted, Abs format (unit mm)*
G04 Created by KiCad (PCBNEW 10.0.2) date 2026-05-13 20:45:37*
%MOMM*%
%LPD*%
G01*
G04 APERTURE LIST*
G04 Aperture macros list*
%AMRoundRect*
0 Rectangle with rounded corners*
0 $1 Rounding radius*
0 $2 $3 $4 $5 $6 $7 $8 $9 X,Y pos of 4 corners*
0 Add a 4 corners polygon primitive as box body*
4,1,4,$2,$3,$4,$5,$6,$7,$8,$9,$2,$3,0*
0 Add four circle primitives for the rounded corners*
1,1,$1+$1,$2,$3*
1,1,$1+$1,$4,$5*
1,1,$1+$1,$6,$7*
1,1,$1+$1,$8,$9*
0 Add four rect primitives between the rounded corners*
20,1,$1+$1,$2,$3,$4,$5,0*
20,1,$1+$1,$4,$5,$6,$7,0*
20,1,$1+$1,$6,$7,$8,$9,0*
20,1,$1+$1,$8,$9,$2,$3,0*%
G04 Aperture macros list end*
%TA.AperFunction,ComponentPad*%
%ADD10RoundRect,0.250000X-0.600000X-0.725000X0.600000X-0.725000X0.600000X0.725000X-0.600000X0.725000X0*%
%TD*%
%TA.AperFunction,ComponentPad*%
%ADD11O,1.700000X1.950000*%
%TD*%
%TA.AperFunction,ComponentPad*%
%ADD12RoundRect,0.250000X0.600000X0.725000X-0.600000X0.725000X-0.600000X-0.725000X0.600000X-0.725000X0*%
%TD*%
%TA.AperFunction,SMDPad,CuDef*%
%ADD13RoundRect,0.250000X0.625000X-0.312500X0.625000X0.312500X-0.625000X0.312500X-0.625000X-0.312500X0*%
%TD*%
%TA.AperFunction,ComponentPad*%
%ADD14RoundRect,0.250000X-0.550000X0.550000X-0.550000X-0.550000X0.550000X-0.550000X0.550000X0.550000X0*%
%TD*%
%TA.AperFunction,ComponentPad*%
%ADD15C,1.600000*%
%TD*%
%TA.AperFunction,SMDPad,CuDef*%
%ADD16RoundRect,0.250000X0.312500X0.625000X-0.312500X0.625000X-0.312500X-0.625000X0.312500X-0.625000X0*%
%TD*%
%TA.AperFunction,ComponentPad*%
%ADD17RoundRect,0.250000X-0.750000X0.750000X-0.750000X-0.750000X0.750000X-0.750000X0.750000X0.750000X0*%
%TD*%
%TA.AperFunction,ComponentPad*%
%ADD18C,2.000000*%
%TD*%
%TA.AperFunction,ComponentPad*%
%ADD19C,6.451600*%
%TD*%
%TA.AperFunction,ComponentPad*%
%ADD20R,1.600000X1.600000*%
%TD*%
%TA.AperFunction,ComponentPad*%
%ADD21O,1.600000X1.600000*%
%TD*%
%TA.AperFunction,ComponentPad*%
%ADD22RoundRect,0.250001X0.949999X-0.949999X0.949999X0.949999X-0.949999X0.949999X-0.949999X-0.949999X0*%
%TD*%
%TA.AperFunction,ComponentPad*%
%ADD23C,2.400000*%
%TD*%
%TA.AperFunction,ComponentPad*%
%ADD24C,3.800000*%
%TD*%
%TA.AperFunction,SMDPad,CuDef*%
%ADD25RoundRect,0.250000X-0.312500X-0.625000X0.312500X-0.625000X0.312500X0.625000X-0.312500X0.625000X0*%
%TD*%
%TA.AperFunction,SMDPad,CuDef*%
%ADD26RoundRect,0.250000X-0.625000X0.312500X-0.625000X-0.312500X0.625000X-0.312500X0.625000X0.312500X0*%
%TD*%
%TA.AperFunction,ComponentPad*%
%ADD27RoundRect,0.250000X-0.725000X0.600000X-0.725000X-0.600000X0.725000X-0.600000X0.725000X0.600000X0*%
%TD*%
%TA.AperFunction,ComponentPad*%
%ADD28O,1.950000X1.700000*%
%TD*%
%TA.AperFunction,ComponentPad*%
%ADD29R,1.905000X2.000000*%
%TD*%
%TA.AperFunction,ComponentPad*%
%ADD30O,1.905000X2.000000*%
%TD*%
%TA.AperFunction,SMDPad,CuDef*%
%ADD31RoundRect,0.250000X-0.650000X0.412500X-0.650000X-0.412500X0.650000X-0.412500X0.650000X0.412500X0*%
%TD*%
%TA.AperFunction,ComponentPad*%
%ADD32R,1.700000X1.700000*%
%TD*%
%TA.AperFunction,ComponentPad*%
%ADD33C,1.700000*%
%TD*%
%TA.AperFunction,ComponentPad*%
%ADD34RoundRect,0.250000X-0.750000X-0.750000X0.750000X-0.750000X0.750000X0.750000X-0.750000X0.750000X0*%
%TD*%
%TA.AperFunction,SMDPad,CuDef*%
%ADD35RoundRect,0.150000X0.150000X-0.512500X0.150000X0.512500X-0.150000X0.512500X-0.150000X-0.512500X0*%
%TD*%
%TA.AperFunction,ComponentPad*%
%ADD36R,1.200000X2.000000*%
%TD*%
%TA.AperFunction,ComponentPad*%
%ADD37O,1.200000X2.000000*%
%TD*%
%TA.AperFunction,ViaPad*%
%ADD38C,0.600000*%
%TD*%
%TA.AperFunction,Conductor*%
%ADD39C,1.000000*%
%TD*%
%TA.AperFunction,Conductor*%
%ADD40C,2.000000*%
%TD*%
%TA.AperFunction,Conductor*%
%ADD41C,0.400000*%
%TD*%
%TA.AperFunction,Conductor*%
%ADD42C,5.000000*%
%TD*%
%TA.AperFunction,Conductor*%
%ADD43C,0.500000*%
%TD*%
%TA.AperFunction,Conductor*%
%ADD44C,3.000000*%
%TD*%
%TA.AperFunction,Conductor*%
%ADD45C,0.200000*%
%TD*%
%TA.AperFunction,Conductor*%
%ADD46C,4.000000*%
%TD*%
G04 APERTURE END LIST*
D10*
%TO.P,J10,1,Pin_1_1*%
%TO.N,+3.3V*%
X100600000Y-69000000D03*
D11*
%TO.P,J10,2,Pin_2_2*%
%TO.N,LIMIT_SWITCH_BOTTOM*%
X103100000Y-69000000D03*
%TO.P,J10,3,Pin_3_3*%
%TO.N,GND*%
X105600000Y-69000000D03*
%TD*%
D12*
%TO.P,J13,1,Pin_1_1*%
%TO.N,SERVO1_PWM*%
X51000000Y-46800000D03*
D11*
%TO.P,J13,2,Pin_2_2*%
%TO.N,+5V*%
X48500000Y-46800000D03*
%TO.P,J13,3,Pin_3_3*%
%TO.N,GND*%
X46000000Y-46800000D03*
%TD*%
D13*
%TO.P,R6,1*%
%TO.N,+3.3VP*%
X66000000Y-68062500D03*
%TO.P,R6,2*%
%TO.N,GND*%
X66000000Y-65137500D03*
%TD*%
D14*
%TO.P,C12,1*%
%TO.N,+24V*%
X93000000Y-133640000D03*
D15*
%TO.P,C12,2*%
%TO.N,GND*%
X93000000Y-137140000D03*
%TD*%
D16*
%TO.P,R4,1*%
%TO.N,RST*%
X62962500Y-71800000D03*
%TO.P,R4,2*%
%TO.N,Net-(Q3-G)*%
X60037500Y-71800000D03*
%TD*%
D17*
%TO.P,C3,1*%
%TO.N,+3.3V*%
X66600000Y-55560000D03*
D18*
%TO.P,C3,2*%
%TO.N,GND*%
X66600000Y-60560000D03*
%TD*%
D10*
%TO.P,J12,1,Pin_1_1*%
%TO.N,+5V*%
X114800000Y-69200000D03*
D11*
%TO.P,J12,2,Pin_2_2*%
%TO.N,+3.3V*%
X117300000Y-69200000D03*
%TO.P,J12,3,Pin_3_3*%
%TO.N,SCL1*%
X119800000Y-69200000D03*
%TO.P,J12,4,Pin_4_4*%
%TO.N,SDA1*%
X122300000Y-69200000D03*
%TO.P,J12,5,Pin_5_5*%
%TO.N,RST*%
X124800000Y-69200000D03*
%TO.P,J12,6,Pin_6_6*%
%TO.N,GND*%
X127300000Y-69200000D03*
%TD*%
D12*
%TO.P,J3,1,Pin_1_1*%
%TO.N,SDA1*%
X86200000Y-70800000D03*
D11*
%TO.P,J3,2,Pin_2_2*%
%TO.N,+3.3VP*%
X83700000Y-70800000D03*
%TO.P,J3,3,Pin_3_3*%
%TO.N,GND*%
X81200000Y-70800000D03*
%TO.P,J3,4,Pin_4_4*%
%TO.N,SCL1*%
X78700000Y-70800000D03*
%TD*%
D10*
%TO.P,J11,1,Pin_1_1*%
%TO.N,+5V*%
X114800000Y-59200000D03*
D11*
%TO.P,J11,2,Pin_2_2*%
%TO.N,+3.3V*%
X117300000Y-59200000D03*
%TO.P,J11,3,Pin_3_3*%
%TO.N,SCL1*%
X119800000Y-59200000D03*
%TO.P,J11,4,Pin_4_4*%
%TO.N,SDA1*%
X122300000Y-59200000D03*
%TO.P,J11,5,Pin_5_5*%
%TO.N,RST*%
X124800000Y-59200000D03*
%TO.P,J11,6,Pin_6_6*%
%TO.N,GND*%
X127300000Y-59200000D03*
%TD*%
D19*
%TO.P,J1,1,Pin_1_1*%
%TO.N,Net-(J1-Pin_1)*%
X46568000Y-134880000D03*
%TO.P,J1,2,Pin_2_2*%
%TO.N,GND*%
X53680000Y-134455820D03*
%TD*%
D20*
%TO.P,A2,1,EN_1*%
%TO.N,DRVR_STORAGE_ENABLE*%
X91440000Y-114300000D03*
D21*
%TO.P,A2,2,MS1_2*%
%TO.N,unconnected-(A2-MS1-Pad2)*%
X88900000Y-114300000D03*
%TO.P,A2,3,MS2_3*%
%TO.N,unconnected-(A2-MS2-Pad3)*%
X86360000Y-114300000D03*
%TO.P,A2,4,RX_4*%
%TO.N,RX1*%
X83820000Y-114300000D03*
%TO.P,A2,5,TX_5*%
%TO.N,unconnected-(A2-TX-Pad5)*%
X81280000Y-114300000D03*
%TO.P,A2,6,CLK_6*%
%TO.N,unconnected-(A2-CLK-Pad6)*%
X78740000Y-114300000D03*
%TO.P,A2,7,STEP_7*%
%TO.N,DRVR_STORAGE_STEP*%
X76200000Y-114300000D03*
%TO.P,A2,8,DIR_8*%
%TO.N,DRVR_STORAGE_DIR*%
X73660000Y-114300000D03*
%TO.P,A2,9,GND_9*%
%TO.N,GND*%
X73660000Y-127000000D03*
%TO.P,A2,10,VDD_10*%
%TO.N,+3.3V*%
X76200000Y-127000000D03*
%TO.P,A2,11,B2_11*%
%TO.N,Net-(A2-B2)*%
X78740000Y-127000000D03*
%TO.P,A2,12,B1_12*%
%TO.N,Net-(A2-B1)*%
X81280000Y-127000000D03*
%TO.P,A2,13,A1_13*%
%TO.N,Net-(A2-A1)*%
X83820000Y-127000000D03*
%TO.P,A2,14,A2_14*%
%TO.N,Net-(A2-A2)*%
X86360000Y-127000000D03*
%TO.P,A2,15,GND_15*%
%TO.N,GND*%
X88900000Y-127000000D03*
%TO.P,A2,16,VM_16*%
%TO.N,+24V*%
X91440000Y-127000000D03*
%TO.P,A2,17,DIAG0_17*%
%TO.N,unconnected-(A2-DIAG0-Pad17)*%
X91440000Y-116840000D03*
%TO.P,A2,18,DIAG1_18*%
%TO.N,unconnected-(A2-DIAG1-Pad18)*%
X91440000Y-119380000D03*
%TD*%
D12*
%TO.P,J15,1,Pin_1_1*%
%TO.N,Net-(A2-A2)*%
X82550000Y-134620000D03*
D11*
%TO.P,J15,2,Pin_2_2*%
%TO.N,Net-(A2-A1)*%
X80050000Y-134620000D03*
%TO.P,J15,3,Pin_3_3*%
%TO.N,Net-(A2-B1)*%
X77550000Y-134620000D03*
%TO.P,J15,4,Pin_4_4*%
%TO.N,Net-(A2-B2)*%
X75050000Y-134620000D03*
%TD*%
D22*
%TO.P,C6,1*%
%TO.N,+24V*%
X59500000Y-116000000D03*
D23*
%TO.P,C6,2*%
%TO.N,GND*%
X59500000Y-111000000D03*
%TD*%
D24*
%TO.P,F1,1*%
%TO.N,Net-(J1-Pin_1)*%
X46990000Y-123600000D03*
X46990000Y-118600000D03*
%TO.P,F1,2*%
%TO.N,+24V*%
X46990000Y-114400000D03*
X46990000Y-109400000D03*
%TD*%
D14*
%TO.P,C5,1*%
%TO.N,Net-(A1-VM)*%
X120000000Y-133500000D03*
D15*
%TO.P,C5,2*%
%TO.N,GND*%
X120000000Y-137000000D03*
%TD*%
D25*
%TO.P,R1,1*%
%TO.N,RX1*%
X88707500Y-109220000D03*
%TO.P,R1,2*%
%TO.N,Net-(U1-32K_XN{slash}GPIO33{slash}ADC1_CH5)*%
X91632500Y-109220000D03*
%TD*%
D10*
%TO.P,J4,1,Pin_1_1*%
%TO.N,+3.3V*%
X100600000Y-60900000D03*
D11*
%TO.P,J4,2,Pin_2_2*%
%TO.N,LIMIT_SWITCH_TOP*%
X103100000Y-60900000D03*
%TO.P,J4,3,Pin_3_3*%
%TO.N,GND*%
X105600000Y-60900000D03*
%TD*%
D26*
%TO.P,R5,1*%
%TO.N,+3.3V*%
X57600000Y-66437500D03*
%TO.P,R5,2*%
%TO.N,Net-(Q3-G)*%
X57600000Y-69362500D03*
%TD*%
D27*
%TO.P,J2,1,Pin_1_1*%
%TO.N,GND*%
X62000000Y-81000000D03*
D28*
%TO.P,J2,2,Pin_2_2*%
%TO.N,TX0*%
X62000000Y-83500000D03*
%TO.P,J2,3,Pin_3_3*%
%TO.N,RX0*%
X62000000Y-86000000D03*
%TD*%
D29*
%TO.P,U2,1,VI_1*%
%TO.N,+5V*%
X50700000Y-58000000D03*
D30*
%TO.P,U2,2,GND_2*%
%TO.N,GND*%
X53240000Y-58000000D03*
%TO.P,U2,3,VO_3*%
%TO.N,+3.3V*%
X55780000Y-58000000D03*
%TD*%
D12*
%TO.P,J9,1,Pin_1_1*%
%TO.N,SDA1*%
X86290000Y-62700000D03*
D11*
%TO.P,J9,2,Pin_2_2*%
%TO.N,+3.3VP*%
X83790000Y-62700000D03*
%TO.P,J9,3,Pin_3_3*%
%TO.N,GND*%
X81290000Y-62700000D03*
%TO.P,J9,4,Pin_4_4*%
%TO.N,SCL1*%
X78790000Y-62700000D03*
%TD*%
D12*
%TO.P,J6,1,Pin_1_1*%
%TO.N,Net-(A1-A2)*%
X110370000Y-134620000D03*
D11*
%TO.P,J6,2,Pin_2_2*%
%TO.N,Net-(A1-A1)*%
X107870000Y-134620000D03*
%TO.P,J6,3,Pin_3_3*%
%TO.N,Net-(A1-B1)*%
X105370000Y-134620000D03*
%TO.P,J6,4,Pin_4_4*%
%TO.N,Net-(A1-B2)*%
X102870000Y-134620000D03*
%TD*%
D31*
%TO.P,C13,1*%
%TO.N,+3.3VP*%
X66000000Y-70437500D03*
%TO.P,C13,2*%
%TO.N,GND*%
X66000000Y-73562500D03*
%TD*%
D12*
%TO.P,J5,1,Pin_1_1*%
%TO.N,SDA1*%
X86200000Y-54200000D03*
D11*
%TO.P,J5,2,Pin_2_2*%
%TO.N,+3.3VP*%
X83700000Y-54200000D03*
%TO.P,J5,3,Pin_3_3*%
%TO.N,GND*%
X81200000Y-54200000D03*
%TO.P,J5,4,Pin_4_4*%
%TO.N,SCL1*%
X78700000Y-54200000D03*
%TD*%
D32*
%TO.P,J16,1,Pin_1_1*%
%TO.N,GND*%
X131000000Y-126500000D03*
D33*
%TO.P,J16,2,Pin_2_2*%
%TO.N,SDA1*%
X131000000Y-123960000D03*
%TO.P,J16,3,Pin_3_3*%
%TO.N,SCL1*%
X131000000Y-121420000D03*
%TD*%
D18*
%TO.P,V1,1,+Vin_1*%
%TO.N,Net-(V1-+Vin)*%
X35640000Y-104000000D03*
%TO.P,V1,2,-Vin_2*%
%TO.N,GND*%
X53640000Y-104000000D03*
%TO.P,V1,4,-Vout_4*%
X53640000Y-64000000D03*
%TO.P,V1,6,+Vout_6*%
%TO.N,+5V*%
X35640000Y-64000000D03*
%TD*%
D20*
%TO.P,A1,1,EN_1*%
%TO.N,DRVR_VERT_ENABLE*%
X115570000Y-114300000D03*
D21*
%TO.P,A1,2,MOSI_2*%
%TO.N,VSPI_MOSI*%
X113030000Y-114300000D03*
%TO.P,A1,3,SCK_3*%
%TO.N,VSPI_SCK*%
X110490000Y-114300000D03*
%TO.P,A1,4,CS_4*%
%TO.N,VSPI_CS1*%
X107950000Y-114300000D03*
%TO.P,A1,5,MISO_5*%
%TO.N,VSPI_MISO*%
X105410000Y-114300000D03*
%TO.P,A1,6,CLK_6*%
%TO.N,unconnected-(A1-CLK-Pad6)*%
X102870000Y-114300000D03*
%TO.P,A1,7,STEP_7*%
%TO.N,DRVR_VERT_STEP*%
X100330000Y-114300000D03*
%TO.P,A1,8,DIR_8*%
%TO.N,DRVR_VERT_DIR*%
X97790000Y-114300000D03*
%TO.P,A1,9,GND_9*%
%TO.N,GND*%
X97790000Y-127000000D03*
%TO.P,A1,10,VDD_10*%
%TO.N,+3.3V*%
X100330000Y-127000000D03*
%TO.P,A1,11,B2_11*%
%TO.N,Net-(A1-B2)*%
X102870000Y-127000000D03*
%TO.P,A1,12,B1_12*%
%TO.N,Net-(A1-B1)*%
X105410000Y-127000000D03*
%TO.P,A1,13,A1_13*%
%TO.N,Net-(A1-A1)*%
X107950000Y-127000000D03*
%TO.P,A1,14,A2_14*%
%TO.N,Net-(A1-A2)*%
X110490000Y-127000000D03*
%TO.P,A1,15,GND_15*%
%TO.N,GND*%
X113030000Y-127000000D03*
%TO.P,A1,16,VM_16*%
%TO.N,Net-(A1-VM)*%
X115570000Y-127000000D03*
%TO.P,A1,17,DIAG0_17*%
%TO.N,DRVR_VERT_DIAG0*%
X115570000Y-116840000D03*
%TO.P,A1,18,DIAG1_18*%
%TO.N,DRVR_VERT_DIAG1*%
X115570000Y-119380000D03*
%TD*%
D17*
%TO.P,C1,1*%
%TO.N,+5V*%
X39500000Y-53000000D03*
D18*
%TO.P,C1,2*%
%TO.N,GND*%
X39500000Y-58000000D03*
%TD*%
D12*
%TO.P,J14,1,Pin_1_1*%
%TO.N,SERVO2_PWM*%
X63600000Y-46800000D03*
D11*
%TO.P,J14,2,Pin_2_2*%
%TO.N,+5V*%
X61100000Y-46800000D03*
%TO.P,J14,3,Pin_3_3*%
%TO.N,GND*%
X58600000Y-46800000D03*
%TD*%
D19*
%TO.P,J7,1,Pin_1_1*%
%TO.N,+24V*%
X65980000Y-127268000D03*
%TO.P,J7,2,Pin_2_2*%
%TO.N,GND*%
X66404180Y-134380000D03*
%TD*%
D12*
%TO.P,J8,1,Pin_1_1*%
%TO.N,GND*%
X105600000Y-52800000D03*
D11*
%TO.P,J8,2,Pin_2_2*%
%TO.N,TX2*%
X103100000Y-52800000D03*
%TO.P,J8,3,Pin_3_3*%
%TO.N,RX2*%
X100600000Y-52800000D03*
%TD*%
D34*
%TO.P,C11,1*%
%TO.N,+5V*%
X70000000Y-46000000D03*
D18*
%TO.P,C11,2*%
%TO.N,GND*%
X75000000Y-46000000D03*
%TD*%
D35*
%TO.P,Q3,1,G_1*%
%TO.N,Net-(Q3-G)*%
X60550000Y-68937500D03*
%TO.P,Q3,2,S_2*%
%TO.N,+3.3VP*%
X62450000Y-68937500D03*
%TO.P,Q3,3,D_3*%
%TO.N,+3.3V*%
X61500000Y-66662500D03*
%TD*%
D24*
%TO.P,F2,1*%
%TO.N,Net-(J1-Pin_1)*%
X35560000Y-123600000D03*
X35560000Y-118600000D03*
%TO.P,F2,2*%
%TO.N,Net-(V1-+Vin)*%
X35560000Y-114400000D03*
X35560000Y-109400000D03*
%TD*%
D36*
%TO.P,U1,1,3V3_1*%
%TO.N,+3.3V*%
X73600000Y-102870000D03*
D37*
%TO.P,U1,2,CHIP_PU_2*%
%TO.N,unconnected-(U1-CHIP_PU-Pad2)*%
X76140000Y-102870000D03*
%TO.P,U1,3,SENSOR_VP/GPIO36/ADC1_CH0_3*%
%TO.N,DRVR_VERT_DIAG1*%
X78680000Y-102870000D03*
%TO.P,U1,4,SENSOR_VN/GPIO39/ADC1_CH3_4*%
%TO.N,DRVR_VERT_DIAG0*%
X81220000Y-102870000D03*
%TO.P,U1,5,VDET_1/GPIO34/ADC1_CH6_5*%
%TO.N,LIMIT_SWITCH_BOTTOM*%
X83760000Y-102870000D03*
%TO.P,U1,6,VDET_2/GPIO35/ADC1_CH7_6*%
%TO.N,LIMIT_SWITCH_TOP*%
X86300000Y-102870000D03*
%TO.P,U1,7,32K_XP/GPIO32/ADC1_CH4_7*%
%TO.N,RX1*%
X88840000Y-102870000D03*
%TO.P,U1,8,32K_XN/GPIO33/ADC1_CH5_8*%
%TO.N,Net-(U1-32K_XN{slash}GPIO33{slash}ADC1_CH5)*%
X91380000Y-102870000D03*
%TO.P,U1,9,DAC_1/ADC2_CH8/GPIO25_9*%
%TO.N,DRVR_STORAGE_DIR*%
X93920000Y-102870000D03*
%TO.P,U1,10,DAC_2/ADC2_CH9/GPIO26_10*%
%TO.N,DRVR_STORAGE_STEP*%
X96460000Y-102870000D03*
%TO.P,U1,11,ADC2_CH7/GPIO27_11*%
%TO.N,DRVR_STORAGE_ENABLE*%
X99000000Y-102870000D03*
%TO.P,U1,12,MTMS/GPIO14/ADC2_CH6_12*%
%TO.N,DRVR_VERT_ENABLE*%
X101540000Y-102870000D03*
%TO.P,U1,13,MTDI/GPIO12/ADC2_CH5_13*%
%TO.N,DRVR_VERT_DIR*%
X104080000Y-102870000D03*
%TO.P,U1,14,GND_14*%
%TO.N,GND*%
X106620000Y-102870000D03*
%TO.P,U1,15,MTCK/GPIO13/ADC2_CH4_15*%
%TO.N,DRVR_VERT_STEP*%
X109160000Y-102870000D03*
%TO.P,U1,16,SD_DATA2/GPIO9_16*%
%TO.N,unconnected-(U1-SD_DATA2{slash}GPIO9-Pad16)*%
X111700000Y-102870000D03*
%TO.P,U1,17,SD_DATA3/GPIO10_17*%
%TO.N,unconnected-(U1-SD_DATA3{slash}GPIO10-Pad17)*%
X114240000Y-102870000D03*
%TO.P,U1,18,CMD_18*%
%TO.N,unconnected-(U1-CMD-Pad18)*%
X116780000Y-102870000D03*
%TO.P,U1,19,5V_19*%
%TO.N,unconnected-(U1-5V-Pad19)*%
X119320000Y-102870000D03*
%TO.P,U1,20,SD_CLK/GPIO6_20*%
%TO.N,unconnected-(U1-SD_CLK{slash}GPIO6-Pad20)*%
X119317280Y-77473680D03*
%TO.P,U1,21,SD_DATA0/GPIO7_21*%
%TO.N,unconnected-(U1-SD_DATA0{slash}GPIO7-Pad21)*%
X116777280Y-77473680D03*
%TO.P,U1,22,SD_DATA1/GPIO8_22*%
%TO.N,unconnected-(U1-SD_DATA1{slash}GPIO8-Pad22)*%
X114240000Y-77470000D03*
%TO.P,U1,23,MTDO/GPIO15/ADC2_CH3_23*%
%TO.N,SERVO2_PWM*%
X111700000Y-77470000D03*
%TO.P,U1,24,ADC2_CH2/GPIO2_24*%
%TO.N,RST*%
X109160000Y-77470000D03*
%TO.P,U1,25,GPIO0/BOOT/ADC2_CH1_25*%
%TO.N,unconnected-(U1-GPIO0{slash}BOOT{slash}ADC2_CH1-Pad25)*%
X106620000Y-77470000D03*
%TO.P,U1,26,ADC2_CH0/GPIO4_26*%
%TO.N,SERVO1_PWM*%
X104080000Y-77470000D03*
%TO.P,U1,27,GPIO16_27*%
%TO.N,RX2*%
X101540000Y-77470000D03*
%TO.P,U1,28,GPIO17_28*%
%TO.N,TX2*%
X99000000Y-77470000D03*
%TO.P,U1,29,GPIO5_29*%
%TO.N,VSPI_CS1*%
X96460000Y-77470000D03*
%TO.P,U1,30,GPIO18_30*%
%TO.N,VSPI_SCK*%
X93920000Y-77470000D03*
%TO.P,U1,31,GPIO19_31*%
%TO.N,VSPI_MISO*%
X91380000Y-77470000D03*
%TO.P,U1,32,GND_32*%
%TO.N,GND*%
X88840000Y-77470000D03*
%TO.P,U1,33,GPIO21_33*%
%TO.N,SDA1*%
X86300000Y-77470000D03*
%TO.P,U1,34,U0RXD/GPIO3_34*%
%TO.N,RX0*%
X83760000Y-77470000D03*
%TO.P,U1,35,U0TXD/GPIO1_35*%
%TO.N,TX0*%
X81220000Y-77470000D03*
%TO.P,U1,36,GPIO22_36*%
%TO.N,SCL1*%
X78680000Y-77470000D03*
%TO.P,U1,37,GPIO23_37*%
%TO.N,VSPI_MOSI*%
X76140000Y-77470000D03*
%TO.P,U1,38,GND_38*%
%TO.N,GND*%
X73600000Y-77470000D03*
%TD*%
D38*
%TO.N,+3.3V*%
X73025000Y-49225000D03*
%TO.N,LIMIT_SWITCH_BOTTOM*%
X99900000Y-83900000D03*
%TO.N,GND*%
X120000000Y-45500000D03*
X131000000Y-94000000D03*
X112000000Y-88500000D03*
%TO.N,+3.3VP*%
X67500000Y-67000000D03*
%TO.N,RST*%
X63000000Y-73400000D03*
%TO.N,SCL1*%
X123000000Y-120500000D03*
%TO.N,SDA1*%
X121800000Y-118000000D03*
%TO.N,LIMIT_SWITCH_TOP*%
X103600000Y-84000000D03*
%TD*%
%TO.N,+3.3V*%
D39*
X116500000Y-61000000D02*
X117300000Y-60200000D01*
X110500000Y-61000000D02*
X116500000Y-61000000D01*
D40*
X73660000Y-100330000D02*
X73600000Y-100390000D01*
D39*
X108725000Y-59225000D02*
X110500000Y-61000000D01*
D40*
X71500000Y-88010000D02*
X73660000Y-90170000D01*
X55780000Y-58000000D02*
X55817500Y-58037500D01*
D39*
X117300000Y-60200000D02*
X117300000Y-59200000D01*
X61500000Y-58137500D02*
X61400000Y-58037500D01*
D40*
X71500000Y-60500000D02*
X71500000Y-88010000D01*
D39*
X109300000Y-49225000D02*
X117300000Y-57225000D01*
X57600000Y-66437500D02*
X59000000Y-66437500D01*
D40*
X64122500Y-58037500D02*
X66600000Y-55560000D01*
D39*
X100600000Y-60900000D02*
X100660000Y-60900000D01*
D40*
X66600000Y-55560000D02*
X66600000Y-55600000D01*
D39*
X61500000Y-66662500D02*
X61500000Y-58137500D01*
X117300000Y-57225000D02*
X117300000Y-59200000D01*
X73025000Y-49225000D02*
X109300000Y-49225000D01*
D40*
X61400000Y-58037500D02*
X64122500Y-58037500D01*
D39*
X57600000Y-66437500D02*
X57637500Y-66400000D01*
D40*
X73600000Y-100390000D02*
X73600000Y-102870000D01*
D39*
X61500000Y-66662500D02*
X61275000Y-66437500D01*
D40*
X73660000Y-90170000D02*
X73660000Y-100330000D01*
D39*
X100600000Y-60900000D02*
X102275000Y-59225000D01*
X100600000Y-69000000D02*
X100600000Y-60900000D01*
X61275000Y-66437500D02*
X59000000Y-66437500D01*
D40*
X55817500Y-58037500D02*
X61400000Y-58037500D01*
D39*
X102275000Y-59225000D02*
X108725000Y-59225000D01*
D40*
X66600000Y-55600000D02*
X71500000Y-60500000D01*
%TO.N,LIMIT_SWITCH_BOTTOM*%
D41*
X102600000Y-81200000D02*
X102600000Y-69500000D01*
X102600000Y-69500000D02*
X103100000Y-69000000D01*
X99900000Y-83900000D02*
X102600000Y-81200000D01*
%TO.N,GND*%
D42*
X66404180Y-134380000D02*
X67380000Y-134380000D01*
%TO.N,+5V*%
D40*
X35640000Y-64000000D02*
X35600000Y-63960000D01*
X39500000Y-53000000D02*
X48500000Y-53000000D01*
D39*
X106025000Y-50425000D02*
X77175000Y-50425000D01*
X48500000Y-46624570D02*
X48500000Y-46800000D01*
X77175000Y-50425000D02*
X74200000Y-53400000D01*
X61100000Y-45225000D02*
X61000000Y-45125000D01*
D40*
X35600000Y-56900000D02*
X39500000Y-53000000D01*
D39*
X49999570Y-45125000D02*
X48500000Y-46624570D01*
X61100000Y-46800000D02*
X61100000Y-53000000D01*
X61100000Y-46800000D02*
X61100000Y-45225000D01*
D40*
X35600000Y-63960000D02*
X35600000Y-56900000D01*
D39*
X69125000Y-45125000D02*
X61000000Y-45125000D01*
X61500000Y-53400000D02*
X51100000Y-53400000D01*
X51100000Y-53400000D02*
X50700000Y-53000000D01*
D40*
X48500000Y-53000000D02*
X50700000Y-53000000D01*
D39*
X74200000Y-53400000D02*
X61500000Y-53400000D01*
X61000000Y-45125000D02*
X49999570Y-45125000D01*
X114800000Y-59200000D02*
X106025000Y-50425000D01*
X61100000Y-53000000D02*
X61500000Y-53400000D01*
X48500000Y-46800000D02*
X48500000Y-53000000D01*
X70000000Y-46000000D02*
X69125000Y-45125000D01*
D40*
X50700000Y-53000000D02*
X50700000Y-58000000D01*
%TO.N,+3.3VP*%
D43*
X67500000Y-67000000D02*
X66437500Y-68062500D01*
D39*
X62450000Y-68937500D02*
X65900000Y-68937500D01*
X65900000Y-68937500D02*
X66000000Y-69037500D01*
X66000000Y-68062500D02*
X66000000Y-69037500D01*
D43*
X66437500Y-68062500D02*
X66000000Y-68062500D01*
D39*
X66000000Y-69037500D02*
X66000000Y-70437500D01*
%TO.N,+24V*%
D44*
X46990000Y-114400000D02*
X46990000Y-109400000D01*
D42*
X65980000Y-122480000D02*
X59500000Y-116000000D01*
D45*
X47000000Y-114410000D02*
X46990000Y-114400000D01*
D42*
X65980000Y-127268000D02*
X65980000Y-122480000D01*
D46*
X59500000Y-116000000D02*
X58320000Y-116000000D01*
X56730000Y-114410000D02*
X47000000Y-114410000D01*
X58320000Y-116000000D02*
X56730000Y-114410000D01*
%TO.N,RST*%
D43*
X63000000Y-73400000D02*
X63000000Y-71837500D01*
X63000000Y-71837500D02*
X62962500Y-71800000D01*
D41*
X113030000Y-73600000D02*
X109160000Y-77470000D01*
X120400000Y-73600000D02*
X113030000Y-73600000D01*
X124800000Y-69200000D02*
X120400000Y-73600000D01*
%TO.N,Net-(Q3-G)*%
D39*
X60037500Y-69450000D02*
X60087500Y-69400000D01*
X60037500Y-71800000D02*
X60037500Y-69450000D01*
X57600000Y-69362500D02*
X57637500Y-69400000D01*
X60087500Y-69400000D02*
X60550000Y-68937500D01*
X57637500Y-69400000D02*
X60087500Y-69400000D01*
%TO.N,SCL1*%
X78610000Y-71895000D02*
X78730000Y-71775000D01*
X78730000Y-71775000D02*
X78730000Y-71675000D01*
X78730000Y-71675000D02*
X78730000Y-53895000D01*
D41*
X118800000Y-99600000D02*
X100910000Y-99600000D01*
D43*
X130080000Y-120500000D02*
X123000000Y-120500000D01*
D39*
X78730000Y-71675000D02*
X78730000Y-77420000D01*
D41*
X121000000Y-101800000D02*
X118800000Y-99600000D01*
X123000000Y-120500000D02*
X121000000Y-118500000D01*
D45*
X78730000Y-77420000D02*
X78680000Y-77470000D01*
D41*
X121000000Y-118500000D02*
X121000000Y-101800000D01*
X100910000Y-99600000D02*
X78730000Y-77420000D01*
D43*
X131000000Y-121420000D02*
X130080000Y-120500000D01*
%TO.N,SDA1*%
D41*
X121800000Y-118000000D02*
X121800000Y-100600000D01*
D39*
X86230000Y-71675000D02*
X86230000Y-77400000D01*
D41*
X103430000Y-94600000D02*
X86300000Y-77470000D01*
D39*
X86230000Y-71675000D02*
X86230000Y-53895000D01*
D43*
X130500000Y-118000000D02*
X133000000Y-120500000D01*
X133000000Y-120500000D02*
X133000000Y-122500000D01*
X121800000Y-118000000D02*
X130500000Y-118000000D01*
D41*
X121800000Y-100600000D02*
X115800000Y-94600000D01*
D43*
X131540000Y-123960000D02*
X131000000Y-123960000D01*
D41*
X115800000Y-94600000D02*
X103430000Y-94600000D01*
D43*
X133000000Y-122500000D02*
X131540000Y-123960000D01*
D45*
X86230000Y-77400000D02*
X86300000Y-77470000D01*
%TO.N,Net-(J1-Pin_1)*%
D44*
X46990000Y-118600000D02*
X46990000Y-123600000D01*
D42*
X46568000Y-124022000D02*
X46990000Y-123600000D01*
X46568000Y-134880000D02*
X46568000Y-124022000D01*
X46568000Y-134880000D02*
X45570000Y-134880000D01*
D44*
X35560000Y-118600000D02*
X35560000Y-123600000D01*
D42*
X46990000Y-134458000D02*
X46568000Y-134880000D01*
X46568000Y-134880000D02*
X35560000Y-123872000D01*
%TO.N,DRVR_STORAGE_ENABLE*%
D41*
X99000000Y-104200000D02*
X99000000Y-102870000D01*
X91440000Y-114300000D02*
X91440000Y-111760000D01*
X91440000Y-111760000D02*
X99000000Y-104200000D01*
%TO.N,RX1*%
X88840000Y-102870000D02*
X88840000Y-109087500D01*
X88840000Y-109087500D02*
X88707500Y-109220000D01*
X88707500Y-109412500D02*
X88707500Y-109220000D01*
X83820000Y-114300000D02*
X88707500Y-109412500D01*
%TO.N,Net-(A2-B2)*%
D40*
X75000000Y-131329842D02*
X78680000Y-127649842D01*
X78680000Y-127060000D02*
X78740000Y-127000000D01*
X78680000Y-127649842D02*
X78680000Y-127060000D01*
X75050000Y-134620000D02*
X75000000Y-134570000D01*
X75000000Y-134570000D02*
X75000000Y-131329842D01*
%TO.N,Net-(A2-B1)*%
X77500000Y-134570000D02*
X77500000Y-131942526D01*
X77500000Y-131942526D02*
X81280000Y-128162526D01*
X81280000Y-128162526D02*
X81280000Y-127000000D01*
X81280000Y-127300000D02*
X81280000Y-127000000D01*
X81220000Y-127060000D02*
X81280000Y-127000000D01*
X77550000Y-134620000D02*
X77500000Y-134570000D01*
%TO.N,Net-(A2-A1)*%
X83760000Y-129240000D02*
X83760000Y-127060000D01*
X83760000Y-127060000D02*
X83820000Y-127000000D01*
X80000000Y-134570000D02*
X80000000Y-133000000D01*
X80050000Y-134620000D02*
X80000000Y-134570000D01*
X80000000Y-133000000D02*
X83760000Y-129240000D01*
%TO.N,Net-(A2-A2)*%
X86300000Y-130870000D02*
X86300000Y-127060000D01*
X82550000Y-134620000D02*
X86300000Y-130870000D01*
X86300000Y-127060000D02*
X86360000Y-127000000D01*
%TO.N,Net-(A1-VM)*%
X115570000Y-127000000D02*
X115570000Y-129070000D01*
X115570000Y-129070000D02*
X120000000Y-133500000D01*
%TO.N,Net-(U1-32K_XN{slash}GPIO33{slash}ADC1_CH5)*%
D41*
X91380000Y-108967500D02*
X91632500Y-109220000D01*
X91380000Y-102870000D02*
X91380000Y-108967500D01*
%TO.N,LIMIT_SWITCH_TOP*%
X106900000Y-64700000D02*
X103100000Y-60900000D01*
X105130000Y-76635076D02*
X106900000Y-74865076D01*
X103600000Y-84000000D02*
X105130000Y-82470000D01*
X105130000Y-82470000D02*
X105130000Y-76635076D01*
X106900000Y-74865076D02*
X106900000Y-64700000D01*
%TO.N,Net-(A1-A2)*%
D40*
X110490000Y-127000000D02*
X110490000Y-134500000D01*
X110490000Y-134500000D02*
X110370000Y-134620000D01*
%TO.N,Net-(A1-A1)*%
X107870000Y-127080000D02*
X107950000Y-127000000D01*
X107870000Y-134620000D02*
X107870000Y-127080000D01*
%TO.N,Net-(A1-B1)*%
X105410000Y-127000000D02*
X105410000Y-134580000D01*
X105410000Y-134580000D02*
X105370000Y-134620000D01*
%TO.N,Net-(A1-B2)*%
X102870000Y-134620000D02*
X102870000Y-127000000D01*
%TO.N,Net-(V1-+Vin)*%
D44*
X35560000Y-114400000D02*
X35560000Y-109400000D01*
D42*
X35560000Y-109400000D02*
X35560000Y-104080000D01*
X35560000Y-104080000D02*
X35640000Y-104000000D01*
%TO.N,DRVR_VERT_ENABLE*%
D41*
X97400000Y-116000000D02*
X113870000Y-116000000D01*
X96200000Y-113600000D02*
X96200000Y-114800000D01*
X101540000Y-102870000D02*
X101540000Y-108260000D01*
X113870000Y-116000000D02*
X115570000Y-114300000D01*
X96200000Y-114800000D02*
X97400000Y-116000000D01*
X101540000Y-108260000D02*
X96200000Y-113600000D01*
%TO.N,VSPI_MOSI*%
X99300000Y-100800000D02*
X76140000Y-77640000D01*
X110210000Y-111480000D02*
X110210000Y-102035076D01*
X76140000Y-77640000D02*
X76140000Y-77470000D01*
X110210000Y-102035076D02*
X108974924Y-100800000D01*
X108974924Y-100800000D02*
X99300000Y-100800000D01*
X113030000Y-114300000D02*
X110210000Y-111480000D01*
%TO.N,DRVR_VERT_STEP*%
X109160000Y-104199998D02*
X100330000Y-113029998D01*
X109160000Y-102870000D02*
X109160000Y-104199998D01*
X100330000Y-113029998D02*
X100330000Y-114300000D01*
%TO.N,DRVR_VERT_DIR*%
X104080000Y-102870000D02*
X104000000Y-102950000D01*
X97790000Y-114210000D02*
X97790000Y-114300000D01*
X104000000Y-108000000D02*
X97790000Y-114210000D01*
X104000000Y-102950000D02*
X104000000Y-108000000D01*
%TO.N,DRVR_VERT_DIAG0*%
X113800000Y-116800000D02*
X109800000Y-120800000D01*
X72000000Y-113000000D02*
X81220000Y-103780000D01*
X115570000Y-116840000D02*
X115530000Y-116800000D01*
X81220000Y-103780000D02*
X81220000Y-102870000D01*
X76800000Y-120800000D02*
X72000000Y-116000000D01*
X109800000Y-120800000D02*
X76800000Y-120800000D01*
X115530000Y-116800000D02*
X113800000Y-116800000D01*
X72000000Y-116000000D02*
X72000000Y-113000000D01*
%TO.N,DRVR_VERT_DIAG1*%
X115570000Y-119380000D02*
X115500000Y-119380000D01*
X76200000Y-121600000D02*
X71200000Y-116600000D01*
X71200000Y-110400000D02*
X78680000Y-102920000D01*
X71200000Y-116600000D02*
X71200000Y-110400000D01*
X113280000Y-121600000D02*
X76200000Y-121600000D01*
X78680000Y-102920000D02*
X78680000Y-102870000D01*
X115500000Y-119380000D02*
X113280000Y-121600000D01*
%TO.N,TX2*%
D43*
X101675000Y-51375000D02*
X103100000Y-52800000D01*
X98400000Y-53036522D02*
X100061522Y-51375000D01*
X100061522Y-51375000D02*
X101675000Y-51375000D01*
X98400000Y-76870000D02*
X98400000Y-53036522D01*
X99000000Y-77470000D02*
X98400000Y-76870000D01*
%TO.N,RX2*%
X99300000Y-54100000D02*
X100600000Y-52800000D01*
X99300000Y-75230000D02*
X99300000Y-54100000D01*
X101540000Y-77470000D02*
X99300000Y-75230000D01*
%TO.N,unconnected-(U1-GPIO0{slash}BOOT{slash}ADC2_CH1-Pad25)*%
D39*
X106660000Y-77430000D02*
X106620000Y-77470000D01*
%TD*%
%TA.AperFunction,Conductor*%
%TO.N,GND*%
G36*
X106870000Y-104344115D02*
G01*
X106877582Y-104342914D01*
X107040711Y-104289910D01*
X107110553Y-104287915D01*
X107170386Y-104323995D01*
X107201214Y-104386696D01*
X107193250Y-104456110D01*
X107166711Y-104495522D01*
X105412181Y-106250053D01*
X105350858Y-106283538D01*
X105281166Y-106278554D01*
X105225233Y-106236682D01*
X105200816Y-106171218D01*
X105200500Y-106162372D01*
X105200500Y-104464311D01*
X105220185Y-104397272D01*
X105236819Y-104376630D01*
X105262319Y-104351130D01*
X105300793Y-104312656D01*
X105448870Y-104108845D01*
X105530511Y-103948614D01*
X105578485Y-103897819D01*
X105646306Y-103881024D01*
X105712441Y-103903561D01*
X105741315Y-103932025D01*
X105780967Y-103986602D01*
X105903397Y-104109032D01*
X106043475Y-104210804D01*
X106197744Y-104289408D01*
X106362415Y-104342914D01*
X106362414Y-104342914D01*
X106369999Y-104344115D01*
X106370000Y-104344114D01*
X106370000Y-103185686D01*
X106374394Y-103190080D01*
X106465606Y-103242741D01*
X106567339Y-103270000D01*
X106672661Y-103270000D01*
X106774394Y-103242741D01*
X106865606Y-103190080D01*
X106870000Y-103185686D01*
X106870000Y-104344115D01*
G37*
%TD.AperFunction*%
%TA.AperFunction,Conductor*%
G36*
X73850000Y-78944115D02*
G01*
X73857584Y-78942914D01*
X74022255Y-78889408D01*
X74176524Y-78810804D01*
X74316602Y-78709032D01*
X74439034Y-78586600D01*
X74478683Y-78532026D01*
X74534012Y-78489359D01*
X74603625Y-78483378D01*
X74665421Y-78515982D01*
X74689488Y-78548614D01*
X74771132Y-78708848D01*
X74919201Y-78912649D01*
X74919205Y-78912654D01*
X75097345Y-79090794D01*
X75097350Y-79090798D01*
X75222452Y-79181689D01*
X75301155Y-79238870D01*
X75444184Y-79311747D01*
X75525616Y-79353239D01*
X75525618Y-79353239D01*
X75525621Y-79353241D01*
X75765215Y-79431090D01*
X76014038Y-79470500D01*
X76014039Y-79470500D01*
X76221374Y-79470500D01*
X76288413Y-79490185D01*
X76309055Y-79506819D01*
X97916712Y-101114476D01*
X97921049Y-101122420D01*
X97928298Y-101127846D01*
X97937534Y-101152608D01*
X97950197Y-101175799D01*
X97949551Y-101184827D01*
X97952715Y-101193310D01*
X97947098Y-101219129D01*
X97945213Y-101245491D01*
X97939393Y-101254545D01*
X97937863Y-101261583D01*
X97916713Y-101289838D01*
X97817679Y-101388871D01*
X97756359Y-101422355D01*
X97686667Y-101417371D01*
X97642319Y-101388870D01*
X97502654Y-101249205D01*
X97502649Y-101249201D01*
X97298848Y-101101132D01*
X97298847Y-101101131D01*
X97298845Y-101101130D01*
X97217883Y-101059878D01*
X97074383Y-100986760D01*
X96834785Y-100908910D01*
X96812119Y-100905320D01*
X96585962Y-100869500D01*
X96334038Y-100869500D01*
X96272208Y-100879293D01*
X96085214Y-100908910D01*
X95845616Y-100986760D01*
X95621151Y-101101132D01*
X95417350Y-101249201D01*
X95417345Y-101249205D01*
X95277681Y-101388870D01*
X95216358Y-101422355D01*
X95146666Y-101417371D01*
X95102319Y-101388870D01*
X94962654Y-101249205D01*
X94962649Y-101249201D01*
X94758848Y-101101132D01*
X94758847Y-101101131D01*
X94758845Y-101101130D01*
X94677883Y-101059878D01*
X94534383Y-100986760D01*
X94294785Y-100908910D01*
X94272119Y-100905320D01*
X94045962Y-100869500D01*
X93794038Y-100869500D01*
X93732208Y-100879293D01*
X93545214Y-100908910D01*
X93305616Y-100986760D01*
X93081151Y-101101132D01*
X92877350Y-101249201D01*
X92877345Y-101249205D01*
X92737681Y-101388870D01*
X92676358Y-101422355D01*
X92606666Y-101417371D01*
X92562319Y-101388870D01*
X92422654Y-101249205D01*
X92422649Y-101249201D01*
X92218848Y-101101132D01*
X92218847Y-101101131D01*
X92218845Y-101101130D01*
X92137883Y-101059878D01*
X91994383Y-100986760D01*
X91754785Y-100908910D01*
X91732119Y-100905320D01*
X91505962Y-100869500D01*
X91254038Y-100869500D01*
X91192208Y-100879293D01*
X91005214Y-100908910D01*
X90765616Y-100986760D01*
X90541151Y-101101132D01*
X90337350Y-101249201D01*
X90337345Y-101249205D01*
X90197681Y-101388870D01*
X90136358Y-101422355D01*
X90066666Y-101417371D01*
X90022319Y-101388870D01*
X89882654Y-101249205D01*
X89882649Y-101249201D01*
X89678848Y-101101132D01*
X89678847Y-101101131D01*
X89678845Y-101101130D01*
X89597883Y-101059878D01*
X89454383Y-100986760D01*
X89214785Y-100908910D01*
X89192119Y-100905320D01*
X88965962Y-100869500D01*
X88714038Y-100869500D01*
X88652208Y-100879293D01*
X88465214Y-100908910D01*
X88225616Y-100986760D01*
X88001151Y-101101132D01*
X87797350Y-101249201D01*
X87797345Y-101249205D01*
X87657681Y-101388870D01*
X87596358Y-101422355D01*
X87526666Y-101417371D01*
X87482319Y-101388870D01*
X87342654Y-101249205D01*
X87342649Y-101249201D01*
X87138848Y-101101132D01*
X87138847Y-101101131D01*
X87138845Y-101101130D01*
X87057883Y-101059878D01*
X86914383Y-100986760D01*
X86674785Y-100908910D01*
X86652119Y-100905320D01*
X86425962Y-100869500D01*
X86174038Y-100869500D01*
X86112208Y-100879293D01*
X85925214Y-100908910D01*
X85685616Y-100986760D01*
X85461151Y-101101132D01*
X85257350Y-101249201D01*
X85257345Y-101249205D01*
X85117681Y-101388870D01*
X85056358Y-101422355D01*
X84986666Y-101417371D01*
X84942319Y-101388870D01*
X84802654Y-101249205D01*
X84802649Y-101249201D01*
X84598848Y-101101132D01*
X84598847Y-101101131D01*
X84598845Y-101101130D01*
X84517883Y-101059878D01*
X84374383Y-100986760D01*
X84134785Y-100908910D01*
X84112119Y-100905320D01*
X83885962Y-100869500D01*
X83634038Y-100869500D01*
X83572208Y-100879293D01*
X83385214Y-100908910D01*
X83145616Y-100986760D01*
X82921151Y-101101132D01*
X82717350Y-101249201D01*
X82717345Y-101249205D01*
X82577681Y-101388870D01*
X82516358Y-101422355D01*
X82446666Y-101417371D01*
X82402319Y-101388870D01*
X82262654Y-101249205D01*
X82262649Y-101249201D01*
X82058848Y-101101132D01*
X82058847Y-101101131D01*
X82058845Y-101101130D01*
X81977883Y-101059878D01*
X81834383Y-100986760D01*
X81594785Y-100908910D01*
X81572119Y-100905320D01*
X81345962Y-100869500D01*
X81094038Y-100869500D01*
X81032208Y-100879293D01*
X80845214Y-100908910D01*
X80605616Y-100986760D01*
X80381151Y-101101132D01*
X80177350Y-101249201D01*
X80177345Y-101249205D01*
X80037681Y-101388870D01*
X79976358Y-101422355D01*
X79906666Y-101417371D01*
X79862319Y-101388870D01*
X79722654Y-101249205D01*
X79722649Y-101249201D01*
X79518848Y-101101132D01*
X79518847Y-101101131D01*
X79518845Y-101101130D01*
X79437883Y-101059878D01*
X79294383Y-100986760D01*
X79054785Y-100908910D01*
X79032119Y-100905320D01*
X78805962Y-100869500D01*
X78554038Y-100869500D01*
X78492208Y-100879293D01*
X78305214Y-100908910D01*
X78065616Y-100986760D01*
X77841151Y-101101132D01*
X77637350Y-101249201D01*
X77637345Y-101249205D01*
X77497681Y-101388870D01*
X77436358Y-101422355D01*
X77366666Y-101417371D01*
X77322319Y-101388870D01*
X77182654Y-101249205D01*
X77182649Y-101249201D01*
X76978848Y-101101132D01*
X76978847Y-101101131D01*
X76978845Y-101101130D01*
X76897883Y-101059878D01*
X76754383Y-100986760D01*
X76514785Y-100908910D01*
X76492119Y-100905320D01*
X76265962Y-100869500D01*
X76014038Y-100869500D01*
X75952208Y-100879293D01*
X75760403Y-100909672D01*
X75760225Y-100908550D01*
X75732394Y-100907155D01*
X75699205Y-100906450D01*
X75697664Y-100905413D01*
X75695807Y-100905320D01*
X75668783Y-100885974D01*
X75641242Y-100867436D01*
X75640506Y-100865729D01*
X75638995Y-100864648D01*
X75626727Y-100833780D01*
X75613573Y-100803279D01*
X75613728Y-100801071D01*
X75613190Y-100799718D01*
X75614323Y-100767993D01*
X75615313Y-100762008D01*
X75626271Y-100721115D01*
X75642281Y-100599500D01*
X75660500Y-100461120D01*
X75660500Y-90038880D01*
X75643321Y-89908398D01*
X75626271Y-89778884D01*
X75558398Y-89525581D01*
X75458043Y-89283303D01*
X75418105Y-89214128D01*
X75326927Y-89056201D01*
X75224970Y-88923329D01*
X75224970Y-88923328D01*
X75224968Y-88923327D01*
X75204534Y-88896697D01*
X75167283Y-88848149D01*
X75167282Y-88848148D01*
X75167278Y-88848143D01*
X73536819Y-87217684D01*
X73503334Y-87156361D01*
X73500500Y-87130003D01*
X73500500Y-77857449D01*
X73547339Y-77870000D01*
X73652661Y-77870000D01*
X73754394Y-77842741D01*
X73845606Y-77790080D01*
X73850000Y-77785686D01*
X73850000Y-78944115D01*
G37*
%TD.AperFunction*%
%TA.AperFunction,Conductor*%
G36*
X97510225Y-51945185D02*
G01*
X97555980Y-51997989D01*
X97565924Y-52067147D01*
X97536899Y-52130703D01*
X97530867Y-52137181D01*
X97446174Y-52221873D01*
X97446174Y-52221874D01*
X97446172Y-52221876D01*
X97421262Y-52256162D01*
X97330476Y-52381116D01*
X97241117Y-52556491D01*
X97218695Y-52625501D01*
X97180291Y-52743695D01*
X97149500Y-52938099D01*
X97149500Y-75440495D01*
X97129815Y-75507534D01*
X97077011Y-75553289D01*
X97007853Y-75563233D01*
X96987182Y-75558426D01*
X96834788Y-75508910D01*
X96609196Y-75473180D01*
X96585962Y-75469500D01*
X96334038Y-75469500D01*
X96242477Y-75484002D01*
X96085214Y-75508910D01*
X95845616Y-75586760D01*
X95621151Y-75701132D01*
X95417350Y-75849201D01*
X95417345Y-75849205D01*
X95277681Y-75988870D01*
X95216358Y-76022355D01*
X95146666Y-76017371D01*
X95102319Y-75988870D01*
X94962654Y-75849205D01*
X94962649Y-75849201D01*
X94758848Y-75701132D01*
X94758847Y-75701131D01*
X94758845Y-75701130D01*
X94688747Y-75665413D01*
X94534383Y-75586760D01*
X94294785Y-75508910D01*
X94202384Y-75494275D01*
X94045962Y-75469500D01*
X93794038Y-75469500D01*
X93702477Y-75484002D01*
X93545214Y-75508910D01*
X93305616Y-75586760D01*
X93081151Y-75701132D01*
X92877350Y-75849201D01*
X92877345Y-75849205D01*
X92737681Y-75988870D01*
X92676358Y-76022355D01*
X92606666Y-76017371D01*
X92562319Y-75988870D01*
X92422654Y-75849205D01*
X92422649Y-75849201D01*
X92218848Y-75701132D01*
X92218847Y-75701131D01*
X92218845Y-75701130D01*
X92148747Y-75665413D01*
X91994383Y-75586760D01*
X91754785Y-75508910D01*
X91662384Y-75494275D01*
X91505962Y-75469500D01*
X91254038Y-75469500D01*
X91162477Y-75484002D01*
X91005214Y-75508910D01*
X90765616Y-75586760D01*
X90541151Y-75701132D01*
X90337350Y-75849201D01*
X90337345Y-75849205D01*
X90159205Y-76027345D01*
X90159201Y-76027350D01*
X90011132Y-76231151D01*
X89929488Y-76391385D01*
X89881513Y-76442181D01*
X89813692Y-76458976D01*
X89747557Y-76436438D01*
X89718684Y-76407974D01*
X89679036Y-76353401D01*
X89556602Y-76230967D01*
X89416524Y-76129195D01*
X89262257Y-76050591D01*
X89097589Y-75997087D01*
X89097581Y-75997085D01*
X89090000Y-75995884D01*
X89090000Y-77154314D01*
X89085606Y-77149920D01*
X88994394Y-77097259D01*
X88892661Y-77070000D01*
X88787339Y-77070000D01*
X88685606Y-77097259D01*
X88594394Y-77149920D01*
X88590000Y-77154314D01*
X88590000Y-75995884D01*
X88589999Y-75995884D01*
X88582418Y-75997085D01*
X88582410Y-75997087D01*
X88417742Y-76050591D01*
X88263475Y-76129195D01*
X88123397Y-76230967D01*
X88000965Y-76353399D01*
X87961314Y-76407975D01*
X87959135Y-76409655D01*
X87958101Y-76412203D01*
X87931631Y-76430863D01*
X87905984Y-76450640D01*
X87903244Y-76450875D01*
X87900995Y-76452461D01*
X87868631Y-76453848D01*
X87836371Y-76456619D01*
X87833937Y-76455335D01*
X87831189Y-76455453D01*
X87803213Y-76439123D01*
X87774576Y-76424013D01*
X87772496Y-76421194D01*
X87770847Y-76420231D01*
X87750511Y-76391384D01*
X87744015Y-76378635D01*
X87730500Y-76322340D01*
X87730500Y-72414335D01*
X87750185Y-72347296D01*
X87760676Y-72334276D01*
X87760254Y-72333923D01*
X87763809Y-72329663D01*
X87763819Y-72329654D01*
X87892007Y-72144626D01*
X87985096Y-71939683D01*
X88040096Y-71721412D01*
X88050500Y-71589217D01*
X88050499Y-70010784D01*
X88040096Y-69878588D01*
X88034100Y-69854794D01*
X87985097Y-69660321D01*
X87985096Y-69660318D01*
X87976380Y-69641130D01*
X87892007Y-69455374D01*
X87842104Y-69383343D01*
X87763825Y-69270354D01*
X87763822Y-69270350D01*
X87763819Y-69270346D01*
X87763814Y-69270341D01*
X87760254Y-69266077D01*
X87762036Y-69264588D01*
X87733334Y-69212023D01*
X87730500Y-69185665D01*
X87730500Y-64404335D01*
X87750185Y-64337296D01*
X87766819Y-64316654D01*
X87776466Y-64307007D01*
X87853819Y-64229654D01*
X87982007Y-64044626D01*
X88075096Y-63839683D01*
X88130096Y-63621412D01*
X88140500Y-63489217D01*
X88140499Y-61910784D01*
X88130096Y-61778588D01*
X88124100Y-61754794D01*
X88075097Y-61560321D01*
X88075096Y-61560318D01*
X88067328Y-61543217D01*
X87982007Y-61355374D01*
X87938320Y-61292315D01*
X87853825Y-61170354D01*
X87853822Y-61170350D01*
X87853819Y-61170346D01*
X87766819Y-61083346D01*
X87733334Y-61022023D01*
X87730500Y-60995665D01*
X87730500Y-55814335D01*
X87750185Y-55747296D01*
X87760676Y-55734276D01*
X87760254Y-55733923D01*
X87763809Y-55729663D01*
X87763819Y-55729654D01*
X87892007Y-55544626D01*
X87985096Y-55339683D01*
X88040096Y-55121412D01*
X88050500Y-54989217D01*
X88050499Y-53410784D01*
X88040096Y-53278588D01*
X88034100Y-53254794D01*
X87985097Y-53060321D01*
X87985096Y-53060318D01*
X87978723Y-53046288D01*
X87892007Y-52855374D01*
X87814636Y-52743696D01*
X87763825Y-52670354D01*
X87763822Y-52670350D01*
X87763819Y-52670346D01*
X87604654Y-52511181D01*
X87604650Y-52511178D01*
X87604645Y-52511174D01*
X87419632Y-52382997D01*
X87419630Y-52382995D01*
X87419626Y-52382993D01*
X87278621Y-52318946D01*
X87214681Y-52289903D01*
X87214678Y-52289902D01*
X86996420Y-52234905D01*
X86996413Y-52234904D01*
X86952347Y-52231436D01*
X86864217Y-52224500D01*
X86864215Y-52224500D01*
X85535791Y-52224500D01*
X85535776Y-52224501D01*
X85403586Y-52234904D01*
X85403579Y-52234905D01*
X85185321Y-52289902D01*
X85185318Y-52289903D01*
X84980377Y-52382991D01*
X84980367Y-52382997D01*
X84813124Y-52498863D01*
X84746807Y-52520860D01*
X84680508Y-52504322D01*
X84520215Y-52411777D01*
X84520205Y-52411773D01*
X84296104Y-52318947D01*
X84061785Y-52256161D01*
X83821289Y-52224500D01*
X83821288Y-52224500D01*
X83578712Y-52224500D01*
X83578711Y-52224500D01*
X83338214Y-52256161D01*
X83103895Y-52318947D01*
X82879794Y-52411773D01*
X82879785Y-52411777D01*
X82669706Y-52533067D01*
X82477263Y-52680733D01*
X82477256Y-52680739D01*
X82305739Y-52852256D01*
X82203186Y-52985906D01*
X82146758Y-53027108D01*
X82077012Y-53031263D01*
X82031925Y-53010737D01*
X81907557Y-52920379D01*
X81718215Y-52823903D01*
X81516124Y-52758241D01*
X81450000Y-52747768D01*
X81450000Y-53795854D01*
X81383343Y-53757370D01*
X81262535Y-53725000D01*
X81137465Y-53725000D01*
X81016657Y-53757370D01*
X80950000Y-53795854D01*
X80950000Y-52747768D01*
X80949999Y-52747768D01*
X80883875Y-52758241D01*
X80681784Y-52823903D01*
X80492442Y-52920379D01*
X80368074Y-53010737D01*
X80302267Y-53034217D01*
X80234214Y-53018391D01*
X80196813Y-52985905D01*
X80094266Y-52852263D01*
X80094260Y-52852256D01*
X79922743Y-52680739D01*
X79922736Y-52680733D01*
X79730293Y-52533067D01*
X79730292Y-52533066D01*
X79730289Y-52533064D01*
X79520212Y-52411776D01*
X79520205Y-52411773D01*
X79296104Y-52318947D01*
X79061785Y-52256161D01*
X78821289Y-52224500D01*
X78821288Y-52224500D01*
X78578712Y-52224500D01*
X78578711Y-52224500D01*
X78338214Y-52256161D01*
X78103895Y-52318947D01*
X77879794Y-52411773D01*
X77879785Y-52411777D01*
X77669706Y-52533067D01*
X77477263Y-52680733D01*
X77477256Y-52680739D01*
X77305739Y-52852256D01*
X77305733Y-52852263D01*
X77158067Y-53044706D01*
X77036777Y-53254785D01*
X77036773Y-53254794D01*
X76943947Y-53478895D01*
X76881161Y-53713214D01*
X76849500Y-53953711D01*
X76849500Y-54446288D01*
X76881161Y-54686785D01*
X76943947Y-54921104D01*
X76991878Y-55036819D01*
X77036776Y-55145212D01*
X77158064Y-55355289D01*
X77158067Y-55355293D01*
X77158071Y-55355299D01*
X77203875Y-55414991D01*
X77229070Y-55480160D01*
X77229500Y-55490478D01*
X77229500Y-61543638D01*
X77212887Y-61605638D01*
X77126777Y-61754784D01*
X77126773Y-61754794D01*
X77033947Y-61978895D01*
X76971161Y-62213214D01*
X76939500Y-62453711D01*
X76939500Y-62946288D01*
X76971161Y-63186785D01*
X77033947Y-63421104D01*
X77116918Y-63621413D01*
X77126776Y-63645212D01*
X77212887Y-63794361D01*
X77229500Y-63856360D01*
X77229500Y-69509521D01*
X77209815Y-69576560D01*
X77203876Y-69585007D01*
X77158063Y-69644711D01*
X77036777Y-69854784D01*
X77036773Y-69854794D01*
X76943947Y-70078895D01*
X76881161Y-70313214D01*
X76849500Y-70553711D01*
X76849500Y-71046288D01*
X76881161Y-71286785D01*
X76943947Y-71521104D01*
X77026918Y-71721413D01*
X77036776Y-71745212D01*
X77092887Y-71842399D01*
X77109500Y-71904398D01*
X77109500Y-72013097D01*
X77146446Y-72246368D01*
X77184334Y-72362973D01*
X77219432Y-72470992D01*
X77219433Y-72470995D01*
X77219434Y-72470996D01*
X77220059Y-72472505D01*
X77220271Y-72473574D01*
X77220938Y-72475625D01*
X77220695Y-72475703D01*
X77229500Y-72519962D01*
X77229500Y-75639877D01*
X77209815Y-75706916D01*
X77157011Y-75752671D01*
X77087853Y-75762615D01*
X77032615Y-75740196D01*
X76978844Y-75701129D01*
X76754383Y-75586760D01*
X76514785Y-75508910D01*
X76422384Y-75494275D01*
X76265962Y-75469500D01*
X76014038Y-75469500D01*
X75922477Y-75484002D01*
X75765214Y-75508910D01*
X75525616Y-75586760D01*
X75301151Y-75701132D01*
X75097350Y-75849201D01*
X75097345Y-75849205D01*
X74919205Y-76027345D01*
X74919201Y-76027350D01*
X74771132Y-76231151D01*
X74689488Y-76391385D01*
X74641513Y-76442181D01*
X74573692Y-76458976D01*
X74507557Y-76436438D01*
X74478684Y-76407974D01*
X74439036Y-76353401D01*
X74316602Y-76230967D01*
X74176524Y-76129195D01*
X74022257Y-76050591D01*
X73857589Y-75997087D01*
X73857581Y-75997085D01*
X73850000Y-75995884D01*
X73850000Y-77154314D01*
X73845606Y-77149920D01*
X73754394Y-77097259D01*
X73652661Y-77070000D01*
X73547339Y-77070000D01*
X73500500Y-77082550D01*
X73500500Y-60368886D01*
X73500499Y-60368872D01*
X73480052Y-60213566D01*
X73480052Y-60213565D01*
X73477755Y-60196119D01*
X73466271Y-60108884D01*
X73398398Y-59855581D01*
X73298043Y-59613303D01*
X73290970Y-59601052D01*
X73278871Y-59580095D01*
X73166924Y-59386196D01*
X73086983Y-59282017D01*
X73086982Y-59282016D01*
X73053200Y-59237990D01*
X73007283Y-59178148D01*
X73007280Y-59178144D01*
X73007276Y-59178140D01*
X68941315Y-55112181D01*
X68907830Y-55050858D01*
X68912814Y-54981166D01*
X68954686Y-54925233D01*
X69020150Y-54900816D01*
X69028996Y-54900500D01*
X74318097Y-54900500D01*
X74551368Y-54863553D01*
X74775992Y-54790568D01*
X74986434Y-54683343D01*
X75177510Y-54544517D01*
X77760208Y-51961819D01*
X77821531Y-51928334D01*
X77847889Y-51925500D01*
X97443186Y-51925500D01*
X97510225Y-51945185D01*
G37*
%TD.AperFunction*%
%TA.AperFunction,Conductor*%
G36*
X81450000Y-72252230D02*
G01*
X81516126Y-72241757D01*
X81516129Y-72241757D01*
X81718217Y-72176095D01*
X81907554Y-72079622D01*
X82031924Y-71989262D01*
X82097730Y-71965782D01*
X82165784Y-71981607D01*
X82203186Y-72014094D01*
X82305733Y-72147736D01*
X82305739Y-72147743D01*
X82477256Y-72319260D01*
X82477263Y-72319266D01*
X82582478Y-72400000D01*
X82669711Y-72466936D01*
X82879788Y-72588224D01*
X83103900Y-72681054D01*
X83338211Y-72743838D01*
X83483779Y-72763002D01*
X83578711Y-72775500D01*
X83578712Y-72775500D01*
X83821289Y-72775500D01*
X83869388Y-72769167D01*
X84061789Y-72743838D01*
X84296100Y-72681054D01*
X84520212Y-72588224D01*
X84543499Y-72574778D01*
X84611399Y-72558306D01*
X84677426Y-72581158D01*
X84720617Y-72636079D01*
X84729500Y-72682166D01*
X84729500Y-75565352D01*
X84709815Y-75632391D01*
X84657011Y-75678146D01*
X84587853Y-75688090D01*
X84549205Y-75675837D01*
X84374383Y-75586760D01*
X84134785Y-75508910D01*
X84042384Y-75494275D01*
X83885962Y-75469500D01*
X83634038Y-75469500D01*
X83542477Y-75484002D01*
X83385214Y-75508910D01*
X83145616Y-75586760D01*
X82921151Y-75701132D01*
X82717350Y-75849201D01*
X82717345Y-75849205D01*
X82577681Y-75988870D01*
X82516358Y-76022355D01*
X82446666Y-76017371D01*
X82402319Y-75988870D01*
X82262654Y-75849205D01*
X82262649Y-75849201D01*
X82058848Y-75701132D01*
X82058847Y-75701131D01*
X82058845Y-75701130D01*
X81988747Y-75665413D01*
X81834383Y-75586760D01*
X81594785Y-75508910D01*
X81502384Y-75494275D01*
X81345962Y-75469500D01*
X81094038Y-75469500D01*
X81002477Y-75484002D01*
X80845214Y-75508910D01*
X80767011Y-75534320D01*
X80605621Y-75586759D01*
X80605618Y-75586760D01*
X80605616Y-75586761D01*
X80410795Y-75686027D01*
X80342125Y-75698923D01*
X80277385Y-75672646D01*
X80237128Y-75615540D01*
X80230500Y-75575542D01*
X80230500Y-72132672D01*
X80250185Y-72065633D01*
X80302989Y-72019878D01*
X80372147Y-72009934D01*
X80427385Y-72032354D01*
X80492442Y-72079620D01*
X80681782Y-72176095D01*
X80883871Y-72241757D01*
X80950000Y-72252231D01*
X80950000Y-71204145D01*
X81016657Y-71242630D01*
X81137465Y-71275000D01*
X81262535Y-71275000D01*
X81383343Y-71242630D01*
X81450000Y-71204145D01*
X81450000Y-72252230D01*
G37*
%TD.AperFunction*%
%TA.AperFunction,Conductor*%
G36*
X105416657Y-69442630D02*
G01*
X105537465Y-69475000D01*
X105662535Y-69475000D01*
X105699500Y-69465095D01*
X105699500Y-74316449D01*
X105679815Y-74383488D01*
X105663181Y-74404130D01*
X104586721Y-75480589D01*
X104525398Y-75514074D01*
X104460719Y-75510838D01*
X104454785Y-75508909D01*
X104220496Y-75471802D01*
X104205962Y-75469500D01*
X103954038Y-75469500D01*
X103943897Y-75471106D01*
X103874603Y-75462150D01*
X103821152Y-75417153D01*
X103800513Y-75350401D01*
X103800500Y-75348632D01*
X103800500Y-70920664D01*
X103820185Y-70853625D01*
X103872989Y-70807870D01*
X103877021Y-70806113D01*
X103920212Y-70788224D01*
X104130289Y-70666936D01*
X104322738Y-70519265D01*
X104494265Y-70347738D01*
X104596813Y-70214093D01*
X104653240Y-70172891D01*
X104722986Y-70168736D01*
X104768074Y-70189262D01*
X104892442Y-70279620D01*
X105081782Y-70376095D01*
X105283871Y-70441757D01*
X105350000Y-70452231D01*
X105350000Y-69404145D01*
X105416657Y-69442630D01*
G37*
%TD.AperFunction*%
%TA.AperFunction,Conductor*%
G36*
X81540000Y-64152230D02*
G01*
X81606126Y-64141757D01*
X81606129Y-64141757D01*
X81808217Y-64076095D01*
X81997554Y-63979622D01*
X82121924Y-63889262D01*
X82187730Y-63865782D01*
X82255784Y-63881607D01*
X82293186Y-63914094D01*
X82395733Y-64047736D01*
X82395739Y-64047743D01*
X82567256Y-64219260D01*
X82567263Y-64219266D01*
X82593200Y-64239168D01*
X82759711Y-64366936D01*
X82969788Y-64488224D01*
X83079425Y-64533637D01*
X83181220Y-64575802D01*
X83193900Y-64581054D01*
X83428211Y-64643838D01*
X83608586Y-64667584D01*
X83668711Y-64675500D01*
X83668712Y-64675500D01*
X83911289Y-64675500D01*
X83959388Y-64669167D01*
X84151789Y-64643838D01*
X84386100Y-64581054D01*
X84558048Y-64509830D01*
X84627516Y-64502362D01*
X84689996Y-64533637D01*
X84725648Y-64593726D01*
X84729500Y-64624392D01*
X84729500Y-68917834D01*
X84709815Y-68984873D01*
X84657011Y-69030628D01*
X84587853Y-69040572D01*
X84543501Y-69025222D01*
X84528666Y-69016657D01*
X84520212Y-69011776D01*
X84520205Y-69011773D01*
X84296104Y-68918947D01*
X84061785Y-68856161D01*
X83821289Y-68824500D01*
X83821288Y-68824500D01*
X83578712Y-68824500D01*
X83578711Y-68824500D01*
X83338214Y-68856161D01*
X83103895Y-68918947D01*
X82879794Y-69011773D01*
X82879785Y-69011777D01*
X82669706Y-69133067D01*
X82477263Y-69280733D01*
X82477256Y-69280739D01*
X82305739Y-69452256D01*
X82203186Y-69585906D01*
X82146758Y-69627108D01*
X82077012Y-69631263D01*
X82031925Y-69610737D01*
X81907557Y-69520379D01*
X81718215Y-69423903D01*
X81516124Y-69358241D01*
X81450000Y-69347768D01*
X81450000Y-70395854D01*
X81383343Y-70357370D01*
X81262535Y-70325000D01*
X81137465Y-70325000D01*
X81016657Y-70357370D01*
X80950000Y-70395854D01*
X80950000Y-69347768D01*
X80949999Y-69347768D01*
X80883875Y-69358241D01*
X80681784Y-69423903D01*
X80492446Y-69520376D01*
X80427385Y-69567646D01*
X80361578Y-69591125D01*
X80293524Y-69575299D01*
X80244830Y-69525193D01*
X80230500Y-69467327D01*
X80230500Y-64029575D01*
X80236939Y-64007644D01*
X80238841Y-63984864D01*
X80248875Y-63966996D01*
X80250185Y-63962536D01*
X80256123Y-63954091D01*
X80271405Y-63934174D01*
X80286812Y-63914094D01*
X80343238Y-63872892D01*
X80412984Y-63868735D01*
X80458073Y-63889262D01*
X80582442Y-63979620D01*
X80771782Y-64076095D01*
X80973871Y-64141757D01*
X81040000Y-64152231D01*
X81040000Y-63104145D01*
X81106657Y-63142630D01*
X81227465Y-63175000D01*
X81352535Y-63175000D01*
X81473343Y-63142630D01*
X81540000Y-63104145D01*
X81540000Y-64152230D01*
G37*
%TD.AperFunction*%
%TA.AperFunction,Conductor*%
G36*
X102275923Y-62686946D02*
G01*
X102276038Y-62686671D01*
X102279019Y-62687906D01*
X102279355Y-62688010D01*
X102279782Y-62688220D01*
X102279788Y-62688224D01*
X102279793Y-62688226D01*
X102279797Y-62688228D01*
X102503895Y-62781052D01*
X102503900Y-62781054D01*
X102738211Y-62843838D01*
X102901082Y-62865280D01*
X102978711Y-62875500D01*
X102978712Y-62875500D01*
X103221281Y-62875500D01*
X103221288Y-62875500D01*
X103298910Y-62865280D01*
X103367941Y-62876045D01*
X103402774Y-62900538D01*
X105663181Y-65160944D01*
X105696666Y-65222267D01*
X105699500Y-65248625D01*
X105699500Y-68534904D01*
X105662535Y-68525000D01*
X105537465Y-68525000D01*
X105416657Y-68557370D01*
X105350000Y-68595854D01*
X105350000Y-67547768D01*
X105349999Y-67547768D01*
X105283875Y-67558241D01*
X105081784Y-67623903D01*
X104892442Y-67720379D01*
X104768074Y-67810737D01*
X104702267Y-67834217D01*
X104634214Y-67818391D01*
X104596813Y-67785905D01*
X104494266Y-67652263D01*
X104494260Y-67652256D01*
X104322743Y-67480739D01*
X104322736Y-67480733D01*
X104130293Y-67333067D01*
X104130292Y-67333066D01*
X104130289Y-67333064D01*
X103921681Y-67212624D01*
X103920214Y-67211777D01*
X103920205Y-67211773D01*
X103696104Y-67118947D01*
X103461785Y-67056161D01*
X103221289Y-67024500D01*
X103221288Y-67024500D01*
X102978712Y-67024500D01*
X102978711Y-67024500D01*
X102738214Y-67056161D01*
X102503895Y-67118947D01*
X102279787Y-67211775D01*
X102279333Y-67212000D01*
X102279183Y-67212025D01*
X102276038Y-67213329D01*
X102275746Y-67212624D01*
X102210500Y-67223989D01*
X102146111Y-67196861D01*
X102106611Y-67139229D01*
X102100500Y-67100782D01*
X102100500Y-62799217D01*
X102120185Y-62732178D01*
X102172989Y-62686423D01*
X102242147Y-62676479D01*
X102275923Y-62686946D01*
G37*
%TD.AperFunction*%
%TA.AperFunction,Conductor*%
G36*
X81450000Y-55652230D02*
G01*
X81516126Y-55641757D01*
X81516129Y-55641757D01*
X81718217Y-55576095D01*
X81907554Y-55479622D01*
X82031924Y-55389262D01*
X82097730Y-55365782D01*
X82165784Y-55381607D01*
X82203186Y-55414094D01*
X82305733Y-55547736D01*
X82305739Y-55547743D01*
X82477256Y-55719260D01*
X82477263Y-55719266D01*
X82496825Y-55734276D01*
X82669711Y-55866936D01*
X82879788Y-55988224D01*
X82879790Y-55988225D01*
X82989647Y-56033729D01*
X83103900Y-56081054D01*
X83338211Y-56143838D01*
X83518586Y-56167584D01*
X83578711Y-56175500D01*
X83578712Y-56175500D01*
X83821289Y-56175500D01*
X83869388Y-56169167D01*
X84061789Y-56143838D01*
X84296100Y-56081054D01*
X84520212Y-55988224D01*
X84543499Y-55974778D01*
X84611399Y-55958306D01*
X84677426Y-55981158D01*
X84720617Y-56036079D01*
X84729500Y-56082166D01*
X84729500Y-60775607D01*
X84709815Y-60842646D01*
X84657011Y-60888401D01*
X84587853Y-60898345D01*
X84558048Y-60890168D01*
X84386107Y-60818948D01*
X84306861Y-60797714D01*
X84151789Y-60756162D01*
X84151788Y-60756161D01*
X84151785Y-60756161D01*
X83911289Y-60724500D01*
X83911288Y-60724500D01*
X83668712Y-60724500D01*
X83668711Y-60724500D01*
X83428214Y-60756161D01*
X83193895Y-60818947D01*
X82969794Y-60911773D01*
X82969785Y-60911777D01*
X82759706Y-61033067D01*
X82567263Y-61180733D01*
X82567256Y-61180739D01*
X82395739Y-61352256D01*
X82293186Y-61485906D01*
X82236758Y-61527108D01*
X82167012Y-61531263D01*
X82121925Y-61510737D01*
X81997557Y-61420379D01*
X81808215Y-61323903D01*
X81606124Y-61258241D01*
X81540000Y-61247768D01*
X81540000Y-62295854D01*
X81473343Y-62257370D01*
X81352535Y-62225000D01*
X81227465Y-62225000D01*
X81106657Y-62257370D01*
X81040000Y-62295854D01*
X81040000Y-61247768D01*
X81039999Y-61247768D01*
X80973875Y-61258241D01*
X80771784Y-61323903D01*
X80582442Y-61420379D01*
X80458074Y-61510737D01*
X80451088Y-61513229D01*
X80445906Y-61518537D01*
X80418624Y-61524812D01*
X80392267Y-61534217D01*
X80385043Y-61532537D01*
X80377815Y-61534200D01*
X80351473Y-61524730D01*
X80324214Y-61518391D01*
X80317416Y-61512486D01*
X80312065Y-61510563D01*
X80286813Y-61485905D01*
X80256124Y-61445910D01*
X80230930Y-61380741D01*
X80230500Y-61370424D01*
X80230500Y-55532672D01*
X80250185Y-55465633D01*
X80302989Y-55419878D01*
X80372147Y-55409934D01*
X80427385Y-55432354D01*
X80492442Y-55479620D01*
X80681782Y-55576095D01*
X80883871Y-55641757D01*
X80950000Y-55652231D01*
X80950000Y-54604145D01*
X81016657Y-54642630D01*
X81137465Y-54675000D01*
X81262535Y-54675000D01*
X81383343Y-54642630D01*
X81450000Y-54604145D01*
X81450000Y-55652230D01*
G37*
%TD.AperFunction*%
%TA.AperFunction,Conductor*%
G36*
X105850000Y-54274999D02*
G01*
X106249972Y-54274999D01*
X106249986Y-54274998D01*
X106352697Y-54264505D01*
X106519119Y-54209358D01*
X106519124Y-54209356D01*
X106668345Y-54117315D01*
X106792315Y-53993345D01*
X106884356Y-53844124D01*
X106884359Y-53844117D01*
X106930072Y-53706164D01*
X106969844Y-53648718D01*
X107034360Y-53621895D01*
X107103136Y-53634210D01*
X107135459Y-53657486D01*
X112765792Y-59287819D01*
X112799277Y-59349142D01*
X112794293Y-59418834D01*
X112752421Y-59474767D01*
X112686957Y-59499184D01*
X112678111Y-59499500D01*
X111172889Y-59499500D01*
X111105850Y-59479815D01*
X111085208Y-59463181D01*
X109702511Y-58080484D01*
X109702508Y-58080482D01*
X109511434Y-57941657D01*
X109483828Y-57927591D01*
X109300996Y-57834433D01*
X109076368Y-57761446D01*
X108843097Y-57724500D01*
X108843092Y-57724500D01*
X102393092Y-57724500D01*
X102156908Y-57724500D01*
X102156903Y-57724500D01*
X101923631Y-57761446D01*
X101699003Y-57834433D01*
X101488563Y-57941659D01*
X101297496Y-58080476D01*
X101297491Y-58080480D01*
X100762181Y-58615791D01*
X100700858Y-58649276D01*
X100631166Y-58644292D01*
X100575233Y-58602420D01*
X100550816Y-58536956D01*
X100550500Y-58528110D01*
X100550500Y-54899500D01*
X100570185Y-54832461D01*
X100622989Y-54786706D01*
X100674500Y-54775500D01*
X100721289Y-54775500D01*
X100769388Y-54769167D01*
X100961789Y-54743838D01*
X101196100Y-54681054D01*
X101420212Y-54588224D01*
X101630289Y-54466936D01*
X101774516Y-54356266D01*
X101839683Y-54331074D01*
X101908127Y-54345112D01*
X101925476Y-54356261D01*
X102069711Y-54466936D01*
X102279788Y-54588224D01*
X102503900Y-54681054D01*
X102738211Y-54743838D01*
X102918586Y-54767584D01*
X102978711Y-54775500D01*
X102978712Y-54775500D01*
X103221289Y-54775500D01*
X103269388Y-54769167D01*
X103461789Y-54743838D01*
X103696100Y-54681054D01*
X103920212Y-54588224D01*
X104130289Y-54466936D01*
X104322738Y-54319265D01*
X104458017Y-54183985D01*
X104519338Y-54150502D01*
X104589030Y-54155486D01*
X104610794Y-54166130D01*
X104680869Y-54209353D01*
X104680880Y-54209358D01*
X104847302Y-54264505D01*
X104847309Y-54264506D01*
X104950019Y-54274999D01*
X105349999Y-54274999D01*
X105350000Y-54274998D01*
X105350000Y-53204145D01*
X105416657Y-53242630D01*
X105537465Y-53275000D01*
X105662535Y-53275000D01*
X105783343Y-53242630D01*
X105850000Y-53204145D01*
X105850000Y-54274999D01*
G37*
%TD.AperFunction*%
%TA.AperFunction,Conductor*%
G36*
X64198043Y-54920185D02*
G01*
X64243798Y-54972989D01*
X64253742Y-55042147D01*
X64224717Y-55105703D01*
X64218685Y-55112181D01*
X63330185Y-56000681D01*
X63268862Y-56034166D01*
X63242504Y-56037000D01*
X56199647Y-56037000D01*
X56175243Y-56033785D01*
X56175097Y-56034521D01*
X56171116Y-56033729D01*
X55911114Y-55999500D01*
X55908006Y-55999500D01*
X55651994Y-55999500D01*
X55648885Y-55999500D01*
X55388887Y-56033728D01*
X55135580Y-56101602D01*
X54893309Y-56201954D01*
X54893299Y-56201958D01*
X54666198Y-56333075D01*
X54458150Y-56492715D01*
X54458143Y-56492721D01*
X54272725Y-56678140D01*
X54272715Y-56678151D01*
X54233294Y-56729524D01*
X54176866Y-56770726D01*
X54107120Y-56774879D01*
X54062035Y-56754354D01*
X54001279Y-56710213D01*
X53797568Y-56606417D01*
X53580124Y-56535765D01*
X53490000Y-56521490D01*
X53490000Y-57509252D01*
X53452292Y-57487482D01*
X53312409Y-57450000D01*
X53167591Y-57450000D01*
X53027708Y-57487482D01*
X52990000Y-57509252D01*
X52990000Y-56521490D01*
X52989999Y-56521490D01*
X52899870Y-56535766D01*
X52862816Y-56547805D01*
X52792975Y-56549799D01*
X52733142Y-56513717D01*
X52702316Y-56451015D01*
X52700500Y-56429873D01*
X52700500Y-55024500D01*
X52720185Y-54957461D01*
X52772989Y-54911706D01*
X52824500Y-54900500D01*
X61381908Y-54900500D01*
X64131004Y-54900500D01*
X64198043Y-54920185D01*
G37*
%TD.AperFunction*%
%TA.AperFunction,Conductor*%
G36*
X58125000Y-46737465D02*
G01*
X58125000Y-46862535D01*
X58157370Y-46983343D01*
X58195854Y-47050000D01*
X57252970Y-47050000D01*
X57283242Y-47241127D01*
X57283242Y-47241130D01*
X57348904Y-47443217D01*
X57445379Y-47632557D01*
X57570272Y-47804459D01*
X57570276Y-47804464D01*
X57720535Y-47954723D01*
X57720540Y-47954727D01*
X57892442Y-48079620D01*
X58081782Y-48176095D01*
X58283871Y-48241757D01*
X58350000Y-48252231D01*
X58350000Y-47204145D01*
X58416657Y-47242630D01*
X58537465Y-47275000D01*
X58662535Y-47275000D01*
X58783343Y-47242630D01*
X58850000Y-47204145D01*
X58850000Y-48252230D01*
X58916126Y-48241757D01*
X58916129Y-48241757D01*
X59118217Y-48176095D01*
X59307554Y-48079622D01*
X59402614Y-48010557D01*
X59468420Y-47987077D01*
X59536474Y-48002902D01*
X59585169Y-48053008D01*
X59599500Y-48110875D01*
X59599500Y-51775500D01*
X59579815Y-51842539D01*
X59527011Y-51888294D01*
X59475500Y-51899500D01*
X52438282Y-51899500D01*
X52371243Y-51879815D01*
X52339907Y-51850987D01*
X52207281Y-51678148D01*
X52207274Y-51678140D01*
X52021860Y-51492726D01*
X52021851Y-51492718D01*
X51813803Y-51333075D01*
X51586700Y-51201958D01*
X51586690Y-51201953D01*
X51344428Y-51101605D01*
X51344421Y-51101603D01*
X51344419Y-51101602D01*
X51091116Y-51033730D01*
X51033339Y-51026123D01*
X50831127Y-50999500D01*
X50831120Y-50999500D01*
X50124500Y-50999500D01*
X50057461Y-50979815D01*
X50011706Y-50927011D01*
X50000500Y-50875500D01*
X50000500Y-48873043D01*
X50020185Y-48806004D01*
X50072989Y-48760249D01*
X50142147Y-48750305D01*
X50154796Y-48752801D01*
X50203588Y-48765096D01*
X50335783Y-48775500D01*
X51664216Y-48775499D01*
X51796412Y-48765096D01*
X52014683Y-48710096D01*
X52219626Y-48617007D01*
X52404654Y-48488819D01*
X52563819Y-48329654D01*
X52692007Y-48144626D01*
X52785096Y-47939683D01*
X52840096Y-47721412D01*
X52850500Y-47589217D01*
X52850499Y-46749499D01*
X52870184Y-46682461D01*
X52922988Y-46636706D01*
X52974499Y-46625500D01*
X58155001Y-46625500D01*
X58125000Y-46737465D01*
G37*
%TD.AperFunction*%
%TA.AperFunction,Conductor*%
G36*
X134442539Y-40520185D02*
G01*
X134488294Y-40572989D01*
X134499500Y-40624500D01*
X134499500Y-142375500D01*
X134479815Y-142442539D01*
X134427011Y-142488294D01*
X134375500Y-142499500D01*
X30624500Y-142499500D01*
X30557461Y-142479815D01*
X30511706Y-142427011D01*
X30500500Y-142375500D01*
X30500500Y-137878711D01*
X33149500Y-137878711D01*
X33149500Y-138121288D01*
X33166689Y-138251859D01*
X33181162Y-138361789D01*
X33212554Y-138478944D01*
X33243947Y-138596104D01*
X33336773Y-138820205D01*
X33336776Y-138820212D01*
X33458064Y-139030289D01*
X33458066Y-139030292D01*
X33458067Y-139030293D01*
X33605733Y-139222736D01*
X33605739Y-139222743D01*
X33777256Y-139394260D01*
X33777262Y-139394265D01*
X33969711Y-139541936D01*
X34179788Y-139663224D01*
X34403900Y-139756054D01*
X34638211Y-139818838D01*
X34818586Y-139842584D01*
X34878711Y-139850500D01*
X34878712Y-139850500D01*
X35121289Y-139850500D01*
X35169388Y-139844167D01*
X35361789Y-139818838D01*
X35596100Y-139756054D01*
X35820212Y-139663224D01*
X36030289Y-139541936D01*
X36222738Y-139394265D01*
X36394265Y-139222738D01*
X36541936Y-139030289D01*
X36663224Y-138820212D01*
X36756054Y-138596100D01*
X36818838Y-138361789D01*
X36850500Y-138121288D01*
X36850500Y-137878712D01*
X36818838Y-137638211D01*
X36756054Y-137403900D01*
X36663224Y-137179788D01*
X36541936Y-136969711D01*
X36439016Y-136835583D01*
X36394266Y-136777263D01*
X36394260Y-136777256D01*
X36222743Y-136605739D01*
X36222736Y-136605733D01*
X36030293Y-136458067D01*
X36030292Y-136458066D01*
X36030289Y-136458064D01*
X35820212Y-136336776D01*
X35776452Y-136318650D01*
X35596104Y-136243947D01*
X35361785Y-136181161D01*
X35121289Y-136149500D01*
X35121288Y-136149500D01*
X34878712Y-136149500D01*
X34878711Y-136149500D01*
X34638214Y-136181161D01*
X34403895Y-136243947D01*
X34179794Y-136336773D01*
X34179785Y-136336777D01*
X33969706Y-136458067D01*
X33777263Y-136605733D01*
X33777256Y-136605739D01*
X33605739Y-136777256D01*
X33605733Y-136777263D01*
X33458067Y-136969706D01*
X33336777Y-137179785D01*
X33336773Y-137179794D01*
X33243947Y-137403895D01*
X33181161Y-137638214D01*
X33149500Y-137878711D01*
X30500500Y-137878711D01*
X30500500Y-103908034D01*
X32059500Y-103908034D01*
X32059500Y-109571965D01*
X32093210Y-109914249D01*
X32160308Y-110251572D01*
X32260150Y-110580706D01*
X32391770Y-110898464D01*
X32391772Y-110898469D01*
X32553893Y-111201775D01*
X32553904Y-111201793D01*
X32744975Y-111487751D01*
X32744985Y-111487765D01*
X32815429Y-111573602D01*
X32963172Y-111753627D01*
X33023182Y-111813637D01*
X33056666Y-111874958D01*
X33059500Y-111901317D01*
X33059500Y-112892060D01*
X33040495Y-112958031D01*
X33017412Y-112994767D01*
X32876066Y-113288274D01*
X32768471Y-113595761D01*
X32768467Y-113595773D01*
X32695976Y-113913379D01*
X32695974Y-113913395D01*
X32659500Y-114237106D01*
X32659500Y-114562893D01*
X32695974Y-114886604D01*
X32695976Y-114886620D01*
X32768467Y-115204226D01*
X32768471Y-115204238D01*
X32876066Y-115511725D01*
X33017413Y-115805234D01*
X33017415Y-115805237D01*
X33190739Y-116081081D01*
X33333427Y-116260006D01*
X33393856Y-116335782D01*
X33470393Y-116412319D01*
X33503878Y-116473642D01*
X33498894Y-116543334D01*
X33470393Y-116587681D01*
X33393856Y-116664217D01*
X33190738Y-116918920D01*
X33017413Y-117194765D01*
X32876066Y-117488274D01*
X32768471Y-117795761D01*
X32768467Y-117795773D01*
X32695976Y-118113379D01*
X32695974Y-118113395D01*
X32659500Y-118437106D01*
X32659500Y-118762893D01*
X32695974Y-119086604D01*
X32695976Y-119086620D01*
X32768467Y-119404226D01*
X32768471Y-119404238D01*
X32835805Y-119596666D01*
X32876065Y-119711722D01*
X33017415Y-120005237D01*
X33040493Y-120041965D01*
X33059500Y-120107937D01*
X33059500Y-121370682D01*
X33039815Y-121437721D01*
X33023181Y-121458363D01*
X32963176Y-121518367D01*
X32744984Y-121784234D01*
X32744974Y-121784248D01*
X32553908Y-122070199D01*
X32553897Y-122070217D01*
X32391772Y-122373530D01*
X32391770Y-122373535D01*
X32260150Y-122691293D01*
X32160307Y-123020431D01*
X32160304Y-123020442D01*
X32093211Y-123357753D01*
X32059500Y-123700034D01*
X32059500Y-124043965D01*
X32093211Y-124386246D01*
X32160304Y-124723557D01*
X32160307Y-124723568D01*
X32260150Y-125052706D01*
X32391769Y-125370462D01*
X32391772Y-125370469D01*
X32553897Y-125673782D01*
X32553908Y-125673800D01*
X32744974Y-125959751D01*
X32744984Y-125959765D01*
X32963176Y-126225632D01*
X42069515Y-135331970D01*
X42103000Y-135393293D01*
X42103451Y-135395459D01*
X42170309Y-135731574D01*
X42270150Y-136060706D01*
X42339935Y-136229181D01*
X42399739Y-136373562D01*
X42401770Y-136378464D01*
X42401772Y-136378469D01*
X42563893Y-136681775D01*
X42563904Y-136681793D01*
X42754975Y-136967751D01*
X42754985Y-136967765D01*
X42973176Y-137233632D01*
X43216366Y-137476822D01*
X43216371Y-137476826D01*
X43216373Y-137476828D01*
X43251082Y-137505313D01*
X43267404Y-137521458D01*
X43449077Y-137737967D01*
X43710033Y-137998923D01*
X43771617Y-138050598D01*
X43992734Y-138236138D01*
X43992740Y-138236142D01*
X43992741Y-138236143D01*
X44295047Y-138447821D01*
X44614653Y-138632345D01*
X44614662Y-138632349D01*
X44949106Y-138788304D01*
X44949110Y-138788305D01*
X44949124Y-138788312D01*
X45295916Y-138914534D01*
X45295922Y-138914535D01*
X45295926Y-138914537D01*
X45393003Y-138940548D01*
X45652390Y-139010050D01*
X46015832Y-139074135D01*
X46383474Y-139106299D01*
X46383475Y-139106300D01*
X46383476Y-139106300D01*
X46752525Y-139106300D01*
X46752525Y-139106299D01*
X47120168Y-139074135D01*
X47483610Y-139010050D01*
X47840084Y-138914534D01*
X48186876Y-138788312D01*
X48521347Y-138632345D01*
X48840953Y-138447821D01*
X49143259Y-138236143D01*
X49425967Y-137998923D01*
X49686923Y-137737967D01*
X49924143Y-137455259D01*
X50135821Y-137152953D01*
X50143300Y-137140000D01*
X50224129Y-136999999D01*
X50320345Y-136833347D01*
X50419315Y-136621103D01*
X50465487Y-136568665D01*
X50532680Y-136549513D01*
X50599562Y-136569728D01*
X50634799Y-136604617D01*
X50683807Y-136677962D01*
X50873347Y-136908917D01*
X50873348Y-136908918D01*
X51896101Y-135886164D01*
X51957606Y-135966319D01*
X52169501Y-136178214D01*
X52249653Y-136239717D01*
X51226900Y-137262470D01*
X51226901Y-137262471D01*
X51457861Y-137452015D01*
X51762239Y-137655394D01*
X51762257Y-137655405D01*
X52085086Y-137827961D01*
X52085091Y-137827963D01*
X52423300Y-137968054D01*
X52773622Y-138074323D01*
X52773633Y-138074326D01*
X53132645Y-138145736D01*
X53132662Y-138145739D01*
X53496966Y-138181620D01*
X53863034Y-138181620D01*
X54227337Y-138145739D01*
X54227354Y-138145736D01*
X54586366Y-138074326D01*
X54586377Y-138074323D01*
X54936699Y-137968054D01*
X55274908Y-137827963D01*
X55274913Y-137827961D01*
X55597742Y-137655405D01*
X55597760Y-137655394D01*
X55902124Y-137452024D01*
X55902138Y-137452014D01*
X56133097Y-137262471D01*
X56133098Y-137262470D01*
X56096145Y-137225517D01*
X55110345Y-136239717D01*
X55190499Y-136178214D01*
X55402394Y-135966319D01*
X55463897Y-135886165D01*
X56486650Y-136908918D01*
X56486651Y-136908917D01*
X56676194Y-136677958D01*
X56676204Y-136677944D01*
X56879574Y-136373580D01*
X56879585Y-136373562D01*
X57052141Y-136050733D01*
X57052143Y-136050728D01*
X57192234Y-135712519D01*
X57298503Y-135362197D01*
X57298506Y-135362186D01*
X57369916Y-135003174D01*
X57369919Y-135003157D01*
X57405800Y-134638853D01*
X57405800Y-134272787D01*
X57399229Y-134206074D01*
X57399229Y-134206073D01*
X57369919Y-133908482D01*
X57369916Y-133908465D01*
X57298506Y-133549453D01*
X57298503Y-133549442D01*
X57192234Y-133199120D01*
X57052143Y-132860911D01*
X57052141Y-132860906D01*
X56879585Y-132538077D01*
X56879574Y-132538059D01*
X56676195Y-132233681D01*
X56486651Y-132002721D01*
X56486650Y-132002720D01*
X55463897Y-133025473D01*
X55402394Y-132945321D01*
X55190499Y-132733426D01*
X55110344Y-132671921D01*
X56133098Y-131649168D01*
X56133097Y-131649167D01*
X55902138Y-131459624D01*
X55597760Y-131256245D01*
X55597742Y-131256234D01*
X55274913Y-131083678D01*
X55274908Y-131083676D01*
X54936699Y-130943585D01*
X54586377Y-130837316D01*
X54586366Y-130837313D01*
X54227354Y-130765903D01*
X54227337Y-130765900D01*
X53863034Y-130730020D01*
X53496966Y-130730020D01*
X53132662Y-130765900D01*
X53132645Y-130765903D01*
X52773633Y-130837313D01*
X52773622Y-130837316D01*
X52423300Y-130943585D01*
X52085091Y-131083676D01*
X52085086Y-131083678D01*
X51762257Y-131256234D01*
X51762239Y-131256245D01*
X51457870Y-131459618D01*
X51457866Y-131459621D01*
X51226901Y-131649168D01*
X51226901Y-131649169D01*
X52249654Y-132671922D01*
X52169501Y-132733426D01*
X51957606Y-132945321D01*
X51896102Y-133025474D01*
X50873349Y-132002721D01*
X50873348Y-132002721D01*
X50683801Y-132233686D01*
X50683798Y-132233690D01*
X50480425Y-132538059D01*
X50480419Y-132538069D01*
X50400794Y-132687036D01*
X50396832Y-132691068D01*
X50395195Y-132696480D01*
X50372616Y-132715720D01*
X50351831Y-132736880D01*
X50346318Y-132738130D01*
X50342015Y-132741798D01*
X50312617Y-132745777D01*
X50283693Y-132752340D01*
X50278378Y-132750411D01*
X50272777Y-132751170D01*
X50245898Y-132738625D01*
X50218014Y-132728508D01*
X50213241Y-132723385D01*
X50209463Y-132721622D01*
X50193973Y-132702703D01*
X50186571Y-132694758D01*
X50185276Y-132692706D01*
X50135821Y-132607047D01*
X50089229Y-132540507D01*
X50087635Y-132537981D01*
X50078848Y-132507117D01*
X50068598Y-132476722D01*
X50068500Y-132471805D01*
X50068500Y-125297396D01*
X50083142Y-125238942D01*
X50087758Y-125230307D01*
X50158231Y-125098462D01*
X50289850Y-124780705D01*
X50389689Y-124451578D01*
X50389691Y-124451568D01*
X50389694Y-124451557D01*
X50423575Y-124281219D01*
X50456788Y-124114250D01*
X50490500Y-123771969D01*
X50490500Y-123428031D01*
X50456788Y-123085750D01*
X50408163Y-122841295D01*
X50389694Y-122748442D01*
X50389691Y-122748431D01*
X50389690Y-122748428D01*
X50389689Y-122748422D01*
X50289850Y-122419295D01*
X50158231Y-122101538D01*
X50141487Y-122070213D01*
X49996102Y-121798217D01*
X49996091Y-121798199D01*
X49805025Y-121512248D01*
X49805020Y-121512240D01*
X49586828Y-121246373D01*
X49586827Y-121246372D01*
X49586823Y-121246367D01*
X49526819Y-121186363D01*
X49493334Y-121125040D01*
X49490500Y-121098682D01*
X49490500Y-120107937D01*
X49509506Y-120041965D01*
X49532585Y-120005237D01*
X49673935Y-119711722D01*
X49781532Y-119404227D01*
X49854024Y-119086617D01*
X49890500Y-118762889D01*
X49890500Y-118437111D01*
X49854024Y-118113383D01*
X49781532Y-117795773D01*
X49704440Y-117575455D01*
X49700878Y-117505676D01*
X49735606Y-117445049D01*
X49797600Y-117412821D01*
X49821481Y-117410500D01*
X55435790Y-117410500D01*
X55502829Y-117430185D01*
X55523471Y-117446819D01*
X56317477Y-118240825D01*
X56580961Y-118450946D01*
X56760263Y-118563609D01*
X56866316Y-118630248D01*
X56901867Y-118647368D01*
X56972972Y-118681610D01*
X57169949Y-118776469D01*
X57383304Y-118851124D01*
X57430030Y-118880485D01*
X62443181Y-123893636D01*
X62476666Y-123954959D01*
X62479500Y-123981317D01*
X62479500Y-124859805D01*
X62459815Y-124926844D01*
X62457075Y-124930928D01*
X62412191Y-124995029D01*
X62412174Y-124995055D01*
X62227658Y-125314646D01*
X62227650Y-125314662D01*
X62071695Y-125649106D01*
X62071692Y-125649114D01*
X62071689Y-125649120D01*
X62071688Y-125649124D01*
X62024476Y-125778838D01*
X61945462Y-125995926D01*
X61849952Y-126352382D01*
X61849949Y-126352395D01*
X61785865Y-126715828D01*
X61753700Y-127083474D01*
X61753700Y-127452525D01*
X61785865Y-127820171D01*
X61816090Y-127991582D01*
X61849950Y-128183610D01*
X61858726Y-128216362D01*
X61945462Y-128540073D01*
X61945465Y-128540083D01*
X61945466Y-128540084D01*
X62071688Y-128886876D01*
X62071691Y-128886883D01*
X62071692Y-128886885D01*
X62071695Y-128886893D01*
X62227650Y-129221337D01*
X62227658Y-129221353D01*
X62412174Y-129540944D01*
X62412183Y-129540959D01*
X62623861Y-129843265D01*
X62719045Y-129956700D01*
X62861077Y-130125967D01*
X63122033Y-130386923D01*
X63189036Y-130443145D01*
X63404734Y-130624138D01*
X63404740Y-130624142D01*
X63404741Y-130624143D01*
X63707047Y-130835821D01*
X63993354Y-131001120D01*
X64026646Y-131020341D01*
X64026670Y-131020354D01*
X64238894Y-131119315D01*
X64291334Y-131165487D01*
X64310486Y-131232681D01*
X64290270Y-131299562D01*
X64255382Y-131334798D01*
X64182055Y-131383794D01*
X64182046Y-131383801D01*
X63951081Y-131573348D01*
X63951081Y-131573349D01*
X64973834Y-132596102D01*
X64893681Y-132657606D01*
X64681786Y-132869501D01*
X64620282Y-132949654D01*
X63597529Y-131926901D01*
X63597528Y-131926901D01*
X63407981Y-132157866D01*
X63407978Y-132157870D01*
X63204605Y-132462239D01*
X63204594Y-132462257D01*
X63032038Y-132785086D01*
X63032036Y-132785091D01*
X62891945Y-133123300D01*
X62785676Y-133473622D01*
X62785673Y-133473633D01*
X62714263Y-133832645D01*
X62714260Y-133832662D01*
X62678380Y-134196966D01*
X62678380Y-134563033D01*
X62714260Y-134927337D01*
X62714263Y-134927354D01*
X62785673Y-135286366D01*
X62785676Y-135286377D01*
X62891945Y-135636699D01*
X63032036Y-135974908D01*
X63032038Y-135974913D01*
X63204594Y-136297742D01*
X63204605Y-136297760D01*
X63407984Y-136602138D01*
X63597527Y-136833097D01*
X63597528Y-136833098D01*
X64620281Y-135810344D01*
X64681786Y-135890499D01*
X64893681Y-136102394D01*
X64973833Y-136163897D01*
X63951080Y-137186650D01*
X63951081Y-137186651D01*
X64182041Y-137376195D01*
X64486419Y-137579574D01*
X64486437Y-137579585D01*
X64809266Y-137752141D01*
X64809271Y-137752143D01*
X65147480Y-137892234D01*
X65497802Y-137998503D01*
X65497813Y-137998506D01*
X65856825Y-138069916D01*
X65856842Y-138069919D01*
X66221146Y-138105800D01*
X66587214Y-138105800D01*
X66951517Y-138069919D01*
X66951534Y-138069916D01*
X67048659Y-138050598D01*
X67310546Y-137998506D01*
X67310557Y-137998503D01*
X67660879Y-137892234D01*
X67999088Y-137752143D01*
X67999093Y-137752141D01*
X68321922Y-137579585D01*
X68321940Y-137579574D01*
X68626304Y-137376204D01*
X68626318Y-137376194D01*
X68857277Y-137186651D01*
X68857278Y-137186650D01*
X68791125Y-137120497D01*
X68708310Y-137037682D01*
X91700000Y-137037682D01*
X91700000Y-137242317D01*
X91732009Y-137444417D01*
X91795244Y-137639031D01*
X91888141Y-137821350D01*
X91888147Y-137821359D01*
X91920523Y-137865921D01*
X91920524Y-137865922D01*
X92600000Y-137186446D01*
X92600000Y-137192661D01*
X92627259Y-137294394D01*
X92679920Y-137385606D01*
X92754394Y-137460080D01*
X92845606Y-137512741D01*
X92947339Y-137540000D01*
X92953553Y-137540000D01*
X92274076Y-138219474D01*
X92318650Y-138251859D01*
X92500968Y-138344755D01*
X92695582Y-138407990D01*
X92897683Y-138440000D01*
X93102317Y-138440000D01*
X93304417Y-138407990D01*
X93499031Y-138344755D01*
X93681349Y-138251859D01*
X93725921Y-138219474D01*
X93725922Y-138219474D01*
X93626344Y-138119896D01*
X93046447Y-137540000D01*
X93052661Y-137540000D01*
X93154394Y-137512741D01*
X93245606Y-137460080D01*
X93320080Y-137385606D01*
X93372741Y-137294394D01*
X93400000Y-137192661D01*
X93400000Y-137186447D01*
X94079474Y-137865921D01*
X94111859Y-137821349D01*
X94204755Y-137639031D01*
X94267990Y-137444417D01*
X94300000Y-137242317D01*
X94300000Y-137037683D01*
X94280127Y-136912215D01*
X94280127Y-136912213D01*
X94267990Y-136835583D01*
X94267990Y-136835582D01*
X94204755Y-136640968D01*
X94111859Y-136458650D01*
X94079474Y-136414077D01*
X94079474Y-136414076D01*
X93400000Y-137093551D01*
X93400000Y-137087339D01*
X93372741Y-136985606D01*
X93320080Y-136894394D01*
X93245606Y-136819920D01*
X93154394Y-136767259D01*
X93052661Y-136740000D01*
X93046446Y-136740000D01*
X93725922Y-136060524D01*
X93725921Y-136060523D01*
X93681359Y-136028147D01*
X93681350Y-136028141D01*
X93499031Y-135935244D01*
X93304417Y-135872009D01*
X93102317Y-135840000D01*
X92897683Y-135840000D01*
X92695582Y-135872009D01*
X92500968Y-135935244D01*
X92318644Y-136028143D01*
X92274077Y-136060523D01*
X92274077Y-136060524D01*
X92953554Y-136740000D01*
X92947339Y-136740000D01*
X92845606Y-136767259D01*
X92754394Y-136819920D01*
X92679920Y-136894394D01*
X92627259Y-136985606D01*
X92600000Y-137087339D01*
X92600000Y-137093553D01*
X91920524Y-136414077D01*
X91920523Y-136414077D01*
X91888143Y-136458644D01*
X91795244Y-136640968D01*
X91732009Y-136835582D01*
X91700000Y-137037682D01*
X68708310Y-137037682D01*
X67834525Y-136163897D01*
X67914679Y-136102394D01*
X68126574Y-135890499D01*
X68188077Y-135810345D01*
X69210830Y-136833098D01*
X69210831Y-136833097D01*
X69400374Y-136602138D01*
X69400384Y-136602124D01*
X69603754Y-136297760D01*
X69603765Y-136297742D01*
X69776321Y-135974913D01*
X69776323Y-135974908D01*
X69916414Y-135636699D01*
X70022683Y-135286377D01*
X70022686Y-135286366D01*
X70094096Y-134927354D01*
X70094099Y-134927337D01*
X70129980Y-134563033D01*
X70129980Y-134196966D01*
X70094099Y-133832662D01*
X70094096Y-133832645D01*
X70022686Y-133473633D01*
X70022683Y-133473622D01*
X69916414Y-133123300D01*
X69776323Y-132785091D01*
X69776321Y-132785086D01*
X69603765Y-132462257D01*
X69603754Y-132462239D01*
X69400375Y-132157861D01*
X69210831Y-131926901D01*
X69210830Y-131926900D01*
X68188077Y-132949653D01*
X68126574Y-132869501D01*
X67914679Y-132657606D01*
X67834524Y-132596101D01*
X68857278Y-131573348D01*
X68857277Y-131573347D01*
X68626318Y-131383804D01*
X68497551Y-131297765D01*
X68321940Y-131180425D01*
X68321930Y-131180419D01*
X68172963Y-131100794D01*
X68123119Y-131051831D01*
X68107659Y-130983694D01*
X68131491Y-130918014D01*
X68169412Y-130884053D01*
X68252953Y-130835821D01*
X68555259Y-130624143D01*
X68837967Y-130386923D01*
X69098923Y-130125967D01*
X69336143Y-129843259D01*
X69547821Y-129540953D01*
X69732345Y-129221347D01*
X69888312Y-128886876D01*
X70014534Y-128540084D01*
X70110050Y-128183610D01*
X70174135Y-127820168D01*
X70206300Y-127452524D01*
X70206300Y-127083476D01*
X70177124Y-126750000D01*
X72383391Y-126750000D01*
X73344314Y-126750000D01*
X73339920Y-126754394D01*
X73287259Y-126845606D01*
X73260000Y-126947339D01*
X73260000Y-127052661D01*
X73287259Y-127154394D01*
X73339920Y-127245606D01*
X73344314Y-127250000D01*
X72383391Y-127250000D01*
X72392009Y-127304413D01*
X72455244Y-127499029D01*
X72548140Y-127681349D01*
X72668417Y-127846894D01*
X72668417Y-127846895D01*
X72813104Y-127991582D01*
X72978650Y-128111859D01*
X73160968Y-128204754D01*
X73355578Y-128267988D01*
X73410000Y-128276607D01*
X73410000Y-127315686D01*
X73414394Y-127320080D01*
X73505606Y-127372741D01*
X73607339Y-127400000D01*
X73712661Y-127400000D01*
X73814394Y-127372741D01*
X73905606Y-127320080D01*
X73910000Y-127315686D01*
X73910000Y-128276606D01*
X73964421Y-128267988D01*
X74159031Y-128204754D01*
X74341349Y-128111859D01*
X74506893Y-127991583D01*
X74511299Y-127987178D01*
X74572620Y-127953689D01*
X74642312Y-127958669D01*
X74697362Y-127999368D01*
X74843406Y-128189697D01*
X74843412Y-128189704D01*
X74989526Y-128335818D01*
X75023011Y-128397141D01*
X75018027Y-128466833D01*
X74989526Y-128511180D01*
X73492721Y-130007985D01*
X73492715Y-130007992D01*
X73429540Y-130090324D01*
X73333075Y-130216039D01*
X73206521Y-130435238D01*
X73206522Y-130435239D01*
X73201958Y-130443143D01*
X73201954Y-130443150D01*
X73101602Y-130685422D01*
X73060903Y-130837313D01*
X73033729Y-130938726D01*
X73025515Y-131001120D01*
X72999500Y-131198722D01*
X72999500Y-131202631D01*
X72999500Y-134701127D01*
X73015395Y-134821851D01*
X73015395Y-134821852D01*
X73033728Y-134961114D01*
X73085363Y-135153818D01*
X73085364Y-135153818D01*
X73085364Y-135153819D01*
X73101602Y-135214419D01*
X73131408Y-135286377D01*
X73201954Y-135456690D01*
X73201958Y-135456700D01*
X73306605Y-135637954D01*
X73333076Y-135683803D01*
X73371442Y-135733802D01*
X73492715Y-135891849D01*
X73492721Y-135891856D01*
X73728143Y-136127278D01*
X73728150Y-136127284D01*
X73936198Y-136286924D01*
X74163299Y-136418041D01*
X74163314Y-136418048D01*
X74209088Y-136437008D01*
X74405581Y-136518398D01*
X74658885Y-136586271D01*
X74853882Y-136611942D01*
X74918880Y-136620499D01*
X74918881Y-136620499D01*
X75181121Y-136620499D01*
X75233119Y-136613653D01*
X75441116Y-136586271D01*
X75694419Y-136518398D01*
X75936697Y-136418043D01*
X76163802Y-136286924D01*
X76224515Y-136240336D01*
X76289682Y-136215144D01*
X76358127Y-136229182D01*
X76375479Y-136240332D01*
X76436198Y-136286924D01*
X76436202Y-136286926D01*
X76436203Y-136286927D01*
X76663299Y-136418041D01*
X76663314Y-136418048D01*
X76709088Y-136437008D01*
X76905581Y-136518398D01*
X77158885Y-136586271D01*
X77353882Y-136611942D01*
X77418880Y-136620499D01*
X77418881Y-136620499D01*
X77681121Y-136620499D01*
X77733119Y-136613653D01*
X77941116Y-136586271D01*
X78194419Y-136518398D01*
X78436697Y-136418043D01*
X78663802Y-136286924D01*
X78724515Y-136240336D01*
X78789682Y-136215144D01*
X78858127Y-136229182D01*
X78875479Y-136240332D01*
X78936198Y-136286924D01*
X78936202Y-136286926D01*
X78936203Y-136286927D01*
X79163299Y-136418041D01*
X79163314Y-136418048D01*
X79209088Y-136437008D01*
X79405581Y-136518398D01*
X79658885Y-136586271D01*
X79853882Y-136611942D01*
X79918880Y-136620499D01*
X79918881Y-136620499D01*
X80181121Y-136620499D01*
X80233119Y-136613653D01*
X80441116Y-136586271D01*
X80694419Y-136518398D01*
X80936697Y-136418043D01*
X81068461Y-136341968D01*
X81136358Y-136325496D01*
X81201075Y-136347428D01*
X81330367Y-136437003D01*
X81330371Y-136437005D01*
X81330374Y-136437007D01*
X81535317Y-136530096D01*
X81535321Y-136530097D01*
X81753579Y-136585094D01*
X81753581Y-136585094D01*
X81753588Y-136585096D01*
X81885783Y-136595500D01*
X82220859Y-136595499D01*
X82237044Y-136596560D01*
X82418880Y-136620499D01*
X82418887Y-136620499D01*
X82681121Y-136620499D01*
X82862959Y-136596560D01*
X82879144Y-136595499D01*
X83214208Y-136595499D01*
X83214216Y-136595499D01*
X83346412Y-136585096D01*
X83564683Y-136530096D01*
X83769626Y-136437007D01*
X83954654Y-136308819D01*
X84113819Y-136149654D01*
X84146561Y-136102394D01*
X84191751Y-136037167D01*
X84234880Y-135974913D01*
X84242007Y-135964626D01*
X84335096Y-135759683D01*
X84358954Y-135664998D01*
X84391512Y-135607620D01*
X86973357Y-133025777D01*
X91199500Y-133025777D01*
X91199500Y-134254208D01*
X91199501Y-134254223D01*
X91209904Y-134386413D01*
X91209905Y-134386420D01*
X91264902Y-134604678D01*
X91264903Y-134604681D01*
X91357991Y-134809622D01*
X91357997Y-134809632D01*
X91486174Y-134994645D01*
X91486178Y-134994650D01*
X91486181Y-134994654D01*
X91645346Y-135153819D01*
X91645350Y-135153822D01*
X91645354Y-135153825D01*
X91784603Y-135250297D01*
X91830374Y-135282007D01*
X92035317Y-135375096D01*
X92035321Y-135375097D01*
X92253579Y-135430094D01*
X92253581Y-135430094D01*
X92253588Y-135430096D01*
X92385783Y-135440500D01*
X93614216Y-135440499D01*
X93746412Y-135430096D01*
X93964683Y-135375096D01*
X94169626Y-135282007D01*
X94354654Y-135153819D01*
X94513819Y-134994654D01*
X94642007Y-134809626D01*
X94735096Y-134604683D01*
X94790096Y-134386412D01*
X94800500Y-134254217D01*
X94800499Y-133025784D01*
X94790096Y-132893588D01*
X94754209Y-132751170D01*
X94735097Y-132675321D01*
X94735096Y-132675318D01*
X94678629Y-132551002D01*
X94642007Y-132470374D01*
X94582355Y-132384272D01*
X94513825Y-132285354D01*
X94513822Y-132285350D01*
X94513819Y-132285346D01*
X94354654Y-132126181D01*
X94354650Y-132126178D01*
X94354645Y-132126174D01*
X94169632Y-131997997D01*
X94169630Y-131997995D01*
X94169626Y-131997993D01*
X94138394Y-131983807D01*
X93964681Y-131904903D01*
X93964678Y-131904902D01*
X93746420Y-131849905D01*
X93746413Y-131849904D01*
X93702347Y-131846436D01*
X93614217Y-131839500D01*
X93614215Y-131839500D01*
X92385791Y-131839500D01*
X92385776Y-131839501D01*
X92253586Y-131849904D01*
X92253579Y-131849905D01*
X92035321Y-131904902D01*
X92035318Y-131904903D01*
X91830377Y-131997991D01*
X91830367Y-131997997D01*
X91645354Y-132126174D01*
X91645342Y-132126184D01*
X91486184Y-132285342D01*
X91486174Y-132285354D01*
X91357997Y-132470367D01*
X91357991Y-132470377D01*
X91264903Y-132675318D01*
X91264902Y-132675321D01*
X91209905Y-132893579D01*
X91209904Y-132893586D01*
X91199500Y-133025777D01*
X86973357Y-133025777D01*
X87807283Y-132191851D01*
X87904633Y-132064981D01*
X87966924Y-131983803D01*
X88098043Y-131756697D01*
X88198398Y-131514419D01*
X88199178Y-131511506D01*
X88204214Y-131492716D01*
X88255969Y-131299562D01*
X88266271Y-131261116D01*
X88287271Y-131101602D01*
X88300500Y-131001120D01*
X88300500Y-128342782D01*
X88320185Y-128275743D01*
X88372989Y-128229988D01*
X88442147Y-128220044D01*
X88462819Y-128224851D01*
X88595578Y-128267988D01*
X88650000Y-128276607D01*
X88650000Y-127315686D01*
X88654394Y-127320080D01*
X88745606Y-127372741D01*
X88847339Y-127400000D01*
X88952661Y-127400000D01*
X89054394Y-127372741D01*
X89145606Y-127320080D01*
X89150000Y-127315686D01*
X89150000Y-128276606D01*
X89204421Y-128267988D01*
X89399031Y-128204754D01*
X89581349Y-128111859D01*
X89746893Y-127991583D01*
X89751299Y-127987178D01*
X89812620Y-127953689D01*
X89882312Y-127958669D01*
X89937362Y-127999368D01*
X90083406Y-128189697D01*
X90083412Y-128189704D01*
X90250295Y-128356587D01*
X90250302Y-128356593D01*
X90326016Y-128414690D01*
X90437550Y-128500273D01*
X90568918Y-128576118D01*
X90641943Y-128618280D01*
X90641948Y-128618282D01*
X90641951Y-128618284D01*
X90860007Y-128708606D01*
X91087986Y-128769693D01*
X91321989Y-128800500D01*
X91321996Y-128800500D01*
X91558004Y-128800500D01*
X91558011Y-128800500D01*
X91792014Y-128769693D01*
X92019993Y-128708606D01*
X92238049Y-128618284D01*
X92442450Y-128500273D01*
X92629699Y-128356592D01*
X92796592Y-128189699D01*
X92940273Y-128002450D01*
X93058284Y-127798049D01*
X93148606Y-127579993D01*
X93209693Y-127352014D01*
X93240500Y-127118011D01*
X93240500Y-126881989D01*
X93234628Y-126837392D01*
X93230134Y-126803248D01*
X93223123Y-126750000D01*
X96513391Y-126750000D01*
X97474314Y-126750000D01*
X97469920Y-126754394D01*
X97417259Y-126845606D01*
X97390000Y-126947339D01*
X97390000Y-127052661D01*
X97417259Y-127154394D01*
X97469920Y-127245606D01*
X97474314Y-127250000D01*
X96513391Y-127250000D01*
X96522009Y-127304413D01*
X96585244Y-127499029D01*
X96678140Y-127681349D01*
X96798417Y-127846894D01*
X96798417Y-127846895D01*
X96943104Y-127991582D01*
X97108650Y-128111859D01*
X97290968Y-128204754D01*
X97485578Y-128267988D01*
X97540000Y-128276607D01*
X97540000Y-127315686D01*
X97544394Y-127320080D01*
X97635606Y-127372741D01*
X97737339Y-127400000D01*
X97842661Y-127400000D01*
X97944394Y-127372741D01*
X98035606Y-127320080D01*
X98040000Y-127315686D01*
X98040000Y-128276606D01*
X98094421Y-128267988D01*
X98289031Y-128204754D01*
X98471349Y-128111859D01*
X98636893Y-127991583D01*
X98641299Y-127987178D01*
X98702620Y-127953689D01*
X98772312Y-127958669D01*
X98827362Y-127999368D01*
X98973406Y-128189697D01*
X98973412Y-128189704D01*
X99140295Y-128356587D01*
X99140302Y-128356593D01*
X99216016Y-128414690D01*
X99327550Y-128500273D01*
X99458918Y-128576118D01*
X99531943Y-128618280D01*
X99531948Y-128618282D01*
X99531951Y-128618284D01*
X99750007Y-128708606D01*
X99977986Y-128769693D01*
X100211989Y-128800500D01*
X100211996Y-128800500D01*
X100448004Y-128800500D01*
X100448011Y-128800500D01*
X100682014Y-128769693D01*
X100713407Y-128761281D01*
X100783253Y-128762942D01*
X100841117Y-128802103D01*
X100868623Y-128866331D01*
X100869500Y-128881055D01*
X100869500Y-134751120D01*
X100903730Y-135011116D01*
X100946839Y-135172001D01*
X100971602Y-135264418D01*
X100971605Y-135264428D01*
X101071953Y-135506690D01*
X101071958Y-135506700D01*
X101203073Y-135733799D01*
X101362718Y-135941851D01*
X101362726Y-135941860D01*
X101548140Y-136127274D01*
X101548145Y-136127278D01*
X101548149Y-136127282D01*
X101580471Y-136152084D01*
X101756196Y-136286924D01*
X101983299Y-136418041D01*
X101983309Y-136418046D01*
X102183501Y-136500968D01*
X102225581Y-136518398D01*
X102478884Y-136586270D01*
X102738880Y-136620500D01*
X102738887Y-136620500D01*
X103001113Y-136620500D01*
X103001120Y-136620500D01*
X103261116Y-136586270D01*
X103514419Y-136518398D01*
X103756697Y-136418043D01*
X103983803Y-136286924D01*
X103986548Y-136284818D01*
X104044512Y-136240340D01*
X104109681Y-136215144D01*
X104178126Y-136229181D01*
X104195479Y-136240333D01*
X104256198Y-136286924D01*
X104256202Y-136286926D01*
X104256203Y-136286927D01*
X104483299Y-136418041D01*
X104483300Y-136418041D01*
X104483303Y-136418043D01*
X104725581Y-136518398D01*
X104978884Y-136586271D01*
X105173881Y-136611942D01*
X105238879Y-136620499D01*
X105238880Y-136620499D01*
X105501121Y-136620499D01*
X105553119Y-136613653D01*
X105761116Y-136586271D01*
X106014419Y-136518398D01*
X106256697Y-136418043D01*
X106483802Y-136286924D01*
X106544514Y-136240337D01*
X106609682Y-136215144D01*
X106678127Y-136229182D01*
X106695487Y-136240339D01*
X106756191Y-136286920D01*
X106756194Y-136286921D01*
X106756197Y-136286924D01*
X106983303Y-136418043D01*
X106983305Y-136418043D01*
X106983309Y-136418046D01*
X107183501Y-136500968D01*
X107225581Y-136518398D01*
X107478884Y-136586270D01*
X107738880Y-136620500D01*
X107738887Y-136620500D01*
X108001113Y-136620500D01*
X108001120Y-136620500D01*
X108261116Y-136586270D01*
X108514419Y-136518398D01*
X108756697Y-136418043D01*
X108888461Y-136341968D01*
X108956358Y-136325496D01*
X109021075Y-136347428D01*
X109150367Y-136437003D01*
X109150371Y-136437005D01*
X109150374Y-136437007D01*
X109355317Y-136530096D01*
X109355321Y-136530097D01*
X109573579Y-136585094D01*
X109573581Y-136585094D01*
X109573588Y-136585096D01*
X109705783Y-136595500D01*
X110040859Y-136595499D01*
X110057044Y-136596560D01*
X110238880Y-136620499D01*
X110238887Y-136620499D01*
X110501121Y-136620499D01*
X110682959Y-136596560D01*
X110699144Y-136595499D01*
X111034208Y-136595499D01*
X111034216Y-136595499D01*
X111166412Y-136585096D01*
X111384683Y-136530096D01*
X111589626Y-136437007D01*
X111774654Y-136308819D01*
X111933819Y-136149654D01*
X112062007Y-135964626D01*
X112155096Y-135759683D01*
X112210096Y-135541412D01*
X112210096Y-135541402D01*
X112210943Y-135536251D01*
X112213181Y-135536618D01*
X112225922Y-135494292D01*
X112233309Y-135481499D01*
X112262988Y-135430094D01*
X112288037Y-135386708D01*
X112288047Y-135386688D01*
X112324764Y-135298044D01*
X112388398Y-135144419D01*
X112423392Y-135013819D01*
X112456271Y-134891115D01*
X112474701Y-134751120D01*
X112490500Y-134631120D01*
X112490500Y-128362278D01*
X112510185Y-128295239D01*
X112562989Y-128249484D01*
X112632147Y-128239540D01*
X112652819Y-128244347D01*
X112725578Y-128267988D01*
X112780000Y-128276607D01*
X112780000Y-127315686D01*
X112784394Y-127320080D01*
X112875606Y-127372741D01*
X112977339Y-127400000D01*
X113082661Y-127400000D01*
X113184394Y-127372741D01*
X113275606Y-127320080D01*
X113280000Y-127315686D01*
X113280000Y-128276606D01*
X113334421Y-128267988D01*
X113407181Y-128244347D01*
X113477022Y-128242352D01*
X113536855Y-128278432D01*
X113567684Y-128341132D01*
X113569500Y-128362278D01*
X113569500Y-129201127D01*
X113586381Y-129329341D01*
X113586381Y-129329342D01*
X113603728Y-129461112D01*
X113669366Y-129706073D01*
X113669366Y-129706075D01*
X113671598Y-129714407D01*
X113671604Y-129714424D01*
X113771954Y-129956690D01*
X113771958Y-129956700D01*
X113903078Y-130183807D01*
X113921060Y-130207240D01*
X113935131Y-130225578D01*
X113935133Y-130225581D01*
X113935134Y-130225581D01*
X114062715Y-130391849D01*
X114062721Y-130391856D01*
X118389570Y-134718704D01*
X118403817Y-134735769D01*
X118486174Y-134854645D01*
X118486178Y-134854650D01*
X118486181Y-134854654D01*
X118645346Y-135013819D01*
X118645350Y-135013822D01*
X118645354Y-135013825D01*
X118830375Y-135142008D01*
X118884272Y-135166488D01*
X118894986Y-135171997D01*
X118929990Y-135192207D01*
X119113295Y-135298039D01*
X119113300Y-135298041D01*
X119113303Y-135298043D01*
X119355581Y-135398398D01*
X119608884Y-135466271D01*
X119724558Y-135481499D01*
X119788455Y-135509765D01*
X119826927Y-135568089D01*
X119827759Y-135637954D01*
X119790687Y-135697177D01*
X119727774Y-135726911D01*
X119695580Y-135732010D01*
X119500968Y-135795244D01*
X119318644Y-135888143D01*
X119274077Y-135920523D01*
X119274077Y-135920524D01*
X119953554Y-136600000D01*
X119947339Y-136600000D01*
X119845606Y-136627259D01*
X119754394Y-136679920D01*
X119679920Y-136754394D01*
X119627259Y-136845606D01*
X119600000Y-136947339D01*
X119600000Y-136953553D01*
X118920524Y-136274077D01*
X118920523Y-136274077D01*
X118888143Y-136318644D01*
X118795244Y-136500968D01*
X118732009Y-136695582D01*
X118700000Y-136897682D01*
X118700000Y-137102317D01*
X118732009Y-137304417D01*
X118795244Y-137499031D01*
X118888141Y-137681350D01*
X118888147Y-137681359D01*
X118920523Y-137725921D01*
X118920524Y-137725922D01*
X119600000Y-137046446D01*
X119600000Y-137052661D01*
X119627259Y-137154394D01*
X119679920Y-137245606D01*
X119754394Y-137320080D01*
X119845606Y-137372741D01*
X119947339Y-137400000D01*
X119953553Y-137400000D01*
X119274076Y-138079474D01*
X119318650Y-138111859D01*
X119500968Y-138204755D01*
X119695582Y-138267990D01*
X119897683Y-138300000D01*
X120102317Y-138300000D01*
X120304417Y-138267990D01*
X120499031Y-138204755D01*
X120681349Y-138111859D01*
X120725921Y-138079474D01*
X120725922Y-138079474D01*
X120608782Y-137962334D01*
X120525159Y-137878711D01*
X128149500Y-137878711D01*
X128149500Y-138121288D01*
X128166689Y-138251859D01*
X128181162Y-138361789D01*
X128212554Y-138478944D01*
X128243947Y-138596104D01*
X128336773Y-138820205D01*
X128336776Y-138820212D01*
X128458064Y-139030289D01*
X128458066Y-139030292D01*
X128458067Y-139030293D01*
X128605733Y-139222736D01*
X128605739Y-139222743D01*
X128777256Y-139394260D01*
X128777262Y-139394265D01*
X128969711Y-139541936D01*
X129179788Y-139663224D01*
X129403900Y-139756054D01*
X129638211Y-139818838D01*
X129818586Y-139842584D01*
X129878711Y-139850500D01*
X129878712Y-139850500D01*
X130121289Y-139850500D01*
X130169388Y-139844167D01*
X130361789Y-139818838D01*
X130596100Y-139756054D01*
X130820212Y-139663224D01*
X131030289Y-139541936D01*
X131222738Y-139394265D01*
X131394265Y-139222738D01*
X131541936Y-139030289D01*
X131663224Y-138820212D01*
X131756054Y-138596100D01*
X131818838Y-138361789D01*
X131850500Y-138121288D01*
X131850500Y-137878712D01*
X131818838Y-137638211D01*
X131756054Y-137403900D01*
X131663224Y-137179788D01*
X131541936Y-136969711D01*
X131439016Y-136835583D01*
X131394266Y-136777263D01*
X131394260Y-136777256D01*
X131222743Y-136605739D01*
X131222736Y-136605733D01*
X131030293Y-136458067D01*
X131030292Y-136458066D01*
X131030289Y-136458064D01*
X130820212Y-136336776D01*
X130776452Y-136318650D01*
X130596104Y-136243947D01*
X130361785Y-136181161D01*
X130121289Y-136149500D01*
X130121288Y-136149500D01*
X129878712Y-136149500D01*
X129878711Y-136149500D01*
X129638214Y-136181161D01*
X129403895Y-136243947D01*
X129179794Y-136336773D01*
X129179785Y-136336777D01*
X128969706Y-136458067D01*
X128777263Y-136605733D01*
X128777256Y-136605739D01*
X128605739Y-136777256D01*
X128605733Y-136777263D01*
X128458067Y-136969706D01*
X128336777Y-137179785D01*
X128336773Y-137179794D01*
X128243947Y-137403895D01*
X128181161Y-137638214D01*
X128149500Y-137878711D01*
X120525159Y-137878711D01*
X120046447Y-137400000D01*
X120052661Y-137400000D01*
X120154394Y-137372741D01*
X120245606Y-137320080D01*
X120320080Y-137245606D01*
X120372741Y-137154394D01*
X120400000Y-137052661D01*
X120400000Y-137046447D01*
X121079474Y-137725921D01*
X121111859Y-137681349D01*
X121204755Y-137499031D01*
X121267990Y-137304417D01*
X121300000Y-137102317D01*
X121300000Y-136897682D01*
X121267990Y-136695582D01*
X121204755Y-136500968D01*
X121111859Y-136318650D01*
X121079474Y-136274077D01*
X121079474Y-136274076D01*
X120400000Y-136953551D01*
X120400000Y-136947339D01*
X120372741Y-136845606D01*
X120320080Y-136754394D01*
X120245606Y-136679920D01*
X120154394Y-136627259D01*
X120052661Y-136600000D01*
X120046446Y-136600000D01*
X120725922Y-135920524D01*
X120725921Y-135920523D01*
X120681359Y-135888147D01*
X120681350Y-135888141D01*
X120499031Y-135795244D01*
X120304418Y-135732010D01*
X120272226Y-135726911D01*
X120209091Y-135696981D01*
X120172161Y-135637669D01*
X120173159Y-135567806D01*
X120211770Y-135509574D01*
X120275439Y-135481499D01*
X120391116Y-135466271D01*
X120644419Y-135398398D01*
X120886697Y-135298043D01*
X121105035Y-135171984D01*
X121115710Y-135166495D01*
X121169626Y-135142007D01*
X121354654Y-135013819D01*
X121513819Y-134854654D01*
X121642007Y-134669626D01*
X121666495Y-134615710D01*
X121671984Y-134605035D01*
X121798043Y-134386697D01*
X121898398Y-134144419D01*
X121966271Y-133891116D01*
X122000499Y-133631119D01*
X122000499Y-133368880D01*
X121966271Y-133108884D01*
X121898398Y-132855581D01*
X121798043Y-132613303D01*
X121798041Y-132613300D01*
X121798039Y-132613295D01*
X121710826Y-132462239D01*
X121671997Y-132394986D01*
X121666488Y-132384272D01*
X121642008Y-132330375D01*
X121513825Y-132145354D01*
X121513822Y-132145350D01*
X121513819Y-132145346D01*
X121354654Y-131986181D01*
X121354650Y-131986178D01*
X121354645Y-131986174D01*
X121235769Y-131903817D01*
X121218704Y-131889570D01*
X117606819Y-128277685D01*
X117573334Y-128216362D01*
X117570500Y-128190004D01*
X117570500Y-126868886D01*
X117570500Y-126868880D01*
X117554849Y-126750000D01*
X117550218Y-126714823D01*
X117541418Y-126647989D01*
X117536270Y-126608884D01*
X117468398Y-126355581D01*
X117421549Y-126242477D01*
X117368046Y-126113309D01*
X117368041Y-126113299D01*
X117236924Y-125886196D01*
X117077281Y-125678148D01*
X117077274Y-125678140D01*
X116891860Y-125492726D01*
X116891851Y-125492718D01*
X116683803Y-125333075D01*
X116456700Y-125201958D01*
X116456690Y-125201953D01*
X116214428Y-125101605D01*
X116214421Y-125101603D01*
X116214419Y-125101602D01*
X115961116Y-125033730D01*
X115903339Y-125026123D01*
X115701127Y-124999500D01*
X115701120Y-124999500D01*
X115438880Y-124999500D01*
X115438872Y-124999500D01*
X115207772Y-125029926D01*
X115178884Y-125033730D01*
X114954964Y-125093729D01*
X114925581Y-125101602D01*
X114925571Y-125101605D01*
X114683309Y-125201953D01*
X114683299Y-125201958D01*
X114456196Y-125333075D01*
X114248148Y-125492718D01*
X114062718Y-125678148D01*
X113907026Y-125881048D01*
X113850598Y-125922250D01*
X113780852Y-125926405D01*
X113735766Y-125905880D01*
X113711350Y-125888141D01*
X113529029Y-125795244D01*
X113334413Y-125732009D01*
X113280000Y-125723390D01*
X113280000Y-126684314D01*
X113275606Y-126679920D01*
X113184394Y-126627259D01*
X113082661Y-126600000D01*
X112977339Y-126600000D01*
X112875606Y-126627259D01*
X112784394Y-126679920D01*
X112780000Y-126684314D01*
X112780000Y-125723390D01*
X112725586Y-125732009D01*
X112530970Y-125795244D01*
X112348647Y-125888142D01*
X112324229Y-125905882D01*
X112258422Y-125929359D01*
X112190369Y-125913531D01*
X112152975Y-125881050D01*
X111997282Y-125678149D01*
X111997276Y-125678143D01*
X111997273Y-125678139D01*
X111811860Y-125492726D01*
X111811851Y-125492718D01*
X111603803Y-125333075D01*
X111376700Y-125201958D01*
X111376690Y-125201953D01*
X111134428Y-125101605D01*
X111134421Y-125101603D01*
X111134419Y-125101602D01*
X110881116Y-125033730D01*
X110823339Y-125026123D01*
X110621127Y-124999500D01*
X110621120Y-124999500D01*
X110358880Y-124999500D01*
X110358872Y-124999500D01*
X110127772Y-125029926D01*
X110098884Y-125033730D01*
X109874964Y-125093729D01*
X109845581Y-125101602D01*
X109845571Y-125101605D01*
X109603309Y-125201953D01*
X109603299Y-125201958D01*
X109376198Y-125333074D01*
X109295484Y-125395008D01*
X109230315Y-125420201D01*
X109161870Y-125406162D01*
X109144513Y-125395007D01*
X109063801Y-125333075D01*
X108836700Y-125201958D01*
X108836690Y-125201954D01*
X108594419Y-125101602D01*
X108411935Y-125052705D01*
X108341116Y-125033729D01*
X108341115Y-125033728D01*
X108341112Y-125033728D01*
X108081120Y-124999501D01*
X108081119Y-124999501D01*
X107818880Y-124999501D01*
X107818879Y-124999501D01*
X107558887Y-125033728D01*
X107305580Y-125101602D01*
X107063309Y-125201954D01*
X107063299Y-125201958D01*
X106836207Y-125333069D01*
X106836200Y-125333074D01*
X106836198Y-125333076D01*
X106808584Y-125354265D01*
X106755485Y-125395008D01*
X106690315Y-125420201D01*
X106621871Y-125406162D01*
X106604514Y-125395007D01*
X106523802Y-125333075D01*
X106296700Y-125201958D01*
X106296690Y-125201953D01*
X106054428Y-125101605D01*
X106054421Y-125101603D01*
X106054419Y-125101602D01*
X105801116Y-125033730D01*
X105743339Y-125026123D01*
X105541127Y-124999500D01*
X105541120Y-124999500D01*
X105278880Y-124999500D01*
X105278872Y-124999500D01*
X105047772Y-125029926D01*
X105018884Y-125033730D01*
X104794964Y-125093729D01*
X104765581Y-125101602D01*
X104765571Y-125101605D01*
X104523309Y-125201953D01*
X104523299Y-125201958D01*
X104296197Y-125333075D01*
X104215486Y-125395007D01*
X104150317Y-125420201D01*
X104081872Y-125406162D01*
X104064514Y-125395007D01*
X103983802Y-125333075D01*
X103756700Y-125201958D01*
X103756690Y-125201953D01*
X103514428Y-125101605D01*
X103514421Y-125101603D01*
X103514419Y-125101602D01*
X103261116Y-125033730D01*
X103203339Y-125026123D01*
X103001127Y-124999500D01*
X103001120Y-124999500D01*
X102738880Y-124999500D01*
X102738872Y-124999500D01*
X102507772Y-125029926D01*
X102478884Y-125033730D01*
X102254964Y-125093729D01*
X102225581Y-125101602D01*
X102225571Y-125101605D01*
X101983309Y-125201953D01*
X101983299Y-125201958D01*
X101756201Y-125333072D01*
X101548143Y-125492722D01*
X101548142Y-125492722D01*
X101527424Y-125513441D01*
X101466101Y-125546925D01*
X101396409Y-125541939D01*
X101364260Y-125524135D01*
X101332448Y-125499725D01*
X101128056Y-125381719D01*
X101128045Y-125381714D01*
X100909993Y-125291394D01*
X100849818Y-125275270D01*
X100682014Y-125230307D01*
X100682013Y-125230306D01*
X100682010Y-125230306D01*
X100448020Y-125199501D01*
X100448017Y-125199500D01*
X100448011Y-125199500D01*
X100211989Y-125199500D01*
X100211983Y-125199500D01*
X100211979Y-125199501D01*
X99977989Y-125230306D01*
X99750006Y-125291394D01*
X99531954Y-125381714D01*
X99531943Y-125381719D01*
X99340909Y-125492014D01*
X99327554Y-125499725D01*
X99327545Y-125499730D01*
X99140302Y-125643406D01*
X99140295Y-125643412D01*
X98973412Y-125810295D01*
X98827361Y-126000632D01*
X98770933Y-126041834D01*
X98701186Y-126045989D01*
X98641304Y-126012826D01*
X98636895Y-126008417D01*
X98471349Y-125888140D01*
X98289029Y-125795244D01*
X98094413Y-125732009D01*
X98040000Y-125723390D01*
X98040000Y-126684314D01*
X98035606Y-126679920D01*
X97944394Y-126627259D01*
X97842661Y-126600000D01*
X97737339Y-126600000D01*
X97635606Y-126627259D01*
X97544394Y-126679920D01*
X97540000Y-126684314D01*
X97540000Y-125723390D01*
X97485586Y-125732009D01*
X97290970Y-125795244D01*
X97108650Y-125888140D01*
X96943105Y-126008417D01*
X96943104Y-126008417D01*
X96798417Y-126153104D01*
X96798417Y-126153105D01*
X96678140Y-126318650D01*
X96585244Y-126500970D01*
X96522009Y-126695586D01*
X96513391Y-126750000D01*
X93223123Y-126750000D01*
X93218492Y-126714823D01*
X93209693Y-126647986D01*
X93148606Y-126420007D01*
X93058284Y-126201951D01*
X93058282Y-126201948D01*
X93058280Y-126201943D01*
X93016118Y-126128918D01*
X92940273Y-125997550D01*
X92796592Y-125810301D01*
X92796587Y-125810295D01*
X92629704Y-125643412D01*
X92629697Y-125643406D01*
X92442454Y-125499730D01*
X92442451Y-125499728D01*
X92442450Y-125499727D01*
X92360957Y-125452677D01*
X92238056Y-125381719D01*
X92238045Y-125381714D01*
X92019993Y-125291394D01*
X91959818Y-125275270D01*
X91792014Y-125230307D01*
X91792013Y-125230306D01*
X91792010Y-125230306D01*
X91558020Y-125199501D01*
X91558017Y-125199500D01*
X91558011Y-125199500D01*
X91321989Y-125199500D01*
X91321983Y-125199500D01*
X91321979Y-125199501D01*
X91087989Y-125230306D01*
X90860006Y-125291394D01*
X90641954Y-125381714D01*
X90641943Y-125381719D01*
X90450909Y-125492014D01*
X90437554Y-125499725D01*
X90437545Y-125499730D01*
X90250302Y-125643406D01*
X90250295Y-125643412D01*
X90083412Y-125810295D01*
X89937361Y-126000632D01*
X89880933Y-126041834D01*
X89811186Y-126045989D01*
X89751304Y-126012826D01*
X89746895Y-126008417D01*
X89581349Y-125888140D01*
X89399029Y-125795244D01*
X89204413Y-125732009D01*
X89150000Y-125723390D01*
X89150000Y-126684314D01*
X89145606Y-126679920D01*
X89054394Y-126627259D01*
X88952661Y-126600000D01*
X88847339Y-126600000D01*
X88745606Y-126627259D01*
X88654394Y-126679920D01*
X88650000Y-126684314D01*
X88650000Y-125723390D01*
X88595586Y-125732009D01*
X88400970Y-125795244D01*
X88218648Y-125888141D01*
X88194231Y-125905881D01*
X88128424Y-125929359D01*
X88060371Y-125913532D01*
X88022972Y-125881047D01*
X87867284Y-125678150D01*
X87867278Y-125678143D01*
X87681856Y-125492721D01*
X87681849Y-125492715D01*
X87473801Y-125333075D01*
X87246700Y-125201958D01*
X87246690Y-125201954D01*
X87004419Y-125101602D01*
X86821935Y-125052705D01*
X86751116Y-125033729D01*
X86751115Y-125033728D01*
X86751112Y-125033728D01*
X86491121Y-124999501D01*
X86491120Y-124999501D01*
X86228881Y-124999501D01*
X86228880Y-124999501D01*
X85968888Y-125033728D01*
X85715580Y-125101602D01*
X85473314Y-125201951D01*
X85473299Y-125201958D01*
X85246199Y-125333074D01*
X85165485Y-125395008D01*
X85100316Y-125420201D01*
X85031871Y-125406162D01*
X85014515Y-125395008D01*
X84933800Y-125333074D01*
X84706700Y-125201958D01*
X84706690Y-125201954D01*
X84464419Y-125101602D01*
X84281935Y-125052705D01*
X84211116Y-125033729D01*
X84211115Y-125033728D01*
X84211112Y-125033728D01*
X83951121Y-124999501D01*
X83951120Y-124999501D01*
X83688881Y-124999501D01*
X83688880Y-124999501D01*
X83428888Y-125033728D01*
X83175580Y-125101602D01*
X82933314Y-125201951D01*
X82933299Y-125201958D01*
X82706199Y-125333074D01*
X82625485Y-125395008D01*
X82560316Y-125420201D01*
X82491871Y-125406162D01*
X82474516Y-125395008D01*
X82442527Y-125370463D01*
X82442526Y-125370462D01*
X82393802Y-125333075D01*
X82166700Y-125201958D01*
X82166690Y-125201953D01*
X81924428Y-125101605D01*
X81924414Y-125101600D01*
X81912700Y-125098461D01*
X81912700Y-125098462D01*
X81671116Y-125033729D01*
X81671115Y-125033728D01*
X81671112Y-125033728D01*
X81541118Y-125016615D01*
X81411127Y-124999500D01*
X81411120Y-124999500D01*
X81148880Y-124999500D01*
X81148872Y-124999500D01*
X81001768Y-125018868D01*
X81001767Y-125018868D01*
X80888886Y-125033728D01*
X80664959Y-125093730D01*
X80664958Y-125093729D01*
X80635589Y-125101599D01*
X80635571Y-125101605D01*
X80393309Y-125201953D01*
X80393299Y-125201958D01*
X80166197Y-125333075D01*
X80117474Y-125370462D01*
X80117472Y-125370463D01*
X80085483Y-125395008D01*
X80020314Y-125420201D01*
X79951869Y-125406161D01*
X79934513Y-125395007D01*
X79853801Y-125333075D01*
X79626700Y-125201958D01*
X79626690Y-125201954D01*
X79384419Y-125101602D01*
X79201935Y-125052705D01*
X79131116Y-125033729D01*
X79131115Y-125033728D01*
X79131112Y-125033728D01*
X78871121Y-124999501D01*
X78871120Y-124999501D01*
X78608881Y-124999501D01*
X78608880Y-124999501D01*
X78348888Y-125033728D01*
X78095580Y-125101602D01*
X77853314Y-125201951D01*
X77853299Y-125201958D01*
X77626198Y-125333075D01*
X77418154Y-125492712D01*
X77397422Y-125513443D01*
X77336097Y-125546925D01*
X77266406Y-125541938D01*
X77234259Y-125524135D01*
X77202450Y-125499727D01*
X77202444Y-125499723D01*
X77202442Y-125499722D01*
X76998056Y-125381719D01*
X76998045Y-125381714D01*
X76779993Y-125291394D01*
X76719818Y-125275270D01*
X76552014Y-125230307D01*
X76552013Y-125230306D01*
X76552010Y-125230306D01*
X76318020Y-125199501D01*
X76318017Y-125199500D01*
X76318011Y-125199500D01*
X76081989Y-125199500D01*
X76081983Y-125199500D01*
X76081979Y-125199501D01*
X75847989Y-125230306D01*
X75620006Y-125291394D01*
X75401954Y-125381714D01*
X75401943Y-125381719D01*
X75210909Y-125492014D01*
X75197554Y-125499725D01*
X75197545Y-125499730D01*
X75010302Y-125643406D01*
X75010295Y-125643412D01*
X74843412Y-125810295D01*
X74697361Y-126000632D01*
X74640933Y-126041834D01*
X74571186Y-126045989D01*
X74511304Y-126012826D01*
X74506895Y-126008417D01*
X74341349Y-125888140D01*
X74159029Y-125795244D01*
X73964413Y-125732009D01*
X73910000Y-125723390D01*
X73910000Y-126684314D01*
X73905606Y-126679920D01*
X73814394Y-126627259D01*
X73712661Y-126600000D01*
X73607339Y-126600000D01*
X73505606Y-126627259D01*
X73414394Y-126679920D01*
X73410000Y-126684314D01*
X73410000Y-125723390D01*
X73355586Y-125732009D01*
X73160970Y-125795244D01*
X72978650Y-125888140D01*
X72813105Y-126008417D01*
X72813104Y-126008417D01*
X72668417Y-126153104D01*
X72668417Y-126153105D01*
X72548140Y-126318650D01*
X72455244Y-126500970D01*
X72392009Y-126695586D01*
X72383391Y-126750000D01*
X70177124Y-126750000D01*
X70174135Y-126715832D01*
X70110050Y-126352390D01*
X70015798Y-126000632D01*
X70014537Y-125995926D01*
X70014535Y-125995922D01*
X70014534Y-125995916D01*
X69888312Y-125649124D01*
X69885648Y-125643412D01*
X69781563Y-125420201D01*
X69732345Y-125314653D01*
X69547821Y-124995047D01*
X69532578Y-124973278D01*
X69502925Y-124930928D01*
X69480598Y-124864722D01*
X69480500Y-124859805D01*
X69480500Y-122308034D01*
X69473820Y-122240212D01*
X69446789Y-121965750D01*
X69379690Y-121628422D01*
X69279850Y-121299295D01*
X69148231Y-120981538D01*
X69137163Y-120960832D01*
X69094104Y-120880273D01*
X68986107Y-120678224D01*
X68986106Y-120678222D01*
X68986101Y-120678213D01*
X68795020Y-120392240D01*
X68576828Y-120126373D01*
X68576827Y-120126372D01*
X68576823Y-120126367D01*
X61853632Y-113403176D01*
X61587765Y-113184984D01*
X61587764Y-113184983D01*
X61587760Y-113184980D01*
X61519190Y-113139163D01*
X61301800Y-112993908D01*
X61301782Y-112993897D01*
X60998469Y-112831772D01*
X60998464Y-112831770D01*
X60965034Y-112817923D01*
X60680705Y-112700150D01*
X60680704Y-112700149D01*
X60680700Y-112700148D01*
X60478580Y-112638835D01*
X60420142Y-112600538D01*
X60391685Y-112536726D01*
X60402246Y-112467659D01*
X60443632Y-112419469D01*
X60443275Y-112419004D01*
X60445494Y-112417300D01*
X60445697Y-112417065D01*
X60446506Y-112416523D01*
X60512403Y-112365957D01*
X60512404Y-112365956D01*
X59711059Y-111564612D01*
X59731591Y-111559111D01*
X59868408Y-111480119D01*
X59980119Y-111368408D01*
X60059111Y-111231591D01*
X60064612Y-111211059D01*
X60865956Y-112012404D01*
X60865957Y-112012403D01*
X60916530Y-111946498D01*
X61027949Y-111753514D01*
X61027954Y-111753502D01*
X61113236Y-111547618D01*
X61170911Y-111332367D01*
X61170914Y-111332354D01*
X61200000Y-111111424D01*
X61200000Y-110888575D01*
X61170914Y-110667645D01*
X61170911Y-110667632D01*
X61113236Y-110452381D01*
X61027954Y-110246497D01*
X61027949Y-110246485D01*
X60916533Y-110053507D01*
X60865956Y-109987595D01*
X60865955Y-109987595D01*
X60064612Y-110788939D01*
X60059111Y-110768409D01*
X59980119Y-110631592D01*
X59868408Y-110519881D01*
X59731591Y-110440889D01*
X59711058Y-110435387D01*
X60512403Y-109634043D01*
X60512403Y-109634040D01*
X60446504Y-109583473D01*
X60446491Y-109583464D01*
X60253520Y-109472054D01*
X60253502Y-109472045D01*
X60047618Y-109386763D01*
X59832367Y-109329088D01*
X59832354Y-109329085D01*
X59611425Y-109300000D01*
X59388575Y-109300000D01*
X59167645Y-109329085D01*
X59167632Y-109329088D01*
X58952381Y-109386763D01*
X58746497Y-109472045D01*
X58746479Y-109472054D01*
X58553511Y-109583462D01*
X58487595Y-109634042D01*
X59288941Y-110435387D01*
X59268409Y-110440889D01*
X59131592Y-110519881D01*
X59019881Y-110631592D01*
X58940889Y-110768409D01*
X58935387Y-110788941D01*
X58134042Y-109987595D01*
X58083462Y-110053511D01*
X57972054Y-110246479D01*
X57972045Y-110246497D01*
X57886763Y-110452381D01*
X57829088Y-110667632D01*
X57829085Y-110667645D01*
X57800000Y-110888575D01*
X57800000Y-111111424D01*
X57829085Y-111332354D01*
X57829089Y-111332371D01*
X57852136Y-111418387D01*
X57850473Y-111488236D01*
X57811310Y-111546099D01*
X57747081Y-111573602D01*
X57691407Y-111567521D01*
X57561955Y-111522224D01*
X57561953Y-111522223D01*
X57233397Y-111447233D01*
X57233381Y-111447231D01*
X56898509Y-111409500D01*
X56898505Y-111409500D01*
X56898504Y-111409500D01*
X49614500Y-111409500D01*
X49547461Y-111389815D01*
X49501706Y-111337011D01*
X49490500Y-111285500D01*
X49490500Y-110907937D01*
X49509506Y-110841965D01*
X49532585Y-110805237D01*
X49673935Y-110511722D01*
X49781532Y-110204227D01*
X49854024Y-109886617D01*
X49867074Y-109770799D01*
X49878645Y-109668111D01*
X49878645Y-109668110D01*
X49890499Y-109562895D01*
X49890500Y-109562893D01*
X49890500Y-109237107D01*
X49890499Y-109237106D01*
X49854025Y-108913395D01*
X49854024Y-108913383D01*
X49781532Y-108595773D01*
X49673935Y-108288278D01*
X49532585Y-107994763D01*
X49359261Y-107718919D01*
X49156143Y-107464217D01*
X48925783Y-107233857D01*
X48671081Y-107030739D01*
X48395237Y-106857415D01*
X48395234Y-106857413D01*
X48101725Y-106716066D01*
X47794238Y-106608471D01*
X47794226Y-106608467D01*
X47476620Y-106535976D01*
X47476604Y-106535974D01*
X47152893Y-106499500D01*
X47152889Y-106499500D01*
X46827111Y-106499500D01*
X46827107Y-106499500D01*
X46503395Y-106535974D01*
X46503379Y-106535976D01*
X46185773Y-106608467D01*
X46185761Y-106608471D01*
X45878274Y-106716066D01*
X45584765Y-106857413D01*
X45308920Y-107030738D01*
X45054217Y-107233856D01*
X44823856Y-107464217D01*
X44620738Y-107718920D01*
X44447413Y-107994765D01*
X44306066Y-108288274D01*
X44198471Y-108595761D01*
X44198467Y-108595773D01*
X44125976Y-108913379D01*
X44125974Y-108913395D01*
X44089500Y-109237106D01*
X44089500Y-109562893D01*
X44125974Y-109886604D01*
X44125976Y-109886620D01*
X44198467Y-110204226D01*
X44198471Y-110204238D01*
X44306066Y-110511725D01*
X44339286Y-110580706D01*
X44447415Y-110805237D01*
X44447419Y-110805244D01*
X44447421Y-110805247D01*
X44454922Y-110817185D01*
X44470493Y-110841965D01*
X44489500Y-110907937D01*
X44489500Y-112730015D01*
X44470494Y-112795987D01*
X44369752Y-112956316D01*
X44223532Y-113259945D01*
X44112227Y-113578034D01*
X44112223Y-113578046D01*
X44037233Y-113906602D01*
X44037231Y-113906618D01*
X43999500Y-114241491D01*
X43999500Y-114578508D01*
X44037231Y-114913381D01*
X44037233Y-114913397D01*
X44112223Y-115241953D01*
X44112227Y-115241965D01*
X44223532Y-115560054D01*
X44369752Y-115863683D01*
X44369754Y-115863686D01*
X44549054Y-116149039D01*
X44637545Y-116260003D01*
X44759174Y-116412522D01*
X44829682Y-116483030D01*
X44863167Y-116544353D01*
X44858183Y-116614045D01*
X44829682Y-116658392D01*
X44823856Y-116664217D01*
X44620738Y-116918920D01*
X44447413Y-117194765D01*
X44306066Y-117488274D01*
X44198471Y-117795761D01*
X44198467Y-117795773D01*
X44125976Y-118113379D01*
X44125974Y-118113395D01*
X44089500Y-118437106D01*
X44089500Y-118762893D01*
X44125974Y-119086604D01*
X44125976Y-119086620D01*
X44198467Y-119404226D01*
X44198471Y-119404238D01*
X44265805Y-119596666D01*
X44306065Y-119711722D01*
X44447415Y-120005237D01*
X44470493Y-120041965D01*
X44489500Y-120107937D01*
X44489500Y-121098682D01*
X44469815Y-121165721D01*
X44453181Y-121186363D01*
X43971176Y-121668367D01*
X43752983Y-121934235D01*
X43752981Y-121934238D01*
X43641196Y-122101538D01*
X43561904Y-122220206D01*
X43561893Y-122220224D01*
X43399772Y-122523530D01*
X43399770Y-122523535D01*
X43268150Y-122841293D01*
X43168308Y-123170427D01*
X43101210Y-123507750D01*
X43067500Y-123850034D01*
X43067500Y-126129683D01*
X43047815Y-126196722D01*
X42995011Y-126242477D01*
X42925853Y-126252421D01*
X42862297Y-126223396D01*
X42855819Y-126217364D01*
X38096819Y-121458364D01*
X38063334Y-121397041D01*
X38060500Y-121370683D01*
X38060500Y-120107937D01*
X38079506Y-120041965D01*
X38102585Y-120005237D01*
X38243935Y-119711722D01*
X38351532Y-119404227D01*
X38424024Y-119086617D01*
X38460500Y-118762889D01*
X38460500Y-118437111D01*
X38424024Y-118113383D01*
X38351532Y-117795773D01*
X38243935Y-117488278D01*
X38102585Y-117194763D01*
X37929261Y-116918919D01*
X37726143Y-116664217D01*
X37649607Y-116587681D01*
X37616122Y-116526358D01*
X37621106Y-116456666D01*
X37649607Y-116412319D01*
X37726143Y-116335783D01*
X37929261Y-116081081D01*
X38102585Y-115805237D01*
X38243935Y-115511722D01*
X38351532Y-115204227D01*
X38424024Y-114886617D01*
X38460500Y-114562889D01*
X38460500Y-114237111D01*
X38424024Y-113913383D01*
X38351532Y-113595773D01*
X38243935Y-113288278D01*
X38102585Y-112994763D01*
X38079505Y-112958031D01*
X38060500Y-112892060D01*
X38060500Y-111901317D01*
X38080185Y-111834278D01*
X38096814Y-111813640D01*
X38156828Y-111753627D01*
X38375019Y-111487760D01*
X38566100Y-111201787D01*
X38728231Y-110898462D01*
X38859850Y-110580705D01*
X38959690Y-110251578D01*
X39026789Y-109914250D01*
X39060500Y-109571969D01*
X39060500Y-104759164D01*
X39062883Y-104734972D01*
X39106788Y-104514250D01*
X39140500Y-104171969D01*
X39140500Y-103881947D01*
X52140000Y-103881947D01*
X52140000Y-104118052D01*
X52176934Y-104351247D01*
X52249897Y-104575802D01*
X52357087Y-104786174D01*
X52417338Y-104869104D01*
X52417340Y-104869105D01*
X53157037Y-104129408D01*
X53174075Y-104192993D01*
X53239901Y-104307007D01*
X53332993Y-104400099D01*
X53447007Y-104465925D01*
X53510590Y-104482962D01*
X52770893Y-105222658D01*
X52853828Y-105282914D01*
X53064197Y-105390102D01*
X53288752Y-105463065D01*
X53288751Y-105463065D01*
X53521948Y-105500000D01*
X53758052Y-105500000D01*
X53991247Y-105463065D01*
X54215802Y-105390102D01*
X54426163Y-105282918D01*
X54426169Y-105282914D01*
X54509104Y-105222658D01*
X54509105Y-105222658D01*
X53769408Y-104482962D01*
X53832993Y-104465925D01*
X53947007Y-104400099D01*
X54040099Y-104307007D01*
X54105925Y-104192993D01*
X54122962Y-104129409D01*
X54862658Y-104869105D01*
X54862658Y-104869104D01*
X54922914Y-104786169D01*
X54922918Y-104786163D01*
X55030102Y-104575802D01*
X55103065Y-104351247D01*
X55140000Y-104118052D01*
X55140000Y-103881947D01*
X55103065Y-103648752D01*
X55030102Y-103424197D01*
X54922914Y-103213828D01*
X54862658Y-103130894D01*
X54862658Y-103130893D01*
X54122962Y-103870590D01*
X54105925Y-103807007D01*
X54040099Y-103692993D01*
X53947007Y-103599901D01*
X53832993Y-103534075D01*
X53769409Y-103517037D01*
X54509105Y-102777340D01*
X54509104Y-102777338D01*
X54426174Y-102717087D01*
X54215802Y-102609897D01*
X53991247Y-102536934D01*
X53991248Y-102536934D01*
X53758052Y-102500000D01*
X53521948Y-102500000D01*
X53288752Y-102536934D01*
X53064197Y-102609897D01*
X52853830Y-102717084D01*
X52770894Y-102777340D01*
X53510591Y-103517037D01*
X53447007Y-103534075D01*
X53332993Y-103599901D01*
X53239901Y-103692993D01*
X53174075Y-103807007D01*
X53157037Y-103870591D01*
X52417340Y-103130894D01*
X52357084Y-103213830D01*
X52249897Y-103424197D01*
X52176934Y-103648752D01*
X52140000Y-103881947D01*
X39140500Y-103881947D01*
X39140500Y-103828031D01*
X39106788Y-103485750D01*
X39081766Y-103359958D01*
X39039694Y-103148442D01*
X39039691Y-103148431D01*
X39039690Y-103148428D01*
X39039689Y-103148422D01*
X38939850Y-102819295D01*
X38808231Y-102501538D01*
X38646100Y-102198213D01*
X38455020Y-101912240D01*
X38236828Y-101646373D01*
X38236827Y-101646372D01*
X38236823Y-101646367D01*
X37993632Y-101403176D01*
X37727765Y-101184984D01*
X37727764Y-101184983D01*
X37727760Y-101184980D01*
X37651445Y-101133988D01*
X37441800Y-100993908D01*
X37441782Y-100993897D01*
X37138469Y-100831772D01*
X37138464Y-100831770D01*
X37110495Y-100820185D01*
X36984493Y-100767993D01*
X36820706Y-100700150D01*
X36491568Y-100600308D01*
X36491557Y-100600305D01*
X36154256Y-100533213D01*
X36154239Y-100533210D01*
X35873080Y-100505519D01*
X35811969Y-100499500D01*
X35468031Y-100499500D01*
X35406920Y-100505519D01*
X35125760Y-100533210D01*
X35125743Y-100533213D01*
X34788442Y-100600305D01*
X34788431Y-100600308D01*
X34459293Y-100700150D01*
X34141535Y-100831770D01*
X34141530Y-100831772D01*
X33838217Y-100993897D01*
X33838199Y-100993908D01*
X33552248Y-101184974D01*
X33552234Y-101184984D01*
X33286367Y-101403176D01*
X32963176Y-101726367D01*
X32744984Y-101992234D01*
X32744977Y-101992243D01*
X32666260Y-102110052D01*
X32587185Y-102228398D01*
X32573852Y-102248351D01*
X32553899Y-102278213D01*
X32391772Y-102581530D01*
X32391770Y-102581535D01*
X32260150Y-102899293D01*
X32160308Y-103228427D01*
X32093210Y-103565750D01*
X32074404Y-103756700D01*
X32059941Y-103903561D01*
X32059500Y-103908034D01*
X30500500Y-103908034D01*
X30500500Y-83378711D01*
X60024500Y-83378711D01*
X60024500Y-83621288D01*
X60047717Y-83797648D01*
X60056162Y-83861789D01*
X60087554Y-83978944D01*
X60118947Y-84096104D01*
X60205282Y-84304534D01*
X60211776Y-84320212D01*
X60333064Y-84530289D01*
X60333066Y-84530292D01*
X60333067Y-84530293D01*
X60443731Y-84674514D01*
X60468925Y-84739683D01*
X60454887Y-84808128D01*
X60443731Y-84825486D01*
X60333067Y-84969706D01*
X60211777Y-85179785D01*
X60211773Y-85179794D01*
X60118947Y-85403895D01*
X60056161Y-85638214D01*
X60024500Y-85878711D01*
X60024500Y-86121288D01*
X60056161Y-86361785D01*
X60118947Y-86596104D01*
X60211773Y-86820205D01*
X60211776Y-86820212D01*
X60333064Y-87030289D01*
X60333066Y-87030292D01*
X60333067Y-87030293D01*
X60480733Y-87222736D01*
X60480739Y-87222743D01*
X60652256Y-87394260D01*
X60652262Y-87394265D01*
X60844711Y-87541936D01*
X61054788Y-87663224D01*
X61278900Y-87756054D01*
X61513211Y-87818838D01*
X61693586Y-87842584D01*
X61753711Y-87850500D01*
X61753712Y-87850500D01*
X62246289Y-87850500D01*
X62294388Y-87844167D01*
X62486789Y-87818838D01*
X62721100Y-87756054D01*
X62945212Y-87663224D01*
X63155289Y-87541936D01*
X63347738Y-87394265D01*
X63519265Y-87222738D01*
X63666936Y-87030289D01*
X63788224Y-86820212D01*
X63881054Y-86596100D01*
X63943838Y-86361789D01*
X63975500Y-86121288D01*
X63975500Y-85878712D01*
X63943838Y-85638211D01*
X63881054Y-85403900D01*
X63788224Y-85179788D01*
X63666936Y-84969711D01*
X63556266Y-84825483D01*
X63531074Y-84760317D01*
X63545112Y-84691873D01*
X63556261Y-84674523D01*
X63666936Y-84530289D01*
X63788224Y-84320212D01*
X63881054Y-84096100D01*
X63943838Y-83861789D01*
X63975500Y-83621288D01*
X63975500Y-83378712D01*
X63943838Y-83138211D01*
X63881054Y-82903900D01*
X63788224Y-82679788D01*
X63666936Y-82469711D01*
X63519265Y-82277262D01*
X63519260Y-82277256D01*
X63383987Y-82141983D01*
X63350502Y-82080660D01*
X63355486Y-82010968D01*
X63366130Y-81989204D01*
X63409355Y-81919126D01*
X63409358Y-81919119D01*
X63464505Y-81752697D01*
X63464506Y-81752690D01*
X63474999Y-81649986D01*
X63475000Y-81649973D01*
X63475000Y-81250000D01*
X62404146Y-81250000D01*
X62442630Y-81183343D01*
X62475000Y-81062535D01*
X62475000Y-80937465D01*
X62442630Y-80816657D01*
X62404146Y-80750000D01*
X63474999Y-80750000D01*
X63474999Y-80350028D01*
X63474998Y-80350013D01*
X63464505Y-80247302D01*
X63409358Y-80080880D01*
X63409356Y-80080875D01*
X63317315Y-79931654D01*
X63193345Y-79807684D01*
X63044124Y-79715643D01*
X63044119Y-79715641D01*
X62877697Y-79660494D01*
X62877690Y-79660493D01*
X62774986Y-79650000D01*
X62250000Y-79650000D01*
X62250000Y-80595854D01*
X62183343Y-80557370D01*
X62062535Y-80525000D01*
X61937465Y-80525000D01*
X61816657Y-80557370D01*
X61750000Y-80595854D01*
X61750000Y-79650000D01*
X61225028Y-79650000D01*
X61225012Y-79650001D01*
X61122302Y-79660494D01*
X60955880Y-79715641D01*
X60955875Y-79715643D01*
X60806654Y-79807684D01*
X60682684Y-79931654D01*
X60590643Y-80080875D01*
X60590641Y-80080880D01*
X60535494Y-80247302D01*
X60535493Y-80247309D01*
X60525000Y-80350013D01*
X60525000Y-80750000D01*
X61595854Y-80750000D01*
X61557370Y-80816657D01*
X61525000Y-80937465D01*
X61525000Y-81062535D01*
X61557370Y-81183343D01*
X61595854Y-81250000D01*
X60525001Y-81250000D01*
X60525001Y-81649986D01*
X60535494Y-81752697D01*
X60590641Y-81919119D01*
X60590645Y-81919128D01*
X60633870Y-81989207D01*
X60652310Y-82056599D01*
X60631387Y-82123263D01*
X60616012Y-82141984D01*
X60480739Y-82277256D01*
X60480733Y-82277263D01*
X60333067Y-82469706D01*
X60211777Y-82679785D01*
X60211773Y-82679794D01*
X60118947Y-82903895D01*
X60056161Y-83138214D01*
X60024500Y-83378711D01*
X30500500Y-83378711D01*
X30500500Y-56768880D01*
X33599500Y-56768880D01*
X33599500Y-56772791D01*
X33599500Y-64091127D01*
X33610609Y-64175499D01*
X33610609Y-64175500D01*
X33633728Y-64351112D01*
X33678180Y-64517007D01*
X33701602Y-64604419D01*
X33801951Y-64846685D01*
X33801958Y-64846700D01*
X33909513Y-65032991D01*
X33933076Y-65073803D01*
X33984325Y-65140591D01*
X34092715Y-65281849D01*
X34092721Y-65281856D01*
X34318143Y-65507278D01*
X34318150Y-65507284D01*
X34423032Y-65587762D01*
X34423033Y-65587764D01*
X34526197Y-65666924D01*
X34726927Y-65782815D01*
X34753299Y-65798041D01*
X34753314Y-65798048D01*
X34857721Y-65841294D01*
X34995581Y-65898398D01*
X35248885Y-65966271D01*
X35361766Y-65981130D01*
X35361767Y-65981131D01*
X35361768Y-65981131D01*
X35508880Y-66000500D01*
X35771113Y-66000500D01*
X35771120Y-66000500D01*
X35901118Y-65983385D01*
X36031116Y-65966271D01*
X36284419Y-65898398D01*
X36526697Y-65798043D01*
X36553073Y-65782815D01*
X36753803Y-65666924D01*
X36823340Y-65613566D01*
X36961852Y-65507283D01*
X37147283Y-65321852D01*
X37283356Y-65144517D01*
X37306924Y-65113803D01*
X37438043Y-64886697D01*
X37538398Y-64644419D01*
X37572538Y-64517007D01*
X37606271Y-64391116D01*
X37626275Y-64239168D01*
X37628895Y-64219266D01*
X37628895Y-64219265D01*
X37640500Y-64131120D01*
X37640500Y-63884638D01*
X37640500Y-63881947D01*
X52140000Y-63881947D01*
X52140000Y-64118052D01*
X52176934Y-64351247D01*
X52249897Y-64575802D01*
X52357087Y-64786174D01*
X52417338Y-64869104D01*
X52417340Y-64869105D01*
X53157037Y-64129408D01*
X53174075Y-64192993D01*
X53239901Y-64307007D01*
X53332993Y-64400099D01*
X53447007Y-64465925D01*
X53510590Y-64482962D01*
X52770893Y-65222658D01*
X52853828Y-65282914D01*
X53064197Y-65390102D01*
X53288752Y-65463065D01*
X53288751Y-65463065D01*
X53521948Y-65500000D01*
X53758052Y-65500000D01*
X53991247Y-65463065D01*
X54215802Y-65390102D01*
X54426163Y-65282918D01*
X54426169Y-65282914D01*
X54509104Y-65222658D01*
X54509105Y-65222658D01*
X53769408Y-64482962D01*
X53832993Y-64465925D01*
X53947007Y-64400099D01*
X54040099Y-64307007D01*
X54105925Y-64192993D01*
X54122962Y-64129409D01*
X54862658Y-64869105D01*
X54862658Y-64869104D01*
X54922914Y-64786169D01*
X54922918Y-64786163D01*
X55030102Y-64575802D01*
X55103065Y-64351247D01*
X55140000Y-64118052D01*
X55140000Y-63881947D01*
X55103065Y-63648752D01*
X55030102Y-63424197D01*
X54922914Y-63213828D01*
X54862658Y-63130894D01*
X54862658Y-63130893D01*
X54122962Y-63870590D01*
X54105925Y-63807007D01*
X54040099Y-63692993D01*
X53947007Y-63599901D01*
X53832993Y-63534075D01*
X53769409Y-63517037D01*
X54509105Y-62777340D01*
X54509104Y-62777338D01*
X54426174Y-62717087D01*
X54215802Y-62609897D01*
X53991247Y-62536934D01*
X53991248Y-62536934D01*
X53758052Y-62500000D01*
X53521948Y-62500000D01*
X53288752Y-62536934D01*
X53064197Y-62609897D01*
X52853830Y-62717084D01*
X52770894Y-62777340D01*
X53510591Y-63517037D01*
X53447007Y-63534075D01*
X53332993Y-63599901D01*
X53239901Y-63692993D01*
X53174075Y-63807007D01*
X53157037Y-63870591D01*
X52417340Y-63130894D01*
X52357084Y-63213830D01*
X52249897Y-63424197D01*
X52176934Y-63648752D01*
X52140000Y-63881947D01*
X37640500Y-63881947D01*
X37640500Y-63868880D01*
X37613161Y-63661224D01*
X37606271Y-63608885D01*
X37604725Y-63603115D01*
X37600500Y-63571021D01*
X37600500Y-57779996D01*
X37620185Y-57712957D01*
X37636819Y-57692315D01*
X37729233Y-57599901D01*
X37843328Y-57485805D01*
X37904649Y-57452322D01*
X37974340Y-57457306D01*
X38030274Y-57499177D01*
X38054691Y-57564642D01*
X38048939Y-57611804D01*
X38036934Y-57648753D01*
X38000000Y-57881947D01*
X38000000Y-58118052D01*
X38036934Y-58351247D01*
X38109897Y-58575802D01*
X38217087Y-58786174D01*
X38277338Y-58869104D01*
X38277340Y-58869105D01*
X39017037Y-58129408D01*
X39034075Y-58192993D01*
X39099901Y-58307007D01*
X39192993Y-58400099D01*
X39307007Y-58465925D01*
X39370590Y-58482962D01*
X38630893Y-59222658D01*
X38713828Y-59282914D01*
X38924197Y-59390102D01*
X39148752Y-59463065D01*
X39148751Y-59463065D01*
X39381948Y-59500000D01*
X39618052Y-59500000D01*
X39851247Y-59463065D01*
X40075802Y-59390102D01*
X40286163Y-59282918D01*
X40286169Y-59282914D01*
X40369104Y-59222658D01*
X40369105Y-59222658D01*
X39629408Y-58482962D01*
X39692993Y-58465925D01*
X39807007Y-58400099D01*
X39900099Y-58307007D01*
X39965925Y-58192993D01*
X39982962Y-58129408D01*
X40722658Y-58869105D01*
X40722658Y-58869104D01*
X40782914Y-58786169D01*
X40782918Y-58786163D01*
X40890102Y-58575802D01*
X40963065Y-58351247D01*
X41000000Y-58118052D01*
X41000000Y-57881947D01*
X40963065Y-57648752D01*
X40890102Y-57424197D01*
X40782914Y-57213828D01*
X40722658Y-57130894D01*
X40722658Y-57130893D01*
X39982962Y-57870590D01*
X39965925Y-57807007D01*
X39900099Y-57692993D01*
X39807007Y-57599901D01*
X39692993Y-57534075D01*
X39629408Y-57517037D01*
X40369105Y-56777340D01*
X40369104Y-56777338D01*
X40286174Y-56717087D01*
X40075802Y-56609897D01*
X39851247Y-56536934D01*
X39851248Y-56536934D01*
X39618052Y-56500000D01*
X39381948Y-56500000D01*
X39148753Y-56536934D01*
X39111804Y-56548939D01*
X39041963Y-56550933D01*
X38982131Y-56514851D01*
X38951304Y-56452149D01*
X38959270Y-56382735D01*
X38985804Y-56343329D01*
X40292315Y-55036819D01*
X40353638Y-55003334D01*
X40379996Y-55000500D01*
X48368880Y-55000500D01*
X48575500Y-55000500D01*
X48642539Y-55020185D01*
X48688294Y-55072989D01*
X48699500Y-55124500D01*
X48699500Y-58131127D01*
X48733730Y-58391118D01*
X48742775Y-58424873D01*
X48747000Y-58456966D01*
X48747000Y-59058028D01*
X48747001Y-59058034D01*
X48757613Y-59177415D01*
X48813589Y-59373045D01*
X48813590Y-59373048D01*
X48813591Y-59373049D01*
X48907802Y-59553407D01*
X48907804Y-59553409D01*
X49036390Y-59711109D01*
X49130303Y-59787684D01*
X49194093Y-59839698D01*
X49374451Y-59933909D01*
X49374453Y-59933909D01*
X49374454Y-59933910D01*
X49381402Y-59935898D01*
X49570082Y-59989886D01*
X49689463Y-60000500D01*
X50561267Y-60000499D01*
X50561285Y-60000500D01*
X50568880Y-60000500D01*
X50838716Y-60000500D01*
X50838732Y-60000499D01*
X51710528Y-60000499D01*
X51710536Y-60000499D01*
X51829918Y-59989886D01*
X52025549Y-59933909D01*
X52205907Y-59839698D01*
X52363609Y-59711109D01*
X52492198Y-59553407D01*
X52542639Y-59456841D01*
X52591125Y-59406535D01*
X52659112Y-59390428D01*
X52690866Y-59396323D01*
X52899871Y-59464234D01*
X52990000Y-59478509D01*
X52990000Y-58490747D01*
X53027708Y-58512518D01*
X53167591Y-58550000D01*
X53312409Y-58550000D01*
X53452292Y-58512518D01*
X53490000Y-58490747D01*
X53490000Y-59478508D01*
X53580128Y-59464234D01*
X53797570Y-59393582D01*
X54001277Y-59289788D01*
X54062032Y-59245646D01*
X54127838Y-59222165D01*
X54195892Y-59237990D01*
X54233294Y-59270476D01*
X54272712Y-59321846D01*
X54272721Y-59321856D01*
X54495643Y-59544778D01*
X54495650Y-59544784D01*
X54613368Y-59635111D01*
X54613369Y-59635112D01*
X54703698Y-59704425D01*
X54703701Y-59704427D01*
X54865850Y-59798043D01*
X54865851Y-59798043D01*
X54930803Y-59835543D01*
X55173081Y-59935898D01*
X55426384Y-60003771D01*
X55556382Y-60020885D01*
X55686380Y-60038000D01*
X59875500Y-60038000D01*
X59942539Y-60057685D01*
X59988294Y-60110489D01*
X59999500Y-60162000D01*
X59999500Y-64813000D01*
X59979815Y-64880039D01*
X59927011Y-64925794D01*
X59875500Y-64937000D01*
X58643539Y-64937000D01*
X58613240Y-64933241D01*
X58421417Y-64884905D01*
X58421413Y-64884904D01*
X58359596Y-64880039D01*
X58289217Y-64874500D01*
X58289215Y-64874500D01*
X56910791Y-64874500D01*
X56910776Y-64874501D01*
X56778586Y-64884904D01*
X56778579Y-64884905D01*
X56560321Y-64939902D01*
X56560318Y-64939903D01*
X56355377Y-65032991D01*
X56355367Y-65032997D01*
X56170354Y-65161174D01*
X56170342Y-65161184D01*
X56011184Y-65320342D01*
X56011174Y-65320354D01*
X55882997Y-65505367D01*
X55882991Y-65505377D01*
X55789903Y-65710318D01*
X55789902Y-65710321D01*
X55734905Y-65928579D01*
X55734904Y-65928586D01*
X55724500Y-66060777D01*
X55724500Y-66814208D01*
X55724501Y-66814223D01*
X55734904Y-66946413D01*
X55734905Y-66946420D01*
X55789902Y-67164678D01*
X55789903Y-67164681D01*
X55882991Y-67369622D01*
X55882997Y-67369632D01*
X56011174Y-67554645D01*
X56011178Y-67554650D01*
X56011181Y-67554654D01*
X56170346Y-67713819D01*
X56170350Y-67713822D01*
X56170354Y-67713825D01*
X56291956Y-67798072D01*
X56335853Y-67852431D01*
X56343392Y-67921893D01*
X56312181Y-67984404D01*
X56291956Y-68001928D01*
X56170354Y-68086174D01*
X56170342Y-68086184D01*
X56011184Y-68245342D01*
X56011174Y-68245354D01*
X55882997Y-68430367D01*
X55882991Y-68430377D01*
X55789903Y-68635318D01*
X55789902Y-68635321D01*
X55734905Y-68853579D01*
X55734904Y-68853586D01*
X55724500Y-68985777D01*
X55724500Y-69739208D01*
X55724501Y-69739223D01*
X55734904Y-69871413D01*
X55734905Y-69871420D01*
X55789902Y-70089678D01*
X55789903Y-70089681D01*
X55882991Y-70294622D01*
X55882997Y-70294632D01*
X56011174Y-70479645D01*
X56011178Y-70479650D01*
X56011181Y-70479654D01*
X56170346Y-70638819D01*
X56170350Y-70638822D01*
X56170354Y-70638825D01*
X56210930Y-70666936D01*
X56355374Y-70767007D01*
X56560317Y-70860096D01*
X56560321Y-70860097D01*
X56778579Y-70915094D01*
X56778581Y-70915094D01*
X56778588Y-70915096D01*
X56910783Y-70925500D01*
X58289216Y-70925499D01*
X58345591Y-70921062D01*
X58413966Y-70935426D01*
X58463723Y-70984477D01*
X58479062Y-71052642D01*
X58478936Y-71054407D01*
X58474500Y-71110772D01*
X58474500Y-72489208D01*
X58474501Y-72489223D01*
X58484904Y-72621413D01*
X58484905Y-72621420D01*
X58539902Y-72839678D01*
X58539903Y-72839681D01*
X58632991Y-73044622D01*
X58632997Y-73044632D01*
X58761174Y-73229645D01*
X58761178Y-73229650D01*
X58761181Y-73229654D01*
X58920346Y-73388819D01*
X58920350Y-73388822D01*
X58920354Y-73388825D01*
X59059603Y-73485297D01*
X59105374Y-73517007D01*
X59310317Y-73610096D01*
X59310321Y-73610097D01*
X59528579Y-73665094D01*
X59528581Y-73665094D01*
X59528588Y-73665096D01*
X59660783Y-73675500D01*
X60414216Y-73675499D01*
X60546412Y-73665096D01*
X60764683Y-73610096D01*
X60969626Y-73517007D01*
X61154654Y-73388819D01*
X61313819Y-73229654D01*
X61398073Y-73108039D01*
X61422041Y-73088684D01*
X61444609Y-73067717D01*
X61448978Y-73066933D01*
X61452430Y-73064146D01*
X61483049Y-73060822D01*
X61513381Y-73055382D01*
X61517480Y-73057084D01*
X61521892Y-73056606D01*
X61549451Y-73070365D01*
X61577905Y-73082186D01*
X61582041Y-73086637D01*
X61584403Y-73087817D01*
X61601927Y-73108040D01*
X61643899Y-73168623D01*
X61677791Y-73217544D01*
X61699788Y-73283861D01*
X61699500Y-73297054D01*
X61699500Y-73502351D01*
X61731522Y-73704534D01*
X61794781Y-73899223D01*
X61887715Y-74081613D01*
X62008028Y-74247213D01*
X62152786Y-74391971D01*
X62307749Y-74504556D01*
X62318390Y-74512287D01*
X62426388Y-74567315D01*
X62500776Y-74605218D01*
X62500778Y-74605218D01*
X62500781Y-74605220D01*
X62605137Y-74639127D01*
X62695465Y-74668477D01*
X62796557Y-74684488D01*
X62897648Y-74700500D01*
X62897649Y-74700500D01*
X63102351Y-74700500D01*
X63102352Y-74700500D01*
X63304534Y-74668477D01*
X63499219Y-74605220D01*
X63681610Y-74512287D01*
X63830477Y-74404130D01*
X63847213Y-74391971D01*
X63847215Y-74391968D01*
X63847219Y-74391966D01*
X63991966Y-74247219D01*
X63991968Y-74247215D01*
X63991971Y-74247213D01*
X64078808Y-74127690D01*
X64112287Y-74081610D01*
X64141138Y-74024986D01*
X64600001Y-74024986D01*
X64610494Y-74127697D01*
X64665641Y-74294119D01*
X64665643Y-74294124D01*
X64757684Y-74443345D01*
X64881654Y-74567315D01*
X65030875Y-74659356D01*
X65030880Y-74659358D01*
X65197302Y-74714505D01*
X65197309Y-74714506D01*
X65300019Y-74724999D01*
X65749999Y-74724999D01*
X66250000Y-74724999D01*
X66699972Y-74724999D01*
X66699986Y-74724998D01*
X66802697Y-74714505D01*
X66969119Y-74659358D01*
X66969124Y-74659356D01*
X67118345Y-74567315D01*
X67242315Y-74443345D01*
X67334356Y-74294124D01*
X67334358Y-74294119D01*
X67389505Y-74127697D01*
X67389506Y-74127690D01*
X67399999Y-74024986D01*
X67400000Y-74024973D01*
X67400000Y-73812500D01*
X66250000Y-73812500D01*
X66250000Y-74724999D01*
X65749999Y-74724999D01*
X65750000Y-74724998D01*
X65750000Y-73812500D01*
X64600001Y-73812500D01*
X64600001Y-74024986D01*
X64141138Y-74024986D01*
X64205220Y-73899219D01*
X64268477Y-73704534D01*
X64300500Y-73502352D01*
X64300500Y-73297648D01*
X64288038Y-73218968D01*
X64291752Y-73190222D01*
X64292581Y-73161250D01*
X64296524Y-73153290D01*
X64296992Y-73149676D01*
X64308154Y-73129577D01*
X64308288Y-73129380D01*
X64367007Y-73044626D01*
X64368513Y-73041309D01*
X64373643Y-73033808D01*
X64396836Y-73014844D01*
X64418355Y-72994016D01*
X64423594Y-72992965D01*
X64427734Y-72989581D01*
X64457497Y-72986167D01*
X64486861Y-72980279D01*
X64491837Y-72982228D01*
X64497148Y-72981619D01*
X64524028Y-72994835D01*
X64551918Y-73005759D01*
X64555050Y-73010089D01*
X64559848Y-73012448D01*
X64575315Y-73038099D01*
X64592873Y-73062368D01*
X64594040Y-73069152D01*
X64595927Y-73072282D01*
X64595734Y-73079005D01*
X64600000Y-73103802D01*
X64600000Y-73312500D01*
X65750000Y-73312500D01*
X66250000Y-73312500D01*
X67399999Y-73312500D01*
X67399999Y-73100028D01*
X67399998Y-73100013D01*
X67389505Y-72997302D01*
X67334358Y-72830880D01*
X67334356Y-72830875D01*
X67242315Y-72681654D01*
X67118345Y-72557684D01*
X66969124Y-72465643D01*
X66969119Y-72465641D01*
X66802697Y-72410494D01*
X66802690Y-72410493D01*
X66699986Y-72400000D01*
X66250000Y-72400000D01*
X66250000Y-73312500D01*
X65750000Y-73312500D01*
X65750000Y-72400000D01*
X65300028Y-72400000D01*
X65300012Y-72400001D01*
X65197302Y-72410494D01*
X65030880Y-72465641D01*
X65030875Y-72465643D01*
X64881654Y-72557684D01*
X64757683Y-72681655D01*
X64743247Y-72705059D01*
X64691297Y-72751782D01*
X64622334Y-72763002D01*
X64558253Y-72735157D01*
X64519399Y-72677087D01*
X64515836Y-72626706D01*
X64514686Y-72626616D01*
X64515095Y-72621414D01*
X64515096Y-72621412D01*
X64525500Y-72489217D01*
X64525499Y-72036826D01*
X64545183Y-71969789D01*
X64597987Y-71924034D01*
X64667146Y-71914090D01*
X64720113Y-71934898D01*
X64730374Y-71942007D01*
X64935317Y-72035096D01*
X64935321Y-72035097D01*
X65153579Y-72090094D01*
X65153581Y-72090094D01*
X65153588Y-72090096D01*
X65285783Y-72100500D01*
X66714216Y-72100499D01*
X66846412Y-72090096D01*
X67064683Y-72035096D01*
X67269626Y-71942007D01*
X67454654Y-71813819D01*
X67613819Y-71654654D01*
X67742007Y-71469626D01*
X67835096Y-71264683D01*
X67890096Y-71046412D01*
X67900500Y-70914217D01*
X67900499Y-69960784D01*
X67890096Y-69828588D01*
X67854365Y-69686789D01*
X67835097Y-69610321D01*
X67835096Y-69610318D01*
X67826378Y-69591125D01*
X67742007Y-69405374D01*
X67742005Y-69405371D01*
X67742003Y-69405367D01*
X67636146Y-69252573D01*
X67614149Y-69186257D01*
X67631497Y-69118575D01*
X67636131Y-69111363D01*
X67717007Y-68994626D01*
X67810096Y-68789683D01*
X67865096Y-68571412D01*
X67875500Y-68439217D01*
X67875499Y-68439215D01*
X67875691Y-68436789D01*
X67876412Y-68436845D01*
X67897770Y-68373385D01*
X67911703Y-68356769D01*
X68115890Y-68152582D01*
X68147275Y-68129780D01*
X68181610Y-68112287D01*
X68347219Y-67991966D01*
X68491966Y-67847219D01*
X68491968Y-67847215D01*
X68491971Y-67847213D01*
X68564221Y-67747768D01*
X68612287Y-67681610D01*
X68705220Y-67499219D01*
X68768477Y-67304534D01*
X68800500Y-67102352D01*
X68800500Y-66897648D01*
X68787287Y-66814223D01*
X68768477Y-66695465D01*
X68726055Y-66564904D01*
X68705220Y-66500781D01*
X68705218Y-66500778D01*
X68705218Y-66500776D01*
X68634399Y-66361788D01*
X68612287Y-66318390D01*
X68552731Y-66236417D01*
X68491971Y-66152786D01*
X68347213Y-66008028D01*
X68181613Y-65887715D01*
X68181612Y-65887714D01*
X68181610Y-65887713D01*
X68124653Y-65858691D01*
X67999223Y-65794781D01*
X67804534Y-65731522D01*
X67629995Y-65703878D01*
X67602352Y-65699500D01*
X67491930Y-65699500D01*
X67424891Y-65679815D01*
X67379136Y-65627011D01*
X67368572Y-65562897D01*
X67374999Y-65499986D01*
X67375000Y-65499973D01*
X67375000Y-65387500D01*
X66250000Y-65387500D01*
X66250000Y-66199999D01*
X66256456Y-66206455D01*
X66275499Y-66207818D01*
X66286281Y-66215889D01*
X66299203Y-66219684D01*
X66313703Y-66236417D01*
X66331432Y-66249690D01*
X66336138Y-66262310D01*
X66344958Y-66272488D01*
X66348109Y-66294405D01*
X66355848Y-66315154D01*
X66352985Y-66328314D01*
X66354902Y-66341646D01*
X66345703Y-66361788D01*
X66340996Y-66383427D01*
X66327726Y-66401151D01*
X66325877Y-66405202D01*
X66319844Y-66411681D01*
X66268342Y-66463182D01*
X66207019Y-66496666D01*
X66180662Y-66499500D01*
X65310791Y-66499500D01*
X65310776Y-66499501D01*
X65178586Y-66509904D01*
X65178579Y-66509905D01*
X64960321Y-66564902D01*
X64960318Y-66564903D01*
X64755377Y-66657991D01*
X64755367Y-66657997D01*
X64570354Y-66786174D01*
X64570342Y-66786184D01*
X64411184Y-66945342D01*
X64411174Y-66945354D01*
X64282997Y-67130367D01*
X64282991Y-67130377D01*
X64189904Y-67335316D01*
X64187892Y-67343301D01*
X64152422Y-67403498D01*
X64090038Y-67434962D01*
X64067651Y-67437000D01*
X63231888Y-67437000D01*
X63180787Y-67425981D01*
X63170830Y-67421477D01*
X63162237Y-67415591D01*
X62976300Y-67333492D01*
X62975768Y-67333252D01*
X62949678Y-67310811D01*
X62923407Y-67288620D01*
X62923237Y-67288067D01*
X62922798Y-67287690D01*
X62912980Y-67254698D01*
X62902879Y-67221834D01*
X62902987Y-67221117D01*
X62902870Y-67220722D01*
X62903244Y-67219430D01*
X62908937Y-67181957D01*
X62963553Y-67013868D01*
X62974237Y-66946412D01*
X63000500Y-66780597D01*
X63000500Y-65499986D01*
X64625001Y-65499986D01*
X64635494Y-65602697D01*
X64690641Y-65769119D01*
X64690643Y-65769124D01*
X64782684Y-65918345D01*
X64906654Y-66042315D01*
X65055875Y-66134356D01*
X65055880Y-66134358D01*
X65222302Y-66189505D01*
X65222309Y-66189506D01*
X65325019Y-66199999D01*
X65749999Y-66199999D01*
X65750000Y-66199998D01*
X65750000Y-65387500D01*
X64625001Y-65387500D01*
X64625001Y-65499986D01*
X63000500Y-65499986D01*
X63000500Y-64775013D01*
X64625000Y-64775013D01*
X64625000Y-64887500D01*
X65750000Y-64887500D01*
X66250000Y-64887500D01*
X67374999Y-64887500D01*
X67374999Y-64775028D01*
X67374998Y-64775013D01*
X67364505Y-64672302D01*
X67309358Y-64505880D01*
X67309356Y-64505875D01*
X67217315Y-64356654D01*
X67093345Y-64232684D01*
X66944124Y-64140643D01*
X66944119Y-64140641D01*
X66777697Y-64085494D01*
X66777690Y-64085493D01*
X66674986Y-64075000D01*
X66250000Y-64075000D01*
X66250000Y-64887500D01*
X65750000Y-64887500D01*
X65750000Y-64075000D01*
X65325028Y-64075000D01*
X65325012Y-64075001D01*
X65222302Y-64085494D01*
X65055880Y-64140641D01*
X65055875Y-64140643D01*
X64906654Y-64232684D01*
X64782684Y-64356654D01*
X64690643Y-64505875D01*
X64690641Y-64505880D01*
X64635494Y-64672302D01*
X64635493Y-64672309D01*
X64625000Y-64775013D01*
X63000500Y-64775013D01*
X63000500Y-60162000D01*
X63020185Y-60094961D01*
X63072989Y-60049206D01*
X63124500Y-60038000D01*
X64253613Y-60038000D01*
X64253620Y-60038000D01*
X64383618Y-60020885D01*
X64513616Y-60003771D01*
X64766919Y-59935898D01*
X65009197Y-59835543D01*
X65038325Y-59818725D01*
X65106220Y-59802253D01*
X65172247Y-59825104D01*
X65215439Y-59880024D01*
X65222083Y-59949577D01*
X65211745Y-59979683D01*
X65211763Y-59979691D01*
X65211648Y-59979967D01*
X65210815Y-59982395D01*
X65209897Y-59984196D01*
X65136934Y-60208752D01*
X65100000Y-60441947D01*
X65100000Y-60678052D01*
X65136934Y-60911247D01*
X65209897Y-61135802D01*
X65317087Y-61346174D01*
X65377338Y-61429104D01*
X65377340Y-61429105D01*
X66117037Y-60689408D01*
X66134075Y-60752993D01*
X66199901Y-60867007D01*
X66292993Y-60960099D01*
X66407007Y-61025925D01*
X66470590Y-61042962D01*
X65730893Y-61782658D01*
X65813828Y-61842914D01*
X66024197Y-61950102D01*
X66248752Y-62023065D01*
X66248751Y-62023065D01*
X66481948Y-62060000D01*
X66718052Y-62060000D01*
X66951247Y-62023065D01*
X67175802Y-61950102D01*
X67386163Y-61842918D01*
X67386169Y-61842914D01*
X67469104Y-61782658D01*
X67469105Y-61782658D01*
X66729408Y-61042962D01*
X66792993Y-61025925D01*
X66907007Y-60960099D01*
X67000099Y-60867007D01*
X67065925Y-60752993D01*
X67082962Y-60689409D01*
X67822658Y-61429105D01*
X67822658Y-61429104D01*
X67882914Y-61346169D01*
X67882918Y-61346163D01*
X67990102Y-61135802D01*
X68063065Y-60911247D01*
X68100000Y-60678052D01*
X68100000Y-60441947D01*
X68063193Y-60209561D01*
X68072147Y-60140268D01*
X68117144Y-60086816D01*
X68183895Y-60066176D01*
X68251209Y-60084901D01*
X68273347Y-60102482D01*
X69463181Y-61292315D01*
X69496666Y-61353638D01*
X69499500Y-61379996D01*
X69499500Y-88141127D01*
X69507743Y-88203730D01*
X69507743Y-88203731D01*
X69533728Y-88401112D01*
X69601602Y-88654419D01*
X69701954Y-88896690D01*
X69701958Y-88896700D01*
X69794044Y-89056197D01*
X69833076Y-89123803D01*
X69902388Y-89214131D01*
X69992715Y-89331849D01*
X69992721Y-89331856D01*
X71623181Y-90962315D01*
X71656666Y-91023638D01*
X71659500Y-91049996D01*
X71659500Y-99886380D01*
X71656910Y-99911592D01*
X71656190Y-99915058D01*
X71633729Y-99998884D01*
X71625574Y-100060832D01*
X71624977Y-100065363D01*
X71624975Y-100065375D01*
X71599500Y-100258872D01*
X71599500Y-103001127D01*
X71618893Y-103148422D01*
X71633730Y-103261116D01*
X71701602Y-103514418D01*
X71701605Y-103514428D01*
X71801953Y-103756690D01*
X71801958Y-103756700D01*
X71933075Y-103983802D01*
X72012543Y-104087367D01*
X72033383Y-104128741D01*
X72066090Y-104243046D01*
X72066091Y-104243049D01*
X72160302Y-104423407D01*
X72160304Y-104423409D01*
X72288890Y-104581109D01*
X72359729Y-104638870D01*
X72446593Y-104709698D01*
X72626951Y-104803909D01*
X72822582Y-104859886D01*
X72941963Y-104870500D01*
X73461267Y-104870499D01*
X73461285Y-104870500D01*
X73468880Y-104870500D01*
X73738716Y-104870500D01*
X73738732Y-104870499D01*
X74258028Y-104870499D01*
X74258036Y-104870499D01*
X74377418Y-104859886D01*
X74573049Y-104803909D01*
X74753407Y-104709698D01*
X74911109Y-104581109D01*
X74952530Y-104530309D01*
X75010148Y-104490794D01*
X75079986Y-104488702D01*
X75121514Y-104508353D01*
X75151737Y-104530312D01*
X75161811Y-104537631D01*
X75204476Y-104592961D01*
X75210454Y-104662575D01*
X75177847Y-104724369D01*
X75176605Y-104725629D01*
X70284312Y-109617923D01*
X70284307Y-109617929D01*
X70188663Y-109749573D01*
X70188662Y-109749575D01*
X70173240Y-109770799D01*
X70087454Y-109939163D01*
X70029059Y-110118881D01*
X69999500Y-110305513D01*
X69999500Y-116694486D01*
X70029059Y-116881118D01*
X70087454Y-117060836D01*
X70154291Y-117192010D01*
X70173240Y-117229199D01*
X70284310Y-117382074D01*
X75284310Y-122382073D01*
X75417927Y-122515690D01*
X75570801Y-122626760D01*
X75602160Y-122642738D01*
X75739163Y-122712545D01*
X75739165Y-122712545D01*
X75739168Y-122712547D01*
X75835497Y-122743846D01*
X75918881Y-122770940D01*
X76105514Y-122800500D01*
X76105519Y-122800500D01*
X113374486Y-122800500D01*
X113561118Y-122770940D01*
X113740832Y-122712547D01*
X113909199Y-122626760D01*
X114062074Y-122515690D01*
X115360944Y-121216818D01*
X115422267Y-121183334D01*
X115448625Y-121180500D01*
X115688004Y-121180500D01*
X115688011Y-121180500D01*
X115922014Y-121149693D01*
X116149993Y-121088606D01*
X116368049Y-120998284D01*
X116572450Y-120880273D01*
X116759699Y-120736592D01*
X116926592Y-120569699D01*
X117070273Y-120382450D01*
X117188284Y-120178049D01*
X117278606Y-119959993D01*
X117339693Y-119732014D01*
X117370500Y-119498011D01*
X117370500Y-119261989D01*
X117339693Y-119027986D01*
X117278606Y-118800007D01*
X117188284Y-118581951D01*
X117188282Y-118581948D01*
X117188280Y-118581943D01*
X117112648Y-118450946D01*
X117070273Y-118377550D01*
X117037105Y-118334325D01*
X116924121Y-118187080D01*
X116925286Y-118186185D01*
X116898469Y-118128381D01*
X116907998Y-118059165D01*
X116924619Y-118033302D01*
X116924121Y-118032920D01*
X116978814Y-117961641D01*
X117070273Y-117842450D01*
X117188284Y-117638049D01*
X117278606Y-117419993D01*
X117339693Y-117192014D01*
X117370500Y-116958011D01*
X117370500Y-116721989D01*
X117339693Y-116487986D01*
X117278606Y-116260007D01*
X117188284Y-116041951D01*
X117188282Y-116041948D01*
X117188280Y-116041943D01*
X117108593Y-115903922D01*
X117092120Y-115836022D01*
X117114972Y-115769995D01*
X117119859Y-115763585D01*
X117209698Y-115653407D01*
X117303909Y-115473049D01*
X117359886Y-115277418D01*
X117370500Y-115158037D01*
X117370499Y-113441964D01*
X117359886Y-113322582D01*
X117303909Y-113126951D01*
X117209698Y-112946593D01*
X117116074Y-112831772D01*
X117081109Y-112788890D01*
X116941765Y-112675271D01*
X116923407Y-112660302D01*
X116743049Y-112566091D01*
X116743048Y-112566090D01*
X116743045Y-112566089D01*
X116612971Y-112528871D01*
X116547418Y-112510114D01*
X116547415Y-112510113D01*
X116547413Y-112510113D01*
X116481102Y-112504217D01*
X116428037Y-112499500D01*
X116428032Y-112499500D01*
X114711971Y-112499500D01*
X114711965Y-112499500D01*
X114711964Y-112499501D01*
X114700316Y-112500536D01*
X114592584Y-112510113D01*
X114396954Y-112566089D01*
X114216587Y-112660305D01*
X114106437Y-112750121D01*
X114042041Y-112777230D01*
X113973211Y-112765220D01*
X113966077Y-112761406D01*
X113828056Y-112681719D01*
X113828045Y-112681714D01*
X113609993Y-112591394D01*
X113490568Y-112559394D01*
X113382014Y-112530307D01*
X113382013Y-112530306D01*
X113382010Y-112530306D01*
X113148020Y-112499501D01*
X113148017Y-112499500D01*
X113148011Y-112499500D01*
X113148004Y-112499500D01*
X112978626Y-112499500D01*
X112911587Y-112479815D01*
X112890945Y-112463181D01*
X111446819Y-111019055D01*
X111413334Y-110957732D01*
X111410500Y-110931374D01*
X111410500Y-104989783D01*
X111430185Y-104922744D01*
X111482989Y-104876989D01*
X111552147Y-104867045D01*
X111553876Y-104867306D01*
X111574038Y-104870500D01*
X111574039Y-104870500D01*
X111825961Y-104870500D01*
X111825962Y-104870500D01*
X112074785Y-104831090D01*
X112314379Y-104753241D01*
X112538845Y-104638870D01*
X112742656Y-104490793D01*
X112882319Y-104351130D01*
X112943642Y-104317645D01*
X113013334Y-104322629D01*
X113057681Y-104351130D01*
X113197345Y-104490794D01*
X113197350Y-104490798D01*
X113358698Y-104608023D01*
X113401155Y-104638870D01*
X113540157Y-104709695D01*
X113625616Y-104753239D01*
X113625618Y-104753239D01*
X113625621Y-104753241D01*
X113865215Y-104831090D01*
X114114038Y-104870500D01*
X114114039Y-104870500D01*
X114365961Y-104870500D01*
X114365962Y-104870500D01*
X114614785Y-104831090D01*
X114854379Y-104753241D01*
X115078845Y-104638870D01*
X115282656Y-104490793D01*
X115422319Y-104351130D01*
X115483642Y-104317645D01*
X115553334Y-104322629D01*
X115597681Y-104351130D01*
X115737345Y-104490794D01*
X115737350Y-104490798D01*
X115898698Y-104608023D01*
X115941155Y-104638870D01*
X116080157Y-104709695D01*
X116165616Y-104753239D01*
X116165618Y-104753239D01*
X116165621Y-104753241D01*
X116405215Y-104831090D01*
X116654038Y-104870500D01*
X116654039Y-104870500D01*
X116905961Y-104870500D01*
X116905962Y-104870500D01*
X117154785Y-104831090D01*
X117394379Y-104753241D01*
X117618845Y-104638870D01*
X117822656Y-104490793D01*
X117962319Y-104351130D01*
X118023642Y-104317645D01*
X118093334Y-104322629D01*
X118137681Y-104351130D01*
X118277345Y-104490794D01*
X118277350Y-104490798D01*
X118438698Y-104608023D01*
X118481155Y-104638870D01*
X118620157Y-104709695D01*
X118705616Y-104753239D01*
X118705618Y-104753239D01*
X118705621Y-104753241D01*
X118945215Y-104831090D01*
X119194038Y-104870500D01*
X119194039Y-104870500D01*
X119445961Y-104870500D01*
X119445962Y-104870500D01*
X119656104Y-104837216D01*
X119725395Y-104846170D01*
X119778847Y-104891166D01*
X119799487Y-104957918D01*
X119799500Y-104959689D01*
X119799500Y-118594486D01*
X119829059Y-118781118D01*
X119887454Y-118960836D01*
X119951537Y-119086604D01*
X119973240Y-119129199D01*
X120084310Y-119282074D01*
X120084312Y-119282076D01*
X121773958Y-120971722D01*
X121796760Y-121003105D01*
X121871630Y-121150045D01*
X121887715Y-121181614D01*
X122008028Y-121347213D01*
X122152786Y-121491971D01*
X122307749Y-121604556D01*
X122318390Y-121612287D01*
X122428453Y-121668367D01*
X122500776Y-121705218D01*
X122500778Y-121705218D01*
X122500781Y-121705220D01*
X122605137Y-121739127D01*
X122695465Y-121768477D01*
X122779513Y-121781789D01*
X122897648Y-121800500D01*
X122897649Y-121800500D01*
X123102351Y-121800500D01*
X123102352Y-121800500D01*
X123304534Y-121768477D01*
X123332714Y-121759320D01*
X123341184Y-121756569D01*
X123379502Y-121750500D01*
X129077630Y-121750500D01*
X129144669Y-121770185D01*
X129190424Y-121822989D01*
X129197402Y-121842399D01*
X129230455Y-121965750D01*
X129243947Y-122016104D01*
X129279332Y-122101530D01*
X129336776Y-122240212D01*
X129458064Y-122450289D01*
X129458066Y-122450292D01*
X129458067Y-122450293D01*
X129584077Y-122614514D01*
X129609271Y-122679683D01*
X129595232Y-122748128D01*
X129584077Y-122765486D01*
X129458067Y-122929706D01*
X129336777Y-123139785D01*
X129336773Y-123139794D01*
X129243947Y-123363895D01*
X129181161Y-123598214D01*
X129149500Y-123838711D01*
X129149500Y-124081288D01*
X129181161Y-124321785D01*
X129243947Y-124556104D01*
X129336773Y-124780205D01*
X129336777Y-124780214D01*
X129337061Y-124780706D01*
X129458064Y-124990289D01*
X129458066Y-124990292D01*
X129458067Y-124990293D01*
X129605733Y-125182736D01*
X129605739Y-125182743D01*
X129684896Y-125261900D01*
X129718381Y-125323223D01*
X129713397Y-125392915D01*
X129707082Y-125406741D01*
X129656403Y-125542620D01*
X129656401Y-125542627D01*
X129650000Y-125602155D01*
X129650000Y-126250000D01*
X130566988Y-126250000D01*
X130534075Y-126307007D01*
X130500000Y-126434174D01*
X130500000Y-126565826D01*
X130534075Y-126692993D01*
X130566988Y-126750000D01*
X129650000Y-126750000D01*
X129650000Y-127397844D01*
X129656401Y-127457372D01*
X129656403Y-127457379D01*
X129706645Y-127592086D01*
X129706649Y-127592093D01*
X129792809Y-127707187D01*
X129792812Y-127707190D01*
X129907906Y-127793350D01*
X129907913Y-127793354D01*
X130042620Y-127843596D01*
X130042627Y-127843598D01*
X130102155Y-127849999D01*
X130102172Y-127850000D01*
X130750000Y-127850000D01*
X130750000Y-126933012D01*
X130807007Y-126965925D01*
X130934174Y-127000000D01*
X131065826Y-127000000D01*
X131192993Y-126965925D01*
X131250000Y-126933012D01*
X131250000Y-127850000D01*
X131897828Y-127850000D01*
X131897844Y-127849999D01*
X131957372Y-127843598D01*
X131957379Y-127843596D01*
X132092086Y-127793354D01*
X132092093Y-127793350D01*
X132207187Y-127707190D01*
X132207190Y-127707187D01*
X132293350Y-127592093D01*
X132293354Y-127592086D01*
X132343596Y-127457379D01*
X132343598Y-127457372D01*
X132349999Y-127397844D01*
X132350000Y-127397827D01*
X132350000Y-126750000D01*
X131433012Y-126750000D01*
X131465925Y-126692993D01*
X131500000Y-126565826D01*
X131500000Y-126434174D01*
X131465925Y-126307007D01*
X131433012Y-126250000D01*
X132350000Y-126250000D01*
X132350000Y-125602172D01*
X132349999Y-125602155D01*
X132343598Y-125542627D01*
X132343596Y-125542620D01*
X132290254Y-125399601D01*
X132291781Y-125399031D01*
X132279100Y-125340735D01*
X132303516Y-125275270D01*
X132315090Y-125261912D01*
X132394265Y-125182738D01*
X132541936Y-124990289D01*
X132663224Y-124780212D01*
X132756054Y-124556100D01*
X132763442Y-124528524D01*
X132795534Y-124472938D01*
X133953828Y-123314646D01*
X134069524Y-123155405D01*
X134158884Y-122980026D01*
X134219709Y-122792826D01*
X134228509Y-122737262D01*
X134232906Y-122709501D01*
X134232906Y-122709500D01*
X134250500Y-122598416D01*
X134250500Y-120401577D01*
X134219709Y-120207173D01*
X134189442Y-120114023D01*
X134189442Y-120114021D01*
X134158886Y-120019978D01*
X134069523Y-119844594D01*
X133953828Y-119685354D01*
X131314646Y-117046172D01*
X131155405Y-116930476D01*
X131126380Y-116915687D01*
X130980030Y-116841117D01*
X130792826Y-116780290D01*
X130598422Y-116749500D01*
X130598417Y-116749500D01*
X123124500Y-116749500D01*
X123057461Y-116729815D01*
X123011706Y-116677011D01*
X123000500Y-116625500D01*
X123000500Y-100505513D01*
X122970940Y-100318881D01*
X122912545Y-100139163D01*
X122826759Y-99970799D01*
X122803572Y-99938886D01*
X122803571Y-99938884D01*
X122715692Y-99817929D01*
X122715687Y-99817923D01*
X116582076Y-93684312D01*
X116582074Y-93684310D01*
X116429199Y-93573240D01*
X116260836Y-93487454D01*
X116081118Y-93429059D01*
X115894486Y-93399500D01*
X115894481Y-93399500D01*
X103978626Y-93399500D01*
X103911587Y-93379815D01*
X103890945Y-93363181D01*
X89474034Y-78946270D01*
X89440549Y-78884947D01*
X89445533Y-78815255D01*
X89487405Y-78759322D01*
X89488832Y-78758269D01*
X89556600Y-78709034D01*
X89679034Y-78586600D01*
X89718683Y-78532026D01*
X89774012Y-78489359D01*
X89843625Y-78483378D01*
X89905421Y-78515982D01*
X89929488Y-78548614D01*
X90011132Y-78708848D01*
X90159201Y-78912649D01*
X90159205Y-78912654D01*
X90337345Y-79090794D01*
X90337350Y-79090798D01*
X90462452Y-79181689D01*
X90541155Y-79238870D01*
X90684184Y-79311747D01*
X90765616Y-79353239D01*
X90765618Y-79353239D01*
X90765621Y-79353241D01*
X91005215Y-79431090D01*
X91254038Y-79470500D01*
X91254039Y-79470500D01*
X91505961Y-79470500D01*
X91505962Y-79470500D01*
X91754785Y-79431090D01*
X91994379Y-79353241D01*
X92218845Y-79238870D01*
X92422656Y-79090793D01*
X92562319Y-78951130D01*
X92623642Y-78917645D01*
X92693334Y-78922629D01*
X92737681Y-78951130D01*
X92877345Y-79090794D01*
X92877350Y-79090798D01*
X93002452Y-79181689D01*
X93081155Y-79238870D01*
X93224184Y-79311747D01*
X93305616Y-79353239D01*
X93305618Y-79353239D01*
X93305621Y-79353241D01*
X93545215Y-79431090D01*
X93794038Y-79470500D01*
X93794039Y-79470500D01*
X94045961Y-79470500D01*
X94045962Y-79470500D01*
X94294785Y-79431090D01*
X94534379Y-79353241D01*
X94758845Y-79238870D01*
X94962656Y-79090793D01*
X95102319Y-78951130D01*
X95163642Y-78917645D01*
X95233334Y-78922629D01*
X95277681Y-78951130D01*
X95417345Y-79090794D01*
X95417350Y-79090798D01*
X95542452Y-79181689D01*
X95621155Y-79238870D01*
X95764184Y-79311747D01*
X95845616Y-79353239D01*
X95845618Y-79353239D01*
X95845621Y-79353241D01*
X96085215Y-79431090D01*
X96334038Y-79470500D01*
X96334039Y-79470500D01*
X96585961Y-79470500D01*
X96585962Y-79470500D01*
X96834785Y-79431090D01*
X97074379Y-79353241D01*
X97298845Y-79238870D01*
X97502656Y-79090793D01*
X97642319Y-78951130D01*
X97703642Y-78917645D01*
X97773334Y-78922629D01*
X97817681Y-78951130D01*
X97957345Y-79090794D01*
X97957350Y-79090798D01*
X98082452Y-79181689D01*
X98161155Y-79238870D01*
X98304184Y-79311747D01*
X98385616Y-79353239D01*
X98385618Y-79353239D01*
X98385621Y-79353241D01*
X98625215Y-79431090D01*
X98874038Y-79470500D01*
X98874039Y-79470500D01*
X99125961Y-79470500D01*
X99125962Y-79470500D01*
X99374785Y-79431090D01*
X99614379Y-79353241D01*
X99838845Y-79238870D01*
X100042656Y-79090793D01*
X100182319Y-78951130D01*
X100243642Y-78917645D01*
X100313334Y-78922629D01*
X100357681Y-78951130D01*
X100497345Y-79090794D01*
X100497350Y-79090798D01*
X100622452Y-79181689D01*
X100701155Y-79238870D01*
X100844184Y-79311747D01*
X100925616Y-79353239D01*
X100925618Y-79353239D01*
X100925621Y-79353241D01*
X101054049Y-79394970D01*
X101165214Y-79431090D01*
X101193949Y-79435641D01*
X101294898Y-79451629D01*
X101358032Y-79481558D01*
X101394964Y-79540869D01*
X101399500Y-79574102D01*
X101399500Y-80651373D01*
X101379815Y-80718412D01*
X101363181Y-80739054D01*
X99428276Y-82673958D01*
X99396890Y-82696762D01*
X99218386Y-82787715D01*
X99052786Y-82908028D01*
X98908028Y-83052786D01*
X98787715Y-83218386D01*
X98694781Y-83400776D01*
X98631522Y-83595465D01*
X98599500Y-83797648D01*
X98599500Y-84002351D01*
X98631522Y-84204534D01*
X98694781Y-84399223D01*
X98787715Y-84581613D01*
X98908028Y-84747213D01*
X99052786Y-84891971D01*
X99190420Y-84991966D01*
X99218390Y-85012287D01*
X99334607Y-85071503D01*
X99400776Y-85105218D01*
X99400778Y-85105218D01*
X99400781Y-85105220D01*
X99505137Y-85139127D01*
X99595465Y-85168477D01*
X99696557Y-85184488D01*
X99797648Y-85200500D01*
X99797649Y-85200500D01*
X100002351Y-85200500D01*
X100002352Y-85200500D01*
X100204534Y-85168477D01*
X100399219Y-85105220D01*
X100581610Y-85012287D01*
X100674590Y-84944732D01*
X100747213Y-84891971D01*
X100747215Y-84891968D01*
X100747219Y-84891966D01*
X100891966Y-84747219D01*
X100891968Y-84747215D01*
X100891971Y-84747213D01*
X101012284Y-84581614D01*
X101012285Y-84581613D01*
X101012287Y-84581610D01*
X101103241Y-84403101D01*
X101126041Y-84371721D01*
X102254434Y-83243328D01*
X102315755Y-83209845D01*
X102385447Y-83214829D01*
X102441380Y-83256701D01*
X102465797Y-83322165D01*
X102452598Y-83387306D01*
X102394782Y-83500776D01*
X102331522Y-83695465D01*
X102299500Y-83897648D01*
X102299500Y-84102351D01*
X102331522Y-84304534D01*
X102394781Y-84499223D01*
X102436760Y-84581610D01*
X102484097Y-84674514D01*
X102487715Y-84681613D01*
X102608028Y-84847213D01*
X102752786Y-84991971D01*
X102907749Y-85104556D01*
X102918390Y-85112287D01*
X103028669Y-85168477D01*
X103100776Y-85205218D01*
X103100778Y-85205218D01*
X103100781Y-85205220D01*
X103205137Y-85239127D01*
X103295465Y-85268477D01*
X103396557Y-85284488D01*
X103497648Y-85300500D01*
X103497649Y-85300500D01*
X103702351Y-85300500D01*
X103702352Y-85300500D01*
X103904534Y-85268477D01*
X104099219Y-85205220D01*
X104281610Y-85112287D01*
X104374590Y-85044732D01*
X104447213Y-84991971D01*
X104447215Y-84991968D01*
X104447219Y-84991966D01*
X104591966Y-84847219D01*
X104591968Y-84847215D01*
X104591971Y-84847213D01*
X104682406Y-84722738D01*
X104712287Y-84681610D01*
X104803241Y-84503101D01*
X104826041Y-84471720D01*
X106045690Y-83252073D01*
X106156760Y-83099199D01*
X106242547Y-82930832D01*
X106300940Y-82751118D01*
X106310372Y-82691567D01*
X106330500Y-82564486D01*
X106330500Y-79589783D01*
X106350185Y-79522744D01*
X106402989Y-79476989D01*
X106472147Y-79467045D01*
X106473876Y-79467306D01*
X106494038Y-79470500D01*
X106494039Y-79470500D01*
X106745961Y-79470500D01*
X106745962Y-79470500D01*
X106994785Y-79431090D01*
X107234379Y-79353241D01*
X107458845Y-79238870D01*
X107662656Y-79090793D01*
X107802319Y-78951130D01*
X107863642Y-78917645D01*
X107933334Y-78922629D01*
X107977681Y-78951130D01*
X108117345Y-79090794D01*
X108117350Y-79090798D01*
X108242452Y-79181689D01*
X108321155Y-79238870D01*
X108464184Y-79311747D01*
X108545616Y-79353239D01*
X108545618Y-79353239D01*
X108545621Y-79353241D01*
X108785215Y-79431090D01*
X109034038Y-79470500D01*
X109034039Y-79470500D01*
X109285961Y-79470500D01*
X109285962Y-79470500D01*
X109534785Y-79431090D01*
X109774379Y-79353241D01*
X109998845Y-79238870D01*
X110202656Y-79090793D01*
X110342319Y-78951130D01*
X110403642Y-78917645D01*
X110473334Y-78922629D01*
X110517681Y-78951130D01*
X110657345Y-79090794D01*
X110657350Y-79090798D01*
X110782452Y-79181689D01*
X110861155Y-79238870D01*
X111004184Y-79311747D01*
X111085616Y-79353239D01*
X111085618Y-79353239D01*
X111085621Y-79353241D01*
X111325215Y-79431090D01*
X111574038Y-79470500D01*
X111574039Y-79470500D01*
X111825961Y-79470500D01*
X111825962Y-79470500D01*
X112074785Y-79431090D01*
X112314379Y-79353241D01*
X112538845Y-79238870D01*
X112742656Y-79090793D01*
X112882319Y-78951130D01*
X112943642Y-78917645D01*
X113013334Y-78922629D01*
X113057681Y-78951130D01*
X113197345Y-79090794D01*
X113197350Y-79090798D01*
X113322452Y-79181689D01*
X113401155Y-79238870D01*
X113544184Y-79311747D01*
X113625616Y-79353239D01*
X113625618Y-79353239D01*
X113625621Y-79353241D01*
X113865215Y-79431090D01*
X114114038Y-79470500D01*
X114114039Y-79470500D01*
X114365961Y-79470500D01*
X114365962Y-79470500D01*
X114614785Y-79431090D01*
X114854379Y-79353241D01*
X115078845Y-79238870D01*
X115282656Y-79090793D01*
X115419119Y-78954330D01*
X115480442Y-78920845D01*
X115550134Y-78925829D01*
X115594481Y-78954330D01*
X115734625Y-79094474D01*
X115734630Y-79094478D01*
X115854667Y-79181689D01*
X115938435Y-79242550D01*
X116081464Y-79315427D01*
X116162896Y-79356919D01*
X116162898Y-79356919D01*
X116162901Y-79356921D01*
X116402495Y-79434770D01*
X116651318Y-79474180D01*
X116651319Y-79474180D01*
X116903241Y-79474180D01*
X116903242Y-79474180D01*
X117152065Y-79434770D01*
X117391659Y-79356921D01*
X117616125Y-79242550D01*
X117819936Y-79094473D01*
X117959599Y-78954810D01*
X118020922Y-78921325D01*
X118090614Y-78926309D01*
X118134961Y-78954810D01*
X118274625Y-79094474D01*
X118274630Y-79094478D01*
X118394667Y-79181689D01*
X118478435Y-79242550D01*
X118621464Y-79315427D01*
X118702896Y-79356919D01*
X118702898Y-79356919D01*
X118702901Y-79356921D01*
X118942495Y-79434770D01*
X119191318Y-79474180D01*
X119191319Y-79474180D01*
X119443241Y-79474180D01*
X119443242Y-79474180D01*
X119692065Y-79434770D01*
X119931659Y-79356921D01*
X120156125Y-79242550D01*
X120359936Y-79094473D01*
X120538073Y-78916336D01*
X120686150Y-78712525D01*
X120800521Y-78488059D01*
X120878370Y-78248465D01*
X120917780Y-77999642D01*
X120917780Y-76947718D01*
X120878370Y-76698895D01*
X120800521Y-76459301D01*
X120800519Y-76459298D01*
X120800519Y-76459296D01*
X120746561Y-76353399D01*
X120686150Y-76234835D01*
X120667232Y-76208797D01*
X120538078Y-76031030D01*
X120538074Y-76031025D01*
X120359934Y-75852885D01*
X120359929Y-75852881D01*
X120156128Y-75704812D01*
X120156127Y-75704811D01*
X120156125Y-75704810D01*
X120022395Y-75636671D01*
X119931663Y-75590440D01*
X119692065Y-75512590D01*
X119681003Y-75510838D01*
X119443242Y-75473180D01*
X119191318Y-75473180D01*
X119066906Y-75492885D01*
X118942494Y-75512590D01*
X118702896Y-75590440D01*
X118478431Y-75704812D01*
X118274630Y-75852881D01*
X118274625Y-75852885D01*
X118134961Y-75992550D01*
X118073638Y-76026035D01*
X118003946Y-76021051D01*
X117959599Y-75992550D01*
X117819934Y-75852885D01*
X117819929Y-75852881D01*
X117616128Y-75704812D01*
X117616127Y-75704811D01*
X117616125Y-75704810D01*
X117482395Y-75636671D01*
X117391663Y-75590440D01*
X117152065Y-75512590D01*
X117141003Y-75510838D01*
X116903242Y-75473180D01*
X116651318Y-75473180D01*
X116526906Y-75492885D01*
X116402494Y-75512590D01*
X116162896Y-75590440D01*
X115938431Y-75704812D01*
X115734631Y-75852880D01*
X115598160Y-75989350D01*
X115536836Y-76022834D01*
X115467145Y-76017849D01*
X115422798Y-75989349D01*
X115282654Y-75849205D01*
X115282649Y-75849201D01*
X115078848Y-75701132D01*
X115078847Y-75701131D01*
X115078845Y-75701130D01*
X115008747Y-75665413D01*
X114854383Y-75586760D01*
X114614785Y-75508910D01*
X114522384Y-75494275D01*
X114365962Y-75469500D01*
X114114038Y-75469500D01*
X114022477Y-75484002D01*
X113865214Y-75508910D01*
X113625616Y-75586760D01*
X113401151Y-75701132D01*
X113197350Y-75849201D01*
X113197345Y-75849205D01*
X113057681Y-75988870D01*
X112996358Y-76022355D01*
X112926666Y-76017371D01*
X112882319Y-75988870D01*
X112742656Y-75849207D01*
X112707149Y-75823410D01*
X112664483Y-75768080D01*
X112658504Y-75698467D01*
X112691109Y-75636671D01*
X112692353Y-75635410D01*
X113066100Y-75261664D01*
X113490945Y-74836819D01*
X113552268Y-74803334D01*
X113578626Y-74800500D01*
X120494486Y-74800500D01*
X120681118Y-74770940D01*
X120682180Y-74770595D01*
X120860832Y-74712547D01*
X121029199Y-74626760D01*
X121182074Y-74515690D01*
X124497225Y-71200536D01*
X124558546Y-71167053D01*
X124601085Y-71165280D01*
X124678712Y-71175500D01*
X124678719Y-71175500D01*
X124921289Y-71175500D01*
X124985450Y-71167053D01*
X125161789Y-71143838D01*
X125396100Y-71081054D01*
X125620212Y-70988224D01*
X125830289Y-70866936D01*
X126022738Y-70719265D01*
X126194265Y-70547738D01*
X126296813Y-70414093D01*
X126353240Y-70372891D01*
X126422986Y-70368736D01*
X126468074Y-70389262D01*
X126592442Y-70479620D01*
X126781782Y-70576095D01*
X126983871Y-70641757D01*
X127050000Y-70652231D01*
X127050000Y-69604145D01*
X127116657Y-69642630D01*
X127237465Y-69675000D01*
X127362535Y-69675000D01*
X127483343Y-69642630D01*
X127550000Y-69604145D01*
X127550000Y-70652230D01*
X127616126Y-70641757D01*
X127616129Y-70641757D01*
X127818217Y-70576095D01*
X128007557Y-70479620D01*
X128179459Y-70354727D01*
X128179464Y-70354723D01*
X128329723Y-70204464D01*
X128329727Y-70204459D01*
X128454620Y-70032557D01*
X128551095Y-69843217D01*
X128616757Y-69641130D01*
X128616757Y-69641127D01*
X128647030Y-69450000D01*
X127704146Y-69450000D01*
X127742630Y-69383343D01*
X127775000Y-69262535D01*
X127775000Y-69137465D01*
X127742630Y-69016657D01*
X127704146Y-68950000D01*
X128647030Y-68950000D01*
X128616757Y-68758872D01*
X128616757Y-68758869D01*
X128551095Y-68556782D01*
X128454620Y-68367442D01*
X128329727Y-68195540D01*
X128329723Y-68195535D01*
X128179464Y-68045276D01*
X128179459Y-68045272D01*
X128007557Y-67920379D01*
X127818215Y-67823903D01*
X127616124Y-67758241D01*
X127550000Y-67747768D01*
X127550000Y-68795854D01*
X127483343Y-68757370D01*
X127362535Y-68725000D01*
X127237465Y-68725000D01*
X127116657Y-68757370D01*
X127050000Y-68795854D01*
X127050000Y-67747768D01*
X127049999Y-67747768D01*
X126983875Y-67758241D01*
X126781784Y-67823903D01*
X126592442Y-67920379D01*
X126468074Y-68010737D01*
X126402267Y-68034217D01*
X126334214Y-68018391D01*
X126296813Y-67985905D01*
X126194266Y-67852263D01*
X126194260Y-67852256D01*
X126022743Y-67680739D01*
X126022736Y-67680733D01*
X125830293Y-67533067D01*
X125830292Y-67533066D01*
X125830289Y-67533064D01*
X125620212Y-67411776D01*
X125600227Y-67403498D01*
X125396104Y-67318947D01*
X125161785Y-67256161D01*
X124921289Y-67224500D01*
X124921288Y-67224500D01*
X124678712Y-67224500D01*
X124678711Y-67224500D01*
X124438214Y-67256161D01*
X124203895Y-67318947D01*
X123979794Y-67411773D01*
X123979785Y-67411777D01*
X123769706Y-67533067D01*
X123625486Y-67643731D01*
X123560317Y-67668925D01*
X123491872Y-67654887D01*
X123474514Y-67643731D01*
X123330293Y-67533067D01*
X123330292Y-67533066D01*
X123330289Y-67533064D01*
X123120212Y-67411776D01*
X123100227Y-67403498D01*
X122896104Y-67318947D01*
X122661785Y-67256161D01*
X122421289Y-67224500D01*
X122421288Y-67224500D01*
X122178712Y-67224500D01*
X122178711Y-67224500D01*
X121938214Y-67256161D01*
X121703895Y-67318947D01*
X121479794Y-67411773D01*
X121479785Y-67411777D01*
X121269706Y-67533067D01*
X121125486Y-67643731D01*
X121060317Y-67668925D01*
X120991872Y-67654887D01*
X120974514Y-67643731D01*
X120830293Y-67533067D01*
X120830292Y-67533066D01*
X120830289Y-67533064D01*
X120620212Y-67411776D01*
X120600227Y-67403498D01*
X120396104Y-67318947D01*
X120161785Y-67256161D01*
X119921289Y-67224500D01*
X119921288Y-67224500D01*
X119678712Y-67224500D01*
X119678711Y-67224500D01*
X119438214Y-67256161D01*
X119203895Y-67318947D01*
X118979794Y-67411773D01*
X118979785Y-67411777D01*
X118769706Y-67533067D01*
X118625486Y-67643731D01*
X118560317Y-67668925D01*
X118491872Y-67654887D01*
X118474514Y-67643731D01*
X118330293Y-67533067D01*
X118330292Y-67533066D01*
X118330289Y-67533064D01*
X118120212Y-67411776D01*
X118100227Y-67403498D01*
X117896104Y-67318947D01*
X117661785Y-67256161D01*
X117421289Y-67224500D01*
X117421288Y-67224500D01*
X117178712Y-67224500D01*
X117178711Y-67224500D01*
X116938214Y-67256161D01*
X116703895Y-67318947D01*
X116479794Y-67411773D01*
X116479784Y-67411777D01*
X116319492Y-67504322D01*
X116251591Y-67520795D01*
X116186876Y-67498863D01*
X116019632Y-67382997D01*
X116019630Y-67382995D01*
X116019626Y-67382993D01*
X115990197Y-67369626D01*
X115814681Y-67289903D01*
X115814678Y-67289902D01*
X115596420Y-67234905D01*
X115596413Y-67234904D01*
X115552347Y-67231436D01*
X115464217Y-67224500D01*
X115464215Y-67224500D01*
X114135791Y-67224500D01*
X114135776Y-67224501D01*
X114003586Y-67234904D01*
X114003579Y-67234905D01*
X113785321Y-67289902D01*
X113785318Y-67289903D01*
X113580377Y-67382991D01*
X113580367Y-67382997D01*
X113395354Y-67511174D01*
X113395342Y-67511184D01*
X113236184Y-67670342D01*
X113236174Y-67670354D01*
X113107997Y-67855367D01*
X113107991Y-67855377D01*
X113014903Y-68060318D01*
X113014902Y-68060321D01*
X112959905Y-68278579D01*
X112959904Y-68278586D01*
X112949500Y-68410777D01*
X112949500Y-69989208D01*
X112949501Y-69989223D01*
X112959904Y-70121413D01*
X112959905Y-70121420D01*
X113014902Y-70339678D01*
X113014903Y-70339681D01*
X113107991Y-70544622D01*
X113107997Y-70544632D01*
X113236174Y-70729645D01*
X113236178Y-70729650D01*
X113236181Y-70729654D01*
X113395346Y-70888819D01*
X113395350Y-70888822D01*
X113395354Y-70888825D01*
X113462619Y-70935426D01*
X113580374Y-71017007D01*
X113785317Y-71110096D01*
X113785321Y-71110097D01*
X114003579Y-71165094D01*
X114003581Y-71165094D01*
X114003588Y-71165096D01*
X114135783Y-71175500D01*
X115464216Y-71175499D01*
X115596412Y-71165096D01*
X115814683Y-71110096D01*
X116019626Y-71017007D01*
X116186875Y-70901135D01*
X116253191Y-70879139D01*
X116319491Y-70895677D01*
X116479784Y-70988222D01*
X116479785Y-70988222D01*
X116479788Y-70988224D01*
X116703900Y-71081054D01*
X116938211Y-71143838D01*
X117101082Y-71165280D01*
X117178711Y-71175500D01*
X117178712Y-71175500D01*
X117421289Y-71175500D01*
X117485450Y-71167053D01*
X117661789Y-71143838D01*
X117896100Y-71081054D01*
X118120212Y-70988224D01*
X118330289Y-70866936D01*
X118474516Y-70756266D01*
X118539683Y-70731074D01*
X118608127Y-70745112D01*
X118625476Y-70756261D01*
X118769711Y-70866936D01*
X118979788Y-70988224D01*
X119203900Y-71081054D01*
X119438211Y-71143838D01*
X119601082Y-71165280D01*
X119678711Y-71175500D01*
X119678712Y-71175500D01*
X119921289Y-71175500D01*
X119985450Y-71167053D01*
X120161789Y-71143838D01*
X120396100Y-71081054D01*
X120620212Y-70988224D01*
X120830289Y-70866936D01*
X120974516Y-70756266D01*
X121000490Y-70746225D01*
X121025086Y-70733173D01*
X121032625Y-70733802D01*
X121039683Y-70731074D01*
X121066963Y-70736669D01*
X121094713Y-70738986D01*
X121104180Y-70744302D01*
X121108127Y-70745112D01*
X121125476Y-70756261D01*
X121245282Y-70848191D01*
X121251229Y-70852754D01*
X121292431Y-70909182D01*
X121296586Y-70978929D01*
X121263423Y-71038811D01*
X119939055Y-72363181D01*
X119877732Y-72396666D01*
X119851374Y-72399500D01*
X112935514Y-72399500D01*
X112748881Y-72429059D01*
X112569163Y-72487454D01*
X112400799Y-72573240D01*
X112327211Y-72626706D01*
X112247926Y-72684310D01*
X112247924Y-72684312D01*
X112247923Y-72684312D01*
X109483240Y-75448994D01*
X109421917Y-75482479D01*
X109376161Y-75483786D01*
X109331818Y-75476762D01*
X109285962Y-75469500D01*
X109034038Y-75469500D01*
X108942477Y-75484002D01*
X108785214Y-75508910D01*
X108545616Y-75586760D01*
X108321151Y-75701132D01*
X108117351Y-75849200D01*
X107977681Y-75988870D01*
X107969734Y-75993209D01*
X107964310Y-76000455D01*
X107939552Y-76009689D01*
X107916358Y-76022354D01*
X107907328Y-76021708D01*
X107898846Y-76024872D01*
X107873025Y-76019255D01*
X107846666Y-76017370D01*
X107837612Y-76011551D01*
X107830573Y-76010020D01*
X107802319Y-75988869D01*
X107725825Y-75912375D01*
X107692340Y-75851052D01*
X107697324Y-75781360D01*
X107725823Y-75737016D01*
X107815690Y-75647150D01*
X107926760Y-75494275D01*
X108012547Y-75325908D01*
X108070940Y-75146194D01*
X108100500Y-74959562D01*
X108100500Y-64605513D01*
X108070940Y-64418881D01*
X108012545Y-64239163D01*
X107957494Y-64131120D01*
X107926760Y-64070801D01*
X107815690Y-63917927D01*
X107682073Y-63784310D01*
X106275758Y-62377994D01*
X106242274Y-62316673D01*
X106247258Y-62246981D01*
X106289130Y-62191048D01*
X106307168Y-62179818D01*
X106307564Y-62179616D01*
X106479459Y-62054727D01*
X106479464Y-62054723D01*
X106629723Y-61904464D01*
X106629727Y-61904459D01*
X106754620Y-61732557D01*
X106851095Y-61543217D01*
X106916757Y-61341130D01*
X106916757Y-61341127D01*
X106947030Y-61150000D01*
X106004146Y-61150000D01*
X106042630Y-61083343D01*
X106075000Y-60962535D01*
X106075000Y-60837465D01*
X106044999Y-60725500D01*
X108052111Y-60725500D01*
X108119150Y-60745185D01*
X108139792Y-60761819D01*
X109522490Y-62144517D01*
X109713566Y-62283343D01*
X109812992Y-62334003D01*
X109924003Y-62390566D01*
X109924005Y-62390566D01*
X109924008Y-62390568D01*
X109978714Y-62408343D01*
X110148631Y-62463553D01*
X110381903Y-62500500D01*
X110381908Y-62500500D01*
X116618097Y-62500500D01*
X116851368Y-62463553D01*
X116881658Y-62453711D01*
X117075992Y-62390568D01*
X117286434Y-62283343D01*
X117477510Y-62144517D01*
X118444517Y-61177510D01*
X118583343Y-60986433D01*
X118613431Y-60927380D01*
X118661402Y-60876587D01*
X118729222Y-60859791D01*
X118785911Y-60876289D01*
X118979788Y-60988224D01*
X119203900Y-61081054D01*
X119438211Y-61143838D01*
X119618586Y-61167584D01*
X119678711Y-61175500D01*
X119678712Y-61175500D01*
X119921289Y-61175500D01*
X119969388Y-61169167D01*
X120161789Y-61143838D01*
X120396100Y-61081054D01*
X120620212Y-60988224D01*
X120830289Y-60866936D01*
X120974516Y-60756266D01*
X121039683Y-60731074D01*
X121108127Y-60745112D01*
X121125476Y-60756261D01*
X121269711Y-60866936D01*
X121479788Y-60988224D01*
X121703900Y-61081054D01*
X121938211Y-61143838D01*
X122118586Y-61167584D01*
X122178711Y-61175500D01*
X122178712Y-61175500D01*
X122421289Y-61175500D01*
X122469388Y-61169167D01*
X122661789Y-61143838D01*
X122896100Y-61081054D01*
X123120212Y-60988224D01*
X123330289Y-60866936D01*
X123474516Y-60756266D01*
X123539683Y-60731074D01*
X123608127Y-60745112D01*
X123625476Y-60756261D01*
X123769711Y-60866936D01*
X123979788Y-60988224D01*
X124203900Y-61081054D01*
X124438211Y-61143838D01*
X124618586Y-61167584D01*
X124678711Y-61175500D01*
X124678712Y-61175500D01*
X124921289Y-61175500D01*
X124969388Y-61169167D01*
X125161789Y-61143838D01*
X125396100Y-61081054D01*
X125620212Y-60988224D01*
X125830289Y-60866936D01*
X126022738Y-60719265D01*
X126194265Y-60547738D01*
X126296813Y-60414093D01*
X126353240Y-60372891D01*
X126422986Y-60368736D01*
X126468074Y-60389262D01*
X126592442Y-60479620D01*
X126781782Y-60576095D01*
X126983871Y-60641757D01*
X127050000Y-60652231D01*
X127050000Y-59604145D01*
X127116657Y-59642630D01*
X127237465Y-59675000D01*
X127362535Y-59675000D01*
X127483343Y-59642630D01*
X127550000Y-59604145D01*
X127550000Y-60652230D01*
X127616126Y-60641757D01*
X127616129Y-60641757D01*
X127818217Y-60576095D01*
X128007557Y-60479620D01*
X128179459Y-60354727D01*
X128179464Y-60354723D01*
X128329723Y-60204464D01*
X128329727Y-60204459D01*
X128454620Y-60032557D01*
X128551095Y-59843217D01*
X128616757Y-59641130D01*
X128616757Y-59641127D01*
X128647030Y-59450000D01*
X127704146Y-59450000D01*
X127742630Y-59383343D01*
X127775000Y-59262535D01*
X127775000Y-59137465D01*
X127742630Y-59016657D01*
X127704146Y-58950000D01*
X128647030Y-58950000D01*
X128616757Y-58758872D01*
X128616757Y-58758869D01*
X128551095Y-58556782D01*
X128454620Y-58367442D01*
X128329727Y-58195540D01*
X128329723Y-58195535D01*
X128179464Y-58045276D01*
X128179459Y-58045272D01*
X128007557Y-57920379D01*
X127818215Y-57823903D01*
X127616124Y-57758241D01*
X127550000Y-57747768D01*
X127550000Y-58795854D01*
X127483343Y-58757370D01*
X127362535Y-58725000D01*
X127237465Y-58725000D01*
X127116657Y-58757370D01*
X127050000Y-58795854D01*
X127050000Y-57747768D01*
X127049999Y-57747768D01*
X126983875Y-57758241D01*
X126781784Y-57823903D01*
X126592442Y-57920379D01*
X126468074Y-58010737D01*
X126402267Y-58034217D01*
X126334214Y-58018391D01*
X126296813Y-57985905D01*
X126194266Y-57852263D01*
X126194260Y-57852256D01*
X126022743Y-57680739D01*
X126022736Y-57680733D01*
X125830293Y-57533067D01*
X125830292Y-57533066D01*
X125830289Y-57533064D01*
X125621681Y-57412624D01*
X125620214Y-57411777D01*
X125620205Y-57411773D01*
X125396104Y-57318947D01*
X125161785Y-57256161D01*
X124921289Y-57224500D01*
X124921288Y-57224500D01*
X124678712Y-57224500D01*
X124678711Y-57224500D01*
X124438214Y-57256161D01*
X124203895Y-57318947D01*
X123979794Y-57411773D01*
X123979785Y-57411777D01*
X123769706Y-57533067D01*
X123625486Y-57643731D01*
X123560317Y-57668925D01*
X123491872Y-57654887D01*
X123474514Y-57643731D01*
X123330293Y-57533067D01*
X123330292Y-57533066D01*
X123330289Y-57533064D01*
X123121681Y-57412624D01*
X123120214Y-57411777D01*
X123120205Y-57411773D01*
X122896104Y-57318947D01*
X122661785Y-57256161D01*
X122421289Y-57224500D01*
X122421288Y-57224500D01*
X122178712Y-57224500D01*
X122178711Y-57224500D01*
X121938214Y-57256161D01*
X121703895Y-57318947D01*
X121479794Y-57411773D01*
X121479785Y-57411777D01*
X121269706Y-57533067D01*
X121125486Y-57643731D01*
X121060317Y-57668925D01*
X120991872Y-57654887D01*
X120974514Y-57643731D01*
X120830293Y-57533067D01*
X120830292Y-57533066D01*
X120830289Y-57533064D01*
X120621681Y-57412624D01*
X120620214Y-57411777D01*
X120620205Y-57411773D01*
X120396104Y-57318947D01*
X120161785Y-57256161D01*
X119921289Y-57224500D01*
X119921288Y-57224500D01*
X119678712Y-57224500D01*
X119678711Y-57224500D01*
X119438214Y-57256161D01*
X119203895Y-57318947D01*
X118979787Y-57411775D01*
X118979333Y-57412000D01*
X118979183Y-57412025D01*
X118976038Y-57413329D01*
X118975746Y-57412624D01*
X118910500Y-57423989D01*
X118846111Y-57396861D01*
X118806611Y-57339229D01*
X118800500Y-57300782D01*
X118800500Y-57106902D01*
X118763553Y-56873631D01*
X118700037Y-56678151D01*
X118692072Y-56653639D01*
X118691012Y-56649880D01*
X118690568Y-56649008D01*
X118690568Y-56649007D01*
X118583343Y-56438566D01*
X118444517Y-56247490D01*
X110277510Y-48080483D01*
X110086434Y-47941657D01*
X110073557Y-47935096D01*
X109875996Y-47834433D01*
X109651368Y-47761446D01*
X109418097Y-47724500D01*
X109418092Y-47724500D01*
X75276183Y-47724500D01*
X75209144Y-47704815D01*
X75163389Y-47652011D01*
X75153445Y-47582853D01*
X75182470Y-47519297D01*
X75241248Y-47481523D01*
X75256785Y-47478027D01*
X75351247Y-47463065D01*
X75575802Y-47390102D01*
X75786163Y-47282918D01*
X75786169Y-47282914D01*
X75869104Y-47222658D01*
X75869105Y-47222658D01*
X75129408Y-46482962D01*
X75192993Y-46465925D01*
X75307007Y-46400099D01*
X75400099Y-46307007D01*
X75465925Y-46192993D01*
X75482962Y-46129409D01*
X76222658Y-46869105D01*
X76222658Y-46869104D01*
X76282914Y-46786169D01*
X76282918Y-46786163D01*
X76390102Y-46575802D01*
X76463065Y-46351247D01*
X76500000Y-46118052D01*
X76500000Y-45881947D01*
X76463065Y-45648752D01*
X76390102Y-45424197D01*
X76282914Y-45213828D01*
X76222658Y-45130894D01*
X76222658Y-45130893D01*
X75482962Y-45870590D01*
X75465925Y-45807007D01*
X75400099Y-45692993D01*
X75307007Y-45599901D01*
X75192993Y-45534075D01*
X75129409Y-45517037D01*
X75767735Y-44878711D01*
X128149500Y-44878711D01*
X128149500Y-45121288D01*
X128181161Y-45361785D01*
X128243947Y-45596104D01*
X128331306Y-45807007D01*
X128336776Y-45820212D01*
X128458064Y-46030289D01*
X128458066Y-46030292D01*
X128458067Y-46030293D01*
X128605733Y-46222736D01*
X128605739Y-46222743D01*
X128777256Y-46394260D01*
X128777262Y-46394265D01*
X128969711Y-46541936D01*
X129179788Y-46663224D01*
X129403900Y-46756054D01*
X129638211Y-46818838D01*
X129818586Y-46842584D01*
X129878711Y-46850500D01*
X129878712Y-46850500D01*
X130121289Y-46850500D01*
X130169388Y-46844167D01*
X130361789Y-46818838D01*
X130596100Y-46756054D01*
X130820212Y-46663224D01*
X131030289Y-46541936D01*
X131222738Y-46394265D01*
X131394265Y-46222738D01*
X131541936Y-46030289D01*
X131663224Y-45820212D01*
X131756054Y-45596100D01*
X131818838Y-45361789D01*
X131850500Y-45121288D01*
X131850500Y-44878712D01*
X131847364Y-44854895D01*
X131829222Y-44717087D01*
X131818838Y-44638211D01*
X131756054Y-44403900D01*
X131663224Y-44179788D01*
X131541936Y-43969711D01*
X131394265Y-43777262D01*
X131394260Y-43777256D01*
X131222743Y-43605739D01*
X131222736Y-43605733D01*
X131030293Y-43458067D01*
X131030292Y-43458066D01*
X131030289Y-43458064D01*
X130820212Y-43336776D01*
X130820205Y-43336773D01*
X130596104Y-43243947D01*
X130361785Y-43181161D01*
X130121289Y-43149500D01*
X130121288Y-43149500D01*
X129878712Y-43149500D01*
X129878711Y-43149500D01*
X129638214Y-43181161D01*
X129403895Y-43243947D01*
X129179794Y-43336773D01*
X129179785Y-43336777D01*
X128969706Y-43458067D01*
X128777263Y-43605733D01*
X128777256Y-43605739D01*
X128605739Y-43777256D01*
X128605733Y-43777263D01*
X128458067Y-43969706D01*
X128458064Y-43969710D01*
X128458064Y-43969711D01*
X128451845Y-43980483D01*
X128336777Y-44179785D01*
X128336773Y-44179794D01*
X128243947Y-44403895D01*
X128181161Y-44638214D01*
X128149500Y-44878711D01*
X75767735Y-44878711D01*
X75859474Y-44786972D01*
X75869105Y-44777340D01*
X75869104Y-44777338D01*
X75786174Y-44717087D01*
X75575802Y-44609897D01*
X75351247Y-44536934D01*
X75351248Y-44536934D01*
X75118052Y-44500000D01*
X74881948Y-44500000D01*
X74648752Y-44536934D01*
X74424197Y-44609897D01*
X74213830Y-44717084D01*
X74130894Y-44777340D01*
X74870591Y-45517037D01*
X74807007Y-45534075D01*
X74692993Y-45599901D01*
X74599901Y-45692993D01*
X74534075Y-45807007D01*
X74517037Y-45870591D01*
X73777340Y-45130894D01*
X73717084Y-45213830D01*
X73609897Y-45424197D01*
X73536934Y-45648752D01*
X73500000Y-45881947D01*
X73500000Y-46118052D01*
X73536934Y-46351247D01*
X73609897Y-46575802D01*
X73717087Y-46786174D01*
X73777338Y-46869104D01*
X73777340Y-46869105D01*
X74517037Y-46129408D01*
X74534075Y-46192993D01*
X74599901Y-46307007D01*
X74692993Y-46400099D01*
X74807007Y-46465925D01*
X74870590Y-46482962D01*
X74130893Y-47222658D01*
X74213828Y-47282914D01*
X74424197Y-47390102D01*
X74648752Y-47463065D01*
X74648751Y-47463065D01*
X74743215Y-47478027D01*
X74806350Y-47507956D01*
X74843281Y-47567268D01*
X74842283Y-47637130D01*
X74803673Y-47695363D01*
X74739710Y-47723477D01*
X74723817Y-47724500D01*
X72906903Y-47724500D01*
X72673631Y-47761446D01*
X72449003Y-47834433D01*
X72238566Y-47941657D01*
X72129550Y-48020862D01*
X72047490Y-48080483D01*
X72047488Y-48080485D01*
X72047487Y-48080485D01*
X71880485Y-48247487D01*
X71880485Y-48247488D01*
X71880483Y-48247490D01*
X71820862Y-48329550D01*
X71741657Y-48438566D01*
X71634433Y-48649003D01*
X71561446Y-48873631D01*
X71524500Y-49106902D01*
X71524500Y-49343097D01*
X71561446Y-49576368D01*
X71634433Y-49800996D01*
X71741657Y-50011433D01*
X71880483Y-50202510D01*
X72047490Y-50369517D01*
X72238567Y-50508343D01*
X72337991Y-50559002D01*
X72449003Y-50615566D01*
X72449005Y-50615566D01*
X72449008Y-50615568D01*
X72569412Y-50654689D01*
X72673631Y-50688553D01*
X72906903Y-50725500D01*
X72906908Y-50725500D01*
X74453111Y-50725500D01*
X74520150Y-50745185D01*
X74565905Y-50797989D01*
X74575849Y-50867147D01*
X74546824Y-50930703D01*
X74540792Y-50937181D01*
X73614792Y-51863181D01*
X73553469Y-51896666D01*
X73527111Y-51899500D01*
X62724500Y-51899500D01*
X62657461Y-51879815D01*
X62611706Y-51827011D01*
X62600500Y-51775500D01*
X62600500Y-48873043D01*
X62620185Y-48806004D01*
X62672989Y-48760249D01*
X62742147Y-48750305D01*
X62754796Y-48752801D01*
X62803588Y-48765096D01*
X62935783Y-48775500D01*
X64264216Y-48775499D01*
X64396412Y-48765096D01*
X64614683Y-48710096D01*
X64819626Y-48617007D01*
X65004654Y-48488819D01*
X65163819Y-48329654D01*
X65292007Y-48144626D01*
X65385096Y-47939683D01*
X65440096Y-47721412D01*
X65450500Y-47589217D01*
X65450499Y-46749499D01*
X65470183Y-46682461D01*
X65522987Y-46636706D01*
X65574499Y-46625500D01*
X67875501Y-46625500D01*
X67942540Y-46645185D01*
X67988295Y-46697989D01*
X67999501Y-46749500D01*
X67999501Y-46814223D01*
X68009904Y-46946413D01*
X68009905Y-46946420D01*
X68064902Y-47164678D01*
X68064903Y-47164681D01*
X68157991Y-47369622D01*
X68157997Y-47369632D01*
X68286174Y-47554645D01*
X68286178Y-47554650D01*
X68286181Y-47554654D01*
X68445346Y-47713819D01*
X68445350Y-47713822D01*
X68445354Y-47713825D01*
X68576177Y-47804459D01*
X68630374Y-47842007D01*
X68835317Y-47935096D01*
X68835321Y-47935097D01*
X69053579Y-47990094D01*
X69053581Y-47990094D01*
X69053588Y-47990096D01*
X69185783Y-48000500D01*
X70814216Y-48000499D01*
X70946412Y-47990096D01*
X71164683Y-47935096D01*
X71369626Y-47842007D01*
X71554654Y-47713819D01*
X71713819Y-47554654D01*
X71842007Y-47369626D01*
X71935096Y-47164683D01*
X71990096Y-46946412D01*
X72000500Y-46814217D01*
X72000499Y-45185784D01*
X71990096Y-45053588D01*
X71935096Y-44835317D01*
X71932534Y-44829677D01*
X71845568Y-44638214D01*
X71842007Y-44630374D01*
X71810297Y-44584603D01*
X71713825Y-44445354D01*
X71713822Y-44445350D01*
X71713819Y-44445346D01*
X71554654Y-44286181D01*
X71554650Y-44286178D01*
X71554645Y-44286174D01*
X71369632Y-44157997D01*
X71369630Y-44157995D01*
X71369626Y-44157993D01*
X71164683Y-44064904D01*
X71164681Y-44064903D01*
X71164678Y-44064902D01*
X70946420Y-44009905D01*
X70946413Y-44009904D01*
X70814222Y-43999500D01*
X70814217Y-43999500D01*
X70168974Y-43999500D01*
X70101935Y-43979815D01*
X70096108Y-43975832D01*
X69911434Y-43841657D01*
X69700996Y-43734433D01*
X69476368Y-43661446D01*
X69243097Y-43624500D01*
X69243092Y-43624500D01*
X61118092Y-43624500D01*
X49881478Y-43624500D01*
X49881473Y-43624500D01*
X49648201Y-43661446D01*
X49423573Y-43734433D01*
X49213135Y-43841657D01*
X49022058Y-43980484D01*
X49022057Y-43980485D01*
X48172864Y-44829677D01*
X48117277Y-44861771D01*
X47903895Y-44918947D01*
X47679794Y-45011773D01*
X47679785Y-45011777D01*
X47469706Y-45133067D01*
X47277263Y-45280733D01*
X47277256Y-45280739D01*
X47105739Y-45452256D01*
X47003186Y-45585906D01*
X46946758Y-45627108D01*
X46877012Y-45631263D01*
X46831925Y-45610737D01*
X46707557Y-45520379D01*
X46518215Y-45423903D01*
X46316124Y-45358241D01*
X46250000Y-45347768D01*
X46250000Y-46395854D01*
X46183343Y-46357370D01*
X46062535Y-46325000D01*
X45937465Y-46325000D01*
X45816657Y-46357370D01*
X45750000Y-46395854D01*
X45750000Y-45347768D01*
X45749999Y-45347768D01*
X45683875Y-45358241D01*
X45481784Y-45423903D01*
X45292442Y-45520379D01*
X45120540Y-45645272D01*
X45120535Y-45645276D01*
X44970276Y-45795535D01*
X44970272Y-45795540D01*
X44845379Y-45967442D01*
X44748904Y-46156782D01*
X44683242Y-46358869D01*
X44683242Y-46358872D01*
X44652970Y-46550000D01*
X45595854Y-46550000D01*
X45557370Y-46616657D01*
X45525000Y-46737465D01*
X45525000Y-46862535D01*
X45557370Y-46983343D01*
X45595854Y-47050000D01*
X44652970Y-47050000D01*
X44683242Y-47241127D01*
X44683242Y-47241130D01*
X44748904Y-47443217D01*
X44845379Y-47632557D01*
X44970272Y-47804459D01*
X44970276Y-47804464D01*
X45120535Y-47954723D01*
X45120540Y-47954727D01*
X45292442Y-48079620D01*
X45481782Y-48176095D01*
X45683871Y-48241757D01*
X45750000Y-48252231D01*
X45750000Y-47204145D01*
X45816657Y-47242630D01*
X45937465Y-47275000D01*
X46062535Y-47275000D01*
X46183343Y-47242630D01*
X46250000Y-47204145D01*
X46250000Y-48252230D01*
X46316126Y-48241757D01*
X46316129Y-48241757D01*
X46518217Y-48176095D01*
X46707554Y-48079622D01*
X46802614Y-48010557D01*
X46868420Y-47987077D01*
X46936474Y-48002902D01*
X46985169Y-48053008D01*
X46999500Y-48110875D01*
X46999500Y-50875500D01*
X46979815Y-50942539D01*
X46927011Y-50988294D01*
X46875500Y-50999500D01*
X38685791Y-50999500D01*
X38685776Y-50999501D01*
X38553586Y-51009904D01*
X38553579Y-51009905D01*
X38335321Y-51064902D01*
X38335318Y-51064903D01*
X38130377Y-51157991D01*
X38130367Y-51157997D01*
X37945354Y-51286174D01*
X37945342Y-51286184D01*
X37786184Y-51445342D01*
X37786174Y-51445354D01*
X37657997Y-51630367D01*
X37657991Y-51630377D01*
X37564903Y-51835318D01*
X37564902Y-51835321D01*
X37509906Y-52053576D01*
X37509904Y-52053588D01*
X37504320Y-52124531D01*
X37479435Y-52189819D01*
X37468383Y-52202481D01*
X34092721Y-55578143D01*
X34092715Y-55578150D01*
X34045895Y-55639168D01*
X33933075Y-55786197D01*
X33816435Y-55988225D01*
X33801960Y-56013297D01*
X33801954Y-56013309D01*
X33701602Y-56255580D01*
X33667531Y-56382735D01*
X33636110Y-56500000D01*
X33633728Y-56508888D01*
X33625205Y-56573634D01*
X33625164Y-56573947D01*
X33599500Y-56768880D01*
X30500500Y-56768880D01*
X30500500Y-44878711D01*
X33149500Y-44878711D01*
X33149500Y-45121288D01*
X33181161Y-45361785D01*
X33243947Y-45596104D01*
X33331306Y-45807007D01*
X33336776Y-45820212D01*
X33458064Y-46030289D01*
X33458066Y-46030292D01*
X33458067Y-46030293D01*
X33605733Y-46222736D01*
X33605739Y-46222743D01*
X33777256Y-46394260D01*
X33777262Y-46394265D01*
X33969711Y-46541936D01*
X34179788Y-46663224D01*
X34403900Y-46756054D01*
X34638211Y-46818838D01*
X34818586Y-46842584D01*
X34878711Y-46850500D01*
X34878712Y-46850500D01*
X35121289Y-46850500D01*
X35169388Y-46844167D01*
X35361789Y-46818838D01*
X35596100Y-46756054D01*
X35820212Y-46663224D01*
X36030289Y-46541936D01*
X36222738Y-46394265D01*
X36394265Y-46222738D01*
X36541936Y-46030289D01*
X36663224Y-45820212D01*
X36756054Y-45596100D01*
X36818838Y-45361789D01*
X36850500Y-45121288D01*
X36850500Y-44878712D01*
X36847364Y-44854895D01*
X36829222Y-44717087D01*
X36818838Y-44638211D01*
X36756054Y-44403900D01*
X36663224Y-44179788D01*
X36541936Y-43969711D01*
X36394265Y-43777262D01*
X36394260Y-43777256D01*
X36222743Y-43605739D01*
X36222736Y-43605733D01*
X36030293Y-43458067D01*
X36030292Y-43458066D01*
X36030289Y-43458064D01*
X35820212Y-43336776D01*
X35820205Y-43336773D01*
X35596104Y-43243947D01*
X35361785Y-43181161D01*
X35121289Y-43149500D01*
X35121288Y-43149500D01*
X34878712Y-43149500D01*
X34878711Y-43149500D01*
X34638214Y-43181161D01*
X34403895Y-43243947D01*
X34179794Y-43336773D01*
X34179785Y-43336777D01*
X33969706Y-43458067D01*
X33777263Y-43605733D01*
X33777256Y-43605739D01*
X33605739Y-43777256D01*
X33605733Y-43777263D01*
X33458067Y-43969706D01*
X33458064Y-43969710D01*
X33458064Y-43969711D01*
X33451845Y-43980483D01*
X33336777Y-44179785D01*
X33336773Y-44179794D01*
X33243947Y-44403895D01*
X33181161Y-44638214D01*
X33149500Y-44878711D01*
X30500500Y-44878711D01*
X30500500Y-40624500D01*
X30520185Y-40557461D01*
X30572989Y-40511706D01*
X30624500Y-40500500D01*
X134375500Y-40500500D01*
X134442539Y-40520185D01*
G37*
%TD.AperFunction*%
%TD*%
M02*
