%TF.GenerationSoftware,KiCad,Pcbnew,9.0.7-9.0.7~ubuntu24.04.1*%
%TF.CreationDate,2026-03-16T11:14:33+01:00*%
%TF.ProjectId,drill_pcb,6472696c-6c5f-4706-9362-2e6b69636164,rev?*%
%TF.SameCoordinates,Original*%
%TF.FileFunction,Soldermask,Bot*%
%TF.FilePolarity,Negative*%
%FSLAX46Y46*%
G04 Gerber Fmt 4.6, Leading zero omitted, Abs format (unit mm)*
G04 Created by KiCad (PCBNEW 9.0.7-9.0.7~ubuntu24.04.1) date 2026-03-16 11:14:33*
%MOMM*%
%LPD*%
G01*
G04 APERTURE LIST*
G04 Aperture macros list*
%AMRoundRect*
0 Rectangle with rounded corners*
0 $1 Rounding radius*
0 $2 $3 $4 $5 $6 $7 $8 $9 X,Y pos of 4 corners*
0 Add a 4 corners polygon primitive as box body*
4,1,4,$2,$3,$4,$5,$6,$7,$8,$9,$2,$3,0*
0 Add four circle primitives for the rounded corners*
1,1,$1+$1,$2,$3*
1,1,$1+$1,$4,$5*
1,1,$1+$1,$6,$7*
1,1,$1+$1,$8,$9*
0 Add four rect primitives between the rounded corners*
20,1,$1+$1,$2,$3,$4,$5,0*
20,1,$1+$1,$4,$5,$6,$7,0*
20,1,$1+$1,$6,$7,$8,$9,0*
20,1,$1+$1,$8,$9,$2,$3,0*%
G04 Aperture macros list end*
%ADD10RoundRect,0.250000X-0.550000X0.550000X-0.550000X-0.550000X0.550000X-0.550000X0.550000X0.550000X0*%
%ADD11C,1.600000*%
%ADD12RoundRect,0.250001X0.949999X-0.949999X0.949999X0.949999X-0.949999X0.949999X-0.949999X-0.949999X0*%
%ADD13C,2.400000*%
%ADD14C,3.200000*%
%ADD15RoundRect,0.250000X-0.600000X-0.725000X0.600000X-0.725000X0.600000X0.725000X-0.600000X0.725000X0*%
%ADD16O,1.700000X1.950000*%
%ADD17RoundRect,0.250000X0.600000X0.725000X-0.600000X0.725000X-0.600000X-0.725000X0.600000X-0.725000X0*%
%ADD18C,6.451600*%
%ADD19R,1.600000X1.600000*%
%ADD20O,1.600000X1.600000*%
%ADD21O,3.800000X8.000000*%
%ADD22R,1.905000X2.000000*%
%ADD23O,1.905000X2.000000*%
%ADD24C,3.000000*%
%ADD25R,1.200000X2.000000*%
%ADD26O,1.200000X2.000000*%
G04 APERTURE END LIST*
D10*
%TO.C,C3*%
X67000000Y-55560000D03*
D11*
X67000000Y-59060000D03*
%TD*%
D10*
%TO.C,C1*%
X40000000Y-55560000D03*
D11*
X40000000Y-59060000D03*
%TD*%
D12*
%TO.C,C7*%
X59500000Y-116000000D03*
D13*
X59500000Y-111000000D03*
%TD*%
D14*
%TO.C,REF\u002A\u002A*%
X35000000Y-45000000D03*
%TD*%
%TO.C,REF\u002A\u002A*%
X35000000Y-138000000D03*
%TD*%
D15*
%TO.C,J9*%
X104140000Y-68580000D03*
D16*
X106640000Y-68580000D03*
X109140000Y-68580000D03*
%TD*%
D10*
%TO.C,C6*%
X93000000Y-133640000D03*
D11*
X93000000Y-137140000D03*
%TD*%
D17*
%TO.C,J4*%
X86300000Y-68580000D03*
D16*
X83800000Y-68580000D03*
X81300000Y-68580000D03*
X78800000Y-68580000D03*
%TD*%
D18*
%TO.C,J1*%
X46568000Y-134880000D03*
X53680000Y-134455820D03*
%TD*%
D19*
%TO.C,A2*%
X91440000Y-114300000D03*
D20*
X88900000Y-114300000D03*
X86360000Y-114300000D03*
X83820000Y-114300000D03*
X81280000Y-114300000D03*
X78740000Y-114300000D03*
X76200000Y-114300000D03*
X73660000Y-114300000D03*
X73660000Y-127000000D03*
X76200000Y-127000000D03*
X78740000Y-127000000D03*
X81280000Y-127000000D03*
X83820000Y-127000000D03*
X86360000Y-127000000D03*
X88900000Y-127000000D03*
X91440000Y-127000000D03*
X91440000Y-116840000D03*
X91440000Y-119380000D03*
%TD*%
D14*
%TO.C,REF\u002A\u002A*%
X130000000Y-138000000D03*
%TD*%
D17*
%TO.C,J11*%
X82550000Y-134620000D03*
D16*
X80050000Y-134620000D03*
X77550000Y-134620000D03*
X75050000Y-134620000D03*
%TD*%
D15*
%TO.C,J10*%
X53340000Y-45720000D03*
D16*
X55840000Y-45720000D03*
X58340000Y-45720000D03*
X60840000Y-45720000D03*
X63340000Y-45720000D03*
X65840000Y-45720000D03*
X68340000Y-45720000D03*
%TD*%
D21*
%TO.C,F1*%
X46990000Y-123600000D03*
X46990000Y-114300000D03*
%TD*%
D10*
%TO.C,C5*%
X120000000Y-134500000D03*
D11*
X120000000Y-138000000D03*
%TD*%
D15*
%TO.C,J5*%
X104140000Y-59690000D03*
D16*
X106640000Y-59690000D03*
X109140000Y-59690000D03*
%TD*%
D22*
%TO.C,U2*%
X50800000Y-55560000D03*
D23*
X53340000Y-55560000D03*
X55880000Y-55560000D03*
%TD*%
D17*
%TO.C,J8*%
X86360000Y-59690000D03*
D16*
X83860000Y-59690000D03*
X81360000Y-59690000D03*
X78860000Y-59690000D03*
%TD*%
D17*
%TO.C,J7*%
X110370000Y-134620000D03*
D16*
X107870000Y-134620000D03*
X105370000Y-134620000D03*
X102870000Y-134620000D03*
%TD*%
D17*
%TO.C,J6*%
X86300000Y-50800000D03*
D16*
X83800000Y-50800000D03*
X81300000Y-50800000D03*
X78800000Y-50800000D03*
%TD*%
D24*
%TO.C,V1*%
X35640000Y-104000000D03*
X53640000Y-104000000D03*
X53640000Y-64000000D03*
X35640000Y-64000000D03*
%TD*%
D19*
%TO.C,A1*%
X115570000Y-114300000D03*
D20*
X113030000Y-114300000D03*
X110490000Y-114300000D03*
X107950000Y-114300000D03*
X105410000Y-114300000D03*
X102870000Y-114300000D03*
X100330000Y-114300000D03*
X97790000Y-114300000D03*
X97790000Y-127000000D03*
X100330000Y-127000000D03*
X102870000Y-127000000D03*
X105410000Y-127000000D03*
X107950000Y-127000000D03*
X110490000Y-127000000D03*
X113030000Y-127000000D03*
X115570000Y-127000000D03*
X115570000Y-116840000D03*
X115570000Y-119380000D03*
%TD*%
D14*
%TO.C,REF\u002A\u002A*%
X130000000Y-45000000D03*
%TD*%
D18*
%TO.C,J2*%
X65980000Y-127268000D03*
X66404180Y-134380000D03*
%TD*%
D17*
%TO.C,J3*%
X109160000Y-50800000D03*
D16*
X106660000Y-50800000D03*
X104160000Y-50800000D03*
%TD*%
D21*
%TO.C,F2*%
X35560000Y-123600000D03*
X35560000Y-114300000D03*
%TD*%
D25*
%TO.C,U1*%
X73600000Y-102870000D03*
D26*
X76140000Y-102870000D03*
X78680000Y-102870000D03*
X81220000Y-102870000D03*
X83760000Y-102870000D03*
X86300000Y-102870000D03*
X88840000Y-102870000D03*
X91380000Y-102870000D03*
X93920000Y-102870000D03*
X96460000Y-102870000D03*
X99000000Y-102870000D03*
X101540000Y-102870000D03*
X104080000Y-102870000D03*
X106620000Y-102870000D03*
X109160000Y-102870000D03*
X111700000Y-102870000D03*
X114240000Y-102870000D03*
X116780000Y-102870000D03*
X119320000Y-102870000D03*
X119317280Y-77473680D03*
X116777280Y-77473680D03*
X114240000Y-77470000D03*
X111700000Y-77470000D03*
X109160000Y-77470000D03*
X106620000Y-77470000D03*
X104080000Y-77470000D03*
X101540000Y-77470000D03*
X99000000Y-77470000D03*
X96460000Y-77470000D03*
X93920000Y-77470000D03*
X91380000Y-77470000D03*
X88840000Y-77470000D03*
X86300000Y-77470000D03*
X83760000Y-77470000D03*
X81220000Y-77470000D03*
X78680000Y-77470000D03*
X76140000Y-77470000D03*
X73600000Y-77470000D03*
%TD*%
M02*
