%TF.GenerationSoftware,KiCad,Pcbnew,10.0.2*%
%TF.CreationDate,2026-05-14T21:58:33+02:00*%
%TF.ProjectId,drill_pcb,6472696c-6c5f-4706-9362-2e6b69636164,rev?*%
%TF.SameCoordinates,Original*%
%TF.FileFunction,Soldermask,Top*%
%TF.FilePolarity,Negative*%
%FSLAX46Y46*%
G04 Gerber Fmt 4.6, Leading zero omitted, Abs format (unit mm)*
G04 Created by KiCad (PCBNEW 10.0.2) date 2026-05-14 21:58:33*
%MOMM*%
%LPD*%
G01*
G04 APERTURE LIST*
G04 Aperture macros list*
%AMRoundRect*
0 Rectangle with rounded corners*
0 $1 Rounding radius*
0 $2 $3 $4 $5 $6 $7 $8 $9 X,Y pos of 4 corners*
0 Add a 4 corners polygon primitive as box body*
4,1,4,$2,$3,$4,$5,$6,$7,$8,$9,$2,$3,0*
0 Add four circle primitives for the rounded corners*
1,1,$1+$1,$2,$3*
1,1,$1+$1,$4,$5*
1,1,$1+$1,$6,$7*
1,1,$1+$1,$8,$9*
0 Add four rect primitives between the rounded corners*
20,1,$1+$1,$2,$3,$4,$5,0*
20,1,$1+$1,$4,$5,$6,$7,0*
20,1,$1+$1,$6,$7,$8,$9,0*
20,1,$1+$1,$8,$9,$2,$3,0*%
G04 Aperture macros list end*
%ADD10C,3.200000*%
%ADD11RoundRect,0.250000X-0.600000X-0.725000X0.600000X-0.725000X0.600000X0.725000X-0.600000X0.725000X0*%
%ADD12O,1.700000X1.950000*%
%ADD13RoundRect,0.250000X0.600000X0.725000X-0.600000X0.725000X-0.600000X-0.725000X0.600000X-0.725000X0*%
%ADD14RoundRect,0.250000X0.625000X-0.312500X0.625000X0.312500X-0.625000X0.312500X-0.625000X-0.312500X0*%
%ADD15RoundRect,0.250000X-0.550000X0.550000X-0.550000X-0.550000X0.550000X-0.550000X0.550000X0.550000X0*%
%ADD16C,1.600000*%
%ADD17RoundRect,0.250000X0.312500X0.625000X-0.312500X0.625000X-0.312500X-0.625000X0.312500X-0.625000X0*%
%ADD18RoundRect,0.250000X-0.750000X0.750000X-0.750000X-0.750000X0.750000X-0.750000X0.750000X0.750000X0*%
%ADD19C,2.000000*%
%ADD20C,6.451600*%
%ADD21R,1.600000X1.600000*%
%ADD22O,1.600000X1.600000*%
%ADD23RoundRect,0.250001X0.949999X-0.949999X0.949999X0.949999X-0.949999X0.949999X-0.949999X-0.949999X0*%
%ADD24C,2.400000*%
%ADD25C,4.003200*%
%ADD26RoundRect,0.250000X-0.312500X-0.625000X0.312500X-0.625000X0.312500X0.625000X-0.312500X0.625000X0*%
%ADD27RoundRect,0.250000X-0.625000X0.312500X-0.625000X-0.312500X0.625000X-0.312500X0.625000X0.312500X0*%
%ADD28RoundRect,0.250000X-0.725000X0.600000X-0.725000X-0.600000X0.725000X-0.600000X0.725000X0.600000X0*%
%ADD29O,1.950000X1.700000*%
%ADD30R,1.905000X2.000000*%
%ADD31O,1.905000X2.000000*%
%ADD32RoundRect,0.250000X-0.650000X0.412500X-0.650000X-0.412500X0.650000X-0.412500X0.650000X0.412500X0*%
%ADD33R,1.700000X1.700000*%
%ADD34C,1.700000*%
%ADD35RoundRect,0.250000X-0.750000X-0.750000X0.750000X-0.750000X0.750000X0.750000X-0.750000X0.750000X0*%
%ADD36RoundRect,0.150000X0.150000X-0.512500X0.150000X0.512500X-0.150000X0.512500X-0.150000X-0.512500X0*%
%ADD37R,1.200000X2.000000*%
%ADD38O,1.200000X2.000000*%
G04 APERTURE END LIST*
D10*
%TO.C,REF\u002A\u002A*%
X35000000Y-45000000D03*
%TD*%
%TO.C,REF\u002A\u002A*%
X35000000Y-138000000D03*
%TD*%
D11*
%TO.C,J10*%
X100600000Y-69000000D03*
D12*
X103100000Y-69000000D03*
X105600000Y-69000000D03*
%TD*%
D13*
%TO.C,J13*%
X51000000Y-46800000D03*
D12*
X48500000Y-46800000D03*
X46000000Y-46800000D03*
%TD*%
D14*
%TO.C,R6*%
X66000000Y-68062500D03*
X66000000Y-65137500D03*
%TD*%
D15*
%TO.C,C12*%
X93000000Y-133640000D03*
D16*
X93000000Y-137140000D03*
%TD*%
D17*
%TO.C,R4*%
X62962500Y-71800000D03*
X60037500Y-71800000D03*
%TD*%
D18*
%TO.C,C3*%
X66600000Y-55560000D03*
D19*
X66600000Y-60560000D03*
%TD*%
D11*
%TO.C,J12*%
X114800000Y-69200000D03*
D12*
X117300000Y-69200000D03*
X119800000Y-69200000D03*
X122300000Y-69200000D03*
X124800000Y-69200000D03*
X127300000Y-69200000D03*
%TD*%
D13*
%TO.C,J3*%
X86200000Y-70800000D03*
D12*
X83700000Y-70800000D03*
X81200000Y-70800000D03*
X78700000Y-70800000D03*
%TD*%
D11*
%TO.C,J11*%
X114800000Y-59200000D03*
D12*
X117300000Y-59200000D03*
X119800000Y-59200000D03*
X122300000Y-59200000D03*
X124800000Y-59200000D03*
X127300000Y-59200000D03*
%TD*%
D20*
%TO.C,J1*%
X46568000Y-134880000D03*
X53680000Y-134455820D03*
%TD*%
D21*
%TO.C,A2*%
X91440000Y-114300000D03*
D22*
X88900000Y-114300000D03*
X86360000Y-114300000D03*
X83820000Y-114300000D03*
X81280000Y-114300000D03*
X78740000Y-114300000D03*
X76200000Y-114300000D03*
X73660000Y-114300000D03*
X73660000Y-127000000D03*
X76200000Y-127000000D03*
X78740000Y-127000000D03*
X81280000Y-127000000D03*
X83820000Y-127000000D03*
X86360000Y-127000000D03*
X88900000Y-127000000D03*
X91440000Y-127000000D03*
X91440000Y-116840000D03*
X91440000Y-119380000D03*
%TD*%
D10*
%TO.C,REF\u002A\u002A*%
X130000000Y-138000000D03*
%TD*%
D13*
%TO.C,J15*%
X82550000Y-134620000D03*
D12*
X80050000Y-134620000D03*
X77550000Y-134620000D03*
X75050000Y-134620000D03*
%TD*%
D23*
%TO.C,C6*%
X59500000Y-116000000D03*
D24*
X59500000Y-111000000D03*
%TD*%
D25*
%TO.C,F1*%
X46990000Y-123600000D03*
X46990000Y-118600000D03*
X46990000Y-114400000D03*
X46990000Y-109400000D03*
%TD*%
D15*
%TO.C,C5*%
X120000000Y-133500000D03*
D16*
X120000000Y-137000000D03*
%TD*%
D26*
%TO.C,R1*%
X88707500Y-109220000D03*
X91632500Y-109220000D03*
%TD*%
D11*
%TO.C,J4*%
X100600000Y-60900000D03*
D12*
X103100000Y-60900000D03*
X105600000Y-60900000D03*
%TD*%
D27*
%TO.C,R5*%
X57600000Y-66437500D03*
X57600000Y-69362500D03*
%TD*%
D28*
%TO.C,J2*%
X62000000Y-81000000D03*
D29*
X62000000Y-83500000D03*
X62000000Y-86000000D03*
%TD*%
D30*
%TO.C,U2*%
X50700000Y-58000000D03*
D31*
X53240000Y-58000000D03*
X55780000Y-58000000D03*
%TD*%
D13*
%TO.C,J9*%
X86290000Y-62700000D03*
D12*
X83790000Y-62700000D03*
X81290000Y-62700000D03*
X78790000Y-62700000D03*
%TD*%
D13*
%TO.C,J6*%
X110370000Y-134620000D03*
D12*
X107870000Y-134620000D03*
X105370000Y-134620000D03*
X102870000Y-134620000D03*
%TD*%
D32*
%TO.C,C13*%
X66000000Y-70437500D03*
X66000000Y-73562500D03*
%TD*%
D13*
%TO.C,J5*%
X86200000Y-54200000D03*
D12*
X83700000Y-54200000D03*
X81200000Y-54200000D03*
X78700000Y-54200000D03*
%TD*%
D33*
%TO.C,J16*%
X131000000Y-126500000D03*
D34*
X131000000Y-123960000D03*
X131000000Y-121420000D03*
%TD*%
D19*
%TO.C,V1*%
X35640000Y-104000000D03*
X53640000Y-104000000D03*
X53640000Y-64000000D03*
X35640000Y-64000000D03*
%TD*%
D21*
%TO.C,A1*%
X115570000Y-114300000D03*
D22*
X113030000Y-114300000D03*
X110490000Y-114300000D03*
X107950000Y-114300000D03*
X105410000Y-114300000D03*
X102870000Y-114300000D03*
X100330000Y-114300000D03*
X97790000Y-114300000D03*
X97790000Y-127000000D03*
X100330000Y-127000000D03*
X102870000Y-127000000D03*
X105410000Y-127000000D03*
X107950000Y-127000000D03*
X110490000Y-127000000D03*
X113030000Y-127000000D03*
X115570000Y-127000000D03*
X115570000Y-116840000D03*
X115570000Y-119380000D03*
%TD*%
D18*
%TO.C,C1*%
X39500000Y-53000000D03*
D19*
X39500000Y-58000000D03*
%TD*%
D10*
%TO.C,REF\u002A\u002A*%
X130000000Y-45000000D03*
%TD*%
D13*
%TO.C,J14*%
X63600000Y-46800000D03*
D12*
X61100000Y-46800000D03*
X58600000Y-46800000D03*
%TD*%
D20*
%TO.C,J7*%
X65980000Y-127268000D03*
X66404180Y-134380000D03*
%TD*%
D13*
%TO.C,J8*%
X105600000Y-52800000D03*
D12*
X103100000Y-52800000D03*
X100600000Y-52800000D03*
%TD*%
D35*
%TO.C,C11*%
X70000000Y-46000000D03*
D19*
X75000000Y-46000000D03*
%TD*%
D36*
%TO.C,Q3*%
X60550000Y-68937500D03*
X62450000Y-68937500D03*
X61500000Y-66662500D03*
%TD*%
D25*
%TO.C,F2*%
X35560000Y-123600000D03*
X35560000Y-118600000D03*
X35560000Y-114400000D03*
X35560000Y-109400000D03*
%TD*%
D37*
%TO.C,U1*%
X73600000Y-102870000D03*
D38*
X76140000Y-102870000D03*
X78680000Y-102870000D03*
X81220000Y-102870000D03*
X83760000Y-102870000D03*
X86300000Y-102870000D03*
X88840000Y-102870000D03*
X91380000Y-102870000D03*
X93920000Y-102870000D03*
X96460000Y-102870000D03*
X99000000Y-102870000D03*
X101540000Y-102870000D03*
X104080000Y-102870000D03*
X106620000Y-102870000D03*
X109160000Y-102870000D03*
X111700000Y-102870000D03*
X114240000Y-102870000D03*
X116780000Y-102870000D03*
X119320000Y-102870000D03*
X119317280Y-77473680D03*
X116777280Y-77473680D03*
X114240000Y-77470000D03*
X111700000Y-77470000D03*
X109160000Y-77470000D03*
X106620000Y-77470000D03*
X104080000Y-77470000D03*
X101540000Y-77470000D03*
X99000000Y-77470000D03*
X96460000Y-77470000D03*
X93920000Y-77470000D03*
X91380000Y-77470000D03*
X88840000Y-77470000D03*
X86300000Y-77470000D03*
X83760000Y-77470000D03*
X81220000Y-77470000D03*
X78680000Y-77470000D03*
X76140000Y-77470000D03*
X73600000Y-77470000D03*
%TD*%
M02*
