M48
; DRILL file {KiCad 9.0.7-9.0.7~ubuntu24.04.1} date 2026-03-13T08:14:06+0100
; FORMAT={-:-/ absolute / metric / decimal}
; #@! TF.CreationDate,2026-03-13T08:14:06+01:00
; #@! TF.GenerationSoftware,Kicad,Pcbnew,9.0.7-9.0.7~ubuntu24.04.1
; #@! TF.FileFunction,Plated,1,2,PTH
FMAT,2
METRIC
; #@! TA.AperFunction,Plated,PTH,ViaDrill
T1C0.300
; #@! TA.AperFunction,Plated,PTH,ComponentDrill
T2C0.800
; #@! TA.AperFunction,Plated,PTH,ComponentDrill
T3C0.950
; #@! TA.AperFunction,Plated,PTH,ComponentDrill
T4C1.100
; #@! TA.AperFunction,Plated,PTH,ComponentDrill
T5C1.500
; #@! TA.AperFunction,Plated,PTH,ComponentDrill
T6C2.000
; #@! TA.AperFunction,Plated,PTH,ComponentDrill
T7C4.572
%
G90
G05
T1
X63.5Y-52.5
X73.5Y-63.0
X82.5Y-73.0
X93.0Y-52.0
X93.0Y-71.0
X97.5Y-93.5
X106.0Y-105.0
X112.5Y-43.5
X122.5Y-70.0
X126.5Y-122.0
T2
X40.64Y-55.56
X40.64Y-58.06
X67.31Y-55.56
X67.31Y-58.06
X73.6Y-77.47
X73.6Y-102.87
X73.66Y-114.3
X73.66Y-127.0
X76.14Y-77.47
X76.14Y-102.87
X76.2Y-114.3
X76.2Y-127.0
X78.68Y-77.47
X78.68Y-102.87
X78.74Y-114.3
X78.74Y-127.0
X81.22Y-77.47
X81.22Y-102.87
X81.28Y-114.3
X81.28Y-127.0
X83.76Y-77.47
X83.76Y-102.87
X83.82Y-114.3
X83.82Y-127.0
X86.3Y-77.47
X86.3Y-102.87
X86.36Y-114.3
X86.36Y-127.0
X88.84Y-77.47
X88.84Y-102.87
X88.9Y-114.3
X88.9Y-127.0
X91.38Y-77.47
X91.38Y-102.87
X91.44Y-114.3
X91.44Y-116.84
X91.44Y-119.38
X91.44Y-127.0
X93.0Y-133.64
X93.0Y-137.14
X93.92Y-77.47
X93.92Y-102.87
X96.46Y-77.47
X96.46Y-102.87
X97.79Y-114.3
X97.79Y-127.0
X99.0Y-77.47
X99.0Y-102.87
X100.33Y-114.3
X100.33Y-127.0
X101.54Y-77.47
X101.54Y-102.87
X102.87Y-114.3
X102.87Y-127.0
X104.08Y-77.47
X104.08Y-102.87
X105.41Y-114.3
X105.41Y-127.0
X106.62Y-77.47
X106.62Y-102.87
X107.95Y-114.3
X107.95Y-127.0
X109.16Y-77.47
X109.16Y-102.87
X110.49Y-114.3
X110.49Y-127.0
X111.7Y-77.47
X111.7Y-102.87
X113.03Y-114.3
X113.03Y-127.0
X114.24Y-77.47
X114.24Y-102.87
X115.57Y-114.3
X115.57Y-116.84
X115.57Y-119.38
X115.57Y-127.0
X116.777Y-77.474
X116.78Y-102.87
X119.317Y-77.474
X119.32Y-102.87
X120.0Y-134.5
X120.0Y-138.0
T3
X53.34Y-45.72
X55.84Y-45.72
X58.34Y-45.72
X60.84Y-45.72
X63.34Y-45.72
X65.84Y-45.72
X68.34Y-45.72
X75.05Y-134.62
X77.55Y-134.62
X78.8Y-50.8
X78.8Y-68.58
X78.86Y-59.69
X80.05Y-134.62
X81.3Y-50.8
X81.3Y-68.58
X81.36Y-59.69
X82.55Y-134.62
X83.8Y-50.8
X83.8Y-68.58
X83.86Y-59.69
X86.3Y-50.8
X86.3Y-68.58
X86.36Y-59.69
X102.87Y-134.62
X104.14Y-59.69
X104.14Y-68.58
X104.16Y-50.8
X105.37Y-134.62
X106.64Y-59.69
X106.64Y-68.58
X106.66Y-50.8
X107.87Y-134.62
X109.14Y-59.69
X109.14Y-68.58
X109.16Y-50.8
X110.37Y-134.62
T4
X50.8Y-55.56
X53.34Y-55.56
X55.88Y-55.56
T5
X35.64Y-64.0
X35.64Y-104.0
X53.64Y-64.0
X53.64Y-104.0
T7
X46.568Y-134.88
X53.68Y-134.456
X65.98Y-127.268
X66.404Y-134.38
T6
G00X35.56Y-116.3
M15
G01X35.56Y-112.3
M16
G05
G00X35.56Y-125.6
M15
G01X35.56Y-121.6
M16
G05
G00X46.99Y-116.3
M15
G01X46.99Y-112.3
M16
G05
G00X46.99Y-125.6
M15
G01X46.99Y-121.6
M16
G05
M30
