%TF.GenerationSoftware,KiCad,Pcbnew,9.0.7-9.0.7~ubuntu24.04.1*%
%TF.CreationDate,2026-03-13T08:14:08+01:00*%
%TF.ProjectId,drill_pcb,6472696c-6c5f-4706-9362-2e6b69636164,rev?*%
%TF.SameCoordinates,Original*%
%TF.FileFunction,Copper,L2,Bot*%
%TF.FilePolarity,Positive*%
%FSLAX46Y46*%
G04 Gerber Fmt 4.6, Leading zero omitted, Abs format (unit mm)*
G04 Created by KiCad (PCBNEW 9.0.7-9.0.7~ubuntu24.04.1) date 2026-03-13 08:14:08*
%MOMM*%
%LPD*%
G01*
G04 APERTURE LIST*
G04 Aperture macros list*
%AMRoundRect*
0 Rectangle with rounded corners*
0 $1 Rounding radius*
0 $2 $3 $4 $5 $6 $7 $8 $9 X,Y pos of 4 corners*
0 Add a 4 corners polygon primitive as box body*
4,1,4,$2,$3,$4,$5,$6,$7,$8,$9,$2,$3,0*
0 Add four circle primitives for the rounded corners*
1,1,$1+$1,$2,$3*
1,1,$1+$1,$4,$5*
1,1,$1+$1,$6,$7*
1,1,$1+$1,$8,$9*
0 Add four rect primitives between the rounded corners*
20,1,$1+$1,$2,$3,$4,$5,0*
20,1,$1+$1,$4,$5,$6,$7,0*
20,1,$1+$1,$6,$7,$8,$9,0*
20,1,$1+$1,$8,$9,$2,$3,0*%
G04 Aperture macros list end*
%TA.AperFunction,ComponentPad*%
%ADD10RoundRect,0.250000X-0.600000X-0.725000X0.600000X-0.725000X0.600000X0.725000X-0.600000X0.725000X0*%
%TD*%
%TA.AperFunction,ComponentPad*%
%ADD11O,1.700000X1.950000*%
%TD*%
%TA.AperFunction,ComponentPad*%
%ADD12RoundRect,0.250000X-0.550000X0.550000X-0.550000X-0.550000X0.550000X-0.550000X0.550000X0.550000X0*%
%TD*%
%TA.AperFunction,ComponentPad*%
%ADD13C,1.600000*%
%TD*%
%TA.AperFunction,ComponentPad*%
%ADD14RoundRect,0.250000X0.600000X0.725000X-0.600000X0.725000X-0.600000X-0.725000X0.600000X-0.725000X0*%
%TD*%
%TA.AperFunction,ComponentPad*%
%ADD15C,6.451600*%
%TD*%
%TA.AperFunction,ComponentPad*%
%ADD16R,1.600000X1.600000*%
%TD*%
%TA.AperFunction,ComponentPad*%
%ADD17O,1.600000X1.600000*%
%TD*%
%TA.AperFunction,ComponentPad*%
%ADD18O,3.800000X8.000000*%
%TD*%
%TA.AperFunction,ComponentPad*%
%ADD19R,1.905000X2.000000*%
%TD*%
%TA.AperFunction,ComponentPad*%
%ADD20O,1.905000X2.000000*%
%TD*%
%TA.AperFunction,ComponentPad*%
%ADD21C,3.000000*%
%TD*%
%TA.AperFunction,ComponentPad*%
%ADD22R,1.200000X2.000000*%
%TD*%
%TA.AperFunction,ComponentPad*%
%ADD23O,1.200000X2.000000*%
%TD*%
%TA.AperFunction,ViaPad*%
%ADD24C,0.600000*%
%TD*%
%TA.AperFunction,Conductor*%
%ADD25C,0.200000*%
%TD*%
%TA.AperFunction,Conductor*%
%ADD26C,1.000000*%
%TD*%
%TA.AperFunction,Conductor*%
%ADD27C,2.000000*%
%TD*%
%TA.AperFunction,Conductor*%
%ADD28C,4.000000*%
%TD*%
%TA.AperFunction,Conductor*%
%ADD29C,0.400000*%
%TD*%
G04 APERTURE END LIST*
D10*
%TO.P,J9,1,Pin_1*%
%TO.N,+3.3V*%
X104140000Y-68580000D03*
D11*
%TO.P,J9,2,Pin_2*%
%TO.N,LIMIT_SENSOR_BOTTOM*%
X106640000Y-68580000D03*
%TO.P,J9,3,Pin_3*%
%TO.N,GND*%
X109140000Y-68580000D03*
%TD*%
D12*
%TO.P,C6,1*%
%TO.N,+24V*%
X93000000Y-133640000D03*
D13*
%TO.P,C6,2*%
%TO.N,GND*%
X93000000Y-137140000D03*
%TD*%
D12*
%TO.P,C3,1*%
%TO.N,+3.3V*%
X67310000Y-55560000D03*
D13*
%TO.P,C3,2*%
%TO.N,GND*%
X67310000Y-58060000D03*
%TD*%
D14*
%TO.P,J4,1,Pin_1*%
%TO.N,SDA1*%
X86300000Y-68580000D03*
D11*
%TO.P,J4,2,Pin_2*%
%TO.N,+3.3V*%
X83800000Y-68580000D03*
%TO.P,J4,3,Pin_3*%
%TO.N,GND*%
X81300000Y-68580000D03*
%TO.P,J4,4,Pin_4*%
%TO.N,SCL1*%
X78800000Y-68580000D03*
%TD*%
D15*
%TO.P,J1,1,Pin_1*%
%TO.N,Net-(J1-Pin_1)*%
X46568000Y-134880000D03*
%TO.P,J1,2,Pin_2*%
%TO.N,GND*%
X53680000Y-134455820D03*
%TD*%
D16*
%TO.P,A2,1,EN*%
%TO.N,DRVR_STORAGE_ENABLE*%
X91440000Y-114300000D03*
D17*
%TO.P,A2,2,MS1*%
%TO.N,unconnected-(A2-MS1-Pad2)*%
X88900000Y-114300000D03*
%TO.P,A2,3,MS2*%
%TO.N,unconnected-(A2-MS2-Pad3)*%
X86360000Y-114300000D03*
%TO.P,A2,4,RX*%
%TO.N,RX1*%
X83820000Y-114300000D03*
%TO.P,A2,5,TX*%
%TO.N,unconnected-(A2-TX-Pad5)*%
X81280000Y-114300000D03*
%TO.P,A2,6,CLK*%
%TO.N,unconnected-(A2-CLK-Pad6)*%
X78740000Y-114300000D03*
%TO.P,A2,7,STEP*%
%TO.N,DRVR_STORAGE_STEP*%
X76200000Y-114300000D03*
%TO.P,A2,8,DIR*%
%TO.N,DRVR_STORAGE_DIR*%
X73660000Y-114300000D03*
%TO.P,A2,9,GND*%
%TO.N,GND*%
X73660000Y-127000000D03*
%TO.P,A2,10,VDD*%
%TO.N,+3.3V*%
X76200000Y-127000000D03*
%TO.P,A2,11,B2*%
%TO.N,Net-(A2-B2)*%
X78740000Y-127000000D03*
%TO.P,A2,12,B1*%
%TO.N,Net-(A2-B1)*%
X81280000Y-127000000D03*
%TO.P,A2,13,A1*%
%TO.N,Net-(A2-A1)*%
X83820000Y-127000000D03*
%TO.P,A2,14,A2*%
%TO.N,Net-(A2-A2)*%
X86360000Y-127000000D03*
%TO.P,A2,15,GND*%
%TO.N,GND*%
X88900000Y-127000000D03*
%TO.P,A2,16,VM*%
%TO.N,+24V*%
X91440000Y-127000000D03*
%TO.P,A2,17,DIAG0*%
%TO.N,DRVR_STORAGE_0*%
X91440000Y-116840000D03*
%TO.P,A2,18,DIAG1*%
%TO.N,DRVR_STORAGE_1*%
X91440000Y-119380000D03*
%TD*%
D14*
%TO.P,J11,1,Pin_1*%
%TO.N,Net-(A2-A2)*%
X82550000Y-134620000D03*
D11*
%TO.P,J11,2,Pin_2*%
%TO.N,Net-(A2-A1)*%
X80050000Y-134620000D03*
%TO.P,J11,3,Pin_3*%
%TO.N,Net-(A2-B1)*%
X77550000Y-134620000D03*
%TO.P,J11,4,Pin_4*%
%TO.N,Net-(A2-B2)*%
X75050000Y-134620000D03*
%TD*%
D10*
%TO.P,J10,1,Pin_1*%
%TO.N,+5V*%
X53340000Y-45720000D03*
D11*
%TO.P,J10,2,Pin_2*%
%TO.N,+3.3V*%
X55840000Y-45720000D03*
%TO.P,J10,3,Pin_3*%
%TO.N,SCL1*%
X58340000Y-45720000D03*
%TO.P,J10,4,Pin_4*%
%TO.N,SDA1*%
X60840000Y-45720000D03*
%TO.P,J10,5,Pin_5*%
%TO.N,ADC_DRDY*%
X63340000Y-45720000D03*
%TO.P,J10,6,Pin_6*%
%TO.N,ADC_RST*%
X65840000Y-45720000D03*
%TO.P,J10,7,Pin_7*%
%TO.N,GND*%
X68340000Y-45720000D03*
%TD*%
D18*
%TO.P,F1,1*%
%TO.N,Net-(J1-Pin_1)*%
X46990000Y-123600000D03*
%TO.P,F1,2*%
%TO.N,+24V*%
X46990000Y-114300000D03*
%TD*%
D12*
%TO.P,C5,1*%
%TO.N,+24V*%
X120000000Y-134500000D03*
D13*
%TO.P,C5,2*%
%TO.N,GND*%
X120000000Y-138000000D03*
%TD*%
D10*
%TO.P,J5,1,Pin_1*%
%TO.N,+3.3V*%
X104140000Y-59690000D03*
D11*
%TO.P,J5,2,Pin_2*%
%TO.N,LIMIT_SENSOR_TOP*%
X106640000Y-59690000D03*
%TO.P,J5,3,Pin_3*%
%TO.N,GND*%
X109140000Y-59690000D03*
%TD*%
D19*
%TO.P,U2,1,VI*%
%TO.N,+5V*%
X50800000Y-55560000D03*
D20*
%TO.P,U2,2,GND*%
%TO.N,GND*%
X53340000Y-55560000D03*
%TO.P,U2,3,VO*%
%TO.N,+3.3V*%
X55880000Y-55560000D03*
%TD*%
D14*
%TO.P,J8,1,Pin_1*%
%TO.N,SDA1*%
X86360000Y-59690000D03*
D11*
%TO.P,J8,2,Pin_2*%
%TO.N,+3.3V*%
X83860000Y-59690000D03*
%TO.P,J8,3,Pin_3*%
%TO.N,GND*%
X81360000Y-59690000D03*
%TO.P,J8,4,Pin_4*%
%TO.N,SCL1*%
X78860000Y-59690000D03*
%TD*%
D14*
%TO.P,J7,1,Pin_1*%
%TO.N,Net-(A1-A2)*%
X110370000Y-134620000D03*
D11*
%TO.P,J7,2,Pin_2*%
%TO.N,Net-(A1-A1)*%
X107870000Y-134620000D03*
%TO.P,J7,3,Pin_3*%
%TO.N,Net-(A1-B1)*%
X105370000Y-134620000D03*
%TO.P,J7,4,Pin_4*%
%TO.N,Net-(A1-B2)*%
X102870000Y-134620000D03*
%TD*%
D14*
%TO.P,J6,1,Pin_1*%
%TO.N,SDA1*%
X86300000Y-50800000D03*
D11*
%TO.P,J6,2,Pin_2*%
%TO.N,+3.3V*%
X83800000Y-50800000D03*
%TO.P,J6,3,Pin_3*%
%TO.N,GND*%
X81300000Y-50800000D03*
%TO.P,J6,4,Pin_4*%
%TO.N,SCL1*%
X78800000Y-50800000D03*
%TD*%
D21*
%TO.P,V1,1,+Vin*%
%TO.N,Net-(V1-+Vin)*%
X35640000Y-104000000D03*
%TO.P,V1,2,-Vin*%
%TO.N,GND*%
X53640000Y-104000000D03*
%TO.P,V1,4,-Vout*%
X53640000Y-64000000D03*
%TO.P,V1,6,+Vout*%
%TO.N,+5V*%
X35640000Y-64000000D03*
%TD*%
D16*
%TO.P,A1,1,EN*%
%TO.N,DRVR_VERT_ENABLE*%
X115570000Y-114300000D03*
D17*
%TO.P,A1,2,MOSI*%
%TO.N,VSPI_MOSI*%
X113030000Y-114300000D03*
%TO.P,A1,3,SCK*%
%TO.N,VSPI_SCK*%
X110490000Y-114300000D03*
%TO.P,A1,4,CS*%
%TO.N,VSPI_CS1*%
X107950000Y-114300000D03*
%TO.P,A1,5,MISO*%
%TO.N,VSPI_MISO*%
X105410000Y-114300000D03*
%TO.P,A1,6,CLK*%
%TO.N,unconnected-(A1-CLK-Pad6)*%
X102870000Y-114300000D03*
%TO.P,A1,7,STEP*%
%TO.N,DRVR_VERT_STEP*%
X100330000Y-114300000D03*
%TO.P,A1,8,DIR*%
%TO.N,DRVR_VERT_DIR*%
X97790000Y-114300000D03*
%TO.P,A1,9,GND*%
%TO.N,GND*%
X97790000Y-127000000D03*
%TO.P,A1,10,VDD*%
%TO.N,+3.3V*%
X100330000Y-127000000D03*
%TO.P,A1,11,B2*%
%TO.N,Net-(A1-B2)*%
X102870000Y-127000000D03*
%TO.P,A1,12,B1*%
%TO.N,Net-(A1-B1)*%
X105410000Y-127000000D03*
%TO.P,A1,13,A1*%
%TO.N,Net-(A1-A1)*%
X107950000Y-127000000D03*
%TO.P,A1,14,A2*%
%TO.N,Net-(A1-A2)*%
X110490000Y-127000000D03*
%TO.P,A1,15,GND*%
%TO.N,GND*%
X113030000Y-127000000D03*
%TO.P,A1,16,VM*%
%TO.N,+24V*%
X115570000Y-127000000D03*
%TO.P,A1,17,DIAG0*%
%TO.N,DRVR_VERT_DIAG0*%
X115570000Y-116840000D03*
%TO.P,A1,18,DIAG1*%
%TO.N,DRVR_VERT_DIAG1*%
X115570000Y-119380000D03*
%TD*%
D12*
%TO.P,C1,1*%
%TO.N,+5V*%
X40640000Y-55560000D03*
D13*
%TO.P,C1,2*%
%TO.N,GND*%
X40640000Y-58060000D03*
%TD*%
D15*
%TO.P,J2,1,Pin_1*%
%TO.N,+24V*%
X65980000Y-127268000D03*
%TO.P,J2,2,Pin_2*%
%TO.N,GND*%
X66404180Y-134380000D03*
%TD*%
D14*
%TO.P,J3,1,Pin_1*%
%TO.N,GND*%
X109160000Y-50800000D03*
D11*
%TO.P,J3,2,Pin_2*%
%TO.N,TX2*%
X106660000Y-50800000D03*
%TO.P,J3,3,Pin_3*%
%TO.N,RX2*%
X104160000Y-50800000D03*
%TD*%
D18*
%TO.P,F2,1*%
%TO.N,Net-(J1-Pin_1)*%
X35560000Y-123600000D03*
%TO.P,F2,2*%
%TO.N,Net-(V1-+Vin)*%
X35560000Y-114300000D03*
%TD*%
D22*
%TO.P,U1,1,3V3*%
%TO.N,+3.3V*%
X73600000Y-102870000D03*
D23*
%TO.P,U1,2,CHIP_PU*%
%TO.N,unconnected-(U1-CHIP_PU-Pad2)*%
X76140000Y-102870000D03*
%TO.P,U1,3,SENSOR_VP/GPIO36/ADC1_CH0*%
%TO.N,DRVR_VERT_DIAG1*%
X78680000Y-102870000D03*
%TO.P,U1,4,SENSOR_VN/GPIO39/ADC1_CH3*%
%TO.N,DRVR_VERT_DIAG0*%
X81220000Y-102870000D03*
%TO.P,U1,5,VDET_1/GPIO34/ADC1_CH6*%
%TO.N,DRVR_STORAGE_1*%
X83760000Y-102870000D03*
%TO.P,U1,6,VDET_2/GPIO35/ADC1_CH7*%
%TO.N,DRVR_STORAGE_0*%
X86300000Y-102870000D03*
%TO.P,U1,7,32K_XP/GPIO32/ADC1_CH4*%
%TO.N,RX1*%
X88840000Y-102870000D03*
%TO.P,U1,8,32K_XN/GPIO33/ADC1_CH5*%
%TO.N,Net-(U1-32K_XN{slash}GPIO33{slash}ADC1_CH5)*%
X91380000Y-102870000D03*
%TO.P,U1,9,DAC_1/ADC2_CH8/GPIO25*%
%TO.N,DRVR_STORAGE_DIR*%
X93920000Y-102870000D03*
%TO.P,U1,10,DAC_2/ADC2_CH9/GPIO26*%
%TO.N,DRVR_STORAGE_STEP*%
X96460000Y-102870000D03*
%TO.P,U1,11,ADC2_CH7/GPIO27*%
%TO.N,DRVR_STORAGE_ENABLE*%
X99000000Y-102870000D03*
%TO.P,U1,12,MTMS/GPIO14/ADC2_CH6*%
%TO.N,DRVR_VERT_ENABLE*%
X101540000Y-102870000D03*
%TO.P,U1,13,MTDI/GPIO12/ADC2_CH5*%
%TO.N,DRVR_VERT_DIR*%
X104080000Y-102870000D03*
%TO.P,U1,14,GND*%
%TO.N,GND*%
X106620000Y-102870000D03*
%TO.P,U1,15,MTCK/GPIO13/ADC2_CH4*%
%TO.N,DRVR_VERT_STEP*%
X109160000Y-102870000D03*
%TO.P,U1,16,SD_DATA2/GPIO9*%
%TO.N,unconnected-(U1-SD_DATA2{slash}GPIO9-Pad16)*%
X111700000Y-102870000D03*
%TO.P,U1,17,SD_DATA3/GPIO10*%
%TO.N,unconnected-(U1-SD_DATA3{slash}GPIO10-Pad17)*%
X114240000Y-102870000D03*
%TO.P,U1,18,CMD*%
%TO.N,unconnected-(U1-CMD-Pad18)*%
X116780000Y-102870000D03*
%TO.P,U1,19,5V*%
%TO.N,unconnected-(U1-5V-Pad19)*%
X119320000Y-102870000D03*
%TO.P,U1,20,SD_CLK/GPIO6*%
%TO.N,unconnected-(U1-SD_CLK{slash}GPIO6-Pad20)*%
X119317280Y-77473680D03*
%TO.P,U1,21,SD_DATA0/GPIO7*%
%TO.N,unconnected-(U1-SD_DATA0{slash}GPIO7-Pad21)*%
X116777280Y-77473680D03*
%TO.P,U1,22,SD_DATA1/GPIO8*%
%TO.N,unconnected-(U1-SD_DATA1{slash}GPIO8-Pad22)*%
X114240000Y-77470000D03*
%TO.P,U1,23,MTDO/GPIO15/ADC2_CH3*%
%TO.N,LIMIT_SENSOR_TOP*%
X111700000Y-77470000D03*
%TO.P,U1,24,ADC2_CH2/GPIO2*%
%TO.N,ADC_RST*%
X109160000Y-77470000D03*
%TO.P,U1,25,GPIO0/BOOT/ADC2_CH1*%
%TO.N,LIMIT_SENSOR_BOTTOM*%
X106620000Y-77470000D03*
%TO.P,U1,26,ADC2_CH0/GPIO4*%
%TO.N,ADC_DRDY*%
X104080000Y-77470000D03*
%TO.P,U1,27,GPIO16*%
%TO.N,RX2*%
X101540000Y-77470000D03*
%TO.P,U1,28,GPIO17*%
%TO.N,TX2*%
X99000000Y-77470000D03*
%TO.P,U1,29,GPIO5*%
%TO.N,VSPI_CS1*%
X96460000Y-77470000D03*
%TO.P,U1,30,GPIO18*%
%TO.N,VSPI_SCK*%
X93920000Y-77470000D03*
%TO.P,U1,31,GPIO19*%
%TO.N,VSPI_MISO*%
X91380000Y-77470000D03*
%TO.P,U1,32,GND*%
%TO.N,GND*%
X88840000Y-77470000D03*
%TO.P,U1,33,GPIO21*%
%TO.N,SDA1*%
X86300000Y-77470000D03*
%TO.P,U1,34,U0RXD/GPIO3*%
%TO.N,unconnected-(U1-U0RXD{slash}GPIO3-Pad34)*%
X83760000Y-77470000D03*
%TO.P,U1,35,U0TXD/GPIO1*%
%TO.N,unconnected-(U1-U0TXD{slash}GPIO1-Pad35)*%
X81220000Y-77470000D03*
%TO.P,U1,36,GPIO22*%
%TO.N,SCL1*%
X78680000Y-77470000D03*
%TO.P,U1,37,GPIO23*%
%TO.N,VSPI_MOSI*%
X76140000Y-77470000D03*
%TO.P,U1,38,GND*%
%TO.N,GND*%
X73600000Y-77470000D03*
%TD*%
D24*
%TO.N,GND*%
X106000000Y-105000000D03*
X73500000Y-63000000D03*
X63500000Y-52500000D03*
X97500000Y-93500000D03*
X112500000Y-43500000D03*
X122500000Y-70000000D03*
X126500000Y-122000000D03*
X93000000Y-71000000D03*
X93000000Y-52000000D03*
X82500000Y-73000000D03*
%TD*%
D25*
%TO.N,GND*%
X72500000Y-125840000D02*
X72500000Y-125500000D01*
X73660000Y-127000000D02*
X72500000Y-125840000D01*
X112000000Y-125970000D02*
X112000000Y-125500000D01*
X114000000Y-126000000D02*
X114000000Y-125500000D01*
X113030000Y-127000000D02*
X113030000Y-126970000D01*
X113030000Y-126970000D02*
X114000000Y-126000000D01*
X113030000Y-127000000D02*
X112000000Y-125970000D01*
X97790000Y-126290000D02*
X97000000Y-125500000D01*
X97790000Y-127000000D02*
X97790000Y-126290000D01*
X69000000Y-45000000D02*
X70000000Y-45000000D01*
X68340000Y-45720000D02*
X68340000Y-45660000D01*
X68340000Y-45660000D02*
X69000000Y-45000000D01*
X68340000Y-45840000D02*
X70000000Y-47500000D01*
X68340000Y-45720000D02*
X68340000Y-45840000D01*
D26*
X109160000Y-59670000D02*
X109140000Y-59690000D01*
X78930001Y-57260001D02*
X81360000Y-59690000D01*
X67310000Y-58060000D02*
X68109999Y-57260001D01*
X68109999Y-57260001D02*
X78930001Y-57260001D01*
X109160000Y-59710000D02*
X109140000Y-59690000D01*
X109140000Y-68580000D02*
X109160000Y-68560000D01*
D27*
%TO.N,+24V*%
X115570000Y-129540000D02*
X116840000Y-130810000D01*
D28*
X69683945Y-127268000D02*
X73225945Y-130810000D01*
X116840000Y-130810000D02*
X120000000Y-133970000D01*
X120000000Y-133970000D02*
X120000000Y-134500000D01*
D27*
X93000000Y-133640000D02*
X93000000Y-132370000D01*
D28*
X91440000Y-130810000D02*
X116840000Y-130810000D01*
D27*
X93000000Y-132370000D02*
X91440000Y-130810000D01*
D28*
X65980000Y-127268000D02*
X66164000Y-127084000D01*
D27*
X115570000Y-127000000D02*
X115570000Y-129540000D01*
D28*
X73225945Y-130810000D02*
X91440000Y-130810000D01*
D27*
X91440000Y-127000000D02*
X91440000Y-130810000D01*
D28*
X65980000Y-127268000D02*
X69683945Y-127268000D01*
D29*
%TO.N,VSPI_CS1*%
X96460000Y-77470000D02*
X100270000Y-81280000D01*
X116771000Y-115501000D02*
X109151000Y-115501000D01*
X123190000Y-109082000D02*
X116771000Y-115501000D01*
X109151000Y-115501000D02*
X107950000Y-114300000D01*
X123190000Y-85090000D02*
X123190000Y-109082000D01*
X100270000Y-81280000D02*
X119380000Y-81280000D01*
X119380000Y-81280000D02*
X123190000Y-85090000D01*
%TO.N,VSPI_MISO*%
X115570000Y-111760000D02*
X106680000Y-111760000D01*
X91380000Y-77470000D02*
X91380000Y-79950000D01*
X120650000Y-106680000D02*
X115570000Y-111760000D01*
X106680000Y-111760000D02*
X105410000Y-113030000D01*
X120650000Y-85090000D02*
X120650000Y-106680000D01*
X119380000Y-83820000D02*
X120650000Y-85090000D01*
X105410000Y-113030000D02*
X105410000Y-114300000D01*
X91380000Y-79950000D02*
X95250000Y-83820000D01*
X95250000Y-83820000D02*
X119380000Y-83820000D01*
%TO.N,VSPI_SCK*%
X119380000Y-82550000D02*
X121920000Y-85090000D01*
X93920000Y-78680000D02*
X97790000Y-82550000D01*
X121920000Y-85090000D02*
X121920000Y-106680000D01*
X111760000Y-113030000D02*
X110490000Y-114300000D01*
X121920000Y-106680000D02*
X115570000Y-113030000D01*
X97790000Y-82550000D02*
X119380000Y-82550000D01*
X115570000Y-113030000D02*
X111760000Y-113030000D01*
X93920000Y-77470000D02*
X93920000Y-78680000D01*
D26*
%TO.N,DRVR_STORAGE_STEP*%
X93980000Y-111760000D02*
X96460000Y-109280000D01*
X76200000Y-114300000D02*
X78740000Y-111760000D01*
X78740000Y-111760000D02*
X93980000Y-111760000D01*
X96460000Y-109280000D02*
X96460000Y-102870000D01*
%TO.N,ADC_RST*%
X65840000Y-45720000D02*
X65780000Y-45660000D01*
X72596000Y-52476000D02*
X84226000Y-52476000D01*
X84226000Y-52476000D02*
X109160000Y-77410000D01*
X65840000Y-45720000D02*
X72596000Y-52476000D01*
X109160000Y-77410000D02*
X109160000Y-77470000D01*
%TO.N,DRVR_STORAGE_DIR*%
X77470000Y-110490000D02*
X92710000Y-110490000D01*
X92710000Y-110490000D02*
X93920000Y-109280000D01*
X73660000Y-114300000D02*
X77470000Y-110490000D01*
X93920000Y-109280000D02*
X93920000Y-102870000D01*
D27*
%TO.N,+3.3V*%
X72390000Y-123190000D02*
X76200000Y-123190000D01*
D26*
X67310000Y-55560000D02*
X79730000Y-55560000D01*
D27*
X73600000Y-102870000D02*
X71060000Y-105410000D01*
X97651370Y-123190000D02*
X100330000Y-125868630D01*
X100330000Y-125868630D02*
X100330000Y-127000000D01*
X76200000Y-127000000D02*
X76200000Y-123190000D01*
X76200000Y-123190000D02*
X97651370Y-123190000D01*
D26*
X83860000Y-59690000D02*
X79730000Y-55560000D01*
D27*
X71060000Y-105410000D02*
X71060000Y-121860000D01*
D26*
X83800000Y-59750000D02*
X83860000Y-59690000D01*
D27*
X71060000Y-121860000D02*
X72390000Y-123190000D01*
D26*
%TO.N,ADC_DRDY*%
X104080000Y-74028470D02*
X83728530Y-53677000D01*
X104080000Y-77470000D02*
X104080000Y-74028470D01*
X63340000Y-45720000D02*
X63280000Y-45660000D01*
X83728530Y-53677000D02*
X71297000Y-53677000D01*
X71297000Y-53677000D02*
X63340000Y-45720000D01*
%TO.N,SDA1*%
X86300000Y-50300000D02*
X86300000Y-50800000D01*
X79180000Y-43180000D02*
X86300000Y-50300000D01*
X63380000Y-43180000D02*
X79180000Y-43180000D01*
X60840000Y-45720000D02*
X63380000Y-43180000D01*
%TD*%
%TA.AperFunction,Conductor*%
%TO.N,GND*%
G36*
X96838413Y-125210185D02*
G01*
X96859055Y-125226819D01*
X97260719Y-125628483D01*
X97294204Y-125689806D01*
X97289220Y-125759498D01*
X97247348Y-125815431D01*
X97229333Y-125826649D01*
X97108650Y-125888140D01*
X96943105Y-126008417D01*
X96943104Y-126008417D01*
X96798417Y-126153104D01*
X96798417Y-126153105D01*
X96678140Y-126318650D01*
X96585244Y-126500970D01*
X96522009Y-126695586D01*
X96513391Y-126750000D01*
X97474314Y-126750000D01*
X97469920Y-126754394D01*
X97417259Y-126845606D01*
X97390000Y-126947339D01*
X97390000Y-127052661D01*
X97417259Y-127154394D01*
X97469920Y-127245606D01*
X97474314Y-127250000D01*
X96513391Y-127250000D01*
X96522009Y-127304413D01*
X96585244Y-127499029D01*
X96651572Y-127629205D01*
X96664468Y-127697874D01*
X96638192Y-127762615D01*
X96581085Y-127802872D01*
X96541087Y-127809500D01*
X93564500Y-127809500D01*
X93497461Y-127789815D01*
X93451706Y-127737011D01*
X93440500Y-127685500D01*
X93440500Y-126868886D01*
X93440499Y-126868872D01*
X93425427Y-126754394D01*
X93406270Y-126608884D01*
X93338398Y-126355581D01*
X93323101Y-126318650D01*
X93238046Y-126113309D01*
X93238041Y-126113299D01*
X93106924Y-125886196D01*
X92947281Y-125678148D01*
X92947274Y-125678140D01*
X92761860Y-125492726D01*
X92761855Y-125492722D01*
X92761851Y-125492718D01*
X92657795Y-125412873D01*
X92616596Y-125356448D01*
X92612441Y-125286702D01*
X92646654Y-125225781D01*
X92708371Y-125193029D01*
X92733285Y-125190500D01*
X96771374Y-125190500D01*
X96838413Y-125210185D01*
G37*
%TD.AperFunction*%
%TA.AperFunction,Conductor*%
G36*
X72149936Y-125176156D02*
G01*
X72258880Y-125190500D01*
X74075500Y-125190500D01*
X74142539Y-125210185D01*
X74188294Y-125262989D01*
X74199500Y-125314500D01*
X74199500Y-125637722D01*
X74179815Y-125704761D01*
X74127011Y-125750516D01*
X74057853Y-125760460D01*
X74037182Y-125755653D01*
X73964413Y-125732009D01*
X73910000Y-125723390D01*
X73910000Y-126684314D01*
X73905606Y-126679920D01*
X73814394Y-126627259D01*
X73712661Y-126600000D01*
X73607339Y-126600000D01*
X73505606Y-126627259D01*
X73414394Y-126679920D01*
X73410000Y-126684314D01*
X73410000Y-125723390D01*
X73355586Y-125732009D01*
X73160970Y-125795244D01*
X72978651Y-125888139D01*
X72814571Y-126007350D01*
X72748764Y-126030829D01*
X72680711Y-126015003D01*
X72654005Y-125994712D01*
X72046070Y-125386777D01*
X72012585Y-125325454D01*
X72017569Y-125255762D01*
X72059441Y-125199829D01*
X72124905Y-125175412D01*
X72149936Y-125176156D01*
G37*
%TD.AperFunction*%
%TA.AperFunction,Conductor*%
G36*
X90175474Y-125198944D02*
G01*
X90204842Y-125204968D01*
X90208649Y-125208686D01*
X90213754Y-125210185D01*
X90233380Y-125232835D01*
X90254832Y-125253782D01*
X90256025Y-125258968D01*
X90259509Y-125262989D01*
X90263774Y-125292655D01*
X90270496Y-125321873D01*
X90268695Y-125326880D01*
X90269453Y-125332147D01*
X90257001Y-125359411D01*
X90246860Y-125387624D01*
X90241708Y-125392900D01*
X90240428Y-125395703D01*
X90222209Y-125412869D01*
X90118149Y-125492718D01*
X90118139Y-125492726D01*
X89932726Y-125678140D01*
X89932718Y-125678148D01*
X89777026Y-125881048D01*
X89720598Y-125922250D01*
X89650852Y-125926405D01*
X89605766Y-125905880D01*
X89581350Y-125888141D01*
X89399029Y-125795244D01*
X89204413Y-125732009D01*
X89150000Y-125723390D01*
X89150000Y-126684314D01*
X89145606Y-126679920D01*
X89054394Y-126627259D01*
X88952661Y-126600000D01*
X88847339Y-126600000D01*
X88745606Y-126627259D01*
X88654394Y-126679920D01*
X88650000Y-126684314D01*
X88650000Y-125723390D01*
X88595586Y-125732009D01*
X88400970Y-125795244D01*
X88218650Y-125888140D01*
X88053106Y-126008415D01*
X88048690Y-126012832D01*
X87987364Y-126046313D01*
X87917673Y-126041324D01*
X87862638Y-126000631D01*
X87716593Y-125810302D01*
X87716587Y-125810295D01*
X87549704Y-125643412D01*
X87549697Y-125643406D01*
X87362457Y-125499732D01*
X87362455Y-125499730D01*
X87362450Y-125499727D01*
X87227626Y-125421886D01*
X87179412Y-125371319D01*
X87166190Y-125302712D01*
X87192158Y-125237848D01*
X87249072Y-125197320D01*
X87289628Y-125190500D01*
X90146715Y-125190500D01*
X90175474Y-125198944D01*
G37*
%TD.AperFunction*%
%TA.AperFunction,Conductor*%
G36*
X78574150Y-44700185D02*
G01*
X78594792Y-44716819D01*
X82808437Y-48930464D01*
X82841922Y-48991787D01*
X82836938Y-49061479D01*
X82795066Y-49117412D01*
X82782758Y-49125531D01*
X82769717Y-49133060D01*
X82769702Y-49133070D01*
X82577263Y-49280733D01*
X82577256Y-49280739D01*
X82405739Y-49452256D01*
X82303186Y-49585906D01*
X82246758Y-49627108D01*
X82177012Y-49631263D01*
X82131925Y-49610737D01*
X82007557Y-49520379D01*
X81818215Y-49423903D01*
X81616124Y-49358241D01*
X81550000Y-49347768D01*
X81550000Y-50395854D01*
X81483343Y-50357370D01*
X81362535Y-50325000D01*
X81237465Y-50325000D01*
X81116657Y-50357370D01*
X81050000Y-50395854D01*
X81050000Y-49347768D01*
X81049999Y-49347768D01*
X80983875Y-49358241D01*
X80781784Y-49423903D01*
X80592442Y-49520379D01*
X80468074Y-49610737D01*
X80402267Y-49634217D01*
X80334214Y-49618391D01*
X80296813Y-49585905D01*
X80194266Y-49452263D01*
X80194260Y-49452256D01*
X80022743Y-49280739D01*
X80022736Y-49280733D01*
X79830293Y-49133067D01*
X79830292Y-49133066D01*
X79830289Y-49133064D01*
X79620212Y-49011776D01*
X79620205Y-49011773D01*
X79396104Y-48918947D01*
X79161785Y-48856161D01*
X78921289Y-48824500D01*
X78921288Y-48824500D01*
X78678712Y-48824500D01*
X78678711Y-48824500D01*
X78438214Y-48856161D01*
X78203895Y-48918947D01*
X77979794Y-49011773D01*
X77979785Y-49011777D01*
X77769706Y-49133067D01*
X77577263Y-49280733D01*
X77577256Y-49280739D01*
X77405739Y-49452256D01*
X77405733Y-49452263D01*
X77258067Y-49644706D01*
X77136777Y-49854785D01*
X77136773Y-49854794D01*
X77043947Y-50078895D01*
X76981161Y-50313214D01*
X76949500Y-50553711D01*
X76949500Y-50851500D01*
X76929815Y-50918539D01*
X76877011Y-50964294D01*
X76825500Y-50975500D01*
X73268890Y-50975500D01*
X73201851Y-50955815D01*
X73181209Y-50939181D01*
X69255789Y-47013761D01*
X69222304Y-46952438D01*
X69227288Y-46882746D01*
X69255789Y-46838399D01*
X69369723Y-46724464D01*
X69369727Y-46724459D01*
X69494620Y-46552557D01*
X69591095Y-46363217D01*
X69656757Y-46161130D01*
X69656757Y-46161127D01*
X69687030Y-45970000D01*
X68744146Y-45970000D01*
X68782630Y-45903343D01*
X68815000Y-45782535D01*
X68815000Y-45657465D01*
X68782630Y-45536657D01*
X68744146Y-45470000D01*
X69687030Y-45470000D01*
X69656757Y-45278872D01*
X69656757Y-45278869D01*
X69591095Y-45076782D01*
X69494620Y-44887442D01*
X69487314Y-44877385D01*
X69463834Y-44811579D01*
X69479660Y-44743525D01*
X69529766Y-44694830D01*
X69587632Y-44680500D01*
X78507111Y-44680500D01*
X78574150Y-44700185D01*
G37*
%TD.AperFunction*%
%TA.AperFunction,Conductor*%
G36*
X134442539Y-40520185D02*
G01*
X134488294Y-40572989D01*
X134499500Y-40624500D01*
X134499500Y-142375500D01*
X134479815Y-142442539D01*
X134427011Y-142488294D01*
X134375500Y-142499500D01*
X30624500Y-142499500D01*
X30557461Y-142479815D01*
X30511706Y-142427011D01*
X30500500Y-142375500D01*
X30500500Y-137878711D01*
X33149500Y-137878711D01*
X33149500Y-138121288D01*
X33180077Y-138353553D01*
X33181162Y-138361789D01*
X33212554Y-138478944D01*
X33243947Y-138596104D01*
X33336773Y-138820205D01*
X33336776Y-138820212D01*
X33458064Y-139030289D01*
X33458066Y-139030292D01*
X33458067Y-139030293D01*
X33605733Y-139222736D01*
X33605739Y-139222743D01*
X33777256Y-139394260D01*
X33777262Y-139394265D01*
X33969711Y-139541936D01*
X34179788Y-139663224D01*
X34403900Y-139756054D01*
X34638211Y-139818838D01*
X34818586Y-139842584D01*
X34878711Y-139850500D01*
X34878712Y-139850500D01*
X35121289Y-139850500D01*
X35169388Y-139844167D01*
X35361789Y-139818838D01*
X35596100Y-139756054D01*
X35820212Y-139663224D01*
X36030289Y-139541936D01*
X36222738Y-139394265D01*
X36394265Y-139222738D01*
X36541936Y-139030289D01*
X36663224Y-138820212D01*
X36756054Y-138596100D01*
X36818838Y-138361789D01*
X36850500Y-138121288D01*
X36850500Y-137878712D01*
X36818838Y-137638211D01*
X36756054Y-137403900D01*
X36663224Y-137179788D01*
X36541936Y-136969711D01*
X36481018Y-136890321D01*
X36394266Y-136777263D01*
X36394260Y-136777256D01*
X36222743Y-136605739D01*
X36222736Y-136605733D01*
X36030293Y-136458067D01*
X36030292Y-136458066D01*
X36030289Y-136458064D01*
X35820212Y-136336776D01*
X35820205Y-136336773D01*
X35596104Y-136243947D01*
X35361785Y-136181161D01*
X35121289Y-136149500D01*
X35121288Y-136149500D01*
X34878712Y-136149500D01*
X34878711Y-136149500D01*
X34638214Y-136181161D01*
X34403895Y-136243947D01*
X34179794Y-136336773D01*
X34179785Y-136336777D01*
X33969706Y-136458067D01*
X33777263Y-136605733D01*
X33777256Y-136605739D01*
X33605739Y-136777256D01*
X33605733Y-136777263D01*
X33458067Y-136969706D01*
X33336777Y-137179785D01*
X33336773Y-137179794D01*
X33243947Y-137403895D01*
X33181161Y-137638214D01*
X33149500Y-137878711D01*
X30500500Y-137878711D01*
X30500500Y-134695474D01*
X42341700Y-134695474D01*
X42341700Y-135064525D01*
X42373865Y-135432171D01*
X42412284Y-135650051D01*
X42434786Y-135777669D01*
X42437949Y-135795604D01*
X42437952Y-135795617D01*
X42533462Y-136152073D01*
X42533465Y-136152083D01*
X42533466Y-136152084D01*
X42659688Y-136498876D01*
X42659691Y-136498883D01*
X42659692Y-136498885D01*
X42659695Y-136498893D01*
X42815650Y-136833337D01*
X42815658Y-136833353D01*
X42903561Y-136985606D01*
X42999424Y-137151646D01*
X43000174Y-137152944D01*
X43000183Y-137152959D01*
X43211861Y-137455265D01*
X43333309Y-137600000D01*
X43449077Y-137737967D01*
X43710033Y-137998923D01*
X43771617Y-138050598D01*
X43992734Y-138236138D01*
X43992740Y-138236142D01*
X43992741Y-138236143D01*
X44295047Y-138447821D01*
X44614653Y-138632345D01*
X44614662Y-138632349D01*
X44949106Y-138788304D01*
X44949110Y-138788305D01*
X44949124Y-138788312D01*
X45295916Y-138914534D01*
X45295922Y-138914535D01*
X45295926Y-138914537D01*
X45393003Y-138940548D01*
X45652390Y-139010050D01*
X46015832Y-139074135D01*
X46383474Y-139106299D01*
X46383475Y-139106300D01*
X46383476Y-139106300D01*
X46752525Y-139106300D01*
X46752525Y-139106299D01*
X47120168Y-139074135D01*
X47483610Y-139010050D01*
X47775496Y-138931839D01*
X47840070Y-138914538D01*
X47840071Y-138914537D01*
X47840084Y-138914534D01*
X48186876Y-138788312D01*
X48521347Y-138632345D01*
X48840953Y-138447821D01*
X49143259Y-138236143D01*
X49425967Y-137998923D01*
X49686923Y-137737967D01*
X49924143Y-137455259D01*
X50135821Y-137152953D01*
X50143300Y-137140000D01*
X50215751Y-137014508D01*
X50320345Y-136833347D01*
X50419315Y-136621103D01*
X50465487Y-136568665D01*
X50532680Y-136549513D01*
X50599562Y-136569728D01*
X50634799Y-136604617D01*
X50683807Y-136677962D01*
X50873347Y-136908917D01*
X50873348Y-136908918D01*
X51896101Y-135886164D01*
X51957606Y-135966319D01*
X52169501Y-136178214D01*
X52249653Y-136239717D01*
X51226900Y-137262470D01*
X51226901Y-137262471D01*
X51457861Y-137452015D01*
X51762239Y-137655394D01*
X51762257Y-137655405D01*
X52085086Y-137827961D01*
X52085091Y-137827963D01*
X52423300Y-137968054D01*
X52773622Y-138074323D01*
X52773633Y-138074326D01*
X53132645Y-138145736D01*
X53132662Y-138145739D01*
X53496966Y-138181620D01*
X53863034Y-138181620D01*
X54227337Y-138145739D01*
X54227354Y-138145736D01*
X54586366Y-138074326D01*
X54586377Y-138074323D01*
X54936699Y-137968054D01*
X55274908Y-137827963D01*
X55274913Y-137827961D01*
X55597742Y-137655405D01*
X55597760Y-137655394D01*
X55902124Y-137452024D01*
X55902138Y-137452014D01*
X56133097Y-137262471D01*
X56133098Y-137262470D01*
X56096145Y-137225517D01*
X55110345Y-136239717D01*
X55190499Y-136178214D01*
X55402394Y-135966319D01*
X55463897Y-135886165D01*
X56486650Y-136908918D01*
X56486651Y-136908917D01*
X56676194Y-136677958D01*
X56676204Y-136677944D01*
X56879574Y-136373580D01*
X56879585Y-136373562D01*
X57052141Y-136050733D01*
X57052143Y-136050728D01*
X57192234Y-135712519D01*
X57298503Y-135362197D01*
X57298506Y-135362186D01*
X57369916Y-135003174D01*
X57369919Y-135003157D01*
X57405800Y-134638853D01*
X57405800Y-134272787D01*
X57399229Y-134206074D01*
X57399229Y-134206073D01*
X57369919Y-133908482D01*
X57369916Y-133908465D01*
X57298506Y-133549453D01*
X57298503Y-133549442D01*
X57192234Y-133199120D01*
X57052143Y-132860911D01*
X57052141Y-132860906D01*
X56879585Y-132538077D01*
X56879574Y-132538059D01*
X56676195Y-132233681D01*
X56486651Y-132002721D01*
X56486650Y-132002720D01*
X55463897Y-133025473D01*
X55402394Y-132945321D01*
X55190499Y-132733426D01*
X55110344Y-132671921D01*
X56133098Y-131649168D01*
X56133097Y-131649167D01*
X55902138Y-131459624D01*
X55597760Y-131256245D01*
X55597742Y-131256234D01*
X55274913Y-131083678D01*
X55274908Y-131083676D01*
X54936699Y-130943585D01*
X54586377Y-130837316D01*
X54586366Y-130837313D01*
X54227354Y-130765903D01*
X54227337Y-130765900D01*
X53863034Y-130730020D01*
X53496966Y-130730020D01*
X53132662Y-130765900D01*
X53132645Y-130765903D01*
X52773633Y-130837313D01*
X52773622Y-130837316D01*
X52423300Y-130943585D01*
X52085091Y-131083676D01*
X52085086Y-131083678D01*
X51762257Y-131256234D01*
X51762239Y-131256245D01*
X51457870Y-131459618D01*
X51457866Y-131459621D01*
X51226901Y-131649168D01*
X51226901Y-131649169D01*
X52249654Y-132671922D01*
X52169501Y-132733426D01*
X51957606Y-132945321D01*
X51896102Y-133025474D01*
X50873349Y-132002721D01*
X50873348Y-132002721D01*
X50683806Y-132233681D01*
X50683798Y-132233690D01*
X50480425Y-132538059D01*
X50480419Y-132538069D01*
X50400794Y-132687036D01*
X50351831Y-132736880D01*
X50283693Y-132752340D01*
X50218014Y-132728508D01*
X50184051Y-132690584D01*
X50135821Y-132607047D01*
X49924143Y-132304741D01*
X49924142Y-132304740D01*
X49924138Y-132304734D01*
X49686920Y-132022030D01*
X49425969Y-131761079D01*
X49387947Y-131729175D01*
X49358898Y-131704799D01*
X49143265Y-131523861D01*
X48840959Y-131312183D01*
X48840956Y-131312181D01*
X48840953Y-131312179D01*
X48612748Y-131180425D01*
X48521353Y-131127658D01*
X48521337Y-131127650D01*
X48186893Y-130971695D01*
X48186885Y-130971692D01*
X48186883Y-130971691D01*
X48186876Y-130971688D01*
X47840084Y-130845466D01*
X47840083Y-130845465D01*
X47840073Y-130845462D01*
X47483617Y-130749952D01*
X47483620Y-130749952D01*
X47483610Y-130749950D01*
X47370582Y-130730020D01*
X47120170Y-130685865D01*
X47120172Y-130685865D01*
X46752525Y-130653700D01*
X46752524Y-130653700D01*
X46383476Y-130653700D01*
X46383475Y-130653700D01*
X46015828Y-130685865D01*
X45652395Y-130749949D01*
X45652392Y-130749949D01*
X45652390Y-130749950D01*
X45652385Y-130749951D01*
X45652382Y-130749952D01*
X45295926Y-130845462D01*
X45122520Y-130908577D01*
X44949124Y-130971688D01*
X44949120Y-130971689D01*
X44949114Y-130971692D01*
X44949106Y-130971695D01*
X44614662Y-131127650D01*
X44614646Y-131127658D01*
X44295055Y-131312174D01*
X44295040Y-131312183D01*
X43992734Y-131523861D01*
X43710030Y-131761079D01*
X43449079Y-132022030D01*
X43211861Y-132304734D01*
X43000183Y-132607040D01*
X43000174Y-132607055D01*
X42815658Y-132926646D01*
X42815650Y-132926662D01*
X42659695Y-133261106D01*
X42659692Y-133261114D01*
X42533462Y-133607926D01*
X42437952Y-133964382D01*
X42437949Y-133964395D01*
X42373865Y-134327828D01*
X42341700Y-134695474D01*
X30500500Y-134695474D01*
X30500500Y-112037106D01*
X32659500Y-112037106D01*
X32659500Y-116562893D01*
X32695974Y-116886604D01*
X32695976Y-116886620D01*
X32768467Y-117204226D01*
X32768471Y-117204238D01*
X32876066Y-117511725D01*
X33017413Y-117805234D01*
X33017415Y-117805237D01*
X33190739Y-118081081D01*
X33393857Y-118335783D01*
X33624217Y-118566143D01*
X33878919Y-118769261D01*
X33927851Y-118800007D01*
X33999466Y-118845006D01*
X34045757Y-118897341D01*
X34056405Y-118966394D01*
X34028030Y-119030243D01*
X33999466Y-119054994D01*
X33878920Y-119130738D01*
X33624217Y-119333856D01*
X33393856Y-119564217D01*
X33190738Y-119818920D01*
X33017413Y-120094765D01*
X32876066Y-120388274D01*
X32768471Y-120695761D01*
X32768467Y-120695773D01*
X32695976Y-121013379D01*
X32695974Y-121013395D01*
X32659500Y-121337106D01*
X32659500Y-125862893D01*
X32695974Y-126186604D01*
X32695976Y-126186620D01*
X32768467Y-126504226D01*
X32768471Y-126504238D01*
X32876066Y-126811725D01*
X33017413Y-127105234D01*
X33017415Y-127105237D01*
X33190739Y-127381081D01*
X33393857Y-127635783D01*
X33624217Y-127866143D01*
X33878919Y-128069261D01*
X34154763Y-128242585D01*
X34448278Y-128383935D01*
X34679217Y-128464744D01*
X34755761Y-128491528D01*
X34755767Y-128491530D01*
X34755773Y-128491532D01*
X35073383Y-128564024D01*
X35397106Y-128600499D01*
X35397107Y-128600500D01*
X35397111Y-128600500D01*
X35722893Y-128600500D01*
X35722893Y-128600499D01*
X36046617Y-128564024D01*
X36364227Y-128491532D01*
X36671722Y-128383935D01*
X36965237Y-128242585D01*
X37241081Y-128069261D01*
X37495783Y-127866143D01*
X37726143Y-127635783D01*
X37929261Y-127381081D01*
X38102585Y-127105237D01*
X38243935Y-126811722D01*
X38351532Y-126504227D01*
X38424024Y-126186617D01*
X38460500Y-125862889D01*
X38460500Y-121337111D01*
X38424024Y-121013383D01*
X38351532Y-120695773D01*
X38243935Y-120388278D01*
X38102585Y-120094763D01*
X37929261Y-119818919D01*
X37726143Y-119564217D01*
X37495783Y-119333857D01*
X37241081Y-119130739D01*
X37120532Y-119054993D01*
X37074242Y-119002660D01*
X37063593Y-118933606D01*
X37091968Y-118869758D01*
X37120533Y-118845006D01*
X37241081Y-118769261D01*
X37495783Y-118566143D01*
X37726143Y-118335783D01*
X37929261Y-118081081D01*
X38102585Y-117805237D01*
X38243935Y-117511722D01*
X38351532Y-117204227D01*
X38424024Y-116886617D01*
X38460500Y-116562889D01*
X38460500Y-112037111D01*
X38460499Y-112037106D01*
X44089500Y-112037106D01*
X44089500Y-116562893D01*
X44125974Y-116886604D01*
X44125976Y-116886620D01*
X44198467Y-117204226D01*
X44198471Y-117204238D01*
X44306066Y-117511725D01*
X44447413Y-117805234D01*
X44447415Y-117805237D01*
X44620739Y-118081081D01*
X44823857Y-118335783D01*
X45054217Y-118566143D01*
X45308919Y-118769261D01*
X45357851Y-118800007D01*
X45429466Y-118845006D01*
X45475757Y-118897341D01*
X45486405Y-118966394D01*
X45458030Y-119030243D01*
X45429466Y-119054994D01*
X45308920Y-119130738D01*
X45054217Y-119333856D01*
X44823856Y-119564217D01*
X44620738Y-119818920D01*
X44447413Y-120094765D01*
X44306066Y-120388274D01*
X44198471Y-120695761D01*
X44198467Y-120695773D01*
X44125976Y-121013379D01*
X44125974Y-121013395D01*
X44089500Y-121337106D01*
X44089500Y-125862893D01*
X44125974Y-126186604D01*
X44125976Y-126186620D01*
X44198467Y-126504226D01*
X44198471Y-126504238D01*
X44306066Y-126811725D01*
X44447413Y-127105234D01*
X44447415Y-127105237D01*
X44620739Y-127381081D01*
X44823857Y-127635783D01*
X45054217Y-127866143D01*
X45308919Y-128069261D01*
X45584763Y-128242585D01*
X45878278Y-128383935D01*
X46109217Y-128464744D01*
X46185761Y-128491528D01*
X46185767Y-128491530D01*
X46185773Y-128491532D01*
X46503383Y-128564024D01*
X46827106Y-128600499D01*
X46827107Y-128600500D01*
X46827111Y-128600500D01*
X47152893Y-128600500D01*
X47152893Y-128600499D01*
X47476617Y-128564024D01*
X47794227Y-128491532D01*
X48101722Y-128383935D01*
X48395237Y-128242585D01*
X48671081Y-128069261D01*
X48925783Y-127866143D01*
X49156143Y-127635783D01*
X49359261Y-127381081D01*
X49532585Y-127105237D01*
X49550925Y-127067152D01*
X49570278Y-127026968D01*
X49657617Y-126845606D01*
X49673935Y-126811722D01*
X49781532Y-126504227D01*
X49854024Y-126186617D01*
X49890500Y-125862889D01*
X49890500Y-121337111D01*
X49854024Y-121013383D01*
X49781532Y-120695773D01*
X49673935Y-120388278D01*
X49532585Y-120094763D01*
X49359261Y-119818919D01*
X49156143Y-119564217D01*
X48925783Y-119333857D01*
X48671081Y-119130739D01*
X48550532Y-119054993D01*
X48504242Y-119002660D01*
X48493593Y-118933606D01*
X48521968Y-118869758D01*
X48550533Y-118845006D01*
X48671081Y-118769261D01*
X48925783Y-118566143D01*
X49156143Y-118335783D01*
X49359261Y-118081081D01*
X49532585Y-117805237D01*
X49673935Y-117511722D01*
X49781532Y-117204227D01*
X49854024Y-116886617D01*
X49890500Y-116562889D01*
X49890500Y-112037111D01*
X49854024Y-111713383D01*
X49781532Y-111395773D01*
X49673935Y-111088278D01*
X49532585Y-110794763D01*
X49359261Y-110518919D01*
X49156143Y-110264217D01*
X48925783Y-110033857D01*
X48671081Y-109830739D01*
X48395237Y-109657415D01*
X48395234Y-109657413D01*
X48101725Y-109516066D01*
X47794238Y-109408471D01*
X47794226Y-109408467D01*
X47476620Y-109335976D01*
X47476604Y-109335974D01*
X47152893Y-109299500D01*
X47152889Y-109299500D01*
X46827111Y-109299500D01*
X46827107Y-109299500D01*
X46503395Y-109335974D01*
X46503379Y-109335976D01*
X46185773Y-109408467D01*
X46185761Y-109408471D01*
X45878274Y-109516066D01*
X45584765Y-109657413D01*
X45308920Y-109830738D01*
X45054217Y-110033856D01*
X44823856Y-110264217D01*
X44620738Y-110518920D01*
X44447413Y-110794765D01*
X44306066Y-111088274D01*
X44198471Y-111395761D01*
X44198467Y-111395773D01*
X44125976Y-111713379D01*
X44125974Y-111713395D01*
X44089500Y-112037106D01*
X38460499Y-112037106D01*
X38424024Y-111713383D01*
X38351532Y-111395773D01*
X38243935Y-111088278D01*
X38102585Y-110794763D01*
X37929261Y-110518919D01*
X37726143Y-110264217D01*
X37495783Y-110033857D01*
X37241081Y-109830739D01*
X36965237Y-109657415D01*
X36965234Y-109657413D01*
X36671725Y-109516066D01*
X36364238Y-109408471D01*
X36364226Y-109408467D01*
X36046620Y-109335976D01*
X36046604Y-109335974D01*
X35722893Y-109299500D01*
X35722889Y-109299500D01*
X35397111Y-109299500D01*
X35397107Y-109299500D01*
X35073395Y-109335974D01*
X35073379Y-109335976D01*
X34755773Y-109408467D01*
X34755761Y-109408471D01*
X34448274Y-109516066D01*
X34154765Y-109657413D01*
X33878920Y-109830738D01*
X33624217Y-110033856D01*
X33393856Y-110264217D01*
X33190738Y-110518920D01*
X33017413Y-110794765D01*
X32876066Y-111088274D01*
X32768471Y-111395761D01*
X32768467Y-111395773D01*
X32695976Y-111713379D01*
X32695974Y-111713395D01*
X32659500Y-112037106D01*
X30500500Y-112037106D01*
X30500500Y-103859568D01*
X33139500Y-103859568D01*
X33139500Y-104140431D01*
X33170942Y-104419494D01*
X33170945Y-104419509D01*
X33233439Y-104693317D01*
X33233443Y-104693329D01*
X33326200Y-104958411D01*
X33448053Y-105211442D01*
X33448055Y-105211445D01*
X33597477Y-105449248D01*
X33601787Y-105454652D01*
X33770738Y-105666511D01*
X33772584Y-105668825D01*
X33971175Y-105867416D01*
X34190752Y-106042523D01*
X34428555Y-106191945D01*
X34681592Y-106313801D01*
X34880680Y-106383465D01*
X34946670Y-106406556D01*
X34946682Y-106406560D01*
X35220491Y-106469055D01*
X35220497Y-106469055D01*
X35220505Y-106469057D01*
X35406547Y-106490018D01*
X35499569Y-106500499D01*
X35499572Y-106500500D01*
X35499575Y-106500500D01*
X35780428Y-106500500D01*
X35780429Y-106500499D01*
X35923055Y-106484429D01*
X36059494Y-106469057D01*
X36059499Y-106469056D01*
X36059509Y-106469055D01*
X36333318Y-106406560D01*
X36598408Y-106313801D01*
X36851445Y-106191945D01*
X37089248Y-106042523D01*
X37308825Y-105867416D01*
X37507416Y-105668825D01*
X37682523Y-105449248D01*
X37831945Y-105211445D01*
X37953801Y-104958408D01*
X38046560Y-104693318D01*
X38109055Y-104419509D01*
X38116487Y-104353553D01*
X38140499Y-104140431D01*
X38140500Y-104140427D01*
X38140500Y-103868905D01*
X51640000Y-103868905D01*
X51640000Y-104131094D01*
X51674220Y-104391009D01*
X51674222Y-104391020D01*
X51742075Y-104644255D01*
X51842404Y-104886471D01*
X51842409Y-104886482D01*
X51973488Y-105113516D01*
X51973494Y-105113524D01*
X52060080Y-105226365D01*
X52962421Y-104324024D01*
X52975359Y-104355258D01*
X53057437Y-104478097D01*
X53161903Y-104582563D01*
X53284742Y-104664641D01*
X53315974Y-104677577D01*
X52413633Y-105579917D01*
X52413633Y-105579918D01*
X52526475Y-105666505D01*
X52526483Y-105666511D01*
X52753517Y-105797590D01*
X52753528Y-105797595D01*
X52995744Y-105897924D01*
X53248979Y-105965777D01*
X53248990Y-105965779D01*
X53508905Y-105999999D01*
X53508920Y-106000000D01*
X53771080Y-106000000D01*
X53771094Y-105999999D01*
X54031009Y-105965779D01*
X54031020Y-105965777D01*
X54284255Y-105897924D01*
X54526471Y-105797595D01*
X54526482Y-105797590D01*
X54753516Y-105666511D01*
X54753534Y-105666499D01*
X54866365Y-105579919D01*
X54866365Y-105579917D01*
X53964025Y-104677578D01*
X53995258Y-104664641D01*
X54118097Y-104582563D01*
X54222563Y-104478097D01*
X54304641Y-104355258D01*
X54317577Y-104324025D01*
X55219917Y-105226365D01*
X55219919Y-105226365D01*
X55306499Y-105113534D01*
X55306511Y-105113516D01*
X55437590Y-104886482D01*
X55437595Y-104886471D01*
X55537924Y-104644255D01*
X55605777Y-104391020D01*
X55605779Y-104391009D01*
X55639999Y-104131094D01*
X55640000Y-104131080D01*
X55640000Y-103868919D01*
X55639999Y-103868905D01*
X55605779Y-103608990D01*
X55605777Y-103608979D01*
X55537924Y-103355744D01*
X55437595Y-103113528D01*
X55437590Y-103113517D01*
X55306511Y-102886483D01*
X55306505Y-102886475D01*
X55219918Y-102773633D01*
X55219917Y-102773633D01*
X54317577Y-103675973D01*
X54304641Y-103644742D01*
X54222563Y-103521903D01*
X54118097Y-103417437D01*
X53995258Y-103335359D01*
X53964023Y-103322421D01*
X54866365Y-102420080D01*
X54753524Y-102333494D01*
X54753516Y-102333488D01*
X54526482Y-102202409D01*
X54526471Y-102202404D01*
X54284255Y-102102075D01*
X54031020Y-102034222D01*
X54031009Y-102034220D01*
X53771094Y-102000000D01*
X53508905Y-102000000D01*
X53248990Y-102034220D01*
X53248979Y-102034222D01*
X52995744Y-102102075D01*
X52753528Y-102202404D01*
X52753517Y-102202409D01*
X52526471Y-102333496D01*
X52413633Y-102420079D01*
X52413633Y-102420080D01*
X53315974Y-103322421D01*
X53284742Y-103335359D01*
X53161903Y-103417437D01*
X53057437Y-103521903D01*
X52975359Y-103644742D01*
X52962421Y-103675974D01*
X52060080Y-102773633D01*
X52060079Y-102773633D01*
X51973496Y-102886471D01*
X51842409Y-103113517D01*
X51842404Y-103113528D01*
X51742075Y-103355744D01*
X51674222Y-103608979D01*
X51674220Y-103608990D01*
X51640000Y-103868905D01*
X38140500Y-103868905D01*
X38140500Y-103859572D01*
X38140499Y-103859568D01*
X38109057Y-103580505D01*
X38109054Y-103580487D01*
X38046560Y-103306682D01*
X38046556Y-103306670D01*
X38005759Y-103190080D01*
X37953801Y-103041592D01*
X37831945Y-102788555D01*
X37682523Y-102550752D01*
X37618125Y-102470000D01*
X37507416Y-102331175D01*
X37308824Y-102132583D01*
X37185483Y-102034222D01*
X37089248Y-101957477D01*
X36851445Y-101808055D01*
X36851442Y-101808053D01*
X36598411Y-101686200D01*
X36333329Y-101593443D01*
X36333317Y-101593439D01*
X36059512Y-101530945D01*
X36059494Y-101530942D01*
X35780431Y-101499500D01*
X35780425Y-101499500D01*
X35499575Y-101499500D01*
X35499568Y-101499500D01*
X35220505Y-101530942D01*
X35220487Y-101530945D01*
X34946682Y-101593439D01*
X34946670Y-101593443D01*
X34681588Y-101686200D01*
X34428557Y-101808053D01*
X34190753Y-101957476D01*
X33971175Y-102132583D01*
X33772583Y-102331175D01*
X33597476Y-102550753D01*
X33448053Y-102788557D01*
X33326200Y-103041588D01*
X33233443Y-103306670D01*
X33233439Y-103306682D01*
X33170945Y-103580487D01*
X33170942Y-103580505D01*
X33139500Y-103859568D01*
X30500500Y-103859568D01*
X30500500Y-68333711D01*
X76949500Y-68333711D01*
X76949500Y-68826288D01*
X76981161Y-69066785D01*
X77043947Y-69301104D01*
X77090113Y-69412557D01*
X77136776Y-69525212D01*
X77258064Y-69735289D01*
X77258066Y-69735292D01*
X77258067Y-69735293D01*
X77405733Y-69927736D01*
X77405739Y-69927743D01*
X77577256Y-70099260D01*
X77577263Y-70099266D01*
X77590801Y-70109654D01*
X77769711Y-70246936D01*
X77979788Y-70368224D01*
X78203900Y-70461054D01*
X78438211Y-70523838D01*
X78618586Y-70547584D01*
X78678711Y-70555500D01*
X78678712Y-70555500D01*
X78921289Y-70555500D01*
X78969388Y-70549167D01*
X79161789Y-70523838D01*
X79396100Y-70461054D01*
X79620212Y-70368224D01*
X79830289Y-70246936D01*
X80022738Y-70099265D01*
X80194265Y-69927738D01*
X80296813Y-69794093D01*
X80353240Y-69752891D01*
X80422986Y-69748736D01*
X80468074Y-69769262D01*
X80592442Y-69859620D01*
X80781782Y-69956095D01*
X80983871Y-70021757D01*
X81050000Y-70032231D01*
X81050000Y-68984145D01*
X81116657Y-69022630D01*
X81237465Y-69055000D01*
X81362535Y-69055000D01*
X81483343Y-69022630D01*
X81550000Y-68984145D01*
X81550000Y-70032230D01*
X81616126Y-70021757D01*
X81616129Y-70021757D01*
X81818217Y-69956095D01*
X82007554Y-69859622D01*
X82131924Y-69769262D01*
X82197730Y-69745782D01*
X82265784Y-69761607D01*
X82303186Y-69794094D01*
X82405733Y-69927736D01*
X82405739Y-69927743D01*
X82577256Y-70099260D01*
X82577263Y-70099266D01*
X82590801Y-70109654D01*
X82769711Y-70246936D01*
X82979788Y-70368224D01*
X83203900Y-70461054D01*
X83438211Y-70523838D01*
X83618586Y-70547584D01*
X83678711Y-70555500D01*
X83678712Y-70555500D01*
X83921289Y-70555500D01*
X83969388Y-70549167D01*
X84161789Y-70523838D01*
X84396100Y-70461054D01*
X84620212Y-70368224D01*
X84780512Y-70275674D01*
X84848406Y-70259203D01*
X84913123Y-70281135D01*
X85080367Y-70397003D01*
X85080371Y-70397005D01*
X85080374Y-70397007D01*
X85285317Y-70490096D01*
X85285321Y-70490097D01*
X85503579Y-70545094D01*
X85503581Y-70545094D01*
X85503588Y-70545096D01*
X85635783Y-70555500D01*
X86964216Y-70555499D01*
X87096412Y-70545096D01*
X87314683Y-70490096D01*
X87519626Y-70397007D01*
X87704654Y-70268819D01*
X87863819Y-70109654D01*
X87992007Y-69924626D01*
X88085096Y-69719683D01*
X88140096Y-69501412D01*
X88150500Y-69369217D01*
X88150499Y-67790784D01*
X88140096Y-67658588D01*
X88134100Y-67634794D01*
X88085097Y-67440321D01*
X88085096Y-67440318D01*
X88073240Y-67414217D01*
X87992007Y-67235374D01*
X87917457Y-67127768D01*
X87863825Y-67050354D01*
X87863822Y-67050350D01*
X87863819Y-67050346D01*
X87704654Y-66891181D01*
X87704650Y-66891178D01*
X87704645Y-66891174D01*
X87519632Y-66762997D01*
X87519630Y-66762995D01*
X87519626Y-66762993D01*
X87378621Y-66698946D01*
X87314681Y-66669903D01*
X87314678Y-66669902D01*
X87096420Y-66614905D01*
X87096413Y-66614904D01*
X87052347Y-66611436D01*
X86964217Y-66604500D01*
X86964215Y-66604500D01*
X85635791Y-66604500D01*
X85635776Y-66604501D01*
X85503586Y-66614904D01*
X85503579Y-66614905D01*
X85285321Y-66669902D01*
X85285318Y-66669903D01*
X85080377Y-66762991D01*
X85080367Y-66762997D01*
X84913124Y-66878863D01*
X84846807Y-66900860D01*
X84780508Y-66884322D01*
X84620215Y-66791777D01*
X84620205Y-66791773D01*
X84396104Y-66698947D01*
X84161785Y-66636161D01*
X83921289Y-66604500D01*
X83921288Y-66604500D01*
X83678712Y-66604500D01*
X83678711Y-66604500D01*
X83438214Y-66636161D01*
X83203895Y-66698947D01*
X82979794Y-66791773D01*
X82979785Y-66791777D01*
X82769706Y-66913067D01*
X82577263Y-67060733D01*
X82577256Y-67060739D01*
X82405739Y-67232256D01*
X82303186Y-67365906D01*
X82246758Y-67407108D01*
X82177012Y-67411263D01*
X82131925Y-67390737D01*
X82007557Y-67300379D01*
X81818215Y-67203903D01*
X81616124Y-67138241D01*
X81550000Y-67127768D01*
X81550000Y-68175854D01*
X81483343Y-68137370D01*
X81362535Y-68105000D01*
X81237465Y-68105000D01*
X81116657Y-68137370D01*
X81050000Y-68175854D01*
X81050000Y-67127768D01*
X81049999Y-67127768D01*
X80983875Y-67138241D01*
X80781784Y-67203903D01*
X80592442Y-67300379D01*
X80468074Y-67390737D01*
X80402267Y-67414217D01*
X80334214Y-67398391D01*
X80296813Y-67365905D01*
X80194266Y-67232263D01*
X80194260Y-67232256D01*
X80022743Y-67060739D01*
X80022736Y-67060733D01*
X79830293Y-66913067D01*
X79830292Y-66913066D01*
X79830289Y-66913064D01*
X79620212Y-66791776D01*
X79620205Y-66791773D01*
X79396104Y-66698947D01*
X79161785Y-66636161D01*
X78921289Y-66604500D01*
X78921288Y-66604500D01*
X78678712Y-66604500D01*
X78678711Y-66604500D01*
X78438214Y-66636161D01*
X78203895Y-66698947D01*
X77979794Y-66791773D01*
X77979785Y-66791777D01*
X77769706Y-66913067D01*
X77577263Y-67060733D01*
X77577256Y-67060739D01*
X77405739Y-67232256D01*
X77405733Y-67232263D01*
X77258067Y-67424706D01*
X77136777Y-67634785D01*
X77136773Y-67634794D01*
X77043947Y-67858895D01*
X76981161Y-68093214D01*
X76949500Y-68333711D01*
X30500500Y-68333711D01*
X30500500Y-63859568D01*
X33139500Y-63859568D01*
X33139500Y-64140431D01*
X33170942Y-64419494D01*
X33170945Y-64419512D01*
X33233439Y-64693317D01*
X33233443Y-64693329D01*
X33326200Y-64958411D01*
X33448053Y-65211442D01*
X33448055Y-65211445D01*
X33597477Y-65449248D01*
X33601787Y-65454652D01*
X33770738Y-65666511D01*
X33772584Y-65668825D01*
X33971175Y-65867416D01*
X34190752Y-66042523D01*
X34428555Y-66191945D01*
X34681592Y-66313801D01*
X34880680Y-66383465D01*
X34946670Y-66406556D01*
X34946682Y-66406560D01*
X35220491Y-66469055D01*
X35220497Y-66469055D01*
X35220505Y-66469057D01*
X35406547Y-66490018D01*
X35499569Y-66500499D01*
X35499572Y-66500500D01*
X35499575Y-66500500D01*
X35780428Y-66500500D01*
X35780429Y-66500499D01*
X35923055Y-66484429D01*
X36059494Y-66469057D01*
X36059499Y-66469056D01*
X36059509Y-66469055D01*
X36333318Y-66406560D01*
X36598408Y-66313801D01*
X36851445Y-66191945D01*
X37089248Y-66042523D01*
X37308825Y-65867416D01*
X37507416Y-65668825D01*
X37682523Y-65449248D01*
X37831945Y-65211445D01*
X37953801Y-64958408D01*
X38046560Y-64693318D01*
X38109055Y-64419509D01*
X38116487Y-64353553D01*
X38140499Y-64140431D01*
X38140500Y-64140427D01*
X38140500Y-63868905D01*
X51640000Y-63868905D01*
X51640000Y-64131094D01*
X51674220Y-64391009D01*
X51674222Y-64391020D01*
X51742075Y-64644255D01*
X51842404Y-64886471D01*
X51842409Y-64886482D01*
X51973488Y-65113516D01*
X51973494Y-65113524D01*
X52060080Y-65226365D01*
X52962421Y-64324024D01*
X52975359Y-64355258D01*
X53057437Y-64478097D01*
X53161903Y-64582563D01*
X53284742Y-64664641D01*
X53315974Y-64677577D01*
X52413633Y-65579917D01*
X52413633Y-65579918D01*
X52526475Y-65666505D01*
X52526483Y-65666511D01*
X52753517Y-65797590D01*
X52753528Y-65797595D01*
X52995744Y-65897924D01*
X53248979Y-65965777D01*
X53248990Y-65965779D01*
X53508905Y-65999999D01*
X53508920Y-66000000D01*
X53771080Y-66000000D01*
X53771094Y-65999999D01*
X54031009Y-65965779D01*
X54031020Y-65965777D01*
X54284255Y-65897924D01*
X54526471Y-65797595D01*
X54526482Y-65797590D01*
X54753516Y-65666511D01*
X54753534Y-65666499D01*
X54866365Y-65579919D01*
X54866365Y-65579917D01*
X53964025Y-64677578D01*
X53995258Y-64664641D01*
X54118097Y-64582563D01*
X54222563Y-64478097D01*
X54304641Y-64355258D01*
X54317577Y-64324025D01*
X55219917Y-65226365D01*
X55219919Y-65226365D01*
X55306499Y-65113534D01*
X55306511Y-65113516D01*
X55437590Y-64886482D01*
X55437595Y-64886471D01*
X55537924Y-64644255D01*
X55605777Y-64391020D01*
X55605779Y-64391009D01*
X55639999Y-64131094D01*
X55640000Y-64131080D01*
X55640000Y-63868919D01*
X55639999Y-63868905D01*
X55605779Y-63608990D01*
X55605777Y-63608979D01*
X55537924Y-63355744D01*
X55437595Y-63113528D01*
X55437590Y-63113517D01*
X55306511Y-62886483D01*
X55306505Y-62886475D01*
X55219918Y-62773633D01*
X55219917Y-62773633D01*
X54317577Y-63675973D01*
X54304641Y-63644742D01*
X54222563Y-63521903D01*
X54118097Y-63417437D01*
X53995258Y-63335359D01*
X53964023Y-63322421D01*
X54866365Y-62420080D01*
X54753524Y-62333494D01*
X54753516Y-62333488D01*
X54526482Y-62202409D01*
X54526471Y-62202404D01*
X54284255Y-62102075D01*
X54031020Y-62034222D01*
X54031009Y-62034220D01*
X53771094Y-62000000D01*
X53508905Y-62000000D01*
X53248990Y-62034220D01*
X53248979Y-62034222D01*
X52995744Y-62102075D01*
X52753528Y-62202404D01*
X52753517Y-62202409D01*
X52526471Y-62333496D01*
X52413633Y-62420079D01*
X52413633Y-62420080D01*
X53315974Y-63322421D01*
X53284742Y-63335359D01*
X53161903Y-63417437D01*
X53057437Y-63521903D01*
X52975359Y-63644742D01*
X52962421Y-63675974D01*
X52060080Y-62773633D01*
X52060079Y-62773633D01*
X51973496Y-62886471D01*
X51842409Y-63113517D01*
X51842404Y-63113528D01*
X51742075Y-63355744D01*
X51674222Y-63608979D01*
X51674220Y-63608990D01*
X51640000Y-63868905D01*
X38140500Y-63868905D01*
X38140500Y-63859572D01*
X38140499Y-63859568D01*
X38109057Y-63580505D01*
X38109054Y-63580487D01*
X38046560Y-63306682D01*
X38046556Y-63306670D01*
X37978972Y-63113528D01*
X37953801Y-63041592D01*
X37831945Y-62788555D01*
X37682523Y-62550752D01*
X37578315Y-62420080D01*
X37507416Y-62331175D01*
X37308824Y-62132583D01*
X37185483Y-62034222D01*
X37089248Y-61957477D01*
X36851445Y-61808055D01*
X36851442Y-61808053D01*
X36598411Y-61686200D01*
X36333329Y-61593443D01*
X36333317Y-61593439D01*
X36059512Y-61530945D01*
X36059494Y-61530942D01*
X35780431Y-61499500D01*
X35780425Y-61499500D01*
X35499575Y-61499500D01*
X35499568Y-61499500D01*
X35220505Y-61530942D01*
X35220487Y-61530945D01*
X34946682Y-61593439D01*
X34946670Y-61593443D01*
X34681588Y-61686200D01*
X34428557Y-61808053D01*
X34190753Y-61957476D01*
X33971175Y-62132583D01*
X33772583Y-62331175D01*
X33597476Y-62550753D01*
X33448053Y-62788557D01*
X33326200Y-63041588D01*
X33233443Y-63306670D01*
X33233439Y-63306682D01*
X33170945Y-63580487D01*
X33170942Y-63580505D01*
X33139500Y-63859568D01*
X30500500Y-63859568D01*
X30500500Y-54945777D01*
X38839500Y-54945777D01*
X38839500Y-56174208D01*
X38839501Y-56174223D01*
X38849904Y-56306413D01*
X38849905Y-56306420D01*
X38904902Y-56524678D01*
X38904903Y-56524681D01*
X38997991Y-56729622D01*
X38997997Y-56729632D01*
X39126174Y-56914645D01*
X39126178Y-56914650D01*
X39126181Y-56914654D01*
X39285346Y-57073819D01*
X39285350Y-57073822D01*
X39285354Y-57073825D01*
X39424603Y-57170297D01*
X39470374Y-57202007D01*
X39472472Y-57202960D01*
X39473273Y-57203651D01*
X39475213Y-57204752D01*
X39474994Y-57205136D01*
X39525368Y-57248606D01*
X39545189Y-57315606D01*
X39528908Y-57373575D01*
X39530352Y-57374311D01*
X39435244Y-57560968D01*
X39372009Y-57755582D01*
X39340000Y-57957682D01*
X39340000Y-58162317D01*
X39372009Y-58364417D01*
X39435244Y-58559031D01*
X39528141Y-58741350D01*
X39528147Y-58741359D01*
X39560523Y-58785921D01*
X39560524Y-58785922D01*
X40240000Y-58106446D01*
X40240000Y-58112661D01*
X40267259Y-58214394D01*
X40319920Y-58305606D01*
X40394394Y-58380080D01*
X40485606Y-58432741D01*
X40587339Y-58460000D01*
X40593553Y-58460000D01*
X39914076Y-59139474D01*
X39958650Y-59171859D01*
X40140968Y-59264755D01*
X40335582Y-59327990D01*
X40537683Y-59360000D01*
X40742317Y-59360000D01*
X40944417Y-59327990D01*
X41139031Y-59264755D01*
X41321349Y-59171859D01*
X41365921Y-59139474D01*
X40686447Y-58460000D01*
X40692661Y-58460000D01*
X40794394Y-58432741D01*
X40885606Y-58380080D01*
X40960080Y-58305606D01*
X41012741Y-58214394D01*
X41040000Y-58112661D01*
X41040000Y-58106447D01*
X41719474Y-58785921D01*
X41751859Y-58741349D01*
X41844755Y-58559031D01*
X41907990Y-58364417D01*
X41940000Y-58162317D01*
X41940000Y-57957682D01*
X41907990Y-57755582D01*
X41844755Y-57560968D01*
X41749648Y-57374311D01*
X41751164Y-57373538D01*
X41734838Y-57313226D01*
X41755941Y-57246620D01*
X41804989Y-57205109D01*
X41804787Y-57204752D01*
X41806682Y-57203676D01*
X41807530Y-57202958D01*
X41809626Y-57202007D01*
X41994654Y-57073819D01*
X42153819Y-56914654D01*
X42282007Y-56729626D01*
X42375096Y-56524683D01*
X42430096Y-56306412D01*
X42440500Y-56174217D01*
X42440499Y-54945784D01*
X42430096Y-54813588D01*
X42375096Y-54595317D01*
X42332694Y-54501966D01*
X48847000Y-54501966D01*
X48847000Y-56618028D01*
X48847001Y-56618034D01*
X48857613Y-56737415D01*
X48913589Y-56933045D01*
X48913590Y-56933048D01*
X48913591Y-56933049D01*
X49007802Y-57113407D01*
X49007804Y-57113409D01*
X49136390Y-57271109D01*
X49188043Y-57313226D01*
X49294093Y-57399698D01*
X49474451Y-57493909D01*
X49670082Y-57549886D01*
X49789463Y-57560500D01*
X51810536Y-57560499D01*
X51929918Y-57549886D01*
X52125549Y-57493909D01*
X52305907Y-57399698D01*
X52463609Y-57271109D01*
X52592198Y-57113407D01*
X52642639Y-57016841D01*
X52691125Y-56966535D01*
X52759112Y-56950428D01*
X52790866Y-56956323D01*
X52999871Y-57024234D01*
X53090000Y-57038509D01*
X53090000Y-56050747D01*
X53127708Y-56072518D01*
X53267591Y-56110000D01*
X53412409Y-56110000D01*
X53552292Y-56072518D01*
X53590000Y-56050747D01*
X53590000Y-57038508D01*
X53680128Y-57024234D01*
X53897570Y-56953582D01*
X54101277Y-56849788D01*
X54177073Y-56794718D01*
X54242879Y-56771237D01*
X54310934Y-56787062D01*
X54348335Y-56819548D01*
X54408507Y-56897965D01*
X54408515Y-56897974D01*
X54589529Y-57078988D01*
X54589533Y-57078991D01*
X54589535Y-57078993D01*
X54634384Y-57113407D01*
X54792647Y-57234847D01*
X55014353Y-57362848D01*
X55014368Y-57362855D01*
X55103316Y-57399698D01*
X55250882Y-57460822D01*
X55498171Y-57527083D01*
X55740581Y-57558997D01*
X55751978Y-57560498D01*
X55751994Y-57560500D01*
X55752001Y-57560500D01*
X56007999Y-57560500D01*
X56008006Y-57560500D01*
X56261829Y-57527083D01*
X56509118Y-57460822D01*
X56745643Y-57362850D01*
X56904544Y-57271109D01*
X56967352Y-57234847D01*
X56967352Y-57234846D01*
X56967357Y-57234844D01*
X57170465Y-57078993D01*
X57351493Y-56897965D01*
X57507344Y-56694857D01*
X57635350Y-56473143D01*
X57733322Y-56236618D01*
X57799583Y-55989329D01*
X57833000Y-55735506D01*
X57833000Y-55384494D01*
X57799583Y-55130671D01*
X57733322Y-54883382D01*
X57635350Y-54646857D01*
X57551698Y-54501966D01*
X57507347Y-54425147D01*
X57446466Y-54345806D01*
X57351493Y-54222035D01*
X57351491Y-54222033D01*
X57351488Y-54222029D01*
X57170470Y-54041011D01*
X57168911Y-54039815D01*
X56967357Y-53885156D01*
X56967352Y-53885152D01*
X56745646Y-53757151D01*
X56745631Y-53757144D01*
X56509116Y-53659177D01*
X56385628Y-53626089D01*
X56261829Y-53592917D01*
X56205423Y-53585491D01*
X56008013Y-53559500D01*
X56008006Y-53559500D01*
X55751994Y-53559500D01*
X55751986Y-53559500D01*
X55526373Y-53589204D01*
X55498171Y-53592917D01*
X55431911Y-53610671D01*
X55250883Y-53659177D01*
X55014368Y-53757144D01*
X55014353Y-53757151D01*
X54792647Y-53885152D01*
X54589529Y-54041011D01*
X54408512Y-54222029D01*
X54408501Y-54222041D01*
X54348334Y-54300451D01*
X54291906Y-54341653D01*
X54222160Y-54345806D01*
X54177075Y-54325281D01*
X54101280Y-54270213D01*
X53897568Y-54166417D01*
X53680124Y-54095765D01*
X53590000Y-54081490D01*
X53590000Y-55069252D01*
X53552292Y-55047482D01*
X53412409Y-55010000D01*
X53267591Y-55010000D01*
X53127708Y-55047482D01*
X53090000Y-55069252D01*
X53090000Y-54081490D01*
X53089999Y-54081490D01*
X52999875Y-54095765D01*
X52790864Y-54163676D01*
X52721022Y-54165671D01*
X52661190Y-54129590D01*
X52642641Y-54103162D01*
X52592198Y-54006593D01*
X52519958Y-53917997D01*
X52463609Y-53848890D01*
X52305909Y-53720304D01*
X52305910Y-53720304D01*
X52305907Y-53720302D01*
X52125549Y-53626091D01*
X52125548Y-53626090D01*
X52125545Y-53626089D01*
X52008329Y-53592550D01*
X51929918Y-53570114D01*
X51929915Y-53570113D01*
X51929913Y-53570113D01*
X51863602Y-53564217D01*
X51810537Y-53559500D01*
X51810532Y-53559500D01*
X49789471Y-53559500D01*
X49789465Y-53559500D01*
X49789464Y-53559501D01*
X49777816Y-53560536D01*
X49670084Y-53570113D01*
X49474454Y-53626089D01*
X49411111Y-53659177D01*
X49294093Y-53720302D01*
X49294091Y-53720303D01*
X49294090Y-53720304D01*
X49136390Y-53848890D01*
X49030436Y-53978834D01*
X49007802Y-54006593D01*
X48980331Y-54059184D01*
X48913589Y-54186954D01*
X48857614Y-54382583D01*
X48857613Y-54382586D01*
X48847000Y-54501966D01*
X42332694Y-54501966D01*
X42282007Y-54390374D01*
X42198759Y-54270213D01*
X42153825Y-54205354D01*
X42153822Y-54205350D01*
X42153819Y-54205346D01*
X41994654Y-54046181D01*
X41994650Y-54046178D01*
X41994645Y-54046174D01*
X41809632Y-53917997D01*
X41809630Y-53917995D01*
X41809626Y-53917993D01*
X41657492Y-53848891D01*
X41604681Y-53824903D01*
X41604678Y-53824902D01*
X41386420Y-53769905D01*
X41386413Y-53769904D01*
X41342347Y-53766436D01*
X41254217Y-53759500D01*
X41254215Y-53759500D01*
X40025791Y-53759500D01*
X40025776Y-53759501D01*
X39893586Y-53769904D01*
X39893579Y-53769905D01*
X39675321Y-53824902D01*
X39675318Y-53824903D01*
X39470377Y-53917991D01*
X39470367Y-53917997D01*
X39285354Y-54046174D01*
X39285342Y-54046184D01*
X39126184Y-54205342D01*
X39126174Y-54205354D01*
X38997997Y-54390367D01*
X38997991Y-54390377D01*
X38904903Y-54595318D01*
X38904902Y-54595321D01*
X38849905Y-54813579D01*
X38849904Y-54813586D01*
X38839500Y-54945777D01*
X30500500Y-54945777D01*
X30500500Y-44878711D01*
X33149500Y-44878711D01*
X33149500Y-45121288D01*
X33181161Y-45361785D01*
X33243947Y-45596104D01*
X33269364Y-45657465D01*
X33336776Y-45820212D01*
X33458064Y-46030289D01*
X33458066Y-46030292D01*
X33458067Y-46030293D01*
X33605733Y-46222736D01*
X33605739Y-46222743D01*
X33777256Y-46394260D01*
X33777262Y-46394265D01*
X33969711Y-46541936D01*
X34179788Y-46663224D01*
X34403900Y-46756054D01*
X34638211Y-46818838D01*
X34818586Y-46842584D01*
X34878711Y-46850500D01*
X34878712Y-46850500D01*
X35121289Y-46850500D01*
X35169388Y-46844167D01*
X35361789Y-46818838D01*
X35596100Y-46756054D01*
X35820212Y-46663224D01*
X36030289Y-46541936D01*
X36222738Y-46394265D01*
X36394265Y-46222738D01*
X36541936Y-46030289D01*
X36663224Y-45820212D01*
X36756054Y-45596100D01*
X36818838Y-45361789D01*
X36850500Y-45121288D01*
X36850500Y-44930777D01*
X51489500Y-44930777D01*
X51489500Y-46509208D01*
X51489501Y-46509223D01*
X51499904Y-46641413D01*
X51499905Y-46641420D01*
X51554902Y-46859678D01*
X51554903Y-46859681D01*
X51647991Y-47064622D01*
X51647997Y-47064632D01*
X51776174Y-47249645D01*
X51776178Y-47249650D01*
X51776181Y-47249654D01*
X51935346Y-47408819D01*
X51935350Y-47408822D01*
X51935354Y-47408825D01*
X51953124Y-47421136D01*
X52120374Y-47537007D01*
X52325317Y-47630096D01*
X52325321Y-47630097D01*
X52543579Y-47685094D01*
X52543581Y-47685094D01*
X52543588Y-47685096D01*
X52675783Y-47695500D01*
X54004216Y-47695499D01*
X54136412Y-47685096D01*
X54354683Y-47630096D01*
X54559626Y-47537007D01*
X54726875Y-47421135D01*
X54793191Y-47399139D01*
X54859491Y-47415677D01*
X55019784Y-47508222D01*
X55019785Y-47508222D01*
X55019788Y-47508224D01*
X55243900Y-47601054D01*
X55478211Y-47663838D01*
X55647911Y-47686179D01*
X55718711Y-47695500D01*
X55718712Y-47695500D01*
X55961289Y-47695500D01*
X56032089Y-47686179D01*
X56201789Y-47663838D01*
X56436100Y-47601054D01*
X56660212Y-47508224D01*
X56870289Y-47386936D01*
X57014516Y-47276266D01*
X57079683Y-47251074D01*
X57148127Y-47265112D01*
X57165476Y-47276261D01*
X57309711Y-47386936D01*
X57519788Y-47508224D01*
X57743900Y-47601054D01*
X57978211Y-47663838D01*
X58147911Y-47686179D01*
X58218711Y-47695500D01*
X58218712Y-47695500D01*
X58461289Y-47695500D01*
X58532089Y-47686179D01*
X58701789Y-47663838D01*
X58936100Y-47601054D01*
X59160212Y-47508224D01*
X59370289Y-47386936D01*
X59514516Y-47276266D01*
X59579683Y-47251074D01*
X59648127Y-47265112D01*
X59665476Y-47276261D01*
X59809711Y-47386936D01*
X60019788Y-47508224D01*
X60243900Y-47601054D01*
X60478211Y-47663838D01*
X60647911Y-47686179D01*
X60718711Y-47695500D01*
X60718712Y-47695500D01*
X60961289Y-47695500D01*
X61032089Y-47686179D01*
X61201789Y-47663838D01*
X61436100Y-47601054D01*
X61660212Y-47508224D01*
X61870289Y-47386936D01*
X62014516Y-47276266D01*
X62079683Y-47251074D01*
X62148127Y-47265112D01*
X62165476Y-47276261D01*
X62309711Y-47386936D01*
X62519788Y-47508224D01*
X62743900Y-47601054D01*
X62978211Y-47663838D01*
X63147914Y-47686179D01*
X63211810Y-47714445D01*
X63219410Y-47721437D01*
X69345792Y-53847819D01*
X69379277Y-53909142D01*
X69374293Y-53978834D01*
X69332421Y-54034767D01*
X69266957Y-54059184D01*
X69258111Y-54059500D01*
X68722637Y-54059500D01*
X68655598Y-54039815D01*
X68652021Y-54037428D01*
X68479632Y-53917997D01*
X68479630Y-53917995D01*
X68479626Y-53917993D01*
X68327492Y-53848891D01*
X68274681Y-53824903D01*
X68274678Y-53824902D01*
X68056420Y-53769905D01*
X68056413Y-53769904D01*
X68012347Y-53766436D01*
X67924217Y-53759500D01*
X67924215Y-53759500D01*
X66695791Y-53759500D01*
X66695776Y-53759501D01*
X66563586Y-53769904D01*
X66563579Y-53769905D01*
X66345321Y-53824902D01*
X66345318Y-53824903D01*
X66140377Y-53917991D01*
X66140367Y-53917997D01*
X65955354Y-54046174D01*
X65955342Y-54046184D01*
X65796184Y-54205342D01*
X65796174Y-54205354D01*
X65667997Y-54390367D01*
X65667991Y-54390377D01*
X65574903Y-54595318D01*
X65574902Y-54595321D01*
X65519905Y-54813579D01*
X65519904Y-54813586D01*
X65509500Y-54945777D01*
X65509500Y-56174208D01*
X65509501Y-56174223D01*
X65519904Y-56306413D01*
X65519905Y-56306420D01*
X65574902Y-56524678D01*
X65574903Y-56524681D01*
X65667991Y-56729622D01*
X65667997Y-56729632D01*
X65796174Y-56914645D01*
X65796178Y-56914650D01*
X65796181Y-56914654D01*
X65955346Y-57073819D01*
X65955350Y-57073822D01*
X65955354Y-57073825D01*
X66094603Y-57170297D01*
X66140374Y-57202007D01*
X66142472Y-57202960D01*
X66143273Y-57203651D01*
X66145213Y-57204752D01*
X66144994Y-57205136D01*
X66195368Y-57248606D01*
X66215189Y-57315606D01*
X66198908Y-57373575D01*
X66200352Y-57374311D01*
X66105244Y-57560968D01*
X66042009Y-57755582D01*
X66010000Y-57957682D01*
X66010000Y-58162317D01*
X66042009Y-58364417D01*
X66105244Y-58559031D01*
X66198141Y-58741350D01*
X66198147Y-58741359D01*
X66230523Y-58785921D01*
X66230524Y-58785922D01*
X66910000Y-58106446D01*
X66910000Y-58112661D01*
X66937259Y-58214394D01*
X66989920Y-58305606D01*
X67064394Y-58380080D01*
X67155606Y-58432741D01*
X67257339Y-58460000D01*
X67263553Y-58460000D01*
X66584076Y-59139474D01*
X66628650Y-59171859D01*
X66810968Y-59264755D01*
X67005582Y-59327990D01*
X67207683Y-59360000D01*
X67412317Y-59360000D01*
X67614417Y-59327990D01*
X67809031Y-59264755D01*
X67991349Y-59171859D01*
X68035921Y-59139474D01*
X67356447Y-58460000D01*
X67362661Y-58460000D01*
X67464394Y-58432741D01*
X67555606Y-58380080D01*
X67630080Y-58305606D01*
X67682741Y-58214394D01*
X67710000Y-58112661D01*
X67710000Y-58106447D01*
X68389474Y-58785921D01*
X68421859Y-58741349D01*
X68514755Y-58559031D01*
X68577990Y-58364417D01*
X68610000Y-58162317D01*
X68610000Y-57957682D01*
X68577990Y-57755582D01*
X68514755Y-57560968D01*
X68419648Y-57374311D01*
X68421164Y-57373538D01*
X68404838Y-57313226D01*
X68425941Y-57246620D01*
X68459245Y-57213210D01*
X68467950Y-57207310D01*
X68479626Y-57202007D01*
X68652478Y-57082253D01*
X68653072Y-57081852D01*
X68685775Y-57071375D01*
X68718338Y-57060575D01*
X68719558Y-57060553D01*
X68719611Y-57060537D01*
X68719666Y-57060551D01*
X68722637Y-57060500D01*
X79057111Y-57060500D01*
X79124150Y-57080185D01*
X79144792Y-57096819D01*
X79699537Y-57651564D01*
X79733022Y-57712887D01*
X79728038Y-57782579D01*
X79686166Y-57838512D01*
X79620702Y-57862929D01*
X79564404Y-57853806D01*
X79456107Y-57808948D01*
X79347714Y-57779904D01*
X79221789Y-57746162D01*
X79221788Y-57746161D01*
X79221785Y-57746161D01*
X78981289Y-57714500D01*
X78981288Y-57714500D01*
X78738712Y-57714500D01*
X78738711Y-57714500D01*
X78498214Y-57746161D01*
X78263895Y-57808947D01*
X78039794Y-57901773D01*
X78039785Y-57901777D01*
X77829706Y-58023067D01*
X77637263Y-58170733D01*
X77637256Y-58170739D01*
X77465739Y-58342256D01*
X77465733Y-58342263D01*
X77318067Y-58534706D01*
X77196777Y-58744785D01*
X77196773Y-58744794D01*
X77103947Y-58968895D01*
X77041161Y-59203214D01*
X77009500Y-59443711D01*
X77009500Y-59936288D01*
X77041161Y-60176785D01*
X77103947Y-60411104D01*
X77186921Y-60611420D01*
X77196776Y-60635212D01*
X77318064Y-60845289D01*
X77318066Y-60845292D01*
X77318067Y-60845293D01*
X77465733Y-61037736D01*
X77465739Y-61037743D01*
X77637256Y-61209260D01*
X77637263Y-61209266D01*
X77650801Y-61219654D01*
X77829711Y-61356936D01*
X78039788Y-61478224D01*
X78263900Y-61571054D01*
X78498211Y-61633838D01*
X78678586Y-61657584D01*
X78738711Y-61665500D01*
X78738712Y-61665500D01*
X78981289Y-61665500D01*
X79029388Y-61659167D01*
X79221789Y-61633838D01*
X79456100Y-61571054D01*
X79680212Y-61478224D01*
X79890289Y-61356936D01*
X80082738Y-61209265D01*
X80254265Y-61037738D01*
X80356813Y-60904093D01*
X80413240Y-60862891D01*
X80482986Y-60858736D01*
X80528074Y-60879262D01*
X80652442Y-60969620D01*
X80841782Y-61066095D01*
X81043871Y-61131757D01*
X81110000Y-61142231D01*
X81110000Y-60094145D01*
X81176657Y-60132630D01*
X81297465Y-60165000D01*
X81422535Y-60165000D01*
X81543343Y-60132630D01*
X81610000Y-60094145D01*
X81610000Y-61142230D01*
X81676126Y-61131757D01*
X81676129Y-61131757D01*
X81878217Y-61066095D01*
X82067554Y-60969622D01*
X82191924Y-60879262D01*
X82257730Y-60855782D01*
X82325784Y-60871607D01*
X82363186Y-60904094D01*
X82465733Y-61037736D01*
X82465739Y-61037743D01*
X82637256Y-61209260D01*
X82637263Y-61209266D01*
X82650801Y-61219654D01*
X82829711Y-61356936D01*
X83039788Y-61478224D01*
X83263900Y-61571054D01*
X83498211Y-61633838D01*
X83678586Y-61657584D01*
X83738711Y-61665500D01*
X83738712Y-61665500D01*
X83981289Y-61665500D01*
X84029388Y-61659167D01*
X84221789Y-61633838D01*
X84456100Y-61571054D01*
X84680212Y-61478224D01*
X84840512Y-61385674D01*
X84908406Y-61369203D01*
X84973123Y-61391135D01*
X85140367Y-61507003D01*
X85140371Y-61507005D01*
X85140374Y-61507007D01*
X85345317Y-61600096D01*
X85345321Y-61600097D01*
X85563579Y-61655094D01*
X85563581Y-61655094D01*
X85563588Y-61655096D01*
X85695783Y-61665500D01*
X87024216Y-61665499D01*
X87156412Y-61655096D01*
X87374683Y-61600096D01*
X87579626Y-61507007D01*
X87764654Y-61378819D01*
X87923819Y-61219654D01*
X88052007Y-61034626D01*
X88145096Y-60829683D01*
X88200096Y-60611412D01*
X88203858Y-60563604D01*
X88228742Y-60498318D01*
X88284973Y-60456847D01*
X88354699Y-60452360D01*
X88415157Y-60485654D01*
X102543181Y-74613678D01*
X102576666Y-74675001D01*
X102579500Y-74701359D01*
X102579500Y-75603550D01*
X102559815Y-75670589D01*
X102507011Y-75716344D01*
X102437853Y-75726288D01*
X102382618Y-75703870D01*
X102378850Y-75701132D01*
X102154383Y-75586760D01*
X101914785Y-75508910D01*
X101914779Y-75508909D01*
X101665962Y-75469500D01*
X101414038Y-75469500D01*
X101390804Y-75473180D01*
X101165214Y-75508910D01*
X100925616Y-75586760D01*
X100701151Y-75701132D01*
X100497350Y-75849201D01*
X100497345Y-75849205D01*
X100357681Y-75988870D01*
X100296358Y-76022355D01*
X100226666Y-76017371D01*
X100182319Y-75988870D01*
X100042654Y-75849205D01*
X100042649Y-75849201D01*
X99838848Y-75701132D01*
X99838847Y-75701131D01*
X99838845Y-75701130D01*
X99768747Y-75665413D01*
X99614383Y-75586760D01*
X99374785Y-75508910D01*
X99374779Y-75508909D01*
X99125962Y-75469500D01*
X98874038Y-75469500D01*
X98850804Y-75473180D01*
X98625214Y-75508910D01*
X98385616Y-75586760D01*
X98161151Y-75701132D01*
X97957350Y-75849201D01*
X97957345Y-75849205D01*
X97817681Y-75988870D01*
X97756358Y-76022355D01*
X97686666Y-76017371D01*
X97642319Y-75988870D01*
X97502654Y-75849205D01*
X97502649Y-75849201D01*
X97298848Y-75701132D01*
X97298847Y-75701131D01*
X97298845Y-75701130D01*
X97228747Y-75665413D01*
X97074383Y-75586760D01*
X96834785Y-75508910D01*
X96834779Y-75508909D01*
X96585962Y-75469500D01*
X96334038Y-75469500D01*
X96310804Y-75473180D01*
X96085214Y-75508910D01*
X95845616Y-75586760D01*
X95621151Y-75701132D01*
X95417350Y-75849201D01*
X95417345Y-75849205D01*
X95277681Y-75988870D01*
X95216358Y-76022355D01*
X95146666Y-76017371D01*
X95102319Y-75988870D01*
X94962654Y-75849205D01*
X94962649Y-75849201D01*
X94758848Y-75701132D01*
X94758847Y-75701131D01*
X94758845Y-75701130D01*
X94688747Y-75665413D01*
X94534383Y-75586760D01*
X94294785Y-75508910D01*
X94294779Y-75508909D01*
X94045962Y-75469500D01*
X93794038Y-75469500D01*
X93770804Y-75473180D01*
X93545214Y-75508910D01*
X93305616Y-75586760D01*
X93081151Y-75701132D01*
X92877350Y-75849201D01*
X92877345Y-75849205D01*
X92737681Y-75988870D01*
X92676358Y-76022355D01*
X92606666Y-76017371D01*
X92562319Y-75988870D01*
X92422654Y-75849205D01*
X92422649Y-75849201D01*
X92218848Y-75701132D01*
X92218847Y-75701131D01*
X92218845Y-75701130D01*
X92148747Y-75665413D01*
X91994383Y-75586760D01*
X91754785Y-75508910D01*
X91754779Y-75508909D01*
X91505962Y-75469500D01*
X91254038Y-75469500D01*
X91230804Y-75473180D01*
X91005214Y-75508910D01*
X90765616Y-75586760D01*
X90541151Y-75701132D01*
X90337350Y-75849201D01*
X90337345Y-75849205D01*
X90159205Y-76027345D01*
X90159201Y-76027350D01*
X90011132Y-76231151D01*
X89929488Y-76391385D01*
X89881513Y-76442181D01*
X89813692Y-76458976D01*
X89747557Y-76436438D01*
X89718684Y-76407974D01*
X89679036Y-76353401D01*
X89556602Y-76230967D01*
X89416524Y-76129195D01*
X89262257Y-76050591D01*
X89097589Y-75997087D01*
X89097581Y-75997085D01*
X89090000Y-75995884D01*
X89090000Y-77154314D01*
X89085606Y-77149920D01*
X88994394Y-77097259D01*
X88892661Y-77070000D01*
X88787339Y-77070000D01*
X88685606Y-77097259D01*
X88594394Y-77149920D01*
X88590000Y-77154314D01*
X88590000Y-75995884D01*
X88589999Y-75995884D01*
X88582418Y-75997085D01*
X88582410Y-75997087D01*
X88417742Y-76050591D01*
X88263475Y-76129195D01*
X88123397Y-76230967D01*
X88000965Y-76353399D01*
X87961314Y-76407975D01*
X87905984Y-76450640D01*
X87836371Y-76456619D01*
X87774576Y-76424013D01*
X87750511Y-76391384D01*
X87728895Y-76348962D01*
X87668870Y-76231155D01*
X87572673Y-76098751D01*
X87520798Y-76027350D01*
X87520794Y-76027345D01*
X87342654Y-75849205D01*
X87342649Y-75849201D01*
X87138848Y-75701132D01*
X87138847Y-75701131D01*
X87138845Y-75701130D01*
X87068747Y-75665413D01*
X86914383Y-75586760D01*
X86674785Y-75508910D01*
X86674779Y-75508909D01*
X86425962Y-75469500D01*
X86174038Y-75469500D01*
X86150804Y-75473180D01*
X85925214Y-75508910D01*
X85685616Y-75586760D01*
X85461151Y-75701132D01*
X85257350Y-75849201D01*
X85257345Y-75849205D01*
X85117681Y-75988870D01*
X85056358Y-76022355D01*
X84986666Y-76017371D01*
X84942319Y-75988870D01*
X84802654Y-75849205D01*
X84802649Y-75849201D01*
X84598848Y-75701132D01*
X84598847Y-75701131D01*
X84598845Y-75701130D01*
X84528747Y-75665413D01*
X84374383Y-75586760D01*
X84134785Y-75508910D01*
X84134779Y-75508909D01*
X83885962Y-75469500D01*
X83634038Y-75469500D01*
X83610804Y-75473180D01*
X83385214Y-75508910D01*
X83145616Y-75586760D01*
X82921151Y-75701132D01*
X82717350Y-75849201D01*
X82717345Y-75849205D01*
X82577681Y-75988870D01*
X82516358Y-76022355D01*
X82446666Y-76017371D01*
X82402319Y-75988870D01*
X82262654Y-75849205D01*
X82262649Y-75849201D01*
X82058848Y-75701132D01*
X82058847Y-75701131D01*
X82058845Y-75701130D01*
X81988747Y-75665413D01*
X81834383Y-75586760D01*
X81594785Y-75508910D01*
X81594779Y-75508909D01*
X81345962Y-75469500D01*
X81094038Y-75469500D01*
X81070804Y-75473180D01*
X80845214Y-75508910D01*
X80605616Y-75586760D01*
X80381151Y-75701132D01*
X80177350Y-75849201D01*
X80177345Y-75849205D01*
X80037681Y-75988870D01*
X79976358Y-76022355D01*
X79906666Y-76017371D01*
X79862319Y-75988870D01*
X79722654Y-75849205D01*
X79722649Y-75849201D01*
X79518848Y-75701132D01*
X79518847Y-75701131D01*
X79518845Y-75701130D01*
X79448747Y-75665413D01*
X79294383Y-75586760D01*
X79054785Y-75508910D01*
X79054779Y-75508909D01*
X78805962Y-75469500D01*
X78554038Y-75469500D01*
X78530804Y-75473180D01*
X78305214Y-75508910D01*
X78065616Y-75586760D01*
X77841151Y-75701132D01*
X77637350Y-75849201D01*
X77637345Y-75849205D01*
X77497681Y-75988870D01*
X77436358Y-76022355D01*
X77366666Y-76017371D01*
X77322319Y-75988870D01*
X77182654Y-75849205D01*
X77182649Y-75849201D01*
X76978848Y-75701132D01*
X76978847Y-75701131D01*
X76978845Y-75701130D01*
X76908747Y-75665413D01*
X76754383Y-75586760D01*
X76514785Y-75508910D01*
X76514779Y-75508909D01*
X76265962Y-75469500D01*
X76014038Y-75469500D01*
X75990804Y-75473180D01*
X75765214Y-75508910D01*
X75525616Y-75586760D01*
X75301151Y-75701132D01*
X75097350Y-75849201D01*
X75097345Y-75849205D01*
X74919205Y-76027345D01*
X74919201Y-76027350D01*
X74771132Y-76231151D01*
X74689488Y-76391385D01*
X74641513Y-76442181D01*
X74573692Y-76458976D01*
X74507557Y-76436438D01*
X74478684Y-76407974D01*
X74439036Y-76353401D01*
X74316602Y-76230967D01*
X74176524Y-76129195D01*
X74022257Y-76050591D01*
X73857589Y-75997087D01*
X73857581Y-75997085D01*
X73850000Y-75995884D01*
X73850000Y-77154314D01*
X73845606Y-77149920D01*
X73754394Y-77097259D01*
X73652661Y-77070000D01*
X73547339Y-77070000D01*
X73445606Y-77097259D01*
X73354394Y-77149920D01*
X73350000Y-77154314D01*
X73350000Y-75995884D01*
X73349999Y-75995884D01*
X73342418Y-75997085D01*
X73342410Y-75997087D01*
X73177742Y-76050591D01*
X73023475Y-76129195D01*
X72883397Y-76230967D01*
X72760967Y-76353397D01*
X72659195Y-76493475D01*
X72580591Y-76647742D01*
X72527085Y-76812415D01*
X72500000Y-76983428D01*
X72500000Y-77220000D01*
X73284314Y-77220000D01*
X73279920Y-77224394D01*
X73227259Y-77315606D01*
X73200000Y-77417339D01*
X73200000Y-77522661D01*
X73227259Y-77624394D01*
X73279920Y-77715606D01*
X73284314Y-77720000D01*
X72500000Y-77720000D01*
X72500000Y-77956571D01*
X72527085Y-78127584D01*
X72580591Y-78292257D01*
X72659195Y-78446524D01*
X72760967Y-78586602D01*
X72883397Y-78709032D01*
X73023475Y-78810804D01*
X73177744Y-78889408D01*
X73342415Y-78942914D01*
X73342414Y-78942914D01*
X73349999Y-78944115D01*
X73350000Y-78944114D01*
X73350000Y-77785686D01*
X73354394Y-77790080D01*
X73445606Y-77842741D01*
X73547339Y-77870000D01*
X73652661Y-77870000D01*
X73754394Y-77842741D01*
X73845606Y-77790080D01*
X73850000Y-77785686D01*
X73850000Y-78944115D01*
X73857584Y-78942914D01*
X74022255Y-78889408D01*
X74176524Y-78810804D01*
X74316602Y-78709032D01*
X74439034Y-78586600D01*
X74478683Y-78532026D01*
X74534012Y-78489359D01*
X74603625Y-78483378D01*
X74665421Y-78515982D01*
X74689488Y-78548614D01*
X74771132Y-78708848D01*
X74919201Y-78912649D01*
X74919205Y-78912654D01*
X75097345Y-79090794D01*
X75097350Y-79090798D01*
X75255632Y-79205796D01*
X75301155Y-79238870D01*
X75430136Y-79304589D01*
X75525616Y-79353239D01*
X75525618Y-79353239D01*
X75525621Y-79353241D01*
X75765215Y-79431090D01*
X76014038Y-79470500D01*
X76014039Y-79470500D01*
X76265961Y-79470500D01*
X76265962Y-79470500D01*
X76514785Y-79431090D01*
X76754379Y-79353241D01*
X76978845Y-79238870D01*
X77182656Y-79090793D01*
X77322319Y-78951130D01*
X77383642Y-78917645D01*
X77453334Y-78922629D01*
X77497681Y-78951130D01*
X77637345Y-79090794D01*
X77637350Y-79090798D01*
X77795632Y-79205796D01*
X77841155Y-79238870D01*
X77970136Y-79304589D01*
X78065616Y-79353239D01*
X78065618Y-79353239D01*
X78065621Y-79353241D01*
X78305215Y-79431090D01*
X78554038Y-79470500D01*
X78554039Y-79470500D01*
X78805961Y-79470500D01*
X78805962Y-79470500D01*
X79054785Y-79431090D01*
X79294379Y-79353241D01*
X79518845Y-79238870D01*
X79722656Y-79090793D01*
X79862319Y-78951130D01*
X79923642Y-78917645D01*
X79993334Y-78922629D01*
X80037681Y-78951130D01*
X80177345Y-79090794D01*
X80177350Y-79090798D01*
X80335632Y-79205796D01*
X80381155Y-79238870D01*
X80510136Y-79304589D01*
X80605616Y-79353239D01*
X80605618Y-79353239D01*
X80605621Y-79353241D01*
X80845215Y-79431090D01*
X81094038Y-79470500D01*
X81094039Y-79470500D01*
X81345961Y-79470500D01*
X81345962Y-79470500D01*
X81594785Y-79431090D01*
X81834379Y-79353241D01*
X82058845Y-79238870D01*
X82262656Y-79090793D01*
X82402319Y-78951130D01*
X82463642Y-78917645D01*
X82533334Y-78922629D01*
X82577681Y-78951130D01*
X82717345Y-79090794D01*
X82717350Y-79090798D01*
X82875632Y-79205796D01*
X82921155Y-79238870D01*
X83050136Y-79304589D01*
X83145616Y-79353239D01*
X83145618Y-79353239D01*
X83145621Y-79353241D01*
X83385215Y-79431090D01*
X83634038Y-79470500D01*
X83634039Y-79470500D01*
X83885961Y-79470500D01*
X83885962Y-79470500D01*
X84134785Y-79431090D01*
X84374379Y-79353241D01*
X84598845Y-79238870D01*
X84802656Y-79090793D01*
X84942319Y-78951130D01*
X85003642Y-78917645D01*
X85073334Y-78922629D01*
X85117681Y-78951130D01*
X85257345Y-79090794D01*
X85257350Y-79090798D01*
X85415632Y-79205796D01*
X85461155Y-79238870D01*
X85590136Y-79304589D01*
X85685616Y-79353239D01*
X85685618Y-79353239D01*
X85685621Y-79353241D01*
X85925215Y-79431090D01*
X86174038Y-79470500D01*
X86174039Y-79470500D01*
X86425961Y-79470500D01*
X86425962Y-79470500D01*
X86674785Y-79431090D01*
X86914379Y-79353241D01*
X87138845Y-79238870D01*
X87342656Y-79090793D01*
X87520793Y-78912656D01*
X87668870Y-78708845D01*
X87750511Y-78548614D01*
X87798485Y-78497819D01*
X87866306Y-78481024D01*
X87932441Y-78503561D01*
X87961315Y-78532025D01*
X88000967Y-78586602D01*
X88123397Y-78709032D01*
X88263475Y-78810804D01*
X88417744Y-78889408D01*
X88582415Y-78942914D01*
X88582414Y-78942914D01*
X88589999Y-78944115D01*
X88590000Y-78944114D01*
X88590000Y-77785686D01*
X88594394Y-77790080D01*
X88685606Y-77842741D01*
X88787339Y-77870000D01*
X88892661Y-77870000D01*
X88994394Y-77842741D01*
X89085606Y-77790080D01*
X89090000Y-77785686D01*
X89090000Y-78944115D01*
X89097584Y-78942914D01*
X89262255Y-78889408D01*
X89416524Y-78810804D01*
X89556602Y-78709032D01*
X89679034Y-78586600D01*
X89718683Y-78532026D01*
X89774012Y-78489359D01*
X89843625Y-78483378D01*
X89905421Y-78515982D01*
X89929488Y-78548614D01*
X90011132Y-78708848D01*
X90155818Y-78907992D01*
X90179298Y-78973798D01*
X90179500Y-78980877D01*
X90179500Y-80044486D01*
X90209059Y-80231118D01*
X90267454Y-80410836D01*
X90353240Y-80579199D01*
X90464310Y-80732074D01*
X94467926Y-84735690D01*
X94620800Y-84846760D01*
X94700348Y-84887291D01*
X94789163Y-84932545D01*
X94789165Y-84932545D01*
X94789168Y-84932547D01*
X94885497Y-84963846D01*
X94968881Y-84990940D01*
X95155514Y-85020500D01*
X95155519Y-85020500D01*
X118831374Y-85020500D01*
X118898413Y-85040185D01*
X118919055Y-85056819D01*
X119413181Y-85550945D01*
X119446666Y-85612268D01*
X119449500Y-85638626D01*
X119449500Y-100745500D01*
X119429815Y-100812539D01*
X119377011Y-100858294D01*
X119325500Y-100869500D01*
X119194038Y-100869500D01*
X119069626Y-100889205D01*
X118945214Y-100908910D01*
X118705616Y-100986760D01*
X118481151Y-101101132D01*
X118277350Y-101249201D01*
X118277345Y-101249205D01*
X118137681Y-101388870D01*
X118076358Y-101422355D01*
X118006666Y-101417371D01*
X117962319Y-101388870D01*
X117822654Y-101249205D01*
X117822649Y-101249201D01*
X117618848Y-101101132D01*
X117618847Y-101101131D01*
X117618845Y-101101130D01*
X117548747Y-101065413D01*
X117394383Y-100986760D01*
X117154785Y-100908910D01*
X116905962Y-100869500D01*
X116654038Y-100869500D01*
X116529626Y-100889205D01*
X116405214Y-100908910D01*
X116165616Y-100986760D01*
X115941151Y-101101132D01*
X115737350Y-101249201D01*
X115737345Y-101249205D01*
X115597681Y-101388870D01*
X115536358Y-101422355D01*
X115466666Y-101417371D01*
X115422319Y-101388870D01*
X115282654Y-101249205D01*
X115282649Y-101249201D01*
X115078848Y-101101132D01*
X115078847Y-101101131D01*
X115078845Y-101101130D01*
X115008747Y-101065413D01*
X114854383Y-100986760D01*
X114614785Y-100908910D01*
X114365962Y-100869500D01*
X114114038Y-100869500D01*
X113989626Y-100889205D01*
X113865214Y-100908910D01*
X113625616Y-100986760D01*
X113401151Y-101101132D01*
X113197350Y-101249201D01*
X113197345Y-101249205D01*
X113057681Y-101388870D01*
X112996358Y-101422355D01*
X112926666Y-101417371D01*
X112882319Y-101388870D01*
X112742654Y-101249205D01*
X112742649Y-101249201D01*
X112538848Y-101101132D01*
X112538847Y-101101131D01*
X112538845Y-101101130D01*
X112468747Y-101065413D01*
X112314383Y-100986760D01*
X112074785Y-100908910D01*
X111825962Y-100869500D01*
X111574038Y-100869500D01*
X111449626Y-100889205D01*
X111325214Y-100908910D01*
X111085616Y-100986760D01*
X110861151Y-101101132D01*
X110657350Y-101249201D01*
X110657345Y-101249205D01*
X110517681Y-101388870D01*
X110456358Y-101422355D01*
X110386666Y-101417371D01*
X110342319Y-101388870D01*
X110202654Y-101249205D01*
X110202649Y-101249201D01*
X109998848Y-101101132D01*
X109998847Y-101101131D01*
X109998845Y-101101130D01*
X109928747Y-101065413D01*
X109774383Y-100986760D01*
X109534785Y-100908910D01*
X109285962Y-100869500D01*
X109034038Y-100869500D01*
X108909626Y-100889205D01*
X108785214Y-100908910D01*
X108545616Y-100986760D01*
X108321151Y-101101132D01*
X108117350Y-101249201D01*
X108117345Y-101249205D01*
X107939205Y-101427345D01*
X107939201Y-101427350D01*
X107791132Y-101631151D01*
X107709488Y-101791385D01*
X107661513Y-101842181D01*
X107593692Y-101858976D01*
X107527557Y-101836438D01*
X107498684Y-101807974D01*
X107459036Y-101753401D01*
X107336602Y-101630967D01*
X107196524Y-101529195D01*
X107042257Y-101450591D01*
X106877589Y-101397087D01*
X106877581Y-101397085D01*
X106870000Y-101395884D01*
X106870000Y-102554314D01*
X106865606Y-102549920D01*
X106774394Y-102497259D01*
X106672661Y-102470000D01*
X106567339Y-102470000D01*
X106465606Y-102497259D01*
X106374394Y-102549920D01*
X106370000Y-102554314D01*
X106370000Y-101395884D01*
X106369999Y-101395884D01*
X106362418Y-101397085D01*
X106362410Y-101397087D01*
X106197742Y-101450591D01*
X106043475Y-101529195D01*
X105903397Y-101630967D01*
X105780965Y-101753399D01*
X105741314Y-101807975D01*
X105685984Y-101850640D01*
X105616371Y-101856619D01*
X105554576Y-101824013D01*
X105530511Y-101791384D01*
X105508895Y-101748962D01*
X105448870Y-101631155D01*
X105408146Y-101575103D01*
X105300798Y-101427350D01*
X105300794Y-101427345D01*
X105122654Y-101249205D01*
X105122649Y-101249201D01*
X104918848Y-101101132D01*
X104918847Y-101101131D01*
X104918845Y-101101130D01*
X104848747Y-101065413D01*
X104694383Y-100986760D01*
X104454785Y-100908910D01*
X104205962Y-100869500D01*
X103954038Y-100869500D01*
X103829626Y-100889205D01*
X103705214Y-100908910D01*
X103465616Y-100986760D01*
X103241151Y-101101132D01*
X103037350Y-101249201D01*
X103037345Y-101249205D01*
X102897681Y-101388870D01*
X102836358Y-101422355D01*
X102766666Y-101417371D01*
X102722319Y-101388870D01*
X102582654Y-101249205D01*
X102582649Y-101249201D01*
X102378848Y-101101132D01*
X102378847Y-101101131D01*
X102378845Y-101101130D01*
X102308747Y-101065413D01*
X102154383Y-100986760D01*
X101914785Y-100908910D01*
X101665962Y-100869500D01*
X101414038Y-100869500D01*
X101289626Y-100889205D01*
X101165214Y-100908910D01*
X100925616Y-100986760D01*
X100701151Y-101101132D01*
X100497350Y-101249201D01*
X100497345Y-101249205D01*
X100357681Y-101388870D01*
X100296358Y-101422355D01*
X100226666Y-101417371D01*
X100182319Y-101388870D01*
X100042654Y-101249205D01*
X100042649Y-101249201D01*
X99838848Y-101101132D01*
X99838847Y-101101131D01*
X99838845Y-101101130D01*
X99768747Y-101065413D01*
X99614383Y-100986760D01*
X99374785Y-100908910D01*
X99125962Y-100869500D01*
X98874038Y-100869500D01*
X98749626Y-100889205D01*
X98625214Y-100908910D01*
X98385616Y-100986760D01*
X98161151Y-101101132D01*
X97957350Y-101249201D01*
X97957345Y-101249205D01*
X97817681Y-101388870D01*
X97756358Y-101422355D01*
X97686666Y-101417371D01*
X97642319Y-101388870D01*
X97502654Y-101249205D01*
X97502649Y-101249201D01*
X97298848Y-101101132D01*
X97298847Y-101101131D01*
X97298845Y-101101130D01*
X97228747Y-101065413D01*
X97074383Y-100986760D01*
X96834785Y-100908910D01*
X96585962Y-100869500D01*
X96334038Y-100869500D01*
X96209626Y-100889205D01*
X96085214Y-100908910D01*
X95845616Y-100986760D01*
X95621151Y-101101132D01*
X95417350Y-101249201D01*
X95417345Y-101249205D01*
X95277681Y-101388870D01*
X95216358Y-101422355D01*
X95146666Y-101417371D01*
X95102319Y-101388870D01*
X94962654Y-101249205D01*
X94962649Y-101249201D01*
X94758848Y-101101132D01*
X94758847Y-101101131D01*
X94758845Y-101101130D01*
X94688747Y-101065413D01*
X94534383Y-100986760D01*
X94294785Y-100908910D01*
X94045962Y-100869500D01*
X93794038Y-100869500D01*
X93669626Y-100889205D01*
X93545214Y-100908910D01*
X93305616Y-100986760D01*
X93081151Y-101101132D01*
X92877350Y-101249201D01*
X92877345Y-101249205D01*
X92737681Y-101388870D01*
X92676358Y-101422355D01*
X92606666Y-101417371D01*
X92562319Y-101388870D01*
X92422654Y-101249205D01*
X92422649Y-101249201D01*
X92218848Y-101101132D01*
X92218847Y-101101131D01*
X92218845Y-101101130D01*
X92148747Y-101065413D01*
X91994383Y-100986760D01*
X91754785Y-100908910D01*
X91505962Y-100869500D01*
X91254038Y-100869500D01*
X91129626Y-100889205D01*
X91005214Y-100908910D01*
X90765616Y-100986760D01*
X90541151Y-101101132D01*
X90337350Y-101249201D01*
X90337345Y-101249205D01*
X90197681Y-101388870D01*
X90136358Y-101422355D01*
X90066666Y-101417371D01*
X90022319Y-101388870D01*
X89882654Y-101249205D01*
X89882649Y-101249201D01*
X89678848Y-101101132D01*
X89678847Y-101101131D01*
X89678845Y-101101130D01*
X89608747Y-101065413D01*
X89454383Y-100986760D01*
X89214785Y-100908910D01*
X88965962Y-100869500D01*
X88714038Y-100869500D01*
X88589626Y-100889205D01*
X88465214Y-100908910D01*
X88225616Y-100986760D01*
X88001151Y-101101132D01*
X87797350Y-101249201D01*
X87797345Y-101249205D01*
X87657681Y-101388870D01*
X87596358Y-101422355D01*
X87526666Y-101417371D01*
X87482319Y-101388870D01*
X87342654Y-101249205D01*
X87342649Y-101249201D01*
X87138848Y-101101132D01*
X87138847Y-101101131D01*
X87138845Y-101101130D01*
X87068747Y-101065413D01*
X86914383Y-100986760D01*
X86674785Y-100908910D01*
X86425962Y-100869500D01*
X86174038Y-100869500D01*
X86049626Y-100889205D01*
X85925214Y-100908910D01*
X85685616Y-100986760D01*
X85461151Y-101101132D01*
X85257350Y-101249201D01*
X85257345Y-101249205D01*
X85117681Y-101388870D01*
X85056358Y-101422355D01*
X84986666Y-101417371D01*
X84942319Y-101388870D01*
X84802654Y-101249205D01*
X84802649Y-101249201D01*
X84598848Y-101101132D01*
X84598847Y-101101131D01*
X84598845Y-101101130D01*
X84528747Y-101065413D01*
X84374383Y-100986760D01*
X84134785Y-100908910D01*
X83885962Y-100869500D01*
X83634038Y-100869500D01*
X83509626Y-100889205D01*
X83385214Y-100908910D01*
X83145616Y-100986760D01*
X82921151Y-101101132D01*
X82717350Y-101249201D01*
X82717345Y-101249205D01*
X82577681Y-101388870D01*
X82516358Y-101422355D01*
X82446666Y-101417371D01*
X82402319Y-101388870D01*
X82262654Y-101249205D01*
X82262649Y-101249201D01*
X82058848Y-101101132D01*
X82058847Y-101101131D01*
X82058845Y-101101130D01*
X81988747Y-101065413D01*
X81834383Y-100986760D01*
X81594785Y-100908910D01*
X81345962Y-100869500D01*
X81094038Y-100869500D01*
X80969626Y-100889205D01*
X80845214Y-100908910D01*
X80605616Y-100986760D01*
X80381151Y-101101132D01*
X80177350Y-101249201D01*
X80177345Y-101249205D01*
X80037681Y-101388870D01*
X79976358Y-101422355D01*
X79906666Y-101417371D01*
X79862319Y-101388870D01*
X79722654Y-101249205D01*
X79722649Y-101249201D01*
X79518848Y-101101132D01*
X79518847Y-101101131D01*
X79518845Y-101101130D01*
X79448747Y-101065413D01*
X79294383Y-100986760D01*
X79054785Y-100908910D01*
X78805962Y-100869500D01*
X78554038Y-100869500D01*
X78429626Y-100889205D01*
X78305214Y-100908910D01*
X78065616Y-100986760D01*
X77841151Y-101101132D01*
X77637350Y-101249201D01*
X77637345Y-101249205D01*
X77497681Y-101388870D01*
X77436358Y-101422355D01*
X77366666Y-101417371D01*
X77322319Y-101388870D01*
X77182654Y-101249205D01*
X77182649Y-101249201D01*
X76978848Y-101101132D01*
X76978847Y-101101131D01*
X76978845Y-101101130D01*
X76908747Y-101065413D01*
X76754383Y-100986760D01*
X76514785Y-100908910D01*
X76265962Y-100869500D01*
X76014038Y-100869500D01*
X75889626Y-100889205D01*
X75765214Y-100908910D01*
X75525616Y-100986760D01*
X75301150Y-101101132D01*
X75121515Y-101231644D01*
X75055708Y-101255124D01*
X74987655Y-101239298D01*
X74952528Y-101209687D01*
X74911109Y-101158890D01*
X74753409Y-101030304D01*
X74753410Y-101030304D01*
X74753407Y-101030302D01*
X74573049Y-100936091D01*
X74573048Y-100936090D01*
X74573045Y-100936089D01*
X74455829Y-100902550D01*
X74377418Y-100880114D01*
X74377415Y-100880113D01*
X74377413Y-100880113D01*
X74311102Y-100874217D01*
X74258037Y-100869500D01*
X74258032Y-100869500D01*
X72941971Y-100869500D01*
X72941965Y-100869500D01*
X72941964Y-100869501D01*
X72935676Y-100870060D01*
X72822584Y-100880113D01*
X72626954Y-100936089D01*
X72536772Y-100983196D01*
X72446593Y-101030302D01*
X72446591Y-101030303D01*
X72446590Y-101030304D01*
X72288890Y-101158890D01*
X72164677Y-101311227D01*
X72160302Y-101316593D01*
X72067073Y-101495071D01*
X72066089Y-101496955D01*
X72043727Y-101575103D01*
X72012193Y-101628670D01*
X69552721Y-104088143D01*
X69552715Y-104088150D01*
X69491526Y-104167894D01*
X69393075Y-104296197D01*
X69321882Y-104419509D01*
X69261958Y-104523299D01*
X69261954Y-104523309D01*
X69161602Y-104765580D01*
X69093728Y-105018887D01*
X69076615Y-105148881D01*
X69076615Y-105148882D01*
X69059500Y-105278872D01*
X69059500Y-121991127D01*
X69070435Y-122074179D01*
X69070701Y-122076197D01*
X69093729Y-122251116D01*
X69107713Y-122303303D01*
X69109285Y-122309169D01*
X69161602Y-122504419D01*
X69261951Y-122746685D01*
X69261958Y-122746700D01*
X69386049Y-122961631D01*
X69393076Y-122973803D01*
X69445176Y-123041700D01*
X69552715Y-123181849D01*
X69552721Y-123181856D01*
X70516298Y-124145433D01*
X70549783Y-124206756D01*
X70544799Y-124276448D01*
X70502927Y-124332381D01*
X70437463Y-124356798D01*
X70401025Y-124354005D01*
X70187342Y-124305233D01*
X70187325Y-124305230D01*
X70082816Y-124293456D01*
X70082815Y-124293456D01*
X69852454Y-124267500D01*
X69852450Y-124267500D01*
X69852449Y-124267500D01*
X69007752Y-124267500D01*
X68940713Y-124247815D01*
X68920071Y-124231181D01*
X68837969Y-124149079D01*
X68555265Y-123911861D01*
X68252959Y-123700183D01*
X68252956Y-123700181D01*
X68252953Y-123700179D01*
X68158002Y-123645359D01*
X67933353Y-123515658D01*
X67933337Y-123515650D01*
X67598893Y-123359695D01*
X67598885Y-123359692D01*
X67598883Y-123359691D01*
X67598876Y-123359688D01*
X67252084Y-123233466D01*
X67252083Y-123233465D01*
X67252073Y-123233462D01*
X66895617Y-123137952D01*
X66895620Y-123137952D01*
X66895610Y-123137950D01*
X66844297Y-123128902D01*
X66532170Y-123073865D01*
X66532172Y-123073865D01*
X66164525Y-123041700D01*
X66164524Y-123041700D01*
X65795476Y-123041700D01*
X65795475Y-123041700D01*
X65427828Y-123073865D01*
X65064395Y-123137949D01*
X65064392Y-123137949D01*
X65064390Y-123137950D01*
X65064385Y-123137951D01*
X65064382Y-123137952D01*
X64707926Y-123233462D01*
X64534520Y-123296577D01*
X64361124Y-123359688D01*
X64361120Y-123359689D01*
X64361114Y-123359692D01*
X64361106Y-123359695D01*
X64026662Y-123515650D01*
X64026646Y-123515658D01*
X63707055Y-123700174D01*
X63707040Y-123700183D01*
X63404734Y-123911861D01*
X63122030Y-124149079D01*
X62861079Y-124410030D01*
X62623861Y-124692734D01*
X62412183Y-124995040D01*
X62412174Y-124995055D01*
X62227658Y-125314646D01*
X62227650Y-125314662D01*
X62071695Y-125649106D01*
X62071692Y-125649114D01*
X62071689Y-125649120D01*
X62071688Y-125649124D01*
X62034784Y-125750516D01*
X61945462Y-125995926D01*
X61849952Y-126352382D01*
X61849949Y-126352395D01*
X61785865Y-126715828D01*
X61753700Y-127083474D01*
X61753700Y-127452525D01*
X61785865Y-127820171D01*
X61849949Y-128183604D01*
X61849952Y-128183617D01*
X61945462Y-128540073D01*
X61945465Y-128540083D01*
X61945466Y-128540084D01*
X62071688Y-128886876D01*
X62071691Y-128886883D01*
X62071692Y-128886885D01*
X62071695Y-128886893D01*
X62227650Y-129221337D01*
X62227658Y-129221353D01*
X62412174Y-129540944D01*
X62412183Y-129540959D01*
X62623861Y-129843265D01*
X62804799Y-130058898D01*
X62861077Y-130125967D01*
X63122033Y-130386923D01*
X63222636Y-130471339D01*
X63404734Y-130624138D01*
X63404740Y-130624142D01*
X63404741Y-130624143D01*
X63707047Y-130835821D01*
X64006587Y-131008760D01*
X64026646Y-131020341D01*
X64026670Y-131020354D01*
X64238894Y-131119315D01*
X64291334Y-131165487D01*
X64310486Y-131232681D01*
X64290270Y-131299562D01*
X64255382Y-131334798D01*
X64182055Y-131383794D01*
X64182046Y-131383801D01*
X63951081Y-131573348D01*
X63951081Y-131573349D01*
X64973834Y-132596102D01*
X64893681Y-132657606D01*
X64681786Y-132869501D01*
X64620282Y-132949654D01*
X63597529Y-131926901D01*
X63597528Y-131926901D01*
X63407981Y-132157866D01*
X63407978Y-132157870D01*
X63204605Y-132462239D01*
X63204594Y-132462257D01*
X63032038Y-132785086D01*
X63032036Y-132785091D01*
X62891945Y-133123300D01*
X62785676Y-133473622D01*
X62785673Y-133473633D01*
X62714263Y-133832645D01*
X62714260Y-133832662D01*
X62678380Y-134196966D01*
X62678380Y-134563033D01*
X62714260Y-134927337D01*
X62714263Y-134927354D01*
X62785673Y-135286366D01*
X62785676Y-135286377D01*
X62891945Y-135636699D01*
X63032036Y-135974908D01*
X63032038Y-135974913D01*
X63204594Y-136297742D01*
X63204605Y-136297760D01*
X63407984Y-136602138D01*
X63597527Y-136833097D01*
X63597528Y-136833098D01*
X64620281Y-135810344D01*
X64681786Y-135890499D01*
X64893681Y-136102394D01*
X64973833Y-136163897D01*
X63951080Y-137186650D01*
X63951081Y-137186651D01*
X64182041Y-137376195D01*
X64486419Y-137579574D01*
X64486437Y-137579585D01*
X64809266Y-137752141D01*
X64809271Y-137752143D01*
X65147480Y-137892234D01*
X65497802Y-137998503D01*
X65497813Y-137998506D01*
X65856825Y-138069916D01*
X65856842Y-138069919D01*
X66221146Y-138105800D01*
X66587214Y-138105800D01*
X66951517Y-138069919D01*
X66951534Y-138069916D01*
X67048659Y-138050598D01*
X67310546Y-137998506D01*
X67310557Y-137998503D01*
X67660879Y-137892234D01*
X67999088Y-137752143D01*
X67999093Y-137752141D01*
X68321922Y-137579585D01*
X68321940Y-137579574D01*
X68626304Y-137376204D01*
X68626318Y-137376194D01*
X68857277Y-137186651D01*
X68857278Y-137186650D01*
X68791125Y-137120497D01*
X67834525Y-136163897D01*
X67914679Y-136102394D01*
X68126574Y-135890499D01*
X68188077Y-135810345D01*
X69210830Y-136833098D01*
X69210831Y-136833097D01*
X69400374Y-136602138D01*
X69400384Y-136602124D01*
X69603754Y-136297760D01*
X69603765Y-136297742D01*
X69776321Y-135974913D01*
X69776323Y-135974908D01*
X69916414Y-135636699D01*
X70022683Y-135286377D01*
X70022686Y-135286366D01*
X70094096Y-134927354D01*
X70094099Y-134927337D01*
X70129980Y-134563033D01*
X70129980Y-134196966D01*
X70094099Y-133832662D01*
X70094096Y-133832645D01*
X70022686Y-133473633D01*
X70022683Y-133473622D01*
X69916414Y-133123300D01*
X69776323Y-132785091D01*
X69776321Y-132785086D01*
X69603765Y-132462257D01*
X69603754Y-132462239D01*
X69400375Y-132157861D01*
X69210831Y-131926901D01*
X69210830Y-131926900D01*
X68188077Y-132949653D01*
X68126574Y-132869501D01*
X67914679Y-132657606D01*
X67834524Y-132596101D01*
X68857278Y-131573348D01*
X68857277Y-131573347D01*
X68626318Y-131383804D01*
X68321940Y-131180425D01*
X68321930Y-131180419D01*
X68172963Y-131100794D01*
X68123119Y-131051831D01*
X68107659Y-130983694D01*
X68131491Y-130918014D01*
X68169412Y-130884053D01*
X68252953Y-130835821D01*
X68555259Y-130624143D01*
X68599519Y-130587003D01*
X68663525Y-130558989D01*
X68732518Y-130570027D01*
X68766907Y-130594310D01*
X71223421Y-133050824D01*
X71486905Y-133260946D01*
X71772259Y-133440246D01*
X71772261Y-133440247D01*
X71826996Y-133466606D01*
X72075893Y-133586469D01*
X72282535Y-133658776D01*
X72393991Y-133697776D01*
X72722551Y-133772767D01*
X72722554Y-133772767D01*
X72722557Y-133772768D01*
X72784474Y-133779744D01*
X73019707Y-133806248D01*
X73057440Y-133810500D01*
X73057441Y-133810500D01*
X73158096Y-133810500D01*
X73160185Y-133810570D01*
X73191464Y-133820903D01*
X73223072Y-133830185D01*
X73224481Y-133831811D01*
X73226528Y-133832488D01*
X73247262Y-133858102D01*
X73268827Y-133882989D01*
X73269133Y-133885120D01*
X73270489Y-133886795D01*
X73274082Y-133919541D01*
X73278771Y-133952147D01*
X73278047Y-133955672D01*
X73278111Y-133956247D01*
X73277803Y-133956864D01*
X73275810Y-133966582D01*
X73264475Y-134008887D01*
X73231161Y-134133214D01*
X73199500Y-134373711D01*
X73199500Y-134866288D01*
X73231161Y-135106785D01*
X73293947Y-135341104D01*
X73375669Y-135538397D01*
X73386776Y-135565212D01*
X73508064Y-135775289D01*
X73508066Y-135775292D01*
X73508067Y-135775293D01*
X73655733Y-135967736D01*
X73655739Y-135967743D01*
X73827256Y-136139260D01*
X73827263Y-136139266D01*
X73875485Y-136176268D01*
X74019711Y-136286936D01*
X74229788Y-136408224D01*
X74425269Y-136489195D01*
X74448663Y-136498885D01*
X74453900Y-136501054D01*
X74688211Y-136563838D01*
X74868586Y-136587584D01*
X74928711Y-136595500D01*
X74928712Y-136595500D01*
X75171289Y-136595500D01*
X75219388Y-136589167D01*
X75411789Y-136563838D01*
X75646100Y-136501054D01*
X75870212Y-136408224D01*
X76080289Y-136286936D01*
X76224516Y-136176266D01*
X76289683Y-136151074D01*
X76358127Y-136165112D01*
X76375476Y-136176261D01*
X76519711Y-136286936D01*
X76729788Y-136408224D01*
X76925269Y-136489195D01*
X76948663Y-136498885D01*
X76953900Y-136501054D01*
X77188211Y-136563838D01*
X77368586Y-136587584D01*
X77428711Y-136595500D01*
X77428712Y-136595500D01*
X77671289Y-136595500D01*
X77719388Y-136589167D01*
X77911789Y-136563838D01*
X78146100Y-136501054D01*
X78370212Y-136408224D01*
X78580289Y-136286936D01*
X78724516Y-136176266D01*
X78789683Y-136151074D01*
X78858127Y-136165112D01*
X78875476Y-136176261D01*
X79019711Y-136286936D01*
X79229788Y-136408224D01*
X79425269Y-136489195D01*
X79448663Y-136498885D01*
X79453900Y-136501054D01*
X79688211Y-136563838D01*
X79868586Y-136587584D01*
X79928711Y-136595500D01*
X79928712Y-136595500D01*
X80171289Y-136595500D01*
X80219388Y-136589167D01*
X80411789Y-136563838D01*
X80646100Y-136501054D01*
X80870212Y-136408224D01*
X81030512Y-136315674D01*
X81098406Y-136299203D01*
X81163123Y-136321135D01*
X81330367Y-136437003D01*
X81330371Y-136437005D01*
X81330374Y-136437007D01*
X81535317Y-136530096D01*
X81535321Y-136530097D01*
X81753579Y-136585094D01*
X81753581Y-136585094D01*
X81753588Y-136585096D01*
X81885783Y-136595500D01*
X83214216Y-136595499D01*
X83346412Y-136585096D01*
X83564683Y-136530096D01*
X83769626Y-136437007D01*
X83954654Y-136308819D01*
X84113819Y-136149654D01*
X84242007Y-135964626D01*
X84335096Y-135759683D01*
X84390096Y-135541412D01*
X84400500Y-135409217D01*
X84400499Y-133934499D01*
X84420184Y-133867461D01*
X84472987Y-133821706D01*
X84524499Y-133810500D01*
X90895940Y-133810500D01*
X90962979Y-133830185D01*
X91008734Y-133882989D01*
X91018879Y-133918314D01*
X91033730Y-134031116D01*
X91101602Y-134284418D01*
X91101605Y-134284428D01*
X91201953Y-134526690D01*
X91201958Y-134526700D01*
X91328001Y-134745013D01*
X91333513Y-134755731D01*
X91357993Y-134809626D01*
X91357997Y-134809632D01*
X91486174Y-134994645D01*
X91486178Y-134994650D01*
X91486181Y-134994654D01*
X91645346Y-135153819D01*
X91645350Y-135153822D01*
X91645354Y-135153825D01*
X91830375Y-135282008D01*
X91884268Y-135306486D01*
X91894982Y-135311995D01*
X91945393Y-135341100D01*
X92113295Y-135438039D01*
X92113300Y-135438041D01*
X92113303Y-135438043D01*
X92355581Y-135538398D01*
X92608884Y-135606270D01*
X92724559Y-135621499D01*
X92788456Y-135649766D01*
X92826927Y-135708090D01*
X92827758Y-135777955D01*
X92790686Y-135837178D01*
X92727774Y-135866911D01*
X92695580Y-135872010D01*
X92500968Y-135935244D01*
X92318644Y-136028143D01*
X92274077Y-136060523D01*
X92274077Y-136060524D01*
X92953554Y-136740000D01*
X92947339Y-136740000D01*
X92845606Y-136767259D01*
X92754394Y-136819920D01*
X92679920Y-136894394D01*
X92627259Y-136985606D01*
X92600000Y-137087339D01*
X92600000Y-137093553D01*
X91920524Y-136414077D01*
X91920523Y-136414077D01*
X91888143Y-136458644D01*
X91795244Y-136640968D01*
X91732009Y-136835582D01*
X91700000Y-137037682D01*
X91700000Y-137242317D01*
X91732009Y-137444417D01*
X91795244Y-137639031D01*
X91888141Y-137821350D01*
X91888147Y-137821359D01*
X91920523Y-137865921D01*
X91920524Y-137865922D01*
X92600000Y-137186446D01*
X92600000Y-137192661D01*
X92627259Y-137294394D01*
X92679920Y-137385606D01*
X92754394Y-137460080D01*
X92845606Y-137512741D01*
X92947339Y-137540000D01*
X92953553Y-137540000D01*
X92274076Y-138219474D01*
X92318650Y-138251859D01*
X92500968Y-138344755D01*
X92695582Y-138407990D01*
X92897683Y-138440000D01*
X93102317Y-138440000D01*
X93304417Y-138407990D01*
X93499031Y-138344755D01*
X93681349Y-138251859D01*
X93725921Y-138219474D01*
X93046447Y-137540000D01*
X93052661Y-137540000D01*
X93154394Y-137512741D01*
X93245606Y-137460080D01*
X93320080Y-137385606D01*
X93372741Y-137294394D01*
X93400000Y-137192661D01*
X93400000Y-137186447D01*
X94079474Y-137865921D01*
X94111859Y-137821349D01*
X94204755Y-137639031D01*
X94267990Y-137444417D01*
X94300000Y-137242317D01*
X94300000Y-137037682D01*
X94267990Y-136835582D01*
X94204755Y-136640968D01*
X94111859Y-136458650D01*
X94079474Y-136414077D01*
X94079474Y-136414076D01*
X93400000Y-137093551D01*
X93400000Y-137087339D01*
X93372741Y-136985606D01*
X93320080Y-136894394D01*
X93245606Y-136819920D01*
X93154394Y-136767259D01*
X93052661Y-136740000D01*
X93046446Y-136740000D01*
X93725922Y-136060524D01*
X93725921Y-136060523D01*
X93681359Y-136028147D01*
X93681350Y-136028141D01*
X93499031Y-135935244D01*
X93304418Y-135872010D01*
X93272226Y-135866911D01*
X93209091Y-135836981D01*
X93172161Y-135777669D01*
X93173159Y-135707806D01*
X93211770Y-135649574D01*
X93275438Y-135621499D01*
X93391116Y-135606270D01*
X93644419Y-135538398D01*
X93886697Y-135438043D01*
X94105039Y-135311982D01*
X94115713Y-135306493D01*
X94169626Y-135282007D01*
X94354654Y-135153819D01*
X94513819Y-134994654D01*
X94642007Y-134809626D01*
X94666493Y-134755713D01*
X94671982Y-134745039D01*
X94798043Y-134526697D01*
X94898398Y-134284419D01*
X94966270Y-134031116D01*
X94981121Y-133918314D01*
X95009388Y-133854418D01*
X95067712Y-133815947D01*
X95104060Y-133810500D01*
X100976033Y-133810500D01*
X101043072Y-133830185D01*
X101088827Y-133882989D01*
X101098771Y-133952147D01*
X101095810Y-133966582D01*
X101084475Y-134008887D01*
X101051161Y-134133214D01*
X101019500Y-134373711D01*
X101019500Y-134866288D01*
X101051161Y-135106785D01*
X101113947Y-135341104D01*
X101195669Y-135538397D01*
X101206776Y-135565212D01*
X101328064Y-135775289D01*
X101328066Y-135775292D01*
X101328067Y-135775293D01*
X101475733Y-135967736D01*
X101475739Y-135967743D01*
X101647256Y-136139260D01*
X101647263Y-136139266D01*
X101695485Y-136176268D01*
X101839711Y-136286936D01*
X102049788Y-136408224D01*
X102245269Y-136489195D01*
X102268663Y-136498885D01*
X102273900Y-136501054D01*
X102508211Y-136563838D01*
X102688586Y-136587584D01*
X102748711Y-136595500D01*
X102748712Y-136595500D01*
X102991289Y-136595500D01*
X103039388Y-136589167D01*
X103231789Y-136563838D01*
X103466100Y-136501054D01*
X103690212Y-136408224D01*
X103900289Y-136286936D01*
X104044516Y-136176266D01*
X104109683Y-136151074D01*
X104178127Y-136165112D01*
X104195476Y-136176261D01*
X104339711Y-136286936D01*
X104549788Y-136408224D01*
X104745269Y-136489195D01*
X104768663Y-136498885D01*
X104773900Y-136501054D01*
X105008211Y-136563838D01*
X105188586Y-136587584D01*
X105248711Y-136595500D01*
X105248712Y-136595500D01*
X105491289Y-136595500D01*
X105539388Y-136589167D01*
X105731789Y-136563838D01*
X105966100Y-136501054D01*
X106190212Y-136408224D01*
X106400289Y-136286936D01*
X106544516Y-136176266D01*
X106609683Y-136151074D01*
X106678127Y-136165112D01*
X106695476Y-136176261D01*
X106839711Y-136286936D01*
X107049788Y-136408224D01*
X107245269Y-136489195D01*
X107268663Y-136498885D01*
X107273900Y-136501054D01*
X107508211Y-136563838D01*
X107688586Y-136587584D01*
X107748711Y-136595500D01*
X107748712Y-136595500D01*
X107991289Y-136595500D01*
X108039388Y-136589167D01*
X108231789Y-136563838D01*
X108466100Y-136501054D01*
X108690212Y-136408224D01*
X108850512Y-136315674D01*
X108918406Y-136299203D01*
X108983123Y-136321135D01*
X109150367Y-136437003D01*
X109150371Y-136437005D01*
X109150374Y-136437007D01*
X109355317Y-136530096D01*
X109355321Y-136530097D01*
X109573579Y-136585094D01*
X109573581Y-136585094D01*
X109573588Y-136585096D01*
X109705783Y-136595500D01*
X111034216Y-136595499D01*
X111166412Y-136585096D01*
X111384683Y-136530096D01*
X111589626Y-136437007D01*
X111774654Y-136308819D01*
X111933819Y-136149654D01*
X112062007Y-135964626D01*
X112155096Y-135759683D01*
X112210096Y-135541412D01*
X112220500Y-135409217D01*
X112220499Y-133934499D01*
X112240184Y-133867461D01*
X112292987Y-133821706D01*
X112344499Y-133810500D01*
X115545790Y-133810500D01*
X115612829Y-133830185D01*
X115633471Y-133846819D01*
X117088775Y-135302122D01*
X117118135Y-135348848D01*
X117223532Y-135650054D01*
X117369752Y-135953683D01*
X117376628Y-135964626D01*
X117549054Y-136239039D01*
X117646026Y-136360638D01*
X117758003Y-136501054D01*
X117759175Y-136502523D01*
X117997477Y-136740825D01*
X118260961Y-136950946D01*
X118530799Y-137120497D01*
X118546316Y-137130247D01*
X118783618Y-137244526D01*
X118835477Y-137291348D01*
X118853790Y-137358775D01*
X118840301Y-137412541D01*
X118795244Y-137500968D01*
X118732009Y-137695582D01*
X118700000Y-137897682D01*
X118700000Y-138102317D01*
X118732009Y-138304417D01*
X118795244Y-138499031D01*
X118888141Y-138681350D01*
X118888147Y-138681359D01*
X118920523Y-138725921D01*
X118920524Y-138725922D01*
X119600000Y-138046446D01*
X119600000Y-138052661D01*
X119627259Y-138154394D01*
X119679920Y-138245606D01*
X119754394Y-138320080D01*
X119845606Y-138372741D01*
X119947339Y-138400000D01*
X119953553Y-138400000D01*
X119274076Y-139079474D01*
X119318650Y-139111859D01*
X119500968Y-139204755D01*
X119695582Y-139267990D01*
X119897683Y-139300000D01*
X120102317Y-139300000D01*
X120304417Y-139267990D01*
X120499031Y-139204755D01*
X120681349Y-139111859D01*
X120725921Y-139079474D01*
X120046447Y-138400000D01*
X120052661Y-138400000D01*
X120154394Y-138372741D01*
X120245606Y-138320080D01*
X120320080Y-138245606D01*
X120372741Y-138154394D01*
X120400000Y-138052661D01*
X120400000Y-138046447D01*
X121079474Y-138725921D01*
X121111859Y-138681349D01*
X121204755Y-138499031D01*
X121267990Y-138304417D01*
X121300000Y-138102317D01*
X121300000Y-137897685D01*
X121299424Y-137894048D01*
X121299424Y-137894046D01*
X121296995Y-137878711D01*
X128149500Y-137878711D01*
X128149500Y-138121288D01*
X128180077Y-138353553D01*
X128181162Y-138361789D01*
X128212554Y-138478944D01*
X128243947Y-138596104D01*
X128336773Y-138820205D01*
X128336776Y-138820212D01*
X128458064Y-139030289D01*
X128458066Y-139030292D01*
X128458067Y-139030293D01*
X128605733Y-139222736D01*
X128605739Y-139222743D01*
X128777256Y-139394260D01*
X128777262Y-139394265D01*
X128969711Y-139541936D01*
X129179788Y-139663224D01*
X129403900Y-139756054D01*
X129638211Y-139818838D01*
X129818586Y-139842584D01*
X129878711Y-139850500D01*
X129878712Y-139850500D01*
X130121289Y-139850500D01*
X130169388Y-139844167D01*
X130361789Y-139818838D01*
X130596100Y-139756054D01*
X130820212Y-139663224D01*
X131030289Y-139541936D01*
X131222738Y-139394265D01*
X131394265Y-139222738D01*
X131541936Y-139030289D01*
X131663224Y-138820212D01*
X131756054Y-138596100D01*
X131818838Y-138361789D01*
X131850500Y-138121288D01*
X131850500Y-137878712D01*
X131818838Y-137638211D01*
X131756054Y-137403900D01*
X131663224Y-137179788D01*
X131541936Y-136969711D01*
X131481018Y-136890321D01*
X131394266Y-136777263D01*
X131394260Y-136777256D01*
X131222743Y-136605739D01*
X131222736Y-136605733D01*
X131030293Y-136458067D01*
X131030292Y-136458066D01*
X131030289Y-136458064D01*
X130820212Y-136336776D01*
X130820205Y-136336773D01*
X130596104Y-136243947D01*
X130361785Y-136181161D01*
X130121289Y-136149500D01*
X130121288Y-136149500D01*
X129878712Y-136149500D01*
X129878711Y-136149500D01*
X129638214Y-136181161D01*
X129403895Y-136243947D01*
X129179794Y-136336773D01*
X129179785Y-136336777D01*
X128969706Y-136458067D01*
X128777263Y-136605733D01*
X128777256Y-136605739D01*
X128605739Y-136777256D01*
X128605733Y-136777263D01*
X128458067Y-136969706D01*
X128336777Y-137179785D01*
X128336773Y-137179794D01*
X128243947Y-137403895D01*
X128181161Y-137638214D01*
X128149500Y-137878711D01*
X121296995Y-137878711D01*
X121267990Y-137695582D01*
X121204755Y-137500968D01*
X121159698Y-137412540D01*
X121146802Y-137343871D01*
X121173078Y-137279130D01*
X121216379Y-137244526D01*
X121453686Y-137130246D01*
X121739039Y-136950946D01*
X122002523Y-136740825D01*
X122240825Y-136502523D01*
X122450946Y-136239039D01*
X122630246Y-135953686D01*
X122776469Y-135650051D01*
X122887776Y-135331954D01*
X122962767Y-135003394D01*
X123000500Y-134668504D01*
X123000500Y-133801496D01*
X122997077Y-133771120D01*
X122997077Y-133771118D01*
X122962769Y-133466620D01*
X122962768Y-133466615D01*
X122962767Y-133466606D01*
X122954813Y-133431758D01*
X122887776Y-133138046D01*
X122776469Y-132819949D01*
X122630246Y-132516314D01*
X122450946Y-132230961D01*
X122240825Y-131967477D01*
X122200248Y-131926900D01*
X122000116Y-131726767D01*
X122000077Y-131726730D01*
X118842524Y-128569176D01*
X118836065Y-128564025D01*
X118745161Y-128491532D01*
X118745159Y-128491530D01*
X118677871Y-128437869D01*
X118579039Y-128359054D01*
X118293686Y-128179754D01*
X118293683Y-128179752D01*
X117990054Y-128033532D01*
X117671965Y-127922227D01*
X117671939Y-127922219D01*
X117666896Y-127921068D01*
X117605921Y-127886954D01*
X117573069Y-127825289D01*
X117570500Y-127800180D01*
X117570500Y-126868886D01*
X117570499Y-126868872D01*
X117555427Y-126754394D01*
X117536270Y-126608884D01*
X117468398Y-126355581D01*
X117453101Y-126318650D01*
X117368046Y-126113309D01*
X117368041Y-126113299D01*
X117236924Y-125886196D01*
X117077281Y-125678148D01*
X117077274Y-125678140D01*
X116891860Y-125492726D01*
X116891851Y-125492718D01*
X116683803Y-125333075D01*
X116456700Y-125201958D01*
X116456690Y-125201953D01*
X116214428Y-125101605D01*
X116214421Y-125101603D01*
X116214419Y-125101602D01*
X115961116Y-125033730D01*
X115903339Y-125026123D01*
X115701127Y-124999500D01*
X115701120Y-124999500D01*
X115438880Y-124999500D01*
X115438872Y-124999500D01*
X115207772Y-125029926D01*
X115178884Y-125033730D01*
X114971978Y-125089170D01*
X114925581Y-125101602D01*
X114925571Y-125101605D01*
X114683309Y-125201953D01*
X114683299Y-125201958D01*
X114456196Y-125333075D01*
X114248148Y-125492718D01*
X114062718Y-125678148D01*
X113907026Y-125881048D01*
X113850598Y-125922250D01*
X113780852Y-125926405D01*
X113735766Y-125905880D01*
X113711350Y-125888141D01*
X113529029Y-125795244D01*
X113334413Y-125732009D01*
X113280000Y-125723390D01*
X113280000Y-126684314D01*
X113275606Y-126679920D01*
X113184394Y-126627259D01*
X113082661Y-126600000D01*
X112977339Y-126600000D01*
X112875606Y-126627259D01*
X112784394Y-126679920D01*
X112780000Y-126684314D01*
X112780000Y-125723390D01*
X112725586Y-125732009D01*
X112530970Y-125795244D01*
X112348650Y-125888140D01*
X112183106Y-126008415D01*
X112178690Y-126012832D01*
X112117364Y-126046313D01*
X112047673Y-126041324D01*
X111992638Y-126000631D01*
X111846593Y-125810302D01*
X111846587Y-125810295D01*
X111679704Y-125643412D01*
X111679697Y-125643406D01*
X111492454Y-125499730D01*
X111492453Y-125499729D01*
X111492450Y-125499727D01*
X111410957Y-125452677D01*
X111288056Y-125381719D01*
X111288045Y-125381714D01*
X111069993Y-125291394D01*
X110937013Y-125255762D01*
X110842014Y-125230307D01*
X110842013Y-125230306D01*
X110842010Y-125230306D01*
X110608020Y-125199501D01*
X110608017Y-125199500D01*
X110608011Y-125199500D01*
X110371989Y-125199500D01*
X110371983Y-125199500D01*
X110371979Y-125199501D01*
X110137989Y-125230306D01*
X109910006Y-125291394D01*
X109691954Y-125381714D01*
X109691943Y-125381719D01*
X109487545Y-125499730D01*
X109297080Y-125645879D01*
X109296191Y-125644720D01*
X109238338Y-125671537D01*
X109169124Y-125661983D01*
X109143298Y-125645385D01*
X109142920Y-125645879D01*
X108952454Y-125499730D01*
X108952453Y-125499729D01*
X108952450Y-125499727D01*
X108870957Y-125452677D01*
X108748056Y-125381719D01*
X108748045Y-125381714D01*
X108529993Y-125291394D01*
X108397013Y-125255762D01*
X108302014Y-125230307D01*
X108302013Y-125230306D01*
X108302010Y-125230306D01*
X108068020Y-125199501D01*
X108068017Y-125199500D01*
X108068011Y-125199500D01*
X107831989Y-125199500D01*
X107831983Y-125199500D01*
X107831979Y-125199501D01*
X107597989Y-125230306D01*
X107370006Y-125291394D01*
X107151954Y-125381714D01*
X107151943Y-125381719D01*
X106947545Y-125499730D01*
X106757080Y-125645879D01*
X106756191Y-125644720D01*
X106698338Y-125671537D01*
X106629124Y-125661983D01*
X106603298Y-125645385D01*
X106602920Y-125645879D01*
X106412454Y-125499730D01*
X106412453Y-125499729D01*
X106412450Y-125499727D01*
X106330957Y-125452677D01*
X106208056Y-125381719D01*
X106208045Y-125381714D01*
X105989993Y-125291394D01*
X105857013Y-125255762D01*
X105762014Y-125230307D01*
X105762013Y-125230306D01*
X105762010Y-125230306D01*
X105528020Y-125199501D01*
X105528017Y-125199500D01*
X105528011Y-125199500D01*
X105291989Y-125199500D01*
X105291983Y-125199500D01*
X105291979Y-125199501D01*
X105057989Y-125230306D01*
X104830006Y-125291394D01*
X104611954Y-125381714D01*
X104611943Y-125381719D01*
X104407545Y-125499730D01*
X104217080Y-125645879D01*
X104216191Y-125644720D01*
X104158338Y-125671537D01*
X104089124Y-125661983D01*
X104063298Y-125645385D01*
X104062920Y-125645879D01*
X103872454Y-125499730D01*
X103872453Y-125499729D01*
X103872450Y-125499727D01*
X103790957Y-125452677D01*
X103668056Y-125381719D01*
X103668045Y-125381714D01*
X103449993Y-125291394D01*
X103317013Y-125255762D01*
X103222014Y-125230307D01*
X103222013Y-125230306D01*
X103222010Y-125230306D01*
X102988020Y-125199501D01*
X102988017Y-125199500D01*
X102988011Y-125199500D01*
X102751989Y-125199500D01*
X102751983Y-125199500D01*
X102751979Y-125199501D01*
X102517987Y-125230306D01*
X102364639Y-125271396D01*
X102294789Y-125269733D01*
X102236927Y-125230570D01*
X102217985Y-125199073D01*
X102214790Y-125191360D01*
X102135320Y-124999500D01*
X102128048Y-124981944D01*
X102128041Y-124981929D01*
X102047932Y-124843176D01*
X102047931Y-124843175D01*
X101996925Y-124754829D01*
X101996924Y-124754827D01*
X101897361Y-124625075D01*
X101897361Y-124625074D01*
X101897359Y-124625073D01*
X101837282Y-124546778D01*
X101837278Y-124546773D01*
X98973226Y-121682721D01*
X98973219Y-121682715D01*
X98855501Y-121592388D01*
X98855500Y-121592387D01*
X98765173Y-121523075D01*
X98538070Y-121391958D01*
X98538060Y-121391954D01*
X98295789Y-121291602D01*
X98042482Y-121223728D01*
X97912488Y-121206615D01*
X97782497Y-121189500D01*
X97782490Y-121189500D01*
X92369628Y-121189500D01*
X92302589Y-121169815D01*
X92256834Y-121117011D01*
X92246890Y-121047853D01*
X92275915Y-120984297D01*
X92307627Y-120958113D01*
X92442450Y-120880273D01*
X92629699Y-120736592D01*
X92796592Y-120569699D01*
X92940273Y-120382450D01*
X93058284Y-120178049D01*
X93148606Y-119959993D01*
X93209693Y-119732014D01*
X93240500Y-119498011D01*
X93240500Y-119261989D01*
X93209693Y-119027986D01*
X93148606Y-118800007D01*
X93058284Y-118581951D01*
X93058282Y-118581948D01*
X93058280Y-118581943D01*
X93016118Y-118508918D01*
X92940273Y-118377550D01*
X92907105Y-118334325D01*
X92794121Y-118187080D01*
X92795286Y-118186185D01*
X92768469Y-118128381D01*
X92777998Y-118059165D01*
X92794619Y-118033302D01*
X92794121Y-118032920D01*
X92848814Y-117961641D01*
X92940273Y-117842450D01*
X93058284Y-117638049D01*
X93148606Y-117419993D01*
X93209693Y-117192014D01*
X93240500Y-116958011D01*
X93240500Y-116721989D01*
X93209693Y-116487986D01*
X93148606Y-116260007D01*
X93058284Y-116041951D01*
X93058282Y-116041948D01*
X93058280Y-116041943D01*
X92978593Y-115903922D01*
X92962120Y-115836022D01*
X92984972Y-115769995D01*
X92989859Y-115763585D01*
X93079698Y-115653407D01*
X93173909Y-115473049D01*
X93229886Y-115277418D01*
X93240500Y-115158037D01*
X93240499Y-113441964D01*
X93236366Y-113395478D01*
X93250037Y-113326961D01*
X93298582Y-113276710D01*
X93359879Y-113260500D01*
X94098097Y-113260500D01*
X94331368Y-113223553D01*
X94555992Y-113150568D01*
X94766434Y-113043343D01*
X94957510Y-112904517D01*
X97604518Y-110257510D01*
X97743343Y-110066433D01*
X97850568Y-109855992D01*
X97923553Y-109631368D01*
X97941815Y-109516065D01*
X97960500Y-109398097D01*
X97960500Y-104736449D01*
X97980185Y-104669410D01*
X98032989Y-104623655D01*
X98102147Y-104613711D01*
X98157390Y-104636134D01*
X98161155Y-104638870D01*
X98239083Y-104678576D01*
X98385616Y-104753239D01*
X98385618Y-104753239D01*
X98385621Y-104753241D01*
X98625215Y-104831090D01*
X98874038Y-104870500D01*
X98874039Y-104870500D01*
X99125961Y-104870500D01*
X99125962Y-104870500D01*
X99374785Y-104831090D01*
X99614379Y-104753241D01*
X99838845Y-104638870D01*
X100042656Y-104490793D01*
X100182319Y-104351130D01*
X100243642Y-104317645D01*
X100313334Y-104322629D01*
X100357681Y-104351130D01*
X100497345Y-104490794D01*
X100497350Y-104490798D01*
X100675117Y-104619952D01*
X100701155Y-104638870D01*
X100808037Y-104693329D01*
X100925616Y-104753239D01*
X100925618Y-104753239D01*
X100925621Y-104753241D01*
X101165215Y-104831090D01*
X101414038Y-104870500D01*
X101414039Y-104870500D01*
X101665961Y-104870500D01*
X101665962Y-104870500D01*
X101914785Y-104831090D01*
X102154379Y-104753241D01*
X102378845Y-104638870D01*
X102582656Y-104490793D01*
X102722319Y-104351130D01*
X102783642Y-104317645D01*
X102853334Y-104322629D01*
X102897681Y-104351130D01*
X103037345Y-104490794D01*
X103037350Y-104490798D01*
X103215117Y-104619952D01*
X103241155Y-104638870D01*
X103348037Y-104693329D01*
X103465616Y-104753239D01*
X103465618Y-104753239D01*
X103465621Y-104753241D01*
X103705215Y-104831090D01*
X103954038Y-104870500D01*
X103954039Y-104870500D01*
X104205961Y-104870500D01*
X104205962Y-104870500D01*
X104454785Y-104831090D01*
X104694379Y-104753241D01*
X104918845Y-104638870D01*
X105122656Y-104490793D01*
X105300793Y-104312656D01*
X105448870Y-104108845D01*
X105530511Y-103948614D01*
X105578485Y-103897819D01*
X105646306Y-103881024D01*
X105712441Y-103903561D01*
X105741315Y-103932025D01*
X105780967Y-103986602D01*
X105903397Y-104109032D01*
X106043475Y-104210804D01*
X106197744Y-104289408D01*
X106362415Y-104342914D01*
X106362414Y-104342914D01*
X106369999Y-104344115D01*
X106370000Y-104344114D01*
X106370000Y-103185686D01*
X106374394Y-103190080D01*
X106465606Y-103242741D01*
X106567339Y-103270000D01*
X106672661Y-103270000D01*
X106774394Y-103242741D01*
X106865606Y-103190080D01*
X106870000Y-103185686D01*
X106870000Y-104344115D01*
X106877584Y-104342914D01*
X107042255Y-104289408D01*
X107196524Y-104210804D01*
X107336602Y-104109032D01*
X107459034Y-103986600D01*
X107498683Y-103932026D01*
X107554012Y-103889359D01*
X107623625Y-103883378D01*
X107685421Y-103915982D01*
X107709488Y-103948614D01*
X107780585Y-104088150D01*
X107791132Y-104108848D01*
X107939201Y-104312649D01*
X107939205Y-104312654D01*
X108117345Y-104490794D01*
X108117350Y-104490798D01*
X108295117Y-104619952D01*
X108321155Y-104638870D01*
X108428037Y-104693329D01*
X108545616Y-104753239D01*
X108545618Y-104753239D01*
X108545621Y-104753241D01*
X108785215Y-104831090D01*
X109034038Y-104870500D01*
X109034039Y-104870500D01*
X109285961Y-104870500D01*
X109285962Y-104870500D01*
X109534785Y-104831090D01*
X109774379Y-104753241D01*
X109998845Y-104638870D01*
X110202656Y-104490793D01*
X110342319Y-104351130D01*
X110403642Y-104317645D01*
X110473334Y-104322629D01*
X110517681Y-104351130D01*
X110657345Y-104490794D01*
X110657350Y-104490798D01*
X110835117Y-104619952D01*
X110861155Y-104638870D01*
X110968037Y-104693329D01*
X111085616Y-104753239D01*
X111085618Y-104753239D01*
X111085621Y-104753241D01*
X111325215Y-104831090D01*
X111574038Y-104870500D01*
X111574039Y-104870500D01*
X111825961Y-104870500D01*
X111825962Y-104870500D01*
X112074785Y-104831090D01*
X112314379Y-104753241D01*
X112538845Y-104638870D01*
X112742656Y-104490793D01*
X112882319Y-104351130D01*
X112943642Y-104317645D01*
X113013334Y-104322629D01*
X113057681Y-104351130D01*
X113197345Y-104490794D01*
X113197350Y-104490798D01*
X113375117Y-104619952D01*
X113401155Y-104638870D01*
X113508037Y-104693329D01*
X113625616Y-104753239D01*
X113625618Y-104753239D01*
X113625621Y-104753241D01*
X113865215Y-104831090D01*
X114114038Y-104870500D01*
X114114039Y-104870500D01*
X114365961Y-104870500D01*
X114365962Y-104870500D01*
X114614785Y-104831090D01*
X114854379Y-104753241D01*
X115078845Y-104638870D01*
X115282656Y-104490793D01*
X115422319Y-104351130D01*
X115483642Y-104317645D01*
X115553334Y-104322629D01*
X115597681Y-104351130D01*
X115737345Y-104490794D01*
X115737350Y-104490798D01*
X115915117Y-104619952D01*
X115941155Y-104638870D01*
X116048037Y-104693329D01*
X116165616Y-104753239D01*
X116165618Y-104753239D01*
X116165621Y-104753241D01*
X116405215Y-104831090D01*
X116654038Y-104870500D01*
X116654039Y-104870500D01*
X116905961Y-104870500D01*
X116905962Y-104870500D01*
X117154785Y-104831090D01*
X117394379Y-104753241D01*
X117618845Y-104638870D01*
X117822656Y-104490793D01*
X117962319Y-104351130D01*
X118023642Y-104317645D01*
X118093334Y-104322629D01*
X118137681Y-104351130D01*
X118277345Y-104490794D01*
X118277350Y-104490798D01*
X118455117Y-104619952D01*
X118481155Y-104638870D01*
X118588037Y-104693329D01*
X118705616Y-104753239D01*
X118705618Y-104753239D01*
X118705621Y-104753241D01*
X118945215Y-104831090D01*
X119194038Y-104870500D01*
X119194039Y-104870500D01*
X119325500Y-104870500D01*
X119392539Y-104890185D01*
X119438294Y-104942989D01*
X119449500Y-104994500D01*
X119449500Y-106131374D01*
X119429815Y-106198413D01*
X119413181Y-106219055D01*
X115109055Y-110523181D01*
X115047732Y-110556666D01*
X115021374Y-110559500D01*
X106585513Y-110559500D01*
X106398885Y-110589059D01*
X106219165Y-110647454D01*
X106050800Y-110733240D01*
X105897923Y-110844312D01*
X104494304Y-112247931D01*
X104430326Y-112335992D01*
X104430326Y-112335993D01*
X104383240Y-112400800D01*
X104297454Y-112569163D01*
X104239060Y-112748880D01*
X104224757Y-112839184D01*
X104194827Y-112902318D01*
X104135516Y-112939249D01*
X104065653Y-112938251D01*
X104026798Y-112918161D01*
X103872454Y-112799730D01*
X103872453Y-112799729D01*
X103872450Y-112799727D01*
X103784384Y-112748882D01*
X103668056Y-112681719D01*
X103668045Y-112681714D01*
X103449993Y-112591394D01*
X103254542Y-112539023D01*
X103222014Y-112530307D01*
X103222013Y-112530306D01*
X103222010Y-112530306D01*
X102988020Y-112499501D01*
X102988017Y-112499500D01*
X102988011Y-112499500D01*
X102751989Y-112499500D01*
X102751983Y-112499500D01*
X102751979Y-112499501D01*
X102517989Y-112530306D01*
X102290006Y-112591394D01*
X102071954Y-112681714D01*
X102071943Y-112681719D01*
X101867545Y-112799730D01*
X101677080Y-112945879D01*
X101676191Y-112944720D01*
X101618338Y-112971537D01*
X101549124Y-112961983D01*
X101523298Y-112945385D01*
X101522920Y-112945879D01*
X101332454Y-112799730D01*
X101332453Y-112799729D01*
X101332450Y-112799727D01*
X101244384Y-112748882D01*
X101128056Y-112681719D01*
X101128045Y-112681714D01*
X100909993Y-112591394D01*
X100714542Y-112539023D01*
X100682014Y-112530307D01*
X100682013Y-112530306D01*
X100682010Y-112530306D01*
X100448020Y-112499501D01*
X100448017Y-112499500D01*
X100448011Y-112499500D01*
X100211989Y-112499500D01*
X100211983Y-112499500D01*
X100211979Y-112499501D01*
X99977989Y-112530306D01*
X99750006Y-112591394D01*
X99531954Y-112681714D01*
X99531943Y-112681719D01*
X99327545Y-112799730D01*
X99137080Y-112945879D01*
X99136191Y-112944720D01*
X99078338Y-112971537D01*
X99009124Y-112961983D01*
X98983298Y-112945385D01*
X98982920Y-112945879D01*
X98792454Y-112799730D01*
X98792453Y-112799729D01*
X98792450Y-112799727D01*
X98704384Y-112748882D01*
X98588056Y-112681719D01*
X98588045Y-112681714D01*
X98369993Y-112591394D01*
X98174542Y-112539023D01*
X98142014Y-112530307D01*
X98142013Y-112530306D01*
X98142010Y-112530306D01*
X97908020Y-112499501D01*
X97908017Y-112499500D01*
X97908011Y-112499500D01*
X97671989Y-112499500D01*
X97671983Y-112499500D01*
X97671979Y-112499501D01*
X97437989Y-112530306D01*
X97210006Y-112591394D01*
X96991954Y-112681714D01*
X96991943Y-112681719D01*
X96787545Y-112799730D01*
X96600302Y-112943406D01*
X96600295Y-112943412D01*
X96433412Y-113110295D01*
X96433406Y-113110302D01*
X96289730Y-113297545D01*
X96171719Y-113501943D01*
X96171714Y-113501954D01*
X96081394Y-113720006D01*
X96020306Y-113947989D01*
X95989501Y-114181979D01*
X95989500Y-114181995D01*
X95989500Y-114418004D01*
X95989501Y-114418020D01*
X96020306Y-114652010D01*
X96081394Y-114879993D01*
X96171714Y-115098045D01*
X96171719Y-115098056D01*
X96206350Y-115158037D01*
X96289727Y-115302450D01*
X96289729Y-115302453D01*
X96289730Y-115302454D01*
X96433406Y-115489697D01*
X96433412Y-115489704D01*
X96600295Y-115656587D01*
X96600301Y-115656592D01*
X96787550Y-115800273D01*
X96918918Y-115876118D01*
X96991943Y-115918280D01*
X96991948Y-115918282D01*
X96991951Y-115918284D01*
X97210007Y-116008606D01*
X97437986Y-116069693D01*
X97671989Y-116100500D01*
X97671996Y-116100500D01*
X97908004Y-116100500D01*
X97908011Y-116100500D01*
X98142014Y-116069693D01*
X98369993Y-116008606D01*
X98588049Y-115918284D01*
X98792450Y-115800273D01*
X98979698Y-115656593D01*
X98982920Y-115654121D01*
X98983814Y-115655286D01*
X99041619Y-115628469D01*
X99110835Y-115637998D01*
X99136697Y-115654619D01*
X99137080Y-115654121D01*
X99140302Y-115656593D01*
X99327550Y-115800273D01*
X99458918Y-115876118D01*
X99531943Y-115918280D01*
X99531948Y-115918282D01*
X99531951Y-115918284D01*
X99750007Y-116008606D01*
X99977986Y-116069693D01*
X100211989Y-116100500D01*
X100211996Y-116100500D01*
X100448004Y-116100500D01*
X100448011Y-116100500D01*
X100682014Y-116069693D01*
X100909993Y-116008606D01*
X101128049Y-115918284D01*
X101332450Y-115800273D01*
X101519698Y-115656593D01*
X101522920Y-115654121D01*
X101523814Y-115655286D01*
X101581619Y-115628469D01*
X101650835Y-115637998D01*
X101676697Y-115654619D01*
X101677080Y-115654121D01*
X101680302Y-115656593D01*
X101867550Y-115800273D01*
X101998918Y-115876118D01*
X102071943Y-115918280D01*
X102071948Y-115918282D01*
X102071951Y-115918284D01*
X102290007Y-116008606D01*
X102517986Y-116069693D01*
X102751989Y-116100500D01*
X102751996Y-116100500D01*
X102988004Y-116100500D01*
X102988011Y-116100500D01*
X103222014Y-116069693D01*
X103449993Y-116008606D01*
X103668049Y-115918284D01*
X103872450Y-115800273D01*
X104059698Y-115656593D01*
X104062920Y-115654121D01*
X104063814Y-115655286D01*
X104121619Y-115628469D01*
X104190835Y-115637998D01*
X104216697Y-115654619D01*
X104217080Y-115654121D01*
X104220302Y-115656593D01*
X104407550Y-115800273D01*
X104538918Y-115876118D01*
X104611943Y-115918280D01*
X104611948Y-115918282D01*
X104611951Y-115918284D01*
X104830007Y-116008606D01*
X105057986Y-116069693D01*
X105291989Y-116100500D01*
X105291996Y-116100500D01*
X105528004Y-116100500D01*
X105528011Y-116100500D01*
X105762014Y-116069693D01*
X105989993Y-116008606D01*
X106208049Y-115918284D01*
X106412450Y-115800273D01*
X106599698Y-115656593D01*
X106602920Y-115654121D01*
X106603814Y-115655286D01*
X106661619Y-115628469D01*
X106730835Y-115637998D01*
X106756697Y-115654619D01*
X106757080Y-115654121D01*
X106760302Y-115656593D01*
X106947550Y-115800273D01*
X107078918Y-115876118D01*
X107151943Y-115918280D01*
X107151948Y-115918282D01*
X107151951Y-115918284D01*
X107370007Y-116008606D01*
X107597986Y-116069693D01*
X107831989Y-116100500D01*
X108001374Y-116100500D01*
X108068413Y-116120185D01*
X108089055Y-116136819D01*
X108368926Y-116416690D01*
X108521800Y-116527760D01*
X108573594Y-116554150D01*
X108690163Y-116613545D01*
X108690165Y-116613545D01*
X108690168Y-116613547D01*
X108786497Y-116644846D01*
X108869881Y-116671940D01*
X109056514Y-116701500D01*
X109056519Y-116701500D01*
X113645500Y-116701500D01*
X113712539Y-116721185D01*
X113758294Y-116773989D01*
X113769500Y-116825500D01*
X113769500Y-116958011D01*
X113800307Y-117192014D01*
X113803582Y-117204238D01*
X113861394Y-117419993D01*
X113951714Y-117638045D01*
X113951719Y-117638056D01*
X114022677Y-117760957D01*
X114069727Y-117842450D01*
X114069729Y-117842453D01*
X114069730Y-117842454D01*
X114215879Y-118032920D01*
X114214720Y-118033808D01*
X114241537Y-118091662D01*
X114231983Y-118160876D01*
X114215385Y-118186701D01*
X114215879Y-118187080D01*
X114069730Y-118377545D01*
X113951719Y-118581943D01*
X113951714Y-118581954D01*
X113861394Y-118800006D01*
X113800306Y-119027989D01*
X113796751Y-119054994D01*
X113769500Y-119261989D01*
X113769500Y-119498011D01*
X113800307Y-119732014D01*
X113861394Y-119959993D01*
X113951714Y-120178045D01*
X113951719Y-120178056D01*
X114022677Y-120300957D01*
X114069727Y-120382450D01*
X114069729Y-120382453D01*
X114069730Y-120382454D01*
X114213406Y-120569697D01*
X114213412Y-120569704D01*
X114380295Y-120736587D01*
X114380301Y-120736592D01*
X114567550Y-120880273D01*
X114698918Y-120956118D01*
X114771943Y-120998280D01*
X114771948Y-120998282D01*
X114771951Y-120998284D01*
X114990007Y-121088606D01*
X115217986Y-121149693D01*
X115451989Y-121180500D01*
X115451996Y-121180500D01*
X115688004Y-121180500D01*
X115688011Y-121180500D01*
X115922014Y-121149693D01*
X116149993Y-121088606D01*
X116368049Y-120998284D01*
X116572450Y-120880273D01*
X116759699Y-120736592D01*
X116926592Y-120569699D01*
X117070273Y-120382450D01*
X117188284Y-120178049D01*
X117278606Y-119959993D01*
X117339693Y-119732014D01*
X117370500Y-119498011D01*
X117370500Y-119261989D01*
X117339693Y-119027986D01*
X117278606Y-118800007D01*
X117188284Y-118581951D01*
X117188282Y-118581948D01*
X117188280Y-118581943D01*
X117146118Y-118508918D01*
X117070273Y-118377550D01*
X117037105Y-118334325D01*
X116924121Y-118187080D01*
X116925286Y-118186185D01*
X116898469Y-118128381D01*
X116907998Y-118059165D01*
X116924619Y-118033302D01*
X116924121Y-118032920D01*
X116978814Y-117961641D01*
X117070273Y-117842450D01*
X117188284Y-117638049D01*
X117278606Y-117419993D01*
X117339693Y-117192014D01*
X117370500Y-116958011D01*
X117370500Y-116721989D01*
X117359383Y-116637550D01*
X117370148Y-116568516D01*
X117409432Y-116521051D01*
X117553074Y-116416690D01*
X124105690Y-109864073D01*
X124216760Y-109711199D01*
X124302547Y-109542832D01*
X124360940Y-109363118D01*
X124371016Y-109299500D01*
X124390500Y-109176486D01*
X124390500Y-84995513D01*
X124360940Y-84808881D01*
X124302545Y-84629163D01*
X124216759Y-84460800D01*
X124105690Y-84307927D01*
X123972073Y-84174310D01*
X120162074Y-80364310D01*
X120009199Y-80253240D01*
X119840836Y-80167454D01*
X119661118Y-80109059D01*
X119474486Y-80079500D01*
X119474481Y-80079500D01*
X100818625Y-80079500D01*
X100751586Y-80059815D01*
X100730944Y-80043181D01*
X99992352Y-79304589D01*
X99958867Y-79243266D01*
X99963851Y-79173574D01*
X100005723Y-79117641D01*
X100006998Y-79116699D01*
X100042656Y-79090793D01*
X100182319Y-78951130D01*
X100243642Y-78917645D01*
X100313334Y-78922629D01*
X100357681Y-78951130D01*
X100497345Y-79090794D01*
X100497350Y-79090798D01*
X100655632Y-79205796D01*
X100701155Y-79238870D01*
X100830136Y-79304589D01*
X100925616Y-79353239D01*
X100925618Y-79353239D01*
X100925621Y-79353241D01*
X101165215Y-79431090D01*
X101414038Y-79470500D01*
X101414039Y-79470500D01*
X101665961Y-79470500D01*
X101665962Y-79470500D01*
X101914785Y-79431090D01*
X102154379Y-79353241D01*
X102378845Y-79238870D01*
X102582656Y-79090793D01*
X102722319Y-78951130D01*
X102783642Y-78917645D01*
X102853334Y-78922629D01*
X102897681Y-78951130D01*
X103037345Y-79090794D01*
X103037350Y-79090798D01*
X103195632Y-79205796D01*
X103241155Y-79238870D01*
X103370136Y-79304589D01*
X103465616Y-79353239D01*
X103465618Y-79353239D01*
X103465621Y-79353241D01*
X103705215Y-79431090D01*
X103954038Y-79470500D01*
X103954039Y-79470500D01*
X104205961Y-79470500D01*
X104205962Y-79470500D01*
X104454785Y-79431090D01*
X104694379Y-79353241D01*
X104918845Y-79238870D01*
X105122656Y-79090793D01*
X105262319Y-78951130D01*
X105323642Y-78917645D01*
X105393334Y-78922629D01*
X105437681Y-78951130D01*
X105577345Y-79090794D01*
X105577350Y-79090798D01*
X105735632Y-79205796D01*
X105781155Y-79238870D01*
X105910136Y-79304589D01*
X106005616Y-79353239D01*
X106005618Y-79353239D01*
X106005621Y-79353241D01*
X106245215Y-79431090D01*
X106494038Y-79470500D01*
X106494039Y-79470500D01*
X106745961Y-79470500D01*
X106745962Y-79470500D01*
X106994785Y-79431090D01*
X107234379Y-79353241D01*
X107458845Y-79238870D01*
X107662656Y-79090793D01*
X107802319Y-78951130D01*
X107863642Y-78917645D01*
X107933334Y-78922629D01*
X107977681Y-78951130D01*
X108117345Y-79090794D01*
X108117350Y-79090798D01*
X108275632Y-79205796D01*
X108321155Y-79238870D01*
X108450136Y-79304589D01*
X108545616Y-79353239D01*
X108545618Y-79353239D01*
X108545621Y-79353241D01*
X108785215Y-79431090D01*
X109034038Y-79470500D01*
X109034039Y-79470500D01*
X109285961Y-79470500D01*
X109285962Y-79470500D01*
X109534785Y-79431090D01*
X109774379Y-79353241D01*
X109998845Y-79238870D01*
X110202656Y-79090793D01*
X110342319Y-78951130D01*
X110403642Y-78917645D01*
X110473334Y-78922629D01*
X110517681Y-78951130D01*
X110657345Y-79090794D01*
X110657350Y-79090798D01*
X110815632Y-79205796D01*
X110861155Y-79238870D01*
X110990136Y-79304589D01*
X111085616Y-79353239D01*
X111085618Y-79353239D01*
X111085621Y-79353241D01*
X111325215Y-79431090D01*
X111574038Y-79470500D01*
X111574039Y-79470500D01*
X111825961Y-79470500D01*
X111825962Y-79470500D01*
X112074785Y-79431090D01*
X112314379Y-79353241D01*
X112538845Y-79238870D01*
X112742656Y-79090793D01*
X112882319Y-78951130D01*
X112943642Y-78917645D01*
X113013334Y-78922629D01*
X113057681Y-78951130D01*
X113197345Y-79090794D01*
X113197350Y-79090798D01*
X113355632Y-79205796D01*
X113401155Y-79238870D01*
X113530136Y-79304589D01*
X113625616Y-79353239D01*
X113625618Y-79353239D01*
X113625621Y-79353241D01*
X113865215Y-79431090D01*
X114114038Y-79470500D01*
X114114039Y-79470500D01*
X114365961Y-79470500D01*
X114365962Y-79470500D01*
X114614785Y-79431090D01*
X114854379Y-79353241D01*
X115078845Y-79238870D01*
X115282656Y-79090793D01*
X115419119Y-78954330D01*
X115480442Y-78920845D01*
X115550134Y-78925829D01*
X115594481Y-78954330D01*
X115734625Y-79094474D01*
X115734630Y-79094478D01*
X115842261Y-79172676D01*
X115938435Y-79242550D01*
X116060194Y-79304589D01*
X116162896Y-79356919D01*
X116162898Y-79356919D01*
X116162901Y-79356921D01*
X116402495Y-79434770D01*
X116651318Y-79474180D01*
X116651319Y-79474180D01*
X116903241Y-79474180D01*
X116903242Y-79474180D01*
X117152065Y-79434770D01*
X117391659Y-79356921D01*
X117616125Y-79242550D01*
X117819936Y-79094473D01*
X117959599Y-78954810D01*
X118020922Y-78921325D01*
X118090614Y-78926309D01*
X118134961Y-78954810D01*
X118274625Y-79094474D01*
X118274630Y-79094478D01*
X118382261Y-79172676D01*
X118478435Y-79242550D01*
X118600194Y-79304589D01*
X118702896Y-79356919D01*
X118702898Y-79356919D01*
X118702901Y-79356921D01*
X118942495Y-79434770D01*
X119191318Y-79474180D01*
X119191319Y-79474180D01*
X119443241Y-79474180D01*
X119443242Y-79474180D01*
X119692065Y-79434770D01*
X119931659Y-79356921D01*
X120156125Y-79242550D01*
X120359936Y-79094473D01*
X120538073Y-78916336D01*
X120686150Y-78712525D01*
X120800521Y-78488059D01*
X120878370Y-78248465D01*
X120917780Y-77999642D01*
X120917780Y-76947718D01*
X120878370Y-76698895D01*
X120800521Y-76459301D01*
X120800519Y-76459298D01*
X120800519Y-76459296D01*
X120746560Y-76353397D01*
X120686150Y-76234835D01*
X120667232Y-76208797D01*
X120538078Y-76031030D01*
X120538074Y-76031025D01*
X120359934Y-75852885D01*
X120359929Y-75852881D01*
X120156128Y-75704812D01*
X120156127Y-75704811D01*
X120156125Y-75704810D01*
X120086027Y-75669093D01*
X119931663Y-75590440D01*
X119692065Y-75512590D01*
X119443242Y-75473180D01*
X119191318Y-75473180D01*
X119066906Y-75492885D01*
X118942494Y-75512590D01*
X118702896Y-75590440D01*
X118478431Y-75704812D01*
X118274630Y-75852881D01*
X118274625Y-75852885D01*
X118134961Y-75992550D01*
X118073638Y-76026035D01*
X118003946Y-76021051D01*
X117959599Y-75992550D01*
X117819934Y-75852885D01*
X117819929Y-75852881D01*
X117616128Y-75704812D01*
X117616127Y-75704811D01*
X117616125Y-75704810D01*
X117546027Y-75669093D01*
X117391663Y-75590440D01*
X117152065Y-75512590D01*
X116903242Y-75473180D01*
X116651318Y-75473180D01*
X116526906Y-75492885D01*
X116402494Y-75512590D01*
X116162896Y-75590440D01*
X115938431Y-75704812D01*
X115734631Y-75852880D01*
X115598160Y-75989350D01*
X115536836Y-76022834D01*
X115467145Y-76017849D01*
X115422798Y-75989349D01*
X115282654Y-75849205D01*
X115282649Y-75849201D01*
X115078848Y-75701132D01*
X115078847Y-75701131D01*
X115078845Y-75701130D01*
X115008747Y-75665413D01*
X114854383Y-75586760D01*
X114614785Y-75508910D01*
X114614779Y-75508909D01*
X114365962Y-75469500D01*
X114114038Y-75469500D01*
X114090804Y-75473180D01*
X113865214Y-75508910D01*
X113625616Y-75586760D01*
X113401151Y-75701132D01*
X113197350Y-75849201D01*
X113197345Y-75849205D01*
X113057681Y-75988870D01*
X112996358Y-76022355D01*
X112926666Y-76017371D01*
X112882319Y-75988870D01*
X112742654Y-75849205D01*
X112742649Y-75849201D01*
X112538848Y-75701132D01*
X112538847Y-75701131D01*
X112538845Y-75701130D01*
X112468747Y-75665413D01*
X112314383Y-75586760D01*
X112074785Y-75508910D01*
X112074779Y-75508909D01*
X111825962Y-75469500D01*
X111574038Y-75469500D01*
X111550804Y-75473180D01*
X111325214Y-75508910D01*
X111085616Y-75586760D01*
X110861151Y-75701132D01*
X110657350Y-75849201D01*
X110657345Y-75849205D01*
X110517681Y-75988870D01*
X110456358Y-76022355D01*
X110386666Y-76017371D01*
X110342319Y-75988870D01*
X110202654Y-75849205D01*
X110202649Y-75849201D01*
X109998848Y-75701132D01*
X109998847Y-75701131D01*
X109998845Y-75701130D01*
X109774379Y-75586759D01*
X109534785Y-75508910D01*
X109534783Y-75508909D01*
X109391775Y-75486258D01*
X109328640Y-75456328D01*
X109323493Y-75451466D01*
X104639207Y-70767180D01*
X104605722Y-70705857D01*
X104610706Y-70636165D01*
X104652578Y-70580232D01*
X104718042Y-70555815D01*
X104726888Y-70555499D01*
X104804208Y-70555499D01*
X104804216Y-70555499D01*
X104936412Y-70545096D01*
X105154683Y-70490096D01*
X105359626Y-70397007D01*
X105526875Y-70281135D01*
X105593191Y-70259139D01*
X105659491Y-70275677D01*
X105819784Y-70368222D01*
X105819785Y-70368222D01*
X105819788Y-70368224D01*
X106043900Y-70461054D01*
X106278211Y-70523838D01*
X106458586Y-70547584D01*
X106518711Y-70555500D01*
X106518712Y-70555500D01*
X106761289Y-70555500D01*
X106809388Y-70549167D01*
X107001789Y-70523838D01*
X107236100Y-70461054D01*
X107460212Y-70368224D01*
X107670289Y-70246936D01*
X107862738Y-70099265D01*
X108034265Y-69927738D01*
X108136813Y-69794093D01*
X108193240Y-69752891D01*
X108262986Y-69748736D01*
X108308074Y-69769262D01*
X108432442Y-69859620D01*
X108621782Y-69956095D01*
X108823871Y-70021757D01*
X108890000Y-70032231D01*
X108890000Y-68984145D01*
X108956657Y-69022630D01*
X109077465Y-69055000D01*
X109202535Y-69055000D01*
X109323343Y-69022630D01*
X109390000Y-68984145D01*
X109390000Y-70032230D01*
X109456126Y-70021757D01*
X109456129Y-70021757D01*
X109658217Y-69956095D01*
X109847557Y-69859620D01*
X110019459Y-69734727D01*
X110019464Y-69734723D01*
X110169723Y-69584464D01*
X110169727Y-69584459D01*
X110294620Y-69412557D01*
X110391095Y-69223217D01*
X110456757Y-69021130D01*
X110456757Y-69021127D01*
X110487030Y-68830000D01*
X109544146Y-68830000D01*
X109582630Y-68763343D01*
X109615000Y-68642535D01*
X109615000Y-68517465D01*
X109582630Y-68396657D01*
X109544146Y-68330000D01*
X110487030Y-68330000D01*
X110456757Y-68138872D01*
X110456757Y-68138869D01*
X110391095Y-67936782D01*
X110294620Y-67747442D01*
X110169727Y-67575540D01*
X110169723Y-67575535D01*
X110019464Y-67425276D01*
X110019459Y-67425272D01*
X109847557Y-67300379D01*
X109658215Y-67203903D01*
X109456124Y-67138241D01*
X109390000Y-67127768D01*
X109390000Y-68175854D01*
X109323343Y-68137370D01*
X109202535Y-68105000D01*
X109077465Y-68105000D01*
X108956657Y-68137370D01*
X108890000Y-68175854D01*
X108890000Y-67127768D01*
X108889999Y-67127768D01*
X108823875Y-67138241D01*
X108621784Y-67203903D01*
X108432442Y-67300379D01*
X108308074Y-67390737D01*
X108242267Y-67414217D01*
X108174214Y-67398391D01*
X108136813Y-67365905D01*
X108034266Y-67232263D01*
X108034260Y-67232256D01*
X107862743Y-67060739D01*
X107862736Y-67060733D01*
X107670293Y-66913067D01*
X107670292Y-66913066D01*
X107670289Y-66913064D01*
X107460212Y-66791776D01*
X107460205Y-66791773D01*
X107236104Y-66698947D01*
X107001785Y-66636161D01*
X106761289Y-66604500D01*
X106761288Y-66604500D01*
X106518712Y-66604500D01*
X106518711Y-66604500D01*
X106278214Y-66636161D01*
X106043895Y-66698947D01*
X105819794Y-66791773D01*
X105819784Y-66791777D01*
X105659492Y-66884322D01*
X105591591Y-66900795D01*
X105526876Y-66878863D01*
X105359632Y-66762997D01*
X105359630Y-66762995D01*
X105359626Y-66762993D01*
X105218621Y-66698946D01*
X105154681Y-66669903D01*
X105154678Y-66669902D01*
X104936420Y-66614905D01*
X104936413Y-66614904D01*
X104892347Y-66611436D01*
X104804217Y-66604500D01*
X104804215Y-66604500D01*
X103475791Y-66604500D01*
X103475776Y-66604501D01*
X103343586Y-66614904D01*
X103343579Y-66614905D01*
X103125321Y-66669902D01*
X103125318Y-66669903D01*
X102920377Y-66762991D01*
X102920367Y-66762997D01*
X102735354Y-66891174D01*
X102735342Y-66891184D01*
X102576184Y-67050342D01*
X102576174Y-67050354D01*
X102447997Y-67235367D01*
X102447991Y-67235377D01*
X102354903Y-67440318D01*
X102354902Y-67440321D01*
X102299905Y-67658579D01*
X102299904Y-67658586D01*
X102289500Y-67790777D01*
X102289500Y-68118111D01*
X102269815Y-68185150D01*
X102217011Y-68230905D01*
X102147853Y-68240849D01*
X102084297Y-68211824D01*
X102077819Y-68205792D01*
X92772804Y-58900777D01*
X102289500Y-58900777D01*
X102289500Y-60479208D01*
X102289501Y-60479223D01*
X102299904Y-60611413D01*
X102299905Y-60611420D01*
X102354902Y-60829678D01*
X102354903Y-60829681D01*
X102447991Y-61034622D01*
X102447997Y-61034632D01*
X102576174Y-61219645D01*
X102576178Y-61219650D01*
X102576181Y-61219654D01*
X102735346Y-61378819D01*
X102735350Y-61378822D01*
X102735354Y-61378825D01*
X102753124Y-61391136D01*
X102920374Y-61507007D01*
X103125317Y-61600096D01*
X103125321Y-61600097D01*
X103343579Y-61655094D01*
X103343581Y-61655094D01*
X103343588Y-61655096D01*
X103475783Y-61665500D01*
X104804216Y-61665499D01*
X104936412Y-61655096D01*
X105154683Y-61600096D01*
X105359626Y-61507007D01*
X105526875Y-61391135D01*
X105593191Y-61369139D01*
X105659491Y-61385677D01*
X105819784Y-61478222D01*
X105819785Y-61478222D01*
X105819788Y-61478224D01*
X106043900Y-61571054D01*
X106278211Y-61633838D01*
X106458586Y-61657584D01*
X106518711Y-61665500D01*
X106518712Y-61665500D01*
X106761289Y-61665500D01*
X106809388Y-61659167D01*
X107001789Y-61633838D01*
X107236100Y-61571054D01*
X107460212Y-61478224D01*
X107670289Y-61356936D01*
X107862738Y-61209265D01*
X108034265Y-61037738D01*
X108136813Y-60904093D01*
X108193240Y-60862891D01*
X108262986Y-60858736D01*
X108308074Y-60879262D01*
X108432442Y-60969620D01*
X108621782Y-61066095D01*
X108823871Y-61131757D01*
X108890000Y-61142231D01*
X108890000Y-60094145D01*
X108956657Y-60132630D01*
X109077465Y-60165000D01*
X109202535Y-60165000D01*
X109323343Y-60132630D01*
X109390000Y-60094145D01*
X109390000Y-61142230D01*
X109456126Y-61131757D01*
X109456129Y-61131757D01*
X109658217Y-61066095D01*
X109847557Y-60969620D01*
X110019459Y-60844727D01*
X110019464Y-60844723D01*
X110169723Y-60694464D01*
X110169727Y-60694459D01*
X110294620Y-60522557D01*
X110391095Y-60333217D01*
X110456757Y-60131130D01*
X110456757Y-60131127D01*
X110487030Y-59940000D01*
X109544146Y-59940000D01*
X109582630Y-59873343D01*
X109615000Y-59752535D01*
X109615000Y-59627465D01*
X109582630Y-59506657D01*
X109544146Y-59440000D01*
X110487030Y-59440000D01*
X110456757Y-59248872D01*
X110456757Y-59248869D01*
X110391095Y-59046782D01*
X110294620Y-58857442D01*
X110169727Y-58685540D01*
X110169723Y-58685535D01*
X110019464Y-58535276D01*
X110019459Y-58535272D01*
X109847557Y-58410379D01*
X109658215Y-58313903D01*
X109456124Y-58248241D01*
X109390000Y-58237768D01*
X109390000Y-59285854D01*
X109323343Y-59247370D01*
X109202535Y-59215000D01*
X109077465Y-59215000D01*
X108956657Y-59247370D01*
X108890000Y-59285854D01*
X108890000Y-58237768D01*
X108889999Y-58237768D01*
X108823875Y-58248241D01*
X108621784Y-58313903D01*
X108432442Y-58410379D01*
X108308074Y-58500737D01*
X108242267Y-58524217D01*
X108174214Y-58508391D01*
X108136813Y-58475905D01*
X108034266Y-58342263D01*
X108034260Y-58342256D01*
X107862743Y-58170739D01*
X107862736Y-58170733D01*
X107670293Y-58023067D01*
X107670292Y-58023066D01*
X107670289Y-58023064D01*
X107460212Y-57901776D01*
X107460205Y-57901773D01*
X107236104Y-57808947D01*
X107053511Y-57760021D01*
X107001789Y-57746162D01*
X107001788Y-57746161D01*
X107001785Y-57746161D01*
X106761289Y-57714500D01*
X106761288Y-57714500D01*
X106518712Y-57714500D01*
X106518711Y-57714500D01*
X106278214Y-57746161D01*
X106043895Y-57808947D01*
X105819794Y-57901773D01*
X105819784Y-57901777D01*
X105659492Y-57994322D01*
X105591591Y-58010795D01*
X105526876Y-57988863D01*
X105359632Y-57872997D01*
X105359630Y-57872995D01*
X105359626Y-57872993D01*
X105337469Y-57862929D01*
X105154681Y-57779903D01*
X105154678Y-57779902D01*
X104936420Y-57724905D01*
X104936413Y-57724904D01*
X104892347Y-57721436D01*
X104804217Y-57714500D01*
X104804215Y-57714500D01*
X103475791Y-57714500D01*
X103475776Y-57714501D01*
X103343586Y-57724904D01*
X103343579Y-57724905D01*
X103125321Y-57779902D01*
X103125318Y-57779903D01*
X102920377Y-57872991D01*
X102920367Y-57872997D01*
X102735354Y-58001174D01*
X102735342Y-58001184D01*
X102576184Y-58160342D01*
X102576174Y-58160354D01*
X102447997Y-58345367D01*
X102447991Y-58345377D01*
X102354903Y-58550318D01*
X102354902Y-58550321D01*
X102299905Y-58768579D01*
X102299904Y-58768586D01*
X102289500Y-58900777D01*
X92772804Y-58900777D01*
X86859207Y-52987180D01*
X86825722Y-52925857D01*
X86830706Y-52856165D01*
X86872578Y-52800232D01*
X86938042Y-52775815D01*
X86946888Y-52775499D01*
X86964208Y-52775499D01*
X86964216Y-52775499D01*
X87096412Y-52765096D01*
X87314683Y-52710096D01*
X87519626Y-52617007D01*
X87704654Y-52488819D01*
X87863819Y-52329654D01*
X87992007Y-52144626D01*
X88085096Y-51939683D01*
X88140096Y-51721412D01*
X88150500Y-51589217D01*
X88150499Y-50553711D01*
X102309500Y-50553711D01*
X102309500Y-51046288D01*
X102341161Y-51286785D01*
X102403947Y-51521104D01*
X102468810Y-51677697D01*
X102496776Y-51745212D01*
X102618064Y-51955289D01*
X102618066Y-51955292D01*
X102618067Y-51955293D01*
X102765733Y-52147736D01*
X102765739Y-52147743D01*
X102937256Y-52319260D01*
X102937263Y-52319266D01*
X102985485Y-52356268D01*
X103129711Y-52466936D01*
X103339788Y-52588224D01*
X103563900Y-52681054D01*
X103798211Y-52743838D01*
X103978586Y-52767584D01*
X104038711Y-52775500D01*
X104038712Y-52775500D01*
X104281289Y-52775500D01*
X104329388Y-52769167D01*
X104521789Y-52743838D01*
X104756100Y-52681054D01*
X104980212Y-52588224D01*
X105190289Y-52466936D01*
X105334516Y-52356266D01*
X105399683Y-52331074D01*
X105468127Y-52345112D01*
X105485476Y-52356261D01*
X105629711Y-52466936D01*
X105839788Y-52588224D01*
X106063900Y-52681054D01*
X106298211Y-52743838D01*
X106478586Y-52767584D01*
X106538711Y-52775500D01*
X106538712Y-52775500D01*
X106781289Y-52775500D01*
X106829388Y-52769167D01*
X107021789Y-52743838D01*
X107256100Y-52681054D01*
X107480212Y-52588224D01*
X107690289Y-52466936D01*
X107882738Y-52319265D01*
X108018017Y-52183985D01*
X108079338Y-52150502D01*
X108149030Y-52155486D01*
X108170794Y-52166130D01*
X108240869Y-52209353D01*
X108240880Y-52209358D01*
X108407302Y-52264505D01*
X108407309Y-52264506D01*
X108510019Y-52274999D01*
X108909999Y-52274999D01*
X108910000Y-52274998D01*
X108910000Y-51204145D01*
X108976657Y-51242630D01*
X109097465Y-51275000D01*
X109222535Y-51275000D01*
X109343343Y-51242630D01*
X109410000Y-51204145D01*
X109410000Y-52274999D01*
X109809972Y-52274999D01*
X109809986Y-52274998D01*
X109912697Y-52264505D01*
X110079119Y-52209358D01*
X110079124Y-52209356D01*
X110228345Y-52117315D01*
X110352315Y-51993345D01*
X110444356Y-51844124D01*
X110444358Y-51844119D01*
X110499505Y-51677697D01*
X110499506Y-51677690D01*
X110509999Y-51574986D01*
X110510000Y-51574973D01*
X110510000Y-51050000D01*
X109564146Y-51050000D01*
X109602630Y-50983343D01*
X109635000Y-50862535D01*
X109635000Y-50737465D01*
X109602630Y-50616657D01*
X109564146Y-50550000D01*
X110509999Y-50550000D01*
X110509999Y-50025028D01*
X110509998Y-50025013D01*
X110499505Y-49922302D01*
X110444358Y-49755880D01*
X110444356Y-49755875D01*
X110352315Y-49606654D01*
X110228345Y-49482684D01*
X110079124Y-49390643D01*
X110079119Y-49390641D01*
X109912697Y-49335494D01*
X109912690Y-49335493D01*
X109809986Y-49325000D01*
X109410000Y-49325000D01*
X109410000Y-50395854D01*
X109343343Y-50357370D01*
X109222535Y-50325000D01*
X109097465Y-50325000D01*
X108976657Y-50357370D01*
X108910000Y-50395854D01*
X108910000Y-49325000D01*
X108510028Y-49325000D01*
X108510012Y-49325001D01*
X108407302Y-49335494D01*
X108240880Y-49390641D01*
X108240871Y-49390645D01*
X108170793Y-49433870D01*
X108103401Y-49452310D01*
X108036737Y-49431387D01*
X108018016Y-49416012D01*
X107882743Y-49280739D01*
X107882736Y-49280733D01*
X107690293Y-49133067D01*
X107690292Y-49133066D01*
X107690289Y-49133064D01*
X107480212Y-49011776D01*
X107480205Y-49011773D01*
X107256104Y-48918947D01*
X107021785Y-48856161D01*
X106781289Y-48824500D01*
X106781288Y-48824500D01*
X106538712Y-48824500D01*
X106538711Y-48824500D01*
X106298214Y-48856161D01*
X106063895Y-48918947D01*
X105839794Y-49011773D01*
X105839785Y-49011777D01*
X105629706Y-49133067D01*
X105485486Y-49243731D01*
X105420317Y-49268925D01*
X105351872Y-49254887D01*
X105334514Y-49243731D01*
X105190293Y-49133067D01*
X105190292Y-49133066D01*
X105190289Y-49133064D01*
X104980212Y-49011776D01*
X104980205Y-49011773D01*
X104756104Y-48918947D01*
X104521785Y-48856161D01*
X104281289Y-48824500D01*
X104281288Y-48824500D01*
X104038712Y-48824500D01*
X104038711Y-48824500D01*
X103798214Y-48856161D01*
X103563895Y-48918947D01*
X103339794Y-49011773D01*
X103339785Y-49011777D01*
X103129706Y-49133067D01*
X102937263Y-49280733D01*
X102937256Y-49280739D01*
X102765739Y-49452256D01*
X102765733Y-49452263D01*
X102618067Y-49644706D01*
X102496777Y-49854785D01*
X102496773Y-49854794D01*
X102403947Y-50078895D01*
X102341161Y-50313214D01*
X102309500Y-50553711D01*
X88150499Y-50553711D01*
X88150499Y-50010784D01*
X88140096Y-49878588D01*
X88134100Y-49854794D01*
X88085097Y-49660321D01*
X88085096Y-49660318D01*
X88073240Y-49634217D01*
X87992007Y-49455374D01*
X87901684Y-49325001D01*
X87863825Y-49270354D01*
X87863822Y-49270350D01*
X87863819Y-49270346D01*
X87704654Y-49111181D01*
X87704650Y-49111178D01*
X87704645Y-49111174D01*
X87519632Y-48982997D01*
X87519630Y-48982995D01*
X87519626Y-48982993D01*
X87378621Y-48918946D01*
X87314681Y-48889903D01*
X87314678Y-48889902D01*
X87096420Y-48834905D01*
X87096413Y-48834904D01*
X86990620Y-48826578D01*
X86925331Y-48801694D01*
X86912668Y-48790641D01*
X83000738Y-44878711D01*
X128149500Y-44878711D01*
X128149500Y-45121288D01*
X128181161Y-45361785D01*
X128243947Y-45596104D01*
X128269364Y-45657465D01*
X128336776Y-45820212D01*
X128458064Y-46030289D01*
X128458066Y-46030292D01*
X128458067Y-46030293D01*
X128605733Y-46222736D01*
X128605739Y-46222743D01*
X128777256Y-46394260D01*
X128777262Y-46394265D01*
X128969711Y-46541936D01*
X129179788Y-46663224D01*
X129403900Y-46756054D01*
X129638211Y-46818838D01*
X129818586Y-46842584D01*
X129878711Y-46850500D01*
X129878712Y-46850500D01*
X130121289Y-46850500D01*
X130169388Y-46844167D01*
X130361789Y-46818838D01*
X130596100Y-46756054D01*
X130820212Y-46663224D01*
X131030289Y-46541936D01*
X131222738Y-46394265D01*
X131394265Y-46222738D01*
X131541936Y-46030289D01*
X131663224Y-45820212D01*
X131756054Y-45596100D01*
X131818838Y-45361789D01*
X131850500Y-45121288D01*
X131850500Y-44878712D01*
X131818838Y-44638211D01*
X131756054Y-44403900D01*
X131663224Y-44179788D01*
X131541936Y-43969711D01*
X131481018Y-43890321D01*
X131394266Y-43777263D01*
X131394260Y-43777256D01*
X131222743Y-43605739D01*
X131222736Y-43605733D01*
X131030293Y-43458067D01*
X131030292Y-43458066D01*
X131030289Y-43458064D01*
X130820212Y-43336776D01*
X130820205Y-43336773D01*
X130596104Y-43243947D01*
X130361785Y-43181161D01*
X130121289Y-43149500D01*
X130121288Y-43149500D01*
X129878712Y-43149500D01*
X129878711Y-43149500D01*
X129638214Y-43181161D01*
X129403895Y-43243947D01*
X129179794Y-43336773D01*
X129179785Y-43336777D01*
X128969706Y-43458067D01*
X128777263Y-43605733D01*
X128777256Y-43605739D01*
X128605739Y-43777256D01*
X128605733Y-43777263D01*
X128458067Y-43969706D01*
X128336777Y-44179785D01*
X128336773Y-44179794D01*
X128243947Y-44403895D01*
X128181161Y-44638214D01*
X128149500Y-44878711D01*
X83000738Y-44878711D01*
X80157511Y-42035484D01*
X79966434Y-41896657D01*
X79755996Y-41789433D01*
X79531368Y-41716446D01*
X79298097Y-41679500D01*
X79298092Y-41679500D01*
X63261908Y-41679500D01*
X63261903Y-41679500D01*
X63028630Y-41716447D01*
X62876993Y-41765716D01*
X62876992Y-41765717D01*
X62804007Y-41789432D01*
X62804001Y-41789434D01*
X62593565Y-41896657D01*
X62402488Y-42035484D01*
X62402487Y-42035485D01*
X60719409Y-43718562D01*
X60658086Y-43752047D01*
X60647914Y-43753820D01*
X60478214Y-43776161D01*
X60243895Y-43838947D01*
X60019794Y-43931773D01*
X60019785Y-43931777D01*
X59809706Y-44053067D01*
X59665486Y-44163731D01*
X59600317Y-44188925D01*
X59531872Y-44174887D01*
X59514514Y-44163731D01*
X59370293Y-44053067D01*
X59370292Y-44053066D01*
X59370289Y-44053064D01*
X59160212Y-43931776D01*
X59160205Y-43931773D01*
X58936104Y-43838947D01*
X58701785Y-43776161D01*
X58461289Y-43744500D01*
X58461288Y-43744500D01*
X58218712Y-43744500D01*
X58218711Y-43744500D01*
X57978214Y-43776161D01*
X57743895Y-43838947D01*
X57519794Y-43931773D01*
X57519785Y-43931777D01*
X57309706Y-44053067D01*
X57165486Y-44163731D01*
X57100317Y-44188925D01*
X57031872Y-44174887D01*
X57014514Y-44163731D01*
X56870293Y-44053067D01*
X56870292Y-44053066D01*
X56870289Y-44053064D01*
X56660212Y-43931776D01*
X56660205Y-43931773D01*
X56436104Y-43838947D01*
X56201785Y-43776161D01*
X55961289Y-43744500D01*
X55961288Y-43744500D01*
X55718712Y-43744500D01*
X55718711Y-43744500D01*
X55478214Y-43776161D01*
X55243895Y-43838947D01*
X55019794Y-43931773D01*
X55019784Y-43931777D01*
X54859492Y-44024322D01*
X54791591Y-44040795D01*
X54726876Y-44018863D01*
X54559632Y-43902997D01*
X54559630Y-43902995D01*
X54559626Y-43902993D01*
X54418621Y-43838946D01*
X54354681Y-43809903D01*
X54354678Y-43809902D01*
X54136420Y-43754905D01*
X54136413Y-43754904D01*
X54092347Y-43751436D01*
X54004217Y-43744500D01*
X54004215Y-43744500D01*
X52675791Y-43744500D01*
X52675776Y-43744501D01*
X52543586Y-43754904D01*
X52543579Y-43754905D01*
X52325321Y-43809902D01*
X52325318Y-43809903D01*
X52120377Y-43902991D01*
X52120367Y-43902997D01*
X51935354Y-44031174D01*
X51935342Y-44031184D01*
X51776184Y-44190342D01*
X51776174Y-44190354D01*
X51647997Y-44375367D01*
X51647991Y-44375377D01*
X51554903Y-44580318D01*
X51554902Y-44580321D01*
X51499905Y-44798579D01*
X51499904Y-44798586D01*
X51489500Y-44930777D01*
X36850500Y-44930777D01*
X36850500Y-44878712D01*
X36818838Y-44638211D01*
X36756054Y-44403900D01*
X36663224Y-44179788D01*
X36541936Y-43969711D01*
X36481018Y-43890321D01*
X36394266Y-43777263D01*
X36394260Y-43777256D01*
X36222743Y-43605739D01*
X36222736Y-43605733D01*
X36030293Y-43458067D01*
X36030292Y-43458066D01*
X36030289Y-43458064D01*
X35820212Y-43336776D01*
X35820205Y-43336773D01*
X35596104Y-43243947D01*
X35361785Y-43181161D01*
X35121289Y-43149500D01*
X35121288Y-43149500D01*
X34878712Y-43149500D01*
X34878711Y-43149500D01*
X34638214Y-43181161D01*
X34403895Y-43243947D01*
X34179794Y-43336773D01*
X34179785Y-43336777D01*
X33969706Y-43458067D01*
X33777263Y-43605733D01*
X33777256Y-43605739D01*
X33605739Y-43777256D01*
X33605733Y-43777263D01*
X33458067Y-43969706D01*
X33336777Y-44179785D01*
X33336773Y-44179794D01*
X33243947Y-44403895D01*
X33181161Y-44638214D01*
X33149500Y-44878711D01*
X30500500Y-44878711D01*
X30500500Y-40624500D01*
X30520185Y-40557461D01*
X30572989Y-40511706D01*
X30624500Y-40500500D01*
X134375500Y-40500500D01*
X134442539Y-40520185D01*
G37*
%TD.AperFunction*%
%TD*%
M02*
